<svg width="29" height="29" viewBox="0 0 29 29" fill="none" xmlns="http://www.w3.org/2000/svg">
<path d="M5.76719 4.30005C4.71744 4.30005 3.86719 5.1503 3.86719 6.20005V23.3C3.86719 24.3498 4.71744 25.2 5.76719 25.2H22.8672C23.9169 25.2 24.7672 24.3498 24.7672 23.3V6.20005C24.7672 5.1503 23.9169 4.30005 22.8672 4.30005H5.76719ZM14.3209 7.78276C18.802 7.78276 22.4479 10.7414 22.4479 14.379C22.4479 15.8353 21.8836 17.1477 20.7056 18.4387C19.0003 20.4014 15.1882 22.7914 14.3209 23.1572C13.4545 23.522 13.5816 22.9245 13.6158 22.7193C13.6367 22.5977 13.7327 22.0235 13.7327 22.0235C13.7603 21.8154 13.7875 21.4949 13.7049 21.2887C13.6127 21.0636 13.2537 20.9449 12.9887 20.8879C9.08227 20.3711 6.19209 17.6394 6.19209 14.379C6.19209 10.7424 9.83975 7.78276 14.3209 7.78276ZM12.0628 12.7647C11.8243 12.7647 11.6305 12.9523 11.6305 13.1803V16.3198C11.6305 16.5497 11.8243 16.7354 12.0628 16.7354C12.3012 16.7354 12.4951 16.5487 12.4951 16.3198V13.1803C12.4951 12.9523 12.3012 12.7647 12.0628 12.7647ZM13.9016 12.7647C13.8588 12.7647 13.8144 12.7699 13.7717 12.7851C13.6035 12.8421 13.4896 12.9999 13.4896 13.1785V16.3179C13.4896 16.5478 13.6736 16.7354 13.9016 16.7354C14.1296 16.7354 14.3135 16.5459 14.3135 16.3179V14.3752L15.9129 16.5684C15.9898 16.6729 16.1121 16.7354 16.2413 16.7354C16.286 16.7354 16.3294 16.7283 16.3712 16.7131C16.5403 16.6561 16.6551 16.4984 16.6551 16.3198H16.6514V13.1803C16.6514 12.9523 16.4674 12.7647 16.2413 12.7647C16.0152 12.7647 15.8294 12.9523 15.8294 13.1803V15.123L14.23 12.9317C14.153 12.8272 14.0308 12.7647 13.9016 12.7647ZM18.0504 12.7647C17.8119 12.7647 17.6181 12.9523 17.6181 13.1803V14.7482V14.75V16.3179C17.6181 16.5478 17.8119 16.7354 18.0504 16.7354H19.6888C19.9282 16.7354 20.1229 16.5478 20.1229 16.3198C20.1229 16.0918 19.9272 15.906 19.6888 15.906H18.4827V15.1638H19.6888C19.9282 15.1638 20.1229 14.978 20.1229 14.75C20.1229 14.5201 19.9272 14.3344 19.6888 14.3344L18.4827 14.3363V13.5941H19.6888C19.9282 13.5941 20.1229 13.4093 20.1229 13.1803C20.1229 12.9523 19.9272 12.7647 19.6888 12.7647H18.0504ZM8.94375 12.7666C8.7053 12.7666 8.51143 12.9514 8.51143 13.1803V16.3198C8.51143 16.5497 8.7053 16.7354 8.94375 16.7354H10.5821C10.8215 16.7354 11.0135 16.5487 11.0145 16.3216C11.0145 16.0936 10.8206 15.9079 10.5821 15.9079H9.37607V13.1803C9.37607 12.9523 9.1822 12.7666 8.94375 12.7666Z" fill="white"/>
</svg>
