<svg width="30" height="29" viewBox="0 0 30 29" fill="none" xmlns="http://www.w3.org/2000/svg">
<path fill-rule="evenodd" clip-rule="evenodd" d="M4.56641 6.5C4.56641 5.39543 5.46184 4.5 6.56641 4.5H23.4664C24.571 4.5 25.4664 5.39543 25.4664 6.5V23.4C25.4664 24.5046 24.571 25.4 23.4664 25.4H6.5664C5.46183 25.4 4.56641 24.5046 4.56641 23.4V6.5ZM20.7764 14.95C20.7764 18.1311 18.1976 20.71 15.0164 20.71C11.8353 20.71 9.25647 18.1311 9.25647 14.95C9.25647 11.7689 11.8353 9.19004 15.0164 9.19004C18.1976 9.19004 20.7764 11.7689 20.7764 14.95ZM21.3162 9.40771C21.8077 9.40771 22.2061 9.00928 22.2061 8.5178C22.2061 8.02632 21.8077 7.62789 21.3162 7.62789C20.8247 7.62789 20.4263 8.02632 20.4263 8.5178C20.4263 9.00928 20.8247 9.40771 21.3162 9.40771Z" fill="white"/>
<circle cx="15.0162" cy="14.95" r="3.81499" fill="white"/>
</svg>
