<svg width="49" height="296" viewBox="0 0 49 296" fill="none" xmlns="http://www.w3.org/2000/svg">
<rect x="11.6432" y="2.23008" width="25.7" height="291.7" rx="12.85" fill="white" stroke="#5082FF" stroke-width="3.7"/>
<rect x="13.4932" y="128.08" width="22" height="164" rx="11" fill="#B7EFFF"/>
<path fill-rule="evenodd" clip-rule="evenodd" d="M24.4932 292.069C24.6589 292.076 24.8256 292.08 24.9932 292.08C31.0683 292.08 35.9932 287.155 35.9932 281.08V15.0801C35.9932 9.00495 31.0683 4.08008 24.9932 4.08008C24.8256 4.08008 24.6589 4.08382 24.4932 4.09124V292.069Z" fill="black" fill-opacity="0.05"/>
<circle cx="24.4932" cy="141.24" r="21.5" fill="white" stroke="#5082FF" stroke-width="5"/>
<path fill-rule="evenodd" clip-rule="evenodd" d="M24.4928 125.5C25.1003 125.5 25.5928 125.992 25.5928 126.6V130.529L28.2404 128.404C28.7142 128.024 29.4065 128.099 29.7868 128.573C30.1671 129.047 30.0913 129.739 29.6175 130.119L25.5928 133.35V139.335L30.7474 136.359L31.5619 131.236C31.6573 130.636 32.221 130.227 32.821 130.322C33.421 130.418 33.83 130.981 33.7346 131.581L33.2002 134.943L36.6218 132.967C37.1479 132.664 37.8207 132.844 38.1244 133.37C38.4282 133.896 38.2479 134.569 37.7218 134.873L34.319 136.837L37.4833 138.067C38.0495 138.288 38.3301 138.925 38.1099 139.491C37.8897 140.058 37.2522 140.338 36.686 140.118L31.876 138.248L26.6928 141.24L31.8471 144.216L36.6909 142.36C37.2582 142.143 37.8943 142.426 38.1117 142.994C38.329 143.561 38.0454 144.197 37.4781 144.414L34.2999 145.632L37.7217 147.608C38.2478 147.911 38.4281 148.584 38.1243 149.11C37.8206 149.636 37.1478 149.817 36.6217 149.513L33.2187 147.548L33.7353 150.904C33.8277 151.504 33.4159 152.066 32.8155 152.158C32.215 152.251 31.6534 151.839 31.5609 151.239L30.7756 146.138L25.5928 143.145V149.13L29.6175 152.36C30.0913 152.741 30.1671 153.433 29.7868 153.907C29.4065 154.381 28.7142 154.456 28.2404 154.076L25.5928 151.951V155.88C25.5928 156.488 25.1003 156.98 24.4928 156.98C23.8852 156.98 23.3928 156.488 23.3928 155.88V151.929L20.7489 154.073C20.2771 154.455 19.5843 154.383 19.2017 153.911C18.8191 153.439 18.8915 152.746 19.3634 152.364L23.3928 149.097V143.145L18.2101 146.138L17.4248 151.239C17.3323 151.839 16.7706 152.251 16.1702 152.158C15.5698 152.066 15.1579 151.504 15.2504 150.904L15.767 147.548L12.3642 149.513C11.838 149.817 11.1653 149.636 10.8615 149.11C10.5578 148.584 10.738 147.911 11.2642 147.608L14.6857 145.632L11.5076 144.414C10.9403 144.197 10.6566 143.561 10.874 142.994C11.0914 142.426 11.7275 142.143 12.2948 142.36L17.1385 144.216L22.2928 141.24L17.1099 138.248L12.2997 140.118C11.7334 140.338 11.096 140.058 10.8758 139.492C10.6556 138.925 10.9362 138.288 11.5024 138.068L14.6668 136.837L11.2641 134.873C10.7379 134.569 10.5577 133.896 10.8614 133.37C11.1652 132.844 11.8379 132.664 12.3641 132.967L15.7855 134.943L15.251 131.582C15.1556 130.982 15.5647 130.418 16.1647 130.322C16.7646 130.227 17.3283 130.636 17.4237 131.236L18.2383 136.359L23.3928 139.335V133.383L19.3634 130.116C18.8915 129.733 18.8191 129.041 19.2017 128.569C19.5843 128.097 20.2771 128.025 20.7489 128.407L23.3928 130.551V126.6C23.3928 125.992 23.8852 125.5 24.4928 125.5Z" fill="#4294FF"/>
</svg>
