<svg width="71" height="75" viewBox="0 0 71 75" fill="none" xmlns="http://www.w3.org/2000/svg">
<circle cx="35.2344" cy="40" r="35" fill="#5082FF"/>
<circle cx="35.2344" cy="35" r="34.5" fill="white" stroke="#5082FF"/>
<path d="M46.6868 26.5625H42.2659C40.7102 26.5625 39.4534 27.8193 39.4534 29.375C39.4534 30.9307 40.7102 32.1875 42.2659 32.1875H53.5159C55.0715 32.1875 56.3284 30.9307 56.3284 29.375V18.125C56.3284 16.5693 55.0715 15.3125 53.5159 15.3125C51.9602 15.3125 50.7034 16.5693 50.7034 18.125V22.625L49.1565 21.0781C41.4661 13.3877 29.0032 13.3877 21.3127 21.0781C13.6223 28.7686 13.6223 41.2314 21.3127 48.9219C29.0032 56.6123 41.4661 56.6123 49.1565 48.9219C50.2551 47.8232 50.2551 46.0391 49.1565 44.9404C48.0579 43.8418 46.2737 43.8418 45.175 44.9404C39.6819 50.4336 30.7786 50.4336 25.2854 44.9404C19.7922 39.4473 19.7922 30.5439 25.2854 25.0508C30.7786 19.5576 39.6819 19.5576 45.175 25.0508L46.6868 26.5625Z" fill="#5082FF"/>
</svg>
