<svg width="118" height="73" viewBox="0 0 118 73" fill="none" xmlns="http://www.w3.org/2000/svg">
<rect x="0.234375" y="8" width="117.589" height="65" rx="18" fill="#777777"/>
<rect x="0.734375" y="0.5" width="116.589" height="64" rx="17.5" fill="#C6C6C6" stroke="#9E9E9E"/>
<path d="M14.5356 42.5V19.94H23.1436C25.7676 19.94 27.9863 20.388 29.7996 21.284C31.6129 22.18 32.9783 23.4707 33.8956 25.156C34.8343 26.82 35.3036 28.836 35.3036 31.204C35.3036 33.5507 34.8343 35.5667 33.8956 37.252C32.9783 38.9373 31.6129 40.2387 29.7996 41.156C27.9863 42.052 25.7676 42.5 23.1436 42.5H14.5356ZM19.5276 38.404H22.8556C25.3729 38.404 27.2396 37.8173 28.4556 36.644C29.6929 35.4493 30.3116 33.636 30.3116 31.204C30.3116 28.7507 29.6929 26.9373 28.4556 25.764C27.2396 24.5907 25.3729 24.004 22.8556 24.004H19.5276V38.404ZM38.5511 31.204C38.5511 28.8573 38.9884 26.82 39.8631 25.092C40.7591 23.3427 42.0391 21.988 43.7031 21.028C45.3671 20.068 47.3404 19.588 49.6231 19.588C51.9058 19.588 53.8791 20.068 55.5431 21.028C57.2071 21.988 58.4871 23.3427 59.3831 25.092C60.3004 26.82 60.7591 28.8467 60.7591 31.172C60.7591 33.54 60.3004 35.5987 59.3831 37.348C58.4871 39.076 57.2071 40.4307 55.5431 41.412C53.8791 42.372 51.9058 42.852 49.6231 42.852C47.3404 42.852 45.3671 42.372 43.7031 41.412C42.0604 40.4307 40.7911 39.0653 39.8951 37.316C38.9991 35.5667 38.5511 33.5293 38.5511 31.204ZM43.7671 31.204C43.7671 33.5293 44.2471 35.3533 45.2071 36.676C46.1884 37.9773 47.6604 38.628 49.6231 38.628C51.5431 38.628 53.0044 37.9773 54.0071 36.676C55.0098 35.3533 55.5111 33.5293 55.5111 31.204C55.5111 28.8573 55.0098 27.044 54.0071 25.764C53.0258 24.4627 51.5644 23.812 49.6231 23.812C47.6604 23.812 46.1884 24.4627 45.2071 25.764C44.2471 27.044 43.7671 28.8573 43.7671 31.204ZM64.6606 42.5V19.94H68.3726L80.6286 35.524H79.7646V19.94H84.4046V42.5H80.6926L68.4686 26.916H69.3006V42.5H64.6606ZM88.9731 42.5V19.94H104.653V23.812H93.7411V29.092H103.885V32.996H93.7411V38.628H104.653V42.5H88.9731Z" fill="white"/>
</svg>
