<svg width="79" height="100" viewBox="0 0 79 100" fill="none" xmlns="http://www.w3.org/2000/svg">
<path d="M1.89258 94.6652V28.3287L16.228 12.7622V2.20679L66.9403 3.10684V14.1146L77.4147 24.9535V91.29L56.9163 98.315L1.89258 94.6652Z" fill="#DDA88B"/>
<path d="M67.8157 13.7838L57.125 29.6451L77.9681 24.9333L67.8157 13.7838Z" fill="#FCFCEB"/>
<path d="M15.7744 12.1434V1.73425L67.3584 2.63431V13.0435L15.7744 12.1434Z" fill="#FAFAFA"/>
<path d="M56.916 29.6383L56.9183 98.6682L77.8177 91.7288L77.9686 24.9332L56.916 29.6383Z" fill="#E1B46C"/>
<path d="M77.4125 25.5745C77.3578 25.5736 77.3033 25.5661 77.2503 25.552L62.6086 21.5715C62.4502 21.5279 62.3156 21.4233 62.2342 21.2808C62.1527 21.1383 62.131 20.9694 62.1738 20.811C62.2176 20.6528 62.3222 20.5183 62.4648 20.437C62.6075 20.3556 62.7766 20.3339 62.9352 20.3767L77.577 24.3572C77.7353 24.4009 77.8699 24.5054 77.9514 24.6479C78.0329 24.7904 78.0545 24.9593 78.0117 25.1178C77.9754 25.2487 77.8971 25.3643 77.789 25.4467C77.6808 25.5292 77.5486 25.5741 77.4125 25.5745Z" fill="#C1A26F"/>
<path d="M56.9134 59.8465C56.7491 59.8465 56.5916 59.7814 56.4754 59.6653C56.3592 59.5493 56.2939 59.3919 56.2939 59.2278V47.428C56.2939 47.2639 56.3592 47.1065 56.4754 46.9904C56.5916 46.8744 56.7491 46.8092 56.9134 46.8092C57.0777 46.8092 57.2353 46.8744 57.3514 46.9904C57.4676 47.1065 57.5329 47.2639 57.5329 47.428V59.2278C57.5329 59.3919 57.4676 59.5493 57.3514 59.6653C57.2353 59.7814 57.0777 59.8465 56.9134 59.8465Z" fill="#7A5012"/>
<path d="M56.9134 68.0889C56.7491 68.0889 56.5916 68.0237 56.4754 67.9076C56.3592 67.7916 56.2939 67.6342 56.2939 67.4701V62.0697C56.2939 61.9056 56.3592 61.7482 56.4754 61.6322C56.5916 61.5161 56.7491 61.4509 56.9134 61.4509C57.0777 61.4509 57.2353 61.5161 57.3514 61.6322C57.4676 61.7482 57.5329 61.9056 57.5329 62.0697V67.4701C57.5329 67.6342 57.4676 67.7916 57.3514 67.9076C57.2353 68.0237 57.0777 68.0889 56.9134 68.0889Z" fill="#7A5012"/>
<path d="M56.9137 44.9483C56.7494 44.9483 56.5918 44.8831 56.4756 44.767C56.3595 44.651 56.2942 44.4936 56.2942 44.3295V30.2413L1.87642 28.9475C1.79508 28.9461 1.71483 28.9285 1.64033 28.8958C1.56583 28.8632 1.49856 28.8161 1.44241 28.7573C1.38626 28.6985 1.34235 28.6291 1.31322 28.5532C1.2841 28.4773 1.27033 28.3965 1.27273 28.3152C1.27418 28.234 1.29177 28.1538 1.32446 28.0794C1.35715 28.005 1.40429 27.9378 1.46317 27.8817C1.52204 27.8256 1.59147 27.7817 1.66743 27.7526C1.74339 27.7235 1.82439 27.7098 1.90571 27.7122L56.9294 29.0195C57.0911 29.0231 57.245 29.0899 57.3579 29.2056C57.4708 29.3213 57.5337 29.4767 57.5331 29.6383V44.3295C57.5331 44.4936 57.4678 44.651 57.3517 44.767C57.2355 44.8831 57.0779 44.9483 56.9137 44.9483Z" fill="#7A5012"/>
<path d="M56.9134 98.9339C56.7491 98.9339 56.5916 98.8687 56.4754 98.7526C56.3592 98.6366 56.2939 98.4792 56.2939 98.3151V75.1386C56.2939 74.9745 56.3592 74.8171 56.4754 74.701C56.5916 74.585 56.7491 74.5198 56.9134 74.5198C57.0777 74.5198 57.2353 74.585 57.3514 74.701C57.4676 74.8171 57.5329 74.9745 57.5329 75.1386V98.3151C57.5329 98.4792 57.4676 98.6366 57.3514 98.7526C57.2353 98.8687 57.0777 98.9339 56.9134 98.9339Z" fill="#7A5012"/>
<path d="M56.9135 30.2571C56.7732 30.2566 56.6372 30.2088 56.5277 30.1213C56.4181 30.0339 56.3413 29.9121 56.3098 29.7755C56.2915 29.6963 56.289 29.6143 56.3026 29.5341C56.3161 29.454 56.3454 29.3773 56.3887 29.3085C56.4321 29.2397 56.4886 29.1801 56.5551 29.1332C56.6216 29.0863 56.6966 29.053 56.776 29.0352L77.2745 24.3504C77.4346 24.3141 77.6026 24.3428 77.7416 24.4301C77.8805 24.5175 77.9791 24.6563 78.0156 24.8162C78.034 24.8954 78.0365 24.9774 78.0231 25.0576C78.0098 25.1378 77.9807 25.2146 77.9376 25.2835C77.8945 25.3525 77.8382 25.4123 77.772 25.4595C77.7058 25.5067 77.6309 25.5405 77.5516 25.5588L57.0531 30.2413C57.0072 30.2509 56.9604 30.2561 56.9135 30.2571Z" fill="#7A5012"/>
<path d="M56.9141 30.2571C56.7912 30.2575 56.671 30.2206 56.5695 30.1514C56.5018 30.1061 56.4438 30.0479 56.3986 29.9801C56.3535 29.9124 56.3222 29.8364 56.3065 29.7566C56.2908 29.6767 56.2911 29.5946 56.3072 29.5148C56.3233 29.4351 56.355 29.3593 56.4005 29.2918L67.0439 13.498C67.0895 13.4306 67.1479 13.3729 67.2157 13.328C67.2836 13.2831 67.3597 13.2521 67.4396 13.2366C67.5196 13.2212 67.6017 13.2216 67.6815 13.2379C67.7612 13.2542 67.837 13.286 67.9044 13.3315C67.9718 13.3768 68.0296 13.4349 68.0745 13.5025C68.1194 13.5702 68.1504 13.646 68.1659 13.7256C68.1814 13.8053 68.181 13.8872 68.1647 13.9667C68.1485 14.0461 68.1167 14.1216 68.0711 14.1888L57.4277 29.9826C57.3715 30.0672 57.2951 30.1365 57.2055 30.1844C57.1159 30.2324 57.0158 30.2573 56.9141 30.2571Z" fill="#7A5012"/>
<path d="M67.3588 13.6623L15.6757 12.7623C15.5943 12.7608 15.5141 12.7433 15.4395 12.7109C15.3649 12.6784 15.2974 12.6316 15.2409 12.5731C15.1844 12.5146 15.1401 12.4455 15.1103 12.3699C15.0805 12.2942 15.066 12.2135 15.0675 12.1322C15.0681 12.0507 15.0849 11.9701 15.1171 11.8952C15.1493 11.8202 15.1961 11.7525 15.2549 11.6959C15.3136 11.6393 15.3831 11.595 15.4592 11.5656C15.5354 11.5362 15.6166 11.5223 15.6982 11.5247L67.3813 12.4247C67.4626 12.4259 67.5428 12.4431 67.6174 12.4753C67.692 12.5075 67.7595 12.5541 67.816 12.6125C67.8725 12.6708 67.9169 12.7397 67.9467 12.8152C67.9765 12.8907 67.991 12.9714 67.9895 13.0525C67.9884 13.134 67.9711 13.2144 67.9387 13.2892C67.9064 13.364 67.8596 13.4316 67.801 13.4883C67.7424 13.5449 67.6731 13.5895 67.5973 13.6193C67.5214 13.6492 67.4404 13.6638 67.3588 13.6623Z" fill="#7A5012"/>
<path d="M16.2276 2.20682L66.9377 3.10688V13.6646L77.4122 24.9535V91.29L56.9137 98.315L1.89224 94.6653V28.3287L16.2276 12.7622V2.20682ZM16.2276 0.969238C15.9024 0.969598 15.5903 1.09723 15.3581 1.32476C15.2409 1.43981 15.1478 1.5771 15.0844 1.72857C15.0209 1.88003 14.9884 2.04263 14.9887 2.20682V12.2785L0.97995 27.4917C0.770523 27.7203 0.654048 28.0188 0.653323 28.3287V94.6653C0.652647 94.9793 0.771752 95.2818 0.986412 95.5113C1.20107 95.7408 1.49517 95.88 1.8089 95.9006L56.8326 99.5503H56.9137C57.0509 99.5504 57.1872 99.5276 57.3169 99.4828L77.8154 92.4601C78.0593 92.3755 78.2708 92.2172 78.4205 92.0072C78.5703 91.7971 78.6508 91.5457 78.6511 91.2878V24.9535C78.6514 24.6423 78.5339 24.3425 78.3222 24.1142L68.1856 13.1808V3.10688C68.1857 2.78251 68.0582 2.47109 67.8307 2.23963C67.6032 2.00818 67.2939 1.87519 66.9692 1.8693L16.2592 0.969238H16.2276Z" fill="#8B601F"/>
<mask id="path-14-outside-1_2038_4853" maskUnits="userSpaceOnUse" x="8.73107" y="50.8896" width="40.6227" height="18.5219" fill="black">
<rect fill="white" x="8.73107" y="50.8896" width="40.6227" height="18.5219"/>
<path d="M20.4316 65.324L16.2227 65.1624L14.5431 56.8299L12.4635 65.0181L10.8447 64.956L13.7113 53.6276L18.0102 53.7926L19.5777 62.229L21.6795 53.9335L23.3343 53.997L20.4316 65.324ZM28.2787 61.5362C28.2086 61.7977 28.1519 62.0237 28.1085 62.2142C28.0652 62.4047 28.0403 62.5839 28.0339 62.7517C28.0178 63.1714 28.1488 63.5127 28.4269 63.7756C28.717 64.0389 29.1498 64.1816 29.7254 64.2037C30.1451 64.2198 30.4896 64.161 30.759 64.0272C31.0403 63.8939 31.2695 63.7106 31.4466 63.4772C31.6356 63.2443 31.7841 62.9738 31.892 62.6657C32.0119 62.358 32.1145 62.0317 32.1998 61.6868L34.0104 54.4069L35.6472 54.4697L33.7992 61.7842C33.6572 62.3552 33.4626 62.8881 33.2155 63.383C32.9683 63.8779 32.6215 64.3089 32.1751 64.676C31.7407 65.0436 31.1833 65.3285 30.5031 65.5305C29.8233 65.7206 28.9858 65.7965 27.9905 65.7583C26.6115 65.7054 25.6008 65.4444 24.9583 64.9754C24.3163 64.4944 24.0132 63.7863 24.0491 62.851C24.0652 62.4313 24.1397 61.8997 24.2725 61.2564C24.4052 60.613 24.5701 59.9168 24.7669 59.1678L26.0602 54.1017L30.1432 54.2584L28.2787 61.5362ZM46.8883 56.2702L43.9924 56.1591L41.466 66.1315L37.5809 65.9823L40.1073 56.0099L37.2474 55.9001L37.6236 54.5456L47.2465 54.915L46.8883 56.2702Z"/>
</mask>
<path d="M20.4316 65.324L16.2227 65.1624L14.5431 56.8299L12.4635 65.0181L10.8447 64.956L13.7113 53.6276L18.0102 53.7926L19.5777 62.229L21.6795 53.9335L23.3343 53.997L20.4316 65.324ZM28.2787 61.5362C28.2086 61.7977 28.1519 62.0237 28.1085 62.2142C28.0652 62.4047 28.0403 62.5839 28.0339 62.7517C28.0178 63.1714 28.1488 63.5127 28.4269 63.7756C28.717 64.0389 29.1498 64.1816 29.7254 64.2037C30.1451 64.2198 30.4896 64.161 30.759 64.0272C31.0403 63.8939 31.2695 63.7106 31.4466 63.4772C31.6356 63.2443 31.7841 62.9738 31.892 62.6657C32.0119 62.358 32.1145 62.0317 32.1998 61.6868L34.0104 54.4069L35.6472 54.4697L33.7992 61.7842C33.6572 62.3552 33.4626 62.8881 33.2155 63.383C32.9683 63.8779 32.6215 64.3089 32.1751 64.676C31.7407 65.0436 31.1833 65.3285 30.5031 65.5305C29.8233 65.7206 28.9858 65.7965 27.9905 65.7583C26.6115 65.7054 25.6008 65.4444 24.9583 64.9754C24.3163 64.4944 24.0132 63.7863 24.0491 62.851C24.0652 62.4313 24.1397 61.8997 24.2725 61.2564C24.4052 60.613 24.5701 59.9168 24.7669 59.1678L26.0602 54.1017L30.1432 54.2584L28.2787 61.5362ZM46.8883 56.2702L43.9924 56.1591L41.466 66.1315L37.5809 65.9823L40.1073 56.0099L37.2474 55.9001L37.6236 54.5456L47.2465 54.915L46.8883 56.2702Z" fill="#723814"/>
<path d="M20.4316 65.324L20.3549 67.3225C21.2962 67.3587 22.1352 66.733 22.369 65.8205L20.4316 65.324ZM16.2227 65.1624L14.2622 65.5576C14.4446 66.4629 15.2232 67.1255 16.146 67.161L16.2227 65.1624ZM14.5431 56.8299L16.5037 56.4347C16.3192 55.5195 15.5262 54.8537 14.5929 54.8305C13.6597 54.8073 12.8345 55.4327 12.6047 56.3376L14.5431 56.8299ZM12.4635 65.0181L12.3868 67.0167C13.3297 67.0529 14.1697 66.4251 14.4019 65.5105L12.4635 65.0181ZM10.8447 64.956L8.9058 64.4654C8.75777 65.0503 8.88176 65.6709 9.24323 66.1541C9.60469 66.6372 10.165 66.9314 10.768 66.9545L10.8447 64.956ZM13.7113 53.6276L13.7881 51.6291C12.8445 51.5929 12.0041 52.2215 11.7725 53.137L13.7113 53.6276ZM18.0102 53.7926L19.9765 53.4273C19.8057 52.5082 19.0211 51.83 18.0869 51.7941L18.0102 53.7926ZM19.5777 62.229L17.6114 62.5943C17.783 63.518 18.5743 64.1977 19.5133 64.2279C20.4523 64.2582 21.2857 63.6309 21.5165 62.7202L19.5777 62.229ZM21.6795 53.9335L21.7562 51.935C20.8128 51.8988 19.9726 52.5271 19.7407 53.4423L21.6795 53.9335ZM23.3343 53.997L25.2717 54.4935C25.4217 53.9079 25.2989 53.2859 24.9375 52.8014C24.5761 52.3168 24.015 52.0217 23.411 51.9985L23.3343 53.997ZM20.5083 63.3255L16.2994 63.1639L16.146 67.161L20.3549 67.3225L20.5083 63.3255ZM18.1833 64.7672L16.5037 56.4347L12.5826 57.2251L14.2622 65.5576L18.1833 64.7672ZM12.6047 56.3376L10.525 64.5258L14.4019 65.5105L16.4816 57.3222L12.6047 56.3376ZM12.5402 63.0196L10.9214 62.9575L10.768 66.9545L12.3868 67.0167L12.5402 63.0196ZM12.7836 65.4466L15.6502 54.1183L11.7725 53.137L8.9058 64.4654L12.7836 65.4466ZM13.6346 55.6261L17.9335 55.7912L18.0869 51.7941L13.7881 51.6291L13.6346 55.6261ZM16.0438 54.158L17.6114 62.5943L21.5441 61.8636L19.9765 53.4273L16.0438 54.158ZM21.5165 62.7202L23.6182 54.4247L19.7407 53.4423L17.639 61.7378L21.5165 62.7202ZM21.6028 55.932L23.2575 55.9955L23.411 51.9985L21.7562 51.935L21.6028 55.932ZM21.3969 53.5005L18.4942 64.8275L22.369 65.8205L25.2717 54.4935L21.3969 53.5005ZM28.2787 61.5362L30.2105 62.054C30.2124 62.0469 30.2143 62.0397 30.2161 62.0326L28.2787 61.5362ZM28.1085 62.2142L26.1584 61.7705L26.1584 61.7705L28.1085 62.2142ZM28.4269 63.7756L27.0531 65.2291C27.0629 65.2383 27.0727 65.2475 27.0827 65.2565L28.4269 63.7756ZM30.759 64.0272L29.9025 62.2199C29.8914 62.2251 29.8803 62.2305 29.8693 62.236L30.759 64.0272ZM31.4466 63.4772L29.8938 62.2167C29.88 62.2337 29.8665 62.2508 29.8533 62.2683L31.4466 63.4772ZM31.892 62.6657L30.0285 61.9394C30.0201 61.961 30.0121 61.9827 30.0044 62.0046L31.892 62.6657ZM32.1998 61.6868L30.2589 61.204L30.2583 61.2067L32.1998 61.6868ZM34.0104 54.4069L34.0871 52.4083C33.1404 52.372 32.2982 53.0048 32.0695 53.9241L34.0104 54.4069ZM35.6472 54.4697L37.5862 54.9596C37.734 54.3747 37.6099 53.7543 37.2484 53.2713C36.8869 52.7883 36.3267 52.4943 35.7239 52.4712L35.6472 54.4697ZM33.7992 61.7842L31.8601 61.2943L31.8584 61.3015L33.7992 61.7842ZM33.2155 63.383L31.4262 62.4893L33.2155 63.383ZM32.1751 64.676L30.9047 63.1313C30.8975 63.1373 30.8903 63.1432 30.8832 63.1493L32.1751 64.676ZM30.5031 65.5305L31.0416 67.4566C31.052 67.4537 31.0623 67.4508 31.0726 67.4477L30.5031 65.5305ZM24.9583 64.9754L23.7592 66.576C23.7658 66.581 23.7724 66.5859 23.7791 66.5908L24.9583 64.9754ZM24.2725 61.2564L26.2312 61.6606L24.2725 61.2564ZM24.7669 59.1678L26.7012 59.6762C26.7024 59.6716 26.7036 59.6671 26.7048 59.6625L24.7669 59.1678ZM26.0602 54.1017L26.137 52.1031C25.1949 52.067 24.3556 52.6935 24.1224 53.607L26.0602 54.1017ZM30.1432 54.2584L32.0807 54.7548C32.2307 54.1692 32.1078 53.5472 31.7464 53.0627C31.3851 52.5782 30.824 52.2831 30.2199 52.2599L30.1432 54.2584ZM26.3469 61.0185C26.2725 61.296 26.209 61.5479 26.1584 61.7705L30.0587 62.6579C30.0947 62.4996 30.1447 62.2995 30.2105 62.054L26.3469 61.0185ZM26.1584 61.7705C26.0919 62.0626 26.0472 62.3656 26.0353 62.675L30.0324 62.8285C30.0334 62.8022 30.0385 62.7468 30.0587 62.6579L26.1584 61.7705ZM26.0353 62.675C25.9995 63.6079 26.312 64.5287 27.0531 65.2291L29.8007 62.322C29.8687 62.3863 29.9404 62.4838 29.9872 62.6057C30.0322 62.7228 30.0332 62.8077 30.0324 62.8285L26.0353 62.675ZM27.0827 65.2565C27.8528 65.9555 28.8177 66.1703 29.6487 66.2022L29.8021 62.2052C29.7304 62.2024 29.6783 62.1964 29.6431 62.1907C29.6079 62.1849 29.5934 62.18 29.5953 62.1807C29.5976 62.1814 29.6181 62.1884 29.6506 62.2066C29.6837 62.2253 29.726 62.2537 29.7711 62.2946L27.0827 65.2565ZM29.6487 66.2022C30.2772 66.2264 30.9842 66.1484 31.6486 65.8184L29.8693 62.236C29.9348 62.2034 29.9724 62.1984 29.9619 62.2002C29.9502 62.2022 29.9004 62.2089 29.8021 62.2052L29.6487 66.2022ZM31.6154 65.8346C32.1681 65.5727 32.6566 65.1912 33.0398 64.6861L29.8533 62.2683C29.8646 62.2533 29.8786 62.2391 29.8925 62.2279C29.906 62.2171 29.9116 62.2156 29.9025 62.2199L31.6154 65.8346ZM32.9993 64.7377C33.346 64.3106 33.6022 63.8333 33.7796 63.3267L30.0044 62.0046C29.966 62.1143 29.9252 62.1779 29.8938 62.2167L32.9993 64.7377ZM33.7555 63.3919C33.9089 62.9982 34.0369 62.5892 34.1413 62.1668L30.2583 61.2067C30.1921 61.4743 30.1149 61.7179 30.0285 61.9394L33.7555 63.3919ZM34.1407 62.1695L35.9513 54.8896L32.0695 53.9241L30.2589 61.204L34.1407 62.1695ZM33.9337 56.4054L35.5705 56.4682L35.7239 52.4712L34.0871 52.4083L33.9337 56.4054ZM33.7081 53.9798L31.8602 61.2943L35.7383 62.2741L37.5862 54.9596L33.7081 53.9798ZM31.8584 61.3015C31.7495 61.7393 31.6039 62.1335 31.4262 62.4893L35.0047 64.2766C35.3213 63.6427 35.565 62.971 35.7401 62.2669L31.8584 61.3015ZM31.4262 62.4893C31.31 62.7219 31.1443 62.9342 30.9047 63.1313L33.4455 66.2207C34.0987 65.6835 34.6266 65.0338 35.0047 64.2766L31.4262 62.4893ZM30.8832 63.1493C30.7053 63.2998 30.4122 63.4712 29.9336 63.6133L31.0726 67.4477C31.9545 67.1857 32.7761 66.7874 33.467 66.2028L30.8832 63.1493ZM29.9646 63.6044C29.5484 63.7207 28.9331 63.793 28.0672 63.7598L27.9138 67.7568C29.0385 67.8 30.0982 67.7204 31.0416 67.4566L29.9646 63.6044ZM28.0672 63.7598C26.8275 63.7122 26.2995 63.4782 26.1375 63.36L23.7791 66.5908C24.9021 67.4106 26.3955 67.6985 27.9138 67.7568L28.0672 63.7598ZM26.1575 63.3748C26.1052 63.3356 26.0958 63.3144 26.0882 63.2967C26.0756 63.2673 26.0387 63.1618 26.0477 62.9277L22.0506 62.7742C21.9943 64.24 22.4979 65.6311 23.7592 66.576L26.1575 63.3748ZM26.0477 62.9277C26.0579 62.6614 26.1097 62.249 26.2312 61.6606L22.3137 60.8521C22.1696 61.5504 22.0726 62.2011 22.0506 62.7742L26.0477 62.9277ZM26.2312 61.6606C26.3556 61.0577 26.5119 60.3966 26.7012 59.6762L22.8327 58.6593C22.6283 59.437 22.4549 60.1683 22.3137 60.8521L26.2312 61.6606ZM26.7048 59.6625L27.9981 54.5964L24.1224 53.607L22.8291 58.6731L26.7048 59.6625ZM25.9835 56.1002L30.0665 56.2569L30.2199 52.2599L26.137 52.1031L25.9835 56.1002ZM28.2058 53.762L26.3412 61.0399L30.2161 62.0326L32.0807 54.7548L28.2058 53.762ZM46.8883 56.2702L46.8115 58.2687C47.7472 58.3047 48.5826 57.6866 48.8219 56.7813L46.8883 56.2702ZM43.9924 56.1591L44.0691 54.1605C43.1257 54.1243 42.2855 54.7527 42.0536 55.6679L43.9924 56.1591ZM41.466 66.1315L41.3893 68.13C42.3327 68.1662 43.1729 67.5378 43.4048 66.6226L41.466 66.1315ZM37.5809 65.9823L35.6421 65.4912C35.4939 66.0762 35.6178 66.6969 35.9792 67.1802C36.3407 67.6635 36.9011 67.9577 37.5041 67.9809L37.5809 65.9823ZM40.1073 56.0099L42.046 56.5011C42.1942 55.916 42.0703 55.2954 41.7089 54.8121C41.3474 54.3288 40.7871 54.0345 40.184 54.0114L40.1073 56.0099ZM37.2474 55.9001L35.3203 55.3649C35.1567 55.9541 35.2716 56.5858 35.6322 57.0796C35.9928 57.5735 36.5596 57.8752 37.1706 57.8987L37.2474 55.9001ZM37.6236 54.5456L37.7003 52.547C36.774 52.5115 35.9446 53.1171 35.6966 54.0103L37.6236 54.5456ZM47.2465 54.915L49.1801 55.4261C49.3353 54.8391 49.2154 54.2135 48.8543 53.7254C48.4932 53.2373 47.9299 52.9397 47.3232 52.9164L47.2465 54.915ZM46.965 54.2717L44.0691 54.1605L43.9157 58.1576L46.8115 58.2687L46.965 54.2717ZM42.0536 55.6679L39.5272 65.6403L43.4048 66.6226L45.9312 56.6502L42.0536 55.6679ZM41.5427 64.133L37.6576 63.9838L37.5041 67.9809L41.3893 68.13L41.5427 64.133ZM39.5196 66.4735L42.046 56.5011L38.1685 55.5188L35.6421 65.4912L39.5196 66.4735ZM40.184 54.0114L37.3241 53.9016L37.1706 57.8987L40.0305 58.0084L40.184 54.0114ZM39.1744 56.4354L39.5507 55.0808L35.6966 54.0103L35.3203 55.3649L39.1744 56.4354ZM37.5469 56.5441L47.1698 56.9135L47.3232 52.9164L37.7003 52.547L37.5469 56.5441ZM45.3129 54.4038L44.9547 55.7591L48.8219 56.7813L49.1801 55.4261L45.3129 54.4038Z" fill="white" mask="url(#path-14-outside-1_2038_4853)"/>
</svg>
