<svg width="105" height="82" viewBox="0 0 105 82" fill="none" xmlns="http://www.w3.org/2000/svg">
<path opacity="0.1" d="M52.7935 44.3197C81.3484 44.3197 104.499 48.8737 104.499 54.4899V71.5147C104.499 77.131 81.3484 81.6849 52.7935 81.6849C24.2386 81.6849 1.08792 77.131 1.08792 71.5147V54.4899C1.08792 48.8737 24.2348 44.3197 52.7935 44.3197Z" fill="url(#paint0_linear_2273_4993)"/>
<path opacity="0.5" d="M52.793 61.9227C80.5026 61.9227 102.965 66.087 102.965 71.2255C102.965 76.3641 80.5026 80.5284 52.793 80.5284C25.0833 80.5284 2.6211 76.3641 2.6211 71.2255C2.61728 66.087 25.0833 61.9227 52.793 61.9227Z" fill="url(#paint1_linear_2273_4993)" stroke="#5181FF" stroke-width="0.213382"/>
<path opacity="0.4" d="M100.95 54.1316C100.95 54.1316 101.841 51.0202 81.521 47.7359C61.2006 44.4517 28.5916 46.3594 17.7601 48.8359C6.9287 51.3125 3.05815 53.3208 4.35854 55.4485C4.35854 55.4485 15.7866 49.1439 36.1835 48.1036C56.5842 47.0634 73.6307 46.2148 100.95 54.1316Z" fill="url(#paint2_linear_2273_4993)"/>
<path d="M81.935 7.27451H23.6391L11.0215 68.3865H11.113C11.113 73.2871 29.6798 77.2553 52.5811 77.2553C75.4823 77.2553 94.0492 73.2871 94.0492 68.3865H94.5591L81.935 7.27451Z" fill="#393B36"/>
<path d="M52.7948 63.8619C66.2117 63.8619 78.8292 62.8939 88.322 61.1339C97.9104 59.355 103.188 56.9571 103.188 54.3768C103.188 51.7965 97.9066 49.3985 88.3182 47.6197C78.8254 45.8597 66.2079 44.8917 52.791 44.8917C39.3741 44.8917 26.7565 45.8597 17.2637 47.6197C7.67529 49.3985 2.39346 51.7965 2.39346 54.3768C2.39346 56.9571 7.67529 59.355 17.2637 61.1339C26.7603 62.8939 39.3779 63.8619 52.7948 63.8619ZM52.7948 45.2562C66.1811 45.2562 78.7642 46.2211 88.2226 47.978C97.4515 49.6877 102.745 52.0196 102.745 54.3768C102.745 56.7339 97.4515 59.0659 88.2226 60.7756C78.7604 62.5293 66.1811 63.4973 52.7948 63.4973C39.4085 63.4973 26.8254 62.5293 17.367 60.7756C8.13808 59.0659 2.84476 56.7308 2.84476 54.3768C2.84476 52.0196 8.13808 49.6877 17.367 47.978C26.8254 46.2211 39.4085 45.2562 52.7948 45.2562Z" fill="#C5D5FC"/>
<path opacity="0.4" d="M52.7935 44.3197C81.3484 44.3197 104.499 48.8737 104.499 54.4899V71.5147C104.499 77.131 81.3484 81.6849 52.7935 81.6849C24.2386 81.6849 1.08792 77.131 1.08792 71.5147V54.4899C1.08792 48.8737 24.2348 44.3197 52.7935 44.3197ZM8.12147 71.6561C8.49246 74.0415 10.8026 75.2012 10.8026 75.2012C16.9794 79.5415 49.2136 80.5315 49.2136 80.5315C78.5449 81.3927 98.9418 75.6318 100.804 74.0415C102.667 72.4513 102.292 70.3738 102.292 70.3738C102.292 70.3738 101.994 65.7853 102.292 62.479C102.591 59.1759 100.131 59.971 100.131 59.971C80.4037 67.1901 45.3392 65.9047 45.3392 65.9047C26.0591 65.3547 13.7743 62.9693 10.9479 62.2967C8.11765 61.6242 8.11765 64.3773 8.11765 64.3773C8.11765 64.3773 7.74665 69.2707 8.12147 71.6561ZM52.7935 63.6796C80.5031 63.6796 102.965 59.5153 102.965 54.3768C102.965 49.2382 80.5031 45.074 52.7935 45.074C25.0838 45.074 2.6216 49.2382 2.6216 54.3768C2.61778 59.5153 25.0838 63.6796 52.7935 63.6796Z" fill="url(#paint3_linear_2273_4993)"/>
<path d="M52.7933 81.8672C66.6233 81.8672 79.6233 80.8081 89.4068 78.8815C99.282 76.9424 104.721 74.3244 104.721 71.5147V54.4899C104.721 51.6802 99.282 49.0622 89.4068 47.1199C79.6233 45.1965 66.6195 44.1374 52.7933 44.1374C38.9672 44.1374 25.9633 45.1965 16.1799 47.1199C6.3046 49.0622 0.865929 51.6802 0.865929 54.4899V71.5147C0.865929 74.3244 6.3046 76.9424 16.1799 78.8846C25.9633 80.8081 38.9633 81.8672 52.7933 81.8672ZM52.7933 44.5019C66.5889 44.5019 79.5545 45.5579 89.3035 47.4751C98.8154 49.3482 104.273 51.9033 104.273 54.4899V71.5147C104.273 74.1012 98.8154 76.6564 89.2997 78.5263C79.5506 80.4435 66.585 81.4995 52.7895 81.4995C38.9939 81.4995 26.0284 80.4435 16.2793 78.5263C6.76355 76.6532 1.30576 74.0981 1.30576 71.5147V54.4899C1.30576 51.9033 6.76355 49.3482 16.2793 47.4782C26.0322 45.5579 38.9978 44.5019 52.7933 44.5019Z" fill="#99B9FF"/>
<path opacity="0.3" d="M103.271 69.7672C103.413 67.3472 103.34 64.9273 103.451 62.5104C103.508 61.2627 103.761 59.751 103.134 58.5724C102.415 57.2241 100.82 58.2896 99.6111 58.7139C101.03 57.6673 102.724 56.8407 103.474 55.329C103.864 54.5402 103.99 53.7576 103.929 52.9813C104.3 53.4747 104.499 53.9776 104.499 54.4899V71.5147C104.499 72.3915 103.937 73.2401 102.877 74.0509C103.057 72.6272 103.187 71.1972 103.271 69.7672Z" fill="url(#paint4_linear_2273_4993)"/>
<path opacity="0.3" d="M1.27592 53.6225C1.40213 54.6282 2.00642 55.6245 2.8249 56.4825C3.68927 57.3939 4.71047 58.1607 5.93053 58.739C7.02056 59.2576 8.17942 59.663 9.31152 60.1093C7.6478 59.9522 5.32624 58.8522 4.11382 60.0842C3.05057 61.1653 2.76754 69.6981 2.6528 70.9553C2.56483 71.9264 2.50364 72.9007 2.48451 73.875C1.57042 73.1175 1.08086 72.3287 1.08086 71.5147V54.4899C1.08851 54.1976 1.15353 53.9085 1.27592 53.6225Z" fill="url(#paint5_linear_2273_4993)"/>
<path opacity="0.7" d="M88.0801 63.5162C88.0801 63.5162 72.5099 66.2159 55.6852 66.153C55.6852 66.153 64.4207 66.4013 69.7332 66.7659C69.7332 66.7659 72.9344 66.5741 73.0606 68.4127C73.1869 70.2513 73.4316 79.1204 73.4316 79.1204L77.2486 78.8155V69.035C77.2486 69.035 77.1186 66.6841 80.492 65.9487C83.8653 65.2102 88.0801 63.5162 88.0801 63.5162Z" fill="white"/>
<path d="M52.7933 64.8424C66.6233 64.8424 79.6233 63.7833 89.4068 61.8599C99.282 59.9176 104.721 57.2996 104.721 54.4899C104.721 51.6802 99.282 49.0622 89.4068 47.1199C79.6233 45.1965 66.6195 44.1374 52.7933 44.1374C38.9672 44.1374 25.9633 45.1965 16.1799 47.1199C6.3046 49.0622 0.865929 51.6802 0.865929 54.4899C0.865929 57.2996 6.3046 59.9176 16.1799 61.8599C25.9633 63.7833 38.9633 64.8424 52.7933 64.8424ZM52.7933 44.5019C66.5889 44.5019 79.5545 45.5579 89.3035 47.4751C98.8154 49.3482 104.273 51.9033 104.273 54.4899C104.273 57.0733 98.8154 59.6316 89.2997 61.5016C79.5506 63.4187 66.585 64.4747 52.7895 64.4747C38.9939 64.4747 26.0284 63.4187 16.2793 61.5016C6.76355 59.6316 1.30576 57.0733 1.30576 54.4899C1.30576 51.9033 6.76355 49.3482 16.2793 47.4782C26.0322 45.5579 38.9978 44.5019 52.7933 44.5019Z" fill="#99B9FF"/>
<path d="M15.1299 48.5031L15.4511 46.9445L54.5586 41.2355L90.1176 46.8828L90.4553 48.5049L56.1644 48.3649L15.1299 48.5031Z" fill="#393B36"/>
<mask id="mask0_2273_4993" style="mask-type:alpha" maskUnits="userSpaceOnUse" x="11" y="7" width="84" height="54">
<path d="M81.9408 7.26703H23.6449L11.0273 53.5723H11.1189C11.1189 57.2856 29.6857 60.2923 52.5869 60.2923C75.4882 60.2923 94.055 57.2856 94.055 53.5723H94.5649L81.9408 7.26703Z" fill="#393B36"/>
</mask>
<g mask="url(#mask0_2273_4993)">
<path d="M31.718 -3.3351L40.0472 -1.77871L36.2882 70.8945L21.4995 70.1739L31.718 -3.3351Z" fill="white" fill-opacity="0.6"/>
<path d="M43.4761 11.4261L46.1258 11.4261L42.2293 64.3799L40.8265 63.4367L43.4761 11.4261Z" fill="white" fill-opacity="0.6"/>
</g>
<path d="M52.7977 15.1587C68.9805 15.1587 82.0993 11.9595 82.0993 8.01296C82.0993 4.06646 68.9805 0.867188 52.7977 0.867188C36.6149 0.867188 23.4961 4.06646 23.4961 8.01296C23.4961 11.9595 36.6149 15.1587 52.7977 15.1587Z" fill="#2C2E29"/>
<defs>
<linearGradient id="paint0_linear_2273_4993" x1="52.7924" y1="37.1573" x2="52.7924" y2="64.8987" gradientUnits="userSpaceOnUse">
<stop stop-color="#C5D5FC"/>
<stop offset="0.1131" stop-color="#DCE6FD"/>
<stop offset="0.2469" stop-color="#EFF4FE"/>
<stop offset="0.3824" stop-color="#FBFCFF"/>
<stop offset="0.5211" stop-color="white"/>
<stop offset="0.611" stop-color="#FCFDFF"/>
<stop offset="0.6842" stop-color="#F2F5FF"/>
<stop offset="0.7514" stop-color="#E1E9FF"/>
<stop offset="0.8152" stop-color="#C9D8FF"/>
<stop offset="0.8765" stop-color="#AAC1FF"/>
<stop offset="0.9359" stop-color="#83A6FF"/>
<stop offset="0.9928" stop-color="#5785FF"/>
<stop offset="1" stop-color="#5181FF"/>
</linearGradient>
<linearGradient id="paint1_linear_2273_4993" x1="52.7916" y1="95.2765" x2="52.7916" y2="47.2987" gradientUnits="userSpaceOnUse">
<stop stop-color="#C5D5FC"/>
<stop offset="0.1131" stop-color="#DCE6FD"/>
<stop offset="0.2469" stop-color="#EFF4FE"/>
<stop offset="0.3824" stop-color="#FBFCFF"/>
<stop offset="0.5211" stop-color="white"/>
<stop offset="0.5964" stop-color="#F0F4FE"/>
<stop offset="0.7449" stop-color="#D8E3FD"/>
<stop offset="0.8832" stop-color="#CAD9FC"/>
<stop offset="1" stop-color="#C5D5FC"/>
</linearGradient>
<linearGradient id="paint2_linear_2273_4993" x1="52.5381" y1="32.8102" x2="52.5381" y2="57.06" gradientUnits="userSpaceOnUse">
<stop stop-color="#C5D5FC"/>
<stop offset="0.1131" stop-color="#DCE6FD"/>
<stop offset="0.2469" stop-color="#EFF4FE"/>
<stop offset="0.3824" stop-color="#FBFCFF"/>
<stop offset="0.5211" stop-color="white"/>
<stop offset="0.5964" stop-color="#F0F4FE"/>
<stop offset="0.7449" stop-color="#D8E3FD"/>
<stop offset="0.8832" stop-color="#CAD9FC"/>
<stop offset="1" stop-color="#C5D5FC"/>
</linearGradient>
<linearGradient id="paint3_linear_2273_4993" x1="79.6605" y1="63.0016" x2="-12.5212" y2="63.0016" gradientUnits="userSpaceOnUse">
<stop stop-color="#C5D5FC"/>
<stop offset="0.1131" stop-color="#DCE6FD"/>
<stop offset="0.2469" stop-color="#EFF4FE"/>
<stop offset="0.3824" stop-color="#FBFCFF"/>
<stop offset="0.5211" stop-color="white"/>
<stop offset="0.5959" stop-color="#F0F4FE"/>
<stop offset="0.7435" stop-color="#D8E3FD"/>
<stop offset="0.8808" stop-color="#CAD9FC"/>
<stop offset="0.9969" stop-color="#C5D5FC"/>
</linearGradient>
<linearGradient id="paint4_linear_2273_4993" x1="79.6598" y1="63.5154" x2="-12.5244" y2="63.5154" gradientUnits="userSpaceOnUse">
<stop stop-color="#B4BAC0"/>
<stop offset="0.044" stop-color="#C0C5CA"/>
<stop offset="0.161" stop-color="#DCDFE1"/>
<stop offset="0.2794" stop-color="#EFF1F2"/>
<stop offset="0.3988" stop-color="#FBFBFC"/>
<stop offset="0.5211" stop-color="white"/>
<stop offset="0.5409" stop-color="#F9FAFA"/>
<stop offset="0.6686" stop-color="#D8DBDE"/>
<stop offset="0.7909" stop-color="#C0C6CA"/>
<stop offset="0.9042" stop-color="#B2B9BE"/>
<stop offset="1" stop-color="#ADB4BA"/>
</linearGradient>
<linearGradient id="paint5_linear_2273_4993" x1="79.66" y1="63.7477" x2="-12.5204" y2="63.7477" gradientUnits="userSpaceOnUse">
<stop stop-color="#B4BAC0"/>
<stop offset="0.044" stop-color="#C0C5CA"/>
<stop offset="0.161" stop-color="#DCDFE1"/>
<stop offset="0.2794" stop-color="#EFF1F2"/>
<stop offset="0.3988" stop-color="#FBFBFC"/>
<stop offset="0.5211" stop-color="white"/>
<stop offset="0.5409" stop-color="#F9FAFA"/>
<stop offset="0.6686" stop-color="#D8DBDE"/>
<stop offset="0.7909" stop-color="#C0C6CA"/>
<stop offset="0.9042" stop-color="#B2B9BE"/>
<stop offset="1" stop-color="#ADB4BA"/>
</linearGradient>
</defs>
</svg>
