<svg width="104" height="146" viewBox="0 0 104 146" fill="none" xmlns="http://www.w3.org/2000/svg">
<path d="M38.7539 48.597V23.5H65.9459V48.6046V48.7385L66.0128 48.8545L101.183 109.797L101.183 109.798C104.441 115.442 100.371 122.5 93.855 122.5H10.8454C4.32851 122.493 0.258585 115.442 3.51729 109.79C3.51732 109.79 3.51735 109.79 3.51738 109.79L38.687 48.8469L38.7539 48.7309V48.597Z" fill="#FFFEFF" stroke="#5181FF"/>
<path d="M93.8482 118.589C96.2197 118.589 97.3978 116.992 97.7931 116.308C98.1883 115.624 98.9788 113.806 97.7931 111.745L62.0381 49.7833V27.4106H42.6556V49.7909L6.90067 111.745C5.71492 113.806 6.50542 115.616 6.90067 116.308C7.29592 116.992 8.47407 118.589 10.8456 118.589H93.8482Z" fill="#C5F4FC" fill-opacity="0.2"/>
<circle cx="63.9055" cy="96.1123" r="21.1516" fill="#FFD800"/>
<circle cx="64.0964" cy="96.1123" r="19.8054" fill="white"/>
<path d="M61.0477 80.7142L63.9048 92.448C64.1199 93.3313 65.3067 93.4926 65.7497 92.6986L71.5052 82.3831C71.7129 82.0108 71.6666 81.5412 71.347 81.2591C68.7361 78.9543 64.3828 79.0656 61.772 79.5487C61.236 79.6479 60.9187 80.1846 61.0477 80.7142Z" fill="#FFD800"/>
<path d="M64.9027 85.2254C65.2558 85.3137 65.3539 86.2666 65.3539 86.5788" stroke="#FFD800" stroke-width="3" stroke-linecap="round"/>
<ellipse cx="65.3166" cy="87.4467" rx="0.368652" ry="0.807922" transform="rotate(-12.3061 65.3166 87.4467)" fill="white"/>
<path d="M72.7727 83.2026L66.4959 93.5199C66.0234 94.2967 66.7485 95.2499 67.6232 95.0017L78.9871 91.7773C79.3972 91.6609 79.6965 91.2961 79.67 90.8706C79.4536 87.3948 76.2967 84.3952 74.1089 82.8907C73.6598 82.5818 73.0559 82.737 72.7727 83.2026Z" fill="#FFD800"/>
<path d="M72.309 89.1184C72.4963 89.4305 71.8918 90.1736 71.6711 90.3944" stroke="#FFD800" stroke-width="3" stroke-linecap="round"/>
<ellipse cx="71.0311" cy="90.982" rx="0.368652" ry="0.807922" transform="rotate(32.6939 71.0311 90.982)" fill="white"/>
<path d="M79.3037 93.2534L67.5698 96.1105C66.6865 96.3256 66.5252 97.5124 67.3192 97.9554L77.6347 103.711C78.007 103.919 78.4766 103.872 78.7588 103.553C81.0635 100.942 80.9522 96.5885 80.4691 93.9777C80.3699 93.4417 79.8332 93.1244 79.3037 93.2534Z" fill="#FFD800"/>
<path d="M74.7924 97.1083C74.7041 97.4614 73.7512 97.5594 73.439 97.5594" stroke="#FFD800" stroke-width="3" stroke-linecap="round"/>
<ellipse cx="72.5714" cy="97.5225" rx="0.368652" ry="0.807922" transform="rotate(77.6939 72.5714 97.5225)" fill="white"/>
<path d="M76.8154 104.979L66.498 98.7023C65.7213 98.2298 64.7681 98.955 65.0162 99.8296L68.2407 111.194C68.357 111.604 68.7218 111.903 69.1474 111.876C72.6232 111.66 75.6227 108.503 77.1273 106.315C77.4361 105.866 77.281 105.262 76.8154 104.979Z" fill="#FFD800"/>
<path d="M70.8997 104.515C70.5876 104.702 69.8445 104.098 69.6237 103.877" stroke="#FFD800" stroke-width="3" stroke-linecap="round"/>
<ellipse cx="69.036" cy="103.237" rx="0.368652" ry="0.807922" transform="rotate(122.694 69.036 103.237)" fill="white"/>
<path d="M66.7658 111.511L63.9087 99.7768C63.6936 98.8934 62.5068 98.7322 62.0638 99.5261L56.3083 109.842C56.1006 110.214 56.1469 110.684 56.4665 110.966C59.0773 113.27 63.4306 113.159 66.0415 112.676C66.5774 112.577 66.8947 112.04 66.7658 111.511Z" fill="#FFD800"/>
<path d="M62.9107 106.999C62.5577 106.911 62.4596 105.958 62.4596 105.646" stroke="#FFD800" stroke-width="3" stroke-linecap="round"/>
<ellipse cx="62.4969" cy="104.778" rx="0.368652" ry="0.807922" transform="rotate(167.694 62.4969 104.778)" fill="white"/>
<path d="M55.0389 109.023L61.3156 98.7052C61.7882 97.9285 61.063 96.9753 60.1883 97.2234L48.8244 100.448C48.4143 100.564 48.115 100.929 48.1415 101.355C48.3579 104.83 51.5149 107.83 53.7026 109.334C54.1517 109.643 54.7556 109.488 55.0389 109.023Z" fill="#FFD800"/>
<path d="M55.5025 103.107C55.3152 102.795 55.9197 102.052 56.1405 101.831" stroke="#FFD800" stroke-width="3" stroke-linecap="round"/>
<ellipse cx="56.7804" cy="101.243" rx="0.368652" ry="0.807922" transform="rotate(-147.306 56.7804 101.243)" fill="white"/>
<path d="M48.5079 98.9716L60.2417 96.1145C61.125 95.8994 61.2863 94.7126 60.4923 94.2696L50.1768 88.5141C49.8045 88.3064 49.3349 88.3527 49.0528 88.6723C46.748 91.2831 46.8593 95.6364 47.3424 98.2473C47.4416 98.7832 47.9783 99.1006 48.5079 98.9716Z" fill="#FFD800"/>
<path d="M53.0191 95.1167C53.1074 94.7636 54.0603 94.6656 54.3725 94.6656" stroke="#FFD800" stroke-width="3" stroke-linecap="round"/>
<ellipse cx="55.2401" cy="94.7025" rx="0.368652" ry="0.807922" transform="rotate(-102.306 55.2401 94.7025)" fill="white"/>
<path d="M50.9962 87.246L61.3135 93.5227C62.0902 93.9953 63.0435 93.2701 62.7953 92.3954L59.5709 81.0315C59.4545 80.6214 59.0897 80.3221 58.6642 80.3486C55.1883 80.565 52.1888 83.722 50.6842 85.9097C50.3754 86.3588 50.5305 86.9627 50.9962 87.246Z" fill="#FFD800"/>
<path d="M56.9118 87.7101C57.2239 87.5228 57.967 88.1273 58.1878 88.3481" stroke="#FFD800" stroke-width="3" stroke-linecap="round"/>
<ellipse cx="58.7755" cy="88.9878" rx="0.368652" ry="0.807922" transform="rotate(-57.3061 58.7755 88.9878)" fill="white"/>
<circle cx="30.9283" cy="102.281" r="15.8482" fill="#FFD800"/>
<circle cx="31.071" cy="102.281" r="14.8396" fill="white"/>
<path d="M28.8456 90.9828L30.7769 98.9145C30.992 99.7979 32.1788 99.9591 32.6218 99.1652L36.5358 92.1502C36.7435 91.7779 36.6984 91.306 36.3681 91.0364C34.4808 89.4953 31.5 89.5124 29.5727 89.8282C29.0348 89.9163 28.7166 90.4533 28.8456 90.9828Z" fill="#FFD800"/>
<path d="M31.6753 94.1238C31.9399 94.19 32.0134 94.904 32.0134 95.1379" stroke="#FFD800" stroke-width="3" stroke-linecap="round"/>
<ellipse cx="31.9858" cy="95.7882" rx="0.27622" ry="0.605351" transform="rotate(-12.3061 31.9858 95.7882)" fill="white"/>
<path d="M37.4447 92.8186L33.2018 99.7928C32.7292 100.57 33.4544 101.523 34.3291 101.275L42.0571 99.0818C42.4672 98.9654 42.7689 98.5999 42.7261 98.1757C42.4812 95.7515 40.3614 93.6558 38.7753 92.5163C38.3327 92.1983 37.728 92.3529 37.4447 92.8186Z" fill="#FFD800"/>
<path d="M37.2245 97.0408C37.3648 97.2747 36.9118 97.8315 36.7464 97.9969" stroke="#FFD800" stroke-width="3" stroke-linecap="round"/>
<ellipse cx="36.2678" cy="98.4371" rx="0.276219" ry="0.605351" transform="rotate(32.6939 36.2678 98.4371)" fill="white"/>
<path d="M42.2278 100.198L34.2961 102.129C33.4127 102.344 33.2515 103.531 34.0454 103.974L41.0605 107.888C41.4328 108.095 41.9046 108.05 42.1743 107.72C43.7153 105.833 43.6982 102.852 43.3825 100.925C43.2943 100.387 42.7574 100.069 42.2278 100.198Z" fill="#FFD800"/>
<path d="M39.0867 103.028C39.0206 103.292 38.3066 103.366 38.0727 103.366" stroke="#FFD800" stroke-width="3" stroke-linecap="round"/>
<ellipse cx="37.4215" cy="103.338" rx="0.27622" ry="0.605351" transform="rotate(77.6939 37.4215 103.338)" fill="white"/>
<path d="M40.3915 108.797L33.4173 104.554C32.6405 104.082 31.6873 104.807 31.9355 105.682L34.1283 113.41C34.2446 113.82 34.6102 114.122 35.0344 114.079C37.4586 113.834 39.5543 111.714 40.6938 110.128C41.0118 109.685 40.8571 109.081 40.3915 108.797Z" fill="#FFD800"/>
<path d="M36.1694 108.577C35.9356 108.718 35.3788 108.265 35.2134 108.099" stroke="#FFD800" stroke-width="3" stroke-linecap="round"/>
<ellipse cx="34.773" cy="107.62" rx="0.276219" ry="0.605351" transform="rotate(122.694 34.773 107.62)" fill="white"/>
<path d="M33.0138 113.58L31.0824 105.648C30.8674 104.765 29.6805 104.604 29.2376 105.398L25.3236 112.413C25.1158 112.785 25.161 113.257 25.4912 113.527C27.3785 115.068 30.3594 115.051 32.2867 114.735C32.8245 114.647 33.1427 114.11 33.0138 113.58Z" fill="#FFD800"/>
<path d="M30.184 110.439C29.9195 110.373 29.846 109.659 29.846 109.425" stroke="#FFD800" stroke-width="3" stroke-linecap="round"/>
<ellipse cx="29.8736" cy="108.775" rx="0.27622" ry="0.605351" transform="rotate(167.694 29.8736 108.775)" fill="white"/>
<path d="M24.4127 111.745L28.6556 104.77C29.1282 103.994 28.403 103.041 27.5284 103.289L19.8004 105.481C19.3902 105.598 19.0885 105.963 19.1314 106.388C19.3762 108.812 21.4961 110.907 23.0821 112.047C23.5248 112.365 24.1295 112.21 24.4127 111.745Z" fill="#FFD800"/>
<path d="M24.633 107.522C24.4927 107.289 24.9456 106.732 25.111 106.566" stroke="#FFD800" stroke-width="3" stroke-linecap="round"/>
<ellipse cx="25.5896" cy="106.126" rx="0.276219" ry="0.605351" transform="rotate(-147.306 25.5896 106.126)" fill="white"/>
<path d="M19.6296 104.366L27.5613 102.434C28.4447 102.219 28.6059 101.032 27.812 100.589L20.7969 96.6754C20.4246 96.4677 19.9528 96.5129 19.6832 96.8431C18.1421 98.7304 18.1592 101.711 18.475 103.639C18.5631 104.176 19.1 104.495 19.6296 104.366Z" fill="#FFD800"/>
<path d="M22.7707 101.535C22.8368 101.271 23.5508 101.197 23.7847 101.197" stroke="#FFD800" stroke-width="3" stroke-linecap="round"/>
<ellipse cx="24.4359" cy="101.225" rx="0.27622" ry="0.605351" transform="rotate(-102.306 24.4359 101.225)" fill="white"/>
<path d="M21.4659 95.7656L28.4402 100.009C29.2169 100.481 30.1701 99.7559 29.9219 98.8813L27.7292 91.1533C27.6128 90.7431 27.2472 90.4414 26.823 90.4843C24.3988 90.7291 22.3032 92.849 21.1636 94.435C20.8456 94.8777 21.0003 95.4824 21.4659 95.7656Z" fill="#FFD800"/>
<path d="M25.688 95.9855C25.9218 95.8452 26.4786 96.2981 26.6441 96.4635" stroke="#FFD800" stroke-width="3" stroke-linecap="round"/>
<ellipse cx="27.0844" cy="96.9429" rx="0.276219" ry="0.605351" transform="rotate(-57.3061 27.0844 96.9429)" fill="white"/>
<circle cx="47.1191" cy="74.6659" r="15.8482" transform="rotate(22.4593 47.1191 74.6659)" fill="#FFD800"/>
<circle cx="47.2509" cy="74.7205" r="14.8396" transform="rotate(22.4593 47.2509 74.7205)" fill="white"/>
<path d="M49.5099 63.429L48.2646 71.4969C48.1259 72.3955 49.1611 72.9979 49.8738 72.4334L56.1709 67.4457C56.5051 67.181 56.6436 66.7277 56.4414 66.3523C55.286 64.2071 52.5247 63.0842 50.623 62.6397C50.0923 62.5157 49.5931 62.8903 49.5099 63.429Z" fill="#FFD800"/>
<path d="M50.9259 67.4129C51.1451 67.5751 50.9403 68.263 50.8509 68.4792" stroke="#FFD800" stroke-width="3" stroke-linecap="round"/>
<ellipse cx="50.5763" cy="69.0697" rx="0.27622" ry="0.605351" transform="rotate(10.1532 50.5763 69.0697)" fill="white"/>
<path d="M56.756 68.4107L50.1705 73.2351C49.4371 73.7724 49.7431 74.9303 50.6462 75.0351L58.6258 75.961C59.0493 76.0101 59.4677 75.7875 59.5902 75.3792C60.29 73.0453 59.1316 70.2987 58.1011 68.6397C57.8136 68.1767 57.1956 68.0887 56.756 68.4107Z" fill="#FFD800"/>
<path d="M54.9402 72.2288C54.9805 72.4985 54.3492 72.84 54.1332 72.9297" stroke="#FFD800" stroke-width="3" stroke-linecap="round"/>
<ellipse cx="53.5214" cy="73.1535" rx="0.276219" ry="0.605351" transform="rotate(55.1532 53.5214 73.1535)" fill="white"/>
<path d="M58.3574 77.0571L50.2894 75.8118C49.3909 75.6731 48.7885 76.7083 49.353 77.421L54.3407 83.7181C54.6054 84.0523 55.0587 84.1908 55.4341 83.9886C57.5792 82.8332 58.7022 80.0719 59.1467 78.1702C59.2707 77.6394 58.896 77.1402 58.3574 77.0571Z" fill="#FFD800"/>
<path d="M54.3731 78.4727C54.2109 78.6919 53.523 78.487 53.3069 78.3976" stroke="#FFD800" stroke-width="3" stroke-linecap="round"/>
<ellipse cx="52.7168" cy="78.1236" rx="0.27622" ry="0.605351" transform="rotate(100.153 52.7168 78.1236)" fill="white"/>
<path d="M53.3753 84.3033L48.5509 77.7178C48.0136 76.9844 46.8557 77.2904 46.7509 78.1935L45.825 86.1731C45.7759 86.5966 45.9985 87.015 46.4068 87.1375C48.7407 87.8373 51.4873 86.6789 53.1463 85.6484C53.6093 85.3609 53.6974 84.7429 53.3753 84.3033Z" fill="#FFD800"/>
<path d="M49.5576 82.4871C49.2879 82.5274 48.9463 81.8962 48.8567 81.6801" stroke="#FFD800" stroke-width="3" stroke-linecap="round"/>
<ellipse cx="48.6325" cy="81.0689" rx="0.276219" ry="0.605351" transform="rotate(145.153 48.6325 81.0689)" fill="white"/>
<path d="M44.7303 85.9047L45.9756 77.8368C46.1143 76.9383 45.0791 76.3359 44.3664 76.9004L38.0693 81.8881C37.7352 82.1528 37.5966 82.6061 37.7988 82.9814C38.9542 85.1266 41.7155 86.2495 43.6172 86.694C44.148 86.8181 44.6472 86.4434 44.7303 85.9047Z" fill="#FFD800"/>
<path d="M43.3143 81.9208C43.0951 81.7586 43.3 81.0707 43.3893 80.8545" stroke="#FFD800" stroke-width="3" stroke-linecap="round"/>
<ellipse cx="43.6639" cy="80.2641" rx="0.27622" ry="0.605351" transform="rotate(-169.847 43.6639 80.2641)" fill="white"/>
<path d="M37.4823 80.9227L44.0678 76.0983C44.8012 75.5611 44.4952 74.4031 43.5921 74.2983L35.6125 73.3725C35.189 73.3233 34.7705 73.5459 34.6481 73.9543C33.9482 76.2882 35.1067 79.0347 36.1372 80.6937C36.4247 81.1567 37.0426 81.2448 37.4823 80.9227Z" fill="#FFD800"/>
<path d="M39.2981 77.1046C39.2578 76.8349 39.8891 76.4934 40.1051 76.4037" stroke="#FFD800" stroke-width="3" stroke-linecap="round"/>
<ellipse cx="40.7169" cy="76.18" rx="0.276219" ry="0.605351" transform="rotate(-124.847 40.7169 76.18)" fill="white"/>
<path d="M35.8819 72.2762L43.9498 73.5215C44.8483 73.6602 45.4508 72.625 44.8863 71.9123L39.8985 65.6152C39.6338 65.2811 39.1805 65.1425 38.8052 65.3447C36.66 66.5001 35.5371 69.2614 35.0926 71.1631C34.9686 71.6939 35.3432 72.1931 35.8819 72.2762Z" fill="#FFD800"/>
<path d="M39.8661 70.8607C40.0283 70.6414 40.7162 70.8463 40.9324 70.9357" stroke="#FFD800" stroke-width="3" stroke-linecap="round"/>
<ellipse cx="41.5225" cy="71.2097" rx="0.27622" ry="0.605351" transform="rotate(-79.8468 41.5225 71.2097)" fill="white"/>
<path d="M40.864 65.0299L45.6883 71.6153C46.2256 72.3487 47.3836 72.0427 47.4884 71.1396L48.4142 63.1601C48.4634 62.7366 48.2408 62.3181 47.8324 62.1956C45.4985 61.4958 42.752 62.6543 41.093 63.6847C40.63 63.9723 40.5419 64.5902 40.864 65.0299Z" fill="#FFD800"/>
<path d="M44.6817 66.846C44.9514 66.8057 45.2929 67.437 45.3826 67.653" stroke="#FFD800" stroke-width="3" stroke-linecap="round"/>
<ellipse cx="45.6068" cy="68.2643" rx="0.276219" ry="0.605351" transform="rotate(-34.8468 45.6068 68.2643)" fill="white"/>
<path opacity="0.46" d="M6.90067 116.308C6.50542 115.624 5.71492 113.806 6.90067 111.745L42.6556 49.7833V27.4106H48.6908V55L34.1349 118.589H10.8456C8.47407 118.589 7.29592 116.992 6.90067 116.308Z" fill="#FFFEFF"/>
</svg>
