<svg width="102" height="101" viewBox="0 0 102 101" fill="none" xmlns="http://www.w3.org/2000/svg">
<path d="M37.0606 25.6618V0.564819H64.2525V25.6694V25.8033L64.3195 25.9193L99.4892 86.8623L99.4892 86.8623C102.748 92.5067 98.6778 99.5648 92.1616 99.5648H9.15201C2.63515 99.5576 -1.43477 92.5065 1.82393 86.8547C1.82396 86.8546 1.82399 86.8546 1.82402 86.8545L36.9936 25.9117L37.0606 25.7957V25.6618Z" fill="#FFFEFF" stroke="#5181FF"/>
<path d="M92.1548 95.6542C94.5263 95.6542 95.7044 94.0572 96.0997 93.3728C96.4949 92.6884 97.2854 90.8709 96.0997 88.8101L60.3447 26.8481V4.47546H40.9623V26.8557L5.20731 88.8101C4.02156 90.8709 4.81206 92.6808 5.20731 93.3728C5.60256 94.0572 6.78071 95.6542 9.15222 95.6542H92.1548Z" fill="#C5F4FC" fill-opacity="0.2"/>
<circle cx="62.2122" cy="73.1771" r="21.1516" fill="#FFD800"/>
<circle cx="62.4031" cy="73.1771" r="19.8054" fill="white"/>
<path d="M59.3543 57.7789L62.2114 69.5128C62.4265 70.3961 63.6134 70.5574 64.0563 69.7634L69.8118 59.4479C70.0195 59.0756 69.9732 58.606 69.6536 58.3239C67.0428 56.0191 62.6895 56.1304 60.0786 56.6135C59.5427 56.7127 59.2254 57.2494 59.3543 57.7789Z" fill="#FFD800"/>
<path d="M63.2094 62.2902C63.5625 62.3785 63.6605 63.3314 63.6605 63.6436" stroke="#FFD800" stroke-width="3" stroke-linecap="round"/>
<ellipse cx="63.6232" cy="64.5115" rx="0.368652" ry="0.807922" transform="rotate(-12.3061 63.6232 64.5115)" fill="white"/>
<path d="M71.0793 60.2674L64.8025 70.5847C64.33 71.3615 65.0552 72.3147 65.9298 72.0665L77.2937 68.8421C77.7039 68.7257 78.0032 68.3609 77.9767 67.9354C77.7603 64.4595 74.6033 61.46 72.4155 59.9555C71.9665 59.6466 71.3626 59.8017 71.0793 60.2674Z" fill="#FFD800"/>
<path d="M70.6157 66.1832C70.8029 66.4953 70.1985 67.2384 69.9777 67.4591" stroke="#FFD800" stroke-width="3" stroke-linecap="round"/>
<ellipse cx="69.3377" cy="68.0468" rx="0.368652" ry="0.807922" transform="rotate(32.6939 69.3377 68.0468)" fill="white"/>
<path d="M77.6103 70.3182L65.8765 73.1753C64.9931 73.3904 64.8319 74.5772 65.6258 75.0202L75.9413 80.7757C76.3136 80.9834 76.7833 80.9371 77.0654 80.6175C79.3702 78.0067 79.2588 73.6534 78.7757 71.0425C78.6766 70.5066 78.1399 70.1892 77.6103 70.3182Z" fill="#FFD800"/>
<path d="M73.099 74.1731C73.0108 74.5262 72.0579 74.6242 71.7457 74.6242" stroke="#FFD800" stroke-width="3" stroke-linecap="round"/>
<ellipse cx="70.8781" cy="74.5873" rx="0.368652" ry="0.807922" transform="rotate(77.6939 70.8781 74.5873)" fill="white"/>
<path d="M75.122 82.0439L64.8046 75.7671C64.0279 75.2946 63.0747 76.0198 63.3229 76.8944L66.5473 88.2583C66.6637 88.6684 67.0285 88.9678 67.454 88.9413C70.9298 88.7248 73.9293 85.5679 75.4339 83.3801C75.7428 82.931 75.5876 82.3271 75.122 82.0439Z" fill="#FFD800"/>
<path d="M69.2064 81.5798C68.8943 81.767 68.1511 81.1625 67.9304 80.9418" stroke="#FFD800" stroke-width="3" stroke-linecap="round"/>
<ellipse cx="67.3426" cy="80.3019" rx="0.368652" ry="0.807922" transform="rotate(122.694 67.3426 80.3019)" fill="white"/>
<path d="M65.0724 88.5754L62.2153 76.8416C62.0002 75.9583 60.8134 75.797 60.3704 76.591L54.615 86.9065C54.4072 87.2788 54.4535 87.7484 54.7731 88.0305C57.384 90.3353 61.7373 90.2239 64.3481 89.7408C64.8841 89.6417 65.2014 89.105 65.0724 88.5754Z" fill="#FFD800"/>
<path d="M61.2174 84.0642C60.8643 83.9759 60.7663 83.023 60.7663 82.7108" stroke="#FFD800" stroke-width="3" stroke-linecap="round"/>
<ellipse cx="60.8036" cy="81.8428" rx="0.368652" ry="0.807922" transform="rotate(167.694 60.8036 81.8428)" fill="white"/>
<path d="M53.3455 86.0874L59.6223 75.77C60.0948 74.9933 59.3696 74.0401 58.495 74.2883L47.1311 77.5127C46.7209 77.6291 46.4216 77.9939 46.4481 78.4194C46.6645 81.8952 49.8215 84.8947 52.0093 86.3993C52.4583 86.7082 53.0622 86.553 53.3455 86.0874Z" fill="#FFD800"/>
<path d="M53.8091 80.1716C53.6219 79.8595 54.2264 79.1164 54.4471 78.8956" stroke="#FFD800" stroke-width="3" stroke-linecap="round"/>
<ellipse cx="55.0871" cy="78.308" rx="0.368652" ry="0.807922" transform="rotate(-147.306 55.0871 78.308)" fill="white"/>
<path d="M46.8145 76.0364L58.5483 73.1793C59.4317 72.9642 59.5929 71.7774 58.799 71.3344L48.4835 65.5789C48.1112 65.3712 47.6415 65.4175 47.3594 65.7371C45.0546 68.348 45.166 72.7013 45.6491 75.3121C45.7482 75.8481 46.2849 76.1654 46.8145 76.0364Z" fill="#FFD800"/>
<path d="M51.3258 72.1815C51.414 71.8284 52.3669 71.7304 52.6791 71.7304" stroke="#FFD800" stroke-width="3" stroke-linecap="round"/>
<ellipse cx="53.5467" cy="71.7673" rx="0.368652" ry="0.807922" transform="rotate(-102.306 53.5467 71.7673)" fill="white"/>
<path d="M49.3028 64.3107L59.6202 70.5875C60.3969 71.06 61.3501 70.3349 61.1019 69.4602L57.8775 58.0963C57.7611 57.6862 57.3963 57.3869 56.9708 57.4134C53.495 57.6298 50.4955 60.7867 48.9909 62.9745C48.682 63.4236 48.8372 64.0275 49.3028 64.3107Z" fill="#FFD800"/>
<path d="M55.2184 64.7749C55.5305 64.5876 56.2737 65.1921 56.4944 65.4128" stroke="#FFD800" stroke-width="3" stroke-linecap="round"/>
<ellipse cx="57.0822" cy="66.0527" rx="0.368652" ry="0.807922" transform="rotate(-57.3061 57.0822 66.0527)" fill="white"/>
<circle cx="29.235" cy="79.3459" r="15.8482" fill="#FFD800"/>
<circle cx="29.3777" cy="79.3459" r="14.8396" fill="white"/>
<path d="M27.1522 68.0476L29.0836 75.9793C29.2987 76.8627 30.4855 77.0239 30.9285 76.23L34.8425 69.2149C35.0502 68.8426 35.005 68.3708 34.6748 68.1012C32.7875 66.5601 29.8066 66.5772 27.8794 66.893C27.3415 66.9811 27.0233 67.518 27.1522 68.0476Z" fill="#FFD800"/>
<path d="M29.982 71.1886C30.2465 71.2548 30.32 71.9687 30.32 72.2027" stroke="#FFD800" stroke-width="3" stroke-linecap="round"/>
<ellipse cx="30.2924" cy="72.853" rx="0.27622" ry="0.605351" transform="rotate(-12.3061 30.2924 72.853)" fill="white"/>
<path d="M35.7513 69.8833L31.5084 76.8576C31.0359 77.6343 31.7611 78.5875 32.6357 78.3393L40.3637 76.1466C40.7738 76.0302 41.0755 75.6646 41.0327 75.2405C40.7879 72.8162 38.668 70.7206 37.0819 69.581C36.6393 69.263 36.0346 69.4177 35.7513 69.8833Z" fill="#FFD800"/>
<path d="M35.5311 74.1056C35.6714 74.3394 35.2185 74.8962 35.0531 75.0617" stroke="#FFD800" stroke-width="3" stroke-linecap="round"/>
<ellipse cx="34.5744" cy="75.5019" rx="0.276219" ry="0.605351" transform="rotate(32.6939 34.5744 75.5019)" fill="white"/>
<path d="M40.5345 77.2623L32.6027 79.1936C31.7194 79.4087 31.5581 80.5955 32.3521 81.0385L39.3671 84.9525C39.7394 85.1602 40.2113 85.1151 40.4809 84.7848C42.022 82.8975 42.0048 79.9167 41.6891 77.9894C41.601 77.4515 41.064 77.1333 40.5345 77.2623Z" fill="#FFD800"/>
<path d="M37.3934 80.0925C37.3272 80.357 36.6133 80.4305 36.3793 80.4305" stroke="#FFD800" stroke-width="3" stroke-linecap="round"/>
<ellipse cx="35.7282" cy="80.4028" rx="0.27622" ry="0.605351" transform="rotate(77.6939 35.7282 80.4028)" fill="white"/>
<path d="M38.6982 85.8621L31.7239 81.6192C30.9472 81.1467 29.994 81.8719 30.2421 82.7465L32.4349 90.4745C32.5513 90.8846 32.9169 91.1864 33.341 91.1435C35.7652 90.8987 37.8609 88.7788 39.0004 87.1927C39.3185 86.7501 39.1638 86.1454 38.6982 85.8621Z" fill="#FFD800"/>
<path d="M34.4761 85.6423C34.2422 85.7826 33.6854 85.3297 33.52 85.1643" stroke="#FFD800" stroke-width="3" stroke-linecap="round"/>
<ellipse cx="33.0796" cy="84.6849" rx="0.276219" ry="0.605351" transform="rotate(122.694 33.0796 84.6849)" fill="white"/>
<path d="M31.3204 90.6449L29.3891 82.7132C29.174 81.8298 27.9872 81.6686 27.5442 82.4625L23.6302 89.4776C23.4225 89.8499 23.4676 90.3217 23.7979 90.5914C25.6852 92.1324 28.666 92.1153 30.5933 91.7996C31.1312 91.7115 31.4494 91.1745 31.3204 90.6449Z" fill="#FFD800"/>
<path d="M28.4907 87.5039C28.2261 87.4378 28.1527 86.7238 28.1527 86.4899" stroke="#FFD800" stroke-width="3" stroke-linecap="round"/>
<ellipse cx="28.1802" cy="85.8395" rx="0.27622" ry="0.605351" transform="rotate(167.694 28.1802 85.8395)" fill="white"/>
<path d="M22.7194 88.8095L26.9623 81.8353C27.4348 81.0585 26.7096 80.1053 25.835 80.3535L18.107 82.5463C17.6969 82.6626 17.3952 83.0282 17.438 83.4524C17.6828 85.8766 19.8027 87.9723 21.3888 89.1118C21.8314 89.4298 22.4361 89.2751 22.7194 88.8095Z" fill="#FFD800"/>
<path d="M22.9396 84.5872C22.7993 84.3534 23.2522 83.7966 23.4176 83.6312" stroke="#FFD800" stroke-width="3" stroke-linecap="round"/>
<ellipse cx="23.8963" cy="83.1909" rx="0.276219" ry="0.605351" transform="rotate(-147.306 23.8963 83.1909)" fill="white"/>
<path d="M17.9362 81.4304L25.868 79.4991C26.7513 79.284 26.9126 78.0972 26.1186 77.6542L19.1036 73.7402C18.7313 73.5325 18.2594 73.5777 17.9898 73.9079C16.4487 75.7952 16.4659 78.776 16.7816 80.7033C16.8697 81.2412 17.4067 81.5594 17.9362 81.4304Z" fill="#FFD800"/>
<path d="M21.0773 78.6003C21.1435 78.3357 21.8574 78.2623 22.0914 78.2623" stroke="#FFD800" stroke-width="3" stroke-linecap="round"/>
<ellipse cx="22.7425" cy="78.2899" rx="0.27622" ry="0.605351" transform="rotate(-102.306 22.7425 78.2899)" fill="white"/>
<path d="M19.7726 72.8305L26.7468 77.0734C27.5235 77.5459 28.4767 76.8208 28.2286 75.9461L26.0358 68.2181C25.9194 67.808 25.5538 67.5063 25.1297 67.5491C22.7055 67.794 20.6098 69.9138 19.4703 71.4999C19.1522 71.9425 19.3069 72.5472 19.7726 72.8305Z" fill="#FFD800"/>
<path d="M23.9946 73.0503C24.2285 72.91 24.7853 73.3629 24.9507 73.5283" stroke="#FFD800" stroke-width="3" stroke-linecap="round"/>
<ellipse cx="25.3911" cy="74.0077" rx="0.276219" ry="0.605351" transform="rotate(-57.3061 25.3911 74.0077)" fill="white"/>
<circle cx="45.4257" cy="51.7307" r="15.8482" transform="rotate(22.4593 45.4257 51.7307)" fill="#FFD800"/>
<circle cx="45.5576" cy="51.7854" r="14.8396" transform="rotate(22.4593 45.5576 51.7854)" fill="white"/>
<path d="M47.8166 40.4937L46.5713 48.5617C46.4326 49.4602 47.4678 50.0626 48.1805 49.4981L54.4775 44.5104C54.8117 44.2457 54.9502 43.7924 54.7481 43.4171C53.5926 41.2719 50.8314 40.149 48.9296 39.7045C48.3989 39.5804 47.8997 39.9551 47.8166 40.4937Z" fill="#FFD800"/>
<path d="M49.2325 44.4777C49.4518 44.6399 49.2469 45.3278 49.1575 45.544" stroke="#FFD800" stroke-width="3" stroke-linecap="round"/>
<ellipse cx="48.883" cy="46.1344" rx="0.27622" ry="0.605351" transform="rotate(10.1532 48.883 46.1344)" fill="white"/>
<path d="M55.0626 45.4755L48.4772 50.2999C47.7437 50.8372 48.0498 51.9951 48.9529 52.0999L56.9324 53.0258C57.3559 53.0749 57.7744 52.8523 57.8968 52.444C58.5967 50.1101 57.4382 47.3635 56.4078 45.7045C56.1202 45.2415 55.5023 45.1534 55.0626 45.4755Z" fill="#FFD800"/>
<path d="M53.2468 49.2936C53.2871 49.5633 52.6559 49.9048 52.4398 49.9945" stroke="#FFD800" stroke-width="3" stroke-linecap="round"/>
<ellipse cx="51.828" cy="50.2182" rx="0.276219" ry="0.605351" transform="rotate(55.1532 51.828 50.2182)" fill="white"/>
<path d="M56.664 54.1219L48.5961 52.8766C47.6976 52.7379 47.0951 53.7731 47.6596 54.4858L52.6473 60.7828C52.9121 61.117 53.3654 61.2555 53.7407 61.0534C55.8859 59.8979 57.0088 57.1367 57.4533 55.2349C57.5773 54.7042 57.2027 54.205 56.664 54.1219Z" fill="#FFD800"/>
<path d="M52.6798 55.5374C52.5176 55.7566 51.8297 55.5517 51.6135 55.4624" stroke="#FFD800" stroke-width="3" stroke-linecap="round"/>
<ellipse cx="51.0234" cy="55.1884" rx="0.27622" ry="0.605351" transform="rotate(100.153 51.0234 55.1884)" fill="white"/>
<path d="M51.6819 61.3681L46.8576 54.7826C46.3203 54.0492 45.1623 54.3552 45.0575 55.2583L44.1317 63.2379C44.0825 63.6613 44.3051 64.0798 44.7135 64.2023C47.0474 64.9021 49.7939 63.7437 51.4529 62.7132C51.9159 62.4256 52.004 61.8077 51.6819 61.3681Z" fill="#FFD800"/>
<path d="M47.8642 59.5519C47.5945 59.5922 47.253 58.9609 47.1633 58.7449" stroke="#FFD800" stroke-width="3" stroke-linecap="round"/>
<ellipse cx="46.9391" cy="58.1337" rx="0.276219" ry="0.605351" transform="rotate(145.153 46.9391 58.1337)" fill="white"/>
<path d="M43.037 62.9695L44.2822 54.9016C44.4209 54.003 43.3857 53.4006 42.6731 53.9651L36.376 58.9528C36.0418 59.2175 35.9033 59.6708 36.1054 60.0462C37.2609 62.1914 40.0222 63.3143 41.9239 63.7588C42.4546 63.8828 42.9538 63.5082 43.037 62.9695Z" fill="#FFD800"/>
<path d="M41.621 58.9856C41.4017 58.8234 41.6066 58.1355 41.696 57.9193" stroke="#FFD800" stroke-width="3" stroke-linecap="round"/>
<ellipse cx="41.9706" cy="57.3289" rx="0.27622" ry="0.605351" transform="rotate(-169.847 41.9706 57.3289)" fill="white"/>
<path d="M35.789 57.9875L42.3744 53.1631C43.1078 52.6258 42.8018 51.4679 41.8987 51.3631L33.9192 50.4372C33.4957 50.3881 33.0772 50.6107 32.9547 51.0191C32.2549 53.3529 33.4134 56.0995 34.4438 57.7585C34.7314 58.2215 35.3493 58.3096 35.789 57.9875Z" fill="#FFD800"/>
<path d="M37.6047 54.1695C37.5644 53.8998 38.1957 53.5582 38.4118 53.4685" stroke="#FFD800" stroke-width="3" stroke-linecap="round"/>
<ellipse cx="39.0235" cy="53.2448" rx="0.276219" ry="0.605351" transform="rotate(-124.847 39.0235 53.2448)" fill="white"/>
<path d="M34.1885 49.341L42.2565 50.5863C43.155 50.725 43.7574 49.6898 43.1929 48.9771L38.2052 42.6801C37.9405 42.3459 37.4872 42.2074 37.1118 42.4095C34.9667 43.565 33.8437 46.3262 33.3992 48.228C33.2752 48.7587 33.6499 49.2579 34.1885 49.341Z" fill="#FFD800"/>
<path d="M38.1728 47.9255C38.335 47.7063 39.0229 47.9112 39.239 48.0005" stroke="#FFD800" stroke-width="3" stroke-linecap="round"/>
<ellipse cx="39.8291" cy="48.2745" rx="0.27622" ry="0.605351" transform="rotate(-79.8468 39.8291 48.2745)" fill="white"/>
<path d="M39.1706 42.0947L43.995 48.6801C44.5323 49.4135 45.6902 49.1075 45.795 48.2044L46.7209 40.2249C46.77 39.8014 46.5474 39.3829 46.1391 39.2605C43.8052 38.5606 41.0586 39.7191 39.3996 40.7495C38.9366 41.0371 38.8485 41.655 39.1706 42.0947Z" fill="#FFD800"/>
<path d="M42.9883 43.9108C43.258 43.8705 43.5996 44.5018 43.6892 44.7178" stroke="#FFD800" stroke-width="3" stroke-linecap="round"/>
<ellipse cx="43.9134" cy="45.3291" rx="0.276219" ry="0.605351" transform="rotate(-34.8468 43.9134 45.3291)" fill="white"/>
<path opacity="0.46" d="M5.20731 93.3728C4.81206 92.6884 4.02156 90.8709 5.20731 88.8101L40.9623 26.8481V4.47546H46.9974V32.0648L32.4416 95.6542H9.15222C6.78071 95.6542 5.60256 94.0572 5.20731 93.3728Z" fill="#FFFEFF"/>
</svg>
