<svg width="81" height="106" viewBox="0 0 81 106" fill="none" xmlns="http://www.w3.org/2000/svg">
<path d="M28.6767 27.1614V27.5228L28.3336 27.6362C12.5969 32.8379 1.24179 47.6541 1.25001 65.1308V65.1311C1.25001 86.9477 18.9334 104.631 40.75 104.631C62.5666 104.631 80.25 86.9477 80.25 65.1311C80.25 47.6542 68.8947 32.8378 53.1579 27.6278L52.815 27.5143V27.1531V0.865112H28.6767V27.1614Z" fill="#FFFEFF" stroke="#5181FF"/>
<path d="M41.233 100.263C60.5381 100.263 76.2402 84.5611 76.2402 65.2559C76.2402 50.128 66.5876 36.7724 52.2253 32.021L48.7969 30.8894V5.48267H33.644V30.8894L30.2157 32.021C15.8533 36.7724 6.20903 50.128 6.20903 65.2559C6.22567 84.5611 21.9278 100.263 41.233 100.263Z" fill="white"/>
<path d="M10.3279 61.8347C11.3636 63.3311 12.8243 64.4902 14.5257 65.1656C16.2271 65.841 18.0928 66.0024 19.8869 65.6294C21.6809 65.2565 23.3231 64.3658 24.6056 63.0701C25.8882 61.7743 26.7537 60.1316 27.0927 58.3494C27.4318 56.5673 27.2293 54.7257 26.5107 53.0574C25.7921 51.389 24.5897 49.9689 23.0555 48.9762C21.5212 47.9836 19.7239 47.4631 17.8907 47.4805C16.0575 47.4979 14.2707 48.0524 12.756 49.0739C10.7276 50.4511 9.33335 52.5669 8.87831 54.9584C8.42328 57.3499 8.94451 59.8224 10.3279 61.8347Z" fill="#455A64"/>
<path opacity="0.06" d="M10.3268 61.8347C11.7155 63.8454 13.8548 65.228 16.2741 65.6784C18.6934 66.1288 21.1945 65.6101 23.2272 64.2364C25.2599 62.8627 26.6577 60.7466 27.113 58.3534C27.5684 55.9603 27.044 53.4863 25.6552 51.4756C25.1239 50.739 24.4941 50.0771 23.783 49.508C23.9258 49.6592 24.0531 49.824 24.1633 49.9999C25.4124 51.7918 25.8906 54.0012 25.4929 56.142C25.0952 58.2828 23.8541 60.1796 22.0425 61.4152C20.231 62.6508 17.9973 63.1238 15.8331 62.7304C13.6689 62.337 11.7514 61.1093 10.5023 59.3173C9.45763 57.7857 8.96321 55.9515 9.09821 54.1088C8.72277 55.4075 8.6382 56.7716 8.85039 58.1059C9.06258 59.4403 9.56639 60.7128 10.3268 61.8347Z" fill="black"/>
<path opacity="0.3" d="M14.1886 52.2279C14.185 52.9564 14.404 53.6689 14.8167 54.2722C15.2294 54.8755 15.8165 55.3415 16.5014 55.6092C17.1864 55.8769 17.9369 55.9338 18.6551 55.7724C19.3732 55.611 20.0254 55.2389 20.5262 54.7048C21.027 54.1707 21.3529 53.4995 21.4616 52.779C21.5703 52.0585 21.4566 51.3224 21.1352 50.667C20.8139 50.0115 20.2999 49.4673 19.6606 49.1056C19.0214 48.7439 18.2866 48.5816 17.5525 48.6398C16.6265 48.6775 15.7533 49.0759 15.1231 49.7481C14.4929 50.4203 14.1569 51.3117 14.1886 52.2279Z" fill="white"/>
<path opacity="0.1" d="M24.4851 55.0058C22.73 53.5879 20.302 57.4365 17.6985 57.3786C15.095 57.3207 13.4568 55.845 11.6431 57.3786C9.82944 58.9122 13.2226 64.8731 19.0147 64.2654C24.8068 63.6578 26.9716 57.0024 24.4851 55.0058Z" fill="white"/>
<path d="M18.2306 90.0969C19.2633 91.5974 20.7229 92.761 22.4245 93.4405C24.126 94.12 25.9932 94.2849 27.7896 93.9142C29.5859 93.5436 31.2306 92.6541 32.5156 91.3583C33.8007 90.0625 34.6682 88.4188 35.0083 86.6351C35.3485 84.8514 35.1459 83.008 34.4264 81.3382C33.7069 79.6684 32.5028 78.2473 30.9664 77.2548C29.43 76.2622 27.6305 75.7429 25.7956 75.7626C23.9607 75.7822 22.173 76.3399 20.6587 77.3651C19.6522 78.0418 18.7907 78.9084 18.1237 79.9153C17.4566 80.9221 16.9971 82.0493 16.7716 83.2322C16.546 84.4151 16.5587 85.6304 16.8091 86.8085C17.0594 87.9865 17.5426 89.104 18.2306 90.0969Z" fill="#455A64"/>
<path opacity="0.06" d="M18.2309 90.0969C19.6157 92.1076 21.7513 93.4918 24.1678 93.9449C26.5844 94.398 29.0841 93.883 31.1168 92.5131C33.1495 91.1432 34.5487 89.0307 35.0068 86.6403C35.4648 84.2499 34.9442 81.7774 33.5593 79.7667C33.0362 79.0151 32.4055 78.3426 31.6871 77.7702C31.8299 77.9214 31.9572 78.0862 32.0674 78.2621C32.7323 79.1472 33.2097 80.1561 33.4708 81.2282C33.7319 82.3003 33.7715 83.4136 33.587 84.5012C33.4025 85.5887 32.9977 86.6283 32.3972 87.5574C31.7966 88.4865 31.0125 89.286 30.092 89.908C29.1714 90.5301 28.1333 90.9618 27.0399 91.1772C25.9466 91.3927 24.8204 91.3875 23.7292 91.1619C22.6379 90.9363 21.6039 90.4951 20.6893 89.8646C19.7746 89.234 18.9981 88.4273 18.4064 87.4927C17.3659 85.9593 16.8719 84.1265 17.0023 82.2842C16.6093 83.5952 16.5156 84.9761 16.7281 86.3273C16.9405 87.6784 17.4539 88.966 18.2309 90.0969Z" fill="black"/>
<path opacity="0.3" d="M22.0929 80.4612C22.0893 81.1896 22.3083 81.9021 22.721 82.5055C23.1337 83.1088 23.7208 83.5748 24.4057 83.8425C25.0906 84.1102 25.8414 84.1671 26.5595 84.0057C27.2777 83.8443 27.9297 83.4722 28.4305 82.9381C28.9313 82.404 29.2572 81.7327 29.3659 81.0123C29.4746 80.2918 29.3609 79.5556 29.0395 78.9002C28.7182 78.2448 28.2042 77.7005 27.5649 77.3389C26.9257 76.9772 26.1909 76.8148 25.4568 76.8731C24.5308 76.9108 23.6576 77.3091 23.0274 77.9813C22.3972 78.6535 22.0612 79.545 22.0929 80.4612Z" fill="white"/>
<path opacity="0.1" d="M32.3904 83.2391C30.6352 81.8502 28.2072 85.6698 25.6037 85.6408C23.0002 85.6119 21.3621 84.0783 19.5484 85.6408C17.7347 87.2034 21.1279 93.1063 26.92 92.4987C32.712 91.891 34.8769 85.2357 32.3904 83.2391Z" fill="white"/>
<path d="M25.0024 75.63C26.038 77.1264 27.4988 78.2855 29.2001 78.9609C30.9015 79.6363 32.7672 79.7977 34.5613 79.4247C36.3554 79.0518 37.9975 78.1611 39.2801 76.8653C40.5626 75.5696 41.4281 73.9269 41.7672 72.1447C42.1063 70.3626 41.9037 68.521 41.1851 66.8527C40.4665 65.1843 39.2642 63.7641 37.7299 62.7715C36.1957 61.7789 34.3984 61.2584 32.5652 61.2758C30.732 61.2932 28.9451 61.8476 27.4304 62.8692C26.423 63.5486 25.5609 64.4178 24.8935 65.4272C24.2261 66.4365 23.7663 67.5662 23.5408 68.7515C23.3153 69.9368 23.3284 71.1544 23.5792 72.3347C23.83 73.515 24.3136 74.6348 25.0024 75.63Z" fill="#455A64"/>
<path opacity="0.06" d="M25.0026 75.63C25.7536 76.7209 26.7337 77.6386 27.8761 78.3205C29.0185 79.0024 30.2964 79.4325 31.6221 79.5812C32.9479 79.73 34.2904 79.594 35.5582 79.1825C36.8259 78.7711 37.9891 78.0938 38.968 77.197C39.947 76.3002 40.7188 75.205 41.2307 73.9862C41.7426 72.7673 41.9827 71.4536 41.9344 70.1346C41.886 68.8156 41.5504 67.5225 40.9506 66.3435C40.3508 65.1646 39.5008 64.1275 38.4588 63.3032L38.8391 63.7951C40.0727 65.5871 40.5362 67.7904 40.1275 69.9203C39.7188 72.0503 38.4714 73.9323 36.6598 75.1526C34.8482 76.3728 32.6209 76.8312 30.4677 76.4269C28.3144 76.0226 26.4117 74.7888 25.1781 72.9968C24.1249 71.48 23.6294 69.6518 23.774 67.8172C23.3683 69.1266 23.268 70.51 23.4809 71.8633C23.6937 73.2165 24.214 74.5044 25.0026 75.63Z" fill="black"/>
<path opacity="0.3" d="M28.8635 66.0232C28.86 66.7516 29.0788 67.4642 29.4914 68.0675C29.9041 68.6708 30.4915 69.1368 31.1764 69.4045C31.8613 69.6722 32.6119 69.7291 33.33 69.5677C34.0481 69.4063 34.7004 69.0342 35.2011 68.5001C35.7019 67.966 36.0279 67.2948 36.1365 66.5743C36.2452 65.8538 36.1315 65.1177 35.8101 64.4622C35.4888 63.8068 34.9748 63.2626 34.3355 62.9009C33.6963 62.5392 32.9615 62.3768 32.2275 62.4351C31.7677 62.45 31.3155 62.5549 30.897 62.7437C30.4784 62.9325 30.1019 63.2015 29.7891 63.5352C29.4763 63.8688 29.2334 64.2605 29.0745 64.6876C28.9157 65.1146 28.8439 65.5686 28.8635 66.0232Z" fill="white"/>
<path opacity="0.1" d="M39.1317 68.8011C37.4057 67.3832 34.9778 71.2317 32.3743 71.2028C29.7708 71.1739 28.1326 69.6403 26.2896 71.2028C24.9148 72.3024 27.8984 78.6683 33.6905 78.0607C39.4825 77.453 41.6181 70.7977 39.1317 68.8011Z" fill="white"/>
<path d="M58.0561 64.1959C59.0888 65.6963 60.5482 66.8599 62.2498 67.5394C63.9513 68.219 65.8185 68.3838 67.6149 68.0132C69.4112 67.6425 71.0561 66.753 72.3411 65.4572C73.6262 64.1615 74.4936 62.5177 74.8338 60.734C75.1739 58.9503 74.9714 57.1069 74.2519 55.4371C73.5324 53.7673 72.3283 52.3462 70.7919 51.3537C69.2555 50.3611 67.456 49.8418 65.621 49.8615C63.7861 49.8811 61.9983 50.4388 60.484 51.4639C58.4576 52.8357 57.0642 54.9465 56.609 57.3333C56.1538 59.7201 56.6742 62.1881 58.0561 64.1959Z" fill="#455A64"/>
<path opacity="0.06" d="M58.0558 64.2248C58.7285 65.2524 59.6025 66.1365 60.6261 66.8248C61.6497 67.5131 62.8022 67.9918 64.0158 68.2325C65.2293 68.4733 66.4794 68.4713 67.6922 68.2266C68.905 67.982 70.0559 67.4997 71.0772 66.8081C72.0986 66.1166 72.9697 65.2297 73.6392 64.1999C74.3086 63.1701 74.7628 62.0182 74.975 60.812C75.1873 59.6058 75.1533 58.3698 74.875 57.1768C74.5968 55.9838 74.0799 54.8579 73.3549 53.8656C72.8498 53.109 72.2279 52.4353 71.512 51.869L71.8923 52.3899C72.6279 53.4674 73.0926 54.7031 73.2476 55.9942C73.4027 57.2852 73.2437 58.5943 72.7838 59.8123C72.3238 61.0302 71.5762 62.1218 70.6034 62.9961C69.6306 63.8705 68.4608 64.5022 67.1912 64.8387C65.9216 65.1752 64.589 65.2068 63.3046 64.9308C62.0202 64.6548 60.8211 64.0791 59.8071 63.2519C58.7931 62.4246 57.9937 61.3696 57.4753 60.1748C56.957 58.9801 56.7346 57.6801 56.827 56.3831C56.4188 57.697 56.3175 59.0853 56.5303 60.4436C56.7431 61.8019 57.2647 63.0948 58.0558 64.2248Z" fill="black"/>
<path opacity="0.3" d="M61.8889 54.618C61.8849 55.3453 62.1027 56.0569 62.5138 56.6599C62.9249 57.2629 63.5102 57.7293 64.1933 57.9982C64.8765 58.2671 65.6258 58.3261 66.3434 58.1674C67.0609 58.0087 67.7133 57.6397 68.2156 57.1085C68.7179 56.5774 69.0467 55.9088 69.159 55.19C69.2713 54.4712 69.1621 53.7357 68.8453 53.0793C68.5286 52.4229 68.019 51.8763 67.3834 51.5107C66.7478 51.1451 66.0155 50.9775 65.2821 51.0299C64.3536 51.0676 63.4773 51.465 62.8425 52.1363C62.2076 52.8076 61.865 53.699 61.8889 54.618Z" fill="white"/>
<path opacity="0.1" d="M72.1852 57.3959C70.43 55.978 68.0313 59.8265 65.4278 59.7687C62.8243 59.7108 61.1863 58.2061 59.3433 59.7687C57.9685 60.8972 60.9229 67.2342 66.7442 66.6265C72.5655 66.0188 74.6424 59.3925 72.1852 57.3959Z" fill="white"/>
<path d="M39.9543 79.4811C40.99 80.9774 42.4509 82.1365 44.1523 82.8119C45.8537 83.4874 47.7192 83.6488 49.5133 83.2758C51.3074 82.9028 52.9495 82.0122 54.232 80.7164C55.5146 79.4207 56.3801 77.7779 56.7192 75.9958C57.0583 74.2136 56.8557 72.372 56.1371 70.7037C55.4185 69.0354 54.2162 67.6152 52.6819 66.6226C51.1477 65.6299 49.3503 65.1095 47.5171 65.1268C45.6839 65.1442 43.8971 65.6987 42.3824 66.7202C40.3603 68.1023 38.9711 70.2177 38.5165 72.607C38.0619 74.9962 38.5786 77.4664 39.9543 79.4811Z" fill="#455A64"/>
<path opacity="0.06" d="M39.9542 79.4811C40.6419 80.4767 41.5211 81.3285 42.5415 81.9881C43.562 82.6476 44.7038 83.1018 45.9017 83.3248C47.0996 83.5478 48.3301 83.5352 49.5232 83.2878C50.7162 83.0404 51.8483 82.563 52.8548 81.8828C53.8613 81.2026 54.7225 80.333 55.3892 79.3236C56.056 78.3141 56.515 77.1848 56.7405 75.9998C56.9659 74.8148 56.9533 73.5975 56.7032 72.4174C56.453 71.2373 55.9705 70.1175 55.2828 69.1219C54.7619 68.3861 54.1419 67.7242 53.4399 67.1543L53.7909 67.6462C55.0245 69.4343 55.4894 71.6339 55.0834 73.7612C54.6774 75.8884 53.4339 77.769 51.6262 78.9892C49.8185 80.2094 47.5948 80.6693 45.4443 80.2678C43.2938 79.8662 41.3926 78.636 40.159 76.8479C39.0925 75.3372 38.5956 73.5042 38.7549 71.6683C38.3515 72.9764 38.2497 74.3574 38.4573 75.7095C38.6649 77.0616 39.1764 78.3504 39.9542 79.4811Z" fill="black"/>
<path opacity="0.3" d="M43.8156 69.8743C43.8116 70.6016 44.0294 71.3132 44.4405 71.9162C44.8516 72.5192 45.4369 72.9856 46.1201 73.2545C46.8033 73.5235 47.5526 73.5824 48.2701 73.4237C48.9877 73.265 49.6402 72.896 50.1425 72.3648C50.6448 71.8337 50.9737 71.1651 51.086 70.4463C51.1983 69.7275 51.0888 68.992 50.7721 68.3356C50.4553 67.6793 49.946 67.1326 49.3103 66.767C48.6747 66.4014 47.9424 66.2339 47.209 66.2862C46.2805 66.3239 45.4041 66.7213 44.7692 67.3926C44.1343 68.0639 43.7918 68.9553 43.8156 69.8743Z" fill="white"/>
<path opacity="0.1" d="M54.1134 72.6522C52.3582 71.2343 49.9595 75.0828 47.356 75.025C44.7525 74.9671 43.1143 73.4913 41.2714 75.025C39.8672 76.1245 42.8511 82.4905 48.6724 81.8828C54.4937 81.2752 56.5999 74.6488 54.1134 72.6522Z" fill="white"/>
<path d="M48.6072 90.6241C49.6429 92.1204 51.1038 93.2795 52.8052 93.9549C54.5065 94.6303 56.3721 94.7918 58.1662 94.4188C59.9602 94.0458 61.6023 93.1552 62.8849 91.8594C64.1675 90.5637 65.033 88.9209 65.372 87.1388C65.7111 85.3566 65.5086 83.515 64.79 81.8467C64.0714 80.1784 62.869 78.7582 61.3348 77.7656C59.8005 76.7729 58.0032 76.2524 56.17 76.2698C54.3368 76.2872 52.55 76.8417 51.0352 77.8632C49.0069 79.2404 47.6126 81.3562 47.1576 83.7478C46.7026 86.1393 47.2238 88.6117 48.6072 90.6241Z" fill="#455A64"/>
<path opacity="0.06" d="M48.6069 90.6241C49.3579 91.715 50.3381 92.6327 51.4805 93.3146C52.6229 93.9966 53.9006 94.4265 55.2264 94.5753C56.5522 94.7241 57.8948 94.5881 59.1626 94.1766C60.4304 93.7651 61.5935 93.0879 62.5725 92.1911C63.5514 91.2943 64.3231 90.1991 64.835 88.9802C65.3469 87.7614 65.587 86.4476 65.5386 85.1287C65.4903 83.8097 65.1548 82.5166 64.555 81.3377C63.9552 80.1587 63.1053 79.1216 62.0632 78.2973C62.206 78.4486 62.3332 78.6133 62.4434 78.7892C63.1789 79.8656 63.644 81.1001 63.7999 82.3901C63.9559 83.6801 63.7981 84.9882 63.3398 86.2058C62.8816 87.4233 62.1361 88.515 61.1653 89.3901C60.1946 90.2652 59.0265 90.8983 57.7585 91.2368C56.4905 91.5754 55.1591 91.6096 53.875 91.3365C52.5909 91.0634 51.3914 90.491 50.3761 89.6669C49.3607 88.8428 48.5591 87.7907 48.0376 86.5983C47.5162 85.4059 47.2902 84.1076 47.3783 82.8113C46.9853 84.1223 46.8916 85.5033 47.104 86.8544C47.3165 88.2056 47.8298 89.4932 48.6069 90.6241Z" fill="black"/>
<path opacity="0.3" d="M52.4678 81.0173C52.4639 81.7446 52.6816 82.4562 53.0927 83.0592C53.5038 83.6622 54.0891 84.1286 54.7723 84.3975C55.4555 84.6665 56.2048 84.7254 56.9223 84.5667C57.6399 84.408 58.2924 84.0389 58.7947 83.5078C59.2971 82.9767 59.6257 82.3081 59.738 81.5893C59.8503 80.8705 59.7411 80.135 59.4243 79.4786C59.1075 78.8223 58.598 78.2756 57.9624 77.91C57.3267 77.5444 56.5944 77.3769 55.8611 77.4292C55.4 77.4442 54.9466 77.5489 54.5265 77.7373C54.1063 77.9258 53.7278 78.1943 53.4127 78.5275C53.0975 78.8608 52.8519 79.2522 52.6898 79.6794C52.5276 80.1066 52.4522 80.5612 52.4678 81.0173Z" fill="white"/>
<path opacity="0.1" d="M62.7654 83.7952C61.0102 82.4063 58.5822 86.2258 55.9787 86.1969C53.3752 86.168 51.737 84.6343 49.9234 86.1969C48.1097 87.7594 51.5031 93.6624 57.2951 93.0547C63.0872 92.4471 65.2519 85.7918 62.7654 83.7952Z" fill="white"/>
<path d="M8.02165 73.7596C9.05434 75.26 10.5139 76.4236 12.2155 77.1032C13.9171 77.7827 15.7841 77.9475 17.5804 77.5769C19.3768 77.2062 21.0216 76.3167 22.3067 75.0209C23.5917 73.7252 24.4592 72.0814 24.7993 70.2977C25.1395 68.514 24.937 66.6706 24.2175 65.0008C23.498 63.331 22.2938 61.9099 20.7574 60.9174C19.221 59.9249 17.4215 59.4056 15.5866 59.4252C13.7517 59.4448 11.964 60.0025 10.4497 61.0277C9.44324 61.7044 8.58174 62.5711 7.9147 63.5779C7.24766 64.5847 6.78816 65.7119 6.56258 66.8948C6.337 68.0778 6.34969 69.2931 6.60007 70.4711C6.85046 71.6492 7.3336 72.7667 8.02165 73.7596Z" fill="#455A64"/>
<path opacity="0.06" d="M8.02166 73.7596C9.40652 75.7702 11.5421 77.1544 13.9586 77.6075C16.3752 78.0606 18.8747 77.5456 20.9074 76.1758C22.9401 74.8059 24.3395 72.6934 24.7976 70.303C25.2556 67.9126 24.735 65.4401 23.3501 63.4294C22.827 62.6778 22.1963 62.0052 21.4779 61.4328L21.8582 61.9247C22.5231 62.8099 23.0004 63.8188 23.2615 64.8909C23.5226 65.963 23.5621 67.0762 23.3776 68.1638C23.1931 69.2514 22.7885 70.2909 22.1879 71.22C21.5874 72.1491 20.8033 72.9487 19.8828 73.5707C18.9622 74.1927 17.9241 74.6244 16.8307 74.8399C15.7373 75.0553 14.6112 75.0501 13.52 74.8245C12.4287 74.599 11.3947 74.1577 10.48 73.5272C9.56539 72.8967 8.78892 72.0899 8.19717 71.1553C7.15667 69.6219 6.66264 67.7891 6.7931 65.9468C6.39801 67.2575 6.30328 68.6389 6.51582 69.9904C6.72835 71.3419 7.24275 72.6295 8.02166 73.7596Z" fill="black"/>
<path opacity="0.3" d="M11.8819 64.1528C11.8784 64.8812 12.0972 65.5937 12.5099 66.1971C12.9226 66.8004 13.5099 67.2664 14.1948 67.5341C14.8797 67.8017 15.6303 67.8586 16.3484 67.6972C17.0665 67.5359 17.7188 67.1638 18.2196 66.6297C18.7203 66.0956 19.0463 65.4243 19.155 64.7039C19.2636 63.9834 19.1499 63.2472 18.8286 62.5917C18.5072 61.9363 17.9932 61.3921 17.354 61.0305C16.7147 60.6688 15.98 60.5064 15.2459 60.5647C14.3199 60.6023 13.4465 61.0007 12.8163 61.6729C12.186 62.3451 11.8503 63.2365 11.8819 64.1528Z" fill="white"/>
<path opacity="0.1" d="M22.1793 66.9596C20.4241 65.5417 17.9963 69.3613 15.3928 69.3323C12.7893 69.3034 11.1511 67.7698 9.33745 69.3323C7.52378 70.8949 10.917 76.7978 16.709 76.1902C22.5011 75.5825 24.6658 68.9273 22.1793 66.9596Z" fill="white"/>
<path d="M42.5028 40.8043C42.0263 36.9304 38.4692 34.1929 34.5578 34.6897C30.6464 35.1865 27.8619 38.7297 28.3384 42.6035C28.8149 46.4774 32.372 49.2151 36.2834 48.7183C40.1948 48.2214 42.9793 44.6782 42.5028 40.8043Z" fill="#455A64"/>
<path opacity="0.06" d="M30.9302 47.2784C31.6673 47.8471 32.5111 48.2658 33.4135 48.5103C34.3158 48.7548 35.2591 48.8205 36.1893 48.7035C37.1196 48.5865 38.0187 48.2892 38.8353 47.8286C39.6518 47.3679 40.3698 46.753 40.9484 46.0188C41.5269 45.2846 41.9546 44.4455 42.207 43.5495C42.4594 42.6535 42.5317 41.7181 42.4195 40.7968C42.3074 39.8754 42.0131 38.9862 41.5536 38.1797C41.094 37.3732 40.4781 36.6654 39.741 36.0966C39.1855 35.6611 38.5636 35.3156 37.8983 35.0729L38.2997 35.3654C39.0926 35.9824 39.7241 36.7794 40.1416 37.6897C40.559 38.6 40.7504 39.5974 40.6996 40.5988C40.6489 41.6002 40.3574 42.5766 39.8497 43.4466C39.342 44.3167 38.6328 45.0551 37.7809 45.6006C36.929 46.1461 35.9592 46.4827 34.9523 46.5825C33.9455 46.6822 32.9307 46.5422 31.9925 46.1741C31.0543 45.8059 30.2198 45.2204 29.5586 44.4661C28.8974 43.7119 28.4284 42.8108 28.1911 41.838C28.2097 42.8922 28.4652 43.9275 28.939 44.8686C29.4129 45.8097 30.0931 46.6329 30.9302 47.2784Z" fill="black"/>
<path opacity="0.3" d="M31.5012 39.325C31.6653 39.8615 31.9894 40.3354 32.431 40.6846C32.8727 41.0337 33.4113 41.2419 33.9762 41.2818C34.5412 41.3218 35.1061 41.1916 35.5973 40.9084C36.0884 40.6251 36.4827 40.202 36.7286 39.6944C36.9745 39.1869 37.0605 38.6185 36.9753 38.0638C36.8902 37.509 36.6378 36.9938 36.2513 36.5855C35.8648 36.1772 35.3621 35.8949 34.8092 35.7755C34.2562 35.6562 33.6788 35.7053 33.1524 35.9166C32.8179 36.0329 32.5095 36.2137 32.2451 36.4484C31.9808 36.6832 31.7656 36.9672 31.6121 37.2841C31.4586 37.601 31.3698 37.9445 31.3507 38.2948C31.3317 38.6451 31.3828 38.9953 31.5012 39.325Z" fill="white"/>
<path opacity="0.1" d="M39.7124 38.961C38.0917 38.3342 37.2097 41.7064 35.2936 42.2977C33.3776 42.889 31.8154 42.1497 30.853 43.7223C29.8905 45.2948 33.7678 48.8254 37.8724 47.0172C41.977 45.2089 42.0056 39.8402 39.7124 38.961Z" fill="white"/>
<path d="M32.402 96.1432C33.4347 97.6437 34.894 98.8073 36.5956 99.4868C38.2972 100.166 40.1644 100.331 41.9607 99.9605C43.7571 99.5899 45.4019 98.7004 46.687 97.4046C47.972 96.1088 48.8395 94.4651 49.1796 92.6814C49.5198 90.8977 49.3173 89.0543 48.5978 87.3845C47.8783 85.7147 46.6741 84.2936 45.1377 83.301C43.6014 82.3085 41.8018 81.7892 39.9669 81.8088C38.132 81.8285 36.3441 82.3862 34.8298 83.4113C32.8035 84.7831 31.4098 86.8939 30.9547 89.2807C30.4995 91.6675 31.0201 94.1355 32.402 96.1432Z" fill="#455A64"/>
<path opacity="0.06" d="M32.4024 96.1432C33.0882 97.1388 33.9653 97.991 34.984 98.6513C36.0027 99.3115 37.1429 99.7668 38.3394 99.9912C39.536 100.216 40.7655 100.205 41.9578 99.9589C43.1501 99.7132 44.2817 99.2377 45.2882 98.5594C46.2947 97.8811 47.1563 97.0133 47.8237 96.0057C48.4912 94.998 48.9515 93.8702 49.1783 92.6866C49.4052 91.503 49.394 90.2868 49.1457 89.1074C48.8973 87.928 48.4166 86.8086 47.7309 85.813C47.218 85.0624 46.5971 84.3898 45.8879 83.8164L46.239 84.3084C46.8517 85.1938 47.282 86.1898 47.5056 87.2398C47.7291 88.2897 47.7415 89.3729 47.5418 90.4275C47.3421 91.4822 46.9344 92.4876 46.342 93.3864C45.7495 94.2851 44.984 95.0597 44.0889 95.6658C43.1938 96.2719 42.1869 96.6976 41.1254 96.9188C40.064 97.1399 38.9689 97.1521 37.9027 96.9546C36.8365 96.7571 35.8202 96.3538 34.9115 95.7678C34.0029 95.1817 33.2198 94.4243 32.6071 93.539C31.5407 92.0173 31.0442 90.1754 31.203 88.3305C30.7974 89.6383 30.6947 91.0196 30.9023 92.3721C31.1099 93.7245 31.6227 95.0135 32.4024 96.1432Z" fill="black"/>
<path opacity="0.3" d="M36.2629 86.5364C36.2589 87.2637 36.4767 87.9753 36.8878 88.5783C37.2989 89.1813 37.8844 89.6477 38.5675 89.9166C39.2507 90.1856 39.9998 90.2445 40.7174 90.0858C41.435 89.9271 42.0875 89.5581 42.5898 89.0269C43.0921 88.4958 43.4209 87.8272 43.5332 87.1084C43.6455 86.3897 43.5361 85.6541 43.2193 84.9978C42.9026 84.3414 42.3932 83.7947 41.7576 83.4291C41.122 83.0635 40.3897 82.896 39.6563 82.9484C38.7278 82.986 37.8514 83.3834 37.2165 84.0547C36.5816 84.7261 36.2391 85.6174 36.2629 86.5364Z" fill="white"/>
<path opacity="0.1" d="M46.5611 89.3143C44.8059 87.9254 42.4072 91.745 39.8037 91.716C37.2002 91.6871 35.562 90.1535 33.7191 91.716C31.8762 93.2786 35.2988 99.1815 41.1201 98.5739C46.9414 97.9662 49.1354 91.3109 46.5611 89.3143Z" fill="white"/>
<path d="M37.7908 61.0115C38.8265 62.5078 40.2872 63.667 41.9886 64.3424C43.69 65.0178 45.5557 65.1792 47.3497 64.8062C49.1438 64.4332 50.7859 63.5426 52.0685 62.2468C53.3511 60.9511 54.2166 59.3083 54.5556 57.5262C54.8947 55.744 54.6922 53.9024 53.9736 52.2341C53.255 50.5658 52.0526 49.1456 50.5184 48.153C48.9841 47.1604 47.1868 46.6399 45.3536 46.6572C43.5204 46.6746 41.7336 47.2291 40.2188 48.2507C38.1905 49.6278 36.7962 51.7436 36.3412 54.1352C35.8862 56.5267 36.4074 58.9992 37.7908 61.0115Z" fill="#455A64"/>
<path opacity="0.06" d="M37.7904 61.0115C38.5415 62.1024 39.5215 63.0201 40.6639 63.7021C41.8063 64.384 43.0842 64.814 44.41 64.9628C45.7358 65.1115 47.0782 64.9755 48.346 64.564C49.6138 64.1525 50.7769 63.4753 51.7559 62.5785C52.7348 61.6817 53.5067 60.5865 54.0186 59.3677C54.5305 58.1488 54.7705 56.8351 54.7222 55.5161C54.6739 54.1972 54.3382 52.904 53.7384 51.7251C53.1386 50.5461 52.2887 49.509 51.2467 48.6847C51.3894 48.836 51.5168 49.0007 51.627 49.1766C52.3625 50.253 52.8276 51.4875 52.9835 52.7775C53.1395 54.0675 52.9817 55.3757 52.5234 56.5932C52.0652 57.8108 51.3197 58.9025 50.3489 59.7776C49.3782 60.6526 48.2101 61.2858 46.9421 61.6243C45.6741 61.9628 44.3426 61.997 43.0586 61.7239C41.7745 61.4508 40.575 60.8784 39.5596 60.0543C38.5443 59.2302 37.7427 58.1782 37.2212 56.9858C36.6998 55.7933 36.4738 54.495 36.5619 53.1988C36.1689 54.5097 36.0752 55.8907 36.2876 57.2418C36.5001 58.593 37.0134 59.8806 37.7904 61.0115Z" fill="black"/>
<path opacity="0.3" d="M41.6515 51.4047C41.6479 52.1332 41.8667 52.8457 42.2794 53.449C42.6921 54.0523 43.2794 54.5183 43.9643 54.786C44.6492 55.0537 45.3998 55.1105 46.1179 54.9492C46.8361 54.7878 47.4883 54.4157 47.9891 53.8816C48.4899 53.3475 48.8158 52.6763 48.9245 51.9558C49.0332 51.2353 48.9195 50.4992 48.5981 49.8437C48.2768 49.1883 47.7627 48.6441 47.1235 48.2824C46.4843 47.9207 45.7495 47.7583 45.0154 47.8166C44.0894 47.8543 43.216 48.2527 42.5858 48.9248C41.9556 49.597 41.6198 50.4885 41.6515 51.4047Z" fill="white"/>
<path opacity="0.1" d="M51.9478 54.1826C50.1927 52.7647 47.7649 56.6132 45.1614 56.5843C42.5579 56.5553 40.9197 55.0217 39.106 56.5843C37.2923 58.1468 40.6855 64.0498 46.4776 63.4422C52.2696 62.8345 54.4051 56.3238 51.9478 54.1826Z" fill="white"/>
<path d="M58.4389 78.9039C59.4716 80.4043 60.9312 81.5679 62.6328 82.2475C64.3343 82.927 66.2015 83.0918 67.9978 82.7212C69.7942 82.3505 71.4389 81.461 72.7239 80.1652C74.009 78.8695 74.8764 77.2257 75.2166 75.442C75.5567 73.6583 75.3544 71.8149 74.6349 70.1451C73.9154 68.4753 72.7113 67.0542 71.1749 66.0617C69.6385 65.0692 67.8388 64.5498 66.0039 64.5695C64.169 64.5891 62.3813 65.1468 60.8669 66.172C58.8406 67.5438 57.447 69.6546 56.9918 72.0414C56.5366 74.4282 57.057 76.8961 58.4389 78.9039Z" fill="#455A64"/>
<path opacity="0.06" d="M58.4393 78.9328C59.127 79.9284 60.0062 80.7803 61.0266 81.4398C62.0471 82.0993 63.1889 82.5535 64.3869 82.7765C65.5848 82.9995 66.8153 82.987 68.0083 82.7395C69.2013 82.4921 70.3334 82.0147 71.3399 81.3345C72.3464 80.6543 73.2075 79.7847 73.8742 78.7753C74.5409 77.7659 75.0001 76.6365 75.2256 75.4515C75.4511 74.2666 75.4384 73.0493 75.1883 71.8692C74.9382 70.6891 74.4554 69.5692 73.7678 68.5737C73.2538 67.8148 72.6221 67.1411 71.8957 66.5771L72.276 67.0979C73.0117 68.1754 73.4763 69.4112 73.6314 70.7022C73.7864 71.9933 73.6273 73.3023 73.1673 74.5203C72.7074 75.7382 71.9599 76.8298 70.9871 77.7042C70.0143 78.5785 68.8444 79.2102 67.5748 79.5467C66.3052 79.8833 64.9726 79.9148 63.6882 79.6388C62.4038 79.3628 61.2047 78.7872 60.1907 77.9599C59.1767 77.1326 58.3772 76.0776 57.8589 74.8829C57.3406 73.6881 57.1184 72.3881 57.2108 71.0911C56.8174 72.4068 56.7236 73.7924 56.936 75.1483C57.1484 76.5041 57.6618 77.7966 58.4393 78.9328Z" fill="black"/>
<path opacity="0.3" d="M62.3 69.326C62.296 70.0533 62.5138 70.7649 62.9249 71.3679C63.336 71.9709 63.9213 72.4373 64.6045 72.7062C65.2876 72.9752 66.037 73.0341 66.7545 72.8754C67.4721 72.7167 68.1246 72.3477 68.6269 71.8165C69.1292 71.2854 69.458 70.6168 69.5703 69.8981C69.6826 69.1793 69.5732 68.4437 69.2565 67.7873C68.9397 67.131 68.4303 66.5843 67.7947 66.2187C67.1591 65.8531 66.4268 65.6856 65.6934 65.7379C65.2311 65.749 64.7757 65.8511 64.3538 66.0383C63.9318 66.2254 63.5518 66.4939 63.2359 66.8279C62.92 67.162 62.6746 67.5549 62.5139 67.9838C62.3532 68.4127 62.2804 68.869 62.3 69.326Z" fill="white"/>
<path opacity="0.1" d="M72.5974 72.075C70.8423 70.6571 68.4143 74.5056 65.8108 74.4478C63.2073 74.3899 61.5691 72.8852 59.7554 74.4478C57.9417 76.0103 61.3351 81.9133 67.1272 81.3056C72.9192 80.6979 75.0839 74.1005 72.5974 72.075Z" fill="white"/>
<path opacity="0.46" d="M39.2852 100.213C20.887 99.1981 6.22507 83.912 6.22507 65.2642C6.22507 50.1363 15.8777 36.7808 30.2317 32.0294L33.6601 30.8977V5.48267H40.0674V35.7323C40.0674 35.7323 21.0867 42.1396 21.0867 65.0728C21.0784 80.076 28.0432 92.7491 39.2852 100.213Z" fill="#FFFEFF"/>
</svg>
