<svg width="81" height="106" viewBox="0 0 81 106" fill="none" xmlns="http://www.w3.org/2000/svg">
<path d="M28.7382 27.1614V27.5228L28.3951 27.6362C12.6585 32.8379 1.30331 47.6541 1.31153 65.1308V65.1311C1.31153 86.9477 18.9949 104.631 40.8115 104.631C62.6282 104.631 80.3115 86.9477 80.3115 65.1311C80.3115 47.6542 68.9563 32.8378 53.2194 27.6278L52.8765 27.5143V27.1531V0.865112H28.7382V27.1614Z" fill="#FFFEFF" stroke="#5181FF"/>
<path d="M41.2945 100.263C60.5997 100.263 76.3018 84.5611 76.3018 65.2559C76.3018 50.128 66.6492 36.7724 52.2868 32.021L48.8584 30.8894V5.48267H33.7055V30.8894L30.2772 32.021C15.9148 36.7724 6.27055 50.128 6.27055 65.2559C6.28719 84.5611 21.9893 100.263 41.2945 100.263Z" fill="white"/>
<path d="M10.2909 66.8739C10.9057 67.7623 11.7729 68.4504 12.7829 68.8514C13.793 69.2524 14.9006 69.3482 15.9657 69.1267C17.0308 68.9053 18.0056 68.3766 18.7671 67.6073C19.5285 66.8381 20.0423 65.8628 20.2436 64.8048C20.4449 63.7468 20.3246 62.6535 19.898 61.6631C19.4714 60.6727 18.7576 59.8296 17.8468 59.2403C16.936 58.651 15.869 58.342 14.7806 58.3523C13.6923 58.3626 12.6315 58.6918 11.7323 59.2983C10.5282 60.1158 9.70041 61.3719 9.43027 62.7917C9.16013 64.2115 9.46957 65.6793 10.2909 66.8739Z" fill="#455A64"/>
<path opacity="0.06" d="M10.2899 66.8739C11.1144 68.0676 12.3844 68.8884 13.8206 69.1558C15.2569 69.4232 16.7417 69.1153 17.9484 68.2998C19.1552 67.4842 19.985 66.2279 20.2554 64.8072C20.5257 63.3865 20.2143 61.9177 19.3899 60.7241C19.0745 60.2868 18.7006 59.8938 18.2784 59.5559C18.3632 59.6457 18.4388 59.7435 18.5042 59.848C19.2457 60.9118 19.5297 62.2234 19.2935 63.4943C19.0574 64.7653 18.3206 65.8914 17.2452 66.6249C16.1697 67.3584 14.8436 67.6392 13.5588 67.4057C12.274 67.1721 11.1356 66.4433 10.3941 65.3794C9.77392 64.4702 9.4804 63.3813 9.56054 62.2873C9.33766 63.0583 9.28745 63.8681 9.41342 64.6603C9.53939 65.4524 9.83849 66.2079 10.2899 66.8739Z" fill="black"/>
<path opacity="0.3" d="M12.5832 61.1707C12.5812 61.6032 12.7111 62.0262 12.9561 62.3843C13.2011 62.7425 13.5497 63.0191 13.9563 63.1781C14.3629 63.337 14.8085 63.3707 15.2349 63.2749C15.6612 63.1791 16.0484 62.9582 16.3457 62.6412C16.643 62.3241 16.8365 61.9256 16.901 61.4979C16.9655 61.0701 16.898 60.6331 16.7072 60.244C16.5165 59.8549 16.2113 59.5318 15.8318 59.3171C15.4523 59.1024 15.0161 59.006 14.5803 59.0406C14.0306 59.0629 13.5122 59.2994 13.138 59.6985C12.7639 60.0975 12.5644 60.6268 12.5832 61.1707Z" fill="white"/>
<path opacity="0.1" d="M18.6959 62.8198C17.6539 61.9781 16.2125 64.2628 14.6669 64.2285C13.1213 64.1941 12.1487 63.318 11.072 64.2285C9.99531 65.1389 12.0097 68.6777 15.4483 68.317C18.8868 67.9562 20.1721 64.0051 18.6959 62.8198Z" fill="white"/>
<path d="M20.2557 64.4987C20.8705 65.387 21.7377 66.0752 22.7478 66.4762C23.7578 66.8771 24.8654 66.9729 25.9305 66.7515C26.9956 66.5301 27.9705 66.0014 28.7319 65.2321C29.4933 64.4629 30.0071 63.4876 30.2084 62.4296C30.4097 61.3716 30.2895 60.2783 29.8629 59.2879C29.4363 58.2975 28.7225 57.4544 27.8116 56.8651C26.9008 56.2758 25.8338 55.9668 24.7455 55.9771C23.6572 55.9874 22.5964 56.3166 21.6971 56.923C20.493 57.7406 19.6653 58.9967 19.3951 60.4165C19.125 61.8363 19.4344 63.3041 20.2557 64.4987Z" fill="#455A64"/>
<path opacity="0.06" d="M20.2547 64.4987C21.0792 65.6924 22.3492 66.5132 23.7855 66.7806C25.2217 67.048 26.7066 66.7401 27.9133 65.9245C29.12 65.109 29.9499 63.8527 30.2202 62.432C30.4905 61.0113 30.1792 59.5425 29.3547 58.3488C29.0393 57.9116 28.6654 57.5186 28.2433 57.1807C28.328 57.2705 28.4036 57.3683 28.469 57.4728C29.2106 58.5366 29.4945 59.8482 29.2584 61.1191C29.0223 62.3901 28.2855 63.5161 27.21 64.2497C26.1345 64.9832 24.8085 65.264 23.5237 65.0305C22.2388 64.7969 21.1005 64.068 20.3589 63.0042C19.7388 62.095 19.4452 61.0061 19.5254 59.9121C19.3025 60.6831 19.2523 61.4929 19.3783 62.2851C19.5042 63.0772 19.8033 63.8327 20.2547 64.4987Z" fill="black"/>
<path opacity="0.3" d="M22.5481 58.7955C22.546 59.2279 22.676 59.6509 22.921 60.0091C23.166 60.3673 23.5146 60.6439 23.9212 60.8028C24.3278 60.9618 24.7734 60.9955 25.1997 60.8997C25.626 60.8039 26.0132 60.583 26.3105 60.2659C26.6078 59.9489 26.8013 59.5504 26.8659 59.1226C26.9304 58.6949 26.8629 58.2579 26.6721 57.8688C26.4813 57.4797 26.1762 57.1566 25.7967 56.9419C25.4172 56.7271 24.981 56.6308 24.5452 56.6654C23.9954 56.6877 23.477 56.9242 23.1029 57.3233C22.7287 57.7223 22.5293 58.2516 22.5481 58.7955Z" fill="white"/>
<path opacity="0.1" d="M28.6608 60.4446C27.6188 59.6029 26.1773 61.8876 24.6317 61.8533C23.0861 61.8189 22.1136 60.9428 21.0369 61.8533C19.9602 62.7637 21.9746 66.3025 25.4131 65.9417C28.8517 65.581 30.1369 61.6299 28.6608 60.4446Z" fill="white"/>
<path d="M44.0265 82.4821C44.591 79.5269 42.6268 76.6786 39.6392 76.1202C36.6517 75.5618 33.7722 77.5048 33.2077 80.46C32.6432 83.4152 34.6074 86.2635 37.595 86.8219C40.5825 87.3803 43.462 85.4373 44.0265 82.4821Z" fill="#455A64"/>
<path opacity="0.06" d="M34.1238 84.5709C34.5321 85.162 35.0539 85.6677 35.6597 86.0592C36.2655 86.4508 36.9434 86.7204 37.6546 86.8528C38.3657 86.9852 39.0964 86.9778 39.8046 86.8309C40.5129 86.684 41.1849 86.4006 41.7824 85.9968C42.3799 85.5929 42.8912 85.0767 43.287 84.4774C43.6828 83.8782 43.9554 83.2077 44.0893 82.5042C44.2231 81.8007 44.2156 81.0781 44.0671 80.3775C43.9186 79.6769 43.6321 79.0121 43.2238 78.4211C42.9148 77.979 42.5468 77.5802 42.1297 77.2357L42.3381 77.545C43.0705 78.6065 43.3465 79.9123 43.1055 81.1752C42.8645 82.4381 42.1262 83.5545 41.053 84.2789C39.9799 85.0033 38.6597 85.2764 37.383 85.038C36.1063 84.7996 34.9778 84.0692 34.2454 83.0077C33.6123 82.1043 33.3175 81.0108 33.4118 79.9156C33.1708 80.6948 33.1096 81.5176 33.2328 82.3233C33.3561 83.129 33.6606 83.8971 34.1238 84.5709Z" fill="black"/>
<path opacity="0.3" d="M36.4167 78.8677C36.4143 79.2995 36.5436 79.7219 36.7877 80.0799C37.0318 80.4379 37.3792 80.7148 37.7848 80.8744C38.1904 81.0341 38.6352 81.0691 39.0612 80.9749C39.4872 80.8806 39.8745 80.6616 40.1727 80.3463C40.4709 80.0309 40.6661 79.634 40.7328 79.2073C40.7994 78.7806 40.7345 78.3439 40.5464 77.9542C40.3584 77.5646 40.056 77.24 39.6786 77.023C39.3013 76.806 38.8665 76.7065 38.4312 76.7376C37.8799 76.7599 37.3596 76.9959 36.9827 77.3944C36.6058 77.7929 36.4026 78.3221 36.4167 78.8677Z" fill="white"/>
<path opacity="0.1" d="M42.5292 80.5168C41.4872 79.6751 40.0632 81.9598 38.5176 81.9255C36.972 81.8911 35.9995 80.9979 34.9054 81.9255C33.8114 82.8531 35.8432 86.3747 39.2991 85.9968C42.755 85.6188 44.0054 81.7022 42.5292 80.5168Z" fill="white"/>
<path d="M14.1049 85.1426C14.718 86.0334 15.5845 86.7242 16.5946 87.1276C17.6048 87.531 18.7133 87.6289 19.7797 87.4088C20.8461 87.1888 21.8225 86.6607 22.5854 85.8915C23.3483 85.1222 23.8633 84.1464 24.0652 83.0874C24.2672 82.0285 24.1469 80.9342 23.7198 79.9428C23.2927 78.9515 22.5778 78.1079 21.6657 77.5187C20.7536 76.9294 19.6853 76.6211 18.5959 76.6328C17.5066 76.6445 16.4453 76.9755 15.5463 77.5841C14.9488 77.9859 14.4374 78.5004 14.0414 79.0981C13.6454 79.6958 13.3726 80.365 13.2387 81.0673C13.1048 81.7695 13.1123 82.491 13.2609 83.1904C13.4096 83.8897 13.6964 84.5532 14.1049 85.1426Z" fill="#455A64"/>
<path opacity="0.06" d="M14.1055 85.1427C14.9276 86.3363 16.1954 87.158 17.63 87.427C19.0647 87.696 20.5487 87.3903 21.7554 86.5771C22.9622 85.7638 23.7928 84.5097 24.0648 83.0906C24.3367 81.6715 24.0276 80.2036 23.2054 79.0099C22.8949 78.5637 22.5205 78.1645 22.094 77.8246C22.1787 77.9144 22.2544 78.0122 22.3197 78.1167C22.7145 78.6422 22.9979 79.2411 23.1529 79.8776C23.3079 80.5141 23.3314 81.175 23.2219 81.8206C23.1124 82.4663 22.872 83.0834 22.5155 83.635C22.159 84.1866 21.6935 84.6612 21.147 85.0305C20.6005 85.3998 19.9842 85.6561 19.3351 85.784C18.686 85.9119 18.0175 85.9088 17.3696 85.7749C16.7218 85.641 16.1079 85.379 15.5649 85.0047C15.0219 84.6304 14.561 84.1515 14.2096 83.5966C13.5919 82.6863 13.2986 81.5982 13.3761 80.5045C13.1428 81.2828 13.0871 82.1026 13.2133 82.9047C13.3394 83.7069 13.6442 84.4712 14.1055 85.1427Z" fill="black"/>
<path opacity="0.3" d="M16.3977 79.4222C16.3956 79.8547 16.5256 80.2777 16.7706 80.6358C17.0156 80.994 17.3642 81.2707 17.7708 81.4296C18.1774 81.5885 18.6231 81.6223 19.0494 81.5265C19.4757 81.4307 19.8629 81.2098 20.1601 80.8927C20.4574 80.5756 20.6509 80.1771 20.7155 79.7494C20.78 79.3216 20.7125 78.8846 20.5217 78.4955C20.3309 78.1064 20.0258 77.7833 19.6463 77.5686C19.2668 77.3539 18.8306 77.2575 18.3948 77.2921C17.845 77.3144 17.3266 77.551 16.9525 77.95C16.5783 78.3491 16.3789 78.8783 16.3977 79.4222Z" fill="white"/>
<path opacity="0.1" d="M22.5104 81.0714C21.4684 80.2468 20.027 82.5144 18.4813 82.4972C16.9357 82.48 15.9632 81.5696 14.8865 82.4972C13.8098 83.4248 15.8242 86.9292 19.2627 86.5685C22.7013 86.2077 23.9865 82.2567 22.5104 81.0714Z" fill="white"/>
<path d="M19.4421 74.4908C20.057 75.3791 20.9242 76.0672 21.9342 76.4682C22.9443 76.8692 24.0519 76.965 25.117 76.7436C26.182 76.5222 27.1569 75.9934 27.9183 75.2242C28.6797 74.4549 29.1936 73.4797 29.3949 72.4217C29.5962 71.3637 29.4759 70.2704 29.0493 69.28C28.6227 68.2895 27.9089 67.4464 26.9981 66.8571C26.0872 66.2678 25.0202 65.9588 23.9319 65.9691C22.8436 65.9795 21.7828 66.3086 20.8836 66.9151C20.2855 67.3184 19.7737 67.8345 19.3775 68.4337C18.9813 69.0329 18.7083 69.7036 18.5744 70.4072C18.4406 71.1109 18.4484 71.8338 18.5972 72.5345C18.7461 73.2352 19.0332 73.9 19.4421 74.4908Z" fill="#455A64"/>
<path opacity="0.06" d="M19.4426 74.4908C19.8885 75.1384 20.4703 75.6832 21.1485 76.0881C21.8267 76.4929 22.5853 76.7482 23.3724 76.8365C24.1595 76.9248 24.9565 76.8441 25.7091 76.5998C26.4617 76.3555 27.1522 75.9534 27.7334 75.4211C28.3146 74.8887 28.7728 74.2385 29.0767 73.5149C29.3806 72.7913 29.5231 72.0114 29.4944 71.2284C29.4657 70.4453 29.2665 69.6776 28.9104 68.9777C28.5543 68.2778 28.0497 67.6621 27.4311 67.1728L27.6569 67.4648C28.3892 68.5286 28.6644 69.8367 28.4218 71.1011C28.1791 72.3656 27.4386 73.4829 26.3631 74.2073C25.2876 74.9318 23.9653 75.2039 22.687 74.9639C21.4087 74.7239 20.2791 73.9914 19.5468 72.9276C18.9216 72.0271 18.6274 70.9417 18.7132 69.8526C18.4724 70.63 18.4129 71.4512 18.5392 72.2546C18.6655 73.058 18.9744 73.8226 19.4426 74.4908Z" fill="black"/>
<path opacity="0.3" d="M21.7343 68.7875C21.7322 69.22 21.8621 69.643 22.1071 70.0012C22.3521 70.3593 22.7008 70.636 23.1074 70.7949C23.514 70.9538 23.9596 70.9876 24.3859 70.8918C24.8122 70.796 25.1994 70.5751 25.4967 70.258C25.794 69.9409 25.9875 69.5424 26.0521 69.1147C26.1166 68.687 26.0491 68.2499 25.8583 67.8608C25.6675 67.4717 25.3624 67.1486 24.9829 66.9339C24.6034 66.7192 24.1672 66.6228 23.7314 66.6574C23.4584 66.6662 23.19 66.7285 22.9415 66.8406C22.693 66.9527 22.4695 67.1124 22.2838 67.3105C22.0981 67.5086 21.9539 67.7411 21.8596 67.9946C21.7653 68.2481 21.7227 68.5176 21.7343 68.7875Z" fill="white"/>
<path opacity="0.1" d="M27.8305 70.4367C26.8059 69.5949 25.3645 71.8797 23.8189 71.8625C22.2733 71.8453 21.3007 70.9349 20.2066 71.8625C19.3904 72.5153 21.1617 76.2945 24.6003 75.9338C28.0388 75.573 29.3067 71.622 27.8305 70.4367Z" fill="white"/>
<path d="M40.0102 76.0025C40.6233 76.8932 41.4897 77.584 42.4998 77.9874C43.51 78.3908 44.6185 78.4887 45.6849 78.2687C46.7514 78.0486 47.7279 77.5205 48.4907 76.7513C49.2536 75.982 49.7686 75.0062 49.9706 73.9473C50.1725 72.8883 50.0523 71.794 49.6251 70.8027C49.198 69.8114 48.4831 68.9677 47.571 68.3785C46.6589 67.7892 45.5906 67.4809 44.5013 67.4926C43.4119 67.5042 42.3505 67.8353 41.4515 68.4439C40.2486 69.2583 39.4213 70.5114 39.1511 71.9284C38.8809 73.3454 39.1898 74.8105 40.0102 76.0025Z" fill="#455A64"/>
<path opacity="0.06" d="M40.01 76.0196C40.4094 76.6297 40.9283 77.1545 41.5359 77.5631C42.1436 77.9718 42.8278 78.2559 43.5483 78.3989C44.2687 78.5418 45.0109 78.5406 45.7309 78.3954C46.4508 78.2502 47.1341 77.9638 47.7404 77.5533C48.3468 77.1427 48.864 76.6162 49.2614 76.0049C49.6588 75.3935 49.9284 74.7096 50.0544 73.9935C50.1805 73.2775 50.1603 72.5437 49.9951 71.8354C49.8299 71.1272 49.5231 70.4588 49.0926 69.8697C48.7928 69.4205 48.4236 69.0206 47.9985 68.6844L48.2243 68.9936C48.661 69.6333 48.9369 70.3669 49.0289 71.1334C49.121 71.8998 49.0266 72.677 48.7536 73.4C48.4805 74.1231 48.0366 74.7711 47.4591 75.2902C46.8816 75.8093 46.1871 76.1843 45.4334 76.3841C44.6797 76.5839 43.8886 76.6026 43.1261 76.4388C42.3636 76.2749 41.6517 75.9332 41.0497 75.442C40.4478 74.9509 39.9732 74.3246 39.6654 73.6153C39.3577 72.906 39.2257 72.1342 39.2806 71.3643C39.0382 72.1443 38.9781 72.9685 39.1044 73.7749C39.2307 74.5813 39.5404 75.3488 40.01 76.0196Z" fill="black"/>
<path opacity="0.3" d="M42.2849 70.3164C42.2825 70.7482 42.4118 71.1706 42.6559 71.5286C42.8999 71.8866 43.2474 72.1635 43.653 72.3231C44.0585 72.4828 44.5034 72.5178 44.9294 72.4235C45.3554 72.3293 45.7426 72.1103 46.0408 71.7949C46.3391 71.4796 46.5343 71.0827 46.6009 70.656C46.6676 70.2293 46.6027 69.7926 46.4147 69.4029C46.2266 69.0133 45.9242 68.6887 45.5468 68.4717C45.1694 68.2546 44.7347 68.1552 44.2993 68.1863C43.7481 68.2086 43.2279 68.4445 42.851 68.8431C42.4741 69.2416 42.2707 69.7708 42.2849 70.3164Z" fill="white"/>
<path opacity="0.1" d="M48.398 71.9655C47.356 71.1238 45.932 73.4085 44.3863 73.3742C42.8407 73.3398 41.8683 72.4465 40.7742 73.3742C39.958 74.0441 41.7119 77.8062 45.1679 77.4454C48.6238 77.0847 49.8568 73.1508 48.398 71.9655Z" fill="white"/>
<path d="M23.2387 83.6193C23.8518 84.51 24.7183 85.2008 25.7285 85.6043C26.7386 86.0077 27.8471 86.1055 28.9135 85.8855C29.98 85.6654 30.9564 85.1374 31.7193 84.3681C32.4821 83.5989 32.9971 82.623 33.1991 81.5641C33.401 80.5052 33.2808 79.4108 32.8536 78.4195C32.4265 77.4282 31.7116 76.5845 30.7995 75.9953C29.8874 75.4061 28.8191 75.0978 27.7298 75.1094C26.6405 75.1211 25.5792 75.4522 24.6802 76.0608C23.4772 76.8752 22.6498 78.1283 22.3796 79.5452C22.1094 80.9622 22.4183 82.4273 23.2387 83.6193Z" fill="#455A64"/>
<path opacity="0.06" d="M23.2387 83.6193C24.0608 84.8129 25.3287 85.6347 26.7633 85.9037C28.1979 86.1727 29.6819 85.8669 30.8887 85.0537C32.0954 84.2404 32.9261 82.9863 33.198 81.5672C33.4699 80.1481 33.1608 78.6803 32.3387 77.4866C32.0342 77.041 31.6656 76.6417 31.2446 76.3013L31.453 76.5933C31.8167 77.1189 32.0723 77.7103 32.205 78.3336C32.3377 78.9569 32.3451 79.5999 32.2265 80.2261C32.108 80.8522 31.866 81.449 31.5143 81.9826C31.1625 82.5162 30.708 82.976 30.1766 83.3358C29.6452 83.6957 29.0474 83.9484 28.4173 84.0797C27.7871 84.211 27.137 84.2182 26.504 84.1009C25.8711 83.9837 25.2677 83.7443 24.7283 83.3964C24.1889 83.0484 23.724 82.5989 23.3603 82.0732C22.7272 81.1698 22.4324 80.0763 22.5267 78.9811C22.2859 79.7575 22.2249 80.5776 22.3481 81.3805C22.4714 82.1834 22.7758 82.9486 23.2387 83.6193Z" fill="black"/>
<path opacity="0.3" d="M25.5312 77.916C25.5998 78.4639 25.879 78.9646 26.3109 79.3141C26.7428 79.6637 27.2943 79.8353 27.8507 79.7933C28.4072 79.7513 28.9258 79.4989 29.2992 79.0886C29.6725 78.6782 29.8717 78.1414 29.8554 77.5896C29.7869 77.0418 29.5076 76.5411 29.0757 76.1915C28.6438 75.842 28.0924 75.6704 27.5359 75.7124C26.9794 75.7544 26.4608 76.0067 26.0875 76.4171C25.7142 76.8274 25.5149 77.3642 25.5312 77.916Z" fill="white"/>
<path opacity="0.1" d="M31.6446 79.5824C30.6026 78.7406 29.1612 81.0082 27.6329 80.991C26.1047 80.9738 25.1148 80.0633 24.0207 80.991C22.9266 81.9186 24.9584 85.423 28.4143 85.0623C31.8702 84.7015 33.1207 80.7505 31.6446 79.5824Z" fill="white"/>
<path d="M18.6833 91.2479C19.2981 92.1362 20.1654 92.8243 21.1755 93.2253C22.1855 93.6263 23.293 93.7221 24.3581 93.5007C25.4232 93.2792 26.3981 92.7505 27.1595 91.9813C27.9209 91.212 28.4347 90.2367 28.636 89.1787C28.8373 88.1207 28.7171 87.0275 28.2905 86.037C27.8639 85.0466 27.1501 84.2035 26.2392 83.6142C25.3284 83.0249 24.2614 82.7159 23.1731 82.7262C22.0848 82.7365 21.024 83.0657 20.1247 83.6722C19.5266 84.0755 19.0148 84.5916 18.6186 85.1908C18.2224 85.79 17.9496 86.4607 17.8157 87.1643C17.6818 87.868 17.6895 88.5909 17.8384 89.2916C17.9873 89.9923 18.2744 90.657 18.6833 91.2479Z" fill="#455A64"/>
<path opacity="0.06" d="M18.6826 91.2479C19.1284 91.8955 19.7104 92.4403 20.3886 92.8452C21.0668 93.25 21.8253 93.5053 22.6124 93.5936C23.3995 93.6819 24.1965 93.6012 24.9492 93.3569C25.7018 93.1126 26.3923 92.7105 26.9735 92.1781C27.5547 91.6457 28.0128 90.9956 28.3167 90.272C28.6206 89.5484 28.7631 88.7685 28.7344 87.9854C28.7057 87.2024 28.5066 86.4347 28.1505 85.7348C27.7944 85.0349 27.2898 84.4192 26.6712 83.9299L26.897 84.2219C27.3441 84.8622 27.6293 85.5993 27.7286 86.3712C27.828 87.1432 27.7385 87.9274 27.4678 88.6581C27.197 89.3887 26.7529 90.0444 26.1728 90.57C25.5927 91.0956 24.8934 91.4758 24.1339 91.6786C23.3743 91.8813 22.5768 91.9008 21.8081 91.7353C21.0394 91.5698 20.3221 91.2242 19.7165 90.7275C19.1108 90.2309 18.6345 89.5976 18.3277 88.8811C18.0209 88.1645 17.8925 87.3856 17.9532 86.6097C17.7111 87.3869 17.6509 88.2084 17.7773 89.012C17.9036 89.8156 18.2132 90.5802 18.6826 91.2479Z" fill="black"/>
<path opacity="0.3" d="M20.9577 85.5446C20.9554 85.9764 21.0846 86.3989 21.3287 86.7568C21.5728 87.1148 21.9202 87.3917 22.3258 87.5514C22.7314 87.711 23.1762 87.746 23.6022 87.6518C24.0282 87.5576 24.4156 87.3385 24.7138 87.0232C25.012 86.7079 25.2072 86.3109 25.2739 85.8842C25.3406 85.4575 25.2756 85.0208 25.0875 84.6312C24.8995 84.2415 24.5971 83.917 24.2198 83.6999C23.8424 83.4829 23.4077 83.3834 22.9723 83.4145C22.421 83.4369 21.9008 83.6728 21.5238 84.0713C21.1469 84.4699 20.9436 84.9991 20.9577 85.5446Z" fill="white"/>
<path opacity="0.1" d="M27.0709 87.1938C26.0289 86.3692 24.6049 88.6368 23.0593 88.6196C21.5137 88.6024 20.5411 87.6919 19.447 88.6196C18.6308 89.2724 20.3849 93.0516 23.8408 92.6909C27.2967 92.3301 28.5471 88.3275 27.0709 87.1938Z" fill="white"/>
<path d="M30.0898 76.7758C30.7047 77.6642 31.572 78.3523 32.582 78.7533C33.5921 79.1542 34.6996 79.2501 35.7646 79.0287C36.8297 78.8072 37.8046 78.2785 38.566 77.5092C39.3274 76.74 39.8412 75.7647 40.0426 74.7067C40.2439 73.6487 40.1236 72.5554 39.697 71.565C39.2704 70.5746 38.5566 69.7315 37.6458 69.1422C36.7349 68.5529 35.6679 68.2439 34.5796 68.2542C33.4913 68.2645 32.4305 68.5937 31.5313 69.2001C30.3308 70.0206 29.5061 71.2765 29.2362 72.6949C28.9664 74.1133 29.2731 75.5798 30.0898 76.7758Z" fill="#455A64"/>
<path opacity="0.06" d="M30.0895 76.7759C30.4978 77.3669 31.0197 77.8726 31.6255 78.2642C32.2313 78.6557 32.9092 78.9253 33.6204 79.0577C34.3315 79.1901 35.062 79.1827 35.7703 79.0358C36.4786 78.8889 37.1507 78.6055 37.7482 78.2017C38.3457 77.7979 38.857 77.2816 39.2528 76.6823C39.6486 76.0831 39.9211 75.4126 40.055 74.7091C40.1888 74.0057 40.1813 73.283 40.0328 72.5824C39.8843 71.8818 39.5979 71.217 39.1896 70.626C38.8804 70.1891 38.5123 69.7961 38.0955 69.4578L38.3039 69.7499C39.0363 70.8114 39.3122 72.1173 39.0712 73.3801C38.8302 74.643 38.092 75.7594 37.0188 76.4838C35.9457 77.2082 34.6255 77.4813 33.3488 77.2429C32.0721 77.0045 30.9434 76.2742 30.2111 75.2126C29.5779 74.3158 29.283 73.2276 29.3776 72.1377C29.138 72.9142 29.0776 73.7341 29.2009 74.5368C29.3241 75.3395 29.6278 76.1046 30.0895 76.7759Z" fill="black"/>
<path opacity="0.3" d="M32.3816 71.0726C32.3792 71.5044 32.5085 71.9268 32.7525 72.2848C32.9966 72.6428 33.3441 72.9197 33.7496 73.0793C34.1552 73.239 34.6001 73.274 35.0261 73.1798C35.452 73.0855 35.8394 72.8665 36.1376 72.5512C36.4358 72.2359 36.631 71.8389 36.6977 71.4122C36.7644 70.9855 36.6994 70.5488 36.5114 70.1592C36.3233 69.7695 36.0209 69.445 35.6436 69.2279C35.2662 69.0109 34.8315 68.9114 34.3961 68.9425C33.8449 68.9649 33.3246 69.2008 32.9477 69.5993C32.5708 69.9979 32.3674 70.527 32.3816 71.0726Z" fill="white"/>
<path opacity="0.1" d="M38.4949 72.7218C37.4529 71.88 36.0288 74.1648 34.4832 74.1304C32.9376 74.096 31.9651 73.2199 30.871 74.1304C30.0374 74.7832 31.8088 78.5624 35.2647 78.2017C38.7207 77.8409 39.971 73.9071 38.4949 72.7218Z" fill="white"/>
<path d="M34.4793 97.5587C35.0942 98.4471 35.9615 99.1352 36.9715 99.5362C37.9816 99.9371 39.0891 100.033 40.1542 99.8116C41.2192 99.5901 42.1941 99.0614 42.9555 98.2921C43.7169 97.5229 44.2308 96.5476 44.4321 95.4896C44.6334 94.4316 44.5131 93.3383 44.0865 92.3479C43.6599 91.3575 42.9461 90.5144 42.0353 89.9251C41.1244 89.3358 40.0574 89.0268 38.9691 89.0371C37.8808 89.0474 36.82 89.3766 35.9208 89.983C34.7166 90.8006 33.8889 92.0567 33.6187 93.4765C33.3486 94.8963 33.658 96.3641 34.4793 97.5587Z" fill="#455A64"/>
<path opacity="0.06" d="M34.4795 97.5588C34.9253 98.2064 35.5073 98.7512 36.1855 99.1561C36.8637 99.5609 37.6222 99.8161 38.4093 99.9045C39.1964 99.9928 39.9934 99.912 40.7461 99.6678C41.4987 99.4235 42.1892 99.0214 42.7704 98.489C43.3516 97.9566 43.8097 97.3064 44.1136 96.5829C44.4175 95.8593 44.56 95.0793 44.5313 94.2963C44.5026 93.5133 44.3035 92.7456 43.9474 92.0457C43.5913 91.3458 43.0867 90.7301 42.4681 90.2408C42.5529 90.3305 42.6284 90.4283 42.6938 90.5328C43.1304 91.1718 43.4066 91.9047 43.4991 92.6705C43.5917 93.4363 43.498 94.2129 43.226 94.9358C42.9539 95.6586 42.5114 96.3067 41.935 96.8262C41.3587 97.3457 40.6653 97.7216 39.9125 97.9225C39.1597 98.1235 38.3693 98.1438 37.607 97.9817C36.8447 97.8196 36.1326 97.4798 35.5298 96.9905C34.927 96.5012 34.4511 95.8767 34.1416 95.1688C33.832 94.4609 33.6978 93.6901 33.7501 92.9206C33.5168 93.6989 33.4612 94.5187 33.5873 95.3208C33.7134 96.123 34.0182 96.8874 34.4795 97.5588Z" fill="black"/>
<path opacity="0.3" d="M36.7717 91.8555C36.7693 92.2873 36.8986 92.7097 37.1427 93.0677C37.3867 93.4257 37.7342 93.7026 38.1398 93.8623C38.5454 94.0219 38.9902 94.0569 39.4162 93.9627C39.8422 93.8685 40.2296 93.6494 40.5278 93.3341C40.826 93.0187 41.0211 92.6218 41.0878 92.1951C41.1544 91.7684 41.0896 91.3317 40.9015 90.9421C40.7135 90.5524 40.411 90.2279 40.0336 90.0108C39.6563 89.7938 39.2215 89.6943 38.7862 89.7254C38.5124 89.7343 38.2433 89.7964 37.9938 89.9083C37.7444 90.0202 37.5197 90.1796 37.3326 90.3774C37.1455 90.5753 36.9997 90.8076 36.9035 91.0612C36.8072 91.3149 36.7624 91.5848 36.7717 91.8555Z" fill="white"/>
<path opacity="0.1" d="M42.8854 93.5047C41.8434 92.6801 40.4019 94.9477 38.8563 94.9305C37.3107 94.9133 36.3382 94.0028 35.2615 94.9305C34.1848 95.8581 36.1993 99.3625 39.6378 99.0018C43.0764 98.641 44.3615 94.69 42.8854 93.5047Z" fill="white"/>
<path d="M42.244 96.3548C42.8588 97.2432 43.7261 97.9313 44.7362 98.3323C45.7462 98.7332 46.8537 98.8291 47.9188 98.6076C48.9839 98.3862 49.9588 97.8575 50.7202 97.0882C51.4816 96.319 51.9954 95.3437 52.1967 94.2857C52.398 93.2277 52.2778 92.1344 51.8512 91.144C51.4246 90.1536 50.7108 89.3104 49.7999 88.7212C48.8891 88.1319 47.8221 87.8229 46.7338 87.8332C45.6455 87.8435 44.5847 88.1727 43.6854 88.7791C42.4813 89.5967 41.6535 90.8528 41.3834 92.2726C41.1133 93.6924 41.4227 95.1602 42.244 96.3548Z" fill="#455A64"/>
<path opacity="0.06" d="M42.2441 96.3548C42.69 97.0025 43.2719 97.5473 43.9501 97.9521C44.6283 98.357 45.3869 98.6122 46.1739 98.7006C46.961 98.7889 47.7581 98.7081 48.5107 98.4639C49.2634 98.2196 49.9539 97.8175 50.535 97.2851C51.1162 96.7527 51.5743 96.1025 51.8782 95.3789C52.1821 94.6554 52.3247 93.8754 52.296 93.0924C52.2673 92.3094 52.0681 91.5417 51.712 90.8418C51.356 90.1419 50.8514 89.5262 50.2327 89.0368C50.3175 89.1266 50.393 89.2244 50.4584 89.3289C50.8951 89.9679 51.1712 90.7008 51.2638 91.4666C51.3563 92.2324 51.2627 93.009 50.9906 93.7318C50.7186 94.4547 50.276 95.1028 49.6997 95.6223C49.1234 96.1418 48.43 96.5176 47.6772 96.7186C46.9244 96.9196 46.134 96.9399 45.3717 96.7778C44.6093 96.6157 43.8972 96.2758 43.2944 95.7866C42.6917 95.2973 42.2158 94.6728 41.9062 93.9649C41.5967 93.257 41.4625 92.4862 41.5148 91.7167C41.2815 92.495 41.2258 93.3148 41.352 94.1169C41.4781 94.9191 41.7828 95.6834 42.2441 96.3548Z" fill="black"/>
<path opacity="0.3" d="M44.5364 90.6516C44.534 91.0834 44.6633 91.5058 44.9073 91.8638C45.1514 92.2218 45.4989 92.4987 45.9044 92.6583C46.31 92.818 46.7549 92.853 47.1809 92.7588C47.6068 92.6645 47.9942 92.4455 48.2924 92.1301C48.5906 91.8148 48.7857 91.4179 48.8524 90.9912C48.9191 90.5645 48.8542 90.1278 48.6662 89.7381C48.4781 89.3485 48.1756 89.0239 47.7983 88.8069C47.4209 88.5899 46.9862 88.4904 46.5508 88.5215C46.2771 88.5304 46.0079 88.5925 45.7585 88.7044C45.5091 88.8163 45.2844 88.9757 45.0973 89.1735C44.9102 89.3713 44.7644 89.6037 44.6681 89.8573C44.5719 90.111 44.5271 90.3808 44.5364 90.6516Z" fill="white"/>
<path opacity="0.1" d="M50.65 92.3008C49.608 91.4762 48.1666 93.7437 46.621 93.7266C45.0754 93.7094 44.1028 92.7989 43.0261 93.7266C41.9494 94.6542 43.9639 98.1586 47.4025 97.7978C50.841 97.4371 52.1262 93.4861 50.65 92.3008Z" fill="white"/>
<path d="M8.77285 77.5258C9.38593 78.4166 10.2524 79.1074 11.2626 79.5108C12.2728 79.9142 13.3811 80.012 14.4476 79.792C15.514 79.572 16.4905 79.0439 17.2534 78.2746C18.0163 77.5054 18.5313 76.5295 18.7332 75.4706C18.9352 74.4117 18.8149 73.3173 18.3878 72.326C17.9606 71.3347 17.2458 70.491 16.3337 69.9018C15.4216 69.3126 14.3532 69.0043 13.2639 69.016C12.1746 69.0276 11.1133 69.3587 10.2143 69.9673C9.6168 70.369 9.10536 70.8835 8.70936 71.4813C8.31336 72.079 8.04057 72.7482 7.90665 73.4504C7.77273 74.1527 7.78027 74.8742 7.92891 75.5736C8.07755 76.2729 8.36438 76.9363 8.77285 77.5258Z" fill="#455A64"/>
<path opacity="0.06" d="M8.77307 77.5258C9.59522 78.7195 10.863 79.5412 12.2977 79.8102C13.7323 80.0792 15.2162 79.7734 16.4229 78.9602C17.6297 78.147 18.4604 76.8928 18.7324 75.4737C19.0043 74.0546 18.6952 72.5868 17.8731 71.3931C17.5625 70.9469 17.1881 70.5476 16.7616 70.2078L16.9874 70.4998C17.3821 71.0253 17.6655 71.6243 17.8205 72.2608C17.9755 72.8972 17.9989 73.5581 17.8894 74.2038C17.7799 74.8494 17.5397 75.4666 17.1831 76.0181C16.8266 76.5697 16.3611 77.0444 15.8146 77.4137C15.2681 77.7829 14.6518 78.0392 14.0027 78.1671C13.3536 78.295 12.6851 78.2919 12.0372 78.158C11.3894 78.0241 10.7755 77.7621 10.2325 77.3878C9.68953 77.0135 9.22857 76.5346 8.87727 75.9797C8.25956 75.0694 7.96627 73.9813 8.04371 72.8876C7.80917 73.6658 7.75293 74.4858 7.8791 75.2882C8.00528 76.0905 8.31066 76.8549 8.77307 77.5258Z" fill="black"/>
<path opacity="0.3" d="M11.0647 71.8226C11.0626 72.255 11.1925 72.678 11.4375 73.0362C11.6825 73.3944 12.0312 73.671 12.4378 73.8299C12.8444 73.9888 13.29 74.0226 13.7163 73.9268C14.1426 73.831 14.5298 73.6101 14.8271 73.293C15.1244 72.9759 15.3179 72.5774 15.3825 72.1497C15.447 71.722 15.3795 71.2849 15.1887 70.8958C14.9979 70.5067 14.6928 70.1837 14.3133 69.9689C13.9338 69.7542 13.4976 69.6578 13.0618 69.6924C12.512 69.7148 11.9935 69.9513 11.6194 70.3503C11.2452 70.7494 11.0459 71.2786 11.0647 71.8226Z" fill="white"/>
<path opacity="0.1" d="M17.1782 73.4889C16.1362 72.6471 14.6949 74.9147 13.1493 74.8975C11.6037 74.8803 10.6312 73.9699 9.55445 74.8975C8.47773 75.8251 10.4922 79.3295 13.9307 78.9688C17.3693 78.608 18.6544 74.657 17.1782 73.4889Z" fill="white"/>
<path d="M40.9793 51.4325C41.5417 48.4769 39.5754 45.63 36.5875 45.0736C33.5995 44.5173 30.7214 46.4623 30.159 49.4179C29.5966 52.3735 31.5628 55.2205 34.5508 55.7769C37.5387 56.3332 40.4169 54.3881 40.9793 51.4325Z" fill="#455A64"/>
<path opacity="0.06" d="M30.9597 53.4593C31.3668 54.0504 31.8875 54.5563 32.4923 54.9483C33.0971 55.3402 33.7739 55.6105 34.4843 55.7437C35.1947 55.8769 35.9246 55.8704 36.6324 55.7246C37.3402 55.5787 38.012 55.2964 38.6096 54.8937C39.2071 54.4911 39.7186 53.9759 40.1148 53.3777C40.5111 52.7795 40.7844 52.1099 40.919 51.4073C41.0537 50.7046 41.047 49.9826 40.8996 49.2824C40.7522 48.5823 40.4668 47.9177 40.0597 47.3266C39.7546 46.8762 39.3794 46.4761 38.9482 46.1413L39.174 46.4505C39.6107 47.0902 39.8866 47.8238 39.9786 48.5903C40.0707 49.3568 39.9763 50.1339 39.7032 50.8569C39.4302 51.58 38.9863 52.2281 38.4088 52.7471C37.8313 53.2662 37.1368 53.6412 36.3831 53.841C35.6294 54.0408 34.8383 54.0595 34.0758 53.8956C33.3133 53.7318 32.6014 53.39 31.9994 52.8989C31.3975 52.4078 30.9228 51.7815 30.6151 51.0722C30.3074 50.3629 30.1754 49.5911 30.2302 48.8212C29.9957 49.5993 29.9395 50.4194 30.0656 51.2217C30.1918 52.024 30.4973 52.7884 30.9597 53.4593Z" fill="black"/>
<path opacity="0.3" d="M33.2522 47.7561C33.2463 48.1886 33.3726 48.6127 33.6146 48.973C33.8565 49.3333 34.2028 49.6129 34.6081 49.7752C35.0133 49.9375 35.4587 49.975 35.8859 49.8828C36.313 49.7905 36.7021 49.5728 37.0021 49.2582C37.3021 48.9435 37.4991 48.5466 37.5672 48.1194C37.6353 47.6921 37.5713 47.2545 37.3838 46.8638C37.1962 46.4731 36.8938 46.1476 36.516 45.9297C36.1383 45.7119 35.7028 45.612 35.2667 45.6431C34.9938 45.6498 34.7249 45.7099 34.4756 45.8199C34.2263 45.9299 34.0015 46.0878 33.8142 46.2842C33.6268 46.4807 33.4808 46.7119 33.3843 46.9645C33.2879 47.2172 33.2429 47.4862 33.2522 47.7561Z" fill="white"/>
<path opacity="0.1" d="M39.3648 49.4224C38.3229 48.5807 36.8814 50.8482 35.3358 50.831C33.7902 50.8139 32.8177 49.9034 31.741 50.831C30.6642 51.7587 32.6788 55.2631 36.1173 54.9023C39.5559 54.5416 40.841 50.6077 39.3648 49.4224Z" fill="white"/>
<path d="M49.1595 59.5596C48.8766 57.2598 46.7648 55.6346 44.4428 55.9295C42.1207 56.2245 40.4676 58.3279 40.7505 60.6277C41.0334 62.9275 43.1451 64.5528 45.4672 64.2578C47.7893 63.9629 49.4423 61.8594 49.1595 59.5596Z" fill="#455A64"/>
<path opacity="0.06" d="M42.2887 63.403C42.7263 63.7407 43.2272 63.9892 43.7629 64.1344C44.2986 64.2795 44.8586 64.3185 45.4109 64.2491C45.9631 64.1796 46.4969 64.0031 46.9817 63.7297C47.4664 63.4562 47.8927 63.0911 48.2361 62.6552C48.5796 62.2194 48.8335 61.7212 48.9834 61.1893C49.1332 60.6574 49.1761 60.1021 49.1095 59.5551C49.043 59.0081 48.8683 58.4802 48.5954 58.0014C48.3226 57.5227 47.957 57.1024 47.5194 56.7648C47.1896 56.5062 46.8204 56.3011 46.4254 56.157L46.6637 56.3307C47.1345 56.697 47.5094 57.1701 47.7572 57.7105C48.005 58.251 48.1186 58.8431 48.0885 59.4376C48.0584 60.0321 47.8853 60.6117 47.5839 61.1282C47.2825 61.6448 46.8615 62.0832 46.3557 62.407C45.85 62.7308 45.2743 62.9307 44.6765 62.9899C44.0788 63.0491 43.4763 62.966 42.9193 62.7474C42.3623 62.5289 41.8669 62.1812 41.4744 61.7335C41.0819 61.2857 40.8035 60.7508 40.6626 60.1732C40.6736 60.7991 40.8253 61.4137 41.1066 61.9724C41.3879 62.5311 41.7918 63.0198 42.2887 63.403Z" fill="black"/>
<path opacity="0.3" d="M42.6272 58.6814C42.7246 58.9999 42.9171 59.2812 43.1792 59.4885C43.4414 59.6958 43.7612 59.8194 44.0966 59.8431C44.432 59.8668 44.7674 59.7895 45.0589 59.6213C45.3505 59.4532 45.5846 59.202 45.7306 58.9007C45.8765 58.5994 45.9276 58.2619 45.877 57.9326C45.8265 57.6033 45.6766 57.2974 45.4472 57.055C45.2177 56.8126 44.9193 56.645 44.5911 56.5742C44.2628 56.5033 43.92 56.5325 43.6075 56.6579C43.4089 56.727 43.2258 56.8343 43.0689 56.9736C42.9119 57.113 42.7842 57.2816 42.6931 57.4697C42.6019 57.6579 42.5492 57.8618 42.5379 58.0698C42.5266 58.2777 42.5569 58.4856 42.6272 58.6814Z" fill="white"/>
<path opacity="0.1" d="M47.5026 58.4653C46.5404 58.0931 46.0168 60.0951 44.8793 60.4461C43.7418 60.7972 42.8144 60.3583 42.243 61.2919C41.6716 62.2255 43.9734 64.3214 46.4102 63.2479C48.847 62.1744 48.8639 58.9872 47.5026 58.4653Z" fill="white"/>
<path d="M26.2847 94.2829C26.8978 95.1737 27.7642 95.8645 28.7743 96.2679C29.7845 96.6713 30.893 96.7691 31.9594 96.5491C33.0259 96.3291 34.0024 95.801 34.7653 95.0317C35.5281 94.2625 36.0431 93.2866 36.2451 92.2277C36.447 91.1688 36.3268 90.0744 35.8996 89.0831C35.4725 88.0918 34.7576 87.2481 33.8455 86.6589C32.9334 86.0697 31.8651 85.7614 30.7758 85.773C29.6864 85.7847 28.625 86.1158 27.726 86.7244C26.5231 87.5388 25.6957 88.7919 25.4255 90.2088C25.1553 91.6258 25.4643 93.091 26.2847 94.2829Z" fill="#455A64"/>
<path opacity="0.06" d="M26.2846 94.2829C26.6917 94.8739 27.2125 95.3799 27.8172 95.7718C28.422 96.1638 29.0989 96.4341 29.8092 96.5673C30.5196 96.7005 31.2495 96.694 31.9573 96.5481C32.6652 96.4023 33.337 96.12 33.9345 95.7173C34.532 95.3146 35.0435 94.7995 35.4397 94.2012C35.836 93.603 36.1093 92.9335 36.2439 92.2308C36.3786 91.5282 36.372 90.8061 36.2245 90.106C36.0771 89.4058 35.7917 88.7412 35.3846 88.1502C35.0801 87.7046 34.7115 87.3053 34.2905 86.9649L34.4989 87.2569C34.8627 87.7825 35.1181 88.3739 35.2509 88.9972C35.3836 89.6205 35.3909 90.2636 35.2724 90.8897C35.1538 91.5158 34.9118 92.1127 34.5601 92.6462C34.2083 93.1798 33.7539 93.6396 33.2225 93.9994C32.6911 94.3593 32.0933 94.612 31.4632 94.7433C30.833 94.8746 30.1829 94.8818 29.5499 94.7646C28.917 94.6473 28.3136 94.4079 27.7742 94.06C27.2348 93.7121 26.7699 93.2624 26.4061 92.7368C25.773 91.8334 25.4783 90.74 25.5725 89.6447C25.3318 90.4211 25.2708 91.2412 25.394 92.0441C25.5173 92.847 25.8217 93.6122 26.2846 94.2829Z" fill="black"/>
<path opacity="0.3" d="M28.5769 88.5796C28.5745 89.0114 28.7038 89.4339 28.9479 89.7918C29.1919 90.1498 29.5395 90.4267 29.9451 90.5864C30.3506 90.746 30.7954 90.781 31.2214 90.6868C31.6474 90.5926 32.0347 90.3735 32.3329 90.0582C32.6311 89.7429 32.8264 89.346 32.893 88.9192C32.9597 88.4925 32.8947 88.0559 32.7067 87.6662C32.5186 87.2765 32.2162 86.952 31.8389 86.735C31.4615 86.5179 31.0268 86.4184 30.5914 86.4495C30.0402 86.4719 29.5199 86.7078 29.143 87.1064C28.7661 87.5049 28.5627 88.0341 28.5769 88.5796Z" fill="white"/>
<path opacity="0.1" d="M34.6905 90.2288C33.6485 89.4042 32.2244 91.6718 30.6788 91.6546C29.1332 91.6374 28.1607 90.727 27.0666 91.6546C25.9725 92.5822 28.0044 96.0866 31.4603 95.7259C34.9162 95.3651 36.2187 91.4141 34.6905 90.2288Z" fill="white"/>
<path d="M48.3768 69.9207C48.9916 70.809 49.8588 71.4971 50.8689 71.8981C51.8789 72.2991 52.9865 72.3949 54.0516 72.1735C55.1167 71.9521 56.0916 71.4233 56.853 70.6541C57.6144 69.8848 58.1282 68.9096 58.3295 67.8516C58.5308 66.7936 58.4106 65.7003 57.984 64.7098C57.5574 63.7194 56.8436 62.8763 55.9327 62.287C55.0219 61.6977 53.9549 61.3887 52.8666 61.399C51.7783 61.4094 50.7175 61.7386 49.8182 62.345C48.6141 63.1626 47.7863 64.4187 47.5162 65.8384C47.2461 67.2582 47.5555 68.726 48.3768 69.9207Z" fill="#455A64"/>
<path opacity="0.06" d="M48.3769 69.9207C48.8228 70.5683 49.4046 71.1132 50.0828 71.518C50.761 71.9228 51.5197 72.1781 52.3067 72.2664C53.0938 72.3547 53.8908 72.274 54.6434 72.0297C55.3961 71.7854 56.0866 71.3834 56.6678 70.851C57.2489 70.3186 57.7071 69.6684 58.011 68.9448C58.3149 68.2212 58.4575 67.4413 58.4288 66.6583C58.4001 65.8752 58.2008 65.1075 57.8447 64.4076C57.4887 63.7077 56.9841 63.092 56.3655 62.6027C56.4502 62.6925 56.5258 62.7903 56.5912 62.8947C57.0279 63.5337 57.304 64.2666 57.3966 65.0324C57.4891 65.7983 57.3955 66.5749 57.1234 67.2977C56.8514 68.0205 56.4088 68.6686 55.8325 69.1881C55.2562 69.7076 54.5628 70.0835 53.81 70.2845C53.0572 70.4855 52.2668 70.5057 51.5045 70.3436C50.7422 70.1815 50.03 69.8417 49.4273 69.3524C48.8245 68.8632 48.3486 68.2386 48.039 67.5307C47.7295 66.8228 47.5953 66.0521 47.6476 65.2825C47.4143 66.0608 47.3586 66.8806 47.4848 67.6828C47.6109 68.4849 47.9156 69.2493 48.3769 69.9207Z" fill="black"/>
<path opacity="0.3" d="M50.6692 64.2174C50.6671 64.6499 50.797 65.0729 51.042 65.4311C51.287 65.7892 51.6357 66.0659 52.0423 66.2248C52.4489 66.3837 52.8945 66.4175 53.3208 66.3217C53.7471 66.2259 54.1343 66.005 54.4316 65.6879C54.7289 65.3708 54.9224 64.9723 54.9869 64.5446C55.0515 64.1169 54.984 63.6799 54.7932 63.2907C54.6024 62.9016 54.2973 62.5785 53.9178 62.3638C53.5383 62.1491 53.1021 62.0527 52.6663 62.0873C52.1165 62.1097 51.598 62.3462 51.2239 62.7452C50.8497 63.1443 50.6504 63.6735 50.6692 64.2174Z" fill="white"/>
<path opacity="0.1" d="M56.7817 65.8666C55.7398 65.0248 54.2984 67.3096 52.7528 67.2924C51.2072 67.2752 50.2347 66.3647 49.158 67.2924C48.0812 68.22 50.0957 71.7244 53.5342 71.3637C56.9728 71.0029 58.2405 67.1378 56.7817 65.8666Z" fill="white"/>
<path d="M58.4969 77.1435C59.0593 74.1879 57.093 71.341 54.1051 70.7846C51.1171 70.2283 48.239 72.1733 47.6766 75.1289C47.1141 78.0845 49.0804 80.9315 52.0683 81.4879C55.0563 82.0442 57.9345 80.0991 58.4969 77.1435Z" fill="#455A64"/>
<path opacity="0.06" d="M48.4574 79.2384C49.2818 80.4321 50.5518 81.2529 51.9881 81.5203C53.4244 81.7877 54.9092 81.4798 56.1159 80.6642C57.3227 79.8487 58.1525 78.5924 58.4228 77.1717C58.6931 75.751 58.3818 74.2822 57.5574 73.0885C57.2472 72.642 56.8727 72.2427 56.4459 71.9032L56.6717 72.2125C57.1084 72.8521 57.3843 73.5857 57.4764 74.3522C57.5684 75.1187 57.4739 75.8958 57.2009 76.6189C56.9278 77.3419 56.4841 77.99 55.9066 78.509C55.3291 79.0281 54.6345 79.4031 53.8808 79.6029C53.1271 79.8027 52.336 79.8214 51.5734 79.6576C50.8109 79.4937 50.0991 79.1519 49.4971 78.6608C48.8951 78.1697 48.4205 77.5434 48.1128 76.8341C47.805 76.1248 47.6731 75.353 47.728 74.5831C47.4944 75.3642 47.4387 76.1867 47.5648 76.9917C47.6909 77.7966 47.9957 78.5639 48.4574 79.2384Z" fill="black"/>
<path opacity="0.3" d="M50.7844 73.4836C50.782 73.9154 50.9113 74.3379 51.1554 74.6958C51.3994 75.0538 51.7469 75.3307 52.1525 75.4904C52.5581 75.65 53.0028 75.685 53.4288 75.5908C53.8548 75.4966 54.2422 75.2775 54.5404 74.9622C54.8386 74.6469 55.0338 74.2499 55.1005 73.8232C55.1671 73.3965 55.1022 72.9598 54.9141 72.5702C54.7261 72.1805 54.4237 71.856 54.0463 71.6389C53.669 71.4219 53.2342 71.3224 52.7989 71.3535C52.5251 71.3624 52.2558 71.4245 52.0064 71.5364C51.757 71.6483 51.5323 71.8077 51.3452 72.0055C51.1581 72.2034 51.0123 72.4358 50.916 72.6894C50.8198 72.943 50.7751 73.2129 50.7844 73.4836Z" fill="white"/>
<path opacity="0.1" d="M56.8974 75.1328C55.8554 74.2911 54.414 76.5758 52.8684 76.5414C51.3228 76.5071 50.3503 75.631 49.2735 76.5414C48.1968 77.4519 50.194 80.9563 53.6673 80.5784C57.1406 80.2004 58.3736 76.3181 56.8974 75.1328Z" fill="white"/>
<path d="M68.4197 72.7864C68.9822 69.8308 67.0158 66.9839 64.0279 66.4276C61.04 65.8712 58.1618 67.8162 57.5994 70.7718C57.037 73.7274 59.0033 76.5744 61.9912 77.1308C64.9791 77.6871 67.8573 75.742 68.4197 72.7864Z" fill="#455A64"/>
<path opacity="0.06" d="M58.3802 74.8813C59.2047 76.075 60.4747 76.8958 61.911 77.1632C63.3472 77.4306 64.832 77.1227 66.0388 76.3072C67.2455 75.4916 68.0754 74.2353 68.3457 72.8146C68.616 71.3939 68.3047 69.9251 67.4802 68.7315C67.17 68.285 66.7956 67.8856 66.3687 67.5461L66.5945 67.8554C67.0312 68.495 67.3072 69.2286 67.3992 69.9951C67.4913 70.7616 67.3968 71.5387 67.1237 72.2618C66.8507 72.9848 66.4069 73.6329 65.8294 74.1519C65.2519 74.671 64.5573 75.046 63.8036 75.2458C63.0499 75.4456 62.2588 75.4643 61.4963 75.3005C60.7338 75.1366 60.0219 74.7949 59.4199 74.3037C58.818 73.8126 58.3434 73.1863 58.0356 72.477C57.7279 71.7677 57.596 70.9959 57.6509 70.226C57.4173 71.0071 57.3615 71.8297 57.4876 72.6346C57.6137 73.4395 57.9186 74.2068 58.3802 74.8813Z" fill="black"/>
<path opacity="0.3" d="M60.7073 69.1265C60.7049 69.5583 60.8342 69.9808 61.0782 70.3388C61.3223 70.6967 61.6698 70.9736 62.0753 71.1333C62.4809 71.2929 62.9257 71.3279 63.3516 71.2337C63.7776 71.1395 64.165 70.9204 64.4632 70.6051C64.7614 70.2898 64.9566 69.8929 65.0233 69.4661C65.09 69.0394 65.025 68.6028 64.837 68.2131C64.6489 67.8234 64.3465 67.4989 63.9692 67.2819C63.5918 67.0648 63.1571 66.9654 62.7217 66.9964C62.448 67.0053 62.1787 67.0675 61.9293 67.1793C61.6799 67.2912 61.4552 67.4506 61.2681 67.6485C61.081 67.8463 60.9351 68.0787 60.8389 68.3323C60.7427 68.5859 60.698 68.8558 60.7073 69.1265Z" fill="white"/>
<path opacity="0.1" d="M66.8203 70.7757C65.7783 69.934 64.3369 72.2187 62.7913 72.1843C61.2456 72.15 60.2731 71.2739 59.1964 72.1843C58.1197 73.0948 60.1169 76.5992 63.5901 76.2213C67.0634 75.8433 68.2964 71.961 66.8203 70.7757Z" fill="white"/>
<path d="M76.3318 72.473C76.8943 69.5174 74.928 66.6704 71.94 66.1141C68.9521 65.5578 66.0739 67.5027 65.5115 70.4583C64.9491 73.4139 66.9154 76.261 69.9033 76.8173C72.8913 77.3736 75.7694 75.4286 76.3318 72.473Z" fill="#455A64"/>
<path opacity="0.06" d="M66.2923 74.5679C67.1168 75.7616 68.3868 76.5824 69.8231 76.8498C71.2593 77.1172 72.7441 76.8092 73.9509 75.9937C75.1576 75.1782 75.9875 73.9219 76.2578 72.5012C76.5281 71.0804 76.2168 69.6117 75.3923 68.418C75.0821 67.9715 74.7077 67.5722 74.2808 67.2327L74.5066 67.5419C74.9433 68.1816 75.2193 68.9152 75.3113 69.6816C75.4034 70.4481 75.3089 71.2253 75.0359 71.9483C74.7628 72.6714 74.3191 73.3194 73.7415 73.8385C73.164 74.3575 72.4695 74.7326 71.7157 74.9324C70.962 75.1321 70.1709 75.1509 69.4084 74.987C68.6459 74.8232 67.934 74.4814 67.332 73.9903C66.7301 73.4992 66.2555 72.8729 65.9477 72.1635C65.64 71.4542 65.5081 70.6825 65.563 69.9125C65.3294 70.6936 65.2736 71.5162 65.3997 72.3211C65.5259 73.1261 65.8307 73.8934 66.2923 74.5679Z" fill="black"/>
<path opacity="0.3" d="M68.6194 68.8131C68.617 69.2449 68.7463 69.6673 68.9903 70.0253C69.2344 70.3833 69.5819 70.6602 69.9875 70.8198C70.393 70.9795 70.8378 71.0145 71.2638 70.9203C71.6897 70.826 72.0771 70.607 72.3753 70.2916C72.6735 69.9763 72.8687 69.5794 72.9354 69.1527C73.0021 68.726 72.9371 68.2893 72.7491 67.8996C72.561 67.51 72.2586 67.1854 71.8813 66.9684C71.5039 66.7514 71.0692 66.6519 70.6338 66.683C70.3601 66.6919 70.0908 66.754 69.8414 66.8659C69.592 66.9778 69.3673 67.1372 69.1802 67.335C68.9931 67.5328 68.8473 67.7652 68.751 68.0188C68.6548 68.2725 68.6101 68.5423 68.6194 68.8131Z" fill="white"/>
<path opacity="0.1" d="M74.7324 70.4623C73.6904 69.6205 72.249 71.9052 70.7034 71.8709C69.1577 71.8365 68.1852 70.9604 67.1085 71.8709C66.0318 72.7813 68.029 76.2857 71.5023 75.9078C74.9755 75.5299 76.2085 71.6476 74.7324 70.4623Z" fill="white"/>
<path d="M74.8484 62.4882C75.4109 59.5326 73.4446 56.6857 70.4566 56.1293C67.4687 55.573 64.5905 57.518 64.0281 60.4736C63.4657 63.4292 65.432 66.2762 68.4199 66.8326C71.4079 67.3889 74.286 65.4438 74.8484 62.4882Z" fill="#455A64"/>
<path opacity="0.06" d="M64.8089 64.5831C65.6334 65.7768 66.9034 66.5976 68.3397 66.865C69.7759 67.1324 71.2607 66.8245 72.4675 66.0089C73.6742 65.1934 74.5041 63.9371 74.7744 62.5164C75.0447 61.0957 74.7334 59.6269 73.9089 58.4333C73.5987 57.9867 73.2243 57.5874 72.7974 57.2479L73.0232 57.5572C73.4599 58.1968 73.7359 58.9304 73.8279 59.6969C73.92 60.4634 73.8255 61.2405 73.5525 61.9636C73.2794 62.6866 72.8357 63.3347 72.2581 63.8537C71.6806 64.3728 70.9861 64.7478 70.2323 64.9476C69.4786 65.1474 68.6875 65.1661 67.925 65.0023C67.1625 64.8384 66.4506 64.4966 65.8486 64.0055C65.2467 63.5144 64.7721 62.8881 64.4643 62.1788C64.1566 61.4695 64.0247 60.6977 64.0796 59.9278C63.846 60.7089 63.7902 61.5314 63.9163 62.3364C64.0425 63.1413 64.3473 63.9086 64.8089 64.5831Z" fill="black"/>
<path opacity="0.3" d="M67.136 58.8283C67.1336 59.2601 67.2629 59.6826 67.507 60.0405C67.751 60.3985 68.0985 60.6754 68.5041 60.8351C68.9096 60.9947 69.3544 61.0297 69.7804 60.9355C70.2063 60.8413 70.5937 60.6222 70.8919 60.3069C71.1901 59.9916 71.3853 59.5947 71.452 59.1679C71.5187 58.7412 71.4537 58.3046 71.2657 57.9149C71.0776 57.5252 70.7752 57.2007 70.3979 56.9837C70.0205 56.7666 69.5858 56.6671 69.1504 56.6982C68.8767 56.7071 68.6074 56.7693 68.358 56.8811C68.1086 56.993 67.8839 57.1524 67.6968 57.3503C67.5097 57.5481 67.3639 57.7805 67.2676 58.0341C67.1714 58.2877 67.1267 58.5576 67.136 58.8283Z" fill="white"/>
<path opacity="0.1" d="M73.249 60.4775C72.207 59.6358 70.7656 61.9205 69.22 61.8861C67.6744 61.8518 66.7018 60.9757 65.6251 61.8861C64.5484 62.7966 66.5456 66.301 70.0189 65.9231C73.4921 65.5451 74.7251 61.6628 73.249 60.4775Z" fill="white"/>
<path d="M63.1473 60.041C63.7097 57.0854 61.7434 54.2384 58.7554 53.6821C55.7675 53.1257 52.8894 55.0707 52.327 58.0263C51.7645 60.9819 53.7308 63.829 56.7187 64.3853C59.7067 64.9416 62.5849 62.9966 63.1473 60.041Z" fill="#455A64"/>
<path opacity="0.06" d="M53.1078 62.1359C53.9322 63.3295 55.2022 64.1503 56.6385 64.4177C58.0748 64.6851 59.5596 64.3772 60.7663 63.5617C61.973 62.7462 62.8029 61.4899 63.0732 60.0691C63.3435 58.6484 63.0322 57.1797 62.2077 55.986C61.8976 55.5395 61.5231 55.1402 61.0963 54.8007L61.322 55.1099C61.7588 55.7495 62.0347 56.4831 62.1268 57.2496C62.2188 58.0161 62.1243 58.7932 61.8513 59.5163C61.5782 60.2394 61.1345 60.8874 60.557 61.4065C59.9794 61.9255 59.2849 62.3006 58.5312 62.5003C57.7774 62.7001 56.9864 62.7189 56.2238 62.555C55.4613 62.3911 54.7494 62.0494 54.1475 61.5582C53.5455 61.0671 53.0709 60.4408 52.7632 59.7315C52.4554 59.0222 52.3235 58.2504 52.3784 57.4805C52.1448 58.2616 52.0891 59.0842 52.2152 59.8891C52.3413 60.694 52.6461 61.4613 53.1078 62.1359Z" fill="black"/>
<path opacity="0.3" d="M55.4348 56.3811C55.4324 56.8128 55.5617 57.2353 55.8058 57.5933C56.0498 57.9513 56.3973 58.2282 56.8029 58.3878C57.2085 58.5475 57.6532 58.5825 58.0792 58.4882C58.5052 58.394 58.8926 58.1749 59.1908 57.8596C59.489 57.5443 59.6842 57.1474 59.7509 56.7207C59.8175 56.294 59.7526 55.8573 59.5645 55.4676C59.3765 55.078 59.0741 54.7534 58.6967 54.5364C58.3194 54.3193 57.8846 54.2199 57.4493 54.251C57.1755 54.2598 56.9062 54.322 56.6568 54.4339C56.4074 54.5457 56.1827 54.7052 55.9956 54.903C55.8085 55.1008 55.6627 55.3332 55.5664 55.5868C55.4702 55.8404 55.4255 56.1103 55.4348 56.3811Z" fill="white"/>
<path opacity="0.1" d="M61.5478 58.0302C60.5058 57.1885 59.0644 59.4732 57.5188 59.4388C55.9732 59.4045 55.0006 58.5284 53.9239 59.4388C52.8472 60.3493 54.8444 63.8537 58.3177 63.4758C61.791 63.0979 63.024 59.2155 61.5478 58.0302Z" fill="white"/>
<path d="M69.4168 83.6675C69.9792 80.7119 68.0129 77.8649 65.025 77.3086C62.037 76.7523 59.1589 78.6972 58.5965 81.6528C58.0341 84.6084 60.0003 87.4555 62.9883 88.0118C65.9762 88.5681 68.8544 86.6231 69.4168 83.6675Z" fill="#455A64"/>
<path opacity="0.06" d="M59.3773 85.7624C60.2017 86.956 61.4718 87.7769 62.908 88.0443C64.3443 88.3116 65.8291 88.0037 67.0358 87.1882C68.2426 86.3727 69.0724 85.1164 69.3427 83.6956C69.6131 82.2749 69.3017 80.8062 68.4773 79.6125C68.1671 79.166 67.7926 78.7667 67.3658 78.4272L67.5916 78.7364C68.0283 79.3761 68.3042 80.1097 68.3963 80.8761C68.4884 81.6426 68.3939 82.4197 68.1208 83.1428C67.8478 83.8659 67.404 84.5139 66.8265 85.033C66.249 85.552 65.5544 85.9271 64.8007 86.1269C64.047 86.3266 63.2559 86.3454 62.4934 86.1815C61.7309 86.0176 61.019 85.6759 60.417 85.1848C59.815 84.6936 59.3404 84.0673 59.0327 83.358C58.725 82.6487 58.5931 81.877 58.6479 81.107C58.4144 81.8881 58.3586 82.7107 58.4847 83.5156C58.6108 84.3206 58.9157 85.0879 59.3773 85.7624Z" fill="black"/>
<path opacity="0.3" d="M61.7043 80.0076C61.702 80.4394 61.8312 80.8618 62.0753 81.2198C62.3194 81.5778 62.6668 81.8547 63.0724 82.0143C63.478 82.174 63.9227 82.209 64.3487 82.1148C64.7747 82.0205 65.1621 81.8014 65.4603 81.4861C65.7585 81.1708 65.9537 80.7739 66.0204 80.3472C66.0871 79.9205 66.0221 79.4838 65.834 79.0941C65.646 78.7045 65.3436 78.3799 64.9663 78.1629C64.5889 77.9458 64.1542 77.8464 63.7188 77.8775C63.4451 77.8863 63.1758 77.9485 62.9264 78.0604C62.6769 78.1723 62.4522 78.3317 62.2651 78.5295C62.0781 78.7273 61.9322 78.9597 61.836 79.2133C61.7397 79.4669 61.695 79.7368 61.7043 80.0076Z" fill="white"/>
<path opacity="0.1" d="M67.8173 81.6567C66.7754 80.815 65.3339 83.0997 63.7883 83.0654C62.2427 83.031 61.2702 82.1549 60.1935 83.0654C59.1167 83.9758 61.1139 87.4802 64.5872 87.1023C68.0605 86.7244 69.2935 82.8421 67.8173 81.6567Z" fill="white"/>
<path d="M42.1557 87.9427C42.7688 88.8335 43.6353 89.5243 44.6455 89.9277C45.6556 90.3311 46.7641 90.429 47.8305 90.2089C48.897 89.9889 49.8734 89.4608 50.6363 88.6915C51.3991 87.9223 51.9141 86.9464 52.1161 85.8875C52.318 84.8286 52.1979 83.7342 51.7707 82.7429C51.3436 81.7516 50.6287 80.908 49.7166 80.3187C48.8045 79.7295 47.7361 79.4212 46.6468 79.4328C45.5574 79.4445 44.4962 79.7756 43.5971 80.3842C42.3942 81.1986 41.5668 82.4517 41.2966 83.8687C41.0264 85.2857 41.3353 86.7508 42.1557 87.9427Z" fill="#455A64"/>
<path opacity="0.06" d="M42.1555 87.9599C42.5638 88.5509 43.0857 89.0567 43.6915 89.4482C44.2973 89.8397 44.9752 90.1094 45.6864 90.2418C46.3975 90.3742 47.128 90.3667 47.8363 90.2198C48.5446 90.0729 49.2167 89.7895 49.8142 89.3857C50.4117 88.9819 50.9229 88.4656 51.3187 87.8664C51.7145 87.2671 51.9871 86.5966 52.121 85.8931C52.2548 85.1897 52.2473 84.467 52.0988 83.7664C51.9503 83.0658 51.6638 82.401 51.2555 81.81C50.9504 81.3595 50.5754 80.9595 50.1442 80.6247L50.3699 80.9339C50.8066 81.5736 51.0825 82.3072 51.1745 83.0737C51.2666 83.8401 51.1721 84.6172 50.8991 85.3403C50.626 86.0634 50.1823 86.7114 49.6047 87.2305C49.0272 87.7495 48.3327 88.1246 47.5789 88.3244C46.8252 88.5241 46.0341 88.5429 45.2716 88.379C44.5091 88.2151 43.7972 87.8734 43.1953 87.3823C42.5933 86.8912 42.1187 86.2649 41.8109 85.5556C41.5032 84.8463 41.3713 84.0745 41.4262 83.3045C41.1926 84.0856 41.1369 84.9082 41.263 85.7131C41.3892 86.5181 41.6939 87.2854 42.1555 87.9599Z" fill="black"/>
<path opacity="0.3" d="M44.4472 82.2566C44.4448 82.6884 44.5741 83.1109 44.8181 83.4689C45.0622 83.8268 45.4097 84.1037 45.8153 84.2634C46.2208 84.423 46.6657 84.458 47.0917 84.3638C47.5176 84.2696 47.905 84.0505 48.2032 83.7352C48.5014 83.4199 48.6967 83.023 48.7633 82.5963C48.83 82.1695 48.765 81.7328 48.577 81.3432C48.3889 80.9535 48.0865 80.629 47.7092 80.4119C47.3318 80.1949 46.8971 80.0954 46.4617 80.1265C46.1873 80.1331 45.9169 80.1937 45.6664 80.3048C45.4159 80.4159 45.1903 80.5753 45.0028 80.7736C44.8153 80.9719 44.6695 81.2052 44.5741 81.4598C44.4788 81.7145 44.4355 81.9853 44.4472 82.2566Z" fill="white"/>
<path opacity="0.1" d="M50.5611 83.8886C49.5192 83.0469 48.0777 85.3316 46.5321 85.2973C44.9865 85.2629 44.014 84.3696 42.9373 85.2973C41.8605 86.2249 43.8751 89.7293 47.3136 89.3685C50.7522 89.0078 52.0373 85.0911 50.5611 83.8886Z" fill="white"/>
<path d="M52.8276 92.2528C53.4407 93.1436 54.3072 93.8344 55.3173 94.2378C56.3275 94.6412 57.436 94.739 58.5024 94.519C59.5688 94.299 60.5452 93.7709 61.3081 93.0016C62.071 92.2324 62.586 91.2565 62.7879 90.1976C62.9899 89.1387 62.8697 88.0443 62.4426 87.053C62.0155 86.0617 61.3006 85.218 60.3885 84.6288C59.4764 84.0396 58.408 83.7313 57.3186 83.7429C56.2293 83.7546 55.168 84.0857 54.269 84.6943C53.066 85.5087 52.2387 86.7618 51.9685 88.1788C51.6983 89.5957 52.0072 91.0609 52.8276 92.2528Z" fill="#455A64"/>
<path opacity="0.06" d="M52.8274 92.27C53.2356 92.861 53.7576 93.3667 54.3634 93.7583C54.9692 94.1498 55.6471 94.4194 56.3583 94.5518C57.0694 94.6842 57.7999 94.6768 58.5082 94.5299C59.2164 94.383 59.8885 94.0996 60.4861 93.6958C61.0836 93.292 61.5948 92.7757 61.9906 92.1765C62.3864 91.5772 62.659 90.9067 62.7929 90.2032C62.9267 89.4998 62.9192 88.7771 62.7707 88.0765C62.6222 87.3759 62.3356 86.7111 61.9274 86.1201C61.6223 85.6696 61.2472 85.2696 60.816 84.9348L61.0418 85.244C61.4785 85.8836 61.7544 86.6173 61.8464 87.3837C61.9385 88.1502 61.844 88.9273 61.5709 89.6504C61.2979 90.3734 60.8541 91.0215 60.2766 91.5406C59.6991 92.0596 59.0045 92.4347 58.2508 92.6344C57.4971 92.8342 56.706 92.853 55.9435 92.6891C55.181 92.5252 54.4691 92.1835 53.8671 91.6924C53.2652 91.2012 52.7905 90.5749 52.4828 89.8656C52.1751 89.1563 52.0432 88.3846 52.0981 87.6146C51.8645 88.3957 51.8088 89.2183 51.9349 90.0232C52.061 90.8281 52.3658 91.5954 52.8274 92.27Z" fill="black"/>
<path opacity="0.3" d="M55.119 86.5667C55.1167 86.9985 55.246 87.421 55.49 87.7789C55.7341 88.1369 56.0816 88.4138 56.4871 88.5735C56.8927 88.7331 57.3375 88.7681 57.7635 88.6739C58.1895 88.5797 58.5769 88.3606 58.8751 88.0453C59.1733 87.73 59.3685 87.3331 59.4352 86.9063C59.5019 86.4796 59.4369 86.0429 59.2489 85.6533C59.0608 85.2636 58.7584 84.9391 58.3811 84.722C58.0037 84.505 57.569 84.4055 57.1336 84.4366C56.8592 84.4432 56.5888 84.5038 56.3383 84.6149C56.0878 84.726 55.8622 84.8854 55.6747 85.0837C55.4871 85.282 55.3414 85.5153 55.246 85.7699C55.1506 86.0245 55.1074 86.2954 55.119 86.5667Z" fill="white"/>
<path opacity="0.1" d="M61.233 88.1987C60.191 87.357 58.7496 89.6417 57.204 89.6073C55.6584 89.573 54.6858 88.6797 53.6091 89.6073C52.5324 90.535 54.5469 94.0394 57.9855 93.6786C61.4241 93.3179 62.7092 89.4012 61.233 88.1987Z" fill="white"/>
<path opacity="0.46" d="M39.3467 100.213C20.9485 99.1981 6.2866 83.912 6.2866 65.2642C6.2866 50.1363 15.9392 36.7808 30.2933 32.0294L33.7216 30.8977V5.48267H40.1289V35.7323C40.1289 35.7323 21.1483 42.1396 21.1483 65.0728C21.1399 80.076 28.1048 92.7491 39.3467 100.213Z" fill="#FFFEFF"/>
</svg>
