<svg width="102" height="101" viewBox="0 0 102 101" fill="none" xmlns="http://www.w3.org/2000/svg">
<path d="M37.0986 25.6618V0.564819H64.2906V25.6694V25.8033L64.3576 25.9193L99.5273 86.8623L99.5273 86.8623C102.786 92.5067 98.7159 99.5648 92.1997 99.5648H9.1901C2.67324 99.5576 -1.39669 92.5065 1.86202 86.8547C1.86205 86.8546 1.86208 86.8546 1.86211 86.8545L37.0317 25.9117L37.0986 25.7957V25.6618Z" fill="#FFFEFF" stroke="#5181FF"/>
<path d="M92.1929 95.6542C94.5644 95.6542 95.7425 94.0572 96.1378 93.3728C96.533 92.6884 97.3235 90.8709 96.1378 88.8101L60.3828 26.8481V4.47546H41.0004V26.8557L5.2454 88.8101C4.05965 90.8709 4.85015 92.6808 5.2454 93.3728C5.64065 94.0572 6.8188 95.6542 9.1903 95.6542H92.1929Z" fill="#C5F4FC" fill-opacity="0.2"/>
<path d="M77.9324 89.1739C78.7134 85.3739 75.983 81.7135 71.8339 80.9983C67.6848 80.283 63.6882 82.7836 62.9073 86.5836C62.1263 90.3837 64.8567 94.0441 69.0057 94.7594C73.1548 95.4746 77.1514 92.9739 77.9324 89.1739Z" fill="#753B92"/>
<path opacity="0.06" d="M64.0192 91.7796C64.5845 92.5395 65.3076 93.19 66.1474 93.694C66.9871 94.1979 67.927 94.5454 68.9134 94.7167C69.8999 94.8879 70.9135 94.8795 71.8963 94.692C72.8792 94.5045 73.8121 94.1416 74.6418 93.6238C75.4715 93.1061 76.1818 92.4438 76.732 91.6747C77.2823 90.9056 77.6617 90.0447 77.8487 89.1413C78.0357 88.2379 78.0265 87.3096 77.8218 86.4094C77.6171 85.5092 77.2208 84.6547 76.6555 83.8948C76.2318 83.3157 75.7109 82.8013 75.1121 82.3709L75.4256 82.7684C76.032 83.5908 76.4151 84.534 76.5429 85.5195C76.6707 86.5049 76.5397 87.5041 76.1605 88.4337C75.7813 89.3634 75.165 90.1966 74.363 90.8639C73.5611 91.5313 72.5968 92.0135 71.5502 92.2703C70.5035 92.5272 69.405 92.5513 68.3462 92.3406C67.2873 92.1299 66.2988 91.6905 65.4629 91.0591C64.627 90.4277 63.968 89.6224 63.5407 88.7105C63.1134 87.7985 62.9301 86.8063 63.0062 85.8163C62.6805 86.8168 62.6024 87.8711 62.7777 88.9027C62.9529 89.9343 63.3771 90.9171 64.0192 91.7796Z" fill="black"/>
<path opacity="0.3" d="M74.4604 87.9173C74.4584 88.0539 74.5015 88.188 74.5841 88.3018C74.6666 88.4157 74.7848 88.504 74.9231 88.5553C75.0615 88.6066 75.2135 88.6185 75.3593 88.5893C75.5051 88.5602 75.6378 88.4914 75.7402 88.3919C75.8426 88.2925 75.9098 88.1671 75.9331 88.0321C75.9563 87.8971 75.9345 87.7588 75.8705 87.6353C75.8065 87.5118 75.7033 87.409 75.5743 87.3401C75.4454 87.2713 75.2968 87.2397 75.1479 87.2496C75.0548 87.2517 74.963 87.2707 74.8779 87.3054C74.7928 87.3402 74.7161 87.3901 74.6522 87.4521C74.5882 87.5142 74.5384 87.5873 74.5055 87.6671C74.4726 87.747 74.4572 87.832 74.4604 87.9173Z" fill="white"/>
<path opacity="0.3" d="M72.5427 84.9328C72.5391 85.1778 72.6165 85.4182 72.7645 85.6223C72.9126 85.8265 73.1245 85.985 73.3726 86.0769C73.6206 86.1689 73.8932 86.1902 74.1546 86.1379C74.4161 86.0856 74.6542 85.9623 74.8378 85.784C75.0214 85.6056 75.142 85.3807 75.1837 85.1386C75.2253 84.8965 75.1862 84.6485 75.0714 84.4271C74.9566 84.2057 74.7715 84.0212 74.5403 83.8978C74.3091 83.7744 74.0426 83.7178 73.7757 83.7354C73.6087 83.7392 73.4441 83.7732 73.2915 83.8356C73.1389 83.8979 73.0013 83.9873 72.8867 84.0987C72.772 84.21 72.6826 84.341 72.6236 84.4842C72.5646 84.6274 72.5371 84.7798 72.5427 84.9328Z" fill="white"/>
<path d="M55.047 90.007C55.688 86.8881 53.4471 83.884 50.0418 83.2969C46.6364 82.7099 43.3563 84.7622 42.7153 87.8811C42.0743 90.9999 44.3152 94.0042 47.7206 94.5912C51.1259 95.1783 54.4061 93.1258 55.047 90.007Z" fill="#753B92"/>
<path opacity="0.06" d="M43.627 92.1455C44.0909 92.7692 44.6844 93.3031 45.3737 93.7167C46.0629 94.1303 46.8343 94.4155 47.6439 94.5561C48.4535 94.6967 49.2854 94.6898 50.0921 94.5359C50.8988 94.382 51.6644 94.0841 52.3454 93.6592C53.0264 93.2343 53.6093 92.6907 54.0609 92.0594C54.5125 91.4282 54.824 90.7216 54.9775 89.9801C55.1309 89.2387 55.1234 88.4768 54.9553 87.738C54.7873 86.9991 54.4621 86.2979 53.9981 85.6742C53.6504 85.1988 53.2228 84.7767 52.7314 84.4234L52.9887 84.7497C53.4864 85.4247 53.8008 86.1988 53.9057 87.0076C54.0106 87.8164 53.903 88.6364 53.5918 89.3994C53.2807 90.1624 52.7748 90.8463 52.1166 91.394C51.4584 91.9417 50.667 92.3375 49.808 92.5483C48.9489 92.7591 48.0474 92.7789 47.1783 92.6059C46.3093 92.433 45.498 92.0724 44.8119 91.5542C44.1259 91.0359 43.5849 90.375 43.2342 89.6266C42.8835 88.8781 42.7331 88.0637 42.7956 87.2512C42.5283 88.0723 42.4642 88.9377 42.608 89.7843C42.7518 90.631 43.1 91.4376 43.627 92.1455Z" fill="black"/>
<path opacity="0.3" d="M52.1976 88.9756C52.196 89.0877 52.2313 89.1978 52.2991 89.2912C52.3669 89.3846 52.4639 89.4572 52.5774 89.4993C52.6909 89.5414 52.8157 89.5511 52.9354 89.5272C53.055 89.5032 53.164 89.4468 53.248 89.3652C53.3321 89.2836 53.3872 89.1806 53.4063 89.0698C53.4254 88.959 53.4075 88.8455 53.355 88.7442C53.3024 88.6428 53.2177 88.5584 53.1119 88.5019C53.0061 88.4454 52.8841 88.4195 52.7619 88.4276C52.6855 88.4293 52.6101 88.4449 52.5403 88.4734C52.4705 88.5019 52.4075 88.5429 52.355 88.5938C52.3026 88.6448 52.2616 88.7048 52.2346 88.7703C52.2076 88.8358 52.195 88.9056 52.1976 88.9756Z" fill="white"/>
<path opacity="0.3" d="M50.6236 86.5261C50.6207 86.7272 50.6842 86.9245 50.8057 87.092C50.9272 87.2596 51.1012 87.3896 51.3047 87.4651C51.5083 87.5406 51.732 87.5581 51.9466 87.5152C52.1612 87.4723 52.3566 87.371 52.5073 87.2247C52.658 87.0783 52.757 86.8937 52.7912 86.695C52.8254 86.4963 52.7933 86.2928 52.6991 86.1111C52.6048 85.9293 52.4529 85.7779 52.2631 85.6766C52.0734 85.5753 51.8547 85.5289 51.6356 85.5433C51.4985 85.5464 51.3634 85.5744 51.2382 85.6255C51.113 85.6767 51 85.7501 50.9059 85.8415C50.8119 85.9329 50.7385 86.0404 50.69 86.1579C50.6416 86.2754 50.619 86.4005 50.6236 86.5261Z" fill="white"/>
<path d="M93.4896 85.5968C92.2234 81.944 87.9703 79.9547 83.99 81.1535C80.0097 82.3524 77.8094 86.2854 79.0756 89.9382C80.3417 93.5911 84.5948 95.5805 88.5752 94.3816C92.5555 93.1828 94.7557 89.2496 93.4896 85.5968Z" fill="#753B92"/>
<path opacity="0.06" d="M82.7037 93.976C83.5853 94.3897 84.5483 94.6388 85.5379 94.709C86.5275 94.7792 87.5242 94.6692 88.4711 94.3852C89.418 94.1012 90.2966 93.6488 91.0566 93.0539C91.8167 92.459 92.4434 91.7332 92.9009 90.918C93.3584 90.1027 93.6378 89.2139 93.7231 88.3024C93.8084 87.3908 93.698 86.4744 93.3982 85.6054C93.0983 84.7363 92.6148 83.9318 91.9754 83.2376C91.336 82.5434 90.5531 81.9732 89.6715 81.5595C89.0058 81.2411 88.2887 81.0219 87.5466 80.9098L88.0233 81.1184C88.9728 81.5685 89.7895 82.2219 90.4056 83.0241C91.0217 83.8263 91.4193 84.7541 91.5653 85.7304C91.7112 86.7066 91.6011 87.703 91.2444 88.6364C90.8877 89.5698 90.2947 90.4133 89.5147 91.0966C88.7346 91.7799 87.7901 92.2832 86.7599 92.5646C85.7297 92.8461 84.6437 92.8974 83.5922 92.7145C82.5406 92.5315 81.5541 92.1196 80.7148 91.5129C79.8755 90.9062 79.2076 90.1224 78.7669 89.2267C78.9957 90.2411 79.4677 91.1938 80.1487 92.0153C80.8297 92.8369 81.7026 93.5067 82.7037 93.976Z" fill="black"/>
<path opacity="0.3" d="M89.8218 86.027C89.89 86.1469 89.9963 86.2447 90.1265 86.3076C90.2567 86.3706 90.4049 86.3956 90.5517 86.3796C90.6984 86.3635 90.8369 86.3071 90.949 86.2177C91.061 86.1283 91.1415 86.01 91.1797 85.8785C91.218 85.7469 91.2123 85.6081 91.1634 85.4803C91.1145 85.3525 91.0246 85.2416 90.9056 85.1622C90.7866 85.0828 90.644 85.0385 90.4964 85.0352C90.3489 85.0318 90.2033 85.0696 90.0787 85.1435C89.9986 85.1862 89.9284 85.2431 89.8721 85.3107C89.8158 85.3784 89.7745 85.4555 89.7506 85.5376C89.7267 85.6198 89.7207 85.7053 89.7329 85.7893C89.7452 85.8733 89.7753 85.9541 89.8218 86.027Z" fill="white"/>
<path opacity="0.3" d="M86.6224 84.2692C86.7448 84.4843 86.9353 84.6596 87.1688 84.7725C87.4023 84.8853 87.6681 84.9302 87.9313 84.9014C88.1945 84.8726 88.4427 84.7715 88.6437 84.6111C88.8446 84.4508 88.9889 84.2388 89.0575 84.0028C89.1261 83.7669 89.1159 83.518 89.0281 83.2889C88.9404 83.0597 88.7793 82.8609 88.566 82.7184C88.3526 82.576 88.0968 82.4966 87.8322 82.4906C87.5676 82.4846 87.3065 82.5523 87.083 82.6849C86.9395 82.7615 86.8136 82.8634 86.7126 82.9847C86.6116 83.1061 86.5376 83.2444 86.4948 83.3917C86.4519 83.539 86.4412 83.6924 86.4631 83.843C86.485 83.9936 86.5391 84.1385 86.6224 84.2692Z" fill="white"/>
<path d="M59.1349 69.3922C59.7759 66.2734 57.535 63.2692 54.1297 62.6822C50.7243 62.0951 47.4442 64.1475 46.8032 67.2663C46.1622 70.3852 48.4031 73.3894 51.8085 73.9765C55.2138 74.5635 58.494 72.5111 59.1349 69.3922Z" fill="#753B92"/>
<path opacity="0.06" d="M47.7149 71.5309C48.1788 72.1546 48.7723 72.6885 49.4615 73.1021C50.1508 73.5157 50.9222 73.8009 51.7318 73.9414C52.5414 74.082 53.3733 74.0751 54.18 73.9212C54.9867 73.7673 55.7523 73.4694 56.4333 73.0445C57.1143 72.6196 57.6972 72.076 58.1488 71.4448C58.6004 70.8135 58.9119 70.107 59.0653 69.3655C59.2188 68.624 59.2113 67.8621 59.0432 67.1233C58.8752 66.3845 58.5499 65.6832 58.086 65.0595C57.7382 64.5842 57.3107 64.162 56.8193 63.8087L57.0766 64.135C57.5743 64.81 57.8887 65.5841 57.9936 66.3929C58.0985 67.2017 57.9909 68.0218 57.6797 68.7848C57.3685 69.5478 56.8627 70.2316 56.2045 70.7793C55.5463 71.3271 54.7548 71.7228 53.8958 71.9336C53.0368 72.1444 52.1352 72.1642 51.2662 71.9913C50.3972 71.8184 49.5859 71.4578 48.8998 70.9395C48.2138 70.4213 47.6728 69.7604 47.3221 69.0119C46.9714 68.2634 46.821 67.449 46.8835 66.6366C46.6162 67.4577 46.5521 68.323 46.6959 69.1697C46.8397 70.0163 47.1878 70.823 47.7149 71.5309Z" fill="black"/>
<path opacity="0.3" d="M56.2855 68.3609C56.2838 68.4731 56.3192 68.5831 56.387 68.6765C56.4548 68.77 56.5518 68.8425 56.6653 68.8846C56.7788 68.9267 56.9036 68.9364 57.0232 68.9125C57.1429 68.8886 57.2519 68.8321 57.3359 68.7505C57.42 68.6689 57.4751 68.5659 57.4942 68.4551C57.5133 68.3443 57.4954 68.2308 57.4429 68.1295C57.3903 68.0281 57.3056 67.9437 57.1998 67.8872C57.0939 67.8307 56.972 67.8048 56.8498 67.8129C56.7734 67.8146 56.698 67.8302 56.6282 67.8587C56.5584 67.8873 56.4954 67.9282 56.4429 67.9791C56.3904 68.0301 56.3495 68.0901 56.3225 68.1556C56.2955 68.2211 56.2829 68.2909 56.2855 68.3609Z" fill="white"/>
<path opacity="0.3" d="M54.7115 65.9113C54.7086 66.1125 54.7721 66.3097 54.8936 66.4773C55.0151 66.6449 55.1891 66.7749 55.3926 66.8504C55.5962 66.9259 55.8199 66.9434 56.0345 66.9005C56.2491 66.8575 56.4445 66.7563 56.5952 66.61C56.7459 66.4636 56.8449 66.279 56.8791 66.0803C56.9133 65.8816 56.8812 65.6781 56.7869 65.4963C56.6927 65.3146 56.5408 65.1632 56.351 65.0619C56.1613 64.9606 55.9426 64.9141 55.7235 64.9286C55.5864 64.9317 55.4513 64.9597 55.3261 65.0108C55.2008 65.062 55.0879 65.1354 54.9938 65.2268C54.8997 65.3181 54.8264 65.4257 54.7779 65.5432C54.7295 65.6607 54.7069 65.7858 54.7115 65.9113Z" fill="white"/>
<path d="M42.8381 86.9535C43.479 83.8347 41.2381 80.8305 37.8328 80.2434C34.4275 79.6564 31.1473 81.7088 30.5063 84.8276C29.8653 87.9464 32.1063 90.9507 35.5116 91.5377C38.9169 92.1248 42.1971 90.0723 42.8381 86.9535Z" fill="#753B92"/>
<path opacity="0.06" d="M31.418 89.0921C31.8819 89.7158 32.4754 90.2497 33.1647 90.6633C33.8539 91.0769 34.6253 91.3621 35.4349 91.5027C36.2445 91.6432 37.0764 91.6364 37.8831 91.4825C38.6898 91.3286 39.4554 91.0307 40.1364 90.6058C40.8174 90.1809 41.4003 89.6373 41.8519 89.006C42.3035 88.3748 42.615 87.6682 42.7685 86.9267C42.9219 86.1853 42.9144 85.4234 42.7464 84.6846C42.5783 83.9457 42.2531 83.2445 41.7891 82.6208C41.4414 82.1454 41.0138 81.7233 40.5224 81.37L40.7797 81.6963C41.2774 82.3712 41.5918 83.1454 41.6967 83.9542C41.8016 84.763 41.6941 85.583 41.3829 86.346C41.0717 87.109 40.5658 87.7929 39.9076 88.3406C39.2494 88.8883 38.458 89.2841 37.599 89.4949C36.74 89.7057 35.8384 89.7255 34.9693 89.5525C34.1003 89.3796 33.289 89.019 32.6029 88.5008C31.9169 87.9825 31.376 87.3216 31.0253 86.5732C30.6745 85.8247 30.5241 85.0103 30.5866 84.1978C30.3193 85.0189 30.2552 85.8843 30.399 86.7309C30.5428 87.5776 30.891 88.3842 31.418 89.0921Z" fill="black"/>
<path opacity="0.3" d="M39.9886 85.9221C39.987 86.0343 40.0224 86.1443 40.0901 86.2378C40.1579 86.3312 40.2549 86.4037 40.3684 86.4458C40.482 86.4879 40.6067 86.4977 40.7264 86.4737C40.846 86.4498 40.955 86.3933 41.0391 86.3117C41.1231 86.2301 41.1783 86.1272 41.1973 86.0164C41.2164 85.9056 41.1985 85.7921 41.146 85.6907C41.0934 85.5894 41.0087 85.5049 40.9029 85.4485C40.7971 85.392 40.6751 85.3661 40.5529 85.3741C40.4765 85.3758 40.4012 85.3914 40.3313 85.42C40.2615 85.4485 40.1985 85.4894 40.146 85.5404C40.0936 85.5913 40.0527 85.6513 40.0256 85.7168C39.9986 85.7824 39.986 85.8521 39.9886 85.9221Z" fill="white"/>
<path opacity="0.3" d="M38.4147 83.4726C38.4117 83.6737 38.4752 83.871 38.5967 84.0386C38.7182 84.2061 38.8922 84.3362 39.0958 84.4117C39.2993 84.4872 39.523 84.5046 39.7376 84.4617C39.9522 84.4188 40.1476 84.3175 40.2983 84.1712C40.449 84.0249 40.548 83.8402 40.5822 83.6415C40.6164 83.4428 40.5843 83.2393 40.4901 83.0576C40.3959 82.8759 40.2439 82.7245 40.0542 82.6232C39.8644 82.5219 39.6457 82.4754 39.4266 82.4899C39.2895 82.493 39.1544 82.5209 39.0292 82.5721C38.904 82.6233 38.7911 82.6966 38.697 82.788C38.6029 82.8794 38.5295 82.9869 38.4811 83.1044C38.4326 83.2219 38.41 83.3471 38.4147 83.4726Z" fill="white"/>
<path d="M66.5441 55.0359C67.128 52.1952 65.0868 49.4589 61.9852 48.9242C58.8835 48.3895 55.8958 50.2589 55.312 53.0996C54.7282 55.9403 56.7693 58.6767 59.8709 59.2114C62.9726 59.7461 65.9603 57.8767 66.5441 55.0359Z" fill="#753B92"/>
<path opacity="0.06" d="M56.1437 56.9839C56.5663 57.552 57.1069 58.0383 57.7346 58.415C58.3624 58.7918 59.065 59.0515 59.8024 59.1795C60.5398 59.3076 61.2976 59.3013 62.0323 59.1611C62.7671 59.021 63.4645 58.7496 64.0847 58.3626C64.705 57.9756 65.2359 57.4805 65.6473 56.9055C66.0586 56.3305 66.3423 55.687 66.4821 55.0116C66.6218 54.3363 66.615 53.6423 66.4619 52.9694C66.3089 52.2964 66.0126 51.6577 65.59 51.0896C65.2733 50.6566 64.8839 50.2722 64.4363 49.9504L64.6706 50.2476C65.124 50.8624 65.4103 51.5675 65.5059 52.3041C65.6014 53.0408 65.5035 53.7877 65.22 54.4827C64.9366 55.1776 64.4758 55.8005 63.8763 56.2994C63.2768 56.7983 62.5559 57.1587 61.7735 57.3508C60.9911 57.5428 60.1699 57.5608 59.3784 57.4033C58.5868 57.2458 57.8479 56.9173 57.223 56.4453C56.5981 55.9733 56.1054 55.3713 55.786 54.6896C55.4665 54.0078 55.3295 53.2661 55.3865 52.526C55.143 53.2739 55.0846 54.0621 55.2156 54.8333C55.3466 55.6044 55.6637 56.3391 56.1437 56.9839Z" fill="black"/>
<path opacity="0.3" d="M63.9485 54.0966C63.947 54.1988 63.9793 54.299 64.041 54.3841C64.1027 54.4692 64.1911 54.5352 64.2945 54.5736C64.3979 54.6119 64.5115 54.6208 64.6205 54.599C64.7295 54.5772 64.8288 54.5258 64.9053 54.4514C64.9819 54.3771 65.0321 54.2833 65.0495 54.1824C65.0669 54.0815 65.0506 53.9781 65.0027 53.8858C64.9549 53.7935 64.8777 53.7166 64.7813 53.6651C64.6849 53.6137 64.5738 53.5901 64.4625 53.5974C64.3929 53.599 64.3243 53.6132 64.2607 53.6392C64.1971 53.6652 64.1397 53.7025 64.0919 53.7489C64.0441 53.7953 64.0069 53.8499 63.9823 53.9096C63.9577 53.9693 63.9462 54.0328 63.9485 54.0966Z" fill="white"/>
<path opacity="0.3" d="M62.5152 51.8655C62.5125 52.0487 62.5703 52.2284 62.681 52.381C62.7917 52.5336 62.9501 52.6521 63.1356 52.7208C63.321 52.7896 63.5247 52.8055 63.7202 52.7664C63.9156 52.7273 64.0937 52.6351 64.2309 52.5018C64.3682 52.3685 64.4583 52.2004 64.4894 52.0194C64.5206 51.8384 64.4914 51.653 64.4055 51.4875C64.3197 51.322 64.1813 51.1841 64.0085 51.0918C63.8357 50.9995 63.6365 50.9572 63.4369 50.9704C63.312 50.9732 63.189 50.9987 63.0749 51.0453C62.9609 51.0919 62.858 51.1588 62.7723 51.242C62.6866 51.3252 62.6198 51.4232 62.5757 51.5302C62.5315 51.6372 62.511 51.7512 62.5152 51.8655Z" fill="white"/>
<path d="M28.4279 71.687C29.0118 68.8463 26.9706 66.11 23.869 65.5753C20.7673 65.0406 17.7796 66.91 17.1958 69.7507C16.612 72.5914 18.6531 75.3278 21.7547 75.8625C24.8564 76.3972 27.8441 74.5278 28.4279 71.687Z" fill="#753B92"/>
<path opacity="0.06" d="M18.0275 73.6351C18.4501 74.2031 18.9906 74.6894 19.6184 75.0662C20.2462 75.4429 20.9488 75.7027 21.6862 75.8307C22.4236 75.9587 23.1813 75.9524 23.9161 75.8123C24.6509 75.6721 25.3482 75.4008 25.9685 75.0137C26.5888 74.6267 27.1197 74.1316 27.5311 73.5566C27.9424 72.9817 28.2261 72.3381 28.3659 71.6628C28.5056 70.9874 28.4988 70.2934 28.3457 69.6205C28.1927 68.9476 27.8964 68.3088 27.4738 67.7407C27.1571 67.3078 26.7677 66.9233 26.3201 66.6015L26.5544 66.8987C27.0078 67.5135 27.2941 68.2186 27.3897 68.9553C27.4852 69.6919 27.3872 70.4389 27.1038 71.1338C26.8204 71.8288 26.3596 72.4517 25.7601 72.9505C25.1606 73.4494 24.4397 73.8099 23.6573 74.0019C22.8749 74.1939 22.0537 74.2119 21.2622 74.0544C20.4706 73.8969 19.7317 73.5685 19.1068 73.0964C18.4819 72.6244 17.9892 72.0224 17.6698 71.3407C17.3503 70.659 17.2133 69.9172 17.2703 69.1772C17.0268 69.9251 16.9684 70.7133 17.0994 71.4844C17.2303 72.2556 17.5475 72.9903 18.0275 73.6351Z" fill="black"/>
<path opacity="0.3" d="M25.8323 70.7477C25.8308 70.8499 25.8631 70.9501 25.9248 71.0352C25.9865 71.1203 26.0749 71.1864 26.1783 71.2247C26.2817 71.2631 26.3953 71.2719 26.5043 71.2501C26.6133 71.2283 26.7126 71.1769 26.7891 71.1026C26.8656 71.0282 26.9159 70.9345 26.9333 70.8335C26.9507 70.7326 26.9343 70.6292 26.8865 70.5369C26.8386 70.4446 26.7615 70.3677 26.6651 70.3163C26.5687 70.2648 26.4576 70.2412 26.3463 70.2486C26.2767 70.2501 26.2081 70.2643 26.1445 70.2903C26.0809 70.3163 26.0235 70.3536 25.9757 70.4C25.9279 70.4464 25.8907 70.501 25.8661 70.5607C25.8414 70.6204 25.83 70.684 25.8323 70.7477Z" fill="white"/>
<path opacity="0.3" d="M24.399 68.5166C24.3963 68.6998 24.4541 68.8794 24.5648 69.0321C24.6755 69.1847 24.8339 69.3031 25.0193 69.3719C25.2048 69.4407 25.4085 69.4566 25.604 69.4175C25.7994 69.3784 25.9774 69.2862 26.1147 69.1529C26.252 69.0196 26.3421 68.8514 26.3732 68.6705C26.4044 68.4895 26.3751 68.3041 26.2893 68.1386C26.2035 67.9731 26.0651 67.8351 25.8923 67.7429C25.7195 67.6506 25.5202 67.6083 25.3207 67.6215C25.1958 67.6243 25.0728 67.6497 24.9587 67.6964C24.8447 67.743 24.7418 67.8098 24.6561 67.893C24.5704 67.9763 24.5036 68.0742 24.4595 68.1812C24.4153 68.2883 24.3947 68.4022 24.399 68.5166Z" fill="white"/>
<path d="M38.2776 79.9939C42.3721 80.7622 46.3577 78.2779 47.1795 74.4451C48.0014 70.6123 45.3484 66.8824 41.2538 66.1141C37.1593 65.3458 33.1736 67.8301 32.3517 71.6629C31.5298 75.4957 34.183 79.2256 38.2776 79.9939Z" fill="#753B92"/>
<path opacity="0.06" d="M35.6287 67.0816C34.8013 67.5959 34.0901 68.2576 33.5359 69.0291C32.9817 69.8006 32.5952 70.6667 32.3985 71.5779C32.2018 72.4891 32.1988 73.4276 32.3896 74.3398C32.5804 75.252 32.9613 76.12 33.5105 76.8943C34.0597 77.6687 34.7666 78.3341 35.5906 78.8527C36.4147 79.3713 37.3399 79.7329 38.3133 79.9168C39.2868 80.1006 40.2894 80.1032 41.264 79.9244C42.2386 79.7455 43.1661 79.3888 43.9935 78.8745C44.624 78.4891 45.1857 78.013 45.6577 77.4637L45.2246 77.7492C44.3293 78.3009 43.306 78.6443 42.2403 78.7509C41.1745 78.8575 40.097 78.7243 39.0976 78.3622C38.0981 78.0001 37.2056 77.4195 36.4944 76.6691C35.7833 75.9187 35.274 75.0202 35.0091 74.0481C34.7441 73.0761 34.7312 72.0588 34.9713 71.081C35.2115 70.1032 35.6978 69.1932 36.3896 68.4268C37.0815 67.6605 37.959 67.0599 38.949 66.6751C39.9389 66.2904 41.0127 66.1325 42.0809 66.2148C41.0043 65.9014 39.8666 65.8165 38.7504 65.9664C37.6343 66.1164 36.5679 66.4974 35.6287 67.0816Z" fill="black"/>
<path opacity="0.3" d="M39.6764 76.7942C39.5288 76.7907 39.3836 76.829 39.2596 76.9041C39.1357 76.9792 39.0389 77.0876 38.9818 77.215C38.9248 77.3425 38.9102 77.4831 38.9399 77.6184C38.9697 77.7537 39.0424 77.8775 39.1485 77.9735C39.2547 78.0695 39.3894 78.1332 39.5349 78.1563C39.6804 78.1794 39.83 78.1609 39.9641 78.1031C40.0982 78.0453 40.2106 77.9509 40.2864 77.8324C40.3623 77.7139 40.3982 77.5766 40.3893 77.4387C40.3882 77.3525 40.3687 77.2673 40.3322 77.1881C40.2957 77.1089 40.2427 77.0372 40.1764 76.9773C40.1102 76.9174 40.0318 76.8704 39.946 76.8389C39.8602 76.8075 39.7685 76.7923 39.6764 76.7942Z" fill="white"/>
<path opacity="0.3" d="M42.9212 75.0548C42.6566 75.0486 42.3961 75.1173 42.1739 75.2519C41.9516 75.3866 41.778 75.5809 41.6757 75.8095C41.5734 76.038 41.5472 76.2901 41.6005 76.5328C41.6539 76.7755 41.7843 76.9974 41.9747 77.1695C42.165 77.3416 42.4065 77.4559 42.6675 77.4974C42.9285 77.5389 43.1967 77.5056 43.4372 77.402C43.6777 77.2983 43.8791 77.1291 44.0152 76.9165C44.1512 76.704 44.2155 76.4579 44.1997 76.2106C44.1976 76.0559 44.1628 75.9031 44.0973 75.7611C44.0317 75.6191 43.9368 75.4906 43.8179 75.3832C43.6991 75.2757 43.5586 75.1914 43.4047 75.135C43.2508 75.0787 43.0865 75.0514 42.9212 75.0548Z" fill="white"/>
<path d="M29.6384 87.2304C30.64 82.357 27.1384 77.6628 21.8173 76.7454C16.4963 75.8281 11.3708 79.0351 10.3692 83.9085C9.36763 88.7819 12.8692 93.4763 18.1903 94.3936C23.5113 95.3109 28.6369 92.1038 29.6384 87.2304Z" fill="#4A1A87"/>
<path opacity="0.06" d="M11.796 90.5722C12.521 91.5467 13.4483 92.381 14.5253 93.0273C15.6023 93.6735 16.8077 94.1192 18.0727 94.3388C19.3378 94.5584 20.6377 94.5477 21.8982 94.3072C23.1587 94.0668 24.3551 93.6013 25.4192 92.9373C26.4833 92.2734 27.3941 91.4239 28.0998 90.4376C28.8054 89.4512 29.2921 88.3472 29.5319 87.1886C29.7717 86.03 29.76 84.8395 29.4974 83.685C29.2348 82.5305 28.7266 81.4348 28.0016 80.4602C27.4582 79.7174 26.7902 79.0578 26.0223 78.5058L26.4243 79.0156C27.2021 80.0703 27.6933 81.28 27.8572 82.5438C28.0212 83.8076 27.8531 85.0889 27.3668 86.2812C26.8806 87.4734 26.0901 88.542 25.0617 89.3978C24.0332 90.2537 22.7965 90.872 21.4542 91.2015C20.112 91.5309 18.7032 91.5618 17.3452 91.2916C15.9873 91.0214 14.7196 90.4579 13.6476 89.6481C12.5756 88.8383 11.7303 87.8056 11.1823 86.6361C10.6343 85.4665 10.3992 84.194 10.4969 82.9244C10.0792 84.2075 9.97909 85.5597 10.2038 86.8826C10.4285 88.2056 10.9725 89.466 11.796 90.5722Z" fill="black"/>
<path opacity="0.3" d="M25.187 85.6187C25.1845 85.794 25.2398 85.9659 25.3457 86.1119C25.4516 86.2579 25.6031 86.3712 25.7805 86.437C25.9579 86.5028 26.1529 86.518 26.3398 86.4806C26.5268 86.4432 26.6971 86.355 26.8284 86.2275C26.9597 86.0999 27.046 85.9391 27.0758 85.7659C27.1056 85.5928 27.0776 85.4154 26.9955 85.2571C26.9134 85.0988 26.781 84.9668 26.6157 84.8785C26.4503 84.7903 26.2597 84.7498 26.0688 84.7624C25.9494 84.7651 25.8317 84.7894 25.7225 84.834C25.6134 84.8786 25.515 84.9426 25.433 85.0222C25.351 85.1018 25.2871 85.1955 25.2449 85.2979C25.2027 85.4003 25.183 85.5093 25.187 85.6187Z" fill="white"/>
<path opacity="0.3" d="M22.7255 81.7913C22.7209 82.1056 22.8201 82.4139 23.01 82.6757C23.1999 82.9375 23.4717 83.1407 23.7898 83.2587C24.1079 83.3767 24.4575 83.4039 24.7928 83.3369C25.1281 83.2698 25.4335 83.1116 25.6689 82.883C25.9044 82.6543 26.059 82.3658 26.1125 82.0553C26.1659 81.7448 26.1157 81.4268 25.9685 81.1429C25.8213 80.8589 25.5839 80.6223 25.2874 80.464C24.9909 80.3057 24.6491 80.2331 24.3068 80.2557C24.0926 80.2606 23.8815 80.3043 23.6858 80.3842C23.4901 80.4642 23.3137 80.5789 23.1667 80.7216C23.0196 80.8644 22.905 81.0325 22.8293 81.2161C22.7536 81.3997 22.7183 81.5952 22.7255 81.7913Z" fill="white"/>
<path d="M54.6889 85.0508C57.8398 86.6499 61.7981 85.5519 63.5301 82.5984C65.2621 79.645 64.1119 75.9545 60.9611 74.3555C57.8102 72.7565 53.8518 73.8544 52.1198 76.8078C50.3878 79.7613 51.5381 83.4518 54.6889 85.0508Z" fill="#4A1A87"/>
<path opacity="0.06" d="M56.0748 73.8206C55.2535 74.0473 54.4869 74.4227 53.819 74.9252C53.1511 75.4278 52.5948 76.0477 52.182 76.7495C51.7691 77.4513 51.5078 78.2214 51.413 79.0157C51.3181 79.8099 51.3915 80.6129 51.629 81.3787C51.8665 82.1444 52.2635 82.8581 52.7973 83.4788C53.331 84.0995 53.9911 84.6152 54.7399 84.9964C55.4886 85.3775 56.3113 85.6166 57.1611 85.7002C58.0108 85.7838 58.8709 85.7101 59.6923 85.4833C60.3164 85.3159 60.909 85.0576 61.4481 84.7181L61.0137 84.8502C60.1262 85.0916 59.1912 85.1317 58.2865 84.9673C57.3818 84.8029 56.5336 84.4387 55.8127 83.905C55.0917 83.3714 54.5188 82.6836 54.1417 81.8991C53.7646 81.1147 53.5942 80.2564 53.6447 79.3954C53.6952 78.5345 53.9651 77.6959 54.432 76.9497C54.8989 76.2034 55.5492 75.5711 56.3288 75.1053C57.1083 74.6394 57.9946 74.3537 58.9137 74.2717C59.8329 74.1898 60.7583 74.314 61.6128 74.6341C60.8151 74.1222 59.9041 73.7835 58.9462 73.6428C57.9882 73.502 57.0072 73.5628 56.0748 73.8206Z" fill="black"/>
<path opacity="0.3" d="M56.7208 82.7545C56.6006 82.7167 56.4707 82.7139 56.3482 82.7462C56.2257 82.7786 56.1163 82.8447 56.0343 82.9359C55.9523 83.0271 55.9015 83.1391 55.8886 83.2573C55.8758 83.3754 55.9013 83.4943 55.9621 83.5982C56.0228 83.7021 56.1158 83.7863 56.2289 83.8397C56.3421 83.8931 56.4701 83.9132 56.5961 83.8975C56.7222 83.8817 56.8405 83.8308 56.9355 83.7514C57.0305 83.6719 57.0978 83.5677 57.1286 83.4524C57.1514 83.3813 57.1589 83.3067 57.1508 83.233C57.1426 83.1593 57.1189 83.088 57.081 83.0231C57.0431 82.9582 56.9917 82.9011 56.9299 82.855C56.8681 82.8089 56.797 82.7747 56.7208 82.7545Z" fill="white"/>
<path opacity="0.3" d="M59.8667 82.0921C59.6511 82.0244 59.4182 82.0193 59.1985 82.0773C58.9789 82.1354 58.7827 82.2539 58.6356 82.4175C58.4886 82.581 58.3975 82.7818 58.3744 82.9937C58.3513 83.2056 58.3972 83.4187 58.5061 83.6051C58.615 83.7914 58.7818 83.9424 58.9847 84.0382C59.1875 84.1339 59.4171 84.17 59.6431 84.1418C59.8692 84.1135 60.0813 84.0222 60.2517 83.8797C60.422 83.7373 60.5427 83.5505 60.5979 83.3436C60.6388 83.2161 60.6524 83.0824 60.6377 82.9502C60.6231 82.8181 60.5805 82.6902 60.5126 82.5738C60.4446 82.4575 60.3525 82.355 60.2416 82.2723C60.1308 82.1897 60.0033 82.1284 59.8667 82.0921Z" fill="white"/>
<path d="M42.3232 62.3884C46.3286 64.4211 51.3604 63.0254 53.5621 59.271C55.7638 55.5166 54.3017 50.8252 50.2964 48.7926C46.291 46.7599 41.2591 48.1556 39.0574 51.91C36.8557 55.6644 38.3179 60.3558 42.3232 62.3884Z" fill="#4A1A87"/>
<path opacity="0.06" d="M44.0846 48.1127C43.0405 48.4009 42.0661 48.8781 41.217 49.5169C40.368 50.1558 39.6609 50.9438 39.1361 51.8359C38.6113 52.7281 38.2791 53.707 38.1585 54.7167C38.0379 55.7264 38.1312 56.747 38.4332 57.7205C38.7351 58.6939 39.2397 59.6011 39.9182 60.3902C40.5968 61.1792 41.4359 61.8348 42.3877 62.3193C43.3395 62.8038 44.3853 63.1078 45.4655 63.214C46.5457 63.3202 47.639 63.2266 48.6831 62.9383C49.4765 62.7255 50.2298 62.3972 50.9151 61.9656L50.3629 62.1335C49.2347 62.4404 48.0461 62.4914 46.8961 62.2824C45.746 62.0733 44.6679 61.6104 43.7514 60.932C42.8349 60.2536 42.1067 59.3793 41.6273 58.3821C41.1479 57.385 40.9313 56.2939 40.9955 55.1994C41.0597 54.105 41.4028 53.0391 41.9963 52.0904C42.5898 51.1418 43.4164 50.338 44.4074 49.7458C45.3984 49.1537 46.5251 48.7904 47.6934 48.6862C48.8618 48.5821 50.0382 48.7399 51.1245 49.1469C50.1105 48.4961 48.9524 48.0656 47.7347 47.8867C46.5169 47.7077 45.2699 47.785 44.0846 48.1127Z" fill="black"/>
<path opacity="0.3" d="M44.9051 59.4694C44.7522 59.4214 44.5871 59.4178 44.4314 59.4589C44.2757 59.5001 44.1366 59.5841 44.0324 59.7C43.9281 59.8159 43.8636 59.9583 43.8472 60.1085C43.8308 60.2588 43.8634 60.4098 43.9406 60.5419C44.0177 60.674 44.136 60.781 44.2798 60.8489C44.4236 60.9168 44.5863 60.9424 44.7466 60.9224C44.9068 60.9023 45.0572 60.8376 45.178 60.7366C45.2987 60.6357 45.3843 60.5032 45.4234 60.3566C45.4524 60.2661 45.462 60.1714 45.4516 60.0777C45.4413 59.984 45.4111 59.8934 45.3629 59.8109C45.3147 59.7284 45.2494 59.6558 45.1709 59.5972C45.0923 59.5386 45.0019 59.4951 44.9051 59.4694Z" fill="white"/>
<path opacity="0.3" d="M48.9041 58.6274C48.6301 58.5414 48.334 58.5348 48.0548 58.6086C47.7756 58.6824 47.5261 58.8331 47.3392 59.0409C47.1523 59.2488 47.0366 59.5041 47.0072 59.7735C46.9778 60.0429 47.0361 60.3138 47.1745 60.5507C47.313 60.7876 47.525 60.9795 47.7829 61.1012C48.0408 61.2229 48.3326 61.2688 48.6199 61.2329C48.9073 61.197 49.177 61.0808 49.3935 60.8998C49.6101 60.7188 49.7635 60.4812 49.8336 60.2183C49.8857 60.0561 49.9029 59.8862 49.8843 59.7182C49.8657 59.5503 49.8116 59.3876 49.7252 59.2397C49.6387 59.0918 49.5217 58.9616 49.3808 58.8565C49.2398 58.7514 49.0779 58.6735 48.9041 58.6274Z" fill="white"/>
<path d="M28.3159 65.8963C31.4667 67.4953 35.425 66.3973 37.157 63.4439C38.889 60.4905 37.7389 56.8 34.588 55.2009C31.4372 53.6019 27.4787 54.6998 25.7467 57.6533C24.0147 60.6067 25.165 64.2973 28.3159 65.8963Z" fill="#4A1A87"/>
<path opacity="0.06" d="M29.7018 54.6661C28.8804 54.8928 28.1139 55.2682 27.4459 55.7707C26.778 56.2733 26.2218 56.8932 25.8089 57.595C25.3961 58.2969 25.1348 59.0669 25.0399 59.8612C24.945 60.6555 25.0184 61.4584 25.256 62.2242C25.4935 62.99 25.8905 63.7036 26.4242 64.3243C26.958 64.945 27.6181 65.4607 28.3668 65.8419C29.1156 66.223 29.9383 66.4622 30.788 66.5457C31.6378 66.6293 32.4979 66.5556 33.3192 66.3288C33.9433 66.1614 34.5359 65.9031 35.075 65.5637L34.6406 65.6958C33.7531 65.9371 32.8181 65.9772 31.9134 65.8128C31.0087 65.6484 30.1606 65.2842 29.4396 64.7506C28.7187 64.2169 28.1458 63.5291 27.7687 62.7447C27.3916 61.9602 27.2212 61.1019 27.2716 60.241C27.3221 59.38 27.5921 58.5415 28.059 57.7952C28.5258 57.049 29.1761 56.4166 29.9557 55.9508C30.7353 55.485 31.6216 55.1992 32.5407 55.1172C33.4598 55.0353 34.3852 55.1595 35.2398 55.4797C34.4421 54.9677 33.5311 54.629 32.5731 54.4883C31.6151 54.3475 30.6342 54.4083 29.7018 54.6661Z" fill="black"/>
<path opacity="0.3" d="M30.3468 63.6C30.2266 63.5622 30.0967 63.5593 29.9742 63.5917C29.8517 63.6241 29.7423 63.6902 29.6603 63.7814C29.5783 63.8726 29.5275 63.9846 29.5146 64.1027C29.5017 64.2209 29.5273 64.3397 29.588 64.4437C29.6488 64.5476 29.7418 64.6318 29.8549 64.6852C29.9681 64.7386 30.096 64.7587 30.2221 64.7429C30.3482 64.7272 30.4665 64.6762 30.5615 64.5968C30.6565 64.5174 30.7238 64.4132 30.7545 64.2978C30.7774 64.2267 30.7849 64.1522 30.7768 64.0785C30.7686 64.0048 30.7449 63.9335 30.707 63.8686C30.669 63.8037 30.6177 63.7465 30.5559 63.7004C30.494 63.6543 30.423 63.6202 30.3468 63.6Z" fill="white"/>
<path opacity="0.3" d="M33.4927 62.9376C33.2771 62.8699 33.0442 62.8648 32.8245 62.9228C32.6049 62.9808 32.4087 63.0994 32.2616 63.2629C32.1146 63.4264 32.0235 63.6273 32.0004 63.8392C31.9773 64.0511 32.0232 64.2642 32.1321 64.4505C32.241 64.6369 32.4078 64.7879 32.6106 64.8836C32.8135 64.9794 33.043 65.0155 33.2691 64.9872C33.4952 64.959 33.7073 64.8676 33.8776 64.7252C34.048 64.5828 34.1687 64.3959 34.2239 64.1891C34.2648 64.0615 34.2784 63.9278 34.2637 63.7957C34.2491 63.6636 34.2065 63.5356 34.1385 63.4193C34.0705 63.3029 33.9785 63.2005 33.8676 63.1178C33.7568 63.0351 33.6293 62.9738 33.4927 62.9376Z" fill="white"/>
<path d="M64.8123 73.314C68.949 75.4133 74.1458 73.9718 76.4197 70.0943C78.6936 66.2168 77.1835 61.3716 73.0469 59.2723C68.9102 57.173 63.7133 58.6144 61.4394 62.4919C59.1655 66.3694 60.6756 71.2147 64.8123 73.314Z" fill="#4A1A87"/>
<path opacity="0.06" d="M66.6306 58.5702C65.5522 58.8679 64.5459 59.3607 63.669 60.0205C62.792 60.6803 62.0618 61.4941 61.5198 62.4156C60.9778 63.337 60.6347 64.348 60.5101 65.3908C60.3856 66.4336 60.482 67.4877 60.7938 68.4931C61.1056 69.4985 61.6268 70.4354 62.3276 71.2503C63.0283 72.0652 63.895 72.7423 64.878 73.2427C65.861 73.7431 66.9411 74.057 68.0567 74.1667C69.1723 74.2764 70.3015 74.1797 71.3798 73.882C72.1992 73.6622 72.9772 73.3231 73.685 72.8774L73.1147 73.0508C71.9495 73.3677 70.7219 73.4204 69.5342 73.2045C68.3465 72.9887 67.233 72.5106 66.2864 71.8099C65.3399 71.1092 64.5878 70.2063 64.0927 69.1764C63.5976 68.1466 63.3738 67.0197 63.4401 65.8894C63.5064 64.7591 63.8608 63.6581 64.4738 62.6784C65.0867 61.6987 65.9405 60.8685 66.964 60.2569C67.9875 59.6453 69.151 59.2701 70.3577 59.1626C71.5644 59.055 72.7794 59.218 73.9013 59.6384C72.854 58.9662 71.658 58.5216 70.4003 58.3368C69.1426 58.152 67.8547 58.2318 66.6306 58.5702Z" fill="black"/>
<path opacity="0.3" d="M67.479 70.2993C67.3212 70.2498 67.1507 70.246 66.9899 70.2885C66.829 70.331 66.6854 70.4178 66.5777 70.5375C66.4701 70.6572 66.4034 70.8043 66.3865 70.9594C66.3696 71.1146 66.4032 71.2706 66.4829 71.407C66.5626 71.5435 66.6847 71.654 66.8333 71.7241C66.9818 71.7942 67.1498 71.8206 67.3154 71.7999C67.4809 71.7792 67.6362 71.7124 67.7609 71.6081C67.8856 71.5038 67.974 71.367 68.0144 71.2156C68.0443 71.1222 68.0543 71.0243 68.0435 70.9276C68.0328 70.8308 68.0017 70.7372 67.9519 70.652C67.9021 70.5668 67.8347 70.4918 67.7535 70.4313C67.6724 70.3707 67.5791 70.3259 67.479 70.2993Z" fill="white"/>
<path opacity="0.3" d="M71.6089 69.4297C71.3259 69.3408 71.0201 69.3341 70.7317 69.4103C70.4434 69.4865 70.1858 69.6421 69.9927 69.8568C69.7996 70.0715 69.6801 70.3352 69.6498 70.6134C69.6194 70.8916 69.6797 71.1714 69.8226 71.416C69.9656 71.6607 70.1846 71.8589 70.4509 71.9846C70.7173 72.1103 71.0186 72.1577 71.3154 72.1206C71.6122 72.0835 71.8907 71.9636 72.1144 71.7766C72.338 71.5896 72.4964 71.3443 72.5689 71.0727C72.6227 70.9053 72.6404 70.7297 72.6212 70.5563C72.602 70.3828 72.5461 70.2149 72.4569 70.0621C72.3676 69.9093 72.2467 69.7748 72.1012 69.6663C71.9556 69.5578 71.7883 69.4773 71.6089 69.4297Z" fill="white"/>
<path d="M78.1978 70.8994C74.755 72.2541 73.1735 75.9584 74.6653 79.1731C76.1571 82.3878 80.1574 83.8956 83.6002 82.5409C87.043 81.1861 88.6246 77.4819 87.1328 74.2672C85.641 71.0525 81.6406 69.5447 78.1978 70.8994Z" fill="#4A1A87"/>
<path opacity="0.06" d="M87.2225 79.186C87.5517 78.418 87.7142 77.5958 87.7009 76.7663C87.6876 75.9367 87.4987 75.1161 87.145 74.3512C86.7913 73.5864 86.2797 72.8922 85.6395 72.3085C84.9992 71.7248 84.2429 71.2629 83.4136 70.9491C82.5842 70.6354 81.6982 70.476 80.806 70.48C79.9139 70.484 79.033 70.6513 78.2139 70.9725C77.3947 71.2937 76.6533 71.7624 76.0319 72.3518C75.4104 72.9412 74.9212 73.6399 74.5921 74.4078C74.3377 74.9882 74.1838 75.6032 74.1361 76.2302L74.2994 75.8162C74.6583 74.9888 75.2255 74.255 75.9538 73.6761C76.682 73.0972 77.5502 72.6898 78.4862 72.488C79.4221 72.2862 80.3987 72.2958 81.3345 72.5159C82.2702 72.7359 83.138 73.1601 83.8658 73.7532C84.5935 74.3464 85.16 75.0912 85.5181 75.9256C85.8762 76.76 86.0155 77.6598 85.9244 78.5502C85.8333 79.4406 85.5145 80.2957 84.9944 81.0443C84.4744 81.793 83.7683 82.4135 82.9348 82.8541C83.901 82.5802 84.7872 82.1088 85.529 81.4743C86.2707 80.8397 86.8492 80.058 87.2225 79.186Z" fill="black"/>
<path opacity="0.3" d="M78.9167 73.917C79.0275 73.8503 79.1138 73.7538 79.1641 73.6402C79.2145 73.5266 79.2266 73.4012 79.199 73.2804C79.1713 73.1595 79.1051 73.0489 79.0091 72.963C78.913 72.8771 78.7916 72.8198 78.6607 72.7988C78.5298 72.7778 78.3955 72.794 78.2754 72.8452C78.1553 72.8964 78.0551 72.9804 77.9877 73.086C77.9204 73.1915 77.8891 73.3139 77.898 73.437C77.907 73.5601 77.9556 73.6782 78.0376 73.7759C78.0857 73.839 78.1467 73.8928 78.217 73.9341C78.2874 73.9754 78.3656 74.0034 78.4474 74.0165C78.5291 74.0296 78.6127 74.0276 78.6932 74.0105C78.7738 73.9934 78.8497 73.9617 78.9167 73.917Z" fill="white"/>
<path opacity="0.3" d="M77.4742 76.7255C77.6729 76.6059 77.8275 76.4329 77.9179 76.2292C78.0082 76.0255 78.0299 75.8006 77.9803 75.5839C77.9307 75.3672 77.812 75.1688 77.6398 75.0147C77.4675 74.8607 77.2498 74.758 77.015 74.7204C76.7803 74.6827 76.5395 74.7117 76.3242 74.8036C76.1088 74.8954 75.929 75.0459 75.8083 75.2353C75.6876 75.4246 75.6315 75.6441 75.6475 75.8648C75.6634 76.0856 75.7507 76.2974 75.8978 76.4725C75.984 76.5857 76.0934 76.6821 76.2195 76.7562C76.3456 76.8302 76.486 76.8805 76.6326 76.904C76.7791 76.9275 76.9289 76.9238 77.0734 76.8932C77.2179 76.8626 77.3541 76.8056 77.4742 76.7255Z" fill="white"/>
<path opacity="0.46" d="M5.2454 93.3728C4.85015 92.6884 4.05965 90.8709 5.2454 88.8101L41.0004 26.8481V4.47546H47.0355V32.0648L32.4797 95.6542H9.1903C6.8188 95.6542 5.64065 94.0572 5.2454 93.3728Z" fill="#FFFEFF"/>
</svg>
