<svg width="79" height="100" viewBox="0 0 79 100" fill="none" xmlns="http://www.w3.org/2000/svg">
<path d="M1.89648 94.6652V28.3287L16.2319 12.7622V2.20679L66.9442 3.10684V14.1146L77.4186 24.9535V91.29L56.9202 98.315L1.89648 94.6652Z" fill="#FAEFCC"/>
<path d="M67.8196 13.7838L57.1289 29.6451L77.972 24.9333L67.8196 13.7838Z" fill="#FCFCEB"/>
<path d="M15.7783 12.1434V1.73425L67.3623 2.63431V13.0435L15.7783 12.1434Z" fill="#FAFAFA"/>
<path d="M56.9199 29.6383L56.9222 98.6682L77.8216 91.7288L77.9725 24.9332L56.9199 29.6383Z" fill="#FFE1A2"/>
<path d="M77.4164 25.5745C77.3617 25.5736 77.3072 25.5661 77.2543 25.552L62.6125 21.5715C62.4541 21.5279 62.3195 21.4233 62.2381 21.2808C62.1566 21.1383 62.1349 20.9694 62.1778 20.811C62.2215 20.6528 62.3261 20.5183 62.4688 20.437C62.6114 20.3556 62.7805 20.3339 62.9391 20.3767L77.5809 24.3572C77.7392 24.4009 77.8738 24.5054 77.9553 24.6479C78.0368 24.7904 78.0585 24.9593 78.0156 25.1178C77.9793 25.2487 77.901 25.3643 77.7929 25.4467C77.6847 25.5292 77.5525 25.5741 77.4164 25.5745Z" fill="#DBDBB4"/>
<path d="M56.9173 59.8465C56.753 59.8465 56.5955 59.7814 56.4793 59.6653C56.3631 59.5493 56.2979 59.3919 56.2979 59.2278V47.428C56.2979 47.2639 56.3631 47.1065 56.4793 46.9904C56.5955 46.8744 56.753 46.8092 56.9173 46.8092C57.0816 46.8092 57.2392 46.8744 57.3553 46.9904C57.4715 47.1065 57.5368 47.2639 57.5368 47.428V59.2278C57.5368 59.3919 57.4715 59.5493 57.3553 59.6653C57.2392 59.7814 57.0816 59.8465 56.9173 59.8465Z" fill="#BDAF7F"/>
<path d="M56.9173 68.0889C56.753 68.0889 56.5955 68.0237 56.4793 67.9076C56.3631 67.7916 56.2979 67.6342 56.2979 67.4701V62.0697C56.2979 61.9056 56.3631 61.7482 56.4793 61.6322C56.5955 61.5161 56.753 61.4509 56.9173 61.4509C57.0816 61.4509 57.2392 61.5161 57.3553 61.6322C57.4715 61.7482 57.5368 61.9056 57.5368 62.0697V67.4701C57.5368 67.6342 57.4715 67.7916 57.3553 67.9076C57.2392 68.0237 57.0816 68.0889 56.9173 68.0889Z" fill="#BDAF7F"/>
<path d="M56.9176 44.9483C56.7533 44.9483 56.5957 44.8831 56.4795 44.767C56.3634 44.651 56.2981 44.4936 56.2981 44.3295V30.2413L1.88033 28.9475C1.79899 28.9461 1.71874 28.9285 1.64424 28.8958C1.56974 28.8632 1.50246 28.8161 1.44631 28.7573C1.39016 28.6985 1.34626 28.6291 1.31713 28.5532C1.288 28.4773 1.27424 28.3965 1.27663 28.3152C1.27809 28.234 1.29567 28.1538 1.32836 28.0794C1.36105 28.005 1.4082 27.9378 1.46707 27.8817C1.52595 27.8256 1.59537 27.7817 1.67134 27.7526C1.7473 27.7235 1.82829 27.7098 1.90961 27.7122L56.9333 29.0195C57.0951 29.0231 57.2489 29.0899 57.3618 29.2056C57.4747 29.3213 57.5376 29.4767 57.537 29.6383V44.3295C57.537 44.4936 57.4718 44.651 57.3556 44.767C57.2394 44.8831 57.0818 44.9483 56.9176 44.9483Z" fill="#BDAF7F"/>
<path d="M56.9173 98.9339C56.753 98.9339 56.5955 98.8687 56.4793 98.7526C56.3631 98.6366 56.2979 98.4792 56.2979 98.3151V75.1386C56.2979 74.9745 56.3631 74.8171 56.4793 74.701C56.5955 74.585 56.753 74.5198 56.9173 74.5198C57.0816 74.5198 57.2392 74.585 57.3553 74.701C57.4715 74.8171 57.5368 74.9745 57.5368 75.1386V98.3151C57.5368 98.4792 57.4715 98.6366 57.3553 98.7526C57.2392 98.8687 57.0816 98.9339 56.9173 98.9339Z" fill="#BDAF7F"/>
<path d="M56.9174 30.2571C56.7771 30.2566 56.6412 30.2088 56.5316 30.1213C56.422 30.0339 56.3452 29.9121 56.3137 29.7755C56.2954 29.6963 56.2929 29.6143 56.3065 29.5341C56.32 29.454 56.3493 29.3773 56.3926 29.3085C56.436 29.2397 56.4925 29.1801 56.559 29.1332C56.6255 29.0863 56.7006 29.053 56.78 29.0352L77.2784 24.3504C77.4385 24.3141 77.6065 24.3428 77.7455 24.4301C77.8844 24.5175 77.983 24.6563 78.0195 24.8162C78.0379 24.8954 78.0404 24.9774 78.0271 25.0576C78.0137 25.1378 77.9846 25.2146 77.9415 25.2835C77.8984 25.3525 77.8421 25.4123 77.7759 25.4595C77.7097 25.5067 77.6348 25.5405 77.5555 25.5588L57.057 30.2413C57.0111 30.2509 56.9643 30.2561 56.9174 30.2571Z" fill="#BDAF7F"/>
<path d="M56.918 30.2571C56.7951 30.2575 56.6749 30.2206 56.5734 30.1514C56.5057 30.1061 56.4477 30.0479 56.4025 29.9801C56.3574 29.9124 56.3261 29.8364 56.3104 29.7566C56.2947 29.6767 56.295 29.5946 56.3111 29.5148C56.3272 29.4351 56.3589 29.3593 56.4044 29.2918L67.0479 13.498C67.0934 13.4306 67.1518 13.3729 67.2197 13.328C67.2876 13.2831 67.3636 13.2521 67.4435 13.2366C67.5235 13.2212 67.6056 13.2216 67.6854 13.2379C67.7651 13.2542 67.8409 13.286 67.9083 13.3315C67.9757 13.3768 68.0335 13.4349 68.0784 13.5025C68.1233 13.5702 68.1543 13.646 68.1698 13.7256C68.1853 13.8053 68.1849 13.8872 68.1686 13.9667C68.1524 14.0461 68.1206 14.1216 68.075 14.1888L57.4316 29.9826C57.3754 30.0672 57.299 30.1365 57.2094 30.1844C57.1198 30.2324 57.0197 30.2573 56.918 30.2571Z" fill="#BDAF7F"/>
<path d="M67.3627 13.6623L15.6796 12.7623C15.5982 12.7608 15.518 12.7433 15.4434 12.7109C15.3688 12.6784 15.3013 12.6316 15.2448 12.5731C15.1884 12.5146 15.144 12.4455 15.1142 12.3699C15.0844 12.2942 15.0699 12.2135 15.0714 12.1322C15.072 12.0507 15.0888 11.9701 15.121 11.8952C15.1532 11.8202 15.2 11.7525 15.2588 11.6959C15.3175 11.6393 15.387 11.595 15.4632 11.5656C15.5393 11.5362 15.6205 11.5223 15.7021 11.5247L67.3852 12.4247C67.4665 12.4259 67.5467 12.4431 67.6213 12.4753C67.6959 12.5075 67.7634 12.5541 67.8199 12.6125C67.8764 12.6708 67.9208 12.7397 67.9506 12.8152C67.9804 12.8907 67.9949 12.9714 67.9934 13.0525C67.9923 13.134 67.975 13.2144 67.9426 13.2892C67.9103 13.364 67.8635 13.4316 67.8049 13.4883C67.7463 13.5449 67.677 13.5895 67.6012 13.6193C67.5253 13.6492 67.4443 13.6638 67.3627 13.6623Z" fill="#BDAF7F"/>
<path d="M16.2316 2.20682L66.9416 3.10688V13.6646L77.4161 24.9535V91.29L56.9176 98.315L1.89615 94.6653V28.3287L16.2316 12.7622V2.20682ZM16.2316 0.969238C15.9063 0.969598 15.5942 1.09723 15.3621 1.32476C15.2448 1.43981 15.1517 1.5771 15.0883 1.72857C15.0248 1.88003 14.9923 2.04263 14.9926 2.20682V12.2785L0.983856 27.4917C0.774429 27.7203 0.657954 28.0188 0.657229 28.3287V94.6653C0.656553 94.9793 0.775658 95.2818 0.990318 95.5113C1.20498 95.7408 1.49907 95.88 1.8128 95.9006L56.8365 99.5503H56.9176C57.0548 99.5504 57.1911 99.5276 57.3208 99.4828L77.8193 92.4601C78.0632 92.3755 78.2747 92.2172 78.4244 92.0072C78.5742 91.7971 78.6548 91.5457 78.655 91.2878V24.9535C78.6553 24.6423 78.5378 24.3425 78.3261 24.1142L68.1895 13.1808V3.10688C68.1896 2.78251 68.0621 2.47109 67.8346 2.23963C67.6071 2.00818 67.2978 1.87519 66.9731 1.8693L16.2631 0.969238H16.2316Z" fill="#DB9524"/>
<mask id="path-14-outside-1_2038_4819" maskUnits="userSpaceOnUse" x="7.73572" y="50.8512" width="41.6219" height="18.5602" fill="black">
<rect fill="white" x="7.73572" y="50.8512" width="41.6219" height="18.5602"/>
<path d="M18.2468 57.116C18.2897 56.9375 18.3171 56.6924 18.329 56.3806C18.3359 56.2008 18.3306 56.0264 18.3131 55.8576C18.296 55.6768 18.26 55.5193 18.2051 55.3851C18.1507 55.2389 18.0649 55.1276 17.9478 55.051C17.8311 54.9625 17.6768 54.9145 17.4849 54.9072C17.2691 54.8989 17.0694 54.9392 16.8859 55.0283C16.7023 55.1173 16.5356 55.237 16.3857 55.3873C16.2483 55.5262 16.1337 55.6959 16.0419 55.8965C15.9626 56.0856 15.9188 56.2881 15.9105 56.5039C15.8986 56.8157 15.9673 57.0585 16.1167 57.2324C16.2782 57.4067 16.4887 57.5529 16.7484 57.6709C17.008 57.789 17.3044 57.8904 17.6374 57.9753C17.9704 58.0601 18.3149 58.1574 18.6709 58.2671C18.9675 58.3626 19.2631 58.482 19.5578 58.6254C19.8526 58.7688 20.1095 58.9588 20.3285 59.1954C20.5601 59.4204 20.7409 59.7156 20.871 60.0809C21.0015 60.4341 21.0567 60.8746 21.0364 61.4022C21.0074 62.1576 20.8331 62.7874 20.5136 63.2915C20.194 63.7956 19.7642 64.1994 19.2241 64.5029C18.6841 64.8064 18.0456 65.0161 17.3086 65.1319C16.5836 65.2482 15.7954 65.29 14.944 65.2573C14.0807 65.2242 13.3753 65.1431 12.8278 65.014C12.2928 64.8733 11.872 64.7311 11.5653 64.5872C11.1995 64.4171 10.9306 64.2266 10.7586 64.0158L11.4647 61.5751L14.6304 61.6967C14.6143 61.8041 14.5965 61.9536 14.5772 62.1449C14.5583 62.3244 14.5467 62.468 14.5426 62.5759C14.5371 62.7198 14.5493 62.8704 14.5793 63.0277C14.6093 63.1849 14.6577 63.3309 14.7246 63.4656C14.8035 63.6007 14.9133 63.713 15.0539 63.8025C15.1946 63.8919 15.3729 63.9408 15.5887 63.9491C15.8285 63.9583 16.0404 63.9124 16.2245 63.8114C16.4205 63.7108 16.5814 63.5849 16.7073 63.4336C16.8456 63.2708 16.9485 63.0946 17.0158 62.9051C17.0956 62.704 17.1391 62.5075 17.1465 62.3156C17.1566 62.0518 17.0992 61.8275 16.9742 61.6425C16.8612 61.4581 16.6991 61.3017 16.4878 61.1735C16.2771 61.0333 16.0294 60.9158 15.7448 60.8208C15.4727 60.7142 15.1886 60.6073 14.8925 60.4998C14.6079 60.4048 14.3061 60.2912 13.9869 60.1588C13.6797 60.027 13.3984 59.848 13.1429 59.6221C12.8874 59.3961 12.6759 59.1178 12.5084 58.7871C12.3535 58.4449 12.2859 58.016 12.3057 57.5004C12.3351 56.733 12.5516 56.0988 12.9551 55.5979C13.3711 55.0855 13.8791 54.6787 14.479 54.3775C15.091 54.0767 15.7533 53.874 16.4658 53.7692C17.1788 53.6525 17.8531 53.6063 18.4886 53.6307C19.328 53.6629 20.0436 53.7925 20.6353 54.0194C21.2395 54.2347 21.6924 54.4802 21.9941 54.756L21.2326 57.2306L18.2468 57.116ZM30.1425 54.0781C31.1738 54.1177 32.0021 54.2816 32.6275 54.5698C33.2649 54.8584 33.7589 55.2857 34.1094 55.8516C34.335 56.2325 34.5047 56.6593 34.6187 57.132C34.7326 57.6048 34.7778 58.1469 34.7544 58.7584C34.7341 59.2861 34.6659 59.8118 34.5497 60.3358C34.4335 60.8597 34.2761 61.364 34.0773 61.8488C33.891 62.322 33.6637 62.7696 33.3953 63.1916C33.1394 63.6021 32.8553 63.9634 32.5431 64.2757C31.956 64.8656 31.286 65.2722 30.5328 65.4955C29.7922 65.7072 28.8822 65.7924 27.803 65.7509C26.7598 65.7109 25.9246 65.5708 25.2973 65.3305C24.6701 65.0903 24.1798 64.7232 23.8265 64.2293C23.5756 63.8834 23.382 63.4497 23.246 62.9281C23.1219 62.4069 23.0748 61.7566 23.1047 60.9772C23.1558 59.6462 23.4352 58.468 23.9429 57.4428C24.463 56.4059 25.1725 55.5986 26.0714 55.0206C26.6132 54.6691 27.2114 54.4159 27.8658 54.2609C28.5203 54.1059 29.2791 54.045 30.1425 54.0781ZM27.7075 64.4863C27.9833 64.4969 28.2457 64.3869 28.4947 64.1563C28.7562 63.9142 28.9967 63.5931 29.2162 63.1933C29.4481 62.7819 29.6582 62.3156 29.8463 61.7944C30.0464 61.2737 30.2173 60.7339 30.3588 60.1749C30.5003 59.6159 30.6117 59.0618 30.6928 58.5125C30.7864 57.9516 30.8419 57.4434 30.8594 56.9877C30.8834 56.3642 30.8338 55.936 30.7106 55.7031C30.5999 55.4587 30.4246 55.3318 30.1848 55.3226C29.909 55.312 29.6406 55.4218 29.3796 55.652C29.1186 55.8821 28.8663 56.1967 28.6228 56.5957C28.3918 56.9831 28.1762 57.4371 27.9761 57.9578C27.7884 58.467 27.618 58.9949 27.465 59.5414C27.3239 60.0884 27.207 60.6303 27.1144 61.1672C27.0337 61.7045 26.9846 62.2009 26.9671 62.6566C26.9409 63.3401 26.9946 63.8165 27.1284 64.0858C27.2746 64.3436 27.4676 64.4771 27.7075 64.4863ZM41.8893 61.8244L40.8062 66.106L36.9031 65.9562L38.0698 61.3716L36.5681 54.5049L40.8849 54.6706L41.9347 59.2322L44.8061 54.8211L46.7486 54.8957L41.8893 61.8244Z"/>
</mask>
<path d="M18.2468 57.116C18.2897 56.9375 18.3171 56.6924 18.329 56.3806C18.3359 56.2008 18.3306 56.0264 18.3131 55.8576C18.296 55.6768 18.26 55.5193 18.2051 55.3851C18.1507 55.2389 18.0649 55.1276 17.9478 55.051C17.8311 54.9625 17.6768 54.9145 17.4849 54.9072C17.2691 54.8989 17.0694 54.9392 16.8859 55.0283C16.7023 55.1173 16.5356 55.237 16.3857 55.3873C16.2483 55.5262 16.1337 55.6959 16.0419 55.8965C15.9626 56.0856 15.9188 56.2881 15.9105 56.5039C15.8986 56.8157 15.9673 57.0585 16.1167 57.2324C16.2782 57.4067 16.4887 57.5529 16.7484 57.6709C17.008 57.789 17.3044 57.8904 17.6374 57.9753C17.9704 58.0601 18.3149 58.1574 18.6709 58.2671C18.9675 58.3626 19.2631 58.482 19.5578 58.6254C19.8526 58.7688 20.1095 58.9588 20.3285 59.1954C20.5601 59.4204 20.7409 59.7156 20.871 60.0809C21.0015 60.4341 21.0567 60.8746 21.0364 61.4022C21.0074 62.1576 20.8331 62.7874 20.5136 63.2915C20.194 63.7956 19.7642 64.1994 19.2241 64.5029C18.6841 64.8064 18.0456 65.0161 17.3086 65.1319C16.5836 65.2482 15.7954 65.29 14.944 65.2573C14.0807 65.2242 13.3753 65.1431 12.8278 65.014C12.2928 64.8733 11.872 64.7311 11.5653 64.5872C11.1995 64.4171 10.9306 64.2266 10.7586 64.0158L11.4647 61.5751L14.6304 61.6967C14.6143 61.8041 14.5965 61.9536 14.5772 62.1449C14.5583 62.3244 14.5467 62.468 14.5426 62.5759C14.5371 62.7198 14.5493 62.8704 14.5793 63.0277C14.6093 63.1849 14.6577 63.3309 14.7246 63.4656C14.8035 63.6007 14.9133 63.713 15.0539 63.8025C15.1946 63.8919 15.3729 63.9408 15.5887 63.9491C15.8285 63.9583 16.0404 63.9124 16.2245 63.8114C16.4205 63.7108 16.5814 63.5849 16.7073 63.4336C16.8456 63.2708 16.9485 63.0946 17.0158 62.9051C17.0956 62.704 17.1391 62.5075 17.1465 62.3156C17.1566 62.0518 17.0992 61.8275 16.9742 61.6425C16.8612 61.4581 16.6991 61.3017 16.4878 61.1735C16.2771 61.0333 16.0294 60.9158 15.7448 60.8208C15.4727 60.7142 15.1886 60.6073 14.8925 60.4998C14.6079 60.4048 14.3061 60.2912 13.9869 60.1588C13.6797 60.027 13.3984 59.848 13.1429 59.6221C12.8874 59.3961 12.6759 59.1178 12.5084 58.7871C12.3535 58.4449 12.2859 58.016 12.3057 57.5004C12.3351 56.733 12.5516 56.0988 12.9551 55.5979C13.3711 55.0855 13.8791 54.6787 14.479 54.3775C15.091 54.0767 15.7533 53.874 16.4658 53.7692C17.1788 53.6525 17.8531 53.6063 18.4886 53.6307C19.328 53.6629 20.0436 53.7925 20.6353 54.0194C21.2395 54.2347 21.6924 54.4802 21.9941 54.756L21.2326 57.2306L18.2468 57.116ZM30.1425 54.0781C31.1738 54.1177 32.0021 54.2816 32.6275 54.5698C33.2649 54.8584 33.7589 55.2857 34.1094 55.8516C34.335 56.2325 34.5047 56.6593 34.6187 57.132C34.7326 57.6048 34.7778 58.1469 34.7544 58.7584C34.7341 59.2861 34.6659 59.8118 34.5497 60.3358C34.4335 60.8597 34.2761 61.364 34.0773 61.8488C33.891 62.322 33.6637 62.7696 33.3953 63.1916C33.1394 63.6021 32.8553 63.9634 32.5431 64.2757C31.956 64.8656 31.286 65.2722 30.5328 65.4955C29.7922 65.7072 28.8822 65.7924 27.803 65.7509C26.7598 65.7109 25.9246 65.5708 25.2973 65.3305C24.6701 65.0903 24.1798 64.7232 23.8265 64.2293C23.5756 63.8834 23.382 63.4497 23.246 62.9281C23.1219 62.4069 23.0748 61.7566 23.1047 60.9772C23.1558 59.6462 23.4352 58.468 23.9429 57.4428C24.463 56.4059 25.1725 55.5986 26.0714 55.0206C26.6132 54.6691 27.2114 54.4159 27.8658 54.2609C28.5203 54.1059 29.2791 54.045 30.1425 54.0781ZM27.7075 64.4863C27.9833 64.4969 28.2457 64.3869 28.4947 64.1563C28.7562 63.9142 28.9967 63.5931 29.2162 63.1933C29.4481 62.7819 29.6582 62.3156 29.8463 61.7944C30.0464 61.2737 30.2173 60.7339 30.3588 60.1749C30.5003 59.6159 30.6117 59.0618 30.6928 58.5125C30.7864 57.9516 30.8419 57.4434 30.8594 56.9877C30.8834 56.3642 30.8338 55.936 30.7106 55.7031C30.5999 55.4587 30.4246 55.3318 30.1848 55.3226C29.909 55.312 29.6406 55.4218 29.3796 55.652C29.1186 55.8821 28.8663 56.1967 28.6228 56.5957C28.3918 56.9831 28.1762 57.4371 27.9761 57.9578C27.7884 58.467 27.618 58.9949 27.465 59.5414C27.3239 60.0884 27.207 60.6303 27.1144 61.1672C27.0337 61.7045 26.9846 62.2009 26.9671 62.6566C26.9409 63.3401 26.9946 63.8165 27.1284 64.0858C27.2746 64.3436 27.4676 64.4771 27.7075 64.4863ZM41.8893 61.8244L40.8062 66.106L36.9031 65.9562L38.0698 61.3716L36.5681 54.5049L40.8849 54.6706L41.9347 59.2322L44.8061 54.8211L46.7486 54.8957L41.8893 61.8244Z" fill="#FF9451"/>
<path d="M18.2468 57.116L16.3021 56.6488C16.1621 57.2314 16.2908 57.8461 16.6526 58.3237C17.0144 58.8013 17.5713 59.0916 18.1701 59.1145L18.2468 57.116ZM18.3131 55.8576L16.322 56.0457C16.3225 56.0519 16.3232 56.0581 16.3238 56.0643L18.3131 55.8576ZM18.2051 55.3851L16.3308 56.083C16.3382 56.1029 16.346 56.1226 16.354 56.1423L18.2051 55.3851ZM17.9478 55.051L16.7388 56.6443C16.7762 56.6726 16.8145 56.6996 16.8537 56.7253L17.9478 55.051ZM16.8859 55.0283L17.7586 56.8278L17.7586 56.8278L16.8859 55.0283ZM16.3857 55.3873L14.9692 53.9754L14.9643 53.9803L16.3857 55.3873ZM16.0419 55.8965L14.2231 55.0647C14.2143 55.084 14.2058 55.1034 14.1976 55.123L16.0419 55.8965ZM16.1167 57.2324L14.6 58.5361C14.6161 58.5548 14.6325 58.5732 14.6493 58.5913L16.1167 57.2324ZM16.7484 57.6709L15.9207 59.4916L15.9207 59.4916L16.7484 57.6709ZM17.6374 57.9753L17.1436 59.9134L17.1436 59.9134L17.6374 57.9753ZM18.6709 58.2671L19.2837 56.3633C19.2758 56.3608 19.2679 56.3583 19.26 56.3559L18.6709 58.2671ZM19.5578 58.6254L18.6827 60.4238L18.6827 60.4238L19.5578 58.6254ZM20.3285 59.1954L18.8611 60.5543C18.8849 60.58 18.9094 60.6051 18.9346 60.6296L20.3285 59.1954ZM20.871 60.0809L18.9869 60.7519C18.9895 60.7593 18.9922 60.7667 18.995 60.7741L20.871 60.0809ZM20.5136 63.2915L22.2027 64.3623L22.2027 64.3623L20.5136 63.2915ZM19.2241 64.5029L18.2443 62.7594L19.2241 64.5029ZM17.3086 65.1319L16.9981 63.1562L16.9919 63.1572L17.3086 65.1319ZM12.8278 65.014L12.3194 66.9482C12.3358 66.9526 12.3523 66.9567 12.3688 66.9606L12.8278 65.014ZM11.5653 64.5872L12.4146 62.7765L12.4089 62.7738L11.5653 64.5872ZM10.7586 64.0158L8.83738 63.46C8.65479 64.0911 8.79379 64.7716 9.20925 65.2806L10.7586 64.0158ZM11.4647 61.5751L11.5414 59.5766C10.6231 59.5414 9.79894 60.1365 9.54352 61.0193L11.4647 61.5751ZM14.6304 61.6967L16.6082 61.9936C16.6927 61.431 16.5336 60.8591 16.1707 60.421C15.8079 59.9828 15.2756 59.72 14.7071 59.6981L14.6304 61.6967ZM14.5772 62.1449L16.5662 62.3544L16.567 62.3462L14.5772 62.1449ZM14.5793 63.0277L12.6147 63.4023L12.6147 63.4023L14.5793 63.0277ZM14.7246 63.4656L12.9334 64.3552C12.9534 64.3955 12.9747 64.435 12.9973 64.4738L14.7246 63.4656ZM15.0539 63.8025L13.9807 65.4901L15.0539 63.8025ZM16.2245 63.8114L15.3115 62.0319C15.2949 62.0404 15.2784 62.0492 15.262 62.0582L16.2245 63.8114ZM16.7073 63.4336L15.1832 62.1386C15.1788 62.1438 15.1744 62.149 15.17 62.1543L16.7073 63.4336ZM17.0158 62.9051L15.1567 62.1676C15.1478 62.1901 15.1393 62.2128 15.1311 62.2357L17.0158 62.9051ZM16.9742 61.6425L15.2688 62.6873C15.2844 62.7127 15.3005 62.7378 15.3172 62.7625L16.9742 61.6425ZM16.4878 61.1735L15.3802 62.8388C15.4032 62.8541 15.4266 62.869 15.4502 62.8833L16.4878 61.1735ZM15.7448 60.8208L15.0158 62.6832C15.0474 62.6955 15.0794 62.7071 15.1116 62.7179L15.7448 60.8208ZM14.8925 60.4998L15.5747 58.6198C15.5584 58.6139 15.5421 58.6082 15.5257 58.6027L14.8925 60.4998ZM13.9869 60.1588L13.1979 61.9966C13.2055 61.9999 13.2132 62.0031 13.2209 62.0063L13.9869 60.1588ZM13.1429 59.6221L14.4678 58.1239L14.4678 58.1239L13.1429 59.6221ZM12.5084 58.7871L10.6866 59.6123C10.6985 59.6387 10.7111 59.6648 10.7242 59.6906L12.5084 58.7871ZM12.9551 55.5979L11.4023 54.3374L11.3976 54.3432L12.9551 55.5979ZM14.479 54.3775L13.597 52.5825C13.5919 52.585 13.5868 52.5875 13.5817 52.5901L14.479 54.3775ZM16.4658 53.7692L16.7567 55.748C16.7675 55.7464 16.7782 55.7447 16.789 55.743L16.4658 53.7692ZM20.6353 54.0194L19.9193 55.8868C19.9341 55.8925 19.949 55.898 19.9639 55.9033L20.6353 54.0194ZM21.9941 54.756L23.9056 55.3442C24.133 54.6053 23.9141 53.8016 23.3436 53.2799L21.9941 54.756ZM21.2326 57.2306L21.1559 59.2292C22.0616 59.2639 22.8775 58.6852 23.1441 57.8189L21.2326 57.2306ZM20.1914 57.5832C20.2791 57.2185 20.3135 56.8231 20.3276 56.4573L16.3305 56.3039C16.3259 56.4232 16.319 56.5124 16.3119 56.5759C16.3045 56.6421 16.2989 56.6622 16.3021 56.6488L20.1914 57.5832ZM20.3276 56.4573C20.3379 56.1886 20.3303 55.9194 20.3024 55.6509L16.3238 56.0643C16.331 56.1335 16.334 56.2129 16.3305 56.3039L20.3276 56.4573ZM20.3042 55.6695C20.2731 55.3403 20.2015 54.9831 20.0563 54.628L16.354 56.1423C16.3358 56.0977 16.3271 56.0652 16.3235 56.0494C16.32 56.0337 16.3206 56.0315 16.322 56.0457L20.3042 55.6695ZM20.0794 54.6873C19.8939 54.1888 19.5575 53.7137 19.0418 53.3768L16.8537 56.7253C16.5724 56.5414 16.4076 56.289 16.3308 56.083L20.0794 54.6873ZM19.1567 53.4578C18.6251 53.0544 18.0373 52.9269 17.5617 52.9086L17.4082 56.9057C17.3163 56.9022 17.037 56.8706 16.7388 56.6443L19.1567 53.4578ZM17.5617 52.9086C17.0377 52.8885 16.5094 52.988 16.0131 53.2288L17.7586 56.8278C17.6294 56.8905 17.5005 56.9092 17.4082 56.9057L17.5617 52.9086ZM16.0131 53.2288C15.6197 53.4195 15.2708 53.6728 14.9692 53.9754L17.8022 56.7993C17.8024 56.7991 17.7983 56.8032 17.7896 56.8095C17.7808 56.8158 17.7702 56.8222 17.7586 56.8278L16.0131 53.2288ZM14.9643 53.9803C14.6418 54.3062 14.4001 54.6778 14.2231 55.0647L17.8607 56.7284C17.8673 56.714 17.8548 56.7462 17.8071 56.7944L14.9643 53.9803ZM14.1976 55.123C14.0206 55.5449 13.929 55.9847 13.912 56.4272L17.9091 56.5807C17.9089 56.5842 17.9081 56.5957 17.9044 56.6131C17.9006 56.6307 17.8946 56.6502 17.8863 56.6701L14.1976 55.123ZM13.912 56.4272C13.8878 57.0588 14.0182 57.8591 14.6 58.5361L17.6335 55.9287C17.9164 56.2579 17.9094 56.5726 17.9091 56.5807L13.912 56.4272ZM14.6493 58.5913C15.0235 58.9954 15.4667 59.2852 15.9207 59.4916L17.5761 55.8503C17.5436 55.8355 17.5326 55.8273 17.5364 55.8299C17.5407 55.8329 17.5592 55.8465 17.5842 55.8735L14.6493 58.5913ZM15.9207 59.4916C16.3071 59.6673 16.7184 59.805 17.1436 59.9134L18.1311 56.0372C17.8903 55.9758 17.709 55.9107 17.5761 55.8503L15.9207 59.4916ZM17.1436 59.9134C17.4421 59.9894 17.7547 60.0776 18.0819 60.1784L19.26 56.3559C18.875 56.2372 18.4986 56.1308 18.1311 56.0372L17.1436 59.9134ZM18.0582 60.171C18.2604 60.236 18.4685 60.3196 18.6827 60.4238L20.4329 56.827C20.0577 56.6445 19.6746 56.4891 19.2837 56.3633L18.0582 60.171ZM18.6827 60.4238C18.7582 60.4605 18.8133 60.5027 18.8611 60.5543L21.796 57.8365C21.4056 57.4149 20.9469 57.0771 20.4329 56.827L18.6827 60.4238ZM18.9346 60.6296C18.9067 60.6024 18.9392 60.6179 18.9869 60.7519L22.7551 59.4099C22.5426 58.8133 22.2135 58.2385 21.7225 57.7612L18.9346 60.6296ZM18.995 60.7741C19.0059 60.8036 19.0518 60.9622 19.0379 61.3255L23.0349 61.4789C23.0615 60.7869 22.9972 60.0647 22.747 59.3876L18.995 60.7741ZM19.0379 61.3255C19.0189 61.8206 18.9108 62.0844 18.8244 62.2207L22.2027 64.3623C22.7555 63.4904 22.9959 62.4946 23.0349 61.4789L19.0379 61.3255ZM18.8244 62.2207C18.6888 62.4346 18.5072 62.6117 18.2443 62.7594L20.204 66.2465C21.0211 65.7872 21.6992 65.1567 22.2027 64.3623L18.8244 62.2207ZM18.2443 62.7594C17.9493 62.9252 17.5466 63.07 16.9981 63.1562L17.6191 67.1077C18.5445 66.9622 19.4189 66.6877 20.204 66.2465L18.2443 62.7594ZM16.9919 63.1572C16.4157 63.2496 15.7609 63.2872 15.0208 63.2588L14.8673 67.2558C15.8299 67.2928 16.7515 67.2468 17.6253 67.1067L16.9919 63.1572ZM15.0208 63.2588C14.2256 63.2283 13.6611 63.1556 13.2869 63.0673L12.3688 66.9606C13.0895 67.1305 13.9358 67.2201 14.8673 67.2558L15.0208 63.2588ZM13.3363 63.0797C12.8549 62.9531 12.565 62.8471 12.4146 62.7765L10.7159 66.3979C11.1789 66.6151 11.7307 66.7935 12.3194 66.9482L13.3363 63.0797ZM12.4089 62.7738C12.3121 62.7288 12.2623 62.6967 12.2453 62.6847C12.2281 62.6725 12.259 62.6911 12.3079 62.7511L9.20925 65.2806C9.64168 65.8103 10.2035 66.1595 10.7216 66.4006L12.4089 62.7738ZM12.6798 64.5717L13.3859 62.131L9.54352 61.0193L8.83738 63.46L12.6798 64.5717ZM11.388 63.5737L14.5537 63.6952L14.7071 59.6981L11.5414 59.5766L11.388 63.5737ZM12.6526 61.3997C12.6294 61.5542 12.6079 61.7406 12.5873 61.9437L16.567 62.3462C16.5852 62.1665 16.5992 62.054 16.6082 61.9936L12.6526 61.3997ZM12.5882 61.9355C12.5672 62.134 12.5507 62.3275 12.5441 62.4992L16.5411 62.6527C16.5428 62.6086 16.5493 62.5147 16.5662 62.3544L12.5882 61.9355ZM12.5441 62.4992C12.5321 62.8101 12.5595 63.1127 12.6147 63.4023L16.5439 62.653C16.5392 62.6281 16.542 62.6296 16.5411 62.6527L12.5441 62.4992ZM12.6147 63.4023C12.6766 63.7268 12.7805 64.0474 12.9334 64.3552L16.5158 62.5759C16.535 62.6145 16.542 62.6431 16.5439 62.653L12.6147 63.4023ZM12.9973 64.4738C13.2474 64.9022 13.589 65.241 13.9807 65.4901L16.1272 62.1148C16.2375 62.185 16.3596 62.2992 16.4519 62.4573L12.9973 64.4738ZM13.9807 65.4901C14.496 65.8178 15.0445 65.9297 15.512 65.9476L15.6654 61.9506C15.7012 61.9519 15.8932 61.966 16.1272 62.1148L13.9807 65.4901ZM15.512 65.9476C16.0611 65.9687 16.6417 65.8638 17.1869 65.5646L15.262 62.0582C15.4392 61.9609 15.5959 61.9479 15.6654 61.9506L15.512 65.9476ZM17.1374 65.5908C17.5445 65.382 17.927 65.0946 18.2446 64.7129L15.17 62.1543C15.2359 62.0751 15.2964 62.0396 15.3115 62.0319L17.1374 65.5908ZM18.2314 64.7287C18.517 64.3925 18.747 64.0066 18.9005 63.5744L15.1311 62.2357C15.1398 62.2112 15.1503 62.1893 15.1609 62.1712C15.1714 62.1532 15.1799 62.1424 15.1832 62.1386L18.2314 64.7287ZM18.8749 63.6425C19.0278 63.2571 19.1279 62.8376 19.145 62.3924L15.148 62.2389C15.1503 62.1774 15.1634 62.1508 15.1567 62.1676L18.8749 63.6425ZM19.145 62.3924C19.1684 61.7835 19.0356 61.1209 18.6312 60.5225L15.3172 62.7625C15.2462 62.6575 15.1996 62.5474 15.1735 62.4455C15.1482 62.3467 15.1467 62.2734 15.148 62.2389L19.145 62.3924ZM18.6796 60.5978C18.3779 60.1052 17.9701 59.7336 17.5255 59.4638L15.4502 62.8833C15.428 62.8698 15.3445 62.8109 15.2688 62.6873L18.6796 60.5978ZM17.5954 59.5082C17.2133 59.2541 16.8003 59.0646 16.3781 58.9237L15.1116 62.7179C15.2585 62.7669 15.3408 62.8126 15.3802 62.8388L17.5954 59.5082ZM16.4738 58.9584C16.185 58.8453 15.8853 58.7325 15.5747 58.6198L14.2103 62.3799C14.4919 62.4821 14.7604 62.5832 15.0158 62.6832L16.4738 58.9584ZM15.5257 58.6027C15.2921 58.5248 15.0348 58.4283 14.753 58.3114L13.2209 62.0063C13.5773 62.1541 13.9237 62.2849 14.2593 62.3969L15.5257 58.6027ZM14.776 58.3211C14.6683 58.2749 14.5672 58.2118 14.4678 58.1239L11.818 61.1203C12.2296 61.4843 12.6911 61.7791 13.1979 61.9966L14.776 58.3211ZM14.4678 58.1239C14.4174 58.0793 14.3559 58.0084 14.2927 57.8836L10.7242 59.6906C10.9958 60.2271 11.3573 60.7129 11.818 61.1203L14.4678 58.1239ZM14.3303 57.962C14.3421 57.988 14.2921 57.8921 14.3042 57.5771L10.3071 57.4237C10.2796 58.1399 10.3648 58.9019 10.6866 59.6123L14.3303 57.962ZM14.3042 57.5771C14.3204 57.1537 14.4283 56.9573 14.5126 56.8526L11.3976 54.3432C10.6749 55.2403 10.3498 56.3122 10.3071 57.4237L14.3042 57.5771ZM14.5079 56.8584C14.742 56.57 15.0252 56.3411 15.3764 56.1649L13.5817 52.5901C12.7329 53.0162 12.0001 53.601 11.4023 54.3374L14.5079 56.8584ZM15.3611 56.1724C15.7766 55.9683 16.238 55.8242 16.7567 55.748L16.175 51.7905C15.2686 51.9237 14.4055 52.1852 13.597 52.5825L15.3611 56.1724ZM16.789 55.743C17.3874 55.645 17.9268 55.6106 18.4119 55.6293L18.5654 51.6322C17.7794 51.602 16.9703 51.66 16.1427 51.7955L16.789 55.743ZM18.4119 55.6293C19.0993 55.6556 19.5864 55.7592 19.9193 55.8868L21.3513 52.1519C20.5008 51.8258 19.5567 51.6703 18.5654 51.6322L18.4119 55.6293ZM19.9639 55.9033C20.4443 56.0745 20.6193 56.209 20.6446 56.2321L23.3436 53.2799C22.7655 52.7515 22.0347 52.3949 21.3068 52.1354L19.9639 55.9033ZM20.0825 54.1678L19.321 56.6424L23.1441 57.8189L23.9056 55.3442L20.0825 54.1678ZM21.3093 55.2321L18.3235 55.1175L18.1701 59.1145L21.1559 59.2292L21.3093 55.2321ZM32.6275 54.5698L31.7904 56.3862L31.8024 56.3917L32.6275 54.5698ZM34.1094 55.8516L35.8304 54.8326C35.8235 54.8211 35.8166 54.8097 35.8096 54.7983L34.1094 55.8516ZM34.6187 57.132L32.6744 57.6007L32.6744 57.6007L34.6187 57.132ZM34.0773 61.8488L32.2268 61.09C32.2233 61.0987 32.2198 61.1074 32.2163 61.1161L34.0773 61.8488ZM33.3953 63.1916L31.7077 62.1183C31.7045 62.1233 31.7013 62.1284 31.6982 62.1334L33.3953 63.1916ZM32.5431 64.2757L31.1288 62.8616L31.1255 62.8649L32.5431 64.2757ZM30.5328 65.4955L31.0826 67.4184C31.0888 67.4166 31.0951 67.4148 31.1013 67.413L30.5328 65.4955ZM25.2973 65.3305L26.0126 63.4628L25.2973 65.3305ZM23.8265 64.2293L25.4532 63.0657L25.4453 63.0549L23.8265 64.2293ZM23.246 62.9281L21.3004 63.3914C21.3037 63.4053 21.3071 63.4191 21.3107 63.433L23.246 62.9281ZM23.9429 57.4428L22.1552 56.5459L22.1506 56.5552L23.9429 57.4428ZM26.0714 55.0206L27.1531 56.7029L27.1597 56.6986L26.0714 55.0206ZM27.8658 54.2609L27.4049 52.3147L27.4049 52.3147L27.8658 54.2609ZM28.4947 64.1563L29.8536 65.6237L28.4947 64.1563ZM29.2162 63.1933L27.474 62.211C27.4703 62.2176 27.4666 62.2242 27.4629 62.2309L29.2162 63.1933ZM29.8463 61.7944L27.9794 61.0769C27.9745 61.0897 27.9698 61.1025 27.9651 61.1153L29.8463 61.7944ZM30.6928 58.5125L28.7201 58.1833C28.718 58.1956 28.7161 58.2079 28.7143 58.2202L30.6928 58.5125ZM30.7106 55.7031L28.8887 56.5282C28.9056 56.5654 28.9235 56.602 28.9426 56.638L30.7106 55.7031ZM29.3796 55.652L28.0568 54.1519L28.0568 54.1519L29.3796 55.652ZM28.6228 56.5957L26.9156 55.5538C26.9121 55.5596 26.9086 55.5654 26.9051 55.5713L28.6228 56.5957ZM27.9761 57.9578L26.1092 57.2404C26.1059 57.2489 26.1027 57.2575 26.0995 57.2662L27.9761 57.9578ZM27.465 59.5414L25.5391 59.002C25.5354 59.0152 25.5318 59.0286 25.5284 59.0419L27.465 59.5414ZM27.1144 61.1672L25.1435 60.827C25.141 60.8414 25.1387 60.8558 25.1365 60.8702L27.1144 61.1672ZM27.1284 64.0858L25.3372 64.9755C25.3535 65.0083 25.3707 65.0407 25.3887 65.0725L27.1284 64.0858ZM30.0658 56.0766C30.9528 56.1107 31.4924 56.2488 31.7904 56.3862L33.4645 52.7534C32.5118 52.3143 31.3947 52.1247 30.2192 52.0796L30.0658 56.0766ZM31.8024 56.3917C32.0978 56.5254 32.2787 56.6941 32.4092 56.9048L35.8096 54.7983C35.239 53.8773 34.4319 53.1914 33.4526 52.7479L31.8024 56.3917ZM32.3885 56.8706C32.5031 57.0642 32.6025 57.3026 32.6744 57.6007L36.563 56.6634C36.4069 56.016 36.1668 55.4008 35.8304 54.8326L32.3885 56.8706ZM32.6744 57.6007C32.7359 57.8559 32.774 58.2086 32.7558 58.6817L36.7529 58.8352C36.7817 58.0852 36.7294 57.3536 36.563 56.6634L32.6744 57.6007ZM32.7558 58.6817C32.7403 59.0875 32.6878 59.4941 32.5971 59.9028L36.5023 60.7687C36.644 60.1296 36.728 59.4846 36.7529 58.8352L32.7558 58.6817ZM32.5971 59.9028C32.505 60.3181 32.3813 60.7133 32.2268 61.09L35.9278 62.6075C36.1709 62.0147 36.362 61.4013 36.5023 60.7687L32.5971 59.9028ZM32.2163 61.1161C32.076 61.4725 31.9064 61.8059 31.7077 62.1183L35.0829 64.2648C35.421 63.7333 35.706 63.1714 35.9383 62.5814L32.2163 61.1161ZM31.6982 62.1334C31.5151 62.427 31.3238 62.6665 31.1288 62.8616L33.9574 65.6898C34.3868 65.2604 34.7637 64.7771 35.0925 64.2497L31.6982 62.1334ZM31.1255 62.8649C30.7601 63.2321 30.3773 63.4555 29.9644 63.578L31.1013 67.413C32.1946 67.0889 33.152 66.4991 33.9607 65.6865L31.1255 62.8649ZM29.9831 63.5725C29.5095 63.7079 28.8256 63.7887 27.8797 63.7524L27.7263 67.7495C28.9389 67.796 30.0748 67.7065 31.0826 67.4184L29.9831 63.5725ZM27.8797 63.7524C26.9479 63.7166 26.355 63.5939 26.0126 63.4628L24.582 67.1982C25.4941 67.5476 26.5717 67.7051 27.7263 67.7495L27.8797 63.7524ZM26.0126 63.4628C25.7113 63.3474 25.5544 63.2072 25.4531 63.0657L22.1998 65.3929C22.8052 66.2392 23.6288 66.8332 24.582 67.1982L26.0126 63.4628ZM25.4453 63.0549C25.3733 62.9556 25.2702 62.7643 25.1812 62.4231L21.3107 63.433C21.4939 64.135 21.7778 64.8112 22.2076 65.4037L25.4453 63.0549ZM25.1916 62.4648C25.1239 62.1807 25.0774 61.7265 25.1032 61.0539L21.1062 60.9005C21.0721 61.7868 21.1198 62.6331 21.3004 63.3914L25.1916 62.4648ZM25.1032 61.0539C25.1453 59.9588 25.3715 59.0647 25.7352 58.3303L22.1506 56.5552C21.4989 57.8714 21.1663 59.3336 21.1062 60.9005L25.1032 61.0539ZM25.7305 58.3396C26.1042 57.5948 26.5812 57.0706 27.153 56.7029L24.9897 53.3384C23.7638 54.1266 22.8219 55.2171 22.1552 56.5459L25.7305 58.3396ZM27.1597 56.6986C27.5015 56.4769 27.886 56.3115 28.3268 56.207L27.4049 52.3147C26.5368 52.5204 25.725 52.8614 24.983 53.3427L27.1597 56.6986ZM28.3268 56.207C28.7635 56.1036 29.3347 56.0486 30.0658 56.0766L30.2192 52.0796C29.2236 52.0413 28.277 52.1082 27.4049 52.3147L28.3268 56.207ZM27.6307 66.4849C28.5532 66.5203 29.3104 66.1268 29.8536 65.6237L27.1358 62.6889C27.1507 62.6751 27.2162 62.6183 27.3378 62.5673C27.4668 62.5132 27.6218 62.4816 27.7842 62.4878L27.6307 66.4849ZM29.8536 65.6237C30.3099 65.2012 30.674 64.6939 30.9694 64.1557L27.4629 62.2309C27.3194 62.4924 27.2025 62.6271 27.1358 62.6889L29.8536 65.6237ZM30.9584 64.1755C31.2534 63.6522 31.5078 63.0819 31.7275 62.4735L27.9651 61.1153C27.8085 61.5492 27.6428 61.9116 27.474 62.211L30.9584 64.1755ZM31.7132 62.5119C31.9427 61.9147 32.1372 61.2991 32.2976 60.6658L28.42 59.6839C28.2973 60.1686 28.1502 60.6327 27.9794 61.0769L31.7132 62.5119ZM32.2976 60.6658C32.4551 60.0438 32.58 59.4234 32.6714 58.8047L28.7143 58.2202C28.6434 58.7002 28.5456 59.188 28.42 59.6839L32.2976 60.6658ZM32.6655 58.8416C32.7698 58.2167 32.8365 57.6224 32.858 57.0645L28.8609 56.911C28.8473 57.2644 28.803 57.6866 28.7201 58.1833L32.6655 58.8416ZM32.858 57.0645C32.8723 56.6913 32.8674 56.3187 32.8269 55.9688C32.7894 55.6449 32.7067 55.1994 32.4786 54.7681L28.9426 56.638C28.8838 56.5268 28.8607 56.445 28.8542 56.42C28.8469 56.3924 28.8492 56.3921 28.8535 56.4291C28.8625 56.5074 28.8705 56.6606 28.8609 56.911L32.858 57.0645ZM32.5324 54.8779C32.3677 54.5141 32.0984 54.1154 31.6685 53.8043C31.2265 53.4845 30.7311 53.3421 30.2615 53.3241L30.1081 57.3212C29.8783 57.3123 29.5905 57.238 29.3237 57.045C29.0691 56.8608 28.9428 56.6477 28.8887 56.5282L32.5324 54.8779ZM30.2615 53.3241C29.3479 53.289 28.598 53.6747 28.0568 54.1519L30.7023 57.1521C30.6978 57.1561 30.6431 57.2035 30.5338 57.2482C30.4174 57.2958 30.2699 57.3274 30.1081 57.3212L30.2615 53.3241ZM28.0568 54.1519C27.6039 54.5512 27.2302 55.0383 26.9156 55.5538L30.33 57.6375C30.5024 57.355 30.6332 57.2131 30.7023 57.1521L28.0568 54.1519ZM26.9051 55.5713C26.6039 56.0763 26.3411 56.6371 26.1092 57.2404L29.843 58.6753C30.0114 58.2371 30.1797 57.8899 30.3406 57.62L26.9051 55.5713ZM26.0995 57.2662C25.8926 57.8276 25.7059 58.4064 25.5391 59.002L29.3909 60.0808C29.5302 59.5833 29.6843 59.1064 29.8527 58.6495L26.0995 57.2662ZM25.5284 59.0419C25.3742 59.6396 25.2457 60.2347 25.1435 60.827L29.0852 61.5073C29.1683 61.026 29.2736 60.5372 29.4016 60.0409L25.5284 59.0419ZM25.1365 60.8702C25.0469 61.4671 24.9894 62.0381 24.9686 62.5799L28.9656 62.7333C28.9798 62.3637 29.0205 61.9418 29.0922 61.4641L25.1365 60.8702ZM24.9686 62.5799C24.942 63.2734 24.9571 64.2103 25.3372 64.9755L28.9196 63.1962C28.9646 63.2868 28.9803 63.3479 28.9827 63.3573C28.9856 63.3688 28.9809 63.3532 28.9751 63.3023C28.9632 63.1961 28.9549 63.0132 28.9656 62.7333L24.9686 62.5799ZM25.3887 65.0725C25.784 65.7695 26.5299 66.4426 27.6307 66.4849L27.7842 62.4878C28.0353 62.4975 28.2968 62.5797 28.5205 62.7344C28.7279 62.8779 28.8305 63.033 28.8681 63.0991L25.3887 65.0725ZM41.8893 61.8244L40.2518 60.676C40.1122 60.8752 40.01 61.0981 39.9503 61.3339L41.8893 61.8244ZM40.8062 66.106L40.7295 68.1045C41.6732 68.1408 42.5136 67.512 42.7452 66.5965L40.8062 66.106ZM36.9031 65.9562L34.9649 65.4629C34.8159 66.0482 34.9394 66.6694 35.3008 67.1532C35.6623 67.6369 36.2229 67.9315 36.8264 67.9547L36.9031 65.9562ZM38.0698 61.3716L40.008 61.8648C40.0848 61.5633 40.0901 61.2481 40.0236 60.9443L38.0698 61.3716ZM36.5681 54.5049L36.6448 52.5064C36.0264 52.4826 35.4318 52.7466 35.0345 53.2212C34.6372 53.6958 34.4821 54.3275 34.6143 54.9322L36.5681 54.5049ZM40.8849 54.6706L42.834 54.2221C42.6314 53.3419 41.8642 52.7067 40.9617 52.6721L40.8849 54.6706ZM41.9347 59.2322L39.9857 59.6808C40.1656 60.4628 40.7956 61.0615 41.5857 61.2015C42.3758 61.3416 43.1731 60.9958 43.6109 60.3233L41.9347 59.2322ZM44.8061 54.8211L44.8828 52.8226C44.1795 52.7956 43.5138 53.1402 43.1299 53.7301L44.8061 54.8211ZM46.7486 54.8957L48.3861 56.0441C48.8065 55.4445 48.8657 54.6631 48.5404 54.0071C48.215 53.351 47.5571 52.9253 46.8253 52.8972L46.7486 54.8957ZM39.9503 61.3339L38.8673 65.6155L42.7452 66.5965L43.8282 62.3149L39.9503 61.3339ZM40.8829 64.1075L36.9798 63.9576L36.8264 67.9547L40.7295 68.1045L40.8829 64.1075ZM38.8413 66.4494L40.008 61.8648L36.1316 60.8783L34.9649 65.4629L38.8413 66.4494ZM40.0236 60.9443L38.5219 54.0776L34.6143 54.9322L36.116 61.7988L40.0236 60.9443ZM36.4914 56.5034L40.8082 56.6691L40.9617 52.6721L36.6448 52.5064L36.4914 56.5034ZM38.9359 55.1192L39.9857 59.6808L43.8838 58.7837L42.834 54.2221L38.9359 55.1192ZM43.6109 60.3233L46.4822 55.9122L43.1299 53.7301L40.2586 58.1412L43.6109 60.3233ZM44.7293 56.8197L46.6719 56.8942L46.8253 52.8972L44.8828 52.8226L44.7293 56.8197ZM45.1112 53.7473L40.2518 60.676L43.5267 62.9728L48.3861 56.0441L45.1112 53.7473Z" fill="white" mask="url(#path-14-outside-1_2038_4819)"/>
</svg>
