<svg width="90" height="124" viewBox="0 0 90 124" fill="none" xmlns="http://www.w3.org/2000/svg">
<path d="M32.9267 46.0274V46.3887L32.5836 46.5021C16.8469 51.704 5.49179 66.5208 5.50001 83.9982V83.9985C5.50001 105.816 23.1834 123.5 45 123.5C66.8166 123.5 84.5 105.816 84.5 83.9985C84.5 66.5209 73.1447 51.7039 57.4079 46.4937L57.065 46.3802V46.019V19.73H32.9267V46.0274Z" fill="#FFFEFF" stroke="#5181FF"/>
<path d="M45.483 119.132C64.7881 119.132 80.4902 103.429 80.4902 84.1233C80.4902 68.9948 70.8376 55.6387 56.4753 50.8872L53.0469 49.7554V24.3477H37.894V49.7554L34.4657 50.8872C20.1033 55.6387 10.459 68.9948 10.459 84.1233C10.4757 103.429 26.1778 119.132 45.483 119.132Z" fill="white"/>
<path d="M14.1786 99.1751L14.1787 99.1753C15.0637 101.505 16.3341 103.503 17.7225 104.886C19.0988 106.257 20.6497 107.078 22.087 106.908C22.3358 106.879 22.5879 106.815 22.8142 106.733L22.8142 106.733L22.819 106.731L37.1241 101.278L37.1242 101.278C38.6073 100.712 39.4257 99.0634 39.6537 97.0363C39.884 94.9881 39.5313 92.4424 38.5586 89.8794L38.5586 89.8793C37.6736 87.5495 36.4032 85.552 35.0148 84.169C33.6385 82.798 32.0876 81.9764 30.6503 82.1461C30.4015 82.1755 30.1493 82.2392 29.9231 82.3218L29.9231 82.3217L29.9182 82.3236L15.8053 87.7114L15.7986 87.7062L15.6137 87.7764C14.1625 88.327 13.2995 89.9187 13.0661 92.0554L13.0661 92.0559C12.8376 94.1773 13.2428 96.7066 14.1786 99.1751Z" fill="#E5C3DF" stroke="white" stroke-width="0.7"/>
<path d="M16.6133 88.7572C19.3125 88.8011 26.6437 97.964 23.1181 105.087" stroke="#A888A3" stroke-miterlimit="10" stroke-linecap="round"/>
<path d="M76.3095 65.9566L76.3094 65.9564C75.0943 63.7888 73.5452 62.0064 71.9684 60.8482C70.4052 59.6999 68.7493 59.1205 67.3504 59.5015C67.1084 59.5674 66.8679 59.6677 66.6557 59.7828L66.6557 59.7827L66.6513 59.7852L53.2627 67.2946L53.2627 67.2946C51.8755 68.073 51.3029 69.8217 51.3709 71.857C51.4395 73.913 52.1583 76.373 53.4942 78.7577L53.4942 78.7578C54.7093 80.9254 56.2583 82.7078 57.8352 83.866C59.3984 85.0143 61.0543 85.5937 62.4531 85.2127C62.6952 85.1468 62.9357 85.0465 63.1479 84.9314L63.1479 84.9315L63.1524 84.9289L76.3611 77.5118L76.3684 77.516L76.5404 77.4199C77.898 76.6611 78.5232 74.9622 78.4447 72.818L78.4447 72.8175C78.3635 70.6896 77.5951 68.2535 76.3095 65.9566Z" fill="#E5C3DF" stroke="white" stroke-width="0.7"/>
<path d="M75.4014 76.616C72.7155 76.9739 64.1052 69.0102 66.5688 61.4472" stroke="#A888A3" stroke-miterlimit="10" stroke-linecap="round"/>
<path d="M55.591 81.2492L55.5909 81.2494C54.2816 83.3819 53.4693 85.6157 53.2157 87.5652C52.9642 89.4974 53.2537 91.2316 54.2612 92.2667C54.4356 92.4459 54.6393 92.6066 54.8422 92.7352L54.8422 92.7352L54.8465 92.7379L67.8473 100.716L67.8473 100.716C69.1964 101.544 70.9997 101.178 72.7435 100.113C74.506 99.0372 76.3091 97.1936 77.7501 94.8482L77.7502 94.8481C79.0594 92.7156 79.8717 90.4818 80.1254 88.5323C80.3768 86.6001 80.0873 84.8659 79.0798 83.8308C78.9054 83.6516 78.7017 83.4909 78.4988 83.3623L78.4989 83.3623L78.4944 83.3595L65.6633 75.4941L65.6634 75.4856L65.4942 75.3814C64.1764 74.5698 62.3914 74.8653 60.5576 75.9931L60.5571 75.9933C58.7378 77.116 56.9794 78.9911 55.591 81.2492Z" fill="#C3A0D1" stroke="white" stroke-width="0.7"/>
<path d="M65.3008 76.7893C66.8972 78.9457 64.0808 90.3492 56.3165 91.9371" stroke="#B07EAB" stroke-miterlimit="10" stroke-linecap="round"/>
<path d="M42.1501 71.1848L42.1499 71.1849C39.6627 71.4889 37.4091 72.2438 35.7286 73.2581C34.0634 74.2632 32.8918 75.568 32.7179 76.9997C32.6879 77.2475 32.6907 77.5067 32.718 77.7452L32.7179 77.7452L32.7186 77.7503L34.6736 92.863L34.6736 92.863C34.8769 94.432 36.2973 95.612 38.2242 96.311C40.1722 97.0176 42.7446 97.2789 45.4807 96.9453L45.4808 96.9453C47.9681 96.6413 50.2216 95.8864 51.9021 94.872C53.5674 93.8669 54.739 92.5621 54.9128 91.1305C54.9429 90.8826 54.9401 90.6234 54.9128 90.3849L54.9128 90.3849L54.9121 90.3796L52.9758 75.4711L52.9825 75.466L52.9572 75.2677C52.7611 73.7331 51.4072 72.5236 49.3745 71.7935L49.374 71.7933C47.354 71.0713 44.7852 70.8645 42.1501 71.1848Z" fill="#C3A0D1" stroke="#FFFEFF" stroke-width="0.7"/>
<path d="M51.7432 75.9918C51.0664 78.5694 40.4166 83.4438 34.3036 78.3887" stroke="#B07EAB" stroke-miterlimit="10" stroke-linecap="round"/>
<path d="M18.277 83.7172L18.2768 83.7171C16.149 82.3684 14.4223 80.7135 13.3242 79.0719C12.2363 77.4454 11.7209 75.7605 12.1648 74.3914C12.2417 74.1543 12.3531 73.9213 12.4782 73.7175L12.4782 73.7175L12.4809 73.7132L20.5997 60.9119L20.5997 60.9118C21.4434 59.5819 23.2273 59.1306 25.2672 59.3317C27.3301 59.5352 29.7723 60.4102 32.1134 61.8931L32.1135 61.8932C34.2413 63.2419 35.968 64.8968 37.0661 66.5384C38.154 68.1649 38.6694 69.8497 38.2255 71.2189C38.1486 71.4559 38.0372 71.689 37.9121 71.8927L37.9122 71.8928L37.9093 71.8973L29.8941 84.521L29.898 84.5286L29.7909 84.698C28.9681 85.9999 27.2321 86.5065 25.0832 86.2878L25.0827 86.2878C22.9481 86.0673 20.532 85.1445 18.277 83.7172Z" fill="#C3A0D1" stroke="#FFFEFF" stroke-width="0.7"/>
<path d="M28.9482 83.5214C29.4181 80.9056 21.8205 71.9252 14.1605 73.8525" stroke="#B07EAB" stroke-miterlimit="10" stroke-linecap="round"/>
<path d="M60.9747 88.1221L60.9745 88.1221C58.5183 87.5906 56.1366 87.5607 54.2134 87.9636C52.3081 88.3629 50.7716 89.2069 50.1397 90.5C50.0303 90.7239 49.9485 90.9692 49.8966 91.2032L49.8966 91.2032L49.8955 91.2082L46.8251 106.091L46.8251 106.091C46.5064 107.637 47.4688 109.216 49.0666 110.507C50.6824 111.813 53.035 112.905 55.7368 113.491L55.7369 113.491C58.1931 114.022 60.5747 114.052 62.4979 113.649C64.4032 113.25 65.9398 112.406 66.5716 111.113C66.681 110.889 66.7629 110.644 66.8147 110.41L66.8148 110.41L66.8158 110.405L69.8371 95.7223L69.8452 95.7196L69.8861 95.5229C70.2004 94.0113 69.3105 92.4267 67.6226 91.071L67.6222 91.0707C65.9433 89.7264 63.5763 88.6869 60.9747 88.1221Z" fill="#E5C3DF" stroke="white" stroke-width="0.7"/>
<path d="M68.5 95.7854C67.019 97.9911 55.348 99.0881 51.2093 92.3209" stroke="#A888A3" stroke-miterlimit="10" stroke-linecap="round"/>
<path d="M29.0788 104.451L29.0787 104.451C28.6092 106.897 28.6414 109.267 29.0962 111.181C29.5471 113.078 30.4343 114.602 31.7433 115.227C31.9698 115.335 32.2172 115.416 32.4526 115.468L32.4526 115.468L32.4575 115.469L47.4735 118.511L47.4735 118.511C49.0292 118.826 50.5897 117.869 51.8471 116.274C53.1172 114.664 54.1524 112.321 54.6698 109.631L54.6698 109.631C55.1394 107.185 55.1072 104.815 54.6524 102.901C54.2015 101.004 53.3143 99.4796 52.0053 98.8546C51.7788 98.7465 51.5313 98.6656 51.296 98.6143L51.296 98.6143L51.2909 98.6133L36.4708 95.6186L36.4679 95.6106L36.2756 95.5714C34.755 95.2609 33.1867 96.1452 31.8672 97.8294L31.8669 97.8298C30.56 99.5032 29.5779 101.861 29.0788 104.451Z" fill="#C3A0D1" stroke="white" stroke-width="0.7"/>
<path d="M36.6162 96.9641C38.8886 98.4453 40.3067 110.132 33.564 114.282" stroke="#B07EAB" stroke-miterlimit="10" stroke-linecap="round"/>
<path opacity="0.46" d="M43.5352 119.082C25.137 118.067 10.4751 102.78 10.4751 84.1316C10.4751 69.0031 20.1277 55.6471 34.4817 50.8955L37.9101 49.7637V24.3477H44.3174V54.5985C44.3174 54.5985 25.3367 61.0061 25.3367 83.9402C25.3284 98.9439 32.2932 111.618 43.5352 119.082Z" fill="#FFFEFF"/>
</svg>
