<svg width="101" height="101" viewBox="0 0 101 101" fill="none" xmlns="http://www.w3.org/2000/svg">
<path d="M36.9063 25.6618V0.564819H64.0983V25.6694V25.8033L64.1652 25.9193L99.3349 86.8623L99.3349 86.8623C102.594 92.5067 98.5235 99.5648 92.0073 99.5648H8.99771C2.48085 99.5576 -1.58907 92.5065 1.66964 86.8547C1.66967 86.8546 1.6697 86.8546 1.66973 86.8545L36.8393 25.9117L36.9063 25.7957V25.6618Z" fill="#FFFEFF" stroke="#5181FF"/>
<path d="M92.0005 95.6542C94.372 95.6542 95.5501 94.0572 95.9454 93.3728C96.3407 92.6884 97.1311 90.8709 95.9454 88.8101L60.1904 26.8481V4.47546H40.808V26.8557L5.05302 88.8101C3.86726 90.8709 4.65777 92.6808 5.05302 93.3728C5.44827 94.0572 6.62642 95.6542 8.99792 95.6542H92.0005Z" fill="#C5F4FC" fill-opacity="0.2"/>
<path d="M46.7229 49.2156C39.3496 48.6539 37.479 55.6343 37.0299 59.3666C36.6806 62.2702 39.1961 68.6563 46.8136 69.5831C58.6579 71.0243 60.42 61.4477 60.4041 56.3269C60.3882 51.2062 55.9396 49.9179 46.7229 49.2156Z" fill="#B86840"/>
<path fill-rule="evenodd" clip-rule="evenodd" d="M59.9211 60.9048C55.1329 67.4341 47.5324 68.6724 41.3872 67.5952C42.7976 68.5752 44.5879 69.3122 46.8138 69.583C55.6081 70.653 58.8441 65.649 59.9211 60.9048Z" fill="black" fill-opacity="0.3"/>
<path d="M55.6951 62.4284C56.0707 60.8284 55.2489 60.2635 52.9726 62.8944C47.8907 67.6305 44.5918 62.635 44.7667 64.8869C45.1418 69.715 55.2255 64.4285 55.6951 62.4284Z" fill="black" fill-opacity="0.2"/>
<path d="M42.5704 64.2118C43.2624 65.4736 42.48 65.4131 42.0023 65.2251C40.3903 64.5966 38.8634 62.3957 38.9376 60.539C38.9933 59.1467 40.8535 57.7066 40.2845 59.6509C39.7154 61.5953 41.7054 62.6345 42.5704 64.2118Z" fill="black" fill-opacity="0.2"/>
<path d="M50.7706 61.1536C49.633 62.0402 47.3818 61.4147 46.3984 60.9912C44.7783 60.1271 43.0281 57.2967 43.0143 59.8969C43.0005 62.4971 48.7688 62.9607 50.4142 63.0041C52.0596 63.0475 52.1926 60.0455 50.7706 61.1536Z" fill="black" fill-opacity="0.2"/>
<path d="M30.1257 68.7675C38.4781 68.2901 40.8204 77.1535 41.4472 81.8752C41.9348 85.5486 39.2794 93.5248 30.6614 94.455C17.2612 95.9014 14.9606 83.7668 14.818 77.3083C14.6755 70.8498 19.6852 69.3643 30.1257 68.7675Z" fill="#B86840"/>
<path fill-rule="evenodd" clip-rule="evenodd" d="M15.5102 83.0991C21.1506 91.484 29.8173 93.2838 36.7591 92.1176C35.1887 93.3095 33.1795 94.183 30.6612 94.4549C20.7123 95.5287 16.8818 89.1165 15.5102 83.0991Z" fill="black" fill-opacity="0.3"/>
<path d="M20.3549 85.1521C19.8783 83.1221 20.7935 82.4354 23.46 85.8252C29.3773 91.9583 32.9655 85.7607 32.8376 88.5957C32.5632 94.6737 20.9507 87.6896 20.3549 85.1521Z" fill="black" fill-opacity="0.2"/>
<path d="M35.3096 87.8129C34.5636 89.3828 35.4498 89.331 35.9862 89.1089C37.7964 88.3666 39.4607 85.6384 39.3183 83.2942C39.2114 81.5363 37.0546 79.6615 37.7615 82.1318C38.4684 84.6022 36.2421 85.8506 35.3096 87.8129Z" fill="black" fill-opacity="0.2"/>
<path d="M25.9047 83.6985C27.2238 84.8523 29.7598 84.1341 30.8629 83.6307C32.6748 82.5916 34.5729 79.0763 34.67 82.3565C34.7672 85.6366 28.2338 86.0405 26.3673 86.0437C24.5008 86.0468 24.2557 82.2561 25.9047 83.6985Z" fill="black" fill-opacity="0.2"/>
<path d="M80.8858 73.1182C75.1983 67.703 68.9705 72.1882 66.094 74.9565C63.8561 77.1101 61.6353 84.0529 67.2784 89.9322C76.0528 99.0741 83.9353 92.3806 87.3621 88.1579C90.7889 83.9352 87.9951 79.8871 80.8858 73.1182Z" fill="#B86840"/>
<path fill-rule="evenodd" clip-rule="evenodd" d="M83.8874 91.5997C75.5631 93.7527 68.4798 89.6649 64.1492 84.6506C64.651 86.4045 65.6285 88.2136 67.2778 89.932C73.792 96.719 79.8147 94.7779 83.8874 91.5997Z" fill="black" fill-opacity="0.3"/>
<path d="M79.3897 90.0133C80.7736 88.9496 80.477 87.9329 76.8373 88.5678C69.4758 89.0497 70.118 82.7246 68.7492 84.6944C65.8144 88.9176 77.6599 91.343 79.3897 90.0133Z" fill="black" fill-opacity="0.2"/>
<path d="M67.3959 82.6637C67.1175 84.1665 66.5146 83.5911 66.2479 83.1156C65.3442 81.5158 65.5668 78.6797 66.875 77.2024C67.8561 76.0945 70.3536 76.1595 68.5794 77.3766C66.8052 78.5937 67.7439 80.7853 67.3959 82.6637Z" fill="black" fill-opacity="0.2"/>
<path d="M76.1958 85.6567C74.6646 85.6218 73.233 83.5951 72.7085 82.5861C71.9565 80.7871 72.4182 77.2832 70.6601 79.4127C68.9021 81.5422 73.3353 85.7984 74.6596 86.9394C75.9839 88.0804 78.1099 85.7004 76.1958 85.6567Z" fill="black" fill-opacity="0.2"/>
<path d="M61.8994 80.3038C61.7287 73.3283 54.9981 72.233 51.4517 72.1648C48.6926 72.1117 42.9352 75.0781 42.7863 82.3173C42.5548 93.5736 51.7125 94.3212 56.5185 93.8214C61.3245 93.3217 62.1128 89.0231 61.8994 80.3038Z" fill="#B86840"/>
<path fill-rule="evenodd" clip-rule="evenodd" d="M52.1721 93.8C45.5898 89.922 43.7086 82.9029 44.1388 77.0318C43.3518 78.4491 42.829 80.2001 42.7855 82.3163C42.6136 90.673 47.6166 93.2377 52.1721 93.8Z" fill="black" fill-opacity="0.3"/>
<path d="M50.3443 89.9779C51.882 90.1791 52.3345 89.3541 49.649 87.4662C44.7215 83.1435 49.099 79.5734 47.0014 79.9509C42.5042 80.7601 48.422 89.7265 50.3443 89.9779Z" fill="black" fill-opacity="0.2"/>
<path d="M47.4266 77.8248C46.3075 78.594 46.2903 77.8537 46.4215 77.3874C46.859 75.8145 48.7807 74.1726 50.5308 74.0665C51.8433 73.9869 53.3714 75.597 51.4921 75.2469C49.6128 74.8967 48.8255 76.8634 47.4266 77.8248Z" fill="black" fill-opacity="0.2"/>
<path d="M51.0747 85.2342C50.1347 84.2502 50.5087 82.0774 50.8132 81.114C51.471 79.5113 53.9626 77.6001 51.5202 77.8334C49.0777 78.0666 49.1886 83.5259 49.3037 85.0748C49.4187 86.6237 52.2497 86.4643 51.0747 85.2342Z" fill="black" fill-opacity="0.2"/>
<path opacity="0.46" d="M5.05302 93.3728C4.65777 92.6884 3.86726 90.8709 5.05302 88.8101L40.808 26.8481V4.47546H46.8431V32.0648L32.2873 95.6542H8.99792C6.62642 95.6542 5.44827 94.0572 5.05302 93.3728Z" fill="#FFFEFF"/>
</svg>
