<svg width="79" height="100" viewBox="0 0 79 100" fill="none" xmlns="http://www.w3.org/2000/svg">
<path d="M1.89453 94.6652V28.3287L16.2299 12.7622V2.20679L66.9422 3.10684V14.1146L77.4167 24.9535V91.29L56.9182 98.315L1.89453 94.6652Z" fill="#FFDED2"/>
<path d="M67.8177 13.7838L57.127 29.6451L77.9701 24.9333L67.8177 13.7838Z" fill="#FCFCEB"/>
<path d="M15.7764 12.1434V1.73425L67.3604 2.63431V13.0435L15.7764 12.1434Z" fill="#FAFAFA"/>
<path d="M56.918 29.6383L56.9202 98.6682L77.8196 91.7288L77.9706 24.9332L56.918 29.6383Z" fill="#ECAF98"/>
<path d="M77.4145 25.5745C77.3597 25.5736 77.3052 25.5661 77.2523 25.552L62.6105 21.5715C62.4522 21.5279 62.3176 21.4233 62.2361 21.2808C62.1547 21.1383 62.133 20.9694 62.1758 20.811C62.2195 20.6528 62.3241 20.5183 62.4668 20.437C62.6095 20.3556 62.7786 20.3339 62.9372 20.3767L77.5789 24.3572C77.7373 24.4009 77.8719 24.5054 77.9534 24.6479C78.0348 24.7904 78.0565 24.9593 78.0137 25.1178C77.9773 25.2487 77.8991 25.3643 77.7909 25.4467C77.6828 25.5292 77.5506 25.5741 77.4145 25.5745Z" fill="#DBDBB4"/>
<path d="M56.9154 59.8465C56.7511 59.8465 56.5935 59.7814 56.4773 59.6653C56.3612 59.5493 56.2959 59.3919 56.2959 59.2278V47.428C56.2959 47.2639 56.3612 47.1065 56.4773 46.9904C56.5935 46.8744 56.7511 46.8092 56.9154 46.8092C57.0796 46.8092 57.2372 46.8744 57.3534 46.9904C57.4696 47.1065 57.5348 47.2639 57.5348 47.428V59.2278C57.5348 59.3919 57.4696 59.5493 57.3534 59.6653C57.2372 59.7814 57.0796 59.8465 56.9154 59.8465Z" fill="#9B7160"/>
<path d="M56.9154 68.0889C56.7511 68.0889 56.5935 68.0237 56.4773 67.9076C56.3612 67.7916 56.2959 67.6342 56.2959 67.4701V62.0697C56.2959 61.9056 56.3612 61.7482 56.4773 61.6322C56.5935 61.5161 56.7511 61.4509 56.9154 61.4509C57.0796 61.4509 57.2372 61.5161 57.3534 61.6322C57.4696 61.7482 57.5348 61.9056 57.5348 62.0697V67.4701C57.5348 67.6342 57.4696 67.7916 57.3534 67.9076C57.2372 68.0237 57.0796 68.0889 56.9154 68.0889Z" fill="#9B7160"/>
<path d="M56.9156 44.9483C56.7513 44.9483 56.5938 44.8831 56.4776 44.767C56.3614 44.651 56.2961 44.4936 56.2961 44.3295V30.2413L1.87838 28.9475C1.79703 28.9461 1.71679 28.9285 1.64229 28.8958C1.56778 28.8632 1.50051 28.8161 1.44436 28.7573C1.38821 28.6985 1.3443 28.6291 1.31518 28.5532C1.28605 28.4773 1.27228 28.3965 1.27468 28.3152C1.27614 28.234 1.29372 28.1538 1.32641 28.0794C1.3591 28.005 1.40625 27.9378 1.46512 27.8817C1.52399 27.8256 1.59342 27.7817 1.66938 27.7526C1.74535 27.7235 1.82634 27.7098 1.90766 27.7122L56.9314 29.0195C57.0931 29.0231 57.247 29.0899 57.3599 29.2056C57.4728 29.3213 57.5357 29.4767 57.5351 29.6383V44.3295C57.5351 44.4936 57.4698 44.651 57.3536 44.767C57.2375 44.8831 57.0799 44.9483 56.9156 44.9483Z" fill="#9B7160"/>
<path d="M56.9154 98.9339C56.7511 98.9339 56.5935 98.8687 56.4773 98.7526C56.3612 98.6366 56.2959 98.4792 56.2959 98.3151V75.1386C56.2959 74.9745 56.3612 74.8171 56.4773 74.701C56.5935 74.585 56.7511 74.5198 56.9154 74.5198C57.0796 74.5198 57.2372 74.585 57.3534 74.701C57.4696 74.8171 57.5348 74.9745 57.5348 75.1386V98.3151C57.5348 98.4792 57.4696 98.6366 57.3534 98.7526C57.2372 98.8687 57.0796 98.9339 56.9154 98.9339Z" fill="#9B7160"/>
<path d="M56.9154 30.2571C56.7752 30.2566 56.6392 30.2088 56.5296 30.1213C56.42 30.0339 56.3432 29.9121 56.3117 29.7755C56.2934 29.6963 56.291 29.6143 56.3045 29.5341C56.3181 29.454 56.3474 29.3773 56.3907 29.3085C56.434 29.2397 56.4906 29.1801 56.557 29.1332C56.6235 29.0863 56.6986 29.053 56.778 29.0352L77.2765 24.3504C77.4366 24.3141 77.6045 24.3428 77.7435 24.4301C77.8825 24.5175 77.981 24.6563 78.0176 24.8162C78.0359 24.8954 78.0385 24.9774 78.0251 25.0576C78.0117 25.1378 77.9827 25.2146 77.9396 25.2835C77.8965 25.3525 77.8402 25.4123 77.774 25.4595C77.7077 25.5067 77.6328 25.5405 77.5535 25.5588L57.0551 30.2413C57.0091 30.2509 56.9624 30.2561 56.9154 30.2571Z" fill="#9B7160"/>
<path d="M56.9161 30.2571C56.7931 30.2575 56.673 30.2206 56.5714 30.1514C56.5038 30.1061 56.4457 30.0479 56.4006 29.9801C56.3555 29.9124 56.3242 29.8364 56.3085 29.7566C56.2928 29.6767 56.293 29.5946 56.3091 29.5148C56.3253 29.4351 56.357 29.3593 56.4025 29.2918L67.0459 13.498C67.0914 13.4306 67.1498 13.3729 67.2177 13.328C67.2856 13.2831 67.3617 13.2521 67.4416 13.2366C67.5215 13.2212 67.6037 13.2216 67.6834 13.2379C67.7632 13.2542 67.839 13.286 67.9064 13.3315C67.9738 13.3768 68.0316 13.4349 68.0765 13.5025C68.1213 13.5702 68.1524 13.646 68.1679 13.7256C68.1834 13.8053 68.183 13.8872 68.1667 13.9667C68.1504 14.0461 68.1186 14.1216 68.0731 14.1888L57.4296 29.9826C57.3734 30.0672 57.2971 30.1365 57.2075 30.1844C57.1178 30.2324 57.0177 30.2573 56.9161 30.2571Z" fill="#9B7160"/>
<path d="M67.3608 13.6623L15.6776 12.7623C15.5963 12.7608 15.516 12.7433 15.4414 12.7109C15.3668 12.6784 15.2994 12.6316 15.2429 12.5731C15.1864 12.5146 15.142 12.4455 15.1123 12.3699C15.0825 12.2942 15.0679 12.2135 15.0694 12.1322C15.07 12.0507 15.0869 11.9701 15.1191 11.8952C15.1512 11.8202 15.1981 11.7525 15.2568 11.6959C15.3156 11.6393 15.3851 11.595 15.4612 11.5656C15.5373 11.5362 15.6186 11.5223 15.7002 11.5247L67.3833 12.4247C67.4645 12.4259 67.5448 12.4431 67.6193 12.4753C67.6939 12.5075 67.7614 12.5541 67.8179 12.6125C67.8744 12.6708 67.9188 12.7397 67.9486 12.8152C67.9784 12.8907 67.993 12.9714 67.9915 13.0525C67.9903 13.134 67.9731 13.2144 67.9407 13.2892C67.9083 13.364 67.8615 13.4316 67.8029 13.4883C67.7443 13.5449 67.6751 13.5895 67.5992 13.6193C67.5233 13.6492 67.4423 13.6638 67.3608 13.6623Z" fill="#9B7160"/>
<path d="M16.2296 2.20682L66.9396 3.10688V13.6646L77.4141 24.9535V91.29L56.9157 98.315L1.89419 94.6653V28.3287L16.2296 12.7622V2.20682ZM16.2296 0.969238C15.9044 0.969598 15.5922 1.09723 15.3601 1.32476C15.2428 1.43981 15.1498 1.5771 15.0863 1.72857C15.0229 1.88003 14.9904 2.04263 14.9907 2.20682V12.2785L0.981903 27.4917C0.772476 27.7203 0.656001 28.0188 0.655276 28.3287V94.6653C0.6546 94.9793 0.773705 95.2818 0.988365 95.5113C1.20302 95.7408 1.49712 95.88 1.81085 95.9006L56.8346 99.5503H56.9157C57.0529 99.5504 57.1892 99.5276 57.3189 99.4828L77.8173 92.4601C78.0612 92.3755 78.2727 92.2172 78.4225 92.0072C78.5722 91.7971 78.6528 91.5457 78.653 91.2878V24.9535C78.6534 24.6423 78.5359 24.3425 78.3242 24.1142L68.1876 13.1808V3.10688C68.1876 2.78251 68.0602 2.47109 67.8327 2.23963C67.6052 2.00818 67.2958 1.87519 66.9712 1.8693L16.2611 0.969238H16.2296Z" fill="#B06D33"/>
<mask id="path-14-outside-1_2038_4836" maskUnits="userSpaceOnUse" x="8.73303" y="50.8896" width="40.6227" height="18.5219" fill="black">
<rect fill="white" x="8.73303" y="50.8896" width="40.6227" height="18.5219"/>
<path d="M18.6845 53.6383C19.7158 53.6779 20.5441 53.8418 21.1695 54.13C21.8069 54.4187 22.3009 54.8459 22.6514 55.4118C22.877 55.7927 23.0467 56.2196 23.1607 56.6923C23.2746 57.165 23.3199 57.7071 23.2964 58.3187C23.2761 58.8463 23.2079 59.3721 23.0917 59.896C22.9756 60.4199 22.8181 60.9242 22.6194 61.409C22.4331 61.8822 22.2057 62.3298 21.9373 62.7518C21.6814 63.1623 21.3973 63.5237 21.0851 63.8359C20.4981 64.4258 19.828 64.8324 19.0749 65.0557C18.3342 65.2674 17.4243 65.3526 16.3451 65.3112C15.3018 65.2711 14.4666 65.131 13.8393 64.8907C13.2121 64.6505 12.7218 64.2834 12.3685 63.7895C12.1176 63.4436 11.9241 63.0099 11.788 62.4883C11.6639 61.9671 11.6168 61.3169 11.6467 60.5374C11.6978 59.2064 11.9772 58.0283 12.4849 57.003C13.0051 55.9662 13.7146 55.1588 14.6134 54.5808C15.1553 54.2294 15.7534 53.9761 16.4079 53.8211C17.0623 53.6661 17.8212 53.6052 18.6845 53.6383ZM16.2495 64.0466C16.5253 64.0572 16.7877 63.9471 17.0367 63.7165C17.2982 63.4744 17.5387 63.1534 17.7582 62.7535C17.9902 62.3421 18.2002 61.8758 18.3883 61.3546C18.5885 60.8339 18.7593 60.2941 18.9008 59.7351C19.0424 59.1761 19.1537 58.622 19.2348 58.0727C19.3284 57.5119 19.384 57.0036 19.4015 56.548C19.4254 55.9244 19.3758 55.4962 19.2526 55.2633C19.1419 55.0189 18.9667 54.8921 18.7268 54.8829C18.451 54.8723 18.1826 54.9821 17.9216 55.2122C17.6606 55.4424 17.4083 55.7569 17.1649 56.1559C16.9338 56.5433 16.7182 56.9974 16.5181 57.5181C16.3305 58.0272 16.1601 58.5551 16.007 59.1016C15.8659 59.6486 15.749 60.1905 15.6564 60.7274C15.5757 61.2647 15.5266 61.7612 15.5091 62.2168C15.4829 62.9003 15.5367 63.3767 15.6704 63.6461C15.8167 63.9039 16.0097 64.0374 16.2495 64.0466ZM33.8833 65.8403L29.6744 65.6788L29.5324 62.8092L26.2048 62.6815L24.818 65.4923L23.0733 65.4253L28.8178 54.2074L33.0807 54.3711L33.8833 65.8403ZM26.8488 61.3912L29.4569 61.4913L29.231 56.583L26.8488 61.3912ZM46.0295 56.2372L43.1337 56.126L40.6073 66.0984L36.7221 65.9493L39.2485 55.9769L36.3886 55.8671L36.7649 54.5125L46.3878 54.8819L46.0295 56.2372Z"/>
</mask>
<path d="M18.6845 53.6383C19.7158 53.6779 20.5441 53.8418 21.1695 54.13C21.8069 54.4187 22.3009 54.8459 22.6514 55.4118C22.877 55.7927 23.0467 56.2196 23.1607 56.6923C23.2746 57.165 23.3199 57.7071 23.2964 58.3187C23.2761 58.8463 23.2079 59.3721 23.0917 59.896C22.9756 60.4199 22.8181 60.9242 22.6194 61.409C22.4331 61.8822 22.2057 62.3298 21.9373 62.7518C21.6814 63.1623 21.3973 63.5237 21.0851 63.8359C20.4981 64.4258 19.828 64.8324 19.0749 65.0557C18.3342 65.2674 17.4243 65.3526 16.3451 65.3112C15.3018 65.2711 14.4666 65.131 13.8393 64.8907C13.2121 64.6505 12.7218 64.2834 12.3685 63.7895C12.1176 63.4436 11.9241 63.0099 11.788 62.4883C11.6639 61.9671 11.6168 61.3169 11.6467 60.5374C11.6978 59.2064 11.9772 58.0283 12.4849 57.003C13.0051 55.9662 13.7146 55.1588 14.6134 54.5808C15.1553 54.2294 15.7534 53.9761 16.4079 53.8211C17.0623 53.6661 17.8212 53.6052 18.6845 53.6383ZM16.2495 64.0466C16.5253 64.0572 16.7877 63.9471 17.0367 63.7165C17.2982 63.4744 17.5387 63.1534 17.7582 62.7535C17.9902 62.3421 18.2002 61.8758 18.3883 61.3546C18.5885 60.8339 18.7593 60.2941 18.9008 59.7351C19.0424 59.1761 19.1537 58.622 19.2348 58.0727C19.3284 57.5119 19.384 57.0036 19.4015 56.548C19.4254 55.9244 19.3758 55.4962 19.2526 55.2633C19.1419 55.0189 18.9667 54.8921 18.7268 54.8829C18.451 54.8723 18.1826 54.9821 17.9216 55.2122C17.6606 55.4424 17.4083 55.7569 17.1649 56.1559C16.9338 56.5433 16.7182 56.9974 16.5181 57.5181C16.3305 58.0272 16.1601 58.5551 16.007 59.1016C15.8659 59.6486 15.749 60.1905 15.6564 60.7274C15.5757 61.2647 15.5266 61.7612 15.5091 62.2168C15.4829 62.9003 15.5367 63.3767 15.6704 63.6461C15.8167 63.9039 16.0097 64.0374 16.2495 64.0466ZM33.8833 65.8403L29.6744 65.6788L29.5324 62.8092L26.2048 62.6815L24.818 65.4923L23.0733 65.4253L28.8178 54.2074L33.0807 54.3711L33.8833 65.8403ZM26.8488 61.3912L29.4569 61.4913L29.231 56.583L26.8488 61.3912ZM46.0295 56.2372L43.1337 56.126L40.6073 66.0984L36.7221 65.9493L39.2485 55.9769L36.3886 55.8671L36.7649 54.5125L46.3878 54.8819L46.0295 56.2372Z" fill="#BB8F68"/>
<path d="M21.1695 54.13L20.3324 55.9465L20.3444 55.9519L21.1695 54.13ZM22.6514 55.4118L24.3724 54.3928C24.3656 54.3813 24.3587 54.3699 24.3516 54.3585L22.6514 55.4118ZM23.1607 56.6923L21.2164 57.161L21.2164 57.161L23.1607 56.6923ZM22.6194 61.409L20.7689 60.6503C20.7653 60.6589 20.7618 60.6676 20.7584 60.6764L22.6194 61.409ZM21.9373 62.7518L20.2497 61.6785C20.2465 61.6836 20.2434 61.6886 20.2402 61.6936L21.9373 62.7518ZM21.0851 63.8359L19.6708 62.4218L19.6675 62.4251L21.0851 63.8359ZM19.0749 65.0557L19.6246 66.9787C19.6309 66.9769 19.6371 66.9751 19.6433 66.9732L19.0749 65.0557ZM13.8393 64.8907L14.5547 63.023L13.8393 64.8907ZM12.3685 63.7895L13.9952 62.6259L13.9874 62.6151L12.3685 63.7895ZM11.788 62.4883L9.84239 62.9516C9.8457 62.9655 9.84916 62.9794 9.85277 62.9932L11.788 62.4883ZM12.4849 57.003L10.6972 56.1061L10.6926 56.1155L12.4849 57.003ZM14.6134 54.5808L15.6951 56.2631L15.7017 56.2588L14.6134 54.5808ZM16.4079 53.8211L15.9469 51.875L15.9469 51.875L16.4079 53.8211ZM17.0367 63.7165L18.3957 65.184L18.3957 65.184L17.0367 63.7165ZM17.7582 62.7535L16.016 61.7712C16.0123 61.7778 16.0086 61.7845 16.005 61.7911L17.7582 62.7535ZM18.3883 61.3546L16.5215 60.6371C16.5166 60.6499 16.5118 60.6627 16.5071 60.6756L18.3883 61.3546ZM19.2349 58.0727L17.2621 57.7435C17.2601 57.7558 17.2581 57.7681 17.2563 57.7805L19.2349 58.0727ZM19.2526 55.2633L17.4308 56.0885C17.4476 56.1256 17.4656 56.1622 17.4846 56.1982L19.2526 55.2633ZM17.9216 55.2122L16.5989 53.7121L16.5989 53.7121L17.9216 55.2122ZM17.1649 56.1559L15.4577 55.114C15.4541 55.1198 15.4506 55.1257 15.4471 55.1315L17.1649 56.1559ZM16.5181 57.5181L14.6513 56.8006C14.648 56.8092 14.6447 56.8178 14.6415 56.8264L16.5181 57.5181ZM16.007 59.1016L14.0811 58.5622C14.0774 58.5755 14.0738 58.5888 14.0704 58.6021L16.007 59.1016ZM15.6564 60.7274L13.6855 60.3872C13.683 60.4016 13.6807 60.416 13.6786 60.4304L15.6564 60.7274ZM15.6704 63.6461L13.8792 64.5357C13.8955 64.5685 13.9127 64.6009 13.9308 64.6328L15.6704 63.6461ZM18.6078 55.6368C19.4949 55.6709 20.0344 55.8091 20.3325 55.9464L22.0066 52.3136C21.0538 51.8745 19.9367 51.6849 18.7613 51.6398L18.6078 55.6368ZM20.3444 55.9519C20.6399 56.0857 20.8207 56.2543 20.9512 56.4651L24.3516 54.3585C23.7811 53.4376 22.974 52.7517 21.9946 52.3081L20.3444 55.9519ZM20.9305 56.4308C21.0452 56.6245 21.1445 56.8629 21.2164 57.161L25.105 56.2236C24.949 55.5762 24.7088 54.961 24.3724 54.3928L20.9305 56.4308ZM21.2164 57.161C21.2779 57.4162 21.316 57.7688 21.2979 58.242L25.2949 58.3954C25.3237 57.6455 25.2714 56.9138 25.105 56.2236L21.2164 57.161ZM21.2979 58.242C21.2823 58.6477 21.2298 59.0543 21.1392 59.463L25.0443 60.329C25.186 59.6898 25.27 59.0449 25.2949 58.3954L21.2979 58.242ZM21.1392 59.463C21.0471 59.8784 20.9233 60.2735 20.7689 60.6503L24.4699 62.1677C24.7129 61.5749 24.9041 60.9615 25.0443 60.329L21.1392 59.463ZM20.7584 60.6764C20.6181 61.0327 20.4484 61.3661 20.2497 61.6785L23.625 63.8251C23.963 63.2935 24.2481 62.7316 24.4803 62.1416L20.7584 60.6764ZM20.2402 61.6936C20.0571 61.9873 19.8659 62.2267 19.6708 62.4218L22.4995 65.25C22.9288 64.8206 23.3057 64.3373 23.6345 63.81L20.2402 61.6936ZM19.6675 62.4251C19.3021 62.7923 18.9193 63.0158 18.5064 63.1382L19.6433 66.9732C20.7366 66.6491 21.694 66.0593 22.5028 65.2467L19.6675 62.4251ZM18.5251 63.1327C18.0515 63.2681 17.3676 63.349 16.4218 63.3126L16.2683 67.3097C17.4809 67.3562 18.6168 67.2668 19.6246 66.9787L18.5251 63.1327ZM16.4218 63.3126C15.4899 63.2769 14.897 63.1542 14.5547 63.023L13.124 66.7584C14.0361 67.1078 15.1138 67.2654 16.2683 67.3097L16.4218 63.3126ZM14.5547 63.023C14.2533 62.9076 14.0964 62.7674 13.9952 62.6259L10.7418 64.9531C11.3472 65.7994 12.1709 66.3934 13.124 66.7584L14.5547 63.023ZM13.9874 62.6151C13.9154 62.5158 13.8122 62.3246 13.7232 61.9834L9.85277 62.9932C10.0359 63.6952 10.3198 64.3714 10.7496 64.9639L13.9874 62.6151ZM13.7336 62.025C13.666 61.741 13.6194 61.2867 13.6452 60.6141L9.64819 60.4607C9.61417 61.347 9.66182 62.1933 9.84239 62.9516L13.7336 62.025ZM13.6452 60.6141C13.6873 59.519 13.9135 58.6249 14.2772 57.8905L10.6926 56.1155C10.0409 57.4316 9.70834 58.8938 9.64819 60.4607L13.6452 60.6141ZM14.2726 57.8998C14.6462 57.155 15.1232 56.6308 15.6951 56.2631L13.5317 52.8986C12.3059 53.6868 11.3639 54.7773 10.6973 56.1061L14.2726 57.8998ZM15.7017 56.2588C16.0435 56.0371 16.428 55.8717 16.8688 55.7673L15.9469 51.875C15.0788 52.0806 14.267 52.4216 13.5251 52.9029L15.7017 56.2588ZM16.8688 55.7673C17.3055 55.6638 17.8767 55.6088 18.6078 55.6368L18.7613 51.6398C17.7656 51.6016 16.8191 51.6684 15.9469 51.875L16.8688 55.7673ZM16.1728 66.0451C17.0953 66.0805 17.8524 65.687 18.3957 65.184L15.6778 62.2491C15.6927 62.2353 15.7582 62.1786 15.8799 62.1275C16.0088 62.0735 16.1638 62.0418 16.3262 62.048L16.1728 66.0451ZM18.3957 65.184C18.8519 64.7614 19.216 64.2541 19.5114 63.7159L16.005 61.7911C15.8614 62.0526 15.7445 62.1873 15.6778 62.2491L18.3957 65.184ZM19.5004 63.7357C19.7955 63.2124 20.0499 62.6422 20.2695 62.0337L16.5071 60.6756C16.3505 61.1094 16.1849 61.4718 16.016 61.7712L19.5004 63.7357ZM20.2552 62.0721C20.4847 61.475 20.6793 60.8593 20.8396 60.2261L16.962 59.2442C16.8393 59.7288 16.6922 60.1929 16.5215 60.6371L20.2552 62.0721ZM20.8396 60.2261C20.9971 59.604 21.122 58.9836 21.2134 58.3649L17.2563 57.7805C17.1854 58.2604 17.0876 58.7482 16.962 59.2442L20.8396 60.2261ZM21.2076 58.4019C21.3119 57.7769 21.3786 57.1826 21.4 56.6247L17.4029 56.4712C17.3894 56.8247 17.345 57.2468 17.2621 57.7435L21.2076 58.4019ZM21.4 56.6247C21.4143 56.2515 21.4095 55.8789 21.3689 55.529C21.3314 55.2051 21.2487 54.7596 21.0206 54.3284L17.4846 56.1982C17.4258 56.087 17.4027 56.0053 17.3962 55.9803C17.389 55.9526 17.3912 55.9523 17.3955 55.9893C17.4046 56.0676 17.4125 56.2209 17.4029 56.4712L21.4 56.6247ZM21.0745 54.4382C20.9097 54.0743 20.6404 53.6756 20.2106 53.3646C19.7685 53.0447 19.2732 52.9024 18.8036 52.8843L18.6501 56.8814C18.4203 56.8726 18.1325 56.7982 17.8657 56.6052C17.6111 56.421 17.4849 56.2079 17.4308 56.0885L21.0745 54.4382ZM18.8036 52.8843C17.8899 52.8493 17.14 53.2349 16.5989 53.7121L19.2443 56.7123C19.2398 56.7163 19.1851 56.7637 19.0758 56.8084C18.9595 56.856 18.8119 56.8876 18.6501 56.8814L18.8036 52.8843ZM16.5989 53.7121C16.146 54.1115 15.7722 54.5986 15.4577 55.114L18.872 57.1978C19.0444 56.9153 19.1752 56.7733 19.2444 56.7123L16.5989 53.7121ZM15.4471 55.1315C15.1459 55.6365 14.8831 56.1974 14.6513 56.8006L18.385 58.2356C18.5534 57.7974 18.7217 57.4501 18.8826 57.1802L15.4471 55.1315ZM14.6415 56.8264C14.4346 57.3879 14.2479 57.9666 14.0811 58.5622L17.9329 59.6411C18.0722 59.1436 18.2263 58.6666 18.3947 58.2097L14.6415 56.8264ZM14.0704 58.6021C13.9162 59.1998 13.7878 59.7949 13.6855 60.3872L17.6272 61.0676C17.7103 60.5862 17.8156 60.0974 17.9436 59.6011L14.0704 58.6021ZM13.6786 60.4304C13.5889 61.0274 13.5314 61.5984 13.5106 62.1401L17.5077 62.2935C17.5219 61.924 17.5625 61.502 17.6342 61.0243L13.6786 60.4304ZM13.5106 62.1401C13.484 62.8337 13.4991 63.7705 13.8792 64.5357L17.4617 62.7564C17.5067 62.847 17.5224 62.9082 17.5247 62.9175C17.5276 62.929 17.5229 62.9134 17.5172 62.8625C17.5052 62.7564 17.4969 62.5734 17.5077 62.2935L13.5106 62.1401ZM13.9308 64.6328C14.3261 65.3297 15.0719 66.0028 16.1728 66.0451L16.3262 62.048C16.5773 62.0577 16.8388 62.1399 17.0625 62.2946C17.27 62.4381 17.3726 62.5932 17.4101 62.6594L13.9308 64.6328ZM33.8833 65.8403L33.8066 67.8389C34.3742 67.8606 34.9243 67.64 35.3196 67.2321C35.7149 66.8241 35.9181 66.2674 35.8784 65.7007L33.8833 65.8403ZM29.6744 65.6788L27.6769 65.7776C27.7281 66.8129 28.5619 67.6375 29.5977 67.6773L29.6744 65.6788ZM29.5324 62.8092L31.5299 62.7103C31.4787 61.675 30.6449 60.8504 29.6091 60.8107L29.5324 62.8092ZM26.2048 62.6815L26.2815 60.6829C25.493 60.6527 24.7604 61.0889 24.4113 61.7965L26.2048 62.6815ZM24.818 65.4923L24.7413 67.4909C25.5298 67.5211 26.2624 67.0849 26.6116 66.3772L24.818 65.4923ZM23.0733 65.4253L21.2931 64.5137C20.9818 65.1216 21.0022 65.8463 21.3472 66.4357C21.6922 67.0251 22.3141 67.3977 22.9965 67.4239L23.0733 65.4253ZM28.8178 54.2074L28.8945 52.2089C28.1168 52.1791 27.3924 52.6031 27.0376 53.2958L28.8178 54.2074ZM33.0807 54.3711L35.0758 54.2315C35.0045 53.213 34.1776 52.4117 33.1574 52.3726L33.0807 54.3711ZM26.8488 61.3912L25.0567 60.5033C24.7556 61.111 24.783 61.8299 25.1295 62.413C25.476 62.996 26.0944 63.3637 26.7721 63.3897L26.8488 61.3912ZM29.4569 61.4913L29.3802 63.4899C29.9395 63.5113 30.4822 63.2974 30.8765 62.9001C31.2707 62.5028 31.4805 61.9585 31.4548 61.3994L29.4569 61.4913ZM29.231 56.583L31.2289 56.4911C31.187 55.5803 30.5343 54.8131 29.6421 54.6257C28.7498 54.4384 27.8437 54.8782 27.4389 55.6952L29.231 56.583ZM33.96 63.8418L29.7511 63.6802L29.5977 67.6773L33.8066 67.8389L33.96 63.8418ZM31.672 65.5799L31.5299 62.7103L27.5348 62.9081L27.6769 65.7776L31.672 65.5799ZM29.6091 60.8107L26.2815 60.6829L26.1281 64.68L29.4557 64.8077L29.6091 60.8107ZM24.4113 61.7965L23.0244 64.6074L26.6116 66.3772L27.9984 63.5664L24.4113 61.7965ZM24.8947 63.4938L23.15 63.4268L22.9965 67.4239L24.7413 67.4909L24.8947 63.4938ZM24.8534 66.3369L30.598 55.119L27.0376 53.2958L21.2931 64.5137L24.8534 66.3369ZM28.7411 56.206L33.004 56.3696L33.1574 52.3726L28.8945 52.2089L28.7411 56.206ZM31.0856 54.5107L31.8882 65.9799L35.8784 65.7007L35.0758 54.2315L31.0856 54.5107ZM26.7721 63.3897L29.3802 63.4899L29.5336 59.4928L26.9255 59.3927L26.7721 63.3897ZM31.4548 61.3994L31.2289 56.4911L27.2331 56.675L27.459 61.5833L31.4548 61.3994ZM27.4389 55.6952L25.0567 60.5033L28.6409 62.2791L31.0231 57.4709L27.4389 55.6952ZM46.0295 56.2372L45.9528 58.2357C46.8885 58.2716 47.7238 57.6536 47.9631 56.7483L46.0295 56.2372ZM43.1337 56.126L43.2104 54.1275C42.267 54.0913 41.4268 54.7197 41.1949 55.6349L43.1337 56.126ZM40.6073 66.0984L40.5305 68.097C41.4739 68.1332 42.3142 67.5048 42.546 66.5896L40.6073 66.0984ZM36.7221 65.9493L34.7834 65.4581C34.6352 66.0432 34.759 66.6638 35.1205 67.1471C35.482 67.6304 36.0423 67.9247 36.6454 67.9478L36.7221 65.9493ZM39.2485 55.9769L41.1873 56.468C41.3355 55.883 41.2116 55.2623 40.8501 54.779C40.4887 54.2957 39.9283 54.0015 39.3252 53.9783L39.2485 55.9769ZM36.3886 55.8671L34.4616 55.3318C34.2979 55.921 34.4128 56.5527 34.7735 57.0466C35.1341 57.5404 35.7008 57.8422 36.3119 57.8656L36.3886 55.8671ZM36.7649 54.5125L36.8416 52.514C35.9153 52.4784 35.0859 53.0841 34.8378 53.9773L36.7649 54.5125ZM46.3878 54.8819L48.3214 55.3931C48.4765 54.8061 48.3567 54.1804 47.9955 53.6924C47.6344 53.2043 47.0712 52.9067 46.4645 52.8834L46.3878 54.8819ZM46.1062 54.2387L43.2104 54.1275L43.0569 58.1245L45.9528 58.2357L46.1062 54.2387ZM41.1949 55.6349L38.6685 65.6073L42.546 66.5896L45.0724 56.6172L41.1949 55.6349ZM40.684 64.0999L36.7988 63.9508L36.6454 67.9478L40.5305 68.097L40.684 64.0999ZM38.6609 66.4405L41.1873 56.468L37.3098 55.4857L34.7834 65.4581L38.6609 66.4405ZM39.3252 53.9783L36.4653 53.8686L36.3119 57.8656L39.1718 57.9754L39.3252 53.9783ZM38.3157 56.4023L38.6919 55.0478L34.8378 53.9773L34.4616 55.3318L38.3157 56.4023ZM36.6881 56.511L46.3111 56.8805L46.4645 52.8834L36.8416 52.514L36.6881 56.511ZM44.4542 54.3708L44.0959 55.7261L47.9631 56.7483L48.3214 55.3931L44.4542 54.3708Z" fill="white" mask="url(#path-14-outside-1_2038_4836)"/>
</svg>
