<svg width="104" height="147" viewBox="0 0 104 147" fill="none" xmlns="http://www.w3.org/2000/svg">
<path d="M38.1611 48.6741V23.5771H65.3531V48.6817V48.8156L65.4201 48.9316L100.59 109.875L100.59 109.875C103.848 115.519 99.7784 122.577 93.2622 122.577H10.2526C3.73574 122.57 -0.334188 115.519 2.92452 109.867C2.92455 109.867 2.92458 109.867 2.92461 109.867L38.0942 48.924L38.1611 48.808V48.6741Z" fill="#FFFEFF" stroke="#5181FF"/>
<path d="M93.2554 118.666C95.6269 118.666 96.805 117.07 97.2003 116.385C97.5955 115.701 98.386 113.883 97.2003 111.822L61.4453 49.8604V27.4878H42.0629V49.868L6.3079 111.822C5.12215 113.883 5.91265 115.693 6.3079 116.385C6.70315 117.07 7.8813 118.666 10.2528 118.666H93.2554Z" fill="#C5F4FC" fill-opacity="0.2"/>
<path d="M78.9949 112.186C79.7759 108.386 77.0455 104.726 72.8964 104.011C68.7473 103.295 64.7507 105.796 63.9698 109.596C63.1888 113.396 65.9192 117.056 70.0682 117.772C74.2173 118.487 78.2139 115.986 78.9949 112.186Z" fill="#753B92"/>
<path opacity="0.06" d="M65.0817 114.792C65.647 115.552 66.3701 116.202 67.2099 116.706C68.0496 117.21 68.9895 117.558 69.9759 117.729C70.9624 117.9 71.976 117.892 72.9588 117.704C73.9417 117.517 74.8746 117.154 75.7043 116.636C76.534 116.118 77.2443 115.456 77.7945 114.687C78.3448 113.918 78.7242 113.057 78.9112 112.154C79.0982 111.25 79.089 110.322 78.8843 109.422C78.6796 108.522 78.2833 107.667 77.718 106.907C77.2943 106.328 76.7734 105.814 76.1746 105.383L76.4881 105.781C77.0945 106.603 77.4776 107.546 77.6054 108.532C77.7332 109.517 77.6022 110.516 77.223 111.446C76.8438 112.376 76.2275 113.209 75.4255 113.876C74.6236 114.544 73.6593 115.026 72.6127 115.283C71.566 115.539 70.4675 115.564 69.4087 115.353C68.3498 115.142 67.3613 114.703 66.5254 114.071C65.6895 113.44 65.0305 112.635 64.6032 111.723C64.1759 110.811 63.9926 109.819 64.0687 108.829C63.743 109.829 63.6649 110.883 63.8402 111.915C64.0154 112.947 64.4396 113.929 65.0817 114.792Z" fill="black"/>
<path opacity="0.3" d="M75.5229 110.93C75.5209 111.066 75.564 111.2 75.6466 111.314C75.7291 111.428 75.8473 111.516 75.9856 111.568C76.124 111.619 76.276 111.631 76.4218 111.602C76.5676 111.573 76.7003 111.504 76.8027 111.404C76.9051 111.305 76.9723 111.179 76.9956 111.044C77.0188 110.909 76.997 110.771 76.933 110.648C76.869 110.524 76.7658 110.421 76.6368 110.352C76.5079 110.284 76.3593 110.252 76.2104 110.262C76.1173 110.264 76.0255 110.283 75.9404 110.318C75.8553 110.353 75.7786 110.402 75.7147 110.464C75.6507 110.527 75.6009 110.6 75.568 110.679C75.5351 110.759 75.5197 110.844 75.5229 110.93Z" fill="white"/>
<path opacity="0.3" d="M73.6052 107.945C73.6016 108.19 73.679 108.431 73.827 108.635C73.9751 108.839 74.187 108.997 74.4351 109.089C74.6831 109.181 74.9557 109.203 75.2171 109.15C75.4786 109.098 75.7167 108.975 75.9003 108.796C76.0839 108.618 76.2045 108.393 76.2462 108.151C76.2878 107.909 76.2487 107.661 76.1339 107.439C76.0191 107.218 75.834 107.034 75.6028 106.91C75.3716 106.787 75.1051 106.73 74.8382 106.748C74.6712 106.751 74.5066 106.786 74.354 106.848C74.2014 106.91 74.0638 107 73.9492 107.111C73.8345 107.222 73.7451 107.353 73.6861 107.497C73.6271 107.64 73.5996 107.792 73.6052 107.945Z" fill="white"/>
<path d="M56.1095 113.019C56.7505 109.9 54.5096 106.896 51.1043 106.309C47.6989 105.722 44.4188 107.775 43.7778 110.893C43.1368 114.012 45.3777 117.016 48.7831 117.604C52.1884 118.191 55.4686 116.138 56.1095 113.019Z" fill="#753B92"/>
<path opacity="0.06" d="M44.6895 115.158C45.1534 115.782 45.7469 116.315 46.4362 116.729C47.1254 117.143 47.8968 117.428 48.7064 117.568C49.516 117.709 50.3479 117.702 51.1546 117.548C51.9613 117.394 52.7269 117.096 53.4079 116.672C54.0889 116.247 54.6718 115.703 55.1234 115.072C55.575 114.44 55.8865 113.734 56.04 112.992C56.1934 112.251 56.1859 111.489 56.0178 110.75C55.8498 110.011 55.5246 109.31 55.0606 108.687C54.7129 108.211 54.2853 107.789 53.7939 107.436L54.0512 107.762C54.5489 108.437 54.8633 109.211 54.9682 110.02C55.0731 110.829 54.9655 111.649 54.6543 112.412C54.3432 113.175 53.8373 113.859 53.1791 114.406C52.5209 114.954 51.7295 115.35 50.8705 115.561C50.0114 115.771 49.1099 115.791 48.2408 115.618C47.3718 115.445 46.5605 115.085 45.8744 114.567C45.1884 114.048 44.6474 113.387 44.2967 112.639C43.946 111.89 43.7956 111.076 43.8581 110.264C43.5908 111.085 43.5267 111.95 43.6705 112.797C43.8143 113.643 44.1625 114.45 44.6895 115.158Z" fill="black"/>
<path opacity="0.3" d="M53.2601 111.988C53.2585 112.1 53.2938 112.21 53.3616 112.304C53.4294 112.397 53.5264 112.469 53.6399 112.512C53.7534 112.554 53.8782 112.563 53.9979 112.539C54.1175 112.516 54.2265 112.459 54.3105 112.377C54.3946 112.296 54.4497 112.193 54.4688 112.082C54.4879 111.971 54.47 111.858 54.4175 111.756C54.3649 111.655 54.2802 111.571 54.1744 111.514C54.0686 111.458 53.9466 111.432 53.8244 111.44C53.748 111.442 53.6726 111.457 53.6028 111.486C53.533 111.514 53.47 111.555 53.4175 111.606C53.3651 111.657 53.3241 111.717 53.2971 111.783C53.2701 111.848 53.2575 111.918 53.2601 111.988Z" fill="white"/>
<path opacity="0.3" d="M51.6861 109.538C51.6832 109.74 51.7467 109.937 51.8682 110.104C51.9897 110.272 52.1637 110.402 52.3672 110.477C52.5708 110.553 52.7945 110.57 53.0091 110.528C53.2237 110.485 53.4191 110.383 53.5698 110.237C53.7205 110.091 53.8195 109.906 53.8537 109.707C53.8879 109.509 53.8558 109.305 53.7616 109.123C53.6673 108.942 53.5154 108.79 53.3256 108.689C53.1359 108.588 52.9172 108.541 52.6981 108.556C52.561 108.559 52.4259 108.587 52.3007 108.638C52.1755 108.689 52.0625 108.762 51.9684 108.854C51.8744 108.945 51.801 109.053 51.7525 109.17C51.7041 109.288 51.6815 109.413 51.6861 109.538Z" fill="white"/>
<path d="M94.5521 108.609C93.2859 104.956 89.0328 102.967 85.0525 104.166C81.0722 105.365 78.8719 109.298 80.1381 112.951C81.4042 116.603 85.6573 118.593 89.6377 117.394C93.618 116.195 95.8182 112.262 94.5521 108.609Z" fill="#753B92"/>
<path opacity="0.06" d="M83.7662 116.988C84.6478 117.402 85.6108 117.651 86.6004 117.721C87.59 117.792 88.5867 117.681 89.5336 117.398C90.4805 117.114 91.3591 116.661 92.1191 116.066C92.8792 115.471 93.5059 114.746 93.9634 113.93C94.4209 113.115 94.7003 112.226 94.7856 111.315C94.8709 110.403 94.7605 109.487 94.4607 108.618C94.1608 107.749 93.6773 106.944 93.0379 106.25C92.3985 105.556 91.6156 104.986 90.734 104.572C90.0683 104.253 89.3512 104.034 88.6091 103.922L89.0858 104.131C90.0353 104.581 90.852 105.234 91.4681 106.036C92.0842 106.839 92.4818 107.766 92.6278 108.743C92.7737 109.719 92.6636 110.715 92.3069 111.649C91.9502 112.582 91.3572 113.426 90.5772 114.109C89.7971 114.792 88.8526 115.296 87.8224 115.577C86.7922 115.858 85.7062 115.91 84.6547 115.727C83.6031 115.544 82.6166 115.132 81.7773 114.525C80.938 113.918 80.2701 113.135 79.8294 112.239C80.0582 113.253 80.5302 114.206 81.2112 115.028C81.8922 115.849 82.7651 116.519 83.7662 116.988Z" fill="black"/>
<path opacity="0.3" d="M90.8843 109.039C90.9525 109.159 91.0588 109.257 91.189 109.32C91.3192 109.383 91.4674 109.408 91.6142 109.392C91.7609 109.376 91.8994 109.319 92.0115 109.23C92.1235 109.141 92.204 109.022 92.2422 108.891C92.2805 108.759 92.2748 108.62 92.2259 108.493C92.177 108.365 92.0871 108.254 91.9681 108.175C91.8491 108.095 91.7065 108.051 91.5589 108.047C91.4114 108.044 91.2658 108.082 91.1412 108.156C91.0611 108.199 90.9909 108.255 90.9346 108.323C90.8783 108.391 90.837 108.468 90.8131 108.55C90.7892 108.632 90.7832 108.718 90.7954 108.802C90.8077 108.886 90.8378 108.966 90.8843 109.039Z" fill="white"/>
<path opacity="0.3" d="M87.6849 107.282C87.8073 107.497 87.9978 107.672 88.2313 107.785C88.4648 107.898 88.7306 107.943 88.9938 107.914C89.257 107.885 89.5052 107.784 89.7062 107.623C89.9071 107.463 90.0514 107.251 90.12 107.015C90.1886 106.779 90.1784 106.53 90.0906 106.301C90.0029 106.072 89.8418 105.873 89.6285 105.731C89.4151 105.588 89.1593 105.509 88.8947 105.503C88.6301 105.497 88.369 105.565 88.1455 105.697C88.002 105.774 87.8761 105.876 87.7751 105.997C87.6741 106.118 87.6001 106.257 87.5573 106.404C87.5144 106.551 87.5037 106.705 87.5256 106.855C87.5475 107.006 87.6016 107.151 87.6849 107.282Z" fill="white"/>
<path d="M60.1974 92.4046C60.8384 89.2857 58.5975 86.2816 55.1922 85.6945C51.7868 85.1075 48.5067 87.1598 47.8657 90.2787C47.2247 93.3975 49.4656 96.4018 52.871 96.9888C56.2763 97.5759 59.5565 95.5234 60.1974 92.4046Z" fill="#753B92"/>
<path opacity="0.06" d="M48.7774 94.5432C49.2413 95.1669 49.8348 95.7008 50.524 96.1144C51.2133 96.528 51.9847 96.8132 52.7943 96.9538C53.6039 97.0943 54.4358 97.0875 55.2425 96.9336C56.0492 96.7797 56.8148 96.4818 57.4958 96.0568C58.1768 95.6319 58.7597 95.0883 59.2113 94.4571C59.6629 93.8258 59.9744 93.1193 60.1278 92.3778C60.2813 91.6363 60.2738 90.8745 60.1057 90.1356C59.9377 89.3968 59.6124 88.6955 59.1485 88.0719C58.8007 87.5965 58.3732 87.1744 57.8818 86.8211L58.1391 87.1474C58.6368 87.8223 58.9512 88.5965 59.0561 89.4053C59.161 90.2141 59.0534 91.0341 58.7422 91.7971C58.431 92.5601 57.9252 93.244 57.267 93.7917C56.6088 94.3394 55.8173 94.7351 54.9583 94.9459C54.0993 95.1568 53.1977 95.1765 52.3287 95.0036C51.4597 94.8307 50.6484 94.4701 49.9623 93.9519C49.2763 93.4336 48.7353 92.7727 48.3846 92.0242C48.0339 91.2758 47.8835 90.4614 47.946 89.6489C47.6787 90.47 47.6146 91.3354 47.7584 92.182C47.9022 93.0287 48.2503 93.8353 48.7774 94.5432Z" fill="black"/>
<path opacity="0.3" d="M57.348 91.3732C57.3463 91.4854 57.3817 91.5954 57.4495 91.6888C57.5173 91.7823 57.6143 91.8548 57.7278 91.8969C57.8413 91.939 57.9661 91.9487 58.0857 91.9248C58.2054 91.9009 58.3144 91.8444 58.3984 91.7628C58.4825 91.6812 58.5376 91.5782 58.5567 91.4674C58.5758 91.3566 58.5579 91.2431 58.5054 91.1418C58.4528 91.0405 58.3681 90.956 58.2623 90.8995C58.1564 90.843 58.0345 90.8171 57.9123 90.8252C57.8359 90.8269 57.7605 90.8425 57.6907 90.8711C57.6209 90.8996 57.5579 90.9405 57.5054 90.9915C57.4529 91.0424 57.412 91.1024 57.385 91.1679C57.358 91.2334 57.3454 91.3032 57.348 91.3732Z" fill="white"/>
<path opacity="0.3" d="M55.774 88.9237C55.7711 89.1248 55.8346 89.3221 55.9561 89.4896C56.0776 89.6572 56.2516 89.7872 56.4551 89.8628C56.6587 89.9383 56.8824 89.9557 57.097 89.9128C57.3116 89.8699 57.507 89.7686 57.6577 89.6223C57.8084 89.4759 57.9074 89.2913 57.9416 89.0926C57.9758 88.8939 57.9437 88.6904 57.8494 88.5087C57.7552 88.327 57.6033 88.1755 57.4135 88.0742C57.2238 87.9729 57.0051 87.9265 56.786 87.9409C56.6489 87.944 56.5138 87.972 56.3886 88.0232C56.2633 88.0743 56.1504 88.1477 56.0563 88.2391C55.9622 88.3305 55.8889 88.438 55.8404 88.5555C55.792 88.673 55.7694 88.7981 55.774 88.9237Z" fill="white"/>
<path d="M43.9006 109.966C44.5415 106.847 42.3006 103.843 38.8953 103.256C35.49 102.669 32.2098 104.721 31.5688 107.84C30.9278 110.959 33.1688 113.963 36.5741 114.55C39.9794 115.137 43.2596 113.085 43.9006 109.966Z" fill="#753B92"/>
<path opacity="0.06" d="M32.4805 112.104C32.9444 112.728 33.5379 113.262 34.2272 113.676C34.9164 114.089 35.6878 114.374 36.4974 114.515C37.307 114.656 38.1389 114.649 38.9456 114.495C39.7523 114.341 40.5179 114.043 41.1989 113.618C41.8799 113.193 42.4628 112.65 42.9144 112.018C43.366 111.387 43.6775 110.681 43.831 109.939C43.9844 109.198 43.9769 108.436 43.8089 107.697C43.6408 106.958 43.3156 106.257 42.8516 105.633C42.5039 105.158 42.0763 104.736 41.5849 104.382L41.8422 104.709C42.3399 105.384 42.6543 106.158 42.7592 106.967C42.8641 107.775 42.7566 108.595 42.4454 109.358C42.1342 110.121 41.6283 110.805 40.9701 111.353C40.3119 111.901 39.5205 112.296 38.6615 112.507C37.8025 112.718 36.9009 112.738 36.0318 112.565C35.1628 112.392 34.3515 112.031 33.6654 111.513C32.9794 110.995 32.4385 110.334 32.0878 109.585C31.737 108.837 31.5866 108.023 31.6491 107.21C31.3818 108.031 31.3177 108.897 31.4615 109.743C31.6053 110.59 31.9535 111.397 32.4805 112.104Z" fill="black"/>
<path opacity="0.3" d="M41.0511 108.934C41.0495 109.047 41.0849 109.157 41.1526 109.25C41.2204 109.344 41.3174 109.416 41.4309 109.458C41.5445 109.5 41.6692 109.51 41.7889 109.486C41.9085 109.462 42.0175 109.406 42.1016 109.324C42.1856 109.242 42.2408 109.139 42.2598 109.029C42.2789 108.918 42.261 108.804 42.2085 108.703C42.1559 108.602 42.0712 108.517 41.9654 108.461C41.8596 108.404 41.7376 108.378 41.6154 108.386C41.539 108.388 41.4637 108.404 41.3938 108.432C41.324 108.461 41.261 108.502 41.2085 108.553C41.1561 108.604 41.1152 108.664 41.0881 108.729C41.0611 108.795 41.0485 108.864 41.0511 108.934Z" fill="white"/>
<path opacity="0.3" d="M39.4772 106.485C39.4742 106.686 39.5377 106.883 39.6592 107.051C39.7807 107.218 39.9547 107.348 40.1583 107.424C40.3618 107.5 40.5855 107.517 40.8001 107.474C41.0147 107.431 41.2101 107.33 41.3608 107.184C41.5115 107.037 41.6105 106.853 41.6447 106.654C41.6789 106.455 41.6468 106.252 41.5526 106.07C41.4584 105.888 41.3064 105.737 41.1167 105.635C40.9269 105.534 40.7082 105.488 40.4891 105.502C40.352 105.505 40.2169 105.533 40.0917 105.584C39.9665 105.636 39.8536 105.709 39.7595 105.8C39.6654 105.892 39.592 105.999 39.5436 106.117C39.4951 106.234 39.4725 106.359 39.4772 106.485Z" fill="white"/>
<path d="M67.6066 78.0483C68.1905 75.2076 66.1493 72.4713 63.0477 71.9366C59.946 71.4018 56.9583 73.2712 56.3745 76.1119C55.7907 78.9527 57.8318 81.689 60.9334 82.2238C64.0351 82.7585 67.0228 80.889 67.6066 78.0483Z" fill="#753B92"/>
<path opacity="0.06" d="M57.2062 79.9963C57.6288 80.5643 58.1694 81.0506 58.7971 81.4274C59.4249 81.8041 60.1275 82.0639 60.8649 82.1919C61.6023 82.3199 62.3601 82.3136 63.0948 82.1735C63.8296 82.0333 64.527 81.762 65.1472 81.3749C65.7675 80.9879 66.2984 80.4928 66.7098 79.9178C67.1211 79.3429 67.4048 78.6993 67.5446 78.024C67.6843 77.3486 67.6775 76.6546 67.5244 75.9817C67.3714 75.3088 67.0751 74.67 66.6525 74.102C66.3358 73.669 65.9464 73.2845 65.4988 72.9627L65.7331 73.2599C66.1865 73.8747 66.4728 74.5798 66.5684 75.3165C66.6639 76.0532 66.566 76.8001 66.2825 77.495C65.9991 78.19 65.5383 78.8129 64.9388 79.3117C64.3393 79.8106 63.6184 80.1711 62.836 80.3631C62.0536 80.5551 61.2324 80.5731 60.4409 80.4156C59.6493 80.2581 58.9104 79.9297 58.2855 79.4576C57.6606 78.9856 57.1679 78.3836 56.8485 77.7019C56.529 77.0202 56.392 76.2784 56.449 75.5384C56.2055 76.2863 56.1471 77.0745 56.2781 77.8456C56.4091 78.6168 56.7262 79.3515 57.2062 79.9963Z" fill="black"/>
<path opacity="0.3" d="M65.011 77.1089C65.0095 77.2111 65.0418 77.3113 65.1035 77.3964C65.1652 77.4815 65.2536 77.5476 65.357 77.5859C65.4604 77.6243 65.574 77.6331 65.683 77.6113C65.792 77.5895 65.8913 77.5381 65.9678 77.4638C66.0444 77.3894 66.0946 77.2957 66.112 77.1947C66.1294 77.0938 66.1131 76.9904 66.0652 76.8981C66.0174 76.8058 65.9402 76.7289 65.8438 76.6775C65.7474 76.626 65.6363 76.6024 65.525 76.6098C65.4554 76.6113 65.3868 76.6255 65.3232 76.6515C65.2596 76.6775 65.2022 76.7148 65.1544 76.7612C65.1066 76.8076 65.0694 76.8622 65.0448 76.9219C65.0202 76.9816 65.0087 77.0452 65.011 77.1089Z" fill="white"/>
<path opacity="0.3" d="M63.5777 74.8778C63.575 75.061 63.6328 75.2407 63.7435 75.3933C63.8542 75.546 64.0126 75.6644 64.1981 75.7332C64.3835 75.8019 64.5872 75.8178 64.7827 75.7787C64.9781 75.7397 65.1562 75.6474 65.2934 75.5141C65.4307 75.3809 65.5208 75.2127 65.5519 75.0317C65.5831 74.8507 65.5539 74.6653 65.468 74.4998C65.3822 74.3343 65.2438 74.1964 65.071 74.1041C64.8982 74.0119 64.699 73.9696 64.4994 73.9827C64.3745 73.9856 64.2515 74.011 64.1374 74.0576C64.0234 74.1042 63.9205 74.1711 63.8348 74.2543C63.7491 74.3375 63.6823 74.4355 63.6382 74.5425C63.594 74.6495 63.5735 74.7635 63.5777 74.8778Z" fill="white"/>
<path d="M29.4904 94.6994C30.0743 91.8586 28.0331 89.1224 24.9315 88.5876C21.8298 88.0529 18.8421 89.9223 18.2583 92.763C17.6745 95.6037 19.7156 98.3401 22.8172 98.8748C25.9189 99.4096 28.9066 97.5401 29.4904 94.6994Z" fill="#753B92"/>
<path opacity="0.06" d="M19.09 96.6474C19.5126 97.2155 20.0531 97.7018 20.6809 98.0785C21.3087 98.4552 22.0113 98.715 22.7487 98.843C23.4861 98.971 24.2438 98.9648 24.9786 98.8246C25.7134 98.6844 26.4107 98.4131 27.031 98.0261C27.6513 97.639 28.1822 97.1439 28.5936 96.5689C29.0049 95.994 29.2886 95.3504 29.4284 94.6751C29.5681 93.9997 29.5613 93.3058 29.4082 92.6328C29.2552 91.9599 28.9589 91.3211 28.5363 90.7531C28.2196 90.3201 27.8302 89.9356 27.3826 89.6138L27.6169 89.911C28.0703 90.5258 28.3566 91.2309 28.4522 91.9676C28.5477 92.7043 28.4497 93.4512 28.1663 94.1461C27.8829 94.8411 27.4221 95.464 26.8226 95.9629C26.2231 96.4618 25.5022 96.8222 24.7198 97.0142C23.9374 97.2062 23.1162 97.2242 22.3247 97.0667C21.5331 96.9092 20.7942 96.5808 20.1693 96.1088C19.5444 95.6367 19.0517 95.0348 18.7323 94.353C18.4128 93.6713 18.2758 92.9295 18.3328 92.1895C18.0893 92.9374 18.0309 93.7256 18.1619 94.4967C18.2928 95.2679 18.61 96.0026 19.09 96.6474Z" fill="black"/>
<path opacity="0.3" d="M26.8948 93.7601C26.8933 93.8622 26.9256 93.9624 26.9873 94.0475C27.049 94.1326 27.1374 94.1987 27.2408 94.237C27.3442 94.2754 27.4578 94.2842 27.5668 94.2624C27.6758 94.2407 27.7751 94.1892 27.8516 94.1149C27.9281 94.0406 27.9784 93.9468 27.9958 93.8459C28.0132 93.7449 27.9968 93.6416 27.949 93.5493C27.9011 93.457 27.824 93.3801 27.7276 93.3286C27.6312 93.2771 27.5201 93.2535 27.4088 93.2609C27.3392 93.2625 27.2706 93.2767 27.207 93.3027C27.1434 93.3286 27.086 93.3659 27.0382 93.4123C26.9904 93.4588 26.9532 93.5134 26.9286 93.5731C26.9039 93.6327 26.8925 93.6963 26.8948 93.7601Z" fill="white"/>
<path opacity="0.3" d="M25.4615 91.5289C25.4588 91.7121 25.5166 91.8918 25.6273 92.0444C25.738 92.197 25.8964 92.3155 26.0818 92.3842C26.2673 92.453 26.471 92.4689 26.6665 92.4298C26.8619 92.3907 27.0399 92.2985 27.1772 92.1652C27.3145 92.0319 27.4046 91.8638 27.4357 91.6828C27.4669 91.5018 27.4376 91.3164 27.3518 91.1509C27.266 90.9854 27.1276 90.8475 26.9548 90.7552C26.782 90.6629 26.5827 90.6206 26.3832 90.6338C26.2583 90.6366 26.1353 90.6621 26.0212 90.7087C25.9072 90.7553 25.8043 90.8221 25.7186 90.9054C25.6329 90.9886 25.5661 91.0865 25.522 91.1936C25.4778 91.3006 25.4572 91.4146 25.4615 91.5289Z" fill="white"/>
<path d="M39.3401 103.006C43.4346 103.775 47.4202 101.29 48.242 97.4575C49.0639 93.6247 46.4109 89.8947 42.3163 89.1264C38.2218 88.3581 34.2361 90.8424 33.4142 94.6752C32.5923 98.508 35.2455 102.238 39.3401 103.006Z" fill="#753B92"/>
<path opacity="0.06" d="M36.6912 90.0939C35.8638 90.6082 35.1526 91.27 34.5984 92.0415C34.0442 92.8129 33.6577 93.679 33.461 94.5902C33.2643 95.5014 33.2613 96.4399 33.4521 97.3521C33.6429 98.2643 34.0238 99.1323 34.573 99.9067C35.1222 100.681 35.8291 101.346 36.6531 101.865C37.4772 102.384 38.4024 102.745 39.3758 102.929C40.3493 103.113 41.3519 103.116 42.3265 102.937C43.3011 102.758 44.2286 102.401 45.056 101.887C45.6865 101.501 46.2482 101.025 46.7202 100.476L46.2871 100.762C45.3918 101.313 44.3685 101.657 43.3028 101.763C42.237 101.87 41.1595 101.737 40.1601 101.375C39.1606 101.012 38.2681 100.432 37.5569 99.6814C36.8458 98.931 36.3365 98.0325 36.0716 97.0605C35.8066 96.0884 35.7937 95.0711 36.0338 94.0933C36.274 93.1155 36.7603 92.2056 37.4521 91.4392C38.144 90.6728 39.0215 90.0722 40.0115 89.6875C41.0014 89.3027 42.0752 89.1448 43.1434 89.2271C42.0668 88.9137 40.9291 88.8288 39.8129 88.9788C38.6968 89.1287 37.6304 89.5097 36.6912 90.0939Z" fill="black"/>
<path opacity="0.3" d="M40.7389 99.8065C40.5913 99.803 40.4461 99.8414 40.3221 99.9165C40.1982 99.9915 40.1014 100.1 40.0443 100.227C39.9873 100.355 39.9727 100.495 40.0024 100.631C40.0322 100.766 40.1049 100.89 40.211 100.986C40.3172 101.082 40.4519 101.146 40.5974 101.169C40.7429 101.192 40.8925 101.173 41.0266 101.115C41.1607 101.058 41.2731 100.963 41.3489 100.845C41.4248 100.726 41.4607 100.589 41.4518 100.451C41.4507 100.365 41.4312 100.28 41.3947 100.2C41.3582 100.121 41.3052 100.05 41.2389 99.9896C41.1727 99.9297 41.0943 99.8827 41.0085 99.8513C40.9227 99.8198 40.831 99.8046 40.7389 99.8065Z" fill="white"/>
<path opacity="0.3" d="M43.9837 98.0671C43.7191 98.0609 43.4586 98.1296 43.2364 98.2643C43.0141 98.3989 42.8405 98.5933 42.7382 98.8218C42.6359 99.0504 42.6097 99.3024 42.663 99.5451C42.7164 99.7878 42.8468 100.01 43.0372 100.182C43.2275 100.354 43.469 100.468 43.73 100.51C43.991 100.551 44.2592 100.518 44.4997 100.414C44.7402 100.311 44.9416 100.141 45.0777 99.9289C45.2137 99.7163 45.278 99.4702 45.2622 99.2229C45.2601 99.0682 45.2253 98.9154 45.1598 98.7734C45.0942 98.6314 44.9993 98.503 44.8804 98.3955C44.7616 98.288 44.6211 98.2037 44.4672 98.1474C44.3133 98.091 44.149 98.0637 43.9837 98.0671Z" fill="white"/>
<path d="M30.7009 110.243C31.7025 105.369 28.2009 100.675 22.8798 99.7578C17.5588 98.8405 12.4333 102.047 11.4317 106.921C10.4301 111.794 13.9317 116.489 19.2528 117.406C24.5738 118.323 29.6994 115.116 30.7009 110.243Z" fill="#4A1A87"/>
<path opacity="0.06" d="M12.8585 113.584C13.5835 114.559 14.5108 115.393 15.5878 116.04C16.6648 116.686 17.8702 117.132 19.1352 117.351C20.4003 117.571 21.7002 117.56 22.9607 117.32C24.2212 117.079 25.4176 116.614 26.4817 115.95C27.5458 115.286 28.4566 114.436 29.1623 113.45C29.8679 112.464 30.3546 111.36 30.5944 110.201C30.8342 109.042 30.8225 107.852 30.5599 106.697C30.2973 105.543 29.7891 104.447 29.0641 103.473C28.5207 102.73 27.8527 102.07 27.0848 101.518L27.4868 102.028C28.2646 103.083 28.7558 104.292 28.9197 105.556C29.0837 106.82 28.9156 108.101 28.4293 109.293C27.9431 110.486 27.1526 111.554 26.1242 112.41C25.0957 113.266 23.859 113.884 22.5167 114.214C21.1745 114.543 19.7657 114.574 18.4077 114.304C17.0498 114.034 15.7821 113.47 14.7101 112.66C13.6381 111.851 12.7928 110.818 12.2448 109.648C11.6968 108.479 11.4617 107.206 11.5594 105.937C11.1417 107.22 11.0416 108.572 11.2663 109.895C11.491 111.218 12.035 112.478 12.8585 113.584Z" fill="black"/>
<path opacity="0.3" d="M26.2495 108.631C26.247 108.806 26.3023 108.978 26.4082 109.124C26.5141 109.27 26.6656 109.384 26.843 109.449C27.0204 109.515 27.2154 109.53 27.4023 109.493C27.5893 109.456 27.7596 109.367 27.8909 109.24C28.0222 109.112 28.1085 108.951 28.1383 108.778C28.1681 108.605 28.1401 108.428 28.058 108.269C27.9759 108.111 27.8435 107.979 27.6782 107.891C27.5128 107.803 27.3222 107.762 27.1313 107.775C27.0119 107.777 26.8942 107.802 26.785 107.846C26.6759 107.891 26.5775 107.955 26.4955 108.035C26.4135 108.114 26.3496 108.208 26.3074 108.31C26.2652 108.413 26.2455 108.522 26.2495 108.631Z" fill="white"/>
<path opacity="0.3" d="M23.788 104.804C23.7834 105.118 23.8826 105.426 24.0725 105.688C24.2624 105.95 24.5342 106.153 24.8523 106.271C25.1704 106.389 25.52 106.416 25.8553 106.349C26.1906 106.282 26.496 106.124 26.7314 105.895C26.9669 105.667 27.1215 105.378 27.175 105.068C27.2284 104.757 27.1782 104.439 27.031 104.155C26.8838 103.871 26.6464 103.635 26.3499 103.476C26.0534 103.318 25.7116 103.245 25.3693 103.268C25.1551 103.273 24.944 103.317 24.7483 103.397C24.5526 103.477 24.3762 103.591 24.2292 103.734C24.0821 103.877 23.9675 104.045 23.8918 104.228C23.8161 104.412 23.7808 104.608 23.788 104.804Z" fill="white"/>
<path d="M55.7514 108.063C58.9023 109.662 62.8606 108.564 64.5926 105.611C66.3246 102.657 65.1744 98.9668 62.0236 97.3678C58.8727 95.7688 54.9143 96.8667 53.1823 99.8202C51.4503 102.774 52.6006 106.464 55.7514 108.063Z" fill="#4A1A87"/>
<path opacity="0.06" d="M57.1373 96.8329C56.316 97.0596 55.5494 97.435 54.8815 97.9375C54.2136 98.4401 53.6573 99.06 53.2445 99.7618C52.8316 100.464 52.5703 101.234 52.4755 102.028C52.3806 102.822 52.454 103.625 52.6915 104.391C52.929 105.157 53.326 105.87 53.8598 106.491C54.3935 107.112 55.0536 107.628 55.8024 108.009C56.5511 108.39 57.3738 108.629 58.2236 108.713C59.0733 108.796 59.9334 108.722 60.7548 108.496C61.3789 108.328 61.9715 108.07 62.5106 107.73L62.0762 107.863C61.1887 108.104 60.2537 108.144 59.349 107.98C58.4443 107.815 57.5961 107.451 56.8752 106.917C56.1542 106.384 55.5813 105.696 55.2042 104.911C54.8271 104.127 54.6567 103.269 54.7072 102.408C54.7577 101.547 55.0276 100.708 55.4945 99.962C55.9614 99.2158 56.6117 98.5834 57.3913 98.1176C58.1708 97.6518 59.0571 97.366 59.9762 97.2841C60.8954 97.2021 61.8208 97.3263 62.6753 97.6465C61.8776 97.1345 60.9666 96.7958 60.0087 96.6551C59.0507 96.5143 58.0697 96.5751 57.1373 96.8329Z" fill="black"/>
<path opacity="0.3" d="M57.7833 105.767C57.6631 105.729 57.5332 105.726 57.4107 105.759C57.2882 105.791 57.1788 105.857 57.0968 105.948C57.0148 106.039 56.964 106.151 56.9511 106.27C56.9383 106.388 56.9638 106.507 57.0246 106.611C57.0853 106.714 57.1783 106.799 57.2914 106.852C57.4046 106.905 57.5326 106.926 57.6586 106.91C57.7847 106.894 57.903 106.843 57.998 106.764C58.093 106.684 58.1603 106.58 58.1911 106.465C58.2139 106.394 58.2214 106.319 58.2133 106.245C58.2051 106.172 58.1814 106.1 58.1435 106.035C58.1056 105.971 58.0542 105.913 57.9924 105.867C57.9306 105.821 57.8595 105.787 57.7833 105.767Z" fill="white"/>
<path opacity="0.3" d="M60.9292 105.104C60.7136 105.037 60.4807 105.032 60.261 105.09C60.0414 105.148 59.8452 105.266 59.6981 105.43C59.5511 105.593 59.46 105.794 59.4369 106.006C59.4138 106.218 59.4597 106.431 59.5686 106.617C59.6775 106.804 59.8443 106.955 60.0472 107.05C60.25 107.146 60.4796 107.182 60.7056 107.154C60.9317 107.126 61.1438 107.034 61.3142 106.892C61.4845 106.75 61.6052 106.563 61.6604 106.356C61.7013 106.228 61.7149 106.095 61.7002 105.963C61.6856 105.83 61.643 105.703 61.5751 105.586C61.5071 105.47 61.415 105.367 61.3041 105.285C61.1933 105.202 61.0658 105.141 60.9292 105.104Z" fill="white"/>
<path d="M43.3857 85.4008C47.3911 87.4334 52.4229 86.0377 54.6246 82.2833C56.8263 78.5289 55.3642 73.8376 51.3589 71.8049C47.3535 69.7722 42.3216 71.1679 40.1199 74.9223C37.9182 78.6767 39.3804 83.3681 43.3857 85.4008Z" fill="#4A1A87"/>
<path opacity="0.06" d="M45.1471 71.125C44.103 71.4133 43.1286 71.8904 42.2795 72.5292C41.4305 73.1681 40.7234 73.9561 40.1986 74.8483C39.6738 75.7404 39.3416 76.7193 39.221 77.729C39.1004 78.7387 39.1937 79.7593 39.4957 80.7328C39.7976 81.7063 40.3022 82.6134 40.9807 83.4025C41.6593 84.1915 42.4984 84.8471 43.4502 85.3316C44.402 85.8161 45.4478 86.1201 46.528 86.2263C47.6082 86.3326 48.7015 86.2389 49.7456 85.9506C50.539 85.7378 51.2923 85.4095 51.9776 84.9779L51.4254 85.1459C50.2972 85.4527 49.1086 85.5037 47.9586 85.2947C46.8085 85.0857 45.7304 84.6228 44.8139 83.9443C43.8974 83.2659 43.1692 82.3916 42.6898 81.3945C42.2104 80.3973 41.9938 79.3062 42.058 78.2118C42.1222 77.1173 42.4653 76.0514 43.0588 75.1028C43.6523 74.1541 44.4789 73.3503 45.4699 72.7581C46.4609 72.166 47.5876 71.8027 48.7559 71.6985C49.9243 71.5944 51.1007 71.7523 52.187 72.1592C51.173 71.5084 50.0149 71.0779 48.7972 70.899C47.5794 70.7201 46.3324 70.7974 45.1471 71.125Z" fill="black"/>
<path opacity="0.3" d="M45.9676 82.4817C45.8147 82.4338 45.6496 82.4301 45.4939 82.4713C45.3382 82.5124 45.1991 82.5964 45.0949 82.7124C44.9906 82.8283 44.9261 82.9706 44.9097 83.1209C44.8933 83.2711 44.9259 83.4222 45.0031 83.5543C45.0802 83.6864 45.1985 83.7934 45.3423 83.8613C45.4861 83.9291 45.6488 83.9547 45.8091 83.9347C45.9693 83.9147 46.1197 83.8499 46.2405 83.749C46.3612 83.648 46.4468 83.5155 46.4859 83.3689C46.5149 83.2785 46.5245 83.1837 46.5141 83.09C46.5038 82.9964 46.4736 82.9057 46.4254 82.8232C46.3772 82.7407 46.3119 82.6681 46.2334 82.6095C46.1548 82.5509 46.0644 82.5074 45.9676 82.4817Z" fill="white"/>
<path opacity="0.3" d="M49.9666 81.6397C49.6926 81.5537 49.3965 81.5471 49.1173 81.6209C48.8381 81.6947 48.5886 81.8454 48.4017 82.0533C48.2148 82.2611 48.0991 82.5164 48.0697 82.7858C48.0403 83.0552 48.0986 83.3261 48.237 83.563C48.3755 83.7999 48.5875 83.9918 48.8454 84.1135C49.1033 84.2352 49.3951 84.2811 49.6824 84.2452C49.9698 84.2093 50.2395 84.0932 50.456 83.9121C50.6726 83.7311 50.826 83.4936 50.8961 83.2306C50.9482 83.0685 50.9654 82.8985 50.9468 82.7305C50.9282 82.5626 50.8741 82.4 50.7877 82.252C50.7012 82.1041 50.5842 81.9739 50.4433 81.8688C50.3023 81.7637 50.1404 81.6858 49.9666 81.6397Z" fill="white"/>
<path d="M29.3784 88.9086C32.5292 90.5077 36.4875 89.4097 38.2195 86.4562C39.9515 83.5028 38.8014 79.8123 35.6505 78.2133C32.4997 76.6142 28.5412 77.7122 26.8092 80.6656C25.0772 83.6191 26.2275 87.3096 29.3784 88.9086Z" fill="#4A1A87"/>
<path opacity="0.06" d="M30.7643 77.6784C29.9429 77.9052 29.1764 78.2805 28.5084 78.7831C27.8405 79.2856 27.2843 79.9055 26.8714 80.6073C26.4586 81.3092 26.1973 82.0792 26.1024 82.8735C26.0075 83.6678 26.0809 84.4707 26.3185 85.2365C26.556 86.0023 26.953 86.7159 27.4867 87.3366C28.0205 87.9574 28.6806 88.4731 29.4293 88.8542C30.1781 89.2354 31.0008 89.4745 31.8505 89.5581C32.7003 89.6416 33.5604 89.5679 34.3817 89.3412C35.0058 89.1737 35.5984 88.9155 36.1375 88.576L35.7031 88.7081C34.8156 88.9495 33.8806 88.9896 32.9759 88.8251C32.0712 88.6607 31.2231 88.2966 30.5021 87.7629C29.7812 87.2292 29.2083 86.5414 28.8312 85.757C28.4541 84.9726 28.2837 84.1142 28.3341 83.2533C28.3846 82.3923 28.6546 81.5538 29.1215 80.8075C29.5883 80.0613 30.2386 79.4289 31.0182 78.9631C31.7978 78.4973 32.6841 78.2115 33.6032 78.1296C34.5223 78.0476 35.4477 78.1718 36.3023 78.492C35.5046 77.98 34.5936 77.6414 33.6356 77.5006C32.6776 77.3599 31.6967 77.4207 30.7643 77.6784Z" fill="black"/>
<path opacity="0.3" d="M31.4093 86.6123C31.2891 86.5745 31.1592 86.5717 31.0367 86.604C30.9142 86.6364 30.8048 86.7025 30.7228 86.7937C30.6408 86.8849 30.59 86.9969 30.5771 87.1151C30.5642 87.2332 30.5898 87.3521 30.6505 87.456C30.7113 87.5599 30.8043 87.6441 30.9174 87.6975C31.0306 87.7509 31.1585 87.771 31.2846 87.7553C31.4107 87.7395 31.529 87.6886 31.624 87.6092C31.719 87.5297 31.7863 87.4255 31.817 87.3102C31.8399 87.239 31.8474 87.1645 31.8393 87.0908C31.8311 87.0171 31.8074 86.9458 31.7695 86.8809C31.7315 86.816 31.6802 86.7589 31.6184 86.7128C31.5565 86.6667 31.4855 86.6325 31.4093 86.6123Z" fill="white"/>
<path opacity="0.3" d="M34.5552 85.9499C34.3396 85.8822 34.1067 85.8771 33.887 85.9351C33.6674 85.9932 33.4712 86.1117 33.3241 86.2752C33.1771 86.4388 33.086 86.6396 33.0629 86.8515C33.0398 87.0634 33.0857 87.2765 33.1946 87.4629C33.3035 87.6492 33.4703 87.8002 33.6731 87.896C33.876 87.9917 34.1055 88.0278 34.3316 87.9996C34.5577 87.9713 34.7698 87.88 34.9401 87.7375C35.1105 87.5951 35.2312 87.4083 35.2864 87.2014C35.3273 87.0738 35.3409 86.9401 35.3262 86.808C35.3116 86.6759 35.269 86.548 35.201 86.4316C35.133 86.3152 35.041 86.2128 34.9301 86.1301C34.8193 86.0475 34.6918 85.9862 34.5552 85.9499Z" fill="white"/>
<path d="M65.8748 96.3263C70.0115 98.4256 75.2083 96.9841 77.4822 93.1066C79.7561 89.2291 78.246 84.384 74.1094 82.2846C69.9727 80.1853 64.7758 81.6268 62.5019 85.5043C60.228 89.3818 61.7381 94.227 65.8748 96.3263Z" fill="#4A1A87"/>
<path opacity="0.06" d="M67.6931 81.5826C66.6147 81.8803 65.6084 82.373 64.7315 83.0328C63.8545 83.6926 63.1243 84.5065 62.5823 85.4279C62.0403 86.3493 61.6972 87.3603 61.5726 88.4031C61.4481 89.4459 61.5445 90.5 61.8563 91.5054C62.1681 92.5108 62.6893 93.4477 63.3901 94.2626C64.0908 95.0775 64.9575 95.7546 65.9405 96.255C66.9235 96.7554 68.0036 97.0694 69.1192 97.1791C70.2348 97.2888 71.364 97.192 72.4423 96.8943C73.2617 96.6745 74.0397 96.3354 74.7475 95.8897L74.1772 96.0632C73.012 96.38 71.7844 96.4327 70.5967 96.2168C69.409 96.001 68.2955 95.5229 67.3489 94.8222C66.4024 94.1216 65.6503 93.2186 65.1552 92.1887C64.6601 91.1589 64.4363 90.032 64.5026 88.9017C64.5689 87.7714 64.9233 86.6705 65.5363 85.6907C66.1492 84.711 67.003 83.8808 68.0265 83.2692C69.05 82.6577 70.2135 82.2825 71.4202 82.1749C72.6269 82.0673 73.8419 82.2304 74.9638 82.6507C73.9165 81.9786 72.7205 81.5339 71.4628 81.3491C70.2051 81.1643 68.9172 81.2442 67.6931 81.5826Z" fill="black"/>
<path opacity="0.3" d="M68.5415 93.3117C68.3837 93.2621 68.2132 93.2584 68.0524 93.3008C67.8915 93.3433 67.7479 93.4301 67.6402 93.5498C67.5326 93.6696 67.4659 93.8166 67.449 93.9717C67.4321 94.1269 67.4657 94.2829 67.5454 94.4194C67.6251 94.5558 67.7472 94.6663 67.8958 94.7364C68.0443 94.8065 68.2123 94.833 68.3779 94.8123C68.5434 94.7916 68.6987 94.7247 68.8234 94.6204C68.9481 94.5162 69.0365 94.3794 69.0769 94.2279C69.1068 94.1345 69.1168 94.0366 69.106 93.9399C69.0953 93.8432 69.0642 93.7495 69.0144 93.6643C68.9646 93.5791 68.8972 93.5041 68.816 93.4436C68.7349 93.3831 68.6416 93.3382 68.5415 93.3117Z" fill="white"/>
<path opacity="0.3" d="M72.6714 92.442C72.3884 92.3532 72.0826 92.3464 71.7942 92.4226C71.5059 92.4988 71.2483 92.6545 71.0552 92.8691C70.8621 93.0838 70.7426 93.3475 70.7123 93.6257C70.6819 93.9039 70.7422 94.1837 70.8851 94.4284C71.0281 94.673 71.2471 94.8712 71.5134 94.9969C71.7798 95.1227 72.0811 95.1701 72.3779 95.1329C72.6747 95.0958 72.9532 94.9759 73.1769 94.789C73.4005 94.602 73.5589 94.3566 73.6314 94.0851C73.6852 93.9176 73.7029 93.7421 73.6837 93.5686C73.6645 93.3951 73.6086 93.2272 73.5194 93.0744C73.4301 92.9217 73.3092 92.7872 73.1637 92.6786C73.0181 92.5701 72.8508 92.4896 72.6714 92.442Z" fill="white"/>
<path d="M79.2603 93.9118C75.8175 95.2665 74.236 98.9707 75.7278 102.185C77.2196 105.4 81.2199 106.908 84.6627 105.553C88.1055 104.198 89.6871 100.494 88.1953 97.2795C86.7035 94.0648 82.7031 92.557 79.2603 93.9118Z" fill="#4A1A87"/>
<path opacity="0.06" d="M88.285 102.198C88.6142 101.43 88.7767 100.608 88.7634 99.7786C88.7501 98.9491 88.5612 98.1284 88.2075 97.3636C87.8538 96.5987 87.3422 95.9046 86.702 95.3208C86.0617 94.7371 85.3054 94.2752 84.4761 93.9615C83.6467 93.6477 82.7607 93.4883 81.8685 93.4923C80.9764 93.4963 80.0955 93.6637 79.2764 93.9848C78.4572 94.306 77.7158 94.7747 77.0944 95.3641C76.4729 95.9536 75.9837 96.6522 75.6546 97.4201C75.4002 98.0005 75.2463 98.6156 75.1986 99.2425L75.3619 98.8285C75.7208 98.0011 76.288 97.2674 77.0163 96.6885C77.7445 96.1096 78.6127 95.7022 79.5487 95.5004C80.4846 95.2985 81.4612 95.3081 82.397 95.5282C83.3327 95.7483 84.2005 96.1725 84.9283 96.7656C85.656 97.3587 86.2225 98.1035 86.5806 98.9379C86.9387 99.7723 87.078 100.672 86.9869 101.563C86.8958 102.453 86.577 103.308 86.0569 104.057C85.5369 104.805 84.8308 105.426 83.9973 105.866C84.9635 105.592 85.8497 105.121 86.5915 104.487C87.3332 103.852 87.9117 103.07 88.285 102.198Z" fill="black"/>
<path opacity="0.3" d="M79.9792 96.9293C80.09 96.8626 80.1763 96.7662 80.2266 96.6526C80.277 96.539 80.2891 96.4135 80.2615 96.2927C80.2338 96.1718 80.1676 96.0612 80.0716 95.9753C79.9755 95.8894 79.8541 95.8322 79.7232 95.8112C79.5923 95.7901 79.458 95.8063 79.3379 95.8575C79.2178 95.9088 79.1176 95.9927 79.0502 96.0983C78.9829 96.2039 78.9516 96.3262 78.9605 96.4494C78.9695 96.5725 79.0181 96.6906 79.1001 96.7882C79.1482 96.8513 79.2092 96.9051 79.2795 96.9464C79.3499 96.9877 79.4281 97.0157 79.5099 97.0289C79.5916 97.042 79.6752 97.0399 79.7557 97.0228C79.8363 97.0058 79.9122 96.974 79.9792 96.9293Z" fill="white"/>
<path opacity="0.3" d="M78.5367 99.7378C78.7354 99.6182 78.89 99.4452 78.9804 99.2416C79.0707 99.0379 79.0924 98.8129 79.0428 98.5962C78.9932 98.3795 78.8745 98.1811 78.7023 98.0271C78.53 97.873 78.3123 97.7704 78.0775 97.7327C77.8428 97.695 77.602 97.724 77.3867 97.8159C77.1713 97.9078 76.9915 98.0582 76.8708 98.2476C76.7501 98.4369 76.694 98.6564 76.71 98.8771C76.7259 99.0979 76.8132 99.3097 76.9603 99.4848C77.0465 99.598 77.1559 99.6944 77.282 99.7685C77.4081 99.8426 77.5485 99.8928 77.6951 99.9163C77.8416 99.9398 77.9914 99.9362 78.1359 99.9055C78.2804 99.8749 78.4166 99.8179 78.5367 99.7378Z" fill="white"/>
<path opacity="0.46" d="M6.3079 116.385C5.91265 115.701 5.12215 113.883 6.3079 111.822L42.0629 49.8604V27.4878H48.098V55.0771L33.5422 118.666H10.2528C7.8813 118.666 6.70315 117.07 6.3079 116.385Z" fill="#FFFEFF"/>
</svg>
