<svg width="105" height="82" viewBox="0 0 105 82" fill="none" xmlns="http://www.w3.org/2000/svg">
<path opacity="0.1" d="M52.7222 44.3197C81.2771 44.3197 104.428 48.8737 104.428 54.4899V71.5147C104.428 77.131 81.2771 81.6849 52.7222 81.6849C24.1673 81.6849 1.01663 77.131 1.01663 71.5147V54.4899C1.01663 48.8737 24.1635 44.3197 52.7222 44.3197Z" fill="url(#paint0_linear_2279_5049)"/>
<path opacity="0.5" d="M52.7217 61.9227C80.4313 61.9227 102.894 66.087 102.894 71.2255C102.894 76.3641 80.4313 80.5284 52.7217 80.5284C25.012 80.5284 2.54981 76.3641 2.54981 71.2255C2.54599 66.087 25.012 61.9227 52.7217 61.9227Z" fill="url(#paint1_linear_2279_5049)" stroke="#5181FF" stroke-width="0.213382"/>
<path opacity="0.4" d="M100.879 54.1316C100.879 54.1316 101.77 51.0202 81.4497 47.7359C61.1293 44.4517 28.5203 46.3594 17.6889 48.8359C6.85741 51.3125 2.98686 53.3208 4.28725 55.4485C4.28725 55.4485 15.7153 49.1439 36.1122 48.1036C56.5129 47.0634 73.5594 46.2148 100.879 54.1316Z" fill="url(#paint2_linear_2279_5049)"/>
<path d="M81.8637 7.27451H23.5678L10.9502 68.3865H11.0417C11.0417 73.2871 29.6085 77.2553 52.5098 77.2553C75.411 77.2553 93.9779 73.2871 93.9779 68.3865H94.4878L81.8637 7.27451Z" fill="#E47339"/>
<path d="M52.7235 63.8619C66.1404 63.8619 78.7579 62.8939 88.2507 61.1339C97.8392 59.355 103.117 56.9571 103.117 54.3768C103.117 51.7965 97.8353 49.3985 88.2469 47.6197C78.7541 45.8597 66.1366 44.8917 52.7197 44.8917C39.3028 44.8917 26.6852 45.8597 17.1924 47.6197C7.604 49.3985 2.32217 51.7965 2.32217 54.3768C2.32217 56.9571 7.604 59.355 17.1924 61.1339C26.689 62.8939 39.3066 63.8619 52.7235 63.8619ZM52.7235 45.2562C66.1098 45.2562 78.6929 46.2211 88.1513 47.978C97.3802 49.6877 102.674 52.0196 102.674 54.3768C102.674 56.7339 97.3802 59.0659 88.1513 60.7756C78.6891 62.5293 66.1098 63.4973 52.7235 63.4973C39.3372 63.4973 26.7541 62.5293 17.2957 60.7756C8.0668 59.0659 2.77347 56.7308 2.77347 54.3768C2.77347 52.0196 8.0668 49.6877 17.2957 47.978C26.7541 46.2211 39.3372 45.2562 52.7235 45.2562Z" fill="#C5D5FC"/>
<path opacity="0.4" d="M52.7222 44.3197C81.2771 44.3197 104.428 48.8737 104.428 54.4899V71.5147C104.428 77.131 81.2771 81.6849 52.7222 81.6849C24.1673 81.6849 1.01663 77.131 1.01663 71.5147V54.4899C1.01663 48.8737 24.1635 44.3197 52.7222 44.3197ZM8.05018 71.6561C8.42117 74.0415 10.7313 75.2012 10.7313 75.2012C16.9081 79.5415 49.1423 80.5315 49.1423 80.5315C78.4736 81.3927 98.8705 75.6318 100.733 74.0415C102.596 72.4513 102.221 70.3738 102.221 70.3738C102.221 70.3738 101.923 65.7853 102.221 62.479C102.519 59.1759 100.06 59.971 100.06 59.971C80.3324 67.1901 45.2679 65.9047 45.2679 65.9047C25.9878 65.3547 13.703 62.9693 10.8766 62.2967C8.04636 61.6242 8.04636 64.3773 8.04636 64.3773C8.04636 64.3773 7.67536 69.2707 8.05018 71.6561ZM52.7222 63.6796C80.4318 63.6796 102.894 59.5153 102.894 54.3768C102.894 49.2382 80.4318 45.074 52.7222 45.074C25.0125 45.074 2.55032 49.2382 2.55032 54.3768C2.54649 59.5153 25.0125 63.6796 52.7222 63.6796Z" fill="url(#paint3_linear_2279_5049)"/>
<path d="M52.722 81.8672C66.552 81.8672 79.552 80.8081 89.3355 78.8815C99.2107 76.9424 104.649 74.3244 104.649 71.5147V54.4899C104.649 51.6802 99.2107 49.0622 89.3355 47.1199C79.552 45.1965 66.5482 44.1374 52.722 44.1374C38.8959 44.1374 25.8921 45.1965 16.1086 47.1199C6.23331 49.0622 0.79464 51.6802 0.79464 54.4899V71.5147C0.79464 74.3244 6.23331 76.9424 16.1086 78.8846C25.8921 80.8081 38.8921 81.8672 52.722 81.8672ZM52.722 44.5019C66.5176 44.5019 79.4832 45.5579 89.2322 47.4751C98.7441 49.3482 104.202 51.9033 104.202 54.4899V71.5147C104.202 74.1012 98.7441 76.6564 89.2284 78.5263C79.4793 80.4435 66.5137 81.4995 52.7182 81.4995C38.9227 81.4995 25.9571 80.4435 16.208 78.5263C6.69226 76.6532 1.23447 74.0981 1.23447 71.5147V54.4899C1.23447 51.9033 6.69226 49.3482 16.208 47.4782C25.9609 45.5579 38.9265 44.5019 52.722 44.5019Z" fill="#99B9FF"/>
<path opacity="0.3" d="M103.2 69.7672C103.342 67.3472 103.269 64.9273 103.38 62.5104C103.437 61.2627 103.69 59.751 103.062 58.5724C102.343 57.2241 100.748 58.2896 99.5398 58.7139C100.959 57.6673 102.653 56.8407 103.403 55.329C103.793 54.5402 103.919 53.7576 103.858 52.9813C104.229 53.4747 104.428 53.9776 104.428 54.4899V71.5147C104.428 72.3915 103.866 73.2401 102.806 74.0509C102.986 72.6272 103.116 71.1972 103.2 69.7672Z" fill="url(#paint4_linear_2279_5049)"/>
<path opacity="0.3" d="M1.20463 53.6225C1.33084 54.6282 1.93514 55.6245 2.75361 56.4825C3.61799 57.3939 4.63918 58.1607 5.85924 58.739C6.94927 59.2576 8.10814 59.663 9.24023 60.1093C7.57651 59.9522 5.25495 58.8522 4.04253 60.0842C2.97928 61.1653 2.69625 69.6981 2.58151 70.9553C2.49354 71.9264 2.43235 72.9007 2.41322 73.875C1.49913 73.1175 1.00957 72.3287 1.00957 71.5147V54.4899C1.01722 54.1976 1.08224 53.9085 1.20463 53.6225Z" fill="url(#paint5_linear_2279_5049)"/>
<path opacity="0.7" d="M88.0088 63.5162C88.0088 63.5162 72.4386 66.2159 55.6139 66.153C55.6139 66.153 64.3495 66.4013 69.6619 66.7659C69.6619 66.7659 72.8631 66.5741 72.9894 68.4127C73.1156 70.2513 73.3604 79.1204 73.3604 79.1204L77.1774 78.8155V69.035C77.1774 69.035 77.0473 66.6841 80.4207 65.9487C83.794 65.2102 88.0088 63.5162 88.0088 63.5162Z" fill="white"/>
<path d="M52.722 64.8424C66.552 64.8424 79.552 63.7833 89.3355 61.8599C99.2107 59.9176 104.649 57.2996 104.649 54.4899C104.649 51.6802 99.2107 49.0622 89.3355 47.1199C79.552 45.1965 66.5482 44.1374 52.722 44.1374C38.8959 44.1374 25.8921 45.1965 16.1086 47.1199C6.23331 49.0622 0.79464 51.6802 0.79464 54.4899C0.79464 57.2996 6.23331 59.9176 16.1086 61.8599C25.8921 63.7833 38.8921 64.8424 52.722 64.8424ZM52.722 44.5019C66.5176 44.5019 79.4832 45.5579 89.2322 47.4751C98.7441 49.3482 104.202 51.9033 104.202 54.4899C104.202 57.0733 98.7441 59.6316 89.2284 61.5016C79.4793 63.4187 66.5137 64.4747 52.7182 64.4747C38.9227 64.4747 25.9571 63.4187 16.208 61.5016C6.69226 59.6316 1.23447 57.0733 1.23447 54.4899C1.23447 51.9033 6.69226 49.3482 16.208 47.4782C25.9609 45.5579 38.9265 44.5019 52.722 44.5019Z" fill="#99B9FF"/>
<path d="M15.0586 48.5031L15.3798 46.9445L54.4873 41.2355L90.0463 46.8828L90.384 48.5049L56.0932 48.3649L15.0586 48.5031Z" fill="#E47339"/>
<mask id="mask0_2279_5049" style="mask-type:alpha" maskUnits="userSpaceOnUse" x="10" y="7" width="85" height="54">
<path d="M81.8695 7.26703H23.5736L10.9561 53.5723H11.0476C11.0476 57.2856 29.6144 60.2923 52.5157 60.2923C75.4169 60.2923 93.9837 57.2856 93.9837 53.5723H94.4937L81.8695 7.26703Z" fill="#393B36"/>
</mask>
<g mask="url(#mask0_2279_5049)">
<path d="M31.6467 -3.3351L39.9759 -1.77871L36.2169 70.8945L21.4282 70.1739L31.6467 -3.3351Z" fill="white" fill-opacity="0.6"/>
<path d="M43.4048 11.4261L46.0545 11.4261L42.158 64.3799L40.7552 63.4367L43.4048 11.4261Z" fill="white" fill-opacity="0.6"/>
</g>
<path d="M52.7264 15.1587C68.9092 15.1587 82.028 11.9595 82.028 8.01296C82.028 4.06646 68.9092 0.867188 52.7264 0.867188C36.5436 0.867188 23.4248 4.06646 23.4248 8.01296C23.4248 11.9595 36.5436 15.1587 52.7264 15.1587Z" fill="#DC5F1F"/>
<defs>
<linearGradient id="paint0_linear_2279_5049" x1="52.7211" y1="37.1573" x2="52.7211" y2="64.8987" gradientUnits="userSpaceOnUse">
<stop stop-color="#C5D5FC"/>
<stop offset="0.1131" stop-color="#DCE6FD"/>
<stop offset="0.2469" stop-color="#EFF4FE"/>
<stop offset="0.3824" stop-color="#FBFCFF"/>
<stop offset="0.5211" stop-color="white"/>
<stop offset="0.611" stop-color="#FCFDFF"/>
<stop offset="0.6842" stop-color="#F2F5FF"/>
<stop offset="0.7514" stop-color="#E1E9FF"/>
<stop offset="0.8152" stop-color="#C9D8FF"/>
<stop offset="0.8765" stop-color="#AAC1FF"/>
<stop offset="0.9359" stop-color="#83A6FF"/>
<stop offset="0.9928" stop-color="#5785FF"/>
<stop offset="1" stop-color="#5181FF"/>
</linearGradient>
<linearGradient id="paint1_linear_2279_5049" x1="52.7203" y1="95.2765" x2="52.7203" y2="47.2987" gradientUnits="userSpaceOnUse">
<stop stop-color="#C5D5FC"/>
<stop offset="0.1131" stop-color="#DCE6FD"/>
<stop offset="0.2469" stop-color="#EFF4FE"/>
<stop offset="0.3824" stop-color="#FBFCFF"/>
<stop offset="0.5211" stop-color="white"/>
<stop offset="0.5964" stop-color="#F0F4FE"/>
<stop offset="0.7449" stop-color="#D8E3FD"/>
<stop offset="0.8832" stop-color="#CAD9FC"/>
<stop offset="1" stop-color="#C5D5FC"/>
</linearGradient>
<linearGradient id="paint2_linear_2279_5049" x1="52.4668" y1="32.8102" x2="52.4668" y2="57.06" gradientUnits="userSpaceOnUse">
<stop stop-color="#C5D5FC"/>
<stop offset="0.1131" stop-color="#DCE6FD"/>
<stop offset="0.2469" stop-color="#EFF4FE"/>
<stop offset="0.3824" stop-color="#FBFCFF"/>
<stop offset="0.5211" stop-color="white"/>
<stop offset="0.5964" stop-color="#F0F4FE"/>
<stop offset="0.7449" stop-color="#D8E3FD"/>
<stop offset="0.8832" stop-color="#CAD9FC"/>
<stop offset="1" stop-color="#C5D5FC"/>
</linearGradient>
<linearGradient id="paint3_linear_2279_5049" x1="79.5892" y1="63.0016" x2="-12.5925" y2="63.0016" gradientUnits="userSpaceOnUse">
<stop stop-color="#C5D5FC"/>
<stop offset="0.1131" stop-color="#DCE6FD"/>
<stop offset="0.2469" stop-color="#EFF4FE"/>
<stop offset="0.3824" stop-color="#FBFCFF"/>
<stop offset="0.5211" stop-color="white"/>
<stop offset="0.5959" stop-color="#F0F4FE"/>
<stop offset="0.7435" stop-color="#D8E3FD"/>
<stop offset="0.8808" stop-color="#CAD9FC"/>
<stop offset="0.9969" stop-color="#C5D5FC"/>
</linearGradient>
<linearGradient id="paint4_linear_2279_5049" x1="79.5885" y1="63.5154" x2="-12.5957" y2="63.5154" gradientUnits="userSpaceOnUse">
<stop stop-color="#B4BAC0"/>
<stop offset="0.044" stop-color="#C0C5CA"/>
<stop offset="0.161" stop-color="#DCDFE1"/>
<stop offset="0.2794" stop-color="#EFF1F2"/>
<stop offset="0.3988" stop-color="#FBFBFC"/>
<stop offset="0.5211" stop-color="white"/>
<stop offset="0.5409" stop-color="#F9FAFA"/>
<stop offset="0.6686" stop-color="#D8DBDE"/>
<stop offset="0.7909" stop-color="#C0C6CA"/>
<stop offset="0.9042" stop-color="#B2B9BE"/>
<stop offset="1" stop-color="#ADB4BA"/>
</linearGradient>
<linearGradient id="paint5_linear_2279_5049" x1="79.5887" y1="63.7477" x2="-12.5917" y2="63.7477" gradientUnits="userSpaceOnUse">
<stop stop-color="#B4BAC0"/>
<stop offset="0.044" stop-color="#C0C5CA"/>
<stop offset="0.161" stop-color="#DCDFE1"/>
<stop offset="0.2794" stop-color="#EFF1F2"/>
<stop offset="0.3988" stop-color="#FBFBFC"/>
<stop offset="0.5211" stop-color="white"/>
<stop offset="0.5409" stop-color="#F9FAFA"/>
<stop offset="0.6686" stop-color="#D8DBDE"/>
<stop offset="0.7909" stop-color="#C0C6CA"/>
<stop offset="0.9042" stop-color="#B2B9BE"/>
<stop offset="1" stop-color="#ADB4BA"/>
</linearGradient>
</defs>
</svg>
