<svg width="102" height="102" viewBox="0 0 102 102" fill="none" xmlns="http://www.w3.org/2000/svg">
<path d="M37.0215 26.4218V1.32483H64.2135V26.4294V26.5633L64.2804 26.6793L99.4501 87.6223L99.4501 87.6223C102.709 93.2667 98.6388 100.325 92.1226 100.325H9.11295C2.59609 100.318 -1.47384 93.2665 1.78487 87.6147C1.7849 87.6146 1.78493 87.6146 1.78496 87.6145L36.9546 26.6717L37.0215 26.5557V26.4218Z" fill="#FFFEFF" stroke="#5181FF"/>
<path d="M92.1157 96.4142C94.4872 96.4142 95.6654 94.8172 96.0606 94.1328C96.4559 93.4484 97.2464 91.6309 96.0606 89.5701L60.3057 27.6081V5.23547H40.9232V27.6157L5.16825 89.5701C3.9825 91.6309 4.773 93.4408 5.16825 94.1328C5.5635 94.8172 6.74165 96.4142 9.11315 96.4142H92.1157Z" fill="#C5F4FC" fill-opacity="0.2"/>
<path d="M17.4099 91.3476C17.9724 88.392 16.0061 85.5451 13.0181 84.9888C10.0302 84.4324 7.15207 86.3774 6.58965 89.333C6.02723 92.2886 7.99349 95.1357 10.9814 95.692C13.9694 96.2483 16.8475 94.3032 17.4099 91.3476Z" fill="#ED1D2C"/>
<path opacity="0.23" d="M7.80918 93.1053C8.18431 93.6499 8.66419 94.1162 9.22148 94.4774C9.77877 94.8386 10.4025 95.0876 11.0571 95.2104C11.7117 95.3331 12.3844 95.3271 13.0366 95.1927C13.6889 95.0583 14.308 94.7982 14.8586 94.4271C15.4092 94.056 15.8805 93.5813 16.2457 93.0301C16.6108 92.4788 16.8627 91.8618 16.9868 91.2143C17.1108 90.5668 17.1047 89.9014 16.9689 89.2562C16.833 88.611 16.57 87.9986 16.1949 87.454C15.9137 87.0388 15.568 86.6702 15.1707 86.3617L15.3787 86.6466C15.7811 87.2361 16.0353 87.9121 16.1202 88.6184C16.205 89.3247 16.118 90.0409 15.8664 90.7072C15.6148 91.3735 15.2058 91.9707 14.6736 92.449C14.1414 92.9273 13.5014 93.2729 12.8069 93.457C12.1123 93.6411 11.3833 93.6584 10.6807 93.5073C9.978 93.3563 9.32201 93.0414 8.76729 92.5889C8.21257 92.1363 7.77521 91.5591 7.49163 90.9055C7.20806 90.2519 7.08642 89.5407 7.13697 88.8312C6.92083 89.5482 6.86901 90.3039 6.98528 91.0433C7.10155 91.7827 7.38306 92.4871 7.80918 93.1053Z" fill="white"/>
<path opacity="0.3" d="M10.0589 86.9971C10.0572 87.1268 10.0951 87.254 10.1676 87.362C10.2402 87.4701 10.3441 87.5539 10.4656 87.6026C10.5872 87.6513 10.7207 87.6626 10.8488 87.6349C10.977 87.6072 11.0936 87.5419 11.1836 87.4476C11.2736 87.3532 11.3327 87.2342 11.3531 87.106C11.3735 86.9779 11.3543 86.8466 11.2981 86.7295C11.2418 86.6123 11.1511 86.5146 11.0378 86.4493C10.9245 86.384 10.7939 86.354 10.6632 86.3634C10.5813 86.3654 10.5006 86.3834 10.4259 86.4164C10.3511 86.4494 10.2837 86.4967 10.2275 86.5556C10.1713 86.6146 10.1275 86.6839 10.0986 86.7597C10.0697 86.8354 10.0562 86.9161 10.0589 86.9971Z" fill="#6E0A0D"/>
<path d="M38.4744 91.8372C39.0368 88.8816 37.0705 86.0346 34.0826 85.4783C31.0946 84.9219 28.2165 86.8669 27.6541 89.8225C27.0917 92.7781 29.0579 95.6252 32.0459 96.1815C35.0338 96.7378 37.912 94.7927 38.4744 91.8372Z" fill="#ED1D2C"/>
<path opacity="0.23" d="M28.8736 93.5948C29.2488 94.1394 29.7286 94.6057 30.2859 94.9669C30.8432 95.3281 31.467 95.5771 32.1216 95.6999C32.7762 95.8226 33.4488 95.8166 34.1011 95.6822C34.7533 95.5478 35.3724 95.2877 35.923 94.9166C36.4736 94.5455 36.945 94.0708 37.3101 93.5196C37.6753 92.9683 37.9271 92.3513 38.0512 91.7038C38.1753 91.0563 38.1692 90.3909 38.0333 89.7457C37.8975 89.1005 37.6345 88.4881 37.2593 87.9435C36.9782 87.5283 36.6325 87.1597 36.2351 86.8512L36.4432 87.1361C36.8456 87.7256 37.0998 88.4016 37.1846 89.1079C37.2694 89.8142 37.1825 90.5304 36.9309 91.1967C36.6792 91.863 36.2702 92.4602 35.738 92.9385C35.2058 93.4168 34.5659 93.7624 33.8713 93.9465C33.1768 94.1306 32.4478 94.1479 31.7451 93.9968C31.0425 93.8458 30.3865 93.5309 29.8317 93.0784C29.277 92.6258 28.8397 92.0486 28.5561 91.395C28.2725 90.7414 28.1509 90.0302 28.2014 89.3207C27.9853 90.0377 27.9335 90.7934 28.0497 91.5328C28.166 92.2722 28.4475 92.9766 28.8736 93.5948Z" fill="white"/>
<path opacity="0.3" d="M31.1234 87.4866C31.1216 87.6163 31.1595 87.7435 31.2321 87.8515C31.3046 87.9596 31.4085 88.0435 31.5301 88.0921C31.6516 88.1408 31.7852 88.1521 31.9133 88.1244C32.0414 88.0967 32.1581 88.0314 32.2481 87.9371C32.338 87.8427 32.3971 87.7237 32.4175 87.5955C32.438 87.4674 32.4188 87.3361 32.3625 87.219C32.3063 87.1018 32.2156 87.0041 32.1023 86.9388C31.989 86.8735 31.8584 86.8435 31.7276 86.8529C31.6458 86.8549 31.5651 86.8729 31.4903 86.9059C31.4155 86.9389 31.3481 86.9862 31.292 87.0451C31.2358 87.1041 31.192 87.1734 31.163 87.2492C31.1341 87.3249 31.1206 87.4056 31.1234 87.4866Z" fill="#6E0A0D"/>
<path d="M44.2644 80.3396C44.8269 77.384 42.8606 74.537 39.8726 73.9807C36.8847 73.4244 34.0066 75.3693 33.4441 78.3249C32.8817 81.2805 34.848 84.1276 37.8359 84.6839C40.8239 85.2403 43.702 83.2952 44.2644 80.3396Z" fill="#ED1D2C"/>
<path opacity="0.23" d="M34.6637 82.0972C35.0388 82.6419 35.5187 83.1081 36.076 83.4693C36.6333 83.8305 37.257 84.0796 37.9116 84.2023C38.5662 84.3251 39.2389 84.3191 39.8911 84.1847C40.5434 84.0503 41.1625 83.7901 41.7131 83.4191C42.2637 83.048 42.735 82.5733 43.1002 82.022C43.4653 81.4708 43.7172 80.8537 43.8412 80.2062C43.9653 79.5587 43.9592 78.8934 43.8234 78.2482C43.6875 77.603 43.4245 76.9906 43.0494 76.4459C42.7682 76.0308 42.4225 75.6622 42.0251 75.3536L42.2332 75.6386C42.6356 76.228 42.8898 76.9041 42.9747 77.6104C43.0595 78.3167 42.9725 79.0328 42.7209 79.6991C42.4693 80.3654 42.0603 80.9626 41.5281 81.4409C40.9959 81.9192 40.3559 82.2648 39.6614 82.4489C38.9668 82.633 38.2378 82.6503 37.5352 82.4993C36.8325 82.3483 36.1765 82.0334 35.6218 81.5808C35.0671 81.1282 34.6297 80.5511 34.3461 79.8975C34.0626 79.2438 33.9409 78.5326 33.9915 77.8231C33.7753 78.5402 33.7235 79.2959 33.8398 80.0352C33.956 80.7746 34.2376 81.479 34.6637 82.0972Z" fill="white"/>
<path opacity="0.3" d="M36.9134 75.989C36.9117 76.1187 36.9496 76.2459 37.0221 76.354C37.0947 76.462 37.1986 76.5459 37.3201 76.5946C37.4416 76.6433 37.5752 76.6545 37.7033 76.6268C37.8314 76.5992 37.9481 76.5339 38.0381 76.4395C38.1281 76.3451 38.1872 76.2261 38.2076 76.098C38.228 75.9698 38.2088 75.8386 38.1526 75.7214C38.0963 75.6042 38.0056 75.5066 37.8923 75.4413C37.779 75.3759 37.6484 75.346 37.5176 75.3553C37.4358 75.3573 37.3551 75.3753 37.2804 75.4083C37.2056 75.4413 37.1382 75.4887 37.082 75.5476C37.0258 75.6065 36.982 75.6758 36.9531 75.7516C36.9242 75.8274 36.9107 75.9081 36.9134 75.989Z" fill="#6E0A0D"/>
<path d="M48.513 74.8981C50.0536 73.3941 50.0658 70.9181 48.5403 69.3679C47.0149 67.8176 44.5293 67.7801 42.9888 69.2841C41.4482 70.7881 41.4359 73.2641 42.9613 74.8144C44.4868 76.3646 46.9724 76.4021 48.513 74.8981Z" fill="#ED1D2C"/>
<path opacity="0.23" d="M42.1592 71.9972C42.1563 72.4705 42.2469 72.9406 42.426 73.3808C42.6051 73.821 42.8691 74.2226 43.2029 74.5628C43.5368 74.9029 43.934 75.1749 44.3717 75.3632C44.8095 75.5515 45.2794 75.6524 45.7545 75.6602C46.2295 75.6679 46.7006 75.5824 47.1406 75.4085C47.5807 75.2346 47.9812 74.9757 48.3192 74.6465C48.6572 74.3174 48.9262 73.9245 49.1107 73.4902C49.2952 73.056 49.3917 72.5889 49.3947 72.1156C49.3997 71.7569 49.3479 71.399 49.2411 71.0552L49.2464 71.3076C49.2412 71.8183 49.1134 72.3191 48.8739 72.7683C48.6344 73.2175 48.29 73.6021 47.8695 73.8901C47.4489 74.178 46.9643 74.3609 46.4561 74.4236C45.9479 74.4863 45.4308 74.427 44.9479 74.2506C44.4649 74.0741 44.03 73.7857 43.6796 73.4092C43.3291 73.0328 43.0731 72.5794 42.933 72.0866C42.7928 71.5938 42.7726 71.076 42.8739 70.5763C42.9752 70.0766 43.1951 69.6094 43.5154 69.2138C43.0949 69.546 42.7549 69.9683 42.5203 70.4498C42.2857 70.9312 42.1624 71.4599 42.1592 71.9972Z" fill="white"/>
<path opacity="0.3" d="M45.9812 69.3344C45.927 69.4097 45.8972 69.4999 45.8955 69.593C45.8938 69.6862 45.9204 69.7779 45.9718 69.8563C46.0232 69.9346 46.0969 69.9959 46.1834 70.0322C46.27 70.0684 46.3652 70.0779 46.4566 70.0594C46.5481 70.0408 46.6315 69.9952 46.696 69.9283C46.7604 69.8615 46.8029 69.7767 46.8179 69.6849C46.8329 69.5931 46.8197 69.4986 46.7799 69.4139C46.7402 69.3291 46.6759 69.2581 46.5953 69.21C46.5464 69.1776 46.4917 69.1551 46.4343 69.1439C46.3769 69.1326 46.318 69.1328 46.2609 69.1443C46.2038 69.1559 46.1497 69.1787 46.1017 69.2113C46.0537 69.2439 46.0127 69.2857 45.9812 69.3344Z" fill="#6E0A0D"/>
<path d="M63.534 77.6489C64.0964 74.6933 62.1301 71.8464 59.1422 71.2901C56.1542 70.7337 53.2761 72.6787 52.7137 75.6343C52.1513 78.5899 54.1175 81.437 57.1055 81.9933C60.0934 82.5496 62.9715 80.6045 63.534 77.6489Z" fill="#ED1D2C"/>
<path opacity="0.23" d="M53.9332 79.4066C54.3083 79.9512 54.7882 80.4175 55.3455 80.7787C55.9028 81.1399 56.5265 81.3889 57.1811 81.5117C57.8357 81.6344 58.5084 81.6284 59.1606 81.494C59.8129 81.3596 60.432 81.0995 60.9826 80.7284C61.5332 80.3573 62.0046 79.8826 62.3697 79.3314C62.7348 78.7801 62.9867 78.1631 63.1108 77.5156C63.2349 76.8681 63.2288 76.2027 63.0929 75.5575C62.957 74.9123 62.694 74.2999 62.3189 73.7553C62.0377 73.3401 61.692 72.9715 61.2947 72.663L61.5027 72.9479C61.9052 73.5374 62.1594 74.2134 62.2442 74.9197C62.329 75.626 62.242 76.3422 61.9904 77.0085C61.7388 77.6748 61.3298 78.272 60.7976 78.7503C60.2654 79.2286 59.6255 79.5742 58.9309 79.7583C58.2364 79.9424 57.5074 79.9597 56.8047 79.8086C56.102 79.6576 55.446 79.3427 54.8913 78.8902C54.3366 78.4376 53.8992 77.8604 53.6157 77.2068C53.3321 76.5532 53.2104 75.842 53.261 75.1325C53.0449 75.8495 52.993 76.6052 53.1093 77.3446C53.2256 78.084 53.5071 78.7884 53.9332 79.4066Z" fill="white"/>
<path opacity="0.3" d="M56.183 73.2984C56.1812 73.4281 56.2191 73.5553 56.2917 73.6633C56.3642 73.7714 56.4681 73.8552 56.5896 73.9039C56.7112 73.9526 56.8447 73.9639 56.9729 73.9362C57.101 73.9085 57.2177 73.8432 57.3076 73.7489C57.3976 73.6545 57.4567 73.5355 57.4771 73.4073C57.4975 73.2792 57.4784 73.1479 57.4221 73.0308C57.3659 72.9136 57.2751 72.8159 57.1619 72.7506C57.0486 72.6853 56.918 72.6553 56.7872 72.6647C56.7053 72.6667 56.6247 72.6847 56.5499 72.7177C56.4751 72.7507 56.4077 72.798 56.3515 72.8569C56.2953 72.9159 56.2515 72.9852 56.2226 73.061C56.1937 73.1367 56.1802 73.2174 56.183 73.2984Z" fill="#6E0A0D"/>
<path d="M36.298 67.1127C36.9614 63.6265 34.6421 60.2685 31.1177 59.6123C27.5934 58.9561 24.1986 61.2502 23.5352 64.7364C22.8718 68.2226 25.191 71.5808 28.7154 72.237C32.2398 72.8932 35.6346 70.5989 36.298 67.1127Z" fill="#ED1D2C"/>
<path opacity="0.23" d="M24.9738 69.1859C25.4163 69.8284 25.9823 70.3783 26.6397 70.8044C27.297 71.2304 28.0327 71.5242 28.8048 71.669C29.577 71.8137 30.3704 71.8066 31.1397 71.6481C31.9091 71.4896 32.6393 71.1828 33.2888 70.7451C33.9382 70.3074 34.4942 69.7474 34.9249 69.0972C35.3556 68.447 35.6526 67.7192 35.799 66.9555C35.9454 66.1917 35.9382 65.4069 35.7779 64.6459C35.6177 63.8848 35.3075 63.1625 34.865 62.5201C34.5333 62.0304 34.1256 61.5956 33.6569 61.2317L33.9023 61.5678C34.377 62.263 34.6768 63.0605 34.7768 63.8936C34.8769 64.7267 34.7743 65.5714 34.4775 66.3573C34.1807 67.1432 33.6983 67.8476 33.0706 68.4118C32.4428 68.976 31.688 69.3836 30.8687 69.6008C30.0495 69.8179 29.1896 69.8383 28.3608 69.6602C27.532 69.4821 26.7582 69.1106 26.1039 68.5768C25.4496 68.043 24.9337 67.3622 24.5993 66.5913C24.2648 65.8203 24.1213 64.9814 24.1809 64.1445C23.926 64.9903 23.8649 65.8817 24.002 66.7538C24.1391 67.6259 24.4712 68.4567 24.9738 69.1859Z" fill="white"/>
<path opacity="0.3" d="M27.6274 61.9811C27.6253 62.1341 27.67 62.2842 27.7556 62.4116C27.8412 62.5391 27.9637 62.638 28.107 62.6954C28.2504 62.7528 28.4079 62.7661 28.5591 62.7335C28.7102 62.7008 28.8478 62.6238 28.9539 62.5125C29.0601 62.4012 29.1298 62.2608 29.1538 62.1096C29.1779 61.9585 29.1553 61.8037 29.089 61.6655C29.0226 61.5273 28.9156 61.4121 28.782 61.335C28.6484 61.258 28.4943 61.2227 28.34 61.2337C28.2435 61.236 28.1484 61.2573 28.0602 61.2962C27.972 61.3351 27.8924 61.3909 27.8262 61.4604C27.7599 61.5299 27.7083 61.6117 27.6741 61.7011C27.64 61.7905 27.6241 61.8857 27.6274 61.9811Z" fill="#6E0A0D"/>
<path d="M69.4592 93.6887C72.2233 91.3829 72.5668 87.2577 70.2265 84.4747C67.8862 81.6918 63.7483 81.3049 60.9843 83.6107C58.2203 85.9165 57.8767 90.0417 60.217 92.8247C62.5573 95.6077 66.6952 95.9944 69.4592 93.6887Z" fill="#ED1D2C"/>
<path opacity="0.23" d="M59.2475 88.0245C59.1808 88.8129 59.2705 89.6083 59.5116 90.3654C59.7526 91.1225 60.1402 91.8263 60.6523 92.4368C61.1644 93.0473 61.7908 93.5525 62.496 93.9234C63.2011 94.2944 63.971 94.5239 64.7619 94.5988C65.5527 94.6738 66.3489 94.5927 67.1051 94.3603C67.8612 94.1278 68.5625 93.7485 69.1689 93.244C69.7752 92.7395 70.2748 92.1197 70.639 91.42C71.0032 90.7203 71.2251 89.9544 71.2917 89.166C71.3469 88.5687 71.3072 87.9654 71.174 87.3784L71.15 87.7998C71.0746 88.6504 70.7964 89.4684 70.3385 90.1859C69.8807 90.9034 69.2566 91.4995 68.518 91.9245C67.7795 92.3495 66.9479 92.5912 66.0927 92.6294C65.2375 92.6676 64.3834 92.5012 63.6014 92.1441C62.8194 91.787 62.1323 91.2495 61.5972 90.5764C61.0622 89.9032 60.6947 89.114 60.5255 88.2744C60.3562 87.4348 60.39 86.5691 60.624 85.7494C60.8581 84.9298 61.2856 84.1798 61.871 83.5622C61.1268 84.0611 60.5051 84.7205 60.0513 85.4924C59.5974 86.2643 59.3229 87.1293 59.2475 88.0245Z" fill="white"/>
<path opacity="0.3" d="M65.9652 84.0848C65.8651 84.2034 65.8035 84.3497 65.7886 84.5047C65.7736 84.6597 65.806 84.8161 65.8814 84.9534C65.9568 85.0907 66.0718 85.2025 66.2113 85.2742C66.3507 85.3459 66.5082 85.3741 66.663 85.3552C66.8179 85.3362 66.9629 85.271 67.079 85.1681C67.1952 85.0651 67.2771 84.9292 67.3141 84.7781C67.3511 84.6271 67.3413 84.4679 67.2861 84.3215C67.231 84.1751 67.133 84.0482 67.005 83.9576C66.9278 83.8973 66.8395 83.8527 66.7453 83.8264C66.6511 83.8002 66.5529 83.7927 66.4562 83.8046C66.3595 83.8164 66.2664 83.8473 66.1821 83.8953C66.0978 83.9434 66.0241 84.0078 65.9652 84.0848Z" fill="#6E0A0D"/>
<path d="M46.7105 64.2265C48.3574 61.8002 47.7002 58.4926 45.2427 56.8387C42.7852 55.1847 39.4579 55.8108 37.8111 58.237C36.1642 60.6632 36.8213 63.9709 39.2788 65.6249C41.7364 67.2788 45.0637 66.6527 46.7105 64.2265Z" fill="#ED1D2C"/>
<path opacity="0.23" d="M37.4422 62.0834C37.567 62.7157 37.8158 63.3185 38.1745 63.8573C38.5333 64.396 38.9949 64.8602 39.5329 65.2233C40.071 65.5864 40.675 65.8414 41.3105 65.9736C41.946 66.1058 42.6004 66.1126 43.2366 65.9938C43.8727 65.8749 44.4781 65.6327 45.018 65.2809C45.558 64.9291 46.022 64.4746 46.3836 63.9434C46.7452 63.4122 46.9972 62.8146 47.1254 62.1849C47.2535 61.5552 47.2552 60.9056 47.1304 60.2732C47.0396 59.793 46.873 59.3295 46.6369 58.8998L46.7128 59.2352C46.8447 59.9182 46.8104 60.6213 46.613 61.2859C46.4155 61.9506 46.0606 62.5575 45.5777 63.0562C45.0947 63.5548 44.4978 63.9308 43.8366 64.1527C43.1754 64.3746 42.4692 64.4361 41.7767 64.332C41.0841 64.2279 40.4254 63.9612 39.8552 63.5542C39.2851 63.1472 38.8202 62.6117 38.4991 61.9922C38.178 61.3727 38.0101 60.6871 38.0094 59.9927C38.0087 59.2983 38.1751 58.615 38.4949 57.9999C38.024 58.5577 37.6852 59.2136 37.5031 59.92C37.321 60.6264 37.3002 61.3654 37.4422 62.0834Z" fill="white"/>
<path opacity="0.3" d="M41.8179 57.49C41.7661 57.6053 41.7508 57.7338 41.7739 57.8585C41.797 57.9833 41.8575 58.0985 41.9473 58.1891C42.0372 58.2796 42.1524 58.3414 42.2777 58.3662C42.403 58.391 42.5326 58.3778 42.6496 58.3282C42.7666 58.2786 42.8655 58.195 42.9334 58.0883C43.0013 57.9815 43.0349 57.8567 43.0299 57.7301C43.025 57.6035 42.9816 57.4811 42.9055 57.3788C42.8295 57.2765 42.7242 57.1992 42.6036 57.1569C42.5296 57.127 42.4505 57.1119 42.3709 57.1125C42.2912 57.1131 42.2126 57.1294 42.1395 57.1603C42.0665 57.1913 42.0004 57.2364 41.9452 57.293C41.89 57.3495 41.8468 57.4165 41.8179 57.49Z" fill="#6E0A0D"/>
<path d="M73.938 76.6808C75.3612 74.584 74.7933 71.7255 72.6695 70.2962C70.5456 68.8668 67.6702 69.4079 66.247 71.5046C64.8237 73.6014 65.3916 76.46 67.5154 77.8893C69.6392 79.3187 72.5147 78.7776 73.938 76.6808Z" fill="#ED1D2C"/>
<path opacity="0.23" d="M65.9274 74.8287C66.0353 75.3752 66.2503 75.8961 66.5603 76.3617C66.8704 76.8273 67.2692 77.2284 67.7342 77.5423C68.1992 77.8561 68.7213 78.0764 69.2704 78.1906C69.8196 78.3049 70.3852 78.3108 70.935 78.2081C71.4847 78.1054 72.0079 77.896 72.4745 77.592C72.9411 77.2879 73.3422 76.8952 73.6547 76.4361C73.9671 75.977 74.1849 75.4606 74.2957 74.9164C74.4064 74.3722 74.4079 73.8108 74.3001 73.2643C74.2215 72.8494 74.0776 72.4488 73.8736 72.0774L73.9391 72.3672C74.0531 72.9575 74.0235 73.5651 73.8529 74.1395C73.6822 74.7139 73.3755 75.2384 72.9582 75.6694C72.5408 76.1003 72.0249 76.4252 71.4535 76.617C70.8821 76.8088 70.2718 76.8619 69.6733 76.772C69.0748 76.682 68.5055 76.4515 68.0128 76.0998C67.5201 75.7481 67.1183 75.2852 66.8408 74.7499C66.5633 74.2145 66.4182 73.622 66.4176 73.0219C66.417 72.4218 66.5608 71.8313 66.8372 71.2997C66.4303 71.7817 66.1375 72.3486 65.9801 72.9591C65.8227 73.5695 65.8047 74.2082 65.9274 74.8287Z" fill="white"/>
<path opacity="0.3" d="M69.7097 70.859C69.6649 70.9587 69.6517 71.0697 69.6716 71.1775C69.6916 71.2853 69.7438 71.3849 69.8215 71.4632C69.8992 71.5415 69.9987 71.5948 70.107 71.6163C70.2153 71.6377 70.3273 71.6263 70.4284 71.5834C70.5295 71.5406 70.615 71.4683 70.6737 71.3761C70.7323 71.2838 70.7614 71.176 70.7571 71.0666C70.7528 70.9572 70.7153 70.8514 70.6496 70.763C70.5838 70.6746 70.4929 70.6077 70.3887 70.5712C70.3247 70.5454 70.2564 70.5323 70.1875 70.5328C70.1187 70.5333 70.0507 70.5474 69.9876 70.5741C69.9245 70.6009 69.8674 70.6399 69.8197 70.6888C69.772 70.7377 69.7346 70.7955 69.7097 70.859Z" fill="#6E0A0D"/>
<path d="M51.6541 62.3909C50.6235 65.3413 52.2074 68.5674 55.1919 69.5968C58.1764 70.6261 61.4313 69.0689 62.462 66.1185C63.4926 63.1682 61.9087 59.9419 58.9242 58.9126C55.9397 57.8832 52.6848 59.4406 51.6541 62.3909Z" fill="#ED1D2C"/>
<path opacity="0.23" d="M61.7877 62.0559C61.4857 61.4389 61.0641 60.8864 60.5469 60.4299C60.0297 59.9734 59.4271 59.622 58.7733 59.3956C58.1196 59.1692 57.4277 59.0723 56.7369 59.1105C56.0462 59.1486 55.3704 59.321 54.7478 59.6179C54.1253 59.9148 53.5683 60.3303 53.1087 60.8407C52.6491 61.3511 52.2958 61.9464 52.0691 62.5926C51.8425 63.2388 51.7468 63.9233 51.7875 64.607C51.8283 65.2907 52.0046 65.9602 52.3066 66.5772C52.5319 67.0468 52.8305 67.4784 53.1915 67.8563L53.0214 67.5317C52.6983 66.8644 52.5407 66.1309 52.5617 65.3923C52.5828 64.6537 52.7819 63.9313 53.1425 63.2853C53.5031 62.6393 54.0148 62.0884 54.6348 61.6785C55.2548 61.2686 55.9653 61.0116 56.707 60.9289C57.4488 60.8462 58.2004 60.9401 58.8992 61.2029C59.5979 61.4657 60.2237 61.8898 60.7242 62.4397C61.2248 62.9897 61.5857 63.6496 61.7769 64.3646C61.9681 65.0795 61.9841 65.8288 61.8235 66.55C62.1554 65.8465 62.3244 65.078 62.3182 64.3006C62.312 63.5232 62.1307 62.7564 61.7877 62.0559Z" fill="white"/>
<path opacity="0.3" d="M58.5403 67.9867C58.562 67.8537 58.5426 67.7172 58.4846 67.5951C58.4266 67.473 58.3327 67.3709 58.2153 67.3023C58.0979 67.2336 57.9624 67.2016 57.8265 67.2104C57.6907 67.2192 57.5608 67.2684 57.4539 67.3516C57.347 67.4347 57.2681 67.548 57.2275 67.6765C57.1868 67.805 57.1864 67.9428 57.2263 68.0718C57.2661 68.2008 57.3444 68.315 57.4507 68.3995C57.5571 68.4839 57.6867 68.5347 57.8225 68.5452C57.9069 68.5557 57.9925 68.5495 58.0744 68.5271C58.1563 68.5046 58.2328 68.4663 58.2995 68.4144C58.3663 68.3625 58.4219 68.2979 58.4632 68.2245C58.5046 68.1511 58.5308 68.0703 58.5403 67.9867Z" fill="#6E0A0D"/>
<path d="M46.8465 50.6369C45.8159 53.5873 47.3998 56.8134 50.3843 57.8427C53.3688 58.8721 56.6237 57.3148 57.6543 54.3645C58.685 51.4141 57.1011 48.1879 54.1166 47.1586C51.1321 46.1292 47.8771 47.6866 46.8465 50.6369Z" fill="#ED1D2C"/>
<path opacity="0.23" d="M56.9801 50.3019C56.6781 49.6849 56.2565 49.1323 55.7393 48.6759C55.2221 48.2194 54.6194 47.868 53.9657 47.6416C53.312 47.4152 52.62 47.3183 51.9293 47.3564C51.2386 47.3946 50.5627 47.567 49.9402 47.8639C49.3177 48.1607 48.7607 48.5762 48.3011 49.0866C47.8415 49.597 47.4882 50.1924 47.2615 50.8386C47.0348 51.4848 46.9392 52.1693 46.9799 52.853C47.0206 53.5367 47.197 54.2061 47.499 54.8232C47.7242 55.2927 48.0229 55.7244 48.3839 56.1023L48.2138 55.7777C47.8906 55.1104 47.7331 54.3769 47.7541 53.6383C47.7752 52.8996 47.9743 52.1772 48.3349 51.5312C48.6954 50.8853 49.2072 50.3344 49.8272 49.9245C50.4472 49.5146 51.1576 49.2576 51.8994 49.1749C52.6412 49.0922 53.3928 49.1861 54.0916 49.4489C54.7903 49.7117 55.416 50.1357 55.9166 50.6857C56.4172 51.2356 56.7781 51.8956 56.9693 52.6105C57.1605 53.3255 57.1765 54.0748 57.0158 54.796C57.3478 54.0924 57.5168 53.324 57.5106 52.5466C57.5044 51.7692 57.3231 51.0023 56.9801 50.3019Z" fill="white"/>
<path opacity="0.3" d="M53.7327 56.2327C53.7544 56.0997 53.735 55.9632 53.677 55.8411C53.619 55.7189 53.5251 55.6169 53.4077 55.5482C53.2903 55.4796 53.1548 55.4476 53.0189 55.4564C52.8831 55.4652 52.7532 55.5144 52.6463 55.5975C52.5394 55.6807 52.4605 55.794 52.4198 55.9225C52.3792 56.051 52.3788 56.1888 52.4187 56.3178C52.4585 56.4468 52.5367 56.561 52.6431 56.6454C52.7495 56.7299 52.8791 56.7807 53.0149 56.7912C53.0993 56.8017 53.1849 56.7955 53.2668 56.773C53.3487 56.7506 53.4252 56.7123 53.4919 56.6604C53.5587 56.6084 53.6143 56.5439 53.6556 56.4705C53.697 56.3971 53.7232 56.3163 53.7327 56.2327Z" fill="#6E0A0D"/>
<path d="M56.6566 93.5227C59.5136 90.2308 59.1246 85.2331 55.7876 82.3602C52.4507 79.4873 47.4296 79.8269 44.5726 83.1189C41.7155 86.4109 42.1045 91.4086 45.4414 94.2816C48.7784 97.1545 53.7996 96.8147 56.6566 93.5227Z" fill="#ED1D2C"/>
<path opacity="0.23" d="M43.3523 88.7314C43.4255 89.6868 43.6869 90.6202 44.1218 91.4784C44.5567 92.3367 45.1564 93.1029 45.8869 93.7334C46.6173 94.3639 47.4641 94.8463 48.3789 95.153C49.2936 95.4597 50.2584 95.5848 51.2183 95.5211C52.1782 95.4574 53.1142 95.2062 53.973 94.7817C54.8318 94.3573 55.5966 93.7679 56.2236 93.0474C56.8506 92.3268 57.3276 91.4891 57.6273 90.5821C57.9271 89.6751 58.0437 88.7165 57.9706 87.7612C57.9208 87.0365 57.7563 86.3231 57.4834 85.6473L57.5364 86.1556C57.6111 87.187 57.4371 88.2188 57.0289 89.1651C56.6207 90.1115 55.9903 90.945 55.1898 91.5963C54.3894 92.2475 53.4422 92.6975 52.4273 92.909C51.4124 93.1204 50.3593 93.0871 49.3553 92.8118C48.3514 92.5365 47.4258 92.0272 46.6558 91.3263C45.8857 90.6254 45.2935 89.7533 44.9284 88.7825C44.5633 87.8116 44.4359 86.7703 44.5568 85.7451C44.6777 84.72 45.0433 83.7407 45.6234 82.8889C44.8304 83.6295 44.2151 84.5382 43.8223 85.5489C43.4294 86.5596 43.2689 87.6468 43.3523 88.7314Z" fill="white"/>
<path opacity="0.3" d="M50.6187 82.72C50.5221 82.8812 50.4769 83.0681 50.4891 83.2562C50.5012 83.4444 50.5702 83.6251 50.687 83.7746C50.8038 83.9241 50.9628 84.0354 51.1435 84.0941C51.3241 84.1528 51.5178 84.156 51.6992 84.1033C51.8806 84.0507 52.0413 83.9446 52.1602 83.799C52.2791 83.6534 52.3507 83.4751 52.3656 83.2873C52.3804 83.0996 52.3379 82.9112 52.2436 82.7469C52.1493 82.5826 52.0076 82.45 51.837 82.3664C51.733 82.3093 51.6189 82.2731 51.5012 82.26C51.3835 82.2468 51.2646 82.257 51.1513 82.2899C51.0381 82.3228 50.9327 82.3777 50.8413 82.4515C50.7499 82.5254 50.6742 82.6166 50.6187 82.72Z" fill="#6E0A0D"/>
<path d="M89.2817 91.9928C92.8555 87.8748 92.3689 81.6232 88.1946 78.0294C84.0204 74.4356 77.7394 74.8605 74.1655 78.9785C70.5916 83.0964 71.0782 89.3482 75.2524 92.942C79.4266 96.5358 85.7078 96.1108 89.2817 91.9928Z" fill="#ED1D2C"/>
<path opacity="0.23" d="M72.6391 85.9993C72.7305 87.1944 73.0576 88.362 73.6016 89.4356C74.1456 90.5092 74.8959 91.4677 75.8096 92.2564C76.7233 93.0451 77.7825 93.6485 78.9268 94.0322C80.0712 94.4159 81.2781 94.5724 82.4788 94.4927C83.6794 94.413 84.8504 94.0987 85.9247 93.5678C86.999 93.0368 87.9556 92.2996 88.74 91.3982C89.5243 90.4968 90.1209 89.4489 90.4959 88.3143C90.8709 87.1798 91.0168 85.9807 90.9253 84.7857C90.863 83.8791 90.6573 82.9867 90.3159 82.1413L90.3822 82.7772C90.4757 84.0673 90.258 85.3581 89.7474 86.5419C89.2368 87.7257 88.4481 88.7684 87.4468 89.583C86.4456 90.3976 85.2607 90.9606 83.9911 91.2251C82.7216 91.4896 81.4042 91.448 80.1483 91.1036C78.8925 90.7592 77.7346 90.1221 76.7714 89.2453C75.8081 88.3686 75.0673 87.2776 74.6106 86.0632C74.1539 84.8488 73.9945 83.5461 74.1457 82.2637C74.297 80.9814 74.7543 79.7564 75.48 78.6908C74.4881 79.6173 73.7184 80.754 73.2269 82.0183C72.7355 83.2825 72.5347 84.6426 72.6391 85.9993Z" fill="white"/>
<path opacity="0.3" d="M81.7283 78.4795C81.6074 78.6811 81.5509 78.9149 81.5661 79.1503C81.5813 79.3857 81.6676 79.6117 81.8137 79.7987C81.9598 79.9857 82.1588 80.125 82.3847 80.1984C82.6106 80.2718 82.8529 80.2758 83.0799 80.2099C83.3068 80.144 83.5078 80.0113 83.6565 79.8292C83.8053 79.6471 83.8948 79.424 83.9134 79.1892C83.9321 78.9544 83.8789 78.7187 83.7609 78.5132C83.643 78.3076 83.4657 78.1417 83.2523 78.0371C83.1222 77.9657 82.9794 77.9204 82.8322 77.904C82.685 77.8876 82.5363 77.9003 82.3946 77.9415C82.2529 77.9826 82.1211 78.0513 82.0067 78.1437C81.8924 78.236 81.7977 78.3501 81.7283 78.4795Z" fill="#6E0A0D"/>
<path d="M78.5168 62.8579C79.1801 59.3717 76.8609 56.0136 73.3365 55.3574C69.8121 54.7012 66.4173 56.9954 65.7539 60.4816C65.0905 63.9678 67.4098 67.326 70.9342 67.9822C74.4585 68.6384 77.8534 66.3441 78.5168 62.8579Z" fill="#ED1D2C"/>
<path opacity="0.23" d="M67.1926 64.9311C67.635 65.5736 68.2011 66.1235 68.8584 66.5495C69.5157 66.9756 70.2515 67.2694 71.0236 67.4141C71.7957 67.5589 72.5891 67.5518 73.3585 67.3933C74.1278 67.2348 74.8581 66.9279 75.5075 66.4902C76.157 66.0526 76.7129 65.4926 77.1436 64.8424C77.5743 64.1922 77.8714 63.4644 78.0178 62.7006C78.1641 61.9369 78.1569 61.1521 77.9967 60.3911C77.8364 59.63 77.5262 58.9077 77.0837 58.2652C76.7521 57.7756 76.3443 57.3408 75.8756 56.9769L76.121 57.3129C76.5957 58.0082 76.8955 58.8056 76.9956 59.6387C77.0956 60.4719 76.9931 61.3165 76.6963 62.1025C76.3995 62.8884 75.917 63.5928 75.2893 64.157C74.6616 64.7212 73.9067 65.1288 73.0875 65.346C72.2682 65.5631 71.4084 65.5835 70.5796 65.4054C69.7507 65.2272 68.977 64.8558 68.3227 64.322C67.6684 63.7882 67.1525 63.1074 66.818 62.3364C66.4835 61.5655 66.34 60.7266 66.3997 59.8897C66.1447 60.7355 66.0836 61.6269 66.2207 62.4989C66.3579 63.371 66.6899 64.2019 67.1926 64.9311Z" fill="white"/>
<path opacity="0.3" d="M69.8461 57.7263C69.844 57.8793 69.8887 58.0293 69.9743 58.1568C70.0599 58.2842 70.1824 58.3832 70.3258 58.4406C70.4692 58.498 70.6267 58.5113 70.7778 58.4786C70.9289 58.446 71.0666 58.369 71.1727 58.2577C71.2788 58.1464 71.3485 58.006 71.3726 57.8548C71.3967 57.7037 71.3741 57.5489 71.3077 57.4107C71.2414 57.2724 71.1344 57.1573 71.0007 57.0802C70.8671 57.0032 70.7131 56.9678 70.5588 56.9788C70.4622 56.9812 70.3671 57.0024 70.2789 57.0414C70.1907 57.0803 70.1112 57.1361 70.0449 57.2056C69.9787 57.2751 69.927 57.3569 69.8929 57.4463C69.8588 57.5357 69.8428 57.6308 69.8461 57.7263Z" fill="#6E0A0D"/>
<path d="M43.881 50.609C44.5444 47.1228 42.2251 43.7648 38.7008 43.1086C35.1764 42.4524 31.7816 44.7465 31.1182 48.2327C30.4548 51.7189 32.774 55.0771 36.2984 55.7333C39.8228 56.3895 43.2176 54.0952 43.881 50.609Z" fill="#ED1D2C"/>
<path opacity="0.23" d="M32.5568 52.6823C32.9993 53.3247 33.5653 53.8746 34.2227 54.3007C34.88 54.7267 35.6157 55.0205 36.3878 55.1653C37.16 55.31 37.9534 55.303 38.7227 55.1444C39.4921 54.9859 40.2223 54.6791 40.8718 54.2414C41.5212 53.8037 42.0772 53.2438 42.5079 52.5935C42.9386 51.9433 43.2357 51.2155 43.382 50.4518C43.5284 49.688 43.5212 48.9032 43.3609 48.1422C43.2007 47.3812 42.8905 46.6588 42.448 46.0164C42.1163 45.5267 41.7086 45.0919 41.2399 44.728L41.4853 45.0641C41.96 45.7593 42.2598 46.5568 42.3599 47.3899C42.4599 48.223 42.3573 49.0677 42.0605 49.8536C41.7637 50.6395 41.2813 51.3439 40.6536 51.9081C40.0258 52.4723 39.271 52.8799 38.4517 53.0971C37.6325 53.3142 36.7726 53.3346 35.9438 53.1565C35.115 52.9784 34.3412 52.6069 33.6869 52.0731C33.0326 51.5393 32.5167 50.8585 32.1823 50.0876C31.8478 49.3166 31.7043 48.4777 31.7639 47.6408C31.509 48.4866 31.4479 49.378 31.585 50.2501C31.7221 51.1222 32.0542 51.953 32.5568 52.6823Z" fill="white"/>
<path opacity="0.3" d="M35.2104 45.4774C35.2083 45.6304 35.253 45.7805 35.3386 45.9079C35.4242 46.0354 35.5467 46.1343 35.69 46.1917C35.8334 46.2492 35.991 46.2624 36.1421 46.2298C36.2932 46.1971 36.4308 46.1201 36.537 46.0088C36.6431 45.8975 36.7128 45.7571 36.7369 45.6059C36.7609 45.4548 36.7383 45.3 36.672 45.1618C36.6056 45.0236 36.4986 44.9084 36.365 44.8314C36.2314 44.7543 36.0773 44.719 35.9231 44.73C35.8265 44.7323 35.7314 44.7536 35.6432 44.7925C35.555 44.8314 35.4755 44.8872 35.4092 44.9567C35.3429 45.0262 35.2913 45.108 35.2571 45.1974C35.223 45.2868 35.2071 45.382 35.2104 45.4774Z" fill="#6E0A0D"/>
<path d="M29.6219 87.0838C32.8762 83.334 32.4331 77.6414 28.6321 74.3689C24.8311 71.0964 19.1117 71.4833 15.8574 75.2331C12.6031 78.9829 13.0461 84.6757 16.8471 87.9481C20.6481 91.2206 26.3676 90.8336 29.6219 87.0838Z" fill="#ED1D2C"/>
<path opacity="0.23" d="M14.4679 81.6262C14.5512 82.7144 14.8489 83.7776 15.3443 84.7552C15.8397 85.7328 16.5229 86.6056 17.3549 87.3238C18.1869 88.0419 19.1514 88.5914 20.1934 88.9408C21.2354 89.2902 22.3344 89.4327 23.4277 89.3601C24.5211 89.2876 25.5873 89.0014 26.5655 88.5179C27.5437 88.0344 28.4149 87.3631 29.1291 86.5424C29.8433 85.7216 30.3866 84.7674 30.728 83.7342C31.0695 82.7011 31.2023 81.6093 31.119 80.5211C31.0623 79.6956 30.875 78.8829 30.5641 78.1131L30.6245 78.6922C30.7096 79.867 30.5114 81.0423 30.0464 82.1202C29.5815 83.1982 28.8633 84.1477 27.9516 84.8894C27.0398 85.6312 25.9609 86.1439 24.8049 86.3847C23.6489 86.6256 22.4492 86.5876 21.3057 86.2741C20.1621 85.9605 19.1078 85.3803 18.2307 84.582C17.3536 83.7836 16.679 82.7902 16.2631 81.6843C15.8472 80.5785 15.7021 79.3923 15.8398 78.2246C15.9775 77.0569 16.394 75.9414 17.0547 74.9712C16.1515 75.8148 15.4507 76.8499 15.0032 78.0011C14.5556 79.1523 14.3729 80.3907 14.4679 81.6262Z" fill="white"/>
<path opacity="0.3" d="M22.7449 74.7788C22.6348 74.9623 22.5833 75.1752 22.5972 75.3896C22.611 75.6039 22.6896 75.8097 22.8226 75.98C22.9556 76.1503 23.1368 76.2771 23.3426 76.344C23.5483 76.4108 23.7689 76.4144 23.9756 76.3544C24.1822 76.2945 24.3652 76.1736 24.5007 76.0078C24.6361 75.842 24.7176 75.6388 24.7346 75.425C24.7516 75.2112 24.7032 74.9966 24.5957 74.8094C24.4883 74.6222 24.3269 74.4712 24.1325 74.376C24.0141 74.3109 23.8841 74.2697 23.7501 74.2547C23.616 74.2398 23.4806 74.2514 23.3516 74.2888C23.2225 74.3263 23.1025 74.3889 22.9984 74.473C22.8943 74.557 22.8081 74.661 22.7449 74.7788Z" fill="#6E0A0D"/>
<path opacity="0.46" d="M5.16825 94.1328C4.773 93.4484 3.9825 91.6309 5.16825 89.5701L40.9232 27.6081V5.23547H46.9584V32.8248L32.4025 96.4142H9.11315C6.74165 96.4142 5.5635 94.8172 5.16825 94.1328Z" fill="#FFFEFF"/>
</svg>
