<svg width="102" height="104" viewBox="0 0 102 104" fill="none" xmlns="http://www.w3.org/2000/svg">
<path d="M37.2774 25.6618V0.564819H64.4693V25.6694V25.8033L64.5363 25.9193L99.706 86.8623L99.706 86.8623C102.965 92.5067 98.8946 99.5648 92.3784 99.5648H9.36881C2.85195 99.5576 -1.21798 92.5065 2.04073 86.8547C2.04076 86.8546 2.04079 86.8546 2.04082 86.8545L37.2104 25.9117L37.2774 25.7957V25.6618Z" fill="#FFFEFF" stroke="#5181FF"/>
<path d="M92.3716 95.6542C94.7431 95.6542 95.9212 94.0572 96.3165 93.3728C96.7117 92.6884 97.5022 90.8709 96.3165 88.8101L60.5615 26.8481V4.47546H41.1791V26.8557L5.42411 88.8101C4.23836 90.8709 5.02886 92.6808 5.42411 93.3728C5.81936 94.0572 6.99751 95.6542 9.36901 95.6542H92.3716Z" fill="#C5F4FC" fill-opacity="0.2"/>
<path fill-rule="evenodd" clip-rule="evenodd" d="M50.186 62.7706L43.7715 73.3717C49.4089 75.8095 62.3994 77.7621 69.5705 66.2587L69.5723 66.2597C69.5999 66.2141 69.6274 66.1684 69.6546 66.1228C69.68 66.0812 69.7055 66.0395 69.7308 65.9976L69.7291 65.9966C76.592 54.3067 68.8348 43.7052 64.0596 39.8425L57.645 50.4436C58.848 53.1058 57.5238 56.674 56.6455 58.2576C55.6511 59.7699 53.1038 62.6009 50.186 62.7706Z" fill="#FF9784"/>
<path fill-rule="evenodd" clip-rule="evenodd" d="M50.186 62.7706L43.7715 73.3717C48.8475 75.4697 60.7193 76.7455 67.8738 65.232L67.8754 65.233C67.9032 65.1871 67.9308 65.1412 67.9581 65.0953C67.9834 65.054 68.0087 65.0125 68.0339 64.9709L68.0324 64.97C74.9119 53.2901 68.2733 43.3655 64.0596 39.8425L57.645 50.4436C58.6258 52.9714 57.2359 56.4995 56.3513 58.0794C55.3632 59.5955 52.8817 62.4664 50.186 62.7706Z" fill="#FFD69E"/>
<path fill-rule="evenodd" clip-rule="evenodd" d="M50.1172 62.8847C52.2332 63.6959 55.6028 63.7013 58.0911 59.4446C60.5635 55.2151 59.2259 52.0074 57.7131 50.3312L57.614 50.4949C58.5951 53.0235 57.2041 56.553 56.3195 58.1322C55.3312 59.6484 52.8499 62.5188 50.1546 62.8229L50.1172 62.8847Z" fill="#E88F7D"/>
<path d="M62.7229 46.9855C61.3492 48.5633 62.9446 51.0904 63.9139 52.1567C66.597 53.7802 67.0859 51.458 67.0578 48.6919C67.0297 45.9258 64.4399 45.0133 62.7229 46.9855Z" fill="white" fill-opacity="0.2"/>
<path d="M68.55 57.0548C68.7413 56.0076 67.3867 55.3162 66.6856 55.1014C65.0898 55.088 65.4791 56.2311 66.2099 57.4342C66.9407 58.6373 68.311 58.3639 68.55 57.0548Z" fill="white" fill-opacity="0.2"/>
<path d="M11.9873 78.6091L22.5346 78.3279L24.7028 94.5395H11.0205L11.9873 78.6091Z" fill="#FF9784"/>
<path d="M13.291 80.245L23.9961 79.8589L26.0065 94.5395H12.3242L13.291 80.245Z" fill="#FFD69E"/>
<path d="M24.0264 79.8812L22.5352 78.3279L11.9844 78.5934L13.3256 80.2491L24.0264 79.8812Z" fill="#E88F7D"/>
<path d="M16.8253 85.0935C17.4408 84.8593 17.373 83.9209 17.2621 83.481C16.7581 82.632 16.2777 83.2042 15.875 83.9763C15.4722 84.7485 16.0558 85.3862 16.8253 85.0935Z" fill="white" fill-opacity="0.2"/>
<path d="M81.7906 79.2782L90.4352 80.5517L89.8939 94.086L78.732 92.1363L81.7906 79.2782Z" fill="#FF9784"/>
<path d="M82.6214 80.7985L91.4095 82.0089L90.9577 94.2718L79.7958 92.3221L82.6214 80.7985Z" fill="#FFD69E"/>
<path d="M91.4306 82.0314L90.4355 80.5518L81.7903 79.265L82.6485 80.8067L91.4306 82.0314Z" fill="#E88F7D"/>
<path d="M84.814 85.2575C85.3495 85.1542 85.4279 84.379 85.4001 84.0043C85.1099 83.2399 84.6365 83.6382 84.1979 84.2108C83.7593 84.7833 84.1446 85.3867 84.814 85.2575Z" fill="white" fill-opacity="0.2"/>
<path d="M33.0127 48.4332L42.2779 46.9653L46.0644 61.0054L34.0032 62.5881L33.0127 48.4332Z" fill="#FF9784"/>
<path d="M34.352 49.7244L43.7441 48.1458L47.2145 60.8545L35.1532 62.4372L34.352 49.7244Z" fill="#FFD69E"/>
<path d="M43.7735 48.1621L42.2793 46.9653L33.0092 48.4198L34.3831 49.7242L43.7735 48.1621Z" fill="#E88F7D"/>
<path d="M38.0285 53.5896C38.544 53.312 38.3757 52.4926 38.2271 52.1176C37.6846 51.4275 37.3273 51.9875 37.0616 52.7147C36.7959 53.442 37.3841 53.9367 38.0285 53.5896Z" fill="white" fill-opacity="0.2"/>
<path d="M77.1952 84.214L75.4401 92.903L61.758 91.6268L64.3334 80.4238L77.1952 84.214Z" fill="#FF9784"/>
<path d="M75.6093 84.9743L73.9104 93.8122L61.5116 92.695L64.087 81.4921L75.6093 84.9743Z" fill="#FFD69E"/>
<path d="M73.8873 93.8324L75.4398 92.9039L77.2084 84.2149L75.6003 85.0015L73.8873 93.8324Z" fill="#E88F7D"/>
<path d="M70.9757 86.9555C71.0515 87.5035 71.8327 87.6246 72.2137 87.6166C73.0037 87.3638 72.6257 86.8627 72.0692 86.3876C71.5128 85.9125 70.8808 86.2703 70.9757 86.9555Z" fill="white" fill-opacity="0.2"/>
<path d="M70.3782 69.7254L77.1982 67.1214L82.3337 77.2055L73.403 80.3454L70.3782 69.7254Z" fill="#FF9784"/>
<path d="M71.6054 70.4941L78.5042 67.7854L83.1855 76.9064L74.2547 80.0463L71.6054 70.4941Z" fill="#FFD69E"/>
<path d="M78.5291 67.793L77.1993 67.1213L70.3734 69.7159L71.6288 70.4888L78.5291 67.793Z" fill="#E88F7D"/>
<path d="M75.0246 72.8473C75.3727 72.5532 75.113 71.9562 74.9397 71.6945C74.4159 71.2561 74.2337 71.7398 74.148 72.3362C74.0623 72.9326 74.5896 73.215 75.0246 72.8473Z" fill="white" fill-opacity="0.2"/>
<path fill-rule="evenodd" clip-rule="evenodd" d="M35.6484 67.7288L24.21 58.8431C20.6149 65.0579 16.5857 79.876 28.9696 89.7624L28.9681 89.7643C29.0153 89.8009 29.0625 89.8373 29.1097 89.8735C29.1564 89.9103 29.2034 89.947 29.2505 89.9836L29.252 89.9818C41.8939 99.536 55.2553 91.9673 60.3879 86.9469L48.9495 78.0613C45.6944 79.0972 41.7301 77.0745 40.0112 75.84C38.39 74.4799 35.4497 71.1389 35.6484 67.7288Z" fill="#FF9784"/>
<path fill-rule="evenodd" clip-rule="evenodd" d="M35.6484 67.7288L24.21 58.8431C21.0855 64.4521 17.9939 78.0632 30.3917 87.9317L30.3905 87.9333C30.4376 87.97 30.4848 88.0064 30.532 88.0426C30.5787 88.0794 30.6257 88.1161 30.6728 88.1527L30.6741 88.151C43.3022 97.7232 55.7258 91.3615 60.3879 86.9469L48.9495 78.0613C45.8806 78.8575 41.9715 76.7637 40.2579 75.5225C38.6314 74.1691 35.6359 70.8991 35.6484 67.7288Z" fill="#FFD69E"/>
<path fill-rule="evenodd" clip-rule="evenodd" d="M35.5264 67.6343C34.2974 69.981 33.834 73.8927 38.4389 77.3593C43.0143 80.8037 46.9201 79.6856 49.0715 78.1564L48.8932 78.018C45.8244 78.8141 41.9153 76.7204 40.2017 75.4791C38.5752 74.1257 35.5797 70.8558 35.5922 67.6854L35.5264 67.6343Z" fill="#E88F7D"/>
<path d="M52.2758 84.4258C50.6302 82.6169 47.4797 84.1264 46.1102 85.1072C43.8613 88.0022 46.4912 88.8848 49.7066 89.2274C52.922 89.57 54.3328 86.6869 52.2758 84.4258Z" fill="white" fill-opacity="0.2"/>
<path d="M39.795 89.826C40.985 90.1901 41.9715 88.7112 42.316 87.9263C42.548 86.0753 41.168 86.3722 39.672 87.0576C38.176 87.7429 38.3076 89.371 39.795 89.826Z" fill="white" fill-opacity="0.2"/>
<path opacity="0.46" d="M5.42411 93.3728C5.02886 92.6884 4.23836 90.8709 5.42411 88.8101L41.1791 26.8481V4.47546H47.2142V32.0648L32.6584 95.6542H9.36901C6.99751 95.6542 5.81936 94.0572 5.42411 93.3728Z" fill="#FFFEFF"/>
</svg>
