<svg width="105" height="82" viewBox="0 0 105 82" fill="none" xmlns="http://www.w3.org/2000/svg">
<path opacity="0.1" d="M52.4986 44.3197C81.0535 44.3197 104.204 48.8736 104.204 54.4899V71.5147C104.204 77.1309 81.0535 81.6849 52.4986 81.6849C23.9437 81.6849 0.793015 77.1309 0.793015 71.5147V54.4899C0.793015 48.8736 23.9398 44.3197 52.4986 44.3197Z" fill="url(#paint0_linear_2273_5031)"/>
<path opacity="0.5" d="M52.4981 61.9227C80.2077 61.9227 102.67 66.087 102.67 71.2255C102.67 76.3641 80.2077 80.5283 52.4981 80.5283C24.7884 80.5283 2.3262 76.3641 2.3262 71.2255C2.32238 66.087 24.7884 61.9227 52.4981 61.9227Z" fill="url(#paint1_linear_2273_5031)" stroke="#5181FF" stroke-width="0.213382"/>
<path opacity="0.4" d="M100.655 54.1316C100.655 54.1316 101.546 51.0202 81.2261 47.7359C60.9057 44.4517 28.2967 46.3594 17.4652 48.8359C6.6338 51.3125 2.76325 53.3208 4.06364 55.4485C4.06364 55.4485 15.4917 49.1439 35.8886 48.1036C56.2893 47.0634 73.3358 46.2148 100.655 54.1316Z" fill="url(#paint2_linear_2273_5031)"/>
<path d="M81.64 7.27451H23.3441L10.7266 68.3865H10.8181C10.8181 73.2871 29.3849 77.2553 52.2862 77.2553C75.1874 77.2553 93.7542 73.2871 93.7542 68.3865H94.2641L81.64 7.27451Z" fill="#FBC759"/>
<path d="M52.4999 63.8619C65.9168 63.8619 78.5343 62.8939 88.0271 61.1339C97.6155 59.355 102.894 56.9571 102.894 54.3768C102.894 51.7965 97.6117 49.3985 88.0233 47.6197C78.5305 45.8597 65.9129 44.8917 52.496 44.8917C39.0792 44.8917 26.4616 45.8597 16.9688 47.6197C7.38039 49.3985 2.09856 51.7965 2.09856 54.3768C2.09856 56.9571 7.38039 59.355 16.9688 61.1339C26.4654 62.8939 39.083 63.8619 52.4999 63.8619ZM52.4999 45.2562C65.8862 45.2562 78.4693 46.2211 87.9277 47.978C97.1566 49.6877 102.45 52.0196 102.45 54.3768C102.45 56.7339 97.1566 59.0659 87.9277 60.7756C78.4655 62.5293 65.8862 63.4973 52.4999 63.4973C39.1136 63.4973 26.5305 62.5293 17.0721 60.7756C7.84319 59.0659 2.54986 56.7308 2.54986 54.3768C2.54986 52.0196 7.84319 49.6877 17.0721 47.978C26.5305 46.2211 39.1136 45.2562 52.4999 45.2562Z" fill="#C5D5FC"/>
<path opacity="0.4" d="M52.4986 44.3197C81.0535 44.3197 104.204 48.8736 104.204 54.4899V71.5147C104.204 77.1309 81.0535 81.6849 52.4986 81.6849C23.9437 81.6849 0.793015 77.1309 0.793015 71.5147V54.4899C0.793015 48.8736 23.9398 44.3197 52.4986 44.3197ZM7.82656 71.6561C8.19756 74.0415 10.5077 75.2012 10.5077 75.2012C16.6845 79.5415 48.9187 80.5315 48.9187 80.5315C78.25 81.3926 98.6469 75.6318 100.509 74.0415C102.372 72.4513 101.997 70.3738 101.997 70.3738C101.997 70.3738 101.699 65.7853 101.997 62.479C102.296 59.1759 99.8363 59.971 99.8363 59.971C80.1088 67.1901 45.0443 65.9047 45.0443 65.9047C25.7642 65.3547 13.4794 62.9693 10.653 62.2967C7.82275 61.6242 7.82274 64.3773 7.82274 64.3773C7.82274 64.3773 7.45174 69.2707 7.82656 71.6561ZM52.4986 63.6796C80.2082 63.6796 102.67 59.5153 102.67 54.3768C102.67 49.2382 80.2082 45.074 52.4986 45.074C24.7889 45.074 2.3267 49.2382 2.3267 54.3768C2.32288 59.5153 24.7889 63.6796 52.4986 63.6796Z" fill="url(#paint3_linear_2273_5031)"/>
<path d="M52.4984 81.8672C66.3284 81.8672 79.3284 80.808 89.1119 78.8815C98.9871 76.9423 104.426 74.3244 104.426 71.5147V54.4899C104.426 51.6802 98.9871 49.0622 89.1119 47.1199C79.3284 45.1965 66.3245 44.1374 52.4984 44.1374C38.6723 44.1374 25.6684 45.1965 15.885 47.1199C6.0097 49.0622 0.57103 51.6802 0.57103 54.4899V71.5147C0.57103 74.3244 6.0097 76.9423 15.885 78.8846C25.6684 80.808 38.6684 81.8672 52.4984 81.8672ZM52.4984 44.5019C66.2939 44.5019 79.2595 45.5579 89.0086 47.4751C98.5205 49.3482 103.978 51.9033 103.978 54.4899V71.5147C103.978 74.1012 98.5205 76.6563 89.0048 78.5263C79.2557 80.4435 66.2901 81.4995 52.4946 81.4995C38.699 81.4995 25.7335 80.4435 15.9844 78.5263C6.46865 76.6532 1.01086 74.0981 1.01086 71.5147V54.4899C1.01086 51.9033 6.46865 49.3482 15.9844 47.4782C25.7373 45.5579 38.7029 44.5019 52.4984 44.5019Z" fill="#99B9FF"/>
<path opacity="0.3" d="M102.976 69.7672C103.118 67.3472 103.045 64.9272 103.156 62.5104C103.214 61.2627 103.466 59.751 102.839 58.5724C102.12 57.2241 100.525 58.2896 99.3162 58.7138C100.735 57.6673 102.429 56.8407 103.179 55.329C103.569 54.5401 103.695 53.7576 103.634 52.9813C104.005 53.4747 104.204 53.9776 104.204 54.4899V71.5146C104.204 72.3915 103.642 73.2401 102.582 74.0509C102.762 72.6272 102.892 71.1972 102.976 69.7672Z" fill="url(#paint4_linear_2273_5031)"/>
<path opacity="0.3" d="M0.981 53.6225C1.10721 54.6282 1.7115 55.6245 2.52998 56.4825C3.39435 57.3939 4.41555 58.1607 5.63561 58.739C6.72564 59.2576 7.8845 59.663 9.0166 60.1093C7.35288 59.9522 5.03132 58.8522 3.8189 60.0842C2.75565 61.1653 2.47262 69.6981 2.35788 70.9552C2.26991 71.9264 2.20872 72.9007 2.18959 73.8749C1.2755 73.1175 0.785939 72.3287 0.785939 71.5147V54.4899C0.793589 54.1976 0.858611 53.9085 0.981 53.6225Z" fill="url(#paint5_linear_2273_5031)"/>
<path opacity="0.7" d="M87.7852 63.5161C87.7852 63.5161 72.215 66.2158 55.3903 66.153C55.3903 66.153 64.1258 66.4013 69.4383 66.7658C69.4383 66.7658 72.6395 66.5741 72.7657 68.4127C72.8919 70.2513 73.1367 79.1204 73.1367 79.1204L76.9537 78.8155V69.035C76.9537 69.035 76.8237 66.6841 80.197 65.9487C83.5704 65.2101 87.7852 63.5161 87.7852 63.5161Z" fill="white"/>
<path d="M52.4984 64.8424C66.3284 64.8424 79.3284 63.7833 89.1119 61.8599C98.9871 59.9176 104.426 57.2996 104.426 54.4899C104.426 51.6802 98.9871 49.0622 89.1119 47.1199C79.3284 45.1965 66.3245 44.1374 52.4984 44.1374C38.6723 44.1374 25.6684 45.1965 15.885 47.1199C6.0097 49.0622 0.57103 51.6802 0.57103 54.4899C0.57103 57.2996 6.0097 59.9176 15.885 61.8599C25.6684 63.7833 38.6684 64.8424 52.4984 64.8424ZM52.4984 44.5019C66.2939 44.5019 79.2595 45.5579 89.0086 47.4751C98.5205 49.3482 103.978 51.9033 103.978 54.4899C103.978 57.0733 98.5205 59.6316 89.0048 61.5016C79.2557 63.4187 66.2901 64.4747 52.4946 64.4747C38.699 64.4747 25.7335 63.4187 15.9844 61.5016C6.46865 59.6316 1.01086 57.0733 1.01086 54.4899C1.01086 51.9033 6.46865 49.3482 15.9844 47.4782C25.7373 45.5579 38.7029 44.5019 52.4984 44.5019Z" fill="#99B9FF"/>
<path d="M14.835 48.5031L15.1562 46.9445L54.2637 41.2355L89.8226 46.8828L90.1604 48.5049L55.8695 48.3649L14.835 48.5031Z" fill="#FBC759"/>
<path d="M19.1213 32.0311C19.9609 34.1873 21.0413 36.3824 22.5838 38.1372C23.6773 39.3739 25.2458 40.6042 27.0031 40.0991C27.9794 39.8207 28.8255 39.102 29.4568 38.3379C29.5154 38.2667 29.4373 38.3767 29.5349 38.2213C29.5935 38.1307 29.6456 38.04 29.6976 37.9429C29.8278 37.7098 29.9515 37.4638 30.0686 37.2177C31.7804 33.6305 33.1081 29.8749 35.1323 26.4366C36.4925 24.1185 39.3823 19.7349 42.6171 21.8393C44.7909 23.2509 45.624 25.9704 45.7216 28.418C45.8518 31.7786 44.83 35.4953 46.2879 38.6811C46.6979 39.5746 47.3097 40.384 48.0126 41.0704C48.4747 41.5172 49.0605 41.9899 49.7374 42.0222C50.974 42.074 51.8657 40.6236 52.4189 39.73C53.8898 37.3342 54.7945 34.6536 56.1418 32.193C57.1376 30.3865 58.7647 28.0295 61.1664 28.5346C62.4941 28.813 63.6656 29.9138 64.4987 30.9239C65.488 32.1283 66.1779 33.5204 66.8158 34.932C68.0589 37.6839 69.2304 40.9279 72.1137 42.3784C73.9491 43.3043 75.4461 42.4107 76.5265 40.8567C79.0583 37.2112 79.553 31.9081 83.6533 29.4929C84.5971 28.936 85.0917 29.0824 86.1591 29.0112L81.6552 7.28326H23.3585L18.5947 30.0012C18.8421 30.7846 18.8219 31.2671 19.1213 32.0311Z" fill="#7E3D1F"/>
<path d="M52.5027 15.1587C68.6856 15.1587 81.8043 11.9595 81.8043 8.01296C81.8043 4.06646 68.6856 0.867188 52.5027 0.867188C36.3199 0.867188 23.2012 4.06646 23.2012 8.01296C23.2012 11.9595 36.3199 15.1587 52.5027 15.1587Z" fill="#582B16"/>
<defs>
<linearGradient id="paint0_linear_2273_5031" x1="52.4975" y1="37.1573" x2="52.4975" y2="64.8987" gradientUnits="userSpaceOnUse">
<stop stop-color="#C5D5FC"/>
<stop offset="0.1131" stop-color="#DCE6FD"/>
<stop offset="0.2469" stop-color="#EFF4FE"/>
<stop offset="0.3824" stop-color="#FBFCFF"/>
<stop offset="0.5211" stop-color="white"/>
<stop offset="0.611" stop-color="#FCFDFF"/>
<stop offset="0.6842" stop-color="#F2F5FF"/>
<stop offset="0.7514" stop-color="#E1E9FF"/>
<stop offset="0.8152" stop-color="#C9D8FF"/>
<stop offset="0.8765" stop-color="#AAC1FF"/>
<stop offset="0.9359" stop-color="#83A6FF"/>
<stop offset="0.9928" stop-color="#5785FF"/>
<stop offset="1" stop-color="#5181FF"/>
</linearGradient>
<linearGradient id="paint1_linear_2273_5031" x1="52.4967" y1="95.2764" x2="52.4967" y2="47.2987" gradientUnits="userSpaceOnUse">
<stop stop-color="#C5D5FC"/>
<stop offset="0.1131" stop-color="#DCE6FD"/>
<stop offset="0.2469" stop-color="#EFF4FE"/>
<stop offset="0.3824" stop-color="#FBFCFF"/>
<stop offset="0.5211" stop-color="white"/>
<stop offset="0.5964" stop-color="#F0F4FE"/>
<stop offset="0.7449" stop-color="#D8E3FD"/>
<stop offset="0.8832" stop-color="#CAD9FC"/>
<stop offset="1" stop-color="#C5D5FC"/>
</linearGradient>
<linearGradient id="paint2_linear_2273_5031" x1="52.2432" y1="32.8102" x2="52.2432" y2="57.06" gradientUnits="userSpaceOnUse">
<stop stop-color="#C5D5FC"/>
<stop offset="0.1131" stop-color="#DCE6FD"/>
<stop offset="0.2469" stop-color="#EFF4FE"/>
<stop offset="0.3824" stop-color="#FBFCFF"/>
<stop offset="0.5211" stop-color="white"/>
<stop offset="0.5964" stop-color="#F0F4FE"/>
<stop offset="0.7449" stop-color="#D8E3FD"/>
<stop offset="0.8832" stop-color="#CAD9FC"/>
<stop offset="1" stop-color="#C5D5FC"/>
</linearGradient>
<linearGradient id="paint3_linear_2273_5031" x1="79.3656" y1="63.0016" x2="-12.8161" y2="63.0016" gradientUnits="userSpaceOnUse">
<stop stop-color="#C5D5FC"/>
<stop offset="0.1131" stop-color="#DCE6FD"/>
<stop offset="0.2469" stop-color="#EFF4FE"/>
<stop offset="0.3824" stop-color="#FBFCFF"/>
<stop offset="0.5211" stop-color="white"/>
<stop offset="0.5959" stop-color="#F0F4FE"/>
<stop offset="0.7435" stop-color="#D8E3FD"/>
<stop offset="0.8808" stop-color="#CAD9FC"/>
<stop offset="0.9969" stop-color="#C5D5FC"/>
</linearGradient>
<linearGradient id="paint4_linear_2273_5031" x1="79.3649" y1="63.5154" x2="-12.8193" y2="63.5154" gradientUnits="userSpaceOnUse">
<stop stop-color="#B4BAC0"/>
<stop offset="0.044" stop-color="#C0C5CA"/>
<stop offset="0.161" stop-color="#DCDFE1"/>
<stop offset="0.2794" stop-color="#EFF1F2"/>
<stop offset="0.3988" stop-color="#FBFBFC"/>
<stop offset="0.5211" stop-color="white"/>
<stop offset="0.5409" stop-color="#F9FAFA"/>
<stop offset="0.6686" stop-color="#D8DBDE"/>
<stop offset="0.7909" stop-color="#C0C6CA"/>
<stop offset="0.9042" stop-color="#B2B9BE"/>
<stop offset="1" stop-color="#ADB4BA"/>
</linearGradient>
<linearGradient id="paint5_linear_2273_5031" x1="79.365" y1="63.7477" x2="-12.8153" y2="63.7477" gradientUnits="userSpaceOnUse">
<stop stop-color="#B4BAC0"/>
<stop offset="0.044" stop-color="#C0C5CA"/>
<stop offset="0.161" stop-color="#DCDFE1"/>
<stop offset="0.2794" stop-color="#EFF1F2"/>
<stop offset="0.3988" stop-color="#FBFBFC"/>
<stop offset="0.5211" stop-color="white"/>
<stop offset="0.5409" stop-color="#F9FAFA"/>
<stop offset="0.6686" stop-color="#D8DBDE"/>
<stop offset="0.7909" stop-color="#C0C6CA"/>
<stop offset="0.9042" stop-color="#B2B9BE"/>
<stop offset="1" stop-color="#ADB4BA"/>
</linearGradient>
</defs>
</svg>
