<svg width="82" height="106" viewBox="0 0 82 106" fill="none" xmlns="http://www.w3.org/2000/svg">
<path d="M28.2636 27.1614V27.5228L27.9205 27.6362C12.1838 32.8379 0.828705 47.6541 0.836922 65.1308V65.1311C0.836922 86.9477 18.5203 104.631 40.3369 104.631C62.1536 104.631 79.8369 86.9477 79.8369 65.1311C79.8369 47.6542 68.4817 32.8378 52.7448 27.6278L52.4019 27.5143V27.1531V0.865112H28.2636V27.1614Z" fill="#FFFEFF" stroke="#5181FF"/>
<path d="M40.8199 100.263C60.125 100.263 75.8271 84.5611 75.8271 65.2559C75.8271 50.128 66.1746 36.7724 51.8122 32.021L48.3838 30.8894V5.48267H33.2309V30.8894L29.8026 32.021C15.4402 36.7724 5.79594 50.128 5.79594 65.2559C5.81258 84.5611 21.5147 100.263 40.8199 100.263Z" fill="white"/>
<path d="M52.6177 50.707C51.8564 51.3986 51.5375 52.4531 51.788 53.4507L52.2729 53.329L51.788 53.4507L54.8225 65.5376C55.0255 66.346 55.5794 67.0213 56.3325 67.3786L65.4771 71.7161C66.6303 72.2631 68.0076 71.9576 68.8213 70.9744L74.7806 63.7745C75.3938 63.0336 75.5821 62.0291 75.2788 61.1164L70.6593 47.2141C70.2535 45.9926 69.0645 45.2075 67.7817 45.3139L58.5704 46.0781C57.9582 46.1289 57.38 46.3803 56.9253 46.7934L52.6177 50.707Z" fill="#F4E9D7" stroke="white"/>
<path d="M54.3933 52.5681C54.3933 52.5681 58.5876 53.1798 60.9843 53.1473M60.9843 53.1473C64.5797 51.4545 67.5558 47.8588 67.5558 47.8588M60.9843 53.1473L66.5917 68.7597" stroke="white" stroke-width="1.07958" stroke-linecap="round" stroke-linejoin="round"/>
<path d="M58.9422 50.8015C58.2852 49.948 57.2299 49.5 56.1595 49.62L49.264 50.3933C48.1826 50.5146 47.2455 51.1978 46.7993 52.1903L43.467 59.6014C42.9818 60.6806 43.158 61.9423 43.9203 62.8472L49.9457 70.0003C50.6297 70.8123 51.6837 71.2145 52.7347 71.0647L59.645 70.0797C60.5862 69.9455 61.4127 69.384 61.8841 68.5583L65.4356 62.3374C66.0511 61.2593 65.9588 59.9169 65.2016 58.9332L58.9422 50.8015Z" fill="#FAF3E9" stroke="white"/>
<path d="M49.1982 53.3024C49.1982 53.3024 53.006 58.4326 55.2397 59.9925M55.2397 59.9925C58.0623 60.7096 63.3533 60.6578 63.3533 60.6578M55.2397 59.9925L51.9955 68.25" stroke="white" stroke-linecap="round" stroke-linejoin="round"/>
<path d="M35.8567 60.4884C36.5864 61.2806 37.6771 61.6338 38.7327 61.4197L45.5331 60.0408C46.5996 59.8246 47.4727 59.0614 47.8296 58.0334L50.4948 50.3571C50.8828 49.2393 50.596 47.998 49.7568 47.1639L43.1236 40.5705C42.3706 39.8221 41.2852 39.5144 40.2515 39.7564L33.4552 41.3475C32.5294 41.5642 31.7557 42.1965 31.3591 43.0606L28.3704 49.5706C27.8525 50.6989 28.0629 52.0278 28.904 52.9409L35.8567 60.4884Z" fill="#FAF3E9" stroke="white"/>
<path d="M45.3418 57.1373C45.3418 57.1373 41.0961 52.3632 38.7335 51.0065M38.7335 51.0065C35.8585 50.5413 30.5928 51.0599 30.5928 51.0599M38.7335 51.0065L41.2362 42.4949" stroke="white" stroke-linecap="round" stroke-linejoin="round"/>
<path d="M54.6736 76.4103C53.9687 75.6613 52.9088 75.3609 51.9157 75.6289L52.046 76.1116L51.9157 75.6289L39.884 78.8752C39.0792 79.0923 38.4138 79.658 38.0698 80.4173L33.8935 89.6366C33.3668 90.7992 33.6964 92.1709 34.6938 92.9673L41.9972 98.7992C42.7487 99.3993 43.7564 99.5699 44.6636 99.2507L58.4827 94.3878C59.6968 93.9606 60.461 92.758 60.3321 91.4773L59.4063 82.2808C59.3448 81.6696 59.0832 81.0959 58.6622 80.6485L54.6736 76.4103Z" fill="#F4E9D7" stroke="white"/>
<path d="M52.8441 78.2188C52.8441 78.2188 52.3061 82.4232 52.3806 84.8189M52.3806 84.8189C54.1363 88.384 57.7837 91.2965 57.7837 91.2965M52.3806 84.8189L36.8692 90.6995" stroke="white" stroke-width="1.07958" stroke-linecap="round" stroke-linejoin="round"/>
<path d="M49.6677 62.857C49.4116 61.8608 48.628 61.0864 47.6289 60.842L47.5101 61.3277L47.6289 60.842L35.5238 57.8812C34.7141 57.6832 33.8583 57.8576 33.1908 58.3568L25.0849 64.4176C24.0627 65.1819 23.6897 66.5424 24.1791 67.7212L27.763 76.3529C28.1318 77.2411 28.9322 77.8767 29.8808 78.0347L44.3314 80.4418C45.6011 80.6533 46.8506 79.9685 47.3555 78.7845L50.9812 70.2823C51.2221 69.7173 51.2698 69.0886 51.1169 68.4936L49.6677 62.857Z" fill="#F4E9D7" stroke="white"/>
<path d="M47.1922 63.5584C47.1922 63.5584 44.6927 66.9817 43.6022 69.1162M43.6022 69.1162C43.4201 73.0859 45.21 77.3967 45.21 77.3967M43.6022 69.1162L27.1781 66.7841" stroke="white" stroke-width="1.07958" stroke-linecap="round" stroke-linejoin="round"/>
<path d="M6.66589 64.3949C5.90274 65.0845 5.58102 66.1381 5.82878 67.1364L6.31406 67.016L5.82878 67.1364L8.83067 79.2314C9.03146 80.0404 9.58352 80.7172 10.3357 81.0765L19.4685 85.4387C20.6202 85.9888 21.9983 85.6871 22.8147 84.7061L28.7934 77.5223C29.4086 76.7831 29.5996 75.7791 29.2988 74.8656L24.7169 60.9509C24.3144 59.7283 23.1275 58.9399 21.8444 59.0429L12.6311 59.7821C12.0188 59.8313 11.4398 60.0811 10.9841 60.493L6.66589 64.3949Z" fill="#F4E9D7" stroke="white"/>
<path d="M8.43727 66.2609C8.43727 66.2609 12.6299 66.8838 15.0267 66.8579M15.0267 66.8579C18.6266 65.1748 21.6124 61.5872 21.6124 61.5872M15.0267 66.8579L20.5918 82.4853" stroke="white" stroke-width="1.07958" stroke-linecap="round" stroke-linejoin="round"/>
<path d="M59.2361 65.531C58.1606 65.4717 57.1324 65.9789 56.5248 66.8682L52.6105 72.5975C51.9967 73.496 51.9027 74.6519 52.3635 75.6377L55.8041 82.9992C56.305 84.0711 57.376 84.761 58.5592 84.774L67.9113 84.877C68.9728 84.8887 69.9655 84.3526 70.5379 83.4585L74.3014 77.5799C74.8141 76.7792 74.9279 75.7865 74.61 74.8904L72.2143 68.1396C71.7992 66.9696 70.7219 66.1635 69.4823 66.0953L59.2361 65.531Z" fill="#FAF3E9" stroke="white"/>
<path d="M54.7725 74.546C54.7725 74.546 61.1445 75.009 63.7842 74.3347M63.7842 74.3347C66.1697 72.664 69.5835 68.6213 69.5835 68.6213M63.7842 74.3347L67.9235 82.1818" stroke="white" stroke-linecap="round" stroke-linejoin="round"/>
<path d="M20.7672 42.6565C19.8666 42.0658 18.7227 41.9887 17.7509 42.4532L11.4907 45.4459C10.5089 45.9152 9.84785 46.868 9.75188 47.9519L9.03531 56.0461C8.93097 57.2247 9.51134 58.3588 10.5283 58.9636L18.5669 63.7441C19.4793 64.2868 20.607 64.321 21.5507 63.8347L27.7554 60.6373C28.6005 60.2017 29.1971 59.4001 29.3715 58.4655L30.6857 51.4238C30.9134 50.2034 30.3859 48.9656 29.3478 48.2847L20.7672 42.6565Z" fill="#FAF3E9" stroke="white"/>
<path d="M12.3828 48.2156C12.3828 48.2156 17.6628 51.8127 20.2846 52.5535M20.2846 52.5535C23.1863 52.305 28.1675 50.5203 28.1675 50.5203M20.2846 52.5535L19.9289 61.4183" stroke="white" stroke-linecap="round" stroke-linejoin="round"/>
<path d="M30.1705 77.1266C29.2469 76.5725 28.1008 76.5413 27.1485 77.0444L21.0133 80.2857C20.0511 80.794 19.4288 81.7725 19.3764 82.8595L18.9849 90.9758C18.9279 92.1577 19.5533 93.2676 20.5937 93.8311L28.8175 98.2855C29.751 98.7911 30.8791 98.7801 31.8026 98.2563L37.874 94.8127C38.7011 94.3436 39.2649 93.5187 39.4018 92.5779L40.4325 85.4891C40.6112 84.2606 40.0344 83.045 38.9699 82.4062L30.1705 77.1266Z" fill="#FAF3E9" stroke="white"/>
<path d="M22.0156 83.0174C22.0156 83.0174 27.4356 86.3999 30.085 87.035M30.085 87.035C32.9744 86.6703 37.88 84.6873 37.88 84.6873M30.085 87.035L30.085 95.907" stroke="white" stroke-linecap="round" stroke-linejoin="round"/>
<path opacity="0.46" d="M38.8721 100.213C20.4739 99.1981 5.81199 83.912 5.81199 65.2642C5.81199 50.1363 15.4646 36.7808 29.8186 32.0294L33.247 30.8977V5.48267H39.6543V35.7323C39.6543 35.7323 20.6736 42.1396 20.6736 65.0728C20.6653 80.076 27.6302 92.7491 38.8721 100.213Z" fill="#FFFEFF"/>
</svg>
