<svg width="105" height="146" viewBox="0 0 105 146" fill="none" xmlns="http://www.w3.org/2000/svg">
<g clip-path="url(#clip0_2467_4879)">
<path opacity="0.1" d="M52.8071 75.9562C81.362 75.9562 104.513 80.5102 104.513 86.1264V103.151C104.513 108.767 81.362 113.321 52.8071 113.321C24.2523 113.321 1.10159 108.767 1.10159 103.151V86.1264C1.10159 80.5102 24.2484 75.9562 52.8071 75.9562Z" fill="url(#paint0_linear_2467_4879)"/>
<path opacity="0.5" d="M52.8066 93.5593C80.5163 93.5593 102.979 97.7235 102.979 102.862C102.979 108.001 80.5163 112.165 52.8066 112.165C25.097 112.165 2.63477 108.001 2.63477 102.862C2.63095 97.7235 25.097 93.5593 52.8066 93.5593Z" fill="url(#paint1_linear_2467_4879)" stroke="#5181FF" stroke-width="0.213382"/>
<path opacity="0.4" d="M100.964 85.7682C100.964 85.7682 101.855 82.6567 81.5347 79.3725C61.2143 76.0882 28.6052 77.9959 17.7738 80.4725C6.94238 82.949 3.07182 84.9573 4.37221 87.085C4.37221 87.085 15.8003 80.7805 36.1972 79.7402C56.5979 78.6999 73.6444 77.8513 100.964 85.7682Z" fill="url(#paint2_linear_2467_4879)"/>
<path d="M81.9486 38.911H23.6527L11.0352 100.023H11.1267C11.1267 104.924 29.6935 108.892 52.5948 108.892C75.496 108.892 94.0628 104.924 94.0628 100.023H94.5728L81.9486 38.911Z" fill="#F0CF11"/>
<path d="M52.8085 95.4984C66.2254 95.4984 78.8429 94.5304 88.3357 92.7704C97.9241 90.9916 103.202 88.5936 103.202 86.0133C103.202 83.433 97.9203 81.0351 88.3319 79.2562C78.8391 77.4962 66.2215 76.5282 52.8046 76.5282C39.3877 76.5282 26.7702 77.4962 17.2774 79.2562C7.68896 81.0351 2.40713 83.433 2.40713 86.0133C2.40713 88.5936 7.68896 90.9916 17.2774 92.7704C26.774 94.5304 39.3916 95.4984 52.8085 95.4984ZM52.8085 76.8928C66.1948 76.8928 78.7779 77.8576 88.2363 79.6145C97.4652 81.3242 102.758 83.6562 102.758 86.0133C102.758 88.3704 97.4652 90.7024 88.2363 92.4121C78.7741 94.1658 66.1948 95.1338 52.8085 95.1338C39.4221 95.1338 26.839 94.1658 17.3807 92.4121C8.15176 90.7024 2.85843 88.3673 2.85843 86.0133C2.85843 83.6562 8.15176 81.3242 17.3807 79.6145C26.839 77.8576 39.4221 76.8928 52.8085 76.8928Z" fill="#C5D5FC"/>
<path opacity="0.4" d="M52.8071 75.9562C81.362 75.9562 104.513 80.5102 104.513 86.1264V103.151C104.513 108.767 81.362 113.321 52.8071 113.321C24.2523 113.321 1.10159 108.767 1.10159 103.151V86.1264C1.10159 80.5102 24.2484 75.9562 52.8071 75.9562ZM8.13514 103.293C8.50613 105.678 10.8162 106.838 10.8162 106.838C16.993 111.178 49.2273 112.168 49.2273 112.168C78.5586 113.029 98.9555 107.268 100.818 105.678C102.681 104.088 102.306 102.01 102.306 102.01C102.306 102.01 102.008 97.4218 102.306 94.1156C102.604 90.8124 100.145 91.6076 100.145 91.6076C80.4174 98.8267 45.3529 97.5413 45.3529 97.5413C26.0728 96.9913 13.788 94.6058 10.9616 93.9333C8.13132 93.2607 8.13132 96.0138 8.13132 96.0138C8.13132 96.0138 7.76032 100.907 8.13514 103.293ZM52.8071 95.3161C80.5168 95.3161 102.979 91.1519 102.979 86.0133C102.979 80.8748 80.5168 76.7105 52.8071 76.7105C25.0975 76.7105 2.63528 80.8748 2.63528 86.0133C2.63145 91.1519 25.0975 95.3161 52.8071 95.3161Z" fill="url(#paint3_linear_2467_4879)"/>
<path d="M52.807 113.504C66.637 113.504 79.637 112.445 89.4204 110.518C99.2957 108.579 104.734 105.961 104.734 103.151V86.1264C104.734 83.3167 99.2957 80.6987 89.4204 78.7564C79.637 76.833 66.6331 75.7739 52.807 75.7739C38.9808 75.7739 25.977 76.833 16.1935 78.7564C6.31827 80.6987 0.879601 83.3167 0.879601 86.1264V103.151C0.879601 105.961 6.31827 108.579 16.1935 110.521C25.977 112.445 38.977 113.504 52.807 113.504ZM52.807 76.1385C66.6025 76.1385 79.5681 77.1945 89.3172 79.1116C98.8291 80.9847 104.287 83.5399 104.287 86.1264V103.151C104.287 105.738 98.8291 108.293 89.3134 110.163C79.5643 112.08 66.5987 113.136 52.8032 113.136C39.0076 113.136 26.042 112.08 16.293 110.163C6.77722 108.29 1.31943 105.735 1.31943 103.151V86.1264C1.31943 83.5399 6.77722 80.9847 16.293 79.1147C26.0459 77.1945 39.0114 76.1385 52.807 76.1385Z" fill="#99B9FF"/>
<path opacity="0.3" d="M103.285 101.404C103.426 98.9838 103.354 96.5638 103.465 94.1469C103.522 92.8992 103.775 91.3875 103.147 90.209C102.428 88.8607 100.833 89.9261 99.6248 90.3504C101.044 89.3038 102.738 88.4773 103.488 86.9655C103.878 86.1767 104.004 85.3941 103.943 84.6178C104.314 85.1113 104.513 85.6141 104.513 86.1264V103.151C104.513 104.028 103.95 104.877 102.891 105.687C103.071 104.264 103.201 102.834 103.285 101.404Z" fill="url(#paint4_linear_2467_4879)"/>
<path opacity="0.3" d="M1.28959 85.259C1.41581 86.2647 2.0201 87.261 2.83857 88.119C3.70295 89.0304 4.72414 89.7973 5.94421 90.3756C7.03423 90.8941 8.1931 91.2996 9.3252 91.7458C7.66147 91.5887 5.33991 90.4887 4.12749 91.7207C3.06424 92.8018 2.78121 101.335 2.66647 102.592C2.5785 103.563 2.51731 104.537 2.49819 105.512C1.58409 104.754 1.09453 103.965 1.09453 103.151V86.1264C1.10218 85.8342 1.1672 85.545 1.28959 85.259Z" fill="url(#paint5_linear_2467_4879)"/>
<path opacity="0.7" d="M88.0938 95.1527C88.0938 95.1527 72.5236 97.8524 55.6989 97.7895C55.6989 97.7895 64.4344 98.0378 69.7469 98.4024C69.7469 98.4024 72.9481 98.2107 73.0743 100.049C73.2005 101.888 73.4453 110.757 73.4453 110.757L77.2623 110.452V100.672C77.2623 100.672 77.1323 98.3207 80.5056 97.5853C83.879 96.8467 88.0938 95.1527 88.0938 95.1527Z" fill="white"/>
<path d="M52.807 96.4789C66.637 96.4789 79.637 95.4198 89.4204 93.4964C99.2957 91.5541 104.734 88.9361 104.734 86.1264C104.734 83.3167 99.2957 80.6987 89.4204 78.7564C79.637 76.833 66.6331 75.7739 52.807 75.7739C38.9808 75.7739 25.977 76.833 16.1935 78.7564C6.31827 80.6987 0.879601 83.3167 0.879601 86.1264C0.879601 88.9361 6.31827 91.5541 16.1935 93.4964C25.977 95.4198 38.977 96.4789 52.807 96.4789ZM52.807 76.1385C66.6025 76.1385 79.5681 77.1945 89.3172 79.1116C98.8291 80.9847 104.287 83.5399 104.287 86.1264C104.287 88.7098 98.8291 91.2681 89.3134 93.1381C79.5643 95.0552 66.5987 96.1112 52.8032 96.1112C39.0076 96.1112 26.042 95.0552 16.293 93.1381C6.77722 91.2681 1.31943 88.7098 1.31943 86.1264C1.31943 83.5399 6.77722 80.9847 16.293 79.1147C26.0459 77.1945 39.0114 76.1385 52.807 76.1385Z" fill="#99B9FF"/>
<path d="M15.1436 80.1397L15.4648 78.5811L54.5723 72.8721L90.1312 78.5194L90.469 80.1414L56.1781 80.0014L15.1436 80.1397Z" fill="#F0CF11"/>
<mask id="mask0_2467_4879" style="mask-type:alpha" maskUnits="userSpaceOnUse" x="11" y="38" width="84" height="54">
<path d="M81.9545 38.9036H23.6586L11.041 85.2089H11.1325C11.1325 88.9221 29.6994 91.9289 52.6006 91.9289C75.5019 91.9289 94.0687 88.9221 94.0687 85.2089H94.5786L81.9545 38.9036Z" fill="#393B36"/>
</mask>
<g mask="url(#mask0_2467_4879)">
<path d="M31.7317 28.3015L40.0609 29.8578L36.3019 102.531L21.5132 101.81L31.7317 28.3015Z" fill="white" fill-opacity="0.6"/>
<path d="M43.4898 43.0626L46.1395 43.0626L42.2429 96.0165L40.8402 95.0733L43.4898 43.0626Z" fill="white" fill-opacity="0.6"/>
</g>
<path d="M52.8113 46.7953C68.9942 46.7953 82.1129 43.596 82.1129 39.6495C82.1129 35.703 68.9942 32.5037 52.8113 32.5037C36.6285 32.5037 23.5098 35.703 23.5098 39.6495C23.5098 43.596 36.6285 46.7953 52.8113 46.7953Z" fill="#EDCC14"/>
</g>
<defs>
<linearGradient id="paint0_linear_2467_4879" x1="52.806" y1="68.7938" x2="52.806" y2="96.5352" gradientUnits="userSpaceOnUse">
<stop stop-color="#C5D5FC"/>
<stop offset="0.1131" stop-color="#DCE6FD"/>
<stop offset="0.2469" stop-color="#EFF4FE"/>
<stop offset="0.3824" stop-color="#FBFCFF"/>
<stop offset="0.5211" stop-color="white"/>
<stop offset="0.611" stop-color="#FCFDFF"/>
<stop offset="0.6842" stop-color="#F2F5FF"/>
<stop offset="0.7514" stop-color="#E1E9FF"/>
<stop offset="0.8152" stop-color="#C9D8FF"/>
<stop offset="0.8765" stop-color="#AAC1FF"/>
<stop offset="0.9359" stop-color="#83A6FF"/>
<stop offset="0.9928" stop-color="#5785FF"/>
<stop offset="1" stop-color="#5181FF"/>
</linearGradient>
<linearGradient id="paint1_linear_2467_4879" x1="52.8053" y1="126.913" x2="52.8053" y2="78.9353" gradientUnits="userSpaceOnUse">
<stop stop-color="#C5D5FC"/>
<stop offset="0.1131" stop-color="#DCE6FD"/>
<stop offset="0.2469" stop-color="#EFF4FE"/>
<stop offset="0.3824" stop-color="#FBFCFF"/>
<stop offset="0.5211" stop-color="white"/>
<stop offset="0.5964" stop-color="#F0F4FE"/>
<stop offset="0.7449" stop-color="#D8E3FD"/>
<stop offset="0.8832" stop-color="#CAD9FC"/>
<stop offset="1" stop-color="#C5D5FC"/>
</linearGradient>
<linearGradient id="paint2_linear_2467_4879" x1="52.5518" y1="64.4468" x2="52.5518" y2="88.6965" gradientUnits="userSpaceOnUse">
<stop stop-color="#C5D5FC"/>
<stop offset="0.1131" stop-color="#DCE6FD"/>
<stop offset="0.2469" stop-color="#EFF4FE"/>
<stop offset="0.3824" stop-color="#FBFCFF"/>
<stop offset="0.5211" stop-color="white"/>
<stop offset="0.5964" stop-color="#F0F4FE"/>
<stop offset="0.7449" stop-color="#D8E3FD"/>
<stop offset="0.8832" stop-color="#CAD9FC"/>
<stop offset="1" stop-color="#C5D5FC"/>
</linearGradient>
<linearGradient id="paint3_linear_2467_4879" x1="79.6742" y1="94.6382" x2="-12.5075" y2="94.6382" gradientUnits="userSpaceOnUse">
<stop stop-color="#C5D5FC"/>
<stop offset="0.1131" stop-color="#DCE6FD"/>
<stop offset="0.2469" stop-color="#EFF4FE"/>
<stop offset="0.3824" stop-color="#FBFCFF"/>
<stop offset="0.5211" stop-color="white"/>
<stop offset="0.5959" stop-color="#F0F4FE"/>
<stop offset="0.7435" stop-color="#D8E3FD"/>
<stop offset="0.8808" stop-color="#CAD9FC"/>
<stop offset="0.9969" stop-color="#C5D5FC"/>
</linearGradient>
<linearGradient id="paint4_linear_2467_4879" x1="79.6735" y1="95.1519" x2="-12.5107" y2="95.1519" gradientUnits="userSpaceOnUse">
<stop stop-color="#B4BAC0"/>
<stop offset="0.044" stop-color="#C0C5CA"/>
<stop offset="0.161" stop-color="#DCDFE1"/>
<stop offset="0.2794" stop-color="#EFF1F2"/>
<stop offset="0.3988" stop-color="#FBFBFC"/>
<stop offset="0.5211" stop-color="white"/>
<stop offset="0.5409" stop-color="#F9FAFA"/>
<stop offset="0.6686" stop-color="#D8DBDE"/>
<stop offset="0.7909" stop-color="#C0C6CA"/>
<stop offset="0.9042" stop-color="#B2B9BE"/>
<stop offset="1" stop-color="#ADB4BA"/>
</linearGradient>
<linearGradient id="paint5_linear_2467_4879" x1="79.6736" y1="95.3843" x2="-12.5068" y2="95.3843" gradientUnits="userSpaceOnUse">
<stop stop-color="#B4BAC0"/>
<stop offset="0.044" stop-color="#C0C5CA"/>
<stop offset="0.161" stop-color="#DCDFE1"/>
<stop offset="0.2794" stop-color="#EFF1F2"/>
<stop offset="0.3988" stop-color="#FBFBFC"/>
<stop offset="0.5211" stop-color="white"/>
<stop offset="0.5409" stop-color="#F9FAFA"/>
<stop offset="0.6686" stop-color="#D8DBDE"/>
<stop offset="0.7909" stop-color="#C0C6CA"/>
<stop offset="0.9042" stop-color="#B2B9BE"/>
<stop offset="1" stop-color="#ADB4BA"/>
</linearGradient>
<clipPath id="clip0_2467_4879">
<rect width="104" height="146" fill="white" transform="translate(0.806641 0.00372314)"/>
</clipPath>
</defs>
</svg>
