<svg width="105" height="82" viewBox="0 0 105 82" fill="none" xmlns="http://www.w3.org/2000/svg">
<path opacity="0.1" d="M52.8687 43.8227C81.4236 43.8227 104.574 48.3767 104.574 53.993V71.0177C104.574 76.634 81.4236 81.188 52.8687 81.188C24.3138 81.188 1.16312 76.634 1.16312 71.0177V53.993C1.16312 48.3767 24.31 43.8227 52.8687 43.8227Z" fill="url(#paint0_linear_2279_5066)"/>
<path opacity="0.5" d="M52.8682 61.4258C80.5778 61.4258 103.04 65.5901 103.04 70.7286C103.04 75.8671 80.5778 80.0314 52.8682 80.0314C25.1585 80.0314 2.6963 75.8671 2.6963 70.7286C2.69247 65.5901 25.1585 61.4258 52.8682 61.4258Z" fill="url(#paint1_linear_2279_5066)" stroke="#5181FF" stroke-width="0.213382"/>
<path opacity="0.4" d="M101.025 53.6347C101.025 53.6347 101.917 50.5233 81.5962 47.239C61.2758 43.9547 28.6668 45.8624 17.8353 48.339C7.0039 50.8155 3.13335 52.8238 4.43373 54.9515C4.43373 54.9515 15.8618 48.647 36.2587 47.6067C56.6594 46.5664 73.7059 45.7178 101.025 53.6347Z" fill="url(#paint2_linear_2279_5066)"/>
<path d="M82.0102 6.77756H23.7143L11.0967 67.8896H11.1882C11.1882 72.7902 29.755 76.7584 52.6563 76.7584C75.5575 76.7584 94.1244 72.7902 94.1244 67.8896H94.6343L82.0102 6.77756Z" fill="#F0CF11"/>
<path d="M52.87 63.3649C66.2869 63.3649 78.9044 62.3969 88.3972 60.6369C97.9856 58.8581 103.264 56.4601 103.264 53.8798C103.264 51.2996 97.9818 48.9016 88.3934 47.1227C78.9006 45.3627 66.2831 44.3947 52.8662 44.3947C39.4493 44.3947 26.8317 45.3627 17.3389 47.1227C7.75049 48.9016 2.46865 51.2996 2.46865 53.8798C2.46865 56.4601 7.75049 58.8581 17.3389 60.6369C26.8355 62.3969 39.4531 63.3649 52.87 63.3649ZM52.87 44.7593C66.2563 44.7593 78.8394 45.7242 88.2978 47.481C97.5267 49.1907 102.82 51.5227 102.82 53.8798C102.82 56.237 97.5267 58.569 88.2978 60.2787C78.8356 62.0324 66.2563 63.0004 52.87 63.0004C39.4837 63.0004 26.9006 62.0324 17.4422 60.2787C8.21328 58.569 2.91995 56.2338 2.91995 53.8798C2.91995 51.5227 8.21328 49.1907 17.4422 47.481C26.9006 45.7242 39.4837 44.7593 52.87 44.7593Z" fill="#C5D5FC"/>
<path opacity="0.4" d="M52.8687 43.8227C81.4236 43.8227 104.574 48.3767 104.574 53.993V71.0177C104.574 76.634 81.4236 81.188 52.8687 81.188C24.3138 81.188 1.16312 76.634 1.16312 71.0177V53.993C1.16312 48.3767 24.31 43.8227 52.8687 43.8227ZM8.19666 71.1592C8.56766 73.5446 10.8778 74.7043 10.8778 74.7043C17.0546 79.0446 49.2888 80.0346 49.2888 80.0346C78.6201 80.8957 99.017 75.1349 100.88 73.5446C102.742 71.9543 102.367 69.8769 102.367 69.8769C102.367 69.8769 102.069 65.2883 102.367 61.9821C102.666 58.6789 100.206 59.4741 100.206 59.4741C80.4789 66.6932 45.4144 65.4078 45.4144 65.4078C26.1343 64.8578 13.8495 62.4724 11.0231 61.7998C8.19285 61.1272 8.19284 63.8804 8.19284 63.8804C8.19284 63.8804 7.82185 68.7738 8.19666 71.1592ZM52.8687 63.1826C80.5783 63.1826 103.041 59.0184 103.041 53.8798C103.041 48.7413 80.5783 44.577 52.8687 44.577C25.159 44.577 2.6968 48.7413 2.6968 53.8798C2.69298 59.0184 25.159 63.1826 52.8687 63.1826Z" fill="url(#paint3_linear_2279_5066)"/>
<path d="M52.8685 81.3702C66.6985 81.3702 79.6985 80.3111 89.482 78.3845C99.3572 76.4454 104.796 73.8274 104.796 71.0177V53.9929C104.796 51.1832 99.3572 48.5652 89.482 46.623C79.6985 44.6995 66.6946 43.6404 52.8685 43.6404C39.0424 43.6404 26.0385 44.6995 16.2551 46.623C6.37979 48.5652 0.941124 51.1832 0.941124 53.9929V71.0177C0.941124 73.8274 6.37979 76.4454 16.2551 78.3877C26.0385 80.3111 39.0385 81.3702 52.8685 81.3702ZM52.8685 44.005C66.6641 44.005 79.6296 45.061 89.3787 46.9781C98.8906 48.8512 104.348 51.4064 104.348 53.9929V71.0177C104.348 73.6043 98.8906 76.1594 89.3749 78.0294C79.6258 79.9465 66.6602 81.0025 52.8647 81.0025C39.0691 81.0025 26.1035 79.9465 16.3545 78.0294C6.83875 76.1563 1.38095 73.6011 1.38095 71.0177V53.9929C1.38095 51.4064 6.83875 48.8512 16.3545 46.9813C26.1074 45.061 39.073 44.005 52.8685 44.005Z" fill="#99B9FF"/>
<path opacity="0.3" d="M103.347 69.2703C103.488 66.8503 103.415 64.4303 103.526 62.0135C103.584 60.7658 103.836 59.254 103.209 58.0755C102.49 56.7272 100.895 57.7926 99.6863 58.2169C101.105 57.1703 102.8 56.3438 103.549 54.8321C103.939 54.0432 104.066 53.2606 104.004 52.4844C104.375 52.9778 104.574 53.4806 104.574 53.9929V71.0177C104.574 71.8946 104.012 72.7431 102.953 73.554C103.132 72.1303 103.262 70.7003 103.347 69.2703Z" fill="url(#paint4_linear_2279_5066)"/>
<path opacity="0.3" d="M1.35112 53.1255C1.47733 54.1312 2.08162 55.1275 2.9001 55.9855C3.76447 56.8969 4.78566 57.6638 6.00573 58.2421C7.09576 58.7607 8.25462 59.1661 9.38672 59.6124C7.72299 59.4552 5.40143 58.3552 4.18902 59.5872C3.12576 60.6684 2.84273 69.2012 2.72799 70.4583C2.64003 71.4295 2.57883 72.4037 2.55971 73.378C1.64562 72.6206 1.15605 71.8317 1.15605 71.0177V53.993C1.1637 53.7007 1.22873 53.4115 1.35112 53.1255Z" fill="url(#paint5_linear_2279_5066)"/>
<path opacity="0.7" d="M88.1553 63.0192C88.1553 63.0192 72.5851 65.7189 55.7604 65.6561C55.7604 65.6561 64.4959 65.9043 69.8084 66.2689C69.8084 66.2689 73.0096 66.0772 73.1358 67.9158C73.2621 69.7543 73.5068 78.6234 73.5068 78.6234L77.3238 78.3186V68.538C77.3238 68.538 77.1938 66.1872 80.5672 65.4518C83.9405 64.7132 88.1553 63.0192 88.1553 63.0192Z" fill="white"/>
<path d="M52.8685 64.3455C66.6985 64.3455 79.6985 63.2863 89.482 61.3629C99.3572 59.4206 104.796 56.8026 104.796 53.9929C104.796 51.1832 99.3572 48.5652 89.482 46.623C79.6985 44.6995 66.6946 43.6404 52.8685 43.6404C39.0424 43.6404 26.0385 44.6995 16.2551 46.623C6.37979 48.5652 0.941124 51.1832 0.941124 53.9929C0.941124 56.8026 6.37979 59.4206 16.2551 61.3629C26.0385 63.2863 39.0385 64.3455 52.8685 64.3455ZM52.8685 44.005C66.6641 44.005 79.6296 45.061 89.3787 46.9781C98.8906 48.8512 104.348 51.4064 104.348 53.9929C104.348 56.5764 98.8906 59.1346 89.3749 61.0046C79.6258 62.9218 66.6602 63.9777 52.8647 63.9777C39.0691 63.9777 26.1035 62.9218 16.3545 61.0046C6.83875 59.1346 1.38095 56.5764 1.38095 53.9929C1.38095 51.4064 6.83875 48.8512 16.3545 46.9813C26.1074 45.061 39.073 44.005 52.8685 44.005Z" fill="#99B9FF"/>
<path d="M15.2051 48.0062L15.5263 46.4476L54.6338 40.7386L90.1927 46.3859L90.5305 48.008L56.2396 47.868L15.2051 48.0062Z" fill="#F0CF11"/>
<mask id="mask0_2279_5066" style="mask-type:alpha" maskUnits="userSpaceOnUse" x="11" y="6" width="84" height="54">
<path d="M82.016 6.7701H23.7201L11.1025 53.0754H11.1941C11.1941 56.7886 29.7609 59.7954 52.6621 59.7954C75.5634 59.7954 94.1302 56.7886 94.1302 53.0754H94.6401L82.016 6.7701Z" fill="#393B36"/>
</mask>
<g mask="url(#mask0_2279_5066)">
<path d="M31.7932 -3.83202L40.1224 -2.27563L36.3634 70.3976L21.5747 69.677L31.7932 -3.83202Z" fill="white" fill-opacity="0.6"/>
<path d="M43.5513 10.9291L46.201 10.9291L42.3045 63.883L40.9017 62.9398L43.5513 10.9291Z" fill="white" fill-opacity="0.6"/>
</g>
<path d="M52.8729 14.6618C69.0557 14.6618 82.1745 11.4625 82.1745 7.51601C82.1745 3.56951 69.0557 0.370239 52.8729 0.370239C36.6901 0.370239 23.5713 3.56951 23.5713 7.51601C23.5713 11.4625 36.6901 14.6618 52.8729 14.6618Z" fill="#EDCC14"/>
<defs>
<linearGradient id="paint0_linear_2279_5066" x1="52.8676" y1="36.6603" x2="52.8676" y2="64.4017" gradientUnits="userSpaceOnUse">
<stop stop-color="#C5D5FC"/>
<stop offset="0.1131" stop-color="#DCE6FD"/>
<stop offset="0.2469" stop-color="#EFF4FE"/>
<stop offset="0.3824" stop-color="#FBFCFF"/>
<stop offset="0.5211" stop-color="white"/>
<stop offset="0.611" stop-color="#FCFDFF"/>
<stop offset="0.6842" stop-color="#F2F5FF"/>
<stop offset="0.7514" stop-color="#E1E9FF"/>
<stop offset="0.8152" stop-color="#C9D8FF"/>
<stop offset="0.8765" stop-color="#AAC1FF"/>
<stop offset="0.9359" stop-color="#83A6FF"/>
<stop offset="0.9928" stop-color="#5785FF"/>
<stop offset="1" stop-color="#5181FF"/>
</linearGradient>
<linearGradient id="paint1_linear_2279_5066" x1="52.8668" y1="94.7795" x2="52.8668" y2="46.8018" gradientUnits="userSpaceOnUse">
<stop stop-color="#C5D5FC"/>
<stop offset="0.1131" stop-color="#DCE6FD"/>
<stop offset="0.2469" stop-color="#EFF4FE"/>
<stop offset="0.3824" stop-color="#FBFCFF"/>
<stop offset="0.5211" stop-color="white"/>
<stop offset="0.5964" stop-color="#F0F4FE"/>
<stop offset="0.7449" stop-color="#D8E3FD"/>
<stop offset="0.8832" stop-color="#CAD9FC"/>
<stop offset="1" stop-color="#C5D5FC"/>
</linearGradient>
<linearGradient id="paint2_linear_2279_5066" x1="52.6133" y1="32.3133" x2="52.6133" y2="56.563" gradientUnits="userSpaceOnUse">
<stop stop-color="#C5D5FC"/>
<stop offset="0.1131" stop-color="#DCE6FD"/>
<stop offset="0.2469" stop-color="#EFF4FE"/>
<stop offset="0.3824" stop-color="#FBFCFF"/>
<stop offset="0.5211" stop-color="white"/>
<stop offset="0.5964" stop-color="#F0F4FE"/>
<stop offset="0.7449" stop-color="#D8E3FD"/>
<stop offset="0.8832" stop-color="#CAD9FC"/>
<stop offset="1" stop-color="#C5D5FC"/>
</linearGradient>
<linearGradient id="paint3_linear_2279_5066" x1="79.7357" y1="62.5047" x2="-12.446" y2="62.5047" gradientUnits="userSpaceOnUse">
<stop stop-color="#C5D5FC"/>
<stop offset="0.1131" stop-color="#DCE6FD"/>
<stop offset="0.2469" stop-color="#EFF4FE"/>
<stop offset="0.3824" stop-color="#FBFCFF"/>
<stop offset="0.5211" stop-color="white"/>
<stop offset="0.5959" stop-color="#F0F4FE"/>
<stop offset="0.7435" stop-color="#D8E3FD"/>
<stop offset="0.8808" stop-color="#CAD9FC"/>
<stop offset="0.9969" stop-color="#C5D5FC"/>
</linearGradient>
<linearGradient id="paint4_linear_2279_5066" x1="79.735" y1="63.0184" x2="-12.4492" y2="63.0184" gradientUnits="userSpaceOnUse">
<stop stop-color="#B4BAC0"/>
<stop offset="0.044" stop-color="#C0C5CA"/>
<stop offset="0.161" stop-color="#DCDFE1"/>
<stop offset="0.2794" stop-color="#EFF1F2"/>
<stop offset="0.3988" stop-color="#FBFBFC"/>
<stop offset="0.5211" stop-color="white"/>
<stop offset="0.5409" stop-color="#F9FAFA"/>
<stop offset="0.6686" stop-color="#D8DBDE"/>
<stop offset="0.7909" stop-color="#C0C6CA"/>
<stop offset="0.9042" stop-color="#B2B9BE"/>
<stop offset="1" stop-color="#ADB4BA"/>
</linearGradient>
<linearGradient id="paint5_linear_2279_5066" x1="79.7351" y1="63.2508" x2="-12.4452" y2="63.2508" gradientUnits="userSpaceOnUse">
<stop stop-color="#B4BAC0"/>
<stop offset="0.044" stop-color="#C0C5CA"/>
<stop offset="0.161" stop-color="#DCDFE1"/>
<stop offset="0.2794" stop-color="#EFF1F2"/>
<stop offset="0.3988" stop-color="#FBFBFC"/>
<stop offset="0.5211" stop-color="white"/>
<stop offset="0.5409" stop-color="#F9FAFA"/>
<stop offset="0.6686" stop-color="#D8DBDE"/>
<stop offset="0.7909" stop-color="#C0C6CA"/>
<stop offset="0.9042" stop-color="#B2B9BE"/>
<stop offset="1" stop-color="#ADB4BA"/>
</linearGradient>
</defs>
</svg>
