<svg width="103" height="146" viewBox="0 0 103 146" fill="none" xmlns="http://www.w3.org/2000/svg">
<path d="M37.9033 48.597V23.5H65.0953V48.6046V48.7385L65.1623 48.8545L100.332 109.797L100.332 109.798C103.591 115.442 99.5206 122.5 93.0044 122.5H9.99478C3.47792 122.493 -0.592001 115.442 2.66671 109.79C2.66674 109.79 2.66677 109.79 2.6668 109.79L37.8364 48.8469L37.9033 48.7309V48.597Z" fill="#FFFEFF" stroke="#5181FF"/>
<path d="M92.9976 118.589C95.3691 118.589 96.5472 116.992 96.9425 116.308C97.3377 115.624 98.1282 113.806 96.9425 111.745L61.1875 49.7833V27.4106H41.805V49.7909L6.05009 111.745C4.86433 113.806 5.65484 115.616 6.05009 116.308C6.44534 116.992 7.62349 118.589 9.99499 118.589H92.9976Z" fill="#C5F4FC" fill-opacity="0.2"/>
<path d="M47.72 72.1508C40.3467 71.589 38.4761 78.5695 38.027 82.3017C37.6776 85.2054 40.1932 91.5915 47.8106 92.5183C59.6549 93.9595 61.4171 84.3828 61.4012 79.2621C61.3853 74.1414 56.9366 72.853 47.72 72.1508Z" fill="#B86840"/>
<path fill-rule="evenodd" clip-rule="evenodd" d="M60.9182 83.84C56.13 90.3693 48.5294 91.6076 42.3843 90.5304C43.7947 91.5104 45.585 92.2474 47.8108 92.5182C56.6052 93.5883 59.8412 88.5842 60.9182 83.84Z" fill="black" fill-opacity="0.3"/>
<path d="M56.6921 85.3636C57.0678 83.7636 56.246 83.1987 53.9697 85.8296C48.8878 90.5657 45.5889 85.5702 45.7638 87.8222C46.1388 92.6502 56.2225 87.3637 56.6921 85.3636Z" fill="black" fill-opacity="0.2"/>
<path d="M43.5675 87.147C44.2595 88.4088 43.4771 88.3483 42.9994 88.1603C41.3874 87.5318 39.8605 85.3308 39.9347 83.4742C39.9904 82.0819 41.8506 80.6417 41.2815 82.5861C40.7125 84.5305 42.7024 85.5697 43.5675 87.147Z" fill="black" fill-opacity="0.2"/>
<path d="M51.7677 84.0888C50.6301 84.9753 48.3789 84.3499 47.3954 83.9264C45.7754 83.0623 44.0252 80.2319 44.0114 82.8321C43.9976 85.4322 49.7659 85.8959 51.4113 85.9393C53.0567 85.9827 53.1897 82.9806 51.7677 84.0888Z" fill="black" fill-opacity="0.2"/>
<path d="M31.1227 91.7027C39.4751 91.2253 41.8175 100.089 42.4443 104.81C42.9319 108.484 40.2765 116.46 31.6584 117.39C18.2582 118.837 15.9576 106.702 15.8151 100.243C15.6726 93.785 20.6822 92.2995 31.1227 91.7027Z" fill="#B86840"/>
<path fill-rule="evenodd" clip-rule="evenodd" d="M16.5073 106.034C22.1477 114.419 30.8144 116.219 37.7562 115.053C36.1858 116.245 34.1766 117.118 31.6582 117.39C21.7094 118.464 17.8789 112.052 16.5073 106.034Z" fill="black" fill-opacity="0.3"/>
<path d="M21.352 108.087C20.8753 106.057 21.7905 105.371 24.457 108.76C30.3744 114.893 33.9626 108.696 33.8346 111.531C33.5603 117.609 21.9477 110.625 21.352 108.087Z" fill="black" fill-opacity="0.2"/>
<path d="M36.3066 110.748C35.5607 112.318 36.4469 112.266 36.9833 112.044C38.7935 111.302 40.4578 108.574 40.3153 106.229C40.2085 104.471 38.0516 102.597 38.7586 105.067C39.4655 107.537 37.2391 108.786 36.3066 110.748Z" fill="black" fill-opacity="0.2"/>
<path d="M26.9017 106.634C28.2209 107.788 30.7568 107.069 31.8599 106.566C33.6719 105.527 35.5699 102.012 35.6671 105.292C35.7643 108.572 29.2308 108.976 27.3644 108.979C25.4979 108.982 25.2528 105.191 26.9017 106.634Z" fill="black" fill-opacity="0.2"/>
<path d="M81.8828 96.0533C76.1953 90.6382 69.9676 95.1234 67.091 97.8916C64.8531 100.045 62.6324 106.988 68.2755 112.867C77.0499 122.009 84.9324 115.316 88.3592 111.093C91.786 106.87 88.9922 102.822 81.8828 96.0533Z" fill="#B86840"/>
<path fill-rule="evenodd" clip-rule="evenodd" d="M84.8845 114.535C76.5601 116.688 69.4768 112.6 65.1463 107.586C65.648 109.34 66.6256 111.149 68.2748 112.867C74.7891 119.654 80.8117 117.713 84.8845 114.535Z" fill="black" fill-opacity="0.3"/>
<path d="M80.3868 112.949C81.7706 111.885 81.4741 110.868 77.8344 111.503C70.4729 111.985 71.1151 105.66 69.7462 107.63C66.8115 111.853 78.657 114.278 80.3868 112.949Z" fill="black" fill-opacity="0.2"/>
<path d="M68.393 105.599C68.1146 107.102 67.5117 106.526 67.245 106.051C66.3413 104.451 66.5638 101.615 67.8721 100.138C68.8532 99.0296 71.3507 99.0947 69.5765 100.312C67.8023 101.529 68.741 103.72 68.393 105.599Z" fill="black" fill-opacity="0.2"/>
<path d="M77.1929 108.592C75.6617 108.557 74.23 106.53 73.7056 105.521C72.9535 103.722 73.4152 100.218 71.6572 102.348C69.8992 104.477 74.3324 108.734 75.6567 109.875C76.981 111.016 79.107 108.636 77.1929 108.592Z" fill="black" fill-opacity="0.2"/>
<path d="M62.8965 103.239C62.7258 96.2634 55.9952 95.1682 52.4487 95.0999C49.6896 95.0469 43.9323 98.0132 43.7834 105.252C43.5519 116.509 52.7096 117.256 57.5156 116.757C62.3216 116.257 63.1099 111.958 62.8965 103.239Z" fill="#B86840"/>
<path fill-rule="evenodd" clip-rule="evenodd" d="M53.1692 116.735C46.5868 112.857 44.7056 105.838 45.1359 99.967C44.3488 101.384 43.8261 103.135 43.7825 105.251C43.6107 113.608 48.6137 116.173 53.1692 116.735Z" fill="black" fill-opacity="0.3"/>
<path d="M51.3413 112.913C52.8791 113.114 53.3316 112.289 50.6461 110.401C45.7185 106.079 50.0961 102.509 47.9985 102.886C43.5013 103.695 49.4191 112.662 51.3413 112.913Z" fill="black" fill-opacity="0.2"/>
<path d="M48.4237 100.76C47.3046 101.529 47.2873 100.789 47.4186 100.323C47.856 98.7497 49.7778 97.1077 51.5279 97.0016C52.8403 96.9221 54.3685 98.5321 52.4892 98.182C50.6098 97.8319 49.8226 99.7985 48.4237 100.76Z" fill="black" fill-opacity="0.2"/>
<path d="M52.0718 108.169C51.1317 107.185 51.5058 105.013 51.8103 104.049C52.4681 102.446 54.9597 100.535 52.5172 100.769C50.0748 101.002 50.1857 106.461 50.3008 108.01C50.4158 109.559 53.2468 109.399 52.0718 108.169Z" fill="black" fill-opacity="0.2"/>
<path opacity="0.46" d="M6.05009 116.308C5.65484 115.624 4.86433 113.806 6.05009 111.745L41.805 49.7833V27.4106H47.8402V55L33.2844 118.589H9.99499C7.62349 118.589 6.44534 116.992 6.05009 116.308Z" fill="#FFFEFF"/>
</svg>
