<svg width="104" height="146" viewBox="0 0 104 146" fill="none" xmlns="http://www.w3.org/2000/svg">
<path d="M38.7539 48.597V23.5H65.9459V48.6046V48.7385L66.0128 48.8545L101.183 109.797L101.183 109.798C104.441 115.442 100.371 122.5 93.855 122.5H10.8454C4.32851 122.493 0.258585 115.442 3.51729 109.79C3.51732 109.79 3.51735 109.79 3.51738 109.79L38.687 48.8469L38.7539 48.7309V48.597Z" fill="#FFFEFF" stroke="#5181FF"/>
<path d="M93.8482 118.589C96.2197 118.589 97.3978 116.992 97.7931 116.308C98.1883 115.624 98.9788 113.806 97.7931 111.745L62.0381 49.7833V27.4106H42.6556V49.7909L6.90067 111.745C5.71492 113.806 6.50542 115.616 6.90067 116.308C7.29592 116.992 8.47407 118.589 10.8456 118.589H93.8482Z" fill="#C5F4FC" fill-opacity="0.2"/>
<path d="M14.2581 104.943C8.72517 107.083 12.6087 112.307 16.5702 115.856C17.6448 116.819 19.288 116.21 19.4812 114.78C20.2065 109.412 19.809 102.796 14.2581 104.943Z" fill="#F8BE3C"/>
<path d="M15.8262 108.953C13.4555 109.879 15.1333 112.464 16.9377 114.335C17.4781 114.896 18.3745 114.564 18.4233 113.787C18.5892 111.141 18.2065 108.024 15.8262 108.953Z" fill="#79322C"/>
<path fill-rule="evenodd" clip-rule="evenodd" d="M17.7593 114.602C18.025 113.263 17.7922 110.877 17.5301 109.147C18.3964 109.95 18.54 111.983 18.4263 113.794C18.3991 114.229 18.1065 114.525 17.7593 114.602Z" fill="black" fill-opacity="0.2"/>
<path d="M26.3645 101.263C20.7407 99.3748 20.3912 105.875 21.1717 111.136C21.3834 112.564 23.0367 113.145 24.0987 112.168C28.0859 108.501 32.0067 103.157 26.3645 101.263Z" fill="#F8BE3C"/>
<path d="M24.8115 105.446C22.5582 104.697 22.1968 107.505 22.3627 109.935C22.4158 110.712 23.3167 111.029 23.8474 110.459C25.5405 108.642 27.0746 106.198 24.8115 105.446Z" fill="#79322C"/>
<path fill-rule="evenodd" clip-rule="evenodd" d="M22.8541 110.681C23.8483 109.848 25.0932 108.008 25.9336 106.614C26.0767 107.701 24.9976 109.229 23.8448 110.467C23.5585 110.774 23.1646 110.823 22.8541 110.681Z" fill="black" fill-opacity="0.2"/>
<path d="M53.6316 116.165C59.1027 113.871 55.0749 108.757 51.0158 105.32C49.9148 104.387 48.2893 105.042 48.136 106.477C47.5608 111.863 48.1427 118.465 53.6316 116.165Z" fill="#F8BE3C"/>
<path d="M51.9425 111.492C53.4995 110.833 52.5685 109.235 51.3667 107.956C50.8337 107.388 49.9491 107.744 49.9522 108.522C49.9593 110.315 50.3762 112.154 51.9425 111.492Z" fill="#79322C"/>
<path fill-rule="evenodd" clip-rule="evenodd" d="M50.3852 107.761C50.3048 108.765 50.5002 110.267 50.702 111.386C50.1351 110.89 49.9539 109.694 49.9492 108.517C49.9478 108.16 50.1329 107.892 50.3852 107.761Z" fill="black" fill-opacity="0.2"/>
<path d="M62.6511 82.7689C68.1222 80.4754 64.0944 75.3616 60.0353 71.9241C58.9343 70.9917 57.3088 71.6466 57.1556 73.0812C56.5803 78.4672 57.1623 85.0699 62.6511 82.7689Z" fill="#F8BE3C"/>
<path d="M60.962 78.0962C62.5191 77.4377 61.588 75.8397 60.3863 74.5602C59.8532 73.9926 58.9686 74.3482 58.9717 75.1269C58.9788 76.9195 59.3958 78.7585 60.962 78.0962Z" fill="#79322C"/>
<path fill-rule="evenodd" clip-rule="evenodd" d="M59.4047 74.3656C59.3244 75.3691 59.5197 76.8712 59.7215 77.9909C59.1546 77.4947 58.9734 76.2981 58.9687 75.1215C58.9673 74.7646 59.1524 74.4966 59.4047 74.3656Z" fill="black" fill-opacity="0.2"/>
<path d="M54.9097 100.511C50.9596 102.163 53.4658 105.738 56.3676 108.351C57.4398 109.316 59.0668 108.663 59.1809 107.224C59.4958 103.257 58.877 98.8518 54.9097 100.511Z" fill="#F8BE3C"/>
<path d="M55.1254 101.057C52.1152 102.327 54.5839 105.671 56.967 107.926C57.5326 108.461 58.4222 108.104 58.4637 107.326C58.6423 103.988 58.1453 99.7828 55.1254 101.057Z" fill="#79322C"/>
<path fill-rule="evenodd" clip-rule="evenodd" d="M57.6429 108.189C58.061 108.164 58.441 107.837 58.4678 107.336C58.5924 105.006 58.3882 102.255 57.2278 101.237C57.6276 103.467 58.0117 106.591 57.6429 108.189Z" fill="black" fill-opacity="0.2"/>
<path d="M62.8669 104.702C66.5385 106.905 67.9326 102.767 68.3175 98.8816C68.4597 97.4459 66.9691 96.5227 65.743 97.2831C62.3604 99.3809 59.1792 102.49 62.8669 104.702Z" fill="#F8BE3C"/>
<path d="M64.9103 101.483C66.0552 102.165 66.6718 100.956 66.9665 99.606C67.1326 98.8453 66.3212 98.342 65.7096 98.824C64.6002 99.6985 63.7571 100.796 64.9103 101.483Z" fill="#79322C"/>
<path fill-rule="evenodd" clip-rule="evenodd" d="M66.4967 98.678C65.8054 99.1475 64.9731 99.9476 64.3646 100.589C64.4139 100.017 65.0098 99.3737 65.7126 98.8197C65.9677 98.6187 66.2575 98.5891 66.4967 98.678Z" fill="black" fill-opacity="0.2"/>
<path d="M72.1942 106.524C76.458 106.135 75.1412 101.972 73.1582 98.6085C72.4255 97.3657 70.6774 97.5003 70.1365 98.8379C68.6444 102.528 67.9117 106.915 72.1942 106.524Z" fill="#F8BE3C"/>
<path d="M71.98 102.85C73.3831 102.717 73.1275 101.279 72.525 99.946C72.2042 99.2364 71.2528 99.3091 71.0379 100.058C70.6252 101.495 70.5672 102.983 71.98 102.85Z" fill="#79322C"/>
<path fill-rule="evenodd" clip-rule="evenodd" d="M71.6077 99.4721C71.3062 100.292 71.0927 101.504 70.9733 102.435C70.6554 101.911 70.7743 100.971 71.0382 100.052C71.1297 99.7337 71.3547 99.5375 71.6077 99.4721Z" fill="black" fill-opacity="0.2"/>
<path d="M53.2583 81.9739C49.3083 83.6259 51.8145 87.2006 54.7163 89.8135C55.7884 90.7789 57.4154 90.1254 57.5295 88.6872C57.8444 84.7194 57.2256 80.3146 53.2583 81.9739Z" fill="#F8BE3C"/>
<path d="M54.3533 84.5303C52.3987 85.3549 53.7339 87.4251 55.2692 88.9841C55.8156 89.5389 56.7013 89.1835 56.7169 88.405C56.7616 86.173 56.3172 83.7018 54.3533 84.5303Z" fill="#79322C"/>
<path fill-rule="evenodd" clip-rule="evenodd" d="M56.1792 89.2072C56.3312 88.0228 56.0851 86.0804 55.8298 84.6571C56.5584 85.296 56.7502 86.908 56.7201 88.4114C56.7122 88.8078 56.4786 89.0945 56.1792 89.2072Z" fill="black" fill-opacity="0.2"/>
<path d="M83.3931 95.875C79.443 97.5271 81.9492 101.102 84.851 103.715C85.9232 104.68 87.5502 104.027 87.6643 102.588C87.9792 98.6206 87.3604 94.2158 83.3931 95.875Z" fill="#F8BE3C"/>
<path d="M84.8445 99.6214C83.4634 100.204 84.219 101.596 85.2667 102.748C85.7906 103.324 86.6758 102.969 86.6622 102.19C86.6344 100.599 86.2347 99.0349 84.8445 99.6214Z" fill="#79322C"/>
<path fill-rule="evenodd" clip-rule="evenodd" d="M86.2744 102.93C86.3277 102.014 86.1566 100.705 85.9799 99.7189C86.4741 100.152 86.647 101.168 86.6649 102.195C86.6709 102.535 86.5059 102.794 86.2744 102.93Z" fill="black" fill-opacity="0.2"/>
<path d="M16.2737 104.536C20.3328 105.898 20.8052 101.558 20.346 97.6806C20.1763 96.2479 18.5222 95.6666 17.4882 96.6727C14.6355 99.4485 12.1967 103.168 16.2737 104.536Z" fill="#F8BE3C"/>
<path d="M17.0482 102.18C18.9954 102.826 19.3559 100.491 19.2403 98.375C19.1978 97.5975 18.2979 97.2808 17.7747 97.8575C16.3218 99.4591 15.0914 101.53 17.0482 102.18Z" fill="#79322C"/>
<path fill-rule="evenodd" clip-rule="evenodd" d="M18.691 97.6024C17.8234 98.3796 16.7688 99.9429 16.0481 101.139C15.9262 100.212 16.8012 98.926 17.7764 97.851C18.0385 97.5621 18.395 97.4974 18.691 97.6024Z" fill="black" fill-opacity="0.2"/>
<path d="M91.2097 115.762C96.6808 113.469 92.653 108.355 88.5939 104.918C87.4929 103.985 85.8674 104.64 85.7142 106.075C85.1389 111.461 85.7209 118.063 91.2097 115.762Z" fill="#F8BE3C"/>
<path d="M89.8105 111.977C92.3458 110.905 90.391 108.137 88.3811 106.19C87.8218 105.648 86.9341 106.005 86.9024 106.783C86.7862 109.633 87.2655 113.053 89.8105 111.977Z" fill="#79322C"/>
<path fill-rule="evenodd" clip-rule="evenodd" d="M87.5952 105.938C87.3274 107.359 87.6521 109.953 87.9889 111.822C87.0215 110.975 86.8186 108.74 86.8987 106.775C86.9172 106.32 87.2282 106.01 87.5952 105.938Z" fill="black" fill-opacity="0.2"/>
<path d="M76.8142 96.7321C82.2853 94.4386 78.2575 89.3248 74.1984 85.8873C73.0974 84.9549 71.4719 85.6098 71.3187 87.0444C70.7434 92.4304 71.3254 99.0331 76.8142 96.7321Z" fill="#F8BE3C"/>
<path d="M75.415 92.9465C77.9503 91.8744 75.9955 89.1066 73.9856 87.1597C73.4263 86.618 72.5386 86.9748 72.5069 87.7528C72.3906 90.6033 72.87 94.0227 75.415 92.9465Z" fill="#79322C"/>
<path fill-rule="evenodd" clip-rule="evenodd" d="M73.1996 86.9077C72.9319 88.3286 73.2566 90.9229 73.5934 92.7917C72.626 91.945 72.4231 89.7098 72.5032 87.7449C72.5217 87.2902 72.8327 86.9793 73.1996 86.9077Z" fill="black" fill-opacity="0.2"/>
<path d="M69.9838 110.531C68.8343 116.351 75.3255 115.862 80.443 114.412C81.8311 114.018 82.1946 112.304 81.0896 111.377C76.9409 107.894 71.1369 104.693 69.9838 110.531Z" fill="#F8BE3C"/>
<path d="M75.3686 111.992C74.9732 114.027 77.3672 114.081 79.4718 113.689C80.2373 113.546 80.4358 112.613 79.7971 112.167C78.0054 110.917 75.7661 109.946 75.3686 111.992Z" fill="#79322C"/>
<path fill-rule="evenodd" clip-rule="evenodd" d="M80.1655 113.049C79.2779 112.28 77.5723 111.425 76.2797 110.857C77.1933 110.615 78.5991 111.329 79.8029 112.168C80.1242 112.393 80.2336 112.74 80.1655 113.049Z" fill="black" fill-opacity="0.2"/>
<path d="M79.529 112.535C85.459 112.703 83.8991 106.383 81.6194 101.577C81.001 100.273 79.2501 100.2 78.5188 101.443C75.7731 106.112 73.5797 112.367 79.529 112.535Z" fill="#F8BE3C"/>
<path d="M79.7968 106.949C81.9315 107.003 81.5611 104.547 80.7977 102.482C80.5278 101.752 79.5743 101.711 79.2391 102.414C78.2722 104.441 77.6519 106.896 79.7968 106.949Z" fill="#79322C"/>
<path fill-rule="evenodd" clip-rule="evenodd" d="M80.0633 101.904C79.4326 102.925 78.8529 104.81 78.497 106.222C78.0934 105.334 78.5876 103.773 79.2393 102.406C79.4105 102.047 79.743 101.883 80.0633 101.904Z" fill="black" fill-opacity="0.2"/>
<path d="M60.6364 115.028C65.322 118.667 67.7972 112.646 68.7969 107.422C69.0681 106.005 67.6991 104.911 66.3743 105.482C61.4005 107.627 55.9356 111.378 60.6364 115.028Z" fill="#F8BE3C"/>
<path d="M63.83 111.107C65.6476 112.51 66.8775 110.088 67.5094 107.815C67.718 107.065 66.9725 106.468 66.2845 106.833C64.1584 107.96 62.0042 109.699 63.83 111.107Z" fill="#79322C"/>
<path fill-rule="evenodd" clip-rule="evenodd" d="M67.2798 106.937C66.0994 107.393 64.3836 108.67 63.1737 109.672C63.3896 108.638 64.8455 107.592 66.2883 106.827C66.6528 106.634 67.0335 106.71 67.2798 106.937Z" fill="black" fill-opacity="0.2"/>
<path d="M70.9482 73.0164C65.0166 73.1105 66.8535 79.3555 69.3429 84.0561C70.0181 85.3311 71.7706 85.3277 72.4464 84.053C74.9836 79.2673 76.8991 72.9219 70.9482 73.0164Z" fill="#F8BE3C"/>
<path d="M70.9111 78.073C68.6158 78.1166 69.1722 80.7754 70.1015 82.9437C70.4083 83.6593 71.3631 83.6582 71.6716 82.9433C72.6248 80.7339 73.2167 78.0292 70.9111 78.073Z" fill="#79322C"/>
<path fill-rule="evenodd" clip-rule="evenodd" d="M70.83 83.4851C71.465 82.3901 72.0044 80.3206 72.3209 78.7816C72.7995 79.7233 72.319 81.4509 71.6721 82.9503C71.5087 83.329 71.1638 83.5075 70.83 83.4851Z" fill="black" fill-opacity="0.2"/>
<path d="M41.0661 87.3777C45.7517 91.016 48.2269 84.9954 49.2266 79.7712C49.4978 78.3541 48.1288 77.26 46.804 77.8314C41.8302 79.9766 36.3653 83.7274 41.0661 87.3777Z" fill="#F8BE3C"/>
<path d="M44.2597 83.4567C46.0773 84.8591 47.3071 82.437 47.9391 80.1642C48.1477 79.414 47.4022 78.8174 46.7142 79.182C44.5881 80.3088 42.4339 82.0481 44.2597 83.4567Z" fill="#79322C"/>
<path fill-rule="evenodd" clip-rule="evenodd" d="M47.7095 79.2859C46.5291 79.7427 44.8133 81.0193 43.6034 82.0217C43.8193 80.9876 45.2752 79.9408 46.718 79.1761C47.0825 78.9829 47.4632 79.0596 47.7095 79.2859Z" fill="black" fill-opacity="0.2"/>
<path d="M51.7908 99.609C57.2618 97.3155 53.234 92.2017 49.175 88.7642C48.074 87.8318 46.4484 88.4866 46.2952 89.9212C45.72 95.3073 46.3019 101.91 51.7908 99.609Z" fill="#F8BE3C"/>
<path d="M49.9238 95.6481C52.257 94.6615 50.5192 92.1374 48.6719 90.3239C48.1163 89.7784 47.2296 90.1351 47.2028 90.9133C47.1121 93.5514 47.5811 96.6387 49.9238 95.6481Z" fill="#79322C"/>
<path fill-rule="evenodd" clip-rule="evenodd" d="M47.8416 90.0803C47.6156 91.422 47.9136 93.7894 48.2224 95.5036C47.3379 94.7293 47.1376 92.7123 47.1997 90.9059C47.2146 90.4714 47.4978 90.1682 47.8416 90.0803Z" fill="black" fill-opacity="0.2"/>
<path d="M61.0363 96.6561C66.9112 97.4794 66.061 91.0256 64.3277 85.9969C63.8575 84.6329 62.1255 84.3655 61.2609 85.5205C58.0149 89.8568 55.1422 95.8302 61.0363 96.6561Z" fill="#F8BE3C"/>
<path d="M61.6962 92.4114C63.9252 92.7167 63.7986 90.0702 63.2306 87.8268C63.0395 87.072 62.096 86.9256 61.682 87.585C60.4268 89.5843 59.457 92.1048 61.6962 92.4114Z" fill="#79322C"/>
<path fill-rule="evenodd" clip-rule="evenodd" d="M62.5858 87.1767C61.8055 88.1495 60.9723 90.0672 60.4334 91.508C60.113 90.5255 60.8323 88.932 61.6826 87.5778C61.8997 87.232 62.2623 87.1078 62.5858 87.1767Z" fill="black" fill-opacity="0.2"/>
<path d="M42.8392 90.8276C40.8198 87.3309 37.7893 90.027 35.6703 93.0478C34.8417 94.2289 35.6973 95.7598 37.138 95.6814C40.8944 95.4772 44.8678 94.3404 42.8392 90.8276Z" fill="#F8BE3C"/>
<path d="M40.1305 92.2839C39.3291 90.9061 37.9543 91.9306 36.8913 93.2C36.3913 93.7969 36.8559 94.6295 37.6272 94.5227C39.3027 94.2908 40.9368 93.6701 40.1305 92.2839Z" fill="#79322C"/>
<path fill-rule="evenodd" clip-rule="evenodd" d="M36.8304 94.2107C37.7907 94.1547 39.1605 93.795 40.1799 93.4741C39.7862 94.0587 38.7129 94.3745 37.622 94.5255C37.2773 94.5732 36.9938 94.4333 36.8304 94.2107Z" fill="black" fill-opacity="0.2"/>
<path d="M26.4002 99.4041C34.1361 101.35 33.5835 92.1354 31.8819 85.3408C31.5314 83.9412 29.8362 83.4898 28.8325 84.5261C23.8722 89.6471 18.645 97.4531 26.4002 99.4041Z" fill="#F8BE3C"/>
<path d="M28.4885 92.6942C31.1955 93.3663 31.2873 89.9247 30.8389 87.1275C30.7156 86.3587 29.7913 86.1116 29.2986 86.7146C27.4711 88.9509 25.7711 92.0196 28.4885 92.6942Z" fill="#79322C"/>
<path fill-rule="evenodd" clip-rule="evenodd" d="M30.3681 86.4578C29.2883 87.4398 27.9728 89.7423 27.1093 91.4629C26.8407 90.1872 28.0405 88.2486 29.3011 86.7061C29.591 86.3513 30.0304 86.2908 30.3681 86.4578Z" fill="black" fill-opacity="0.2"/>
<path d="M37.0466 115.433C42.5177 113.14 38.4899 108.026 34.4308 104.589C33.3298 103.656 31.7043 104.311 31.5511 105.746C30.9758 111.132 31.5578 117.734 37.0466 115.433Z" fill="#F8BE3C"/>
<path d="M35.1895 110.663C37.0463 109.878 35.8101 107.925 34.3544 106.434C33.8104 105.877 32.9254 106.233 32.9142 107.011C32.8836 109.137 33.3235 111.452 35.1895 110.663Z" fill="#79322C"/>
<path fill-rule="evenodd" clip-rule="evenodd" d="M33.4259 106.218C33.293 107.36 33.5279 109.194 33.771 110.543C33.0815 109.939 32.8908 108.43 32.9113 107.005C32.9168 106.618 33.138 106.336 33.4259 106.218Z" fill="black" fill-opacity="0.2"/>
<path d="M26.8468 114.963C30.567 114.918 29.8503 111.333 28.4053 108.248C27.7933 106.941 26.0384 106.938 25.4127 108.238C23.9059 111.368 23.1082 115.008 26.8468 114.963Z" fill="#F8BE3C"/>
<path d="M26.864 112.466C28.4868 112.441 28.254 110.701 27.6535 109.126C27.3762 108.398 26.4228 108.396 26.1366 109.12C25.5038 110.722 25.2312 112.49 26.864 112.466Z" fill="#79322C"/>
<path fill-rule="evenodd" clip-rule="evenodd" d="M26.8058 108.578C26.3753 109.453 26.0104 110.852 25.7868 111.919C25.4632 111.276 25.7228 110.16 26.1359 109.114C26.2648 108.788 26.529 108.609 26.8058 108.578Z" fill="black" fill-opacity="0.2"/>
<path d="M42.5246 97.784C36.6713 96.8185 37.3647 103.291 38.9756 108.36C39.4125 109.735 41.1375 110.045 42.0298 108.911C45.3801 104.655 48.3968 98.7526 42.5246 97.784Z" fill="#F8BE3C"/>
<path d="M41.9261 101.771C39.3762 101.358 39.5187 104.493 40.1346 107.056C40.3165 107.813 41.2575 107.983 41.6948 107.338C43.2046 105.114 44.4863 102.185 41.9261 101.771Z" fill="#79322C"/>
<path fill-rule="evenodd" clip-rule="evenodd" d="M40.6988 107.701C41.621 106.674 42.6491 104.464 43.3119 102.815C43.6561 103.965 42.7281 105.821 41.6929 107.346C41.4462 107.71 41.0393 107.814 40.6988 107.701Z" fill="black" fill-opacity="0.2"/>
<path d="M45.3299 115.211C51.2144 116.61 50.9511 109.953 49.6674 104.691C49.3255 103.289 47.6262 102.86 46.6553 103.927C42.9436 108.007 39.4266 113.808 45.3299 115.211Z" fill="#F8BE3C"/>
<path d="M46.3851 110.612C48.3669 111.077 48.5172 108.742 48.2151 106.661C48.1033 105.89 47.1785 105.656 46.71 106.278C45.4186 107.992 44.3934 110.145 46.3851 110.612Z" fill="#79322C"/>
<path fill-rule="evenodd" clip-rule="evenodd" d="M47.5961 105.94C46.8081 106.789 45.9069 108.427 45.3021 109.672C45.0984 108.769 45.8449 107.421 46.7112 106.271C46.9451 105.961 47.2927 105.864 47.5961 105.94Z" fill="black" fill-opacity="0.2"/>
<path opacity="0.46" d="M6.90067 116.308C6.50542 115.624 5.71492 113.806 6.90067 111.745L42.6556 49.7833V27.4106H48.6908V55L34.1349 118.589H10.8456C8.47407 118.589 7.29592 116.992 6.90067 116.308Z" fill="#FFFEFF"/>
</svg>
