<svg width="105" height="82" viewBox="0 0 105 82" fill="none" xmlns="http://www.w3.org/2000/svg">
<path opacity="0.1" d="M52.5737 43.8227C81.1286 43.8227 104.279 48.3767 104.279 53.993V71.0178C104.279 76.634 81.1286 81.188 52.5737 81.188C24.0189 81.188 0.868195 76.634 0.868195 71.0178V53.993C0.868195 48.3767 24.015 43.8227 52.5737 43.8227Z" fill="url(#paint0_linear_2279_5083)"/>
<path opacity="0.5" d="M52.5732 61.4258C80.2829 61.4258 102.745 65.5901 102.745 70.7286C102.745 75.8671 80.2829 80.0314 52.5732 80.0314C24.8636 80.0314 2.40137 75.8671 2.40137 70.7286C2.39755 65.5901 24.8636 61.4258 52.5732 61.4258Z" fill="url(#paint1_linear_2279_5083)" stroke="#5181FF" stroke-width="0.213382"/>
<path opacity="0.4" d="M100.731 53.6347C100.731 53.6347 101.622 50.5233 81.3013 47.239C60.9809 43.9547 28.3718 45.8624 17.5404 48.339C6.70898 50.8155 2.83842 52.8238 4.13881 54.9515C4.13881 54.9515 15.5669 48.647 35.9638 47.6067C56.3645 46.5664 73.411 45.7178 100.731 53.6347Z" fill="url(#paint2_linear_2279_5083)"/>
<path d="M81.7152 6.77756H23.4193L10.8018 67.8896H10.8933C10.8933 72.7902 29.4601 76.7584 52.3614 76.7584C75.2626 76.7584 93.8294 72.7902 93.8294 67.8896H94.3394L81.7152 6.77756Z" fill="#F4E1C9"/>
<path d="M52.5751 63.3649C65.992 63.3649 78.6095 62.3969 88.1023 60.637C97.6907 58.8581 102.969 56.4601 102.969 53.8798C102.969 51.2996 97.6869 48.9016 88.0985 47.1227C78.6057 45.3627 65.9881 44.3947 52.5712 44.3947C39.1543 44.3947 26.5368 45.3627 17.044 47.1227C7.45557 48.9016 2.17373 51.2996 2.17373 53.8798C2.17373 56.4601 7.45557 58.8581 17.044 60.637C26.5406 62.3969 39.1582 63.3649 52.5751 63.3649ZM52.5751 44.7593C65.9614 44.7593 78.5445 45.7242 88.0029 47.481C97.2318 49.1907 102.525 51.5227 102.525 53.8798C102.525 56.237 97.2318 58.569 88.0029 60.2787C78.5407 62.0324 65.9614 63.0004 52.5751 63.0004C39.1888 63.0004 26.6056 62.0324 17.1473 60.2787C7.91836 58.569 2.62503 56.2338 2.62503 53.8798C2.62503 51.5227 7.91836 49.1907 17.1473 47.481C26.6056 45.7242 39.1888 44.7593 52.5751 44.7593Z" fill="#C5D5FC"/>
<path opacity="0.4" d="M52.5737 43.8227C81.1286 43.8227 104.279 48.3767 104.279 53.993V71.0178C104.279 76.634 81.1286 81.188 52.5737 81.188C24.0189 81.188 0.868195 76.634 0.868195 71.0178V53.993C0.868195 48.3767 24.015 43.8227 52.5737 43.8227ZM7.90174 71.1592C8.27274 73.5446 10.5828 74.7043 10.5828 74.7043C16.7597 79.0446 48.9939 80.0346 48.9939 80.0346C78.3252 80.8957 98.7221 75.1349 100.585 73.5446C102.447 71.9543 102.072 69.8769 102.072 69.8769C102.072 69.8769 101.774 65.2884 102.072 61.9821C102.371 58.679 99.9115 59.4741 99.9115 59.4741C80.184 66.6932 45.1195 65.4078 45.1195 65.4078C25.8394 64.8578 13.5546 62.4724 10.7282 61.7998C7.89793 61.1272 7.89792 63.8804 7.89792 63.8804C7.89792 63.8804 7.52692 68.7738 7.90174 71.1592ZM52.5737 63.1827C80.2834 63.1827 102.746 59.0184 102.746 53.8798C102.746 48.7413 80.2834 44.577 52.5737 44.577C24.8641 44.577 2.40188 48.7413 2.40188 53.8798C2.39806 59.0184 24.8641 63.1827 52.5737 63.1827Z" fill="url(#paint3_linear_2279_5083)"/>
<path d="M52.5736 81.3702C66.4036 81.3702 79.4036 80.3111 89.187 78.3845C99.0623 76.4454 104.501 73.8274 104.501 71.0177V53.9929C104.501 51.1832 99.0623 48.5652 89.187 46.623C79.4036 44.6995 66.3997 43.6404 52.5736 43.6404C38.7474 43.6404 25.7436 44.6995 15.9601 46.623C6.08487 48.5652 0.646202 51.1832 0.646202 53.9929V71.0177C0.646202 73.8274 6.08487 76.4454 15.9601 78.3877C25.7436 80.3111 38.7436 81.3702 52.5736 81.3702ZM52.5736 44.005C66.3691 44.005 79.3347 45.061 89.0838 46.9781C98.5957 48.8512 104.053 51.4064 104.053 53.9929V71.0177C104.053 73.6043 98.5957 76.1594 89.08 78.0294C79.3309 79.9465 66.3653 81.0025 52.5698 81.0025C38.7742 81.0025 25.8086 79.9465 16.0596 78.0294C6.54382 76.1563 1.08603 73.6011 1.08603 71.0177V53.9929C1.08603 51.4064 6.54382 48.8512 16.0596 46.9813C25.8125 45.061 38.778 44.005 52.5736 44.005Z" fill="#99B9FF"/>
<path opacity="0.3" d="M103.052 69.2703C103.193 66.8503 103.12 64.4303 103.231 62.0134C103.289 60.7657 103.541 59.254 102.914 58.0755C102.195 56.7272 100.6 57.7926 99.3914 58.2169C100.81 57.1703 102.505 56.3438 103.254 54.832C103.644 54.0432 103.771 53.2606 103.709 52.4843C104.08 52.9778 104.279 53.4806 104.279 53.9929V71.0177C104.279 71.8945 103.717 72.7431 102.658 73.554C102.837 72.1303 102.967 70.7003 103.052 69.2703Z" fill="url(#paint4_linear_2279_5083)"/>
<path opacity="0.3" d="M1.05619 53.1255C1.18241 54.1312 1.7867 55.1275 2.60518 55.9855C3.46955 56.8969 4.49074 57.6638 5.71081 58.2421C6.80083 58.7606 7.9597 59.1661 9.0918 59.6123C7.42807 59.4552 5.10651 58.3552 3.89409 59.5872C2.83084 60.6683 2.54781 69.2012 2.43307 70.4583C2.34511 71.4294 2.28391 72.4037 2.26479 73.378C1.35069 72.6206 0.861133 71.8317 0.861133 71.0177V53.9929C0.868782 53.7007 0.933805 53.4115 1.05619 53.1255Z" fill="url(#paint5_linear_2279_5083)"/>
<path opacity="0.7" d="M87.8604 63.0192C87.8604 63.0192 72.2902 65.7189 55.4655 65.656C55.4655 65.656 64.201 65.9043 69.5135 66.2689C69.5135 66.2689 72.7147 66.0772 72.8409 67.9157C72.9671 69.7543 73.2119 78.6234 73.2119 78.6234L77.0289 78.3186V68.538C77.0289 68.538 76.8989 66.1872 80.2722 65.4518C83.6456 64.7132 87.8604 63.0192 87.8604 63.0192Z" fill="white"/>
<path d="M52.5736 64.3455C66.4036 64.3455 79.4036 63.2863 89.187 61.3629C99.0623 59.4206 104.501 56.8026 104.501 53.9929C104.501 51.1832 99.0623 48.5652 89.187 46.623C79.4036 44.6995 66.3997 43.6404 52.5736 43.6404C38.7474 43.6404 25.7436 44.6995 15.9601 46.623C6.08487 48.5652 0.646202 51.1832 0.646202 53.9929C0.646202 56.8026 6.08487 59.4206 15.9601 61.3629C25.7436 63.2863 38.7436 64.3455 52.5736 64.3455ZM52.5736 44.005C66.3691 44.005 79.3347 45.061 89.0838 46.9781C98.5957 48.8512 104.053 51.4064 104.053 53.9929C104.053 56.5764 98.5957 59.1346 89.08 61.0046C79.3309 62.9218 66.3653 63.9777 52.5698 63.9777C38.7742 63.9777 25.8086 62.9218 16.0596 61.0046C6.54382 59.1346 1.08603 56.5764 1.08603 53.9929C1.08603 51.4064 6.54382 48.8512 16.0596 46.9813C25.8125 45.061 38.778 44.005 52.5736 44.005Z" fill="#99B9FF"/>
<path d="M14.9102 48.0062L15.2314 46.4476L54.3389 40.7386L89.8978 46.3859L90.2356 48.008L55.9447 47.868L14.9102 48.0062Z" fill="#F4E1C9"/>
<mask id="mask0_2279_5083" style="mask-type:alpha" maskUnits="userSpaceOnUse" x="10" y="6" width="85" height="54">
<path d="M81.7211 6.7701H23.4252L10.8076 53.0754H10.8991C10.8991 56.7886 29.466 59.7954 52.3672 59.7954C75.2685 59.7954 93.8353 56.7886 93.8353 53.0754H94.3452L81.7211 6.7701Z" fill="#393B36"/>
</mask>
<g mask="url(#mask0_2279_5083)">
<path d="M31.4983 -3.83202L39.8275 -2.27563L36.0685 70.3976L21.2798 69.677L31.4983 -3.83202Z" fill="white" fill-opacity="0.6"/>
<path d="M43.2564 10.9291L45.9061 10.9291L42.0096 63.883L40.6068 62.9398L43.2564 10.9291Z" fill="white" fill-opacity="0.6"/>
</g>
<path d="M52.5779 14.6618C68.7608 14.6618 81.8795 11.4625 81.8795 7.51601C81.8795 3.56951 68.7608 0.370239 52.5779 0.370239C36.3951 0.370239 23.2764 3.56951 23.2764 7.51601C23.2764 11.4625 36.3951 14.6618 52.5779 14.6618Z" fill="#EDDCC6"/>
<defs>
<linearGradient id="paint0_linear_2279_5083" x1="52.5726" y1="36.6603" x2="52.5726" y2="64.4017" gradientUnits="userSpaceOnUse">
<stop stop-color="#C5D5FC"/>
<stop offset="0.1131" stop-color="#DCE6FD"/>
<stop offset="0.2469" stop-color="#EFF4FE"/>
<stop offset="0.3824" stop-color="#FBFCFF"/>
<stop offset="0.5211" stop-color="white"/>
<stop offset="0.611" stop-color="#FCFDFF"/>
<stop offset="0.6842" stop-color="#F2F5FF"/>
<stop offset="0.7514" stop-color="#E1E9FF"/>
<stop offset="0.8152" stop-color="#C9D8FF"/>
<stop offset="0.8765" stop-color="#AAC1FF"/>
<stop offset="0.9359" stop-color="#83A6FF"/>
<stop offset="0.9928" stop-color="#5785FF"/>
<stop offset="1" stop-color="#5181FF"/>
</linearGradient>
<linearGradient id="paint1_linear_2279_5083" x1="52.5719" y1="94.7795" x2="52.5719" y2="46.8018" gradientUnits="userSpaceOnUse">
<stop stop-color="#C5D5FC"/>
<stop offset="0.1131" stop-color="#DCE6FD"/>
<stop offset="0.2469" stop-color="#EFF4FE"/>
<stop offset="0.3824" stop-color="#FBFCFF"/>
<stop offset="0.5211" stop-color="white"/>
<stop offset="0.5964" stop-color="#F0F4FE"/>
<stop offset="0.7449" stop-color="#D8E3FD"/>
<stop offset="0.8832" stop-color="#CAD9FC"/>
<stop offset="1" stop-color="#C5D5FC"/>
</linearGradient>
<linearGradient id="paint2_linear_2279_5083" x1="52.3184" y1="32.3133" x2="52.3184" y2="56.563" gradientUnits="userSpaceOnUse">
<stop stop-color="#C5D5FC"/>
<stop offset="0.1131" stop-color="#DCE6FD"/>
<stop offset="0.2469" stop-color="#EFF4FE"/>
<stop offset="0.3824" stop-color="#FBFCFF"/>
<stop offset="0.5211" stop-color="white"/>
<stop offset="0.5964" stop-color="#F0F4FE"/>
<stop offset="0.7449" stop-color="#D8E3FD"/>
<stop offset="0.8832" stop-color="#CAD9FC"/>
<stop offset="1" stop-color="#C5D5FC"/>
</linearGradient>
<linearGradient id="paint3_linear_2279_5083" x1="79.4408" y1="62.5047" x2="-12.7409" y2="62.5047" gradientUnits="userSpaceOnUse">
<stop stop-color="#C5D5FC"/>
<stop offset="0.1131" stop-color="#DCE6FD"/>
<stop offset="0.2469" stop-color="#EFF4FE"/>
<stop offset="0.3824" stop-color="#FBFCFF"/>
<stop offset="0.5211" stop-color="white"/>
<stop offset="0.5959" stop-color="#F0F4FE"/>
<stop offset="0.7435" stop-color="#D8E3FD"/>
<stop offset="0.8808" stop-color="#CAD9FC"/>
<stop offset="0.9969" stop-color="#C5D5FC"/>
</linearGradient>
<linearGradient id="paint4_linear_2279_5083" x1="79.4401" y1="63.0184" x2="-12.7441" y2="63.0184" gradientUnits="userSpaceOnUse">
<stop stop-color="#B4BAC0"/>
<stop offset="0.044" stop-color="#C0C5CA"/>
<stop offset="0.161" stop-color="#DCDFE1"/>
<stop offset="0.2794" stop-color="#EFF1F2"/>
<stop offset="0.3988" stop-color="#FBFBFC"/>
<stop offset="0.5211" stop-color="white"/>
<stop offset="0.5409" stop-color="#F9FAFA"/>
<stop offset="0.6686" stop-color="#D8DBDE"/>
<stop offset="0.7909" stop-color="#C0C6CA"/>
<stop offset="0.9042" stop-color="#B2B9BE"/>
<stop offset="1" stop-color="#ADB4BA"/>
</linearGradient>
<linearGradient id="paint5_linear_2279_5083" x1="79.4402" y1="63.2508" x2="-12.7402" y2="63.2508" gradientUnits="userSpaceOnUse">
<stop stop-color="#B4BAC0"/>
<stop offset="0.044" stop-color="#C0C5CA"/>
<stop offset="0.161" stop-color="#DCDFE1"/>
<stop offset="0.2794" stop-color="#EFF1F2"/>
<stop offset="0.3988" stop-color="#FBFBFC"/>
<stop offset="0.5211" stop-color="white"/>
<stop offset="0.5409" stop-color="#F9FAFA"/>
<stop offset="0.6686" stop-color="#D8DBDE"/>
<stop offset="0.7909" stop-color="#C0C6CA"/>
<stop offset="0.9042" stop-color="#B2B9BE"/>
<stop offset="1" stop-color="#ADB4BA"/>
</linearGradient>
</defs>
</svg>
