<svg width="81" height="106" viewBox="0 0 81 106" fill="none" xmlns="http://www.w3.org/2000/svg">
<path d="M28.6767 27.1614V27.5228L28.3336 27.6362C12.5969 32.8379 1.24179 47.6541 1.25001 65.1308V65.1311C1.25001 86.9477 18.9334 104.631 40.75 104.631C62.5666 104.631 80.25 86.9477 80.25 65.1311C80.25 47.6542 68.8947 32.8378 53.1579 27.6278L52.815 27.5143V27.1531V0.865112H28.6767V27.1614Z" fill="#FFFEFF" stroke="#5181FF"/>
<path d="M41.233 100.263C60.5381 100.263 76.2402 84.5611 76.2402 65.2559C76.2402 50.128 66.5876 36.7724 52.2253 32.021L48.7969 30.8894V5.48267H33.644V30.8894L30.2157 32.021C15.8533 36.7724 6.20903 50.128 6.20903 65.2559C6.22567 84.5611 21.9278 100.263 41.233 100.263Z" fill="white"/>
<path d="M9.96329 80.2831L9.96337 80.2833C10.8531 82.6212 12.1265 84.6274 13.516 86.0179C14.8931 87.396 16.4437 88.2249 17.8789 88.0588C18.1273 88.0301 18.379 87.9669 18.6048 87.8847L18.6048 87.8848L18.6096 87.883L32.8704 82.4577L32.8705 82.4577C34.35 81.8945 35.1616 80.2435 35.3831 78.2129C35.6071 76.1607 35.2479 73.608 34.27 71.0359L34.27 71.0358C33.3802 68.6978 32.1068 66.6916 30.7173 65.3011C29.3402 63.923 27.7897 63.0941 26.3544 63.2602C26.106 63.2889 25.8543 63.3522 25.6286 63.4343L25.6286 63.4343L25.6236 63.4361L11.5558 68.7961L11.5491 68.7908L11.3634 68.8612C9.91576 69.4093 9.05956 71.0029 8.83285 73.1432L8.8328 73.1437C8.61097 75.2693 9.02242 77.8058 9.96329 80.2831Z" fill="#E5C3DF" stroke="white" stroke-width="0.7"/>
<path d="M12.3613 69.8725C15.0451 69.9243 22.36 79.1144 18.8751 86.2322" stroke="#A888A3" stroke-miterlimit="10" stroke-linecap="round"/>
<path d="M71.9942 47.1315L71.9941 47.1313C70.7706 44.9494 69.2163 43.152 67.6376 41.9807C66.073 40.8199 64.4175 40.2277 63.0222 40.6028C62.7807 40.6677 62.541 40.7672 62.3298 40.8817L62.3298 40.8816L62.3253 40.8841L49.0161 48.3454L49.016 48.3454C47.6353 49.1198 47.0751 50.8721 47.1542 52.9132C47.2341 54.9761 47.9644 57.4483 49.3095 59.8489L49.3096 59.849C50.5331 62.0309 52.0874 63.8283 53.666 64.9995C55.2307 66.1604 56.8862 66.7526 58.2814 66.3775C58.5229 66.3125 58.7626 66.213 58.9738 66.0986L58.9739 66.0987L58.9785 66.0961L72.1063 58.7277L72.1137 58.732L72.2871 58.6351C73.6385 57.8803 74.2513 56.1782 74.1612 54.0278L74.1611 54.0273C74.0683 51.8922 73.2888 49.4437 71.9942 47.1315Z" fill="#E5C3DF" stroke="white" stroke-width="0.7"/>
<path d="M71.1514 57.7814C68.4891 58.1244 59.9036 50.1085 62.3051 42.5561" stroke="#A888A3" stroke-miterlimit="10" stroke-linecap="round"/>
<path d="M51.3391 62.3783L51.3389 62.3785C50.0304 64.5105 49.2189 66.7438 48.966 68.6932C48.7152 70.6253 49.0053 72.3594 50.0131 73.3947C50.1875 73.5739 50.3912 73.7347 50.5941 73.8633L50.5941 73.8633L50.5984 73.866L63.6017 81.8486L63.6017 81.8487C64.951 82.6766 66.7541 82.3115 68.4976 81.2473C70.2597 80.1717 72.0622 78.3289 73.5023 75.984L73.5024 75.9839C74.8109 73.8519 75.6224 71.6186 75.8754 69.6692C76.1261 67.7372 75.836 66.003 74.8283 64.9677C74.6538 64.7885 74.4501 64.6278 74.2472 64.4991L74.2472 64.4991L74.2427 64.4963L61.4091 56.6267L61.4092 56.6182L61.2401 56.5141C59.9222 55.7022 58.1373 55.9969 56.3038 57.124L56.3033 57.1243C54.4844 58.2463 52.7267 60.1207 51.3391 62.3783Z" fill="#C3A0D1" stroke="white" stroke-width="0.7"/>
<path d="M61.0488 57.9222C62.6462 60.0794 59.8334 71.4835 52.0685 73.0689" stroke="#B07EAB" stroke-miterlimit="10" stroke-linecap="round"/>
<path d="M37.9428 52.2962L37.9426 52.2962C35.4606 52.6086 33.2105 53.3722 31.5312 54.394C29.8668 55.4067 28.6951 56.7177 28.5176 58.1515C28.4868 58.3997 28.4888 58.6592 28.5153 58.898L28.5153 58.898L28.5159 58.903L30.4199 74.0418L30.4199 74.0418C30.6177 75.6125 32.0304 76.791 33.9512 77.4859C35.8925 78.1881 38.4577 78.442 41.1881 78.0992L41.1882 78.0992C43.6701 77.7868 45.9203 77.0231 47.5996 76.0013C49.2639 74.9886 50.4356 73.6777 50.6132 72.2439C50.6439 71.9957 50.6419 71.7362 50.6154 71.4974L50.6154 71.4974L50.6148 71.4922L48.7287 56.5564L48.7354 56.5512L48.711 56.3541C48.5202 54.818 47.1739 53.6096 45.1477 52.8839L45.1472 52.8837C43.1341 52.1662 40.5722 51.967 37.9428 52.2962Z" fill="#C3A0D1" stroke="#FFFEFF" stroke-width="0.7"/>
<path d="M47.4922 57.0854C46.808 59.681 36.1504 64.6186 30.057 59.5514" stroke="#B07EAB" stroke-miterlimit="10" stroke-linecap="round"/>
<path d="M13.9828 64.9216L13.9826 64.9214C11.8699 63.582 10.159 61.933 9.07452 60.2935C7.99973 58.6685 7.49771 56.9835 7.94753 55.6105C8.02539 55.3728 8.13768 55.1389 8.26332 54.9341L8.26329 54.9341L8.26602 54.9298L16.4343 42.0424L16.4343 42.0423C17.282 40.7054 19.062 40.2405 21.0959 40.4295C23.1514 40.6206 25.5807 41.4831 27.9052 42.9558L27.9053 42.9559C30.018 44.2953 31.7289 45.9443 32.8134 47.5838C33.8882 49.2087 34.3902 50.8938 33.9404 52.2668C33.8625 52.5044 33.7502 52.7384 33.6246 52.9431L33.6246 52.9432L33.6218 52.9476L25.5561 65.659L25.56 65.6666L25.4539 65.8345C24.6273 67.1432 22.8947 67.6633 20.7522 67.4573L20.7517 67.4573C18.6247 67.2495 16.2218 66.3389 13.9828 64.9216Z" fill="#C3A0D1" stroke="#FFFEFF" stroke-width="0.7"/>
<path d="M24.6631 64.654C25.1491 62.0141 17.608 53.0088 9.937 54.9995" stroke="#B07EAB" stroke-miterlimit="10" stroke-linecap="round"/>
<path d="M56.7952 69.2165L56.7949 69.2165C54.3474 68.6993 51.9713 68.6844 50.05 69.1003C48.1459 69.5124 46.6097 70.3677 45.9726 71.6644C45.8623 71.8889 45.7793 72.1348 45.7262 72.369L45.7261 72.369L45.7251 72.374L42.5692 87.3021L42.5691 87.3021C42.242 88.851 43.1911 90.427 44.7787 91.7123C46.3832 93.0112 48.7241 94.0908 51.4162 94.6605L51.4163 94.6605C53.8638 95.1776 56.24 95.1926 58.1612 94.7767C60.0654 94.3645 61.6016 93.5093 62.2387 92.2125C62.349 91.988 62.432 91.7422 62.4851 91.5079L62.4851 91.5079L62.4862 91.5028L65.5926 76.7724L65.6006 76.7696L65.642 76.5754C65.9645 75.0614 65.0879 73.479 63.4108 72.13L63.4104 72.1297C61.7431 70.7928 59.3875 69.766 56.7952 69.2165Z" fill="#E5C3DF" stroke="white" stroke-width="0.7"/>
<path d="M64.251 76.8676C62.7549 79.0963 51.0682 80.2737 46.969 73.4911" stroke="#A888A3" stroke-miterlimit="10" stroke-linecap="round"/>
<path d="M24.8679 85.6551L24.8678 85.6553C24.3838 88.1096 24.401 90.4857 24.8428 92.4012C25.2807 94.2996 26.1566 95.8241 27.4619 96.4436C27.6878 96.5508 27.9348 96.6305 28.1697 96.6804L28.1697 96.6805L28.1747 96.6815L43.1441 99.6353L43.1442 99.6353C44.6973 99.9415 46.2603 98.9711 47.524 97.3663C48.8012 95.7444 49.8489 93.3891 50.3822 90.6895L50.3822 90.6894C50.8662 88.2352 50.849 85.859 50.4072 83.9436C49.9693 82.0452 49.0934 80.5207 47.7882 79.9012C47.5622 79.7939 47.3153 79.7142 47.0803 79.6643L47.0803 79.6643L47.0751 79.6632L32.3041 76.7563L32.3012 76.7483L32.1065 76.7096C30.5883 76.4075 29.0178 77.3055 27.6917 79.0007L27.6913 79.0011C26.3771 80.6863 25.3823 83.0556 24.8679 85.6551Z" fill="#C3A0D1" stroke="white" stroke-width="0.7"/>
<path d="M32.417 78.0962C34.6657 79.562 36.001 91.2317 29.2744 95.4223" stroke="#B07EAB" stroke-miterlimit="10" stroke-linecap="round"/>
<path opacity="0.46" d="M39.2852 100.213C20.887 99.1981 6.22507 83.912 6.22507 65.2642C6.22507 50.1363 15.8777 36.7808 30.2317 32.0294L33.6601 30.8977V5.48267H40.0674V35.7323C40.0674 35.7323 21.0867 42.1396 21.0867 65.0728C21.0784 80.076 28.0432 92.7491 39.2852 100.213Z" fill="#FFFEFF"/>
</svg>
