<svg width="105" height="82" viewBox="0 0 105 82" fill="none" xmlns="http://www.w3.org/2000/svg">
<path opacity="0.1" d="M52.7974 43.8227C81.3523 43.8227 104.503 48.3767 104.503 53.993V71.0177C104.503 76.634 81.3523 81.188 52.7974 81.188C24.2425 81.188 1.09183 76.634 1.09183 71.0177V53.993C1.09183 48.3767 24.2387 43.8227 52.7974 43.8227Z" fill="url(#paint0_linear_2279_5117)"/>
<path opacity="0.5" d="M52.7969 61.4258C80.5065 61.4258 102.969 65.5901 102.969 70.7286C102.969 75.8671 80.5065 80.0314 52.7969 80.0314C25.0872 80.0314 2.62501 75.8671 2.62501 70.7286C2.62119 65.5901 25.0872 61.4258 52.7969 61.4258Z" fill="url(#paint1_linear_2279_5117)" stroke="#5181FF" stroke-width="0.213382"/>
<path opacity="0.4" d="M100.954 53.6347C100.954 53.6347 101.845 50.5233 81.5249 47.239C61.2045 43.9547 28.5955 45.8624 17.764 48.339C6.93261 50.8155 3.06206 52.8238 4.36244 54.9515C4.36244 54.9515 15.7905 48.647 36.1874 47.6067C56.5881 46.5664 73.6346 45.7178 100.954 53.6347Z" fill="url(#paint2_linear_2279_5117)"/>
<path d="M81.9389 6.77756H23.643L11.0254 67.8896H11.1169C11.1169 72.7902 29.6837 76.7584 52.585 76.7584C75.4862 76.7584 94.0531 72.7902 94.0531 67.8896H94.563L81.9389 6.77756Z" fill="#FCF2E6"/>
<path d="M52.7987 63.3649C66.2156 63.3649 78.8331 62.3969 88.3259 60.6369C97.9144 58.8581 103.192 56.4601 103.192 53.8798C103.192 51.2996 97.9105 48.9016 88.3221 47.1227C78.8293 45.3627 66.2118 44.3947 52.7949 44.3947C39.378 44.3947 26.7604 45.3627 17.2676 47.1227C7.6792 48.9016 2.39736 51.2996 2.39736 53.8798C2.39736 56.4601 7.6792 58.8581 17.2676 60.6369C26.7642 62.3969 39.3818 63.3649 52.7987 63.3649ZM52.7987 44.7593C66.185 44.7593 78.7681 45.7242 88.2265 47.481C97.4554 49.1907 102.749 51.5227 102.749 53.8798C102.749 56.237 97.4554 58.569 88.2265 60.2787C78.7643 62.0324 66.185 63.0004 52.7987 63.0004C39.4124 63.0004 26.8293 62.0324 17.3709 60.2787C8.14199 58.569 2.84866 56.2338 2.84866 53.8798C2.84866 51.5227 8.14199 49.1907 17.3709 47.481C26.8293 45.7242 39.4124 44.7593 52.7987 44.7593Z" fill="#C5D5FC"/>
<path opacity="0.4" d="M52.7974 43.8227C81.3523 43.8227 104.503 48.3767 104.503 53.993V71.0177C104.503 76.634 81.3523 81.188 52.7974 81.188C24.2425 81.188 1.09183 76.634 1.09183 71.0177V53.993C1.09183 48.3767 24.2387 43.8227 52.7974 43.8227ZM8.12537 71.1592C8.49637 73.5446 10.8065 74.7043 10.8065 74.7043C16.9833 79.0446 49.2175 80.0346 49.2175 80.0346C78.5488 80.8957 98.9457 75.1349 100.808 73.5446C102.671 71.9543 102.296 69.8769 102.296 69.8769C102.296 69.8769 101.998 65.2883 102.296 61.9821C102.594 58.6789 100.135 59.4741 100.135 59.4741C80.4076 66.6932 45.3431 65.4078 45.3431 65.4078C26.063 64.8578 13.7782 62.4724 10.9518 61.7998C8.12156 61.1272 8.12155 63.8804 8.12155 63.8804C8.12155 63.8804 7.75056 68.7738 8.12537 71.1592ZM52.7974 63.1826C80.507 63.1826 102.969 59.0184 102.969 53.8798C102.969 48.7413 80.507 44.577 52.7974 44.577C25.0877 44.577 2.62551 48.7413 2.62551 53.8798C2.62169 59.0184 25.0877 63.1826 52.7974 63.1826Z" fill="url(#paint3_linear_2279_5117)"/>
<path d="M52.7972 81.3702C66.6272 81.3702 79.6272 80.3111 89.4107 78.3845C99.2859 76.4454 104.725 73.8274 104.725 71.0177V53.9929C104.725 51.1832 99.2859 48.5652 89.4107 46.623C79.6272 44.6995 66.6234 43.6404 52.7972 43.6404C38.9711 43.6404 25.9672 44.6995 16.1838 46.623C6.3085 48.5652 0.869835 51.1832 0.869835 53.9929V71.0177C0.869835 73.8274 6.3085 76.4454 16.1838 78.3877C25.9672 80.3111 38.9673 81.3702 52.7972 81.3702ZM52.7972 44.005C66.5928 44.005 79.5584 45.061 89.3074 46.9781C98.8193 48.8512 104.277 51.4064 104.277 53.9929V71.0177C104.277 73.6043 98.8193 76.1594 89.3036 78.0294C79.5545 79.9465 66.5889 81.0025 52.7934 81.0025C38.9979 81.0025 26.0323 79.9465 16.2832 78.0294C6.76746 76.1563 1.30966 73.6011 1.30966 71.0177V53.9929C1.30966 51.4064 6.76746 48.8512 16.2832 46.9813C26.0361 45.061 39.0017 44.005 52.7972 44.005Z" fill="#99B9FF"/>
<path opacity="0.3" d="M103.275 69.2703C103.417 66.8503 103.344 64.4303 103.455 62.0135C103.512 60.7658 103.765 59.254 103.138 58.0755C102.418 56.7272 100.824 57.7926 99.615 58.2169C101.034 57.1703 102.728 56.3438 103.478 54.8321C103.868 54.0432 103.994 53.2606 103.933 52.4844C104.304 52.9778 104.503 53.4806 104.503 53.9929V71.0177C104.503 71.8946 103.941 72.7431 102.881 73.554C103.061 72.1303 103.191 70.7003 103.275 69.2703Z" fill="url(#paint4_linear_2279_5117)"/>
<path opacity="0.3" d="M1.27983 53.1255C1.40604 54.1312 2.01033 55.1275 2.82881 55.9855C3.69318 56.8969 4.71437 57.6638 5.93444 58.2421C7.02447 58.7607 8.18333 59.1661 9.31543 59.6124C7.6517 59.4552 5.33014 58.3552 4.11773 59.5872C3.05447 60.6684 2.77145 69.2012 2.65671 70.4583C2.56874 71.4295 2.50754 72.4037 2.48842 73.378C1.57433 72.6206 1.08477 71.8317 1.08477 71.0177V53.993C1.09241 53.7007 1.15744 53.4115 1.27983 53.1255Z" fill="url(#paint5_linear_2279_5117)"/>
<path opacity="0.7" d="M88.084 63.0192C88.084 63.0192 72.5138 65.7189 55.6891 65.6561C55.6891 65.6561 64.4247 65.9043 69.7371 66.2689C69.7371 66.2689 72.9383 66.0772 73.0646 67.9158C73.1908 69.7543 73.4355 78.6234 73.4355 78.6234L77.2526 78.3186V68.538C77.2526 68.538 77.1225 66.1872 80.4959 65.4518C83.8692 64.7132 88.084 63.0192 88.084 63.0192Z" fill="white"/>
<path d="M52.7972 64.3455C66.6272 64.3455 79.6272 63.2863 89.4107 61.3629C99.2859 59.4206 104.725 56.8026 104.725 53.9929C104.725 51.1832 99.2859 48.5652 89.4107 46.623C79.6272 44.6995 66.6234 43.6404 52.7972 43.6404C38.9711 43.6404 25.9672 44.6995 16.1838 46.623C6.3085 48.5652 0.869835 51.1832 0.869835 53.9929C0.869835 56.8026 6.3085 59.4206 16.1838 61.3629C25.9672 63.2863 38.9673 64.3455 52.7972 64.3455ZM52.7972 44.005C66.5928 44.005 79.5584 45.061 89.3074 46.9781C98.8193 48.8512 104.277 51.4064 104.277 53.9929C104.277 56.5764 98.8193 59.1346 89.3036 61.0046C79.5545 62.9218 66.5889 63.9777 52.7934 63.9777C38.9979 63.9777 26.0323 62.9218 16.2832 61.0046C6.76746 59.1346 1.30966 56.5764 1.30966 53.9929C1.30966 51.4064 6.76746 48.8512 16.2832 46.9813C26.0361 45.061 39.0017 44.005 52.7972 44.005Z" fill="#99B9FF"/>
<path d="M15.1338 48.0062L15.455 46.4476L54.5625 40.7386L90.1215 46.3859L90.4592 48.008L56.1684 47.868L15.1338 48.0062Z" fill="#FCF2E6"/>
<mask id="mask0_2279_5117" style="mask-type:alpha" maskUnits="userSpaceOnUse" x="11" y="6" width="84" height="54">
<path d="M81.9447 6.7701H23.6488L11.0312 53.0754H11.1228C11.1228 56.7886 29.6896 59.7954 52.5908 59.7954C75.4921 59.7954 94.0589 56.7886 94.0589 53.0754H94.5689L81.9447 6.7701Z" fill="#393B36"/>
</mask>
<g mask="url(#mask0_2279_5117)">
<path d="M31.7219 -3.83202L40.0511 -2.27563L36.2921 70.3976L21.5034 69.677L31.7219 -3.83202Z" fill="white" fill-opacity="0.6"/>
<path d="M43.48 10.9291L46.1297 10.9291L42.2332 63.883L40.8304 62.9398L43.48 10.9291Z" fill="white" fill-opacity="0.6"/>
</g>
<path d="M52.8016 14.6618C68.9844 14.6618 82.1032 11.4625 82.1032 7.51601C82.1032 3.56951 68.9844 0.370239 52.8016 0.370239C36.6188 0.370239 23.5 3.56951 23.5 7.51601C23.5 11.4625 36.6188 14.6618 52.8016 14.6618Z" fill="#F5EADD"/>
<defs>
<linearGradient id="paint0_linear_2279_5117" x1="52.7963" y1="36.6603" x2="52.7963" y2="64.4017" gradientUnits="userSpaceOnUse">
<stop stop-color="#C5D5FC"/>
<stop offset="0.1131" stop-color="#DCE6FD"/>
<stop offset="0.2469" stop-color="#EFF4FE"/>
<stop offset="0.3824" stop-color="#FBFCFF"/>
<stop offset="0.5211" stop-color="white"/>
<stop offset="0.611" stop-color="#FCFDFF"/>
<stop offset="0.6842" stop-color="#F2F5FF"/>
<stop offset="0.7514" stop-color="#E1E9FF"/>
<stop offset="0.8152" stop-color="#C9D8FF"/>
<stop offset="0.8765" stop-color="#AAC1FF"/>
<stop offset="0.9359" stop-color="#83A6FF"/>
<stop offset="0.9928" stop-color="#5785FF"/>
<stop offset="1" stop-color="#5181FF"/>
</linearGradient>
<linearGradient id="paint1_linear_2279_5117" x1="52.7955" y1="94.7795" x2="52.7955" y2="46.8018" gradientUnits="userSpaceOnUse">
<stop stop-color="#C5D5FC"/>
<stop offset="0.1131" stop-color="#DCE6FD"/>
<stop offset="0.2469" stop-color="#EFF4FE"/>
<stop offset="0.3824" stop-color="#FBFCFF"/>
<stop offset="0.5211" stop-color="white"/>
<stop offset="0.5964" stop-color="#F0F4FE"/>
<stop offset="0.7449" stop-color="#D8E3FD"/>
<stop offset="0.8832" stop-color="#CAD9FC"/>
<stop offset="1" stop-color="#C5D5FC"/>
</linearGradient>
<linearGradient id="paint2_linear_2279_5117" x1="52.542" y1="32.3133" x2="52.542" y2="56.563" gradientUnits="userSpaceOnUse">
<stop stop-color="#C5D5FC"/>
<stop offset="0.1131" stop-color="#DCE6FD"/>
<stop offset="0.2469" stop-color="#EFF4FE"/>
<stop offset="0.3824" stop-color="#FBFCFF"/>
<stop offset="0.5211" stop-color="white"/>
<stop offset="0.5964" stop-color="#F0F4FE"/>
<stop offset="0.7449" stop-color="#D8E3FD"/>
<stop offset="0.8832" stop-color="#CAD9FC"/>
<stop offset="1" stop-color="#C5D5FC"/>
</linearGradient>
<linearGradient id="paint3_linear_2279_5117" x1="79.6644" y1="62.5047" x2="-12.5173" y2="62.5047" gradientUnits="userSpaceOnUse">
<stop stop-color="#C5D5FC"/>
<stop offset="0.1131" stop-color="#DCE6FD"/>
<stop offset="0.2469" stop-color="#EFF4FE"/>
<stop offset="0.3824" stop-color="#FBFCFF"/>
<stop offset="0.5211" stop-color="white"/>
<stop offset="0.5959" stop-color="#F0F4FE"/>
<stop offset="0.7435" stop-color="#D8E3FD"/>
<stop offset="0.8808" stop-color="#CAD9FC"/>
<stop offset="0.9969" stop-color="#C5D5FC"/>
</linearGradient>
<linearGradient id="paint4_linear_2279_5117" x1="79.6637" y1="63.0184" x2="-12.5205" y2="63.0184" gradientUnits="userSpaceOnUse">
<stop stop-color="#B4BAC0"/>
<stop offset="0.044" stop-color="#C0C5CA"/>
<stop offset="0.161" stop-color="#DCDFE1"/>
<stop offset="0.2794" stop-color="#EFF1F2"/>
<stop offset="0.3988" stop-color="#FBFBFC"/>
<stop offset="0.5211" stop-color="white"/>
<stop offset="0.5409" stop-color="#F9FAFA"/>
<stop offset="0.6686" stop-color="#D8DBDE"/>
<stop offset="0.7909" stop-color="#C0C6CA"/>
<stop offset="0.9042" stop-color="#B2B9BE"/>
<stop offset="1" stop-color="#ADB4BA"/>
</linearGradient>
<linearGradient id="paint5_linear_2279_5117" x1="79.6639" y1="63.2508" x2="-12.5165" y2="63.2508" gradientUnits="userSpaceOnUse">
<stop stop-color="#B4BAC0"/>
<stop offset="0.044" stop-color="#C0C5CA"/>
<stop offset="0.161" stop-color="#DCDFE1"/>
<stop offset="0.2794" stop-color="#EFF1F2"/>
<stop offset="0.3988" stop-color="#FBFBFC"/>
<stop offset="0.5211" stop-color="white"/>
<stop offset="0.5409" stop-color="#F9FAFA"/>
<stop offset="0.6686" stop-color="#D8DBDE"/>
<stop offset="0.7909" stop-color="#C0C6CA"/>
<stop offset="0.9042" stop-color="#B2B9BE"/>
<stop offset="1" stop-color="#ADB4BA"/>
</linearGradient>
</defs>
</svg>
