<svg width="90" height="124" viewBox="0 0 90 124" fill="none" xmlns="http://www.w3.org/2000/svg">
<path d="M32.4989 46.0304V46.3917L32.1559 46.5051C16.4192 51.7068 5.06406 66.523 5.07227 83.9998V84C5.07227 105.817 22.7556 123.5 44.5723 123.5C66.3889 123.5 84.0723 105.817 84.0723 84C84.0723 66.5231 72.717 51.7067 56.9801 46.4967L56.6373 46.3832V46.0221V19.734H32.4989V46.0304Z" fill="#FFFEFF" stroke="#5181FF"/>
<path d="M45.0552 119.132C64.3604 119.132 80.0625 103.43 80.0625 84.1248C80.0625 68.9969 70.4099 55.6414 56.0475 50.89L52.6192 49.7583V24.3516H37.4663V49.7583L34.038 50.89C19.6756 55.6414 10.0313 68.9969 10.0313 84.1248C10.0479 103.43 25.75 119.132 45.0552 119.132Z" fill="white"/>
<path d="M56.853 69.5759C56.0917 70.2676 55.7729 71.322 56.0233 72.3196L56.5083 72.1979L56.0233 72.3196L59.0579 84.4065C59.2609 85.215 59.8148 85.8903 60.5679 86.2475L69.7125 90.5851C70.8656 91.132 72.2429 90.8266 73.0567 89.8434L79.0159 82.6434C79.6291 81.9025 79.8174 80.898 79.5142 79.9853L74.8947 66.0831C74.4888 64.8616 73.2998 64.0764 72.017 64.1828L62.8057 64.947C62.1936 64.9978 61.6153 65.2492 61.1607 65.6623L56.853 69.5759Z" fill="#F4E9D7" stroke="white"/>
<path d="M58.6287 71.4371C58.6287 71.4371 62.823 72.0487 65.2197 72.0163M65.2197 72.0163C68.8151 70.3235 71.7912 66.7278 71.7912 66.7278M65.2197 72.0163L70.827 87.6286" stroke="white" stroke-width="1.07958" stroke-linecap="round" stroke-linejoin="round"/>
<path d="M63.1775 69.6705C62.5205 68.817 61.4652 68.3689 60.3949 68.4889L53.4993 69.2623C52.4179 69.3836 51.4809 70.0667 51.0346 71.0592L47.7024 78.4703C47.2172 79.5495 47.3934 80.8112 48.1557 81.7162L54.1811 88.8692C54.865 89.6812 55.9191 90.0835 56.9701 89.9336L63.8803 88.9487C64.8216 88.8145 65.6481 88.2529 66.1195 87.4272L69.671 81.2063C70.2865 80.1282 70.1942 78.7859 69.4369 77.8021L63.1775 69.6705Z" fill="#FAF3E9" stroke="white"/>
<path d="M53.4336 72.1713C53.4336 72.1713 57.2414 77.3015 59.475 78.8614M59.475 78.8614C62.2977 79.5786 67.5887 79.5267 67.5887 79.5267M59.475 78.8614L56.2308 87.1189" stroke="white" stroke-linecap="round" stroke-linejoin="round"/>
<path d="M40.092 79.3573C40.8218 80.1495 41.9125 80.5027 42.9681 80.2886L49.7685 78.9097C50.835 78.6935 51.7081 77.9303 52.065 76.9023L54.7301 69.226C55.1182 68.1082 54.8313 66.867 53.9921 66.0328L47.3589 59.4395C46.606 58.691 45.5205 58.3834 44.4869 58.6254L37.6905 60.2164C36.7648 60.4331 35.9911 61.0654 35.5944 61.9295L32.6058 68.4396C32.0878 69.5678 32.2982 70.8967 33.1394 71.8098L40.092 79.3573Z" fill="#FAF3E9" stroke="white"/>
<path d="M49.5771 76.0062C49.5771 76.0062 45.3314 71.2321 42.9688 69.8754M42.9688 69.8754C40.0939 69.4102 34.8281 69.9288 34.8281 69.9288M42.9688 69.8754L45.4716 61.3638" stroke="white" stroke-linecap="round" stroke-linejoin="round"/>
<path d="M58.909 95.2792C58.204 94.5302 57.1441 94.2299 56.1511 94.4978L56.2813 94.9806L56.1511 94.4978L44.1193 97.7441C43.3146 97.9613 42.6491 98.5269 42.3052 99.2862L38.1288 108.506C37.6022 109.668 37.9318 111.04 38.9291 111.836L46.2326 117.668C46.9841 118.268 47.9918 118.439 48.899 118.12L62.718 113.257C63.9322 112.83 64.6963 111.627 64.5674 110.346L63.6416 101.15C63.5801 100.539 63.3186 99.9648 62.8976 99.5175L58.909 95.2792Z" fill="#F4E9D7" stroke="white"/>
<path d="M57.0794 97.0877C57.0794 97.0877 56.5415 101.292 56.616 103.688M56.616 103.688C58.3717 107.253 62.0191 110.165 62.0191 110.165M56.616 103.688L41.1045 109.568" stroke="white" stroke-width="1.07958" stroke-linecap="round" stroke-linejoin="round"/>
<path d="M53.9031 81.7259C53.647 80.7297 52.8634 79.9554 51.8643 79.711L51.7455 80.1967L51.8643 79.711L39.7592 76.7502C38.9495 76.5521 38.0937 76.7266 37.4261 77.2257L29.3203 83.2865C28.2981 84.0508 27.9251 85.4114 28.4145 86.5901L31.9984 95.2218C32.3672 96.11 33.1675 96.7456 34.1162 96.9037L48.5668 99.3107C49.8364 99.5222 51.086 98.8374 51.5909 97.6534L55.2165 89.1513C55.4575 88.5863 55.5052 87.9575 55.3522 87.3626L53.9031 81.7259Z" fill="#F4E9D7" stroke="white"/>
<path d="M51.4275 82.4273C51.4275 82.4273 48.928 85.8506 47.8375 87.9851M47.8375 87.9851C47.6555 91.9549 49.4453 96.2657 49.4453 96.2657M47.8375 87.9851L31.4135 85.653" stroke="white" stroke-width="1.07958" stroke-linecap="round" stroke-linejoin="round"/>
<path d="M10.9012 83.2638C10.1381 83.9534 9.81637 85.0071 10.0641 86.0053L10.5494 85.8849L10.0641 86.0053L13.066 98.1004C13.2668 98.9094 13.8189 99.5862 14.571 99.9454L23.7039 104.308C24.8555 104.858 26.2337 104.556 27.0501 103.575L33.0288 96.3912C33.644 95.652 33.835 94.648 33.5342 93.7345L28.9523 79.8198C28.5497 78.5972 27.3628 77.8088 26.0798 77.9118L16.8664 78.6511C16.2541 78.7002 15.6752 78.9501 15.2194 79.3619L10.9012 83.2638Z" fill="#F4E9D7" stroke="white"/>
<path d="M12.6726 85.1298C12.6726 85.1298 16.8653 85.7528 19.262 85.7268M19.262 85.7268C22.862 84.0438 25.8478 80.4561 25.8478 80.4561M19.262 85.7268L24.8272 101.354" stroke="white" stroke-width="1.07958" stroke-linecap="round" stroke-linejoin="round"/>
<path d="M63.4714 84.3999C62.396 84.3407 61.3678 84.8478 60.7602 85.7371L56.8459 91.4664C56.232 92.365 56.1381 93.5208 56.5989 94.5066L60.0394 101.868C60.5404 102.94 61.6114 103.63 62.7945 103.643L72.1466 103.746C73.2082 103.758 74.2009 103.222 74.7733 102.327L78.5368 96.4489C79.0494 95.6481 79.1633 94.6554 78.8453 93.7594L76.4497 87.0085C76.0345 85.8386 74.9572 85.0325 73.7177 84.9642L63.4714 84.3999Z" fill="#FAF3E9" stroke="white"/>
<path d="M59.0078 93.4149C59.0078 93.4149 65.3799 93.8779 68.0195 93.2036M68.0195 93.2036C70.4051 91.533 73.8188 87.4902 73.8188 87.4902M68.0195 93.2036L72.1588 101.051" stroke="white" stroke-linecap="round" stroke-linejoin="round"/>
<path d="M25.0025 61.5255C24.1019 60.9347 22.958 60.8576 21.9863 61.3222L15.7261 64.3148C14.7443 64.7841 14.0832 65.7369 13.9872 66.8209L13.2707 74.915C13.1663 76.0936 13.7467 77.2277 14.7637 77.8325L22.8022 82.613C23.7147 83.1557 24.8424 83.1899 25.786 82.7036L31.9907 79.5062C32.8359 79.0707 33.4324 78.2691 33.6068 77.3344L34.921 70.2927C35.1488 69.0723 34.6213 67.8346 33.5832 67.1537L25.0025 61.5255Z" fill="#FAF3E9" stroke="white"/>
<path d="M16.6182 67.0845C16.6182 67.0845 21.8982 70.6816 24.52 71.4225M24.52 71.4225C27.4217 71.1739 32.4029 69.3892 32.4029 69.3892M24.52 71.4225L24.1642 80.2873" stroke="white" stroke-linecap="round" stroke-linejoin="round"/>
<path d="M34.4058 95.9956C33.4822 95.4414 32.3362 95.4102 31.3838 95.9134L25.2486 99.1546C24.2865 99.663 23.6641 100.641 23.6117 101.728L23.2203 109.845C23.1633 111.027 23.7887 112.137 24.8291 112.7L33.0529 117.154C33.9863 117.66 35.1145 117.649 36.0379 117.125L42.1094 113.682C42.9364 113.213 43.5003 112.388 43.6371 111.447L44.6679 104.358C44.8465 103.13 44.2698 101.914 43.2053 101.275L34.4058 95.9956Z" fill="#FAF3E9" stroke="white"/>
<path d="M26.251 101.886C26.251 101.886 31.671 105.269 34.3204 105.904M34.3204 105.904C37.2098 105.539 42.1154 103.556 42.1154 103.556M34.3204 105.904L34.3204 114.776" stroke="white" stroke-linecap="round" stroke-linejoin="round"/>
<path opacity="0.46" d="M43.1075 119.082C24.7093 118.067 10.0473 102.781 10.0473 84.1332C10.0473 69.0052 19.6999 55.6497 34.054 50.8983L37.4823 49.7666V24.3516H43.8896V54.6012C43.8896 54.6012 24.909 61.0086 24.909 83.9418C24.9007 98.9449 31.8655 111.618 43.1075 119.082Z" fill="#FFFEFF"/>
</svg>
