<svg width="79" height="100" viewBox="0 0 79 100" fill="none" xmlns="http://www.w3.org/2000/svg">
<path d="M1.89844 94.6652V28.3287L16.2338 12.7622V2.20679L66.9461 3.10684V14.1146L77.4206 24.9535V91.29L56.9221 98.315L1.89844 94.6652Z" fill="#D2E0FF"/>
<path d="M67.8216 13.7838L57.1309 29.6451L77.974 24.9333L67.8216 13.7838Z" fill="#EBEEFC"/>
<path d="M15.7803 12.1434V1.73425L67.3643 2.63431V13.0435L15.7803 12.1434Z" fill="#FAFAFA"/>
<path d="M56.9219 29.6383L56.9241 98.6682L77.8235 91.7288L77.9745 24.9332L56.9219 29.6383Z" fill="#A2BEFF"/>
<path d="M77.4184 25.5745C77.3636 25.5736 77.3092 25.5661 77.2562 25.552L62.6145 21.5715C62.4561 21.5279 62.3215 21.4233 62.24 21.2808C62.1586 21.1383 62.1369 20.9694 62.1797 20.811C62.2234 20.6528 62.328 20.5183 62.4707 20.437C62.6134 20.3556 62.7825 20.3339 62.9411 20.3767L77.5828 24.3572C77.7412 24.4009 77.8758 24.5054 77.9573 24.6479C78.0387 24.7904 78.0604 24.9593 78.0176 25.1178C77.9812 25.2487 77.903 25.3643 77.7948 25.4467C77.6867 25.5292 77.5545 25.5741 77.4184 25.5745Z" fill="#B4B6DB"/>
<path d="M56.9193 59.8465C56.755 59.8465 56.5974 59.7814 56.4812 59.6653C56.3651 59.5493 56.2998 59.3919 56.2998 59.2278V47.428C56.2998 47.2639 56.3651 47.1065 56.4812 46.9904C56.5974 46.8744 56.755 46.8092 56.9193 46.8092C57.0836 46.8092 57.2411 46.8744 57.3573 46.9904C57.4735 47.1065 57.5387 47.2639 57.5387 47.428V59.2278C57.5387 59.3919 57.4735 59.5493 57.3573 59.6653C57.2411 59.7814 57.0836 59.8465 56.9193 59.8465Z" fill="#3252A4"/>
<path d="M56.9193 68.0889C56.755 68.0889 56.5974 68.0237 56.4812 67.9076C56.3651 67.7916 56.2998 67.6342 56.2998 67.4701V62.0697C56.2998 61.9056 56.3651 61.7482 56.4812 61.6322C56.5974 61.5161 56.755 61.4509 56.9193 61.4509C57.0836 61.4509 57.2411 61.5161 57.3573 61.6322C57.4735 61.7482 57.5387 61.9056 57.5387 62.0697V67.4701C57.5387 67.6342 57.4735 67.7916 57.3573 67.9076C57.2411 68.0237 57.0836 68.0889 56.9193 68.0889Z" fill="#3252A4"/>
<path d="M56.9195 44.9483C56.7552 44.9483 56.5977 44.8831 56.4815 44.767C56.3653 44.651 56.3 44.4936 56.3 44.3295V30.2413L1.88228 28.9475C1.80094 28.9461 1.72069 28.9285 1.64619 28.8958C1.57169 28.8632 1.50442 28.8161 1.44827 28.7573C1.39212 28.6985 1.34821 28.6291 1.31908 28.5532C1.28996 28.4773 1.27619 28.3965 1.27859 28.3152C1.28004 28.234 1.29763 28.1538 1.33032 28.0794C1.36301 28.005 1.41015 27.9378 1.46903 27.8817C1.5279 27.8256 1.59733 27.7817 1.67329 27.7526C1.74925 27.7235 1.83025 27.7098 1.91157 27.7122L56.9353 29.0195C57.097 29.0231 57.2509 29.0899 57.3638 29.2056C57.4767 29.3213 57.5396 29.4767 57.539 29.6383V44.3295C57.539 44.4936 57.4737 44.651 57.3575 44.767C57.2414 44.8831 57.0838 44.9483 56.9195 44.9483Z" fill="#3252A4"/>
<path d="M56.9193 98.9339C56.755 98.9339 56.5974 98.8687 56.4812 98.7526C56.3651 98.6366 56.2998 98.4792 56.2998 98.3151V75.1386C56.2998 74.9745 56.3651 74.8171 56.4812 74.701C56.5974 74.585 56.755 74.5198 56.9193 74.5198C57.0836 74.5198 57.2411 74.585 57.3573 74.701C57.4735 74.8171 57.5387 74.9745 57.5387 75.1386V98.3151C57.5387 98.4792 57.4735 98.6366 57.3573 98.7526C57.2411 98.8687 57.0836 98.9339 56.9193 98.9339Z" fill="#3252A4"/>
<path d="M56.9193 30.2571C56.7791 30.2566 56.6431 30.2088 56.5335 30.1213C56.4239 30.0339 56.3471 29.9121 56.3156 29.7755C56.2973 29.6963 56.2949 29.6143 56.3084 29.5341C56.322 29.454 56.3513 29.3773 56.3946 29.3085C56.4379 29.2397 56.4945 29.1801 56.5609 29.1332C56.6274 29.0863 56.7025 29.053 56.7819 29.0352L77.2804 24.3504C77.4405 24.3141 77.6085 24.3428 77.7474 24.4301C77.8864 24.5175 77.9849 24.6563 78.0215 24.8162C78.0398 24.8954 78.0424 24.9774 78.029 25.0576C78.0156 25.1378 77.9866 25.2146 77.9435 25.2835C77.9004 25.3525 77.8441 25.4123 77.7779 25.4595C77.7116 25.5067 77.6367 25.5405 77.5574 25.5588L57.059 30.2413C57.013 30.2509 56.9663 30.2561 56.9193 30.2571Z" fill="#3252A4"/>
<path d="M56.92 30.2571C56.797 30.2575 56.6769 30.2206 56.5753 30.1514C56.5077 30.1061 56.4496 30.0479 56.4045 29.9801C56.3594 29.9124 56.3281 29.8364 56.3124 29.7566C56.2967 29.6767 56.2969 29.5946 56.313 29.5148C56.3292 29.4351 56.3609 29.3593 56.4064 29.2918L67.0498 13.498C67.0953 13.4306 67.1537 13.3729 67.2216 13.328C67.2895 13.2831 67.3656 13.2521 67.4455 13.2366C67.5254 13.2212 67.6076 13.2216 67.6873 13.2379C67.7671 13.2542 67.8429 13.286 67.9103 13.3315C67.9777 13.3768 68.0355 13.4349 68.0804 13.5025C68.1252 13.5702 68.1563 13.646 68.1718 13.7256C68.1873 13.8053 68.1869 13.8872 68.1706 13.9667C68.1543 14.0461 68.1225 14.1216 68.077 14.1888L57.4336 29.9826C57.3773 30.0672 57.301 30.1365 57.2114 30.1844C57.1217 30.2324 57.0216 30.2573 56.92 30.2571Z" fill="#3252A4"/>
<path d="M67.3647 13.6623L15.6815 12.7623C15.6002 12.7608 15.5199 12.7433 15.4453 12.7109C15.3707 12.6784 15.3033 12.6316 15.2468 12.5731C15.1903 12.5146 15.1459 12.4455 15.1162 12.3699C15.0864 12.2942 15.0719 12.2135 15.0733 12.1322C15.0739 12.0507 15.0908 11.9701 15.123 11.8952C15.1551 11.8202 15.202 11.7525 15.2607 11.6959C15.3195 11.6393 15.389 11.595 15.4651 11.5656C15.5412 11.5362 15.6225 11.5223 15.7041 11.5247L67.3872 12.4247C67.4684 12.4259 67.5487 12.4431 67.6232 12.4753C67.6978 12.5075 67.7653 12.5541 67.8218 12.6125C67.8783 12.6708 67.9228 12.7397 67.9525 12.8152C67.9823 12.8907 67.9969 12.9714 67.9954 13.0525C67.9942 13.134 67.977 13.2144 67.9446 13.2892C67.9122 13.364 67.8654 13.4316 67.8068 13.4883C67.7482 13.5449 67.679 13.5895 67.6031 13.6193C67.5272 13.6492 67.4462 13.6638 67.3647 13.6623Z" fill="#3252A4"/>
<path d="M16.2335 2.20682L66.9435 3.10688V13.6646L77.418 24.9535V91.29L56.9196 98.315L1.8981 94.6653V28.3287L16.2335 12.7622V2.20682ZM16.2335 0.969238C15.9083 0.969598 15.5961 1.09723 15.364 1.32476C15.2467 1.43981 15.1537 1.5771 15.0902 1.72857C15.0268 1.88003 14.9943 2.04263 14.9946 2.20682V12.2785L0.985809 27.4917C0.776382 27.7203 0.659907 28.0188 0.659183 28.3287V94.6653C0.658506 94.9793 0.777612 95.2818 0.992271 95.5113C1.20693 95.7408 1.50103 95.88 1.81476 95.9006L56.8385 99.5503H56.9196C57.0568 99.5504 57.1931 99.5276 57.3228 99.4828L77.8212 92.4601C78.0651 92.3755 78.2766 92.2172 78.4264 92.0072C78.5761 91.7971 78.6567 91.5457 78.6569 91.2878V24.9535C78.6573 24.6423 78.5398 24.3425 78.3281 24.1142L68.1915 13.1808V3.10688C68.1915 2.78251 68.0641 2.47109 67.8366 2.23963C67.6091 2.00818 67.2997 1.87519 66.9751 1.8693L16.265 0.969238H16.2335Z" fill="#5181FF"/>
<mask id="path-14-outside-1_2038_4802" maskUnits="userSpaceOnUse" x="4.77529" y="50.8896" width="49.5777" height="17.8679" fill="black">
<rect fill="white" x="4.77529" y="50.8896" width="49.5777" height="17.8679"/>
<path d="M20.0528 65.4628L16.0598 65.3095L18.0128 57.6028L13.4517 65.2094L11.0055 65.1155L10.5047 57.0443L8.46935 65.0181L6.85054 64.956L9.7172 53.6276L14.3038 53.8037L14.6142 60.2644L18.3149 53.9577L22.9375 54.1351L20.0528 65.4628ZM26.8113 65.7222L22.9262 65.5731L25.7929 54.2447L29.696 54.3946L26.8113 65.7222ZM32.559 54.5045L36.4621 54.6543L33.9592 64.4835L37.6105 64.6237L37.2467 66.1228L29.6923 65.8328L32.559 54.5045ZM44.7869 59.9455L49.4208 55.1337L51.4533 55.2118L47.2565 59.4279L49.7192 66.6016L45.798 66.4511L44.4079 61.372L43.154 66.3496L39.2689 66.2005L42.1355 54.8721L46.0386 55.0219L44.7869 59.9455Z"/>
</mask>
<path d="M20.0528 65.4628L16.0598 65.3095L18.0128 57.6028L13.4517 65.2094L11.0055 65.1155L10.5047 57.0443L8.46935 65.0181L6.85054 64.956L9.7172 53.6276L14.3038 53.8037L14.6142 60.2644L18.3149 53.9577L22.9375 54.1351L20.0528 65.4628ZM26.8113 65.7222L22.9262 65.5731L25.7929 54.2447L29.696 54.3946L26.8113 65.7222ZM32.559 54.5045L36.4621 54.6543L33.9592 64.4835L37.6105 64.6237L37.2467 66.1228L29.6923 65.8328L32.559 54.5045ZM44.7869 59.9455L49.4208 55.1337L51.4533 55.2118L47.2565 59.4279L49.7192 66.6016L45.798 66.4511L44.4079 61.372L43.154 66.3496L39.2689 66.2005L42.1355 54.8721L46.0386 55.0219L44.7869 59.9455Z" fill="#5181FF"/>
<path d="M20.0528 65.4628L19.9761 67.4613C20.9186 67.4975 21.7582 66.8703 21.991 65.9564L20.0528 65.4628ZM16.0598 65.3095L14.121 64.8182C13.9728 65.4032 14.0966 66.024 14.4581 66.5073C14.8196 66.9906 15.3799 67.2849 15.983 67.308L16.0598 65.3095ZM18.0128 57.6028L19.9515 58.0941C20.1953 57.1323 19.697 56.1372 18.7809 55.7561C17.8648 55.3751 16.8078 55.7233 16.2976 56.5742L18.0128 57.6028ZM13.4517 65.2094L13.375 67.2079C14.1046 67.2359 14.7915 66.8641 15.1669 66.2379L13.4517 65.2094ZM11.0055 65.1155L9.00932 65.2393C9.07291 66.2644 9.90252 67.0746 10.9288 67.114L11.0055 65.1155ZM10.5047 57.0443L12.5009 56.9205C12.4399 55.9377 11.6727 55.1456 10.6924 55.0532C9.7121 54.9608 8.81038 55.5956 8.56685 56.5497L10.5047 57.0443ZM8.46935 65.0181L8.39263 67.0167C9.33467 67.0528 10.174 66.4262 10.4072 65.5128L8.46935 65.0181ZM6.85054 64.956L4.91166 64.4654C4.76363 65.0503 4.88762 65.6709 5.24909 66.1541C5.61055 66.6372 6.17085 66.9314 6.77382 66.9545L6.85054 64.956ZM9.7172 53.6276L9.79392 51.6291C8.85033 51.5929 8.00997 52.2215 7.77832 53.137L9.7172 53.6276ZM14.3038 53.8037L16.3015 53.7077C16.2517 52.6712 15.4175 51.845 14.3805 51.8052L14.3038 53.8037ZM14.6142 60.2644L12.6165 60.3603C12.659 61.2441 13.2771 61.9949 14.1363 62.2064C14.9954 62.4178 15.8914 62.0396 16.3392 61.2765L14.6142 60.2644ZM18.3149 53.9577L18.3916 51.9591C17.6552 51.9309 16.9629 52.3099 16.5899 52.9455L18.3149 53.9577ZM22.9375 54.1351L24.8756 54.6287C25.0247 54.0434 24.9012 53.4221 24.5398 52.9383C24.1784 52.4544 23.6177 52.1598 23.0142 52.1366L22.9375 54.1351ZM20.1295 63.4643L16.1365 63.311L15.983 67.308L19.9761 67.4613L20.1295 63.4643ZM17.9985 65.8008L19.9515 58.0941L16.0741 57.1114L14.121 64.8182L17.9985 65.8008ZM16.2976 56.5742L11.7364 64.1809L15.1669 66.2379L19.7281 58.6313L16.2976 56.5742ZM13.5284 63.2109L11.0822 63.117L10.9288 67.114L13.375 67.2079L13.5284 63.2109ZM13.0016 64.9916L12.5009 56.9205L8.50856 57.1682L9.00932 65.2393L13.0016 64.9916ZM8.56685 56.5497L6.53148 64.5235L10.4072 65.5128L12.4426 57.539L8.56685 56.5497ZM8.54607 63.0196L6.92726 62.9575L6.77382 66.9545L8.39263 67.0167L8.54607 63.0196ZM8.78943 65.4466L11.6561 54.1183L7.77832 53.137L4.91166 64.4654L8.78943 65.4466ZM9.64048 55.6261L14.2271 55.8022L14.3805 51.8052L9.79392 51.6291L9.64048 55.6261ZM12.3061 53.8997L12.6165 60.3603L16.6119 60.1684L16.3015 53.7077L12.3061 53.8997ZM16.3392 61.2765L20.0398 54.9698L16.5899 52.9455L12.8893 59.2522L16.3392 61.2765ZM18.2382 55.9562L22.8607 56.1336L23.0142 52.1366L18.3916 51.9591L18.2382 55.9562ZM20.9993 53.6416L18.1147 64.9692L21.991 65.9564L24.8756 54.6287L20.9993 53.6416ZM26.8113 65.7222L26.7346 67.7208C27.6771 67.757 28.5167 67.1298 28.7495 66.2158L26.8113 65.7222ZM22.9262 65.5731L20.9873 65.0825C20.8393 65.6674 20.9633 66.288 21.3247 66.7712C21.6862 67.2543 22.2465 67.5485 22.8495 67.5716L22.9262 65.5731ZM25.7929 54.2447L25.8696 52.2462C24.926 52.21 24.0856 52.8387 23.854 53.7541L25.7929 54.2447ZM29.696 54.3946L31.6341 54.8881C31.7832 54.3029 31.6598 53.6816 31.2983 53.1977C30.9369 52.7138 30.3762 52.4192 29.7727 52.396L29.696 54.3946ZM26.8881 63.7237L23.0029 63.5746L22.8495 67.5716L26.7346 67.7208L26.8881 63.7237ZM24.8651 66.0637L27.7317 54.7354L23.854 53.7541L20.9873 65.0825L24.8651 66.0637ZM25.7161 56.2433L29.6193 56.3931L29.7727 52.396L25.8696 52.2462L25.7161 56.2433ZM27.7578 53.901L24.8732 65.2287L28.7495 66.2158L31.6341 54.8881L27.7578 53.901ZM32.559 54.5045L32.6357 52.5059C31.6921 52.4697 30.8517 53.0984 30.6201 54.0138L32.559 54.5045ZM36.4621 54.6543L38.4002 55.1478C38.5493 54.5626 38.4259 53.9413 38.0644 53.4574C37.703 52.9736 37.1423 52.6789 36.5388 52.6558L36.4621 54.6543ZM33.9592 64.4835L32.0211 63.99C31.872 64.5753 31.9954 65.1965 32.3569 65.6804C32.7183 66.1643 33.279 66.4589 33.8825 66.4821L33.9592 64.4835ZM37.6105 64.6237L39.5541 65.0953C39.6956 64.5122 39.5678 63.8965 39.2061 63.4178C38.8443 62.9391 38.2868 62.6482 37.6872 62.6252L37.6105 64.6237ZM37.2467 66.1228L37.17 68.1214C38.121 68.1579 38.9659 67.5193 39.1903 66.5945L37.2467 66.1228ZM29.6923 65.8328L27.7534 65.3422C27.6054 65.9272 27.7294 66.5477 28.0909 67.0309C28.4523 67.5141 29.0126 67.8082 29.6156 67.8314L29.6923 65.8328ZM32.4823 56.503L36.3854 56.6528L36.5388 52.6558L32.6357 52.5059L32.4823 56.503ZM34.5239 54.1608L32.0211 63.99L35.8974 64.9771L38.4002 55.1478L34.5239 54.1608ZM33.8825 66.4821L37.5338 66.6222L37.6872 62.6252L34.0359 62.485L33.8825 66.4821ZM35.6669 64.1521L35.3031 65.6512L39.1903 66.5945L39.5541 65.0953L35.6669 64.1521ZM37.3235 64.1243L29.769 63.8343L29.6156 67.8314L37.17 68.1214L37.3235 64.1243ZM31.6312 66.3235L34.4979 54.9951L30.6201 54.0138L27.7534 65.3422L31.6312 66.3235ZM44.7869 59.9455L42.8485 59.4527C42.6249 60.3322 43.0214 61.252 43.8144 61.6932C44.6073 62.1344 45.598 61.9865 46.2274 61.3329L44.7869 59.9455ZM49.4208 55.1337L49.4976 53.1352C48.9278 53.1133 48.3758 53.3357 47.9803 53.7464L49.4208 55.1337ZM51.4533 55.2118L52.8708 56.6227C53.4311 56.0599 53.6052 55.2189 53.3146 54.4799C53.024 53.7408 52.3236 53.2437 51.5301 53.2132L51.4533 55.2118ZM47.2565 59.4279L45.8391 58.0169C45.3013 58.5572 45.1174 59.3562 45.3649 60.0773L47.2565 59.4279ZM49.7192 66.6016L49.6424 68.6002C50.3015 68.6255 50.9307 68.3242 51.3243 67.7948C51.7178 67.2655 51.825 66.5761 51.6108 65.9523L49.7192 66.6016ZM45.798 66.4511L43.869 66.9791C44.0994 67.821 44.8492 68.4162 45.7213 68.4496L45.798 66.4511ZM44.4079 61.372L46.3369 60.844C46.097 59.9675 45.2962 59.3629 44.3875 59.3721C43.4787 59.3814 42.6904 60.0022 42.4684 60.8835L44.4079 61.372ZM43.154 66.3496L43.0773 68.3481C44.0217 68.3844 44.8625 67.7546 45.0934 66.8382L43.154 66.3496ZM39.2689 66.2005L37.33 65.7098C37.1819 66.2948 37.3059 66.9154 37.6674 67.3985C38.0289 67.8817 38.5892 68.1758 39.1921 68.199L39.2689 66.2005ZM42.1355 54.8721L42.2122 52.8736C41.2686 52.8373 40.4283 53.466 40.1966 54.3815L42.1355 54.8721ZM46.0386 55.0219L47.977 55.5147C48.1258 54.9295 48.0022 54.3084 47.6408 53.8248C47.2793 53.3411 46.7187 53.0466 46.1154 53.0234L46.0386 55.0219ZM46.2274 61.3329L50.8614 56.5211L47.9803 53.7464L43.3463 58.5582L46.2274 61.3329ZM49.3441 57.1323L51.3766 57.2103L51.5301 53.2132L49.4976 53.1352L49.3441 57.1323ZM50.0359 53.8008L45.8391 58.0169L48.674 60.8389L52.8708 56.6227L50.0359 53.8008ZM45.3649 60.0773L47.8275 67.251L51.6108 65.9523L49.1482 58.7785L45.3649 60.0773ZM49.7959 64.6031L45.8748 64.4526L45.7213 68.4496L49.6424 68.6002L49.7959 64.6031ZM47.7271 65.9231L46.3369 60.844L42.4788 61.9L43.869 66.9791L47.7271 65.9231ZM42.4684 60.8835L41.2146 65.8611L45.0934 66.8382L46.3473 61.8606L42.4684 60.8835ZM43.2307 64.3511L39.3456 64.2019L39.1921 68.199L43.0773 68.3481L43.2307 64.3511ZM41.2077 66.6911L44.0744 55.3627L40.1966 54.3815L37.33 65.7098L41.2077 66.6911ZM42.0588 56.8706L45.9619 57.0205L46.1154 53.0234L42.2122 52.8736L42.0588 56.8706ZM44.1003 54.5291L42.8485 59.4527L46.7252 60.4383L47.977 55.5147L44.1003 54.5291Z" fill="white" mask="url(#path-14-outside-1_2038_4802)"/>
</svg>
