<svg width="102" height="101" viewBox="0 0 102 101" fill="none" xmlns="http://www.w3.org/2000/svg">
<path d="M36.9453 25.6618V0.564819H64.1373V25.6694V25.8033L64.2043 25.9193L99.3739 86.8623L99.374 86.8623C102.633 92.5067 98.5626 99.5648 92.0464 99.5648H9.03678C2.51992 99.5576 -1.55001 92.5065 1.7087 86.8547C1.70873 86.8546 1.70876 86.8546 1.70879 86.8545L36.8784 25.9117L36.9453 25.7957V25.6618Z" fill="#FFFEFF" stroke="#5181FF"/>
<path d="M92.0396 95.6542C94.4111 95.6542 95.5892 94.0572 95.9845 93.3728C96.3797 92.6884 97.1702 90.8709 95.9845 88.8101L60.2295 26.8481V4.47546H40.847V26.8557L5.09208 88.8101C3.90633 90.8709 4.69683 92.6808 5.09208 93.3728C5.48733 94.0572 6.66548 95.6542 9.03698 95.6542H92.0396Z" fill="#C5F4FC" fill-opacity="0.2"/>
<path d="M12.4495 82.0076C6.91657 84.1476 10.8001 89.3718 14.7617 92.9212C15.8362 93.884 17.4794 93.2747 17.6726 91.8449C18.3979 86.4771 18.0004 79.8607 12.4495 82.0076Z" fill="#F8BE3C"/>
<path d="M14.0176 86.0182C11.6469 86.9436 13.3247 89.5284 15.1291 91.4002C15.6695 91.9608 16.5659 91.6289 16.6147 90.8518C16.7806 88.2059 16.3979 85.0891 14.0176 86.0182Z" fill="#79322C"/>
<path fill-rule="evenodd" clip-rule="evenodd" d="M15.9508 91.6672C16.2164 90.3283 15.9836 87.9419 15.7215 86.2116C16.5878 87.0146 16.7314 89.0474 16.6177 90.8593C16.5905 91.2941 16.2979 91.5895 15.9508 91.6672Z" fill="black" fill-opacity="0.2"/>
<path d="M24.5559 78.3278C18.9321 76.4397 18.5827 82.9398 19.3631 88.2013C19.5748 89.6285 21.2282 90.2094 22.2902 89.2328C26.2773 85.5663 30.1981 80.2221 24.5559 78.3278Z" fill="#F8BE3C"/>
<path d="M23.0029 82.5106C20.7496 81.7619 20.3882 84.5701 20.5541 86.9999C20.6072 87.7768 21.5081 88.094 22.0388 87.5242C23.7319 85.7067 25.266 83.2626 23.0029 82.5106Z" fill="#79322C"/>
<path fill-rule="evenodd" clip-rule="evenodd" d="M21.0455 87.7463C22.0397 86.9124 23.2846 85.0733 24.1251 83.6793C24.2681 84.7659 23.189 86.2939 22.0362 87.5314C21.75 87.8388 21.356 87.888 21.0455 87.7463Z" fill="black" fill-opacity="0.2"/>
<path d="M51.823 93.2293C57.2941 90.9358 53.2663 85.822 49.2072 82.3845C48.1062 81.4521 46.4807 82.107 46.3275 83.5416C45.7522 88.9276 46.3342 95.5303 51.823 93.2293Z" fill="#F8BE3C"/>
<path d="M50.1339 88.5566C51.6909 87.8982 50.7599 86.3001 49.5581 85.0206C49.0251 84.4531 48.1405 84.8087 48.1436 85.5873C48.1507 87.38 48.5676 89.2189 50.1339 88.5566Z" fill="#79322C"/>
<path fill-rule="evenodd" clip-rule="evenodd" d="M48.5766 84.826C48.4962 85.8295 48.6916 87.3316 48.8934 88.4513C48.3265 87.9551 48.1453 86.7586 48.1406 85.5819C48.1392 85.225 48.3243 84.957 48.5766 84.826Z" fill="black" fill-opacity="0.2"/>
<path d="M60.8425 59.8338C66.3136 57.5403 62.2858 52.4265 58.2267 48.989C57.1257 48.0566 55.5002 48.7115 55.347 50.1461C54.7717 55.5321 55.3537 62.1348 60.8425 59.8338Z" fill="#F8BE3C"/>
<path d="M59.1534 55.1611C60.7105 54.5026 59.7794 52.9046 58.5777 51.6251C58.0446 51.0575 57.16 51.4131 57.1631 52.1918C57.1702 53.9844 57.5872 55.8234 59.1534 55.1611Z" fill="#79322C"/>
<path fill-rule="evenodd" clip-rule="evenodd" d="M57.5961 51.4305C57.5158 52.4339 57.7111 53.9361 57.9129 55.0558C57.346 54.5596 57.1648 53.363 57.1601 52.1864C57.1587 51.8295 57.3438 51.5615 57.5961 51.4305Z" fill="black" fill-opacity="0.2"/>
<path d="M53.1011 77.5758C49.151 79.2279 51.6573 82.8026 54.559 85.4155C55.6312 86.3809 57.2582 85.7274 57.3723 84.2892C57.6872 80.3214 57.0684 75.9166 53.1011 77.5758Z" fill="#F8BE3C"/>
<path d="M53.3168 78.1216C50.3067 79.3916 52.7753 82.7358 55.1584 84.9907C55.724 85.5259 56.6136 85.1687 56.6552 84.3912C56.8337 81.0523 56.3367 76.8476 53.3168 78.1216Z" fill="#79322C"/>
<path fill-rule="evenodd" clip-rule="evenodd" d="M55.8343 85.2536C56.2524 85.2288 56.6324 84.9021 56.6592 84.4003C56.7838 82.071 56.5796 79.3201 55.4192 78.3023C55.819 80.5319 56.2032 83.6555 55.8343 85.2536Z" fill="black" fill-opacity="0.2"/>
<path d="M61.0583 81.7668C64.7299 83.9694 66.124 79.8322 66.5089 75.9464C66.6511 74.5107 65.1605 73.5875 63.9344 74.3479C60.5518 76.4457 57.3706 79.5546 61.0583 81.7668Z" fill="#F8BE3C"/>
<path d="M63.1017 78.5476C64.2466 79.2296 64.8632 78.0204 65.1579 76.6708C65.324 75.9101 64.5126 75.4068 63.901 75.8888C62.7916 76.7633 61.9485 77.8607 63.1017 78.5476Z" fill="#79322C"/>
<path fill-rule="evenodd" clip-rule="evenodd" d="M64.6881 75.7428C63.9968 76.2123 63.1645 77.0124 62.556 77.6538C62.6053 77.0819 63.2012 76.4385 63.904 75.8845C64.1591 75.6835 64.4489 75.6539 64.6881 75.7428Z" fill="black" fill-opacity="0.2"/>
<path d="M70.3856 83.589C74.6494 83.1996 73.3326 79.0371 71.3496 75.6734C70.6169 74.4305 68.8688 74.5651 68.3279 75.9027C66.8358 79.5927 66.1031 83.98 70.3856 83.589Z" fill="#F8BE3C"/>
<path d="M70.1714 79.9148C71.5745 79.7823 71.3189 78.3438 70.7164 77.0108C70.3956 76.3013 69.4442 76.374 69.2293 77.1224C68.8166 78.5598 68.7586 80.0482 70.1714 79.9148Z" fill="#79322C"/>
<path fill-rule="evenodd" clip-rule="evenodd" d="M69.7991 76.537C69.4976 77.357 69.2841 78.5692 69.1647 79.4997C68.8468 78.9762 68.9657 78.0363 69.2296 77.1172C69.3211 76.7986 69.5461 76.6024 69.7991 76.537Z" fill="black" fill-opacity="0.2"/>
<path d="M51.4497 59.0386C47.4997 60.6907 50.0059 64.2654 52.9077 66.8783C53.9798 67.8437 55.6068 67.1902 55.7209 65.752C56.0358 61.7842 55.417 57.3794 51.4497 59.0386Z" fill="#F8BE3C"/>
<path d="M52.5447 61.5951C50.5901 62.4197 51.9253 64.4898 53.4606 66.0488C54.007 66.6036 54.8927 66.2483 54.9083 65.4698C54.953 63.2378 54.5086 60.7665 52.5447 61.5951Z" fill="#79322C"/>
<path fill-rule="evenodd" clip-rule="evenodd" d="M54.3706 66.2719C54.5226 65.0875 54.2765 63.1452 54.0212 61.7218C54.7498 62.3608 54.9416 63.9728 54.9115 65.4762C54.9036 65.8726 54.6701 66.1592 54.3706 66.2719Z" fill="black" fill-opacity="0.2"/>
<path d="M81.5845 72.9399C77.6344 74.5919 80.1407 78.1666 83.0424 80.7795C84.1146 81.7449 85.7416 81.0914 85.8557 79.6532C86.1706 75.6854 85.5518 71.2806 81.5845 72.9399Z" fill="#F8BE3C"/>
<path d="M83.0359 76.6862C81.6548 77.2689 82.4104 78.6605 83.4581 79.8124C83.982 80.3884 84.8672 80.0335 84.8536 79.2549C84.8258 77.6639 84.4261 76.0997 83.0359 76.6862Z" fill="#79322C"/>
<path fill-rule="evenodd" clip-rule="evenodd" d="M84.4658 79.9947C84.5191 79.079 84.348 77.7695 84.1713 76.7837C84.6655 77.2171 84.8384 78.2329 84.8563 79.2599C84.8623 79.5994 84.6973 79.8584 84.4658 79.9947Z" fill="black" fill-opacity="0.2"/>
<path d="M14.4651 81.6012C18.5242 82.9633 18.9966 78.6231 18.5374 74.7454C18.3677 73.3127 16.7136 72.7314 15.6796 73.7376C12.8269 76.5133 10.3881 80.2332 14.4651 81.6012Z" fill="#F8BE3C"/>
<path d="M15.2396 79.2445C17.1868 79.8912 17.5473 77.5558 17.4317 75.4398C17.3892 74.6623 16.4893 74.3456 15.9661 74.9223C14.5132 76.5239 13.2828 78.5947 15.2396 79.2445Z" fill="#79322C"/>
<path fill-rule="evenodd" clip-rule="evenodd" d="M16.8824 74.6673C16.0148 75.4445 14.9602 77.0077 14.2395 78.2035C14.1176 77.2773 14.9926 75.9908 15.9678 74.9158C16.2299 74.6269 16.5864 74.5622 16.8824 74.6673Z" fill="black" fill-opacity="0.2"/>
<path d="M89.4011 92.8272C94.8722 90.5337 90.8444 85.4199 86.7853 81.9824C85.6843 81.05 84.0588 81.7048 83.9056 83.1394C83.3303 88.5255 83.9123 95.1281 89.4011 92.8272Z" fill="#F8BE3C"/>
<path d="M88.0019 89.0415C90.5372 87.9694 88.5824 85.2016 86.5725 83.2548C86.0132 82.713 85.1255 83.0699 85.0938 83.8479C84.9776 86.6983 85.4569 90.1177 88.0019 89.0415Z" fill="#79322C"/>
<path fill-rule="evenodd" clip-rule="evenodd" d="M85.7866 83.0027C85.5188 84.4237 85.8435 87.0179 86.1803 88.8868C85.2129 88.0401 85.01 85.8048 85.0901 83.84C85.1086 83.3852 85.4196 83.0744 85.7866 83.0027Z" fill="black" fill-opacity="0.2"/>
<path d="M75.0056 73.7969C80.4767 71.5034 76.4489 66.3896 72.3898 62.9521C71.2888 62.0197 69.6633 62.6746 69.5101 64.1092C68.9348 69.4952 69.5168 76.0979 75.0056 73.7969Z" fill="#F8BE3C"/>
<path d="M73.6064 70.0113C76.1417 68.9392 74.1869 66.1714 72.177 64.2245C71.6177 63.6828 70.73 64.0396 70.6983 64.8176C70.5821 67.6681 71.0614 71.0875 73.6064 70.0113Z" fill="#79322C"/>
<path fill-rule="evenodd" clip-rule="evenodd" d="M71.3911 63.9725C71.1233 65.3934 71.448 67.9876 71.7848 69.8565C70.8174 69.0098 70.6145 66.7746 70.6946 64.8097C70.7131 64.355 71.0241 64.0441 71.3911 63.9725Z" fill="black" fill-opacity="0.2"/>
<path d="M68.1752 87.5963C67.0257 93.4162 73.5169 92.9271 78.6344 91.4767C80.0225 91.0833 80.386 89.369 79.281 88.4413C75.1323 84.9587 69.3284 81.7575 68.1752 87.5963Z" fill="#F8BE3C"/>
<path d="M73.5601 89.0566C73.1646 91.0923 75.5586 91.1459 77.6632 90.7534C78.4287 90.6106 78.6272 89.6774 77.9885 89.232C76.1968 87.9823 73.9575 87.011 73.5601 89.0566Z" fill="#79322C"/>
<path fill-rule="evenodd" clip-rule="evenodd" d="M78.3569 90.1134C77.4693 89.3447 75.7637 88.4894 74.4712 87.922C75.3847 87.6798 76.7905 88.3937 77.9943 89.2333C78.3156 89.4574 78.425 89.8051 78.3569 90.1134Z" fill="black" fill-opacity="0.2"/>
<path d="M77.7204 89.6C83.6504 89.7674 82.0905 83.4475 79.8108 78.6418C79.1924 77.3383 77.4415 77.2643 76.7102 78.508C73.9645 83.1772 71.7711 89.4321 77.7204 89.6Z" fill="#F8BE3C"/>
<path d="M77.9882 84.0143C80.1229 84.0679 79.7525 81.612 78.9891 79.5467C78.7192 78.8163 77.7657 78.7755 77.4305 79.4783C76.4636 81.5061 75.8433 83.9604 77.9882 84.0143Z" fill="#79322C"/>
<path fill-rule="evenodd" clip-rule="evenodd" d="M78.2547 78.9692C77.624 79.99 77.0443 81.8751 76.6884 83.2871C76.2848 82.3983 76.779 80.8379 77.4307 79.4713C77.6019 79.1123 77.9344 78.9473 78.2547 78.9692Z" fill="black" fill-opacity="0.2"/>
<path d="M58.8279 92.0932C63.5134 95.7315 65.9886 89.7109 66.9883 84.4867C67.2595 83.0696 65.8905 81.9756 64.5657 82.5469C59.5919 84.6921 54.127 88.4429 58.8279 92.0932Z" fill="#F8BE3C"/>
<path d="M62.0214 88.1723C63.839 89.5746 65.0689 87.1525 65.7008 84.8797C65.9094 84.1295 65.1639 83.5329 64.4759 83.8975C62.3498 85.0243 60.1956 86.7636 62.0214 88.1723Z" fill="#79322C"/>
<path fill-rule="evenodd" clip-rule="evenodd" d="M65.4712 84.0014C64.2908 84.4582 62.575 85.7348 61.3651 86.7373C61.581 85.7031 63.0369 84.6563 64.4798 83.8916C64.8443 83.6984 65.2249 83.7751 65.4712 84.0014Z" fill="black" fill-opacity="0.2"/>
<path d="M69.1396 50.0812C63.208 50.1753 65.0449 56.4203 67.5343 61.1209C68.2095 62.3959 69.962 62.3926 70.6378 61.1179C73.175 56.3322 75.0905 49.9867 69.1396 50.0812Z" fill="#F8BE3C"/>
<path d="M69.1025 55.1378C66.8072 55.1814 67.3636 57.8402 68.293 60.0085C68.5997 60.7242 69.5546 60.723 69.863 60.0081C70.8162 57.7987 71.4082 55.094 69.1025 55.1378Z" fill="#79322C"/>
<path fill-rule="evenodd" clip-rule="evenodd" d="M69.0214 60.5499C69.6564 59.4549 70.1958 57.3854 70.5123 55.8464C70.9909 56.7881 70.5104 58.5157 69.8635 60.0151C69.7001 60.3939 69.3552 60.5723 69.0214 60.5499Z" fill="black" fill-opacity="0.2"/>
<path d="M39.2575 64.4424C43.9431 68.0808 46.4183 62.0602 47.418 56.8359C47.6892 55.4189 46.3202 54.3248 44.9954 54.8962C40.0216 57.0414 34.5567 60.7922 39.2575 64.4424Z" fill="#F8BE3C"/>
<path d="M42.4511 60.5215C44.2687 61.9239 45.4985 59.5018 46.1305 57.229C46.3391 56.4788 45.5936 55.8822 44.9056 56.2468C42.7795 57.3736 40.6253 59.1129 42.4511 60.5215Z" fill="#79322C"/>
<path fill-rule="evenodd" clip-rule="evenodd" d="M45.9009 56.3507C44.7205 56.8075 43.0047 58.0841 41.7948 59.0865C42.0107 58.0524 43.4666 57.0056 44.9094 56.2409C45.2739 56.0477 45.6546 56.1244 45.9009 56.3507Z" fill="black" fill-opacity="0.2"/>
<path d="M49.9822 76.6738C55.4532 74.3803 51.4254 69.2665 47.3664 65.829C46.2654 64.8966 44.6399 65.5515 44.4866 66.9861C43.9114 72.3721 44.4933 78.9748 49.9822 76.6738Z" fill="#F8BE3C"/>
<path d="M48.1152 72.7129C50.4484 71.7263 48.7106 69.2022 46.8633 67.3887C46.3077 66.8432 45.421 67.1999 45.3942 67.9781C45.3035 70.6162 45.7725 73.7036 48.1152 72.7129Z" fill="#79322C"/>
<path fill-rule="evenodd" clip-rule="evenodd" d="M46.033 67.1451C45.807 68.4868 46.105 70.8542 46.4138 72.5684C45.5293 71.7942 45.329 69.7772 45.3911 67.9707C45.4061 67.5362 45.6892 67.2331 46.033 67.1451Z" fill="black" fill-opacity="0.2"/>
<path d="M59.2277 73.7209C65.1026 74.5442 64.2524 68.0904 62.5191 63.0617C62.0489 61.6977 60.3169 61.4303 59.4523 62.5853C56.2064 66.9216 53.3336 72.895 59.2277 73.7209Z" fill="#F8BE3C"/>
<path d="M59.8876 69.4762C62.1166 69.7815 61.99 67.135 61.422 64.8916C61.2309 64.1368 60.2875 63.9904 59.8734 64.6498C58.6182 66.6491 57.6484 69.1695 59.8876 69.4762Z" fill="#79322C"/>
<path fill-rule="evenodd" clip-rule="evenodd" d="M60.7772 64.2415C59.9969 65.2143 59.1637 67.132 58.6248 68.5728C58.3044 67.5903 59.0237 65.9968 59.874 64.6426C60.0911 64.2968 60.4538 64.1726 60.7772 64.2415Z" fill="black" fill-opacity="0.2"/>
<path d="M41.0306 67.8925C39.0112 64.3957 35.9807 67.0919 33.8617 70.1126C33.0331 71.2937 33.8887 72.8246 35.3294 72.7463C39.0858 72.542 43.0592 71.4053 41.0306 67.8925Z" fill="#F8BE3C"/>
<path d="M38.3219 69.3487C37.5205 67.971 36.1457 68.9954 35.0827 70.2648C34.5827 70.8617 35.0473 71.6943 35.8186 71.5876C37.4941 71.3556 39.1282 70.7349 38.3219 69.3487Z" fill="#79322C"/>
<path fill-rule="evenodd" clip-rule="evenodd" d="M35.0218 71.2755C35.9821 71.2195 37.3519 70.8599 38.3713 70.5389C37.9776 71.1235 36.9043 71.4393 35.8134 71.5903C35.4687 71.6381 35.1852 71.4981 35.0218 71.2755Z" fill="black" fill-opacity="0.2"/>
<path d="M24.5916 76.4689C32.3275 78.4151 31.7749 69.2003 30.0733 62.4056C29.7228 61.006 28.0277 60.5546 27.0239 61.5909C22.0636 66.7119 16.8364 74.518 24.5916 76.4689Z" fill="#F8BE3C"/>
<path d="M26.6799 69.759C29.3869 70.4311 29.4787 66.9895 29.0303 64.1923C28.907 63.4235 27.9827 63.1764 27.49 63.7794C25.6625 66.0157 23.9626 69.0844 26.6799 69.759Z" fill="#79322C"/>
<path fill-rule="evenodd" clip-rule="evenodd" d="M28.5595 63.5226C27.4797 64.5046 26.1642 66.8071 25.3007 68.5277C25.0321 67.252 26.2319 65.3134 27.4925 63.7709C27.7824 63.4161 28.2218 63.3556 28.5595 63.5226Z" fill="black" fill-opacity="0.2"/>
<path d="M35.2381 92.4981C40.7091 90.2046 36.6813 85.0908 32.6222 81.6533C31.5212 80.7209 29.8957 81.3758 29.7425 82.8104C29.1673 88.1964 29.7492 94.7991 35.2381 92.4981Z" fill="#F8BE3C"/>
<path d="M33.381 87.728C35.2377 86.9428 34.0016 84.9896 32.5458 83.4988C32.0019 82.9417 31.1168 83.2976 31.1056 84.0761C31.075 86.2022 31.5149 88.5171 33.381 87.728Z" fill="#79322C"/>
<path fill-rule="evenodd" clip-rule="evenodd" d="M31.6173 83.2828C31.4844 84.4248 31.7194 86.2587 31.9624 87.6075C31.2729 87.004 31.0822 85.4946 31.1027 84.07C31.1082 83.6832 31.3294 83.4008 31.6173 83.2828Z" fill="black" fill-opacity="0.2"/>
<path d="M25.0382 92.0278C28.7584 91.9832 28.0417 88.3976 26.5967 85.3126C25.9847 84.0061 24.2298 84.0023 23.6042 85.3024C22.0973 88.4331 21.2996 92.0727 25.0382 92.0278Z" fill="#F8BE3C"/>
<path d="M25.0554 89.5304C26.6783 89.5058 26.4454 87.7662 25.8449 86.1908C25.5676 85.4632 24.6142 85.4606 24.328 86.1847C23.6952 87.7864 23.4226 89.555 25.0554 89.5304Z" fill="#79322C"/>
<path fill-rule="evenodd" clip-rule="evenodd" d="M24.9972 85.6428C24.5667 86.5182 24.2018 87.9172 23.9782 88.9836C23.6546 88.341 23.9142 87.2245 24.3273 86.1791C24.4562 85.853 24.7204 85.6742 24.9972 85.6428Z" fill="black" fill-opacity="0.2"/>
<path d="M40.716 74.8488C34.8627 73.8833 35.5561 80.3558 37.167 85.425C37.6039 86.8001 39.3289 87.1094 40.2212 85.9757C43.5715 81.7194 46.5882 75.8175 40.716 74.8488Z" fill="#F8BE3C"/>
<path d="M40.1176 78.8354C37.5676 78.4229 37.7101 81.5575 38.326 84.1211C38.5079 84.8782 39.4489 85.0474 39.8862 84.4031C41.396 82.1788 42.6777 79.2496 40.1176 78.8354Z" fill="#79322C"/>
<path fill-rule="evenodd" clip-rule="evenodd" d="M38.8902 84.7654C39.8124 83.7388 40.8405 81.5288 41.5033 79.8796C41.8475 81.0296 40.9195 82.8861 39.8843 84.4112C39.6376 84.7746 39.2307 84.8792 38.8902 84.7654Z" fill="black" fill-opacity="0.2"/>
<path d="M43.5213 92.2758C49.4058 93.6747 49.1425 87.0174 47.8588 81.7553C47.5169 80.3537 45.8176 79.9246 44.8467 80.9918C41.135 85.0716 37.618 90.8725 43.5213 92.2758Z" fill="#F8BE3C"/>
<path d="M44.5765 87.6771C46.5583 88.1417 46.7086 85.8069 46.4065 83.7256C46.2947 82.955 45.3699 82.7208 44.9014 83.3427C43.61 85.0568 42.5848 87.2102 44.5765 87.6771Z" fill="#79322C"/>
<path fill-rule="evenodd" clip-rule="evenodd" d="M45.7875 83.005C44.9995 83.8538 44.0983 85.4917 43.4935 86.7371C43.2898 85.8336 44.0363 84.486 44.9026 83.3361C45.1365 83.0256 45.4841 82.9285 45.7875 83.005Z" fill="black" fill-opacity="0.2"/>
<path opacity="0.46" d="M5.09208 93.3728C4.69683 92.6884 3.90633 90.8709 5.09208 88.8101L40.847 26.8481V4.47546H46.8822V32.0648L32.3264 95.6542H9.03698C6.66548 95.6542 5.48733 94.0572 5.09208 93.3728Z" fill="#FFFEFF"/>
</svg>
