<svg width="49" height="48" viewBox="0 0 49 48" fill="none" xmlns="http://www.w3.org/2000/svg">
<circle cx="24.9724" cy="24" r="21.5" fill="white" stroke="#5082FF" stroke-width="5"/>
<g clip-path="url(#clip0_2141_5655)">
<path d="M43.0875 20.4929L42.7936 20.6786C39.5515 22.7276 35.2502 21.7576 33.2013 18.5155C31.1523 15.2733 32.1223 10.9721 35.3645 8.92311L35.6583 8.73738L35.8441 9.03127C36.2482 9.67077 35.8874 10.3232 35.5967 10.8524C35.3141 11.3633 35.1572 11.6928 35.3295 11.9655C35.5019 12.2382 35.8677 12.234 36.4496 12.2019C37.0484 12.1656 37.7965 12.1206 38.2006 12.7601C38.6047 13.3996 38.2439 14.0521 37.9517 14.5789C37.6692 15.0898 37.5122 15.4193 37.6831 15.6896C37.854 15.96 38.2213 15.9582 38.8016 15.9237C39.4005 15.8874 40.147 15.8401 40.5512 16.4796C40.9553 17.1191 40.5945 17.7715 40.3023 18.2984C40.0198 18.8092 39.8628 19.1387 40.0337 19.4091C40.2046 19.6795 40.5719 19.6776 41.1522 19.6432C41.7511 19.6069 42.4976 19.5595 42.9018 20.199L43.0875 20.4929Z" fill="#F7C6F2"/>
<path d="M14.1007 38.4006C13.6966 37.7611 14.0574 37.1086 14.3496 36.5818C14.6321 36.071 14.7891 35.7414 14.6182 35.4711C14.4459 35.1983 14.08 35.2025 13.4997 35.237C12.897 35.2724 12.1528 35.3183 11.7487 34.6788C11.3445 34.0393 11.7077 33.3853 11.9975 32.86C12.2801 32.3492 12.437 32.0197 12.2662 31.7493C12.0938 31.4765 11.728 31.4807 11.1476 31.5152C10.5464 31.553 9.80074 31.5965 9.39659 30.957C8.99244 30.3175 9.35328 29.665 9.64398 29.1359C9.92651 28.625 10.0835 28.2955 9.91112 28.0228C9.73876 27.75 9.37143 27.7519 8.79111 27.7863C8.19136 27.8265 7.44718 27.8724 7.04303 27.2329L6.8573 26.939L7.15119 26.7532C10.3934 24.7043 14.6946 25.6742 16.7435 28.9164C18.7925 32.1586 17.8225 36.4598 14.5804 38.5088L14.2865 38.6945L14.1007 38.4006Z" fill="#F7C6F2"/>
<path d="M19.4005 14.8993C14.5314 17.9765 13.0786 24.4187 16.1557 29.2878C19.2329 34.157 25.6751 35.6098 30.5443 32.5326C35.4134 29.4554 36.8662 23.0132 33.789 18.1441C30.7119 13.2749 24.2696 11.8222 19.4005 14.8993Z" fill="#F7C6F2"/>
</g>
<defs>
<clipPath id="clip0_2141_5655">
<rect width="34.0704" height="20.8594" fill="white" transform="translate(5 24) rotate(-32.2918)"/>
</clipPath>
</defs>
</svg>
