<svg width="164" height="247" viewBox="0 0 164 247" fill="none" xmlns="http://www.w3.org/2000/svg">
<path d="M82.4238 0.969604C121.434 0.969604 163.424 9.12031 163.424 26.9877C163.424 44.874 121.434 53.0058 82.4238 53.0058C43.4137 53.0058 1.42383 44.8551 1.42383 26.9877C1.42383 9.12031 43.3942 0.969604 82.4238 0.969604ZM14.0247 35.8176C26.0997 42.8551 52.1779 47.7229 82.4044 47.7229C112.631 47.7229 138.728 42.8551 150.803 35.8176C155.4 33.1385 157.951 30.1574 157.951 27.0066C157.951 15.5352 124.122 6.27133 82.4044 6.27133C40.6871 6.27133 6.85759 15.5541 6.85759 27.0066C6.87706 30.1574 9.42841 33.1385 14.0247 35.8176Z" fill="white" stroke="#5181FF"/>
<path d="M1.42383 26.9877C1.42383 9.12031 43.3942 0.969604 82.4238 0.969604C121.434 0.969604 163.424 9.12031 163.424 26.9877C163.424 27.7424 163.326 28.4782 163.171 29.1952L140.871 228.227C140.871 241.132 110.566 247 82.4238 247C54.2618 247 23.9769 241.113 23.9769 228.227L1.65755 29.1952C1.52121 28.4782 1.42383 27.7424 1.42383 26.9877Z" fill="#F6F6F6" fill-opacity="0.4"/>
<path d="M6.87701 26.8556C6.87701 26.8934 6.85753 26.95 6.85753 26.9877C6.85753 30.1385 9.42834 33.1196 14.0052 35.7987C26.0802 42.8363 52.1583 47.7041 82.3848 47.7041C112.611 47.7041 138.728 42.8551 150.803 35.8176C155.4 33.1385 157.951 30.1574 157.951 27.0066C157.951 26.9688 157.932 26.9122 157.932 26.8745C157.932 26.8745 157.581 24.9878 160.736 24.9878C163.151 24.9878 163.404 26.8745 163.404 26.8745C163.404 26.9122 163.404 26.9688 163.404 27.0066C163.404 44.8928 121.414 53.0247 82.4043 53.0247C43.3942 53.0247 1.4043 44.874 1.4043 27.0066C1.4043 26.9688 1.4043 26.9122 1.4043 26.8745C1.4043 26.8745 1.65749 24.9878 4.42305 24.9878C7.22757 24.9689 6.87701 26.8556 6.87701 26.8556Z" fill="white"/>
<path d="M140.373 228.171L162.244 33.0741C160.641 35.8269 157.956 38.2615 154.471 40.3972C149.574 43.398 143.029 45.852 135.466 47.7922C120.336 51.6737 101.03 53.5247 82.4231 53.5247C63.8069 53.5247 44.4959 51.6737 29.3635 47.7923C21.7992 45.852 15.2534 43.398 10.3562 40.3972C6.87093 38.2615 4.18611 35.8269 2.58247 33.0741L24.4535 228.171L24.4566 228.199V228.227C24.4566 231.23 26.213 233.885 29.4241 236.199C32.6366 238.515 37.2406 240.438 42.7628 241.971C53.8007 245.035 68.3686 246.5 82.4231 246.5C96.4677 246.5 111.031 245.035 122.066 241.971C127.587 240.438 132.191 238.515 135.403 236.199C138.614 233.885 140.37 231.23 140.37 228.227V228.199L140.373 228.171Z" fill="#EBEDEE" fill-opacity="0.4" stroke="#5181FF"/>
<path d="M24.2888 54.1755L39.9669 229.68C44.31 232.51 49.2763 233.774 55.0996 234.548L44.4658 59.081C39.2073 58.3264 34.0462 57.3075 29.4305 55.9491C27.6387 55.4208 25.8859 54.8359 24.2888 54.1755Z" fill="white"/>
</svg>
