<svg width="241" height="67" viewBox="0 0 241 67" fill="none" xmlns="http://www.w3.org/2000/svg">
<path d="M219.958 13.3259C217.048 5.83587 209.518 0.855865 201.098 0.855865H121.698H119.578H40.0581C31.6381 0.855865 24.1081 5.83587 21.1981 13.3259L0.578125 66.3659H119.588H121.708H240.578L219.958 13.3259Z" fill="white"/>
<mask id="path-2-outside-1_2404_5819" maskUnits="userSpaceOnUse" x="69.5781" y="9.19937" width="104" height="34" fill="black">
<rect fill="white" x="69.5781" y="9.19937" width="104" height="34"/>
<path d="M74.6581 37.1994V14.6394H90.4981V19.1514H80.5781V23.7274H89.7621V28.2394H80.5781V37.1994H74.6581ZM93.3144 37.1994V14.6394H103.97C106.573 14.6394 108.578 15.258 109.986 16.4954C111.416 17.7327 112.13 19.45 112.13 21.6474C112.13 23.1194 111.81 24.378 111.17 25.4234C110.53 26.4474 109.602 27.2474 108.386 27.8234C107.17 28.378 105.72 28.6554 104.034 28.6554L104.322 27.8554H105.922C106.861 27.8554 107.693 28.1114 108.418 28.6234C109.144 29.1354 109.741 29.85 110.21 30.7674L113.634 37.1994H107.17L103.49 29.9994C103.256 29.53 102.904 29.21 102.434 29.0394C101.986 28.8687 101.474 28.7834 100.898 28.7834H99.2344V37.1994H93.3144ZM99.2344 24.5914H102.946C104.098 24.5914 104.973 24.3674 105.57 23.9194C106.168 23.45 106.466 22.7567 106.466 21.8394C106.466 20.9434 106.168 20.2714 105.57 19.8234C104.973 19.3754 104.098 19.1514 102.946 19.1514H99.2344V24.5914ZM126.143 37.5514C122.772 37.5514 120.244 36.7194 118.559 35.0554C116.874 33.3914 116.031 30.906 116.031 27.5994V14.6394H121.919V27.6314C121.919 29.274 122.26 30.522 122.943 31.3754C123.626 32.2074 124.692 32.6234 126.143 32.6234C127.594 32.6234 128.66 32.2074 129.343 31.3754C130.026 30.522 130.367 29.274 130.367 27.6314V14.6394H136.191V27.5994C136.191 30.906 135.359 33.3914 133.695 35.0554C132.031 36.7194 129.514 37.5514 126.143 37.5514ZM140.158 37.1994V14.6394H146.078V37.1994H140.158ZM155.404 37.1994V19.4074H148.556V14.6394H168.172V19.4074H161.324V37.1994H155.404Z"/>
</mask>
<path d="M74.6581 37.1994V14.6394H90.4981V19.1514H80.5781V23.7274H89.7621V28.2394H80.5781V37.1994H74.6581ZM93.3144 37.1994V14.6394H103.97C106.573 14.6394 108.578 15.258 109.986 16.4954C111.416 17.7327 112.13 19.45 112.13 21.6474C112.13 23.1194 111.81 24.378 111.17 25.4234C110.53 26.4474 109.602 27.2474 108.386 27.8234C107.17 28.378 105.72 28.6554 104.034 28.6554L104.322 27.8554H105.922C106.861 27.8554 107.693 28.1114 108.418 28.6234C109.144 29.1354 109.741 29.85 110.21 30.7674L113.634 37.1994H107.17L103.49 29.9994C103.256 29.53 102.904 29.21 102.434 29.0394C101.986 28.8687 101.474 28.7834 100.898 28.7834H99.2344V37.1994H93.3144ZM99.2344 24.5914H102.946C104.098 24.5914 104.973 24.3674 105.57 23.9194C106.168 23.45 106.466 22.7567 106.466 21.8394C106.466 20.9434 106.168 20.2714 105.57 19.8234C104.973 19.3754 104.098 19.1514 102.946 19.1514H99.2344V24.5914ZM126.143 37.5514C122.772 37.5514 120.244 36.7194 118.559 35.0554C116.874 33.3914 116.031 30.906 116.031 27.5994V14.6394H121.919V27.6314C121.919 29.274 122.26 30.522 122.943 31.3754C123.626 32.2074 124.692 32.6234 126.143 32.6234C127.594 32.6234 128.66 32.2074 129.343 31.3754C130.026 30.522 130.367 29.274 130.367 27.6314V14.6394H136.191V27.5994C136.191 30.906 135.359 33.3914 133.695 35.0554C132.031 36.7194 129.514 37.5514 126.143 37.5514ZM140.158 37.1994V14.6394H146.078V37.1994H140.158ZM155.404 37.1994V19.4074H148.556V14.6394H168.172V19.4074H161.324V37.1994H155.404Z" fill="#7AA2FC"/>
<path d="M74.6581 37.1994H69.6581C69.6581 39.9608 71.8967 42.1994 74.6581 42.1994V37.1994ZM74.6581 14.6394V9.63937C71.8967 9.63937 69.6581 11.8779 69.6581 14.6394H74.6581ZM90.4981 14.6394H95.4981C95.4981 11.8779 93.2595 9.63937 90.4981 9.63937V14.6394ZM90.4981 19.1514V24.1514C93.2595 24.1514 95.4981 21.9128 95.4981 19.1514H90.4981ZM80.5781 19.1514V14.1514C77.8167 14.1514 75.5781 16.3899 75.5781 19.1514H80.5781ZM80.5781 23.7274H75.5781C75.5781 26.4888 77.8167 28.7274 80.5781 28.7274V23.7274ZM89.7621 23.7274H94.7621C94.7621 20.9659 92.5235 18.7274 89.7621 18.7274V23.7274ZM89.7621 28.2394V33.2394C92.5235 33.2394 94.7621 31.0008 94.7621 28.2394H89.7621ZM80.5781 28.2394V23.2394C77.8167 23.2394 75.5781 25.4779 75.5781 28.2394H80.5781ZM80.5781 37.1994V42.1994C83.3395 42.1994 85.5781 39.9608 85.5781 37.1994H80.5781ZM79.6581 37.1994V14.6394H69.6581V37.1994H79.6581ZM74.6581 19.6394H90.4981V9.63937H74.6581V19.6394ZM85.4981 14.6394V19.1514H95.4981V14.6394H85.4981ZM90.4981 14.1514H80.5781V24.1514H90.4981V14.1514ZM75.5781 19.1514V23.7274H85.5781V19.1514H75.5781ZM80.5781 28.7274H89.7621V18.7274H80.5781V28.7274ZM84.7621 23.7274V28.2394H94.7621V23.7274H84.7621ZM89.7621 23.2394H80.5781V33.2394H89.7621V23.2394ZM75.5781 28.2394V37.1994H85.5781V28.2394H75.5781ZM80.5781 32.1994H74.6581V42.1994H80.5781V32.1994ZM93.3144 37.1994H88.3144C88.3144 39.9608 90.553 42.1994 93.3144 42.1994V37.1994ZM93.3144 14.6394V9.63937C90.553 9.63937 88.3144 11.8779 88.3144 14.6394H93.3144ZM109.986 16.4954L106.686 20.2512C106.695 20.2594 106.704 20.2676 106.714 20.2757L109.986 16.4954ZM111.17 25.4234L115.41 28.0734C115.419 28.0603 115.427 28.0473 115.435 28.0341L111.17 25.4234ZM108.386 27.8234L110.461 32.3725C110.483 32.3625 110.505 32.3524 110.527 32.3421L108.386 27.8234ZM104.034 28.6554L99.3299 26.9618C98.7784 28.4937 99.0074 30.1983 99.9437 31.5304C100.88 32.8626 102.406 33.6554 104.034 33.6554V28.6554ZM104.322 27.8554V22.8554C102.214 22.8554 100.332 24.178 99.6179 26.1618L104.322 27.8554ZM108.418 28.6234L105.535 32.7082L105.535 32.7082L108.418 28.6234ZM110.21 30.7674L105.759 33.0448C105.771 33.0689 105.784 33.0929 105.797 33.1169L110.21 30.7674ZM113.634 37.1994V42.1994C115.39 42.1994 117.017 41.2786 117.921 39.7735C118.825 38.2684 118.873 36.3996 118.048 34.8499L113.634 37.1994ZM107.17 37.1994L102.718 39.4749C103.573 41.1471 105.292 42.1994 107.17 42.1994V37.1994ZM103.49 29.9994L99.0182 32.2354C99.0248 32.2486 99.0315 32.2618 99.0382 32.2749L103.49 29.9994ZM102.434 29.0394L100.654 33.7118C100.678 33.7208 100.702 33.7297 100.726 33.7383L102.434 29.0394ZM99.2344 28.7834V23.7834C96.473 23.7834 94.2344 26.0219 94.2344 28.7834H99.2344ZM99.2344 37.1994V42.1994C101.996 42.1994 104.234 39.9608 104.234 37.1994H99.2344ZM99.2344 24.5914H94.2344C94.2344 27.3528 96.473 29.5914 99.2344 29.5914V24.5914ZM105.57 23.9194L108.57 27.9194C108.6 27.8969 108.63 27.8741 108.659 27.851L105.57 23.9194ZM105.57 19.8234L108.57 15.8234L108.57 15.8234L105.57 19.8234ZM99.2344 19.1514V14.1514C96.473 14.1514 94.2344 16.3899 94.2344 19.1514H99.2344ZM98.3144 37.1994V14.6394H88.3144V37.1994H98.3144ZM93.3144 19.6394H103.97V9.63937H93.3144V19.6394ZM103.97 19.6394C105.83 19.6394 106.491 20.0802 106.686 20.2512L113.287 12.7395C110.666 10.4359 107.316 9.63937 103.97 9.63937V19.6394ZM106.714 20.2757C106.863 20.405 107.13 20.6404 107.13 21.6474H117.13C117.13 18.2597 115.968 15.0604 113.259 12.7151L106.714 20.2757ZM107.13 21.6474C107.13 22.3842 106.976 22.6981 106.906 22.8126L115.435 28.0341C116.645 26.058 117.13 23.8545 117.13 21.6474H107.13ZM106.93 22.7734C106.854 22.8958 106.7 23.0897 106.246 23.3047L110.527 32.3421C112.505 31.4051 114.207 29.9989 115.41 28.0734L106.93 22.7734ZM106.311 23.2743C105.893 23.4649 105.185 23.6554 104.034 23.6554V33.6554C106.255 33.6554 108.447 33.2912 110.461 32.3725L106.311 23.2743ZM108.739 30.349L109.027 29.549L99.6179 26.1618L99.3299 26.9618L108.739 30.349ZM104.322 32.8554H105.922V22.8554H104.322V32.8554ZM105.922 32.8554C105.932 32.8554 105.876 32.8559 105.78 32.8263C105.681 32.7959 105.595 32.7506 105.535 32.7082L111.302 24.5385C109.683 23.3959 107.831 22.8554 105.922 22.8554V32.8554ZM105.535 32.7082C105.526 32.702 105.54 32.7091 105.574 32.7499C105.61 32.793 105.676 32.8831 105.759 33.0448L114.662 28.49C113.883 26.9683 112.787 25.5871 111.302 24.5385L105.535 32.7082ZM105.797 33.1169L109.221 39.5489L118.048 34.8499L114.624 28.4178L105.797 33.1169ZM113.634 32.1994H107.17V42.1994H113.634V32.1994ZM111.623 34.9238L107.943 27.7238L99.0382 32.2749L102.718 39.4749L111.623 34.9238ZM107.963 27.7633C107.188 26.2137 105.88 24.9721 104.143 24.3404L100.726 33.7383C100.38 33.6126 100.016 33.4062 99.687 33.1071C99.3614 32.8111 99.1485 32.496 99.0182 32.2354L107.963 27.7633ZM104.214 24.3669C103.096 23.9409 101.963 23.7834 100.898 23.7834V33.7834C100.985 33.7834 100.877 33.7965 100.654 33.7118L104.214 24.3669ZM100.898 23.7834H99.2344V33.7834H100.898V23.7834ZM94.2344 28.7834V37.1994H104.234V28.7834H94.2344ZM99.2344 32.1994H93.3144V42.1994H99.2344V32.1994ZM99.2344 29.5914H102.946V19.5914H99.2344V29.5914ZM102.946 29.5914C104.628 29.5914 106.751 29.2839 108.57 27.9194L102.57 19.9194C102.895 19.6761 103.157 19.5973 103.226 19.5797C103.287 19.564 103.213 19.5914 102.946 19.5914V29.5914ZM108.659 27.851C110.717 26.2345 111.466 23.9367 111.466 21.8394H101.466C101.466 21.7607 101.479 21.4664 101.65 21.0693C101.833 20.6445 102.128 20.2653 102.481 19.9878L108.659 27.851ZM111.466 21.8394C111.466 19.7234 110.685 17.4095 108.57 15.8234L102.57 23.8234C102.198 23.5438 101.876 23.15 101.673 22.6941C101.484 22.2671 101.466 21.9416 101.466 21.8394H111.466ZM108.57 15.8234C106.751 14.4589 104.628 14.1514 102.946 14.1514V24.1514C103.213 24.1514 103.287 24.1788 103.226 24.1631C103.157 24.1454 102.895 24.0666 102.57 23.8234L108.57 15.8234ZM102.946 14.1514H99.2344V24.1514H102.946V14.1514ZM94.2344 19.1514V24.5914H104.234V19.1514H94.2344ZM118.559 35.0554L115.046 38.6134L115.046 38.6134L118.559 35.0554ZM116.031 14.6394V9.63937C113.269 9.63937 111.031 11.8779 111.031 14.6394H116.031ZM121.919 14.6394H126.919C126.919 11.8779 124.68 9.63937 121.919 9.63937V14.6394ZM122.943 31.3754L119.039 34.4988C119.051 34.515 119.064 34.531 119.078 34.547L122.943 31.3754ZM129.343 31.3754L133.208 34.547C133.221 34.531 133.234 34.515 133.247 34.4988L129.343 31.3754ZM130.367 14.6394V9.63937C127.605 9.63937 125.367 11.8779 125.367 14.6394H130.367ZM136.191 14.6394H141.191C141.191 11.8779 138.952 9.63937 136.191 9.63937V14.6394ZM133.695 35.0554L137.23 38.5909L137.23 38.5909L133.695 35.0554ZM126.143 32.5514C123.527 32.5514 122.487 31.907 122.072 31.4974L115.046 38.6134C118.002 41.5318 122.017 42.5514 126.143 42.5514V32.5514ZM122.072 31.4974C121.663 31.0939 121.031 30.1082 121.031 27.5994H111.031C111.031 31.7039 112.084 35.6888 115.046 38.6134L122.072 31.4974ZM121.031 27.5994V14.6394H111.031V27.5994H121.031ZM116.031 19.6394H121.919V9.63937H116.031V19.6394ZM116.919 14.6394V27.6314H126.919V14.6394H116.919ZM116.919 27.6314C116.919 29.8626 117.367 32.4099 119.039 34.4988L126.847 28.2519C127.003 28.4464 127.021 28.5656 126.998 28.4803C126.971 28.3835 126.919 28.1207 126.919 27.6314H116.919ZM119.078 34.547C121.013 36.9056 123.749 37.6234 126.143 37.6234V27.6234C125.88 27.6234 125.894 27.5839 126.072 27.6531C126.165 27.6896 126.291 27.7517 126.431 27.851C126.571 27.9514 126.7 28.0717 126.808 28.2038L119.078 34.547ZM126.143 37.6234C128.537 37.6234 131.273 36.9056 133.208 34.547L125.478 28.2038C125.586 28.0717 125.714 27.9514 125.855 27.851C125.994 27.7517 126.121 27.6896 126.214 27.6531C126.392 27.5839 126.406 27.6234 126.143 27.6234V37.6234ZM133.247 34.4988C134.918 32.4099 135.367 29.8626 135.367 27.6314H125.367C125.367 28.1207 125.314 28.3835 125.288 28.4803C125.265 28.5656 125.283 28.4464 125.439 28.2519L133.247 34.4988ZM135.367 27.6314V14.6394H125.367V27.6314H135.367ZM130.367 19.6394H136.191V9.63937H130.367V19.6394ZM131.191 14.6394V27.5994H141.191V14.6394H131.191ZM131.191 27.5994C131.191 30.1245 130.56 31.1188 130.159 31.5198L137.23 38.5909C140.157 35.6639 141.191 31.6876 141.191 27.5994H131.191ZM130.159 31.5198C129.774 31.9048 128.764 32.5514 126.143 32.5514V42.5514C130.263 42.5514 134.287 41.534 137.23 38.5909L130.159 31.5198ZM140.158 37.1994H135.158C135.158 39.9608 137.397 42.1994 140.158 42.1994V37.1994ZM140.158 14.6394V9.63937C137.397 9.63937 135.158 11.8779 135.158 14.6394H140.158ZM146.078 14.6394H151.078C151.078 11.8779 148.84 9.63937 146.078 9.63937V14.6394ZM146.078 37.1994V42.1994C148.84 42.1994 151.078 39.9608 151.078 37.1994H146.078ZM145.158 37.1994V14.6394H135.158V37.1994H145.158ZM140.158 19.6394H146.078V9.63937H140.158V19.6394ZM141.078 14.6394V37.1994H151.078V14.6394H141.078ZM146.078 32.1994H140.158V42.1994H146.078V32.1994ZM155.404 37.1994H150.404C150.404 39.9608 152.642 42.1994 155.404 42.1994V37.1994ZM155.404 19.4074H160.404C160.404 16.6459 158.165 14.4074 155.404 14.4074V19.4074ZM148.556 19.4074H143.556C143.556 22.1688 145.794 24.4074 148.556 24.4074V19.4074ZM148.556 14.6394V9.63937C145.794 9.63937 143.556 11.8779 143.556 14.6394H148.556ZM168.172 14.6394H173.172C173.172 11.8779 170.933 9.63937 168.172 9.63937V14.6394ZM168.172 19.4074V24.4074C170.933 24.4074 173.172 22.1688 173.172 19.4074H168.172ZM161.324 19.4074V14.4074C158.562 14.4074 156.324 16.6459 156.324 19.4074H161.324ZM161.324 37.1994V42.1994C164.085 42.1994 166.324 39.9608 166.324 37.1994H161.324ZM160.404 37.1994V19.4074H150.404V37.1994H160.404ZM155.404 14.4074H148.556V24.4074H155.404V14.4074ZM153.556 19.4074V14.6394H143.556V19.4074H153.556ZM148.556 19.6394H168.172V9.63937H148.556V19.6394ZM163.172 14.6394V19.4074H173.172V14.6394H163.172ZM168.172 14.4074H161.324V24.4074H168.172V14.4074ZM156.324 19.4074V37.1994H166.324V19.4074H156.324ZM161.324 32.1994H155.404V42.1994H161.324V32.1994Z" fill="white" mask="url(#path-2-outside-1_2404_5819)"/>
</svg>
