<svg width="58" height="280" viewBox="0 0 58 280" fill="none" xmlns="http://www.w3.org/2000/svg">
<path d="M1.20996 202.885C1.20996 202.885 9.93504 202.885 15.5257 202.885" stroke="black" stroke-width="1.90879" stroke-linecap="round"/>
<path d="M1.20996 72.7772C1.20996 72.7772 10.5168 72.7772 16.4803 72.7772" stroke="black" stroke-width="1.90879" stroke-linecap="round"/>
<path d="M15.5259 5.63555C10.7539 5.37027 1.20996 8.10268 1.20996 21.1546C1.20996 34.2065 1.20996 179.783 1.20996 253.399C1.20996 264.962 8.36792 268.266 15.5259 268.266" stroke="black" stroke-width="1.90879" stroke-linecap="round"/>
<path d="M29.8563 3.45649L30.6198 2.7846C31.7651 3.31906 33.1699 4.1742 33.8571 4.81555L33.0478 5.56379C32.3912 4.92244 31.0016 4.02149 29.8563 3.45649ZM36.9112 1.37973H37.1402L37.3387 1.31865L38.087 1.77676C36.1018 5.33474 31.5818 7.47258 27.5505 8.35826C27.4436 8.06813 27.2145 7.59475 27.0007 7.35042C30.8489 6.63272 35.2467 4.57123 36.9112 1.56297V1.37973ZM31.8109 1.37973H37.2013V2.34176H31.8109V1.37973ZM32.9409 0.0664845L34.2236 0.34135C32.8187 1.96 30.742 3.47176 27.9017 4.60177C27.7337 4.3269 27.3825 3.94514 27.1229 3.74663C29.8716 2.7846 31.8872 1.34919 32.9409 0.0664845ZM31.8109 9.0607L32.6508 8.40407C33.8571 9.03016 35.3231 9.99218 36.056 10.7252L35.1551 11.4581C34.4679 10.7404 33.0172 9.71732 31.8109 9.0607ZM39.1406 6.72434H39.3697L39.5835 6.66326L40.3317 7.07556C38.4077 11.5345 33.6433 13.4433 28.6499 14.1762C28.5736 13.8556 28.3445 13.3822 28.1613 13.1226C32.8798 12.5576 37.4914 10.7404 39.1406 6.89231V6.72434ZM34.1778 6.72434H39.446V7.70164H34.1778V6.72434ZM35.4147 5.28893L36.6821 5.57907C35.1398 7.38096 32.7271 9.04543 29.3829 10.2212C29.2455 9.96164 28.9095 9.54935 28.6652 9.33556C31.9025 8.32772 34.2236 6.73961 35.4147 5.28893Z" fill="black"/>
<path d="M27.3825 66.2507H40.0263V67.3654H27.3825V66.2507ZM33.9945 71.4426H39.4155V72.5726H33.9945V71.4426ZM26.8022 77.3828H40.5302V78.4975H26.8022V77.3828ZM33.4448 66.663H34.6359V77.9325H33.4448V66.663ZM28.8943 70.1752H30.0701V77.9783H28.8943V70.1752ZM48.5319 72.5573H49.6924V79.1846H48.5319V72.5573ZM46.0734 70.4653V71.9465H51.8455V70.4653H46.0734ZM44.9586 69.5949H53.0213V72.8322H44.9586V69.5949ZM43.5996 74.0996H53.8307V75.138H44.7448V78.4822H43.5996V74.0996ZM53.2657 74.0996H54.4262V77.2911C54.4262 77.8867 54.304 78.2073 53.8307 78.3753C53.342 78.5586 52.5632 78.5586 51.3721 78.5586C51.3111 78.2532 51.1431 77.8256 50.9751 77.5202C51.8913 77.5507 52.7159 77.5507 52.9603 77.5355C53.1893 77.5202 53.2657 77.4591 53.2657 77.2911V74.0996ZM48.425 65.1207H49.6008V67.8999H48.425V65.1207ZM42.5917 67.4876H55.3577V70.786H54.2124V68.5107H43.7065V70.786H42.5917V67.4876ZM43.8592 65.6857L44.8823 65.2734C45.3862 65.8231 45.9206 66.5561 46.1802 67.06L45.0808 67.5639C44.8517 67.0448 44.3325 66.2507 43.8592 65.6857ZM52.9297 65.2429L54.1208 65.6552C53.6169 66.327 53.0366 67.0295 52.5785 67.5029L51.647 67.1211C52.0746 66.6172 52.6396 65.7926 52.9297 65.2429Z" fill="black"/>
<path d="M33.063 130.19H34.2236V137.932C34.2236 138.65 34.0709 138.986 33.5517 139.184C33.0478 139.368 32.1926 139.398 30.9099 139.398C30.8641 139.062 30.6809 138.558 30.4976 138.222C31.5055 138.253 32.437 138.238 32.7118 138.238C32.9714 138.222 33.063 138.161 33.063 137.917V130.19ZM36.3767 132.481L37.3998 131.962C38.7283 133.489 40.179 135.581 40.7593 137.001L39.614 137.612C39.0796 136.222 37.69 134.069 36.3767 132.481ZM37.3845 136.65L38.5756 137.016C37.125 141.322 34.0098 143.368 28.3445 144.254C28.2376 143.903 27.978 143.414 27.7337 143.124C33.1394 142.422 36.0713 140.574 37.3845 136.65ZM29.673 132.099L30.9252 132.404C30.1922 134.267 28.9859 136.42 27.6115 137.81C27.352 137.596 26.9091 137.276 26.6037 137.123C27.9322 135.825 29.108 133.779 29.673 132.099Z" fill="black"/>
<path d="M36.7432 198.176H40.6829V199.169H36.3462L36.7432 198.176ZM36.8348 195.199L37.9037 195.367C37.4914 198.054 36.7585 200.604 35.5979 202.284C35.4452 202.055 35.0635 201.612 34.8344 201.414C35.9033 199.932 36.4989 197.627 36.8348 195.199ZM32.4217 195.199H33.3074V200.009H32.4217V195.199ZM30.4824 196.527H31.2917V199.474H34.4985V196.527H35.3383V200.436H30.4824V196.527ZM30.1922 201.994H35.5216V202.971H30.1922V201.994ZM32.9562 206.56C33.7502 206.346 34.8497 205.964 35.9949 205.582L36.1477 206.438C35.1398 206.819 34.1472 207.216 33.2768 207.552L32.9562 206.56ZM33.5517 202.437H34.5137V206.56L33.5517 206.85V202.437ZM36.957 199.062C37.4609 203.17 38.5604 206.911 40.9731 208.346C40.7287 208.56 40.3928 208.957 40.2248 209.247C37.7358 207.552 36.6668 203.658 36.1477 199.184L36.957 199.062ZM39.0337 198.711L40.0416 198.802C39.5529 203.78 38.4382 207.14 35.4147 209.247C35.3078 209.049 34.9718 208.606 34.7733 208.392C37.6441 206.544 38.6367 203.307 39.0337 198.711ZM31.2612 202.574H32.2079V203.78C32.2079 205.201 32.0399 207.262 30.4518 208.835C30.2991 208.591 29.9937 208.239 29.7647 208.071C31.1543 206.682 31.2612 205.017 31.2612 203.75V202.574ZM29.047 195.199L30.0853 195.596C29.3371 196.817 28.146 198.192 27.0618 199.108C26.9244 198.879 26.619 198.451 26.4357 198.253C27.413 197.459 28.4972 196.206 29.047 195.199ZM29.3676 198.268L30.3755 198.619C29.5051 200.421 28.1766 202.345 26.9397 203.597C26.8175 203.368 26.4663 202.834 26.2678 202.605C27.413 201.505 28.6041 199.871 29.3676 198.268ZM28.2682 201.047L29.3066 199.993V200.024V209.232H28.2682V201.047Z" fill="black"/>
<path d="M29.9174 260.238L31.0321 260.558C30.1922 262.284 28.879 263.933 27.5963 265.002C27.3825 264.788 26.9244 264.422 26.6495 264.238C27.9475 263.276 29.1997 261.78 29.9174 260.238ZM29.3829 261.994H39.9041V263.032H29.0011L29.3829 261.994ZM26.8328 265.613H40.4844V266.651H26.8328V265.613ZM27.0771 269.262H40.2706V270.301H27.0771V269.262ZM31.704 262.345H32.6966V269.766H31.704V262.345ZM28.9706 262.345H30.009V269.812H28.9706V262.345ZM34.4679 262.345H35.4452V269.812H34.4679V262.345ZM37.2624 262.345H38.316V269.812H37.2624V262.345ZM31.2917 271.339L32.3453 271.232C32.5439 272.133 32.7118 273.294 32.7271 273.996L31.5971 274.164C31.5971 273.446 31.4749 272.255 31.2917 271.339ZM34.4068 271.339L35.4758 271.156C35.8881 272.026 36.3004 273.217 36.4531 273.935L35.3231 274.179C35.1856 273.446 34.8039 272.255 34.4068 271.339ZM37.522 271.247L38.5909 270.881C39.3544 271.797 40.2554 273.08 40.6677 273.905L39.5224 274.317C39.1559 273.507 38.2855 272.194 37.522 271.247ZM28.6194 270.942L29.7189 271.217C29.3218 272.362 28.6194 273.584 27.8101 274.317L26.7259 273.859C27.5199 273.217 28.2376 272.057 28.6194 270.942Z" fill="black"/>
</svg>
