<svg width="516" height="210" viewBox="0 0 516 210" fill="none" xmlns="http://www.w3.org/2000/svg">
<circle cx="228.371" cy="204" r="6" fill="#D9D9D9"/>
<circle cx="248.371" cy="204" r="6" fill="#D9D9D9"/>
<circle cx="268.371" cy="204" r="6" fill="#D9D9D9"/>
<circle cx="288.371" cy="204" r="6" fill="#FAB4F0"/>
<rect x="190.5" y="44.0874" width="135.744" height="75.0358" rx="20.7791" fill="#5082FF"/>
<rect x="191.077" y="35.4295" width="134.59" height="73.8814" rx="20.2019" fill="#FFF55F" stroke="#5181FF" stroke-width="1.1544"/>
<path d="M207.01 83.9734V57.9302H216.947C219.976 57.9302 222.537 58.4474 224.63 59.4817C226.724 60.5161 228.3 62.006 229.359 63.9515C230.442 65.8725 230.984 68.1997 230.984 70.9333C230.984 73.6423 230.442 75.9696 229.359 77.9151C228.3 79.8607 226.724 81.3629 224.63 82.4219C222.537 83.4562 219.976 83.9734 216.947 83.9734H207.01ZM212.772 79.245H216.614C219.52 79.245 221.675 78.5677 223.079 77.2132C224.507 75.8341 225.221 73.7408 225.221 70.9333C225.221 68.1012 224.507 66.0079 223.079 64.6534C221.675 63.2989 219.52 62.6217 216.614 62.6217H212.772V79.245ZM234.733 70.9333C234.733 68.2243 235.238 65.8725 236.248 63.8777C237.282 61.8582 238.76 60.2944 240.68 59.1862C242.601 58.078 244.879 57.5239 247.514 57.5239C250.15 57.5239 252.428 58.078 254.349 59.1862C256.269 60.2944 257.747 61.8582 258.781 63.8777C259.84 65.8725 260.37 68.212 260.37 70.8964C260.37 73.63 259.84 76.0065 258.781 78.0259C257.747 80.0207 256.269 81.5846 254.349 82.7174C252.428 83.8256 250.15 84.3797 247.514 84.3797C244.879 84.3797 242.601 83.8256 240.68 82.7174C238.784 81.5846 237.319 80.0084 236.285 77.989C235.25 75.9696 234.733 73.6177 234.733 70.9333ZM240.754 70.9333C240.754 73.6177 241.308 75.7233 242.417 77.2502C243.55 78.7524 245.249 79.5036 247.514 79.5036C249.731 79.5036 251.418 78.7524 252.575 77.2502C253.733 75.7233 254.312 73.6177 254.312 70.9333C254.312 68.2243 253.733 66.131 252.575 64.6534C251.443 63.1512 249.756 62.4 247.514 62.4C245.249 62.4 243.55 63.1512 242.417 64.6534C241.308 66.131 240.754 68.2243 240.754 70.9333ZM264.874 83.9734V57.9302H269.159L283.307 75.9203H282.31V57.9302H287.666V83.9734H283.381L269.27 65.9833H270.23V83.9734H264.874ZM292.94 83.9734V57.9302H311.041V62.4H298.444V68.4952H310.154V73.002H298.444V79.5036H311.041V83.9734H292.94Z" fill="#5181FF"/>
<path d="M260.382 108.302C258.014 107.18 256.377 104.768 256.377 101.973C256.377 98.1074 259.511 94.9734 263.377 94.9734C267.243 94.9734 270.377 98.1074 270.377 101.973C270.377 104.768 268.74 107.18 266.372 108.302" stroke="#5082FF" stroke-width="2" stroke-miterlimit="10" stroke-linecap="round" stroke-linejoin="round"/>
<path d="M270.508 108.973C272.278 107.169 273.372 104.7 273.372 101.973C273.372 99.2464 272.278 96.7774 270.508 94.9734" stroke="#5082FF" stroke-width="2" stroke-miterlimit="10" stroke-linecap="round" stroke-linejoin="round"/>
<path d="M260.371 117.973C260.371 116.316 259.028 114.973 257.371 114.973C255.714 114.973 254.371 116.316 254.371 117.973V124.973C254.371 133.257 261.087 139.973 269.371 139.973C277.655 139.973 284.371 133.257 284.371 124.973V117.973C284.371 116.316 283.028 114.973 281.371 114.973C279.714 114.973 278.371 116.316 278.371 117.973V115.973C278.371 114.316 277.028 112.973 275.371 112.973C273.714 112.973 272.371 114.316 272.371 115.973V113.973C272.371 112.316 271.028 110.973 269.371 110.973C267.714 110.973 266.371 112.316 266.371 113.973V101.973C266.371 100.316 265.028 98.9734 263.371 98.9734C261.714 98.9734 260.371 100.316 260.371 101.973V123.973V117.973Z" fill="white" stroke="#7C7C7C" stroke-width="3" stroke-miterlimit="10" stroke-linecap="round" stroke-linejoin="round"/>
<path d="M256.235 94.9734C254.465 96.7774 253.371 99.2464 253.371 101.973C253.371 104.7 254.465 107.169 256.235 108.973" stroke="#5082FF" stroke-width="2" stroke-miterlimit="10" stroke-linecap="round" stroke-linejoin="round"/>
</svg>
