<svg width="516" height="213" viewBox="0 0 516 213" fill="none" xmlns="http://www.w3.org/2000/svg">
<circle cx="228" cy="206.5" r="6" fill="#FAB4F0"/>
<circle cx="248" cy="206.5" r="6" fill="#D9D9D9"/>
<circle cx="268" cy="206.5" r="6" fill="#D9D9D9"/>
<circle cx="288" cy="206.5" r="6" fill="#D9D9D9"/>
<rect x="224.056" y="1.44655" width="14.356" height="166.104" rx="7.17802" fill="white" stroke="#5082FF" stroke-width="2.1069"/>
<rect x="225.109" y="118.88" width="12.2491" height="47.6169" rx="6.12457" fill="#FAB4F0"/>
<path fill-rule="evenodd" clip-rule="evenodd" d="M231.234 166.491C231.327 166.495 231.419 166.497 231.512 166.497C234.895 166.497 237.637 163.755 237.637 160.372V8.62457C237.637 5.24206 234.895 2.5 231.512 2.5C231.419 2.5 231.327 2.50208 231.234 2.5062V166.491Z" fill="black" fill-opacity="0.05"/>
<circle cx="231.374" cy="121.033" r="12.2428" fill="white" stroke="#5082FF" stroke-width="2.84717"/>
<g clip-path="url(#clip0_36_12210)">
<path d="M241.686 119.036L241.519 119.142C239.673 120.309 237.223 119.756 236.057 117.91C234.89 116.064 235.442 113.615 237.288 112.448L237.456 112.342L237.562 112.51C237.792 112.874 237.586 113.245 237.421 113.547C237.26 113.837 237.17 114.025 237.269 114.18C237.367 114.336 237.575 114.333 237.906 114.315C238.247 114.294 238.673 114.269 238.903 114.633C239.134 114.997 238.928 115.369 238.762 115.669C238.601 115.959 238.511 116.147 238.609 116.301C238.706 116.455 238.915 116.454 239.246 116.434C239.587 116.414 240.012 116.387 240.242 116.751C240.472 117.115 240.267 117.487 240.1 117.787C239.939 118.077 239.85 118.265 239.947 118.419C240.045 118.573 240.254 118.572 240.584 118.552C240.925 118.532 241.35 118.505 241.58 118.869L241.686 119.036Z" fill="#F7C6F2"/>
<path d="M225.179 129.233C224.949 128.869 225.155 128.498 225.321 128.198C225.482 127.907 225.571 127.719 225.474 127.565C225.376 127.41 225.168 127.412 224.837 127.432C224.494 127.452 224.07 127.478 223.84 127.114C223.61 126.75 223.817 126.378 223.982 126.078C224.143 125.787 224.232 125.6 224.135 125.446C224.037 125.291 223.828 125.293 223.498 125.313C223.155 125.334 222.731 125.359 222.501 124.995C222.271 124.631 222.476 124.259 222.642 123.958C222.802 123.667 222.892 123.479 222.794 123.324C222.695 123.169 222.486 123.17 222.156 123.189C221.814 123.212 221.391 123.238 221.16 122.874L221.055 122.707L221.222 122.601C223.068 121.434 225.517 121.987 226.684 123.833C227.851 125.679 227.299 128.128 225.452 129.295L225.285 129.401L225.179 129.233Z" fill="#F7C6F2"/>
<path d="M228.2 115.851C225.428 117.603 224.6 121.272 226.353 124.044C228.105 126.817 231.773 127.644 234.546 125.892C237.318 124.14 238.146 120.471 236.393 117.699C234.641 114.926 230.973 114.099 228.2 115.851Z" fill="#F7C6F2"/>
</g>
<rect x="276.365" y="1.44655" width="14.6344" height="166.104" rx="7.31722" fill="white" stroke="#5082FF" stroke-width="2.1069"/>
<rect x="277.418" y="73.1097" width="12.5275" height="93.3871" rx="6.26377" fill="#B7EFFF"/>
<path fill-rule="evenodd" clip-rule="evenodd" d="M283.682 166.49C283.776 166.495 283.871 166.497 283.966 166.497C287.426 166.497 290.23 163.692 290.23 160.233V8.76377C290.23 5.30438 287.426 2.5 283.966 2.5C283.871 2.5 283.776 2.50213 283.682 2.50636V166.49Z" fill="black" fill-opacity="0.05"/>
<circle cx="283.681" cy="80.6034" r="12.2428" fill="white" stroke="#5082FF" stroke-width="2.84717"/>
<path fill-rule="evenodd" clip-rule="evenodd" d="M283.681 71.6404C284.027 71.6404 284.307 71.9209 284.307 72.2668V74.5038L285.814 73.2941C286.084 73.0775 286.478 73.1207 286.695 73.3905C286.911 73.6603 286.868 74.0545 286.598 74.2711L284.307 76.1102V79.5183L287.242 77.824L287.706 74.9068C287.76 74.5652 288.081 74.3322 288.423 74.3866C288.764 74.4409 288.997 74.7619 288.943 75.1035L288.638 77.0176L290.587 75.8927C290.886 75.7197 291.269 75.8224 291.442 76.122C291.615 76.4215 291.513 76.8046 291.213 76.9776L289.276 78.0963L291.077 78.7969C291.4 78.9223 291.56 79.2853 291.434 79.6077C291.309 79.9301 290.946 80.0899 290.623 79.9645L287.884 78.8995L284.933 80.6034L287.868 82.298L290.626 81.2412C290.949 81.1174 291.311 81.2789 291.435 81.602C291.559 81.925 291.397 82.2872 291.074 82.411L289.265 83.1043L291.214 84.2294C291.513 84.4023 291.616 84.7854 291.443 85.085C291.27 85.3846 290.887 85.4873 290.587 85.3143L288.649 84.1953L288.943 86.1063C288.996 86.4482 288.761 86.7681 288.419 86.8207C288.077 86.8734 287.758 86.6389 287.705 86.2969L287.258 83.3921L284.307 81.6885V85.0966L286.598 86.9357C286.868 87.1523 286.911 87.5465 286.695 87.8163C286.478 88.0861 286.084 88.1293 285.814 87.9127L284.307 86.703V88.9401C284.307 89.286 284.027 89.5665 283.681 89.5665C283.335 89.5665 283.054 89.286 283.054 88.9401V86.6897L281.548 87.9108C281.28 88.1286 280.885 88.0874 280.667 87.8187C280.449 87.55 280.491 87.1556 280.759 86.9377L283.054 85.077V81.6881L280.102 83.3926L279.655 86.297C279.602 86.6389 279.282 86.8734 278.94 86.8208C278.599 86.7681 278.364 86.4483 278.417 86.1064L278.711 84.1958L276.774 85.3142C276.474 85.4872 276.091 85.3846 275.918 85.085C275.745 84.7854 275.848 84.4023 276.147 84.2293L278.095 83.1046L276.285 82.4111C275.962 82.2873 275.801 81.9251 275.925 81.602C276.048 81.279 276.411 81.1175 276.734 81.2412L279.492 82.2982L282.428 80.6034L279.477 78.8996L276.738 79.9646C276.415 80.09 276.052 79.9302 275.927 79.6078C275.801 79.2854 275.961 78.9224 276.284 78.797L278.085 78.0964L276.148 76.9777C275.848 76.8047 275.745 76.4216 275.918 76.122C276.091 75.8224 276.474 75.7198 276.774 75.8927L278.723 77.0177L278.418 75.1036C278.364 74.762 278.597 74.441 278.938 74.3866C279.28 74.3323 279.601 74.5652 279.655 74.9069L280.119 77.8241L283.054 79.5186V76.1299L280.759 74.2691C280.491 74.0513 280.449 73.6568 280.667 73.3881C280.885 73.1194 281.28 73.0782 281.548 73.296L283.054 74.5171V72.2668C283.054 71.9209 283.335 71.6404 283.681 71.6404Z" fill="#4294FF"/>
<g clip-path="url(#clip1_36_12210)">
<path d="M293.139 101.323C292.824 99.6961 291.25 98.6326 289.623 98.9474C287.997 99.2622 286.933 100.836 287.248 102.463L289.147 112.281C290.721 120.414 298.591 125.732 306.724 124.158C314.857 122.584 320.175 114.715 318.601 106.582L317.082 98.7275C316.767 97.1007 315.193 96.0372 313.566 96.352C311.939 96.6667 310.876 98.2404 311.191 99.8672L310.811 97.9036C310.496 96.2768 308.922 95.2134 307.296 95.5281C305.669 95.8429 304.605 97.4166 304.92 99.0434L304.54 97.0798C304.225 95.453 302.652 94.3896 301.025 94.7043C299.398 95.0191 298.335 96.5927 298.649 98.2196L295.99 84.4745C295.675 82.8476 294.102 81.7842 292.475 82.099C290.848 82.4137 289.785 83.9874 290.099 85.6142L294.468 108.195L293.139 101.323Z" fill="white" stroke="#7C7C7C" stroke-width="3" stroke-miterlimit="10" stroke-linecap="round" stroke-linejoin="round"/>
<path d="M312.408 91.3791L312.131 77.3818" stroke="#5082FF" stroke-width="2" stroke-miterlimit="10" stroke-linecap="round" stroke-linejoin="round"/>
<path d="M315.348 88.3203L312.409 91.3792L309.35 88.4392" stroke="#5082FF" stroke-width="2" stroke-miterlimit="10" stroke-linecap="round" stroke-linejoin="round"/>
<path d="M315.189 80.3218L312.13 77.3819L309.19 80.4408" stroke="#5082FF" stroke-width="2" stroke-miterlimit="10" stroke-linecap="round" stroke-linejoin="round"/>
</g>
<defs>
<clipPath id="clip0_36_12210">
<rect width="19.4008" height="11.8781" fill="white" transform="translate(220 121.033) rotate(-32.2918)"/>
</clipPath>
<clipPath id="clip1_36_12210">
<rect width="50" height="50" fill="white" transform="translate(273.25 82.7628) rotate(-10.9503)"/>
</clipPath>
</defs>
</svg>
