<svg width="112" height="40" viewBox="0 0 112 40" fill="none" xmlns="http://www.w3.org/2000/svg">
<path d="M15.6238 29.3863C16.1862 26.4307 14.2199 23.5838 11.232 23.0274C8.24406 22.4711 5.36594 24.4161 4.80352 27.3717C4.2411 30.3273 6.20736 33.1743 9.1953 33.7307C12.1832 34.287 15.0614 32.3419 15.6238 29.3863Z" fill="#ED1D2C"/>
<path opacity="0.23" d="M6.02305 31.144C6.39818 31.6886 6.87806 32.1549 7.43535 32.5161C7.99264 32.8773 8.61638 33.1263 9.27098 33.2491C9.92558 33.3718 10.5982 33.3658 11.2505 33.2314C11.9027 33.097 12.5218 32.8369 13.0724 32.4658C13.6231 32.0947 14.0944 31.62 14.4595 31.0688C14.8247 30.5175 15.0765 29.9005 15.2006 29.253C15.3247 28.6055 15.3186 27.9401 15.1827 27.2949C15.0469 26.6497 14.7839 26.0373 14.4088 25.4927C14.1276 25.0775 13.7819 24.7089 13.3845 24.4004L13.5926 24.6853C13.995 25.2748 14.2492 25.9508 14.334 26.6571C14.4189 27.3634 14.3319 28.0795 14.0803 28.7459C13.8286 29.4122 13.4196 30.0094 12.8874 30.4877C12.3553 30.966 11.7153 31.3116 11.0208 31.4957C10.3262 31.6798 9.5972 31.697 8.89454 31.546C8.19187 31.395 7.53587 31.0801 6.98115 30.6276C6.42643 30.175 5.98907 29.5978 5.7055 28.9442C5.42193 28.2906 5.30028 27.5794 5.35084 26.8699C5.1347 27.5869 5.08288 28.3426 5.19915 29.082C5.31542 29.8213 5.59693 30.5258 6.02305 31.144Z" fill="white"/>
<path opacity="0.3" d="M8.27282 25.0358C8.27106 25.1655 8.30895 25.2927 8.38151 25.4007C8.45406 25.5088 8.55793 25.5926 8.67948 25.6413C8.80102 25.69 8.93459 25.7013 9.0627 25.6736C9.19082 25.6459 9.30751 25.5806 9.39748 25.4863C9.48746 25.3919 9.54653 25.2728 9.56696 25.1447C9.58738 25.0166 9.56821 24.8853 9.51196 24.7682C9.45571 24.651 9.36499 24.5533 9.2517 24.488C9.1384 24.4227 9.00781 24.3927 8.87702 24.4021C8.79516 24.4041 8.71451 24.4221 8.63974 24.4551C8.56496 24.4881 8.49754 24.5354 8.44137 24.5943C8.38519 24.6532 8.34139 24.7226 8.31246 24.7984C8.28353 24.8741 8.27004 24.9548 8.27282 25.0358Z" fill="#6E0A0D"/>
<path d="M33.9217 32.1886C34.4841 29.233 32.5178 26.386 29.5299 25.8297C26.5419 25.2734 23.6638 27.2183 23.1014 30.1739C22.539 33.1295 24.5052 35.9766 27.4932 36.5329C30.4811 37.0892 33.3592 35.1442 33.9217 32.1886Z" fill="#ED1D2C"/>
<path opacity="0.23" d="M24.3209 33.9462C24.696 34.4909 25.1759 34.9571 25.7332 35.3183C26.2905 35.6795 26.9142 35.9286 27.5688 36.0513C28.2234 36.1741 28.8961 36.1681 29.5483 36.0337C30.2006 35.8993 30.8197 35.6391 31.3703 35.2681C31.9209 34.897 32.3923 34.4223 32.7574 33.871C33.1225 33.3198 33.3744 32.7027 33.4985 32.0552C33.6226 31.4077 33.6165 30.7424 33.4806 30.0972C33.3447 29.452 33.0817 28.8396 32.7066 28.2949C32.4254 27.8798 32.0797 27.5112 31.6824 27.2026L31.8904 27.4876C32.2929 28.077 32.5471 28.7531 32.6319 29.4594C32.7167 30.1657 32.6297 30.8818 32.3781 31.5481C32.1265 32.2144 31.7175 32.8116 31.1853 33.2899C30.6531 33.7682 30.0132 34.1138 29.3186 34.2979C28.6241 34.482 27.8951 34.4993 27.1924 34.3483C26.4897 34.1973 25.8337 33.8824 25.279 33.4298C24.7243 32.9772 24.2869 32.4001 24.0034 31.7465C23.7198 31.0928 23.5981 30.3816 23.6487 29.6721C23.4326 30.3892 23.3807 31.1449 23.497 31.8842C23.6133 32.6236 23.8948 33.328 24.3209 33.9462Z" fill="white"/>
<path opacity="0.3" d="M26.5707 27.838C26.5689 27.9677 26.6068 28.0949 26.6794 28.203C26.7519 28.311 26.8558 28.3949 26.9773 28.4436C27.0989 28.4923 27.2324 28.5035 27.3606 28.4758C27.4887 28.4482 27.6054 28.3829 27.6953 28.2885C27.7853 28.1941 27.8444 28.0751 27.8648 27.947C27.8852 27.8188 27.8661 27.6876 27.8098 27.5704C27.7536 27.4532 27.6628 27.3556 27.5495 27.2903C27.4363 27.2249 27.3057 27.195 27.1749 27.2043C27.093 27.2063 27.0124 27.2243 26.9376 27.2573C26.8628 27.2903 26.7954 27.3377 26.7392 27.3966C26.683 27.4555 26.6392 27.5248 26.6103 27.6006C26.5814 27.6764 26.5679 27.7571 26.5707 27.838Z" fill="#6E0A0D"/>
<path d="M38.8748 20.3934C39.4372 17.4378 37.4709 14.5908 34.483 14.0345C31.495 13.4782 28.6169 15.4231 28.0545 18.3787C27.4921 21.3343 29.4583 24.1814 32.4463 24.7377C35.4342 25.2941 38.3124 23.349 38.8748 20.3934Z" fill="#ED1D2C"/>
<path opacity="0.23" d="M29.274 22.1511C29.6492 22.6957 30.129 23.162 30.6863 23.5232C31.2436 23.8843 31.8674 24.1334 32.522 24.2562C33.1766 24.3789 33.8492 24.3729 34.5015 24.2385C35.1537 24.1041 35.7728 23.844 36.3234 23.4729C36.874 23.1018 37.3454 22.6271 37.7105 22.0758C38.0757 21.5246 38.3275 20.9076 38.4516 20.2601C38.5757 19.6125 38.5696 18.9472 38.4337 18.302C38.2979 17.6568 38.0349 17.0444 37.6597 16.4997C37.3785 16.0846 37.0329 15.716 36.6355 15.4075L36.8435 15.6924C37.246 16.2818 37.5002 16.9579 37.585 17.6642C37.6698 18.3705 37.5829 19.0866 37.3312 19.7529C37.0796 20.4192 36.6706 21.0164 36.1384 21.4948C35.6062 21.9731 34.9663 22.3187 34.2717 22.5028C33.5772 22.6869 32.8482 22.7041 32.1455 22.5531C31.4428 22.4021 30.7868 22.0872 30.2321 21.6346C29.6774 21.1821 29.24 20.6049 28.9565 19.9513C28.6729 19.2977 28.5513 18.5865 28.6018 17.877C28.3857 18.594 28.3339 19.3497 28.4501 20.0891C28.5664 20.8284 28.8479 21.5328 29.274 22.1511Z" fill="white"/>
<path opacity="0.3" d="M31.5238 16.0429C31.522 16.1726 31.5599 16.2998 31.6325 16.4078C31.705 16.5159 31.8089 16.5997 31.9305 16.6484C32.052 16.6971 32.1856 16.7083 32.3137 16.6807C32.4418 16.653 32.5585 16.5877 32.6485 16.4933C32.7384 16.399 32.7975 16.2799 32.8179 16.1518C32.8384 16.0237 32.8192 15.8924 32.7629 15.7752C32.7067 15.6581 32.616 15.5604 32.5027 15.4951C32.3894 15.4298 32.2588 15.3998 32.128 15.4091C32.0461 15.4111 31.9655 15.4292 31.8907 15.4622C31.8159 15.4952 31.7485 15.5425 31.6923 15.6014C31.6362 15.6603 31.5924 15.7297 31.5634 15.8054C31.5345 15.8812 31.521 15.9619 31.5238 16.0429Z" fill="#6E0A0D"/>
<path d="M44.8001 14.2949C46.3407 12.7909 46.3529 10.3149 44.8275 8.76462C43.302 7.21435 40.8165 7.17683 39.2759 8.68084C37.7353 10.1848 37.723 12.6609 39.2484 14.2111C40.7739 15.7614 43.2595 15.7989 44.8001 14.2949Z" fill="#ED1D2C"/>
<path opacity="0.23" d="M38.4463 11.3939C38.4434 11.8672 38.534 12.3373 38.7131 12.7775C38.8922 13.2177 39.1562 13.6194 39.49 13.9595C39.8239 14.2996 40.2211 14.5716 40.6589 14.7599C41.0966 14.9482 41.5665 15.0491 42.0416 15.0569C42.5167 15.0647 42.9877 14.9792 43.4277 14.8052C43.8678 14.6313 44.2683 14.3724 44.6063 14.0433C44.9443 13.7141 45.2133 13.3212 45.3978 12.8869C45.5823 12.4527 45.6789 11.9856 45.6818 11.5124C45.6868 11.1536 45.635 10.7957 45.5282 10.4519L45.5335 10.7043C45.5283 11.215 45.4005 11.7158 45.161 12.1651C44.9215 12.6143 44.5772 12.9989 44.1566 13.2868C43.736 13.5747 43.2514 13.7576 42.7432 13.8203C42.235 13.8831 41.7179 13.8237 41.235 13.6473C40.752 13.4708 40.3171 13.1824 39.9667 12.806C39.6162 12.4296 39.3602 11.9761 39.2201 11.4833C39.0799 10.9905 39.0597 10.4727 39.161 9.97303C39.2623 9.47333 39.4822 9.00617 39.8025 8.61053C39.382 8.94277 39.042 9.365 38.8074 9.84648C38.5728 10.328 38.4495 10.8566 38.4463 11.3939Z" fill="white"/>
<path opacity="0.3" d="M42.2683 8.73108C42.2141 8.80647 42.1843 8.89664 42.1826 8.98976C42.1809 9.08289 42.2075 9.17464 42.2589 9.25299C42.3103 9.33135 42.384 9.39265 42.4706 9.42889C42.5571 9.46513 42.6523 9.47461 42.7437 9.45608C42.8352 9.43756 42.9186 9.39189 42.9831 9.32507C43.0475 9.25825 43.09 9.17338 43.105 9.08158C43.12 8.98978 43.1068 8.89533 43.0671 8.81059C43.0273 8.72586 42.963 8.65479 42.8824 8.60669C42.8335 8.57433 42.7788 8.55187 42.7214 8.54061C42.664 8.52935 42.6051 8.52951 42.548 8.54108C42.4909 8.55264 42.4368 8.57539 42.3888 8.60801C42.3408 8.64062 42.2998 8.68245 42.2683 8.73108Z" fill="#6E0A0D"/>
<path d="M70.2547 33.9727C70.8171 31.0171 68.8508 28.1702 65.8629 27.6139C62.8749 27.0575 59.9968 29.0025 59.4344 31.9581C58.872 34.9137 60.8382 37.7607 63.8262 38.3171C66.8141 38.8734 69.6923 36.9283 70.2547 33.9727Z" fill="#ED1D2C"/>
<path opacity="0.23" d="M60.6539 35.7304C61.029 36.2751 61.5089 36.7413 62.0662 37.1025C62.6235 37.4637 63.2472 37.7128 63.9018 37.8355C64.5564 37.9582 65.2291 37.9522 65.8813 37.8178C66.5336 37.6834 67.1527 37.4233 67.7033 37.0522C68.2539 36.6812 68.7253 36.2064 69.0904 35.6552C69.4556 35.1039 69.7074 34.4869 69.8315 33.8394C69.9556 33.1919 69.9495 32.5266 69.8136 31.8814C69.6777 31.2362 69.4147 30.6237 69.0396 30.0791C68.7584 29.664 68.4128 29.2953 68.0154 28.9868L68.2234 29.2717C68.6259 29.8612 68.8801 30.5372 68.9649 31.2435C69.0497 31.9499 68.9628 32.666 68.7111 33.3323C68.4595 33.9986 68.0505 34.5958 67.5183 35.0741C66.9861 35.5524 66.3462 35.898 65.6516 36.0821C64.9571 36.2662 64.2281 36.2835 63.5254 36.1325C62.8227 35.9815 62.1667 35.6666 61.612 35.214C61.0573 34.7614 60.6199 34.1843 60.3364 33.5306C60.0528 32.877 59.9311 32.1658 59.9817 31.4563C59.7656 32.1734 59.7137 32.9291 59.83 33.6684C59.9463 34.4078 60.2278 35.1122 60.6539 35.7304Z" fill="white"/>
<path opacity="0.3" d="M62.9037 29.6222C62.9019 29.7519 62.9398 29.8791 63.0124 29.9872C63.0849 30.0952 63.1888 30.1791 63.3103 30.2278C63.4319 30.2764 63.5654 30.2877 63.6936 30.26C63.8217 30.2324 63.9384 30.1671 64.0283 30.0727C64.1183 29.9783 64.1774 29.8593 64.1978 29.7311C64.2182 29.603 64.1991 29.4718 64.1428 29.3546C64.0866 29.2374 63.9958 29.1398 63.8826 29.0744C63.7693 29.0091 63.6387 28.9792 63.5079 28.9885C63.426 28.9905 63.3454 29.0085 63.2706 29.0415C63.1958 29.0745 63.1284 29.1218 63.0722 29.1808C63.016 29.2397 62.9722 29.309 62.9433 29.3848C62.9144 29.4606 62.9009 29.5413 62.9037 29.6222Z" fill="#6E0A0D"/>
<path d="M61.7023 20.8901C62.3657 17.4039 60.0464 14.0459 56.522 13.3897C52.9977 12.7335 49.6029 15.0276 48.9395 18.5138C48.2761 22 50.5953 25.3582 54.1197 26.0144C57.6441 26.6706 61.0389 24.3763 61.7023 20.8901Z" fill="#ED1D2C"/>
<path opacity="0.23" d="M50.3781 22.9633C50.8206 23.6058 51.3866 24.1557 52.044 24.5818C52.7013 25.0078 53.437 25.3016 54.2091 25.4464C54.9813 25.5911 55.7747 25.5841 56.544 25.4255C57.3134 25.267 58.0436 24.9602 58.6931 24.5225C59.3425 24.0848 59.8985 23.5248 60.3292 22.8746C60.7599 22.2244 61.0569 21.4966 61.2033 20.7329C61.3497 19.9691 61.3425 19.1843 61.1822 18.4233C61.022 17.6623 60.7118 16.9399 60.2693 16.2975C59.9376 15.8078 59.5299 15.373 59.0612 15.0091L59.3066 15.3452C59.7813 16.0404 60.0811 16.8379 60.1811 17.671C60.2812 18.5041 60.1786 19.3488 59.8818 20.1347C59.585 20.9206 59.1026 21.625 58.4749 22.1892C57.8471 22.7534 57.0923 23.161 56.273 23.3782C55.4538 23.5953 54.5939 23.6157 53.7651 23.4376C52.9363 23.2595 52.1625 22.888 51.5082 22.3542C50.8539 21.8204 50.338 21.1396 50.0036 20.3687C49.6691 19.5977 49.5256 18.7588 49.5852 17.9219C49.3303 18.7677 49.2691 19.6591 49.4063 20.5312C49.5434 21.4033 49.8755 22.2341 50.3781 22.9633Z" fill="white"/>
<path opacity="0.3" d="M53.0317 15.7585C53.0296 15.9115 53.0743 16.0616 53.1599 16.189C53.2455 16.3165 53.368 16.4154 53.5113 16.4728C53.6547 16.5302 53.8122 16.5435 53.9634 16.5109C54.1145 16.4782 54.2521 16.4012 54.3582 16.2899C54.4644 16.1786 54.5341 16.0382 54.5581 15.887C54.5822 15.7359 54.5596 15.5811 54.4933 15.4429C54.4269 15.3047 54.3199 15.1895 54.1863 15.1125C54.0527 15.0354 53.8986 15.0001 53.7443 15.0111C53.6478 15.0134 53.5527 15.0347 53.4645 15.0736C53.3763 15.1125 53.2967 15.1683 53.2305 15.2378C53.1642 15.3073 53.1126 15.3891 53.0784 15.4785C53.0443 15.5679 53.0284 15.6631 53.0317 15.7585Z" fill="#6E0A0D"/>
<path d="M83.2258 35.711C85.9899 33.4052 86.3334 29.28 83.9931 26.4971C81.6528 23.7141 77.5149 23.3273 74.7509 25.633C71.9869 27.9388 71.6433 32.0641 73.9836 34.847C76.3239 37.63 80.4618 38.0168 83.2258 35.711Z" fill="#ED1D2C"/>
<path opacity="0.23" d="M73.0141 30.0468C72.9474 30.8352 73.0371 31.6306 73.2782 32.3877C73.5192 33.1448 73.9068 33.8487 74.4189 34.4591C74.931 35.0696 75.5574 35.5748 76.2626 35.9457C76.9677 36.3167 77.7376 36.5462 78.5285 36.6212C79.3193 36.6961 80.1155 36.6151 80.8717 36.3826C81.6278 36.1501 82.3291 35.7708 82.9355 35.2664C83.5419 34.7619 84.0414 34.1421 84.4056 33.4423C84.7698 32.7426 84.9917 31.9767 85.0583 31.1883C85.1135 30.591 85.0738 29.9877 84.9406 29.4007L84.9166 29.8221C84.8412 30.6727 84.563 31.4908 84.1051 32.2082C83.6473 32.9257 83.0232 33.5218 82.2846 33.9468C81.5461 34.3719 80.7145 34.6135 79.8593 34.6517C79.0041 34.6899 78.15 34.5236 77.368 34.1664C76.586 33.8093 75.8989 33.2718 75.3638 32.5987C74.8288 31.9256 74.4613 31.1364 74.2921 30.2967C74.1228 29.4571 74.1566 28.5914 74.3906 27.7718C74.6247 26.9521 75.0522 26.2022 75.6376 25.5845C74.8934 26.0834 74.2717 26.7428 73.8179 27.5147C73.364 28.2866 73.0895 29.1516 73.0141 30.0468Z" fill="white"/>
<path opacity="0.3" d="M79.7318 26.1071C79.6317 26.2257 79.5701 26.3721 79.5552 26.5271C79.5402 26.6821 79.5726 26.8385 79.648 26.9758C79.7234 27.1131 79.8384 27.2249 79.9779 27.2966C80.1173 27.3682 80.2748 27.3965 80.4296 27.3775C80.5845 27.3586 80.7295 27.2934 80.8456 27.1904C80.9618 27.0874 81.0437 26.9515 81.0807 26.8005C81.1177 26.6494 81.1079 26.4903 81.0527 26.3438C80.9976 26.1974 80.8996 26.0706 80.7716 25.9799C80.6944 25.9196 80.6061 25.875 80.5119 25.8488C80.4177 25.8225 80.3195 25.8151 80.2228 25.8269C80.1261 25.8387 80.033 25.8696 79.9487 25.9177C79.8644 25.9658 79.7907 26.0301 79.7318 26.1071Z" fill="#6E0A0D"/>
<path d="M110.375 20.8181C112.021 18.3918 111.364 15.0842 108.907 13.4303C106.449 11.7763 103.122 12.4024 101.475 14.8286C99.8283 17.2548 100.485 20.5625 102.943 22.2165C105.4 23.8704 108.728 23.2443 110.375 20.8181Z" fill="#ED1D2C"/>
<path opacity="0.23" d="M101.106 18.6749C101.231 19.3073 101.48 19.9101 101.839 20.4488C102.197 20.9876 102.659 21.4518 103.197 21.8149C103.735 22.178 104.339 22.4329 104.975 22.5651C105.61 22.6973 106.264 22.7042 106.901 22.5853C107.537 22.4665 108.142 22.2242 108.682 21.8724C109.222 21.5206 109.686 21.0661 110.048 20.5349C110.409 20.0037 110.661 19.4062 110.789 18.7765C110.918 18.1467 110.919 17.4971 110.795 16.8648C110.704 16.3846 110.537 15.9211 110.301 15.4913L110.377 15.8267C110.509 16.5097 110.474 17.2128 110.277 17.8775C110.08 18.5421 109.725 19.1491 109.242 19.6477C108.759 20.1464 108.162 20.5223 107.501 20.7442C106.839 20.9662 106.133 21.0276 105.441 20.9235C104.748 20.8194 104.089 20.5528 103.519 20.1458C102.949 19.7388 102.484 19.2032 102.163 18.5837C101.842 17.9642 101.674 17.2787 101.673 16.5842C101.673 15.8898 101.839 15.2066 102.159 14.5914C101.688 15.1492 101.349 15.8052 101.167 16.5115C100.985 17.2179 100.964 17.957 101.106 18.6749Z" fill="white"/>
<path opacity="0.3" d="M105.482 14.0816C105.43 14.1969 105.415 14.3254 105.438 14.4501C105.461 14.5748 105.522 14.69 105.611 14.7806C105.701 14.8712 105.816 14.933 105.942 14.9578C106.067 14.9826 106.197 14.9694 106.314 14.9198C106.431 14.8702 106.53 14.7866 106.597 14.6798C106.665 14.5731 106.699 14.4483 106.694 14.3217C106.689 14.1951 106.646 14.0727 106.57 13.9704C106.494 13.8681 106.388 13.7908 106.268 13.7485C106.194 13.7186 106.115 13.7035 106.035 13.7041C105.955 13.7047 105.877 13.7209 105.804 13.7519C105.731 13.7829 105.665 13.828 105.609 13.8845C105.554 13.9411 105.511 14.0081 105.482 14.0816Z" fill="#6E0A0D"/>
<path d="M90.9975 23.8421C92.4208 21.7454 91.8528 18.8869 89.729 17.4575C87.6052 16.0282 84.7298 16.5692 83.3065 18.666C81.8833 20.7628 82.4512 23.6213 84.575 25.0507C86.6988 26.48 89.5743 25.9389 90.9975 23.8421Z" fill="#ED1D2C"/>
<path opacity="0.23" d="M82.987 21.99C83.0948 22.5365 83.3099 23.0574 83.6199 23.523C83.9299 23.9886 84.3288 24.3898 84.7938 24.7036C85.2588 25.0174 85.7808 25.2377 86.33 25.352C86.8792 25.4662 87.4448 25.4721 87.9945 25.3694C88.5443 25.2667 89.0674 25.0574 89.5341 24.7533C90.0007 24.4493 90.4018 24.0565 90.7142 23.5975C91.0267 23.1384 91.2445 22.622 91.3553 22.0778C91.466 21.5336 91.4675 20.9722 91.3597 20.4257C91.2811 20.0107 91.1372 19.6101 90.9332 19.2387L90.9987 19.5286C91.1127 20.1188 91.0831 20.7265 90.9125 21.3009C90.7418 21.8753 90.4351 22.3998 90.0177 22.8307C89.6004 23.2617 89.0845 23.5866 88.5131 23.7783C87.9417 23.9701 87.3314 24.0233 86.7329 23.9333C86.1344 23.8433 85.5651 23.6129 85.0724 23.2612C84.5796 22.9094 84.1778 22.4466 83.9004 21.9112C83.6229 21.3758 83.4778 20.7834 83.4772 20.1832C83.4766 19.5831 83.6204 18.9926 83.8967 18.461C83.4898 18.9431 83.197 19.51 83.0397 20.1204C82.8823 20.7309 82.8643 21.3696 82.987 21.99Z" fill="white"/>
<path opacity="0.3" d="M86.7692 18.0204C86.7245 18.1201 86.7112 18.2311 86.7312 18.3389C86.7511 18.4467 86.8034 18.5463 86.8811 18.6246C86.9588 18.7028 87.0583 18.7562 87.1665 18.7777C87.2748 18.7991 87.3869 18.7877 87.488 18.7448C87.5891 18.7019 87.6746 18.6297 87.7332 18.5375C87.7919 18.4452 87.821 18.3374 87.8167 18.228C87.8124 18.1186 87.7749 18.0127 87.7092 17.9243C87.6434 17.836 87.5525 17.7691 87.4482 17.7326C87.3843 17.7068 87.3159 17.6937 87.2471 17.6942C87.1782 17.6947 87.1103 17.7088 87.0472 17.7355C86.984 17.7623 86.927 17.8012 86.8793 17.8501C86.8316 17.899 86.7942 17.9569 86.7692 18.0204Z" fill="#6E0A0D"/>
<path d="M71.0565 15.0826C70.0258 18.0329 71.6098 21.2591 74.5943 22.2884C77.5788 23.3178 80.8337 21.7605 81.8643 18.8102C82.8949 15.8598 81.3111 12.6336 78.3265 11.6042C75.342 10.5749 72.0871 12.1323 71.0565 15.0826Z" fill="#ED1D2C"/>
<path opacity="0.23" d="M81.19 14.7476C80.8881 14.1305 80.4665 13.578 79.9493 13.1216C79.4321 12.6651 78.8294 12.3136 78.1757 12.0873C77.522 11.8609 76.83 11.764 76.1393 11.8021C75.4486 11.8403 74.7727 12.0127 74.1502 12.3095C73.5276 12.6064 72.9706 13.0219 72.511 13.5323C72.0514 14.0427 71.6982 14.638 71.4715 15.2843C71.2448 15.9305 71.1491 16.615 71.1899 17.2987C71.2306 17.9823 71.407 18.6518 71.7089 19.2688C71.9342 19.7384 72.2329 20.1701 72.5938 20.5479L72.4238 20.2233C72.1006 19.5561 71.943 18.8226 71.9641 18.084C71.9852 17.3453 72.1842 16.6229 72.5448 15.9769C72.9054 15.3309 73.4171 14.78 74.0372 14.3702C74.6572 13.9603 75.3676 13.7033 76.1094 13.6206C76.8512 13.5378 77.6028 13.6318 78.3015 13.8946C79.0003 14.1574 79.626 14.5814 80.1266 15.1314C80.6271 15.6813 80.988 16.3413 81.1792 17.0562C81.3704 17.7712 81.3864 18.5205 81.2258 19.2417C81.5577 18.5381 81.7267 17.7697 81.7206 16.9923C81.7144 16.2148 81.5331 15.448 81.19 14.7476Z" fill="white"/>
<path opacity="0.3" d="M77.9427 20.6783C77.9644 20.5454 77.9449 20.4089 77.8869 20.2867C77.8289 20.1646 77.7351 20.0625 77.6177 19.9939C77.5003 19.9253 77.3648 19.8932 77.2289 19.902C77.093 19.9108 76.9631 19.96 76.8562 20.0432C76.7494 20.1264 76.6704 20.2396 76.6298 20.3681C76.5892 20.4967 76.5888 20.6344 76.6286 20.7634C76.6685 20.8924 76.7467 21.0067 76.8531 21.0911C76.9595 21.1756 77.089 21.2264 77.2249 21.2368C77.3093 21.2473 77.3949 21.2412 77.4768 21.2187C77.5586 21.1963 77.6351 21.158 77.7019 21.1061C77.7686 21.0541 77.8243 20.9896 77.8656 20.9162C77.9069 20.8428 77.9331 20.7619 77.9427 20.6783Z" fill="#6E0A0D"/>
<path d="M13.0592 12.1733C15.4508 9.41757 15.1251 5.23408 12.3318 2.82916C9.53845 0.424237 5.33528 0.708573 2.94369 3.46427C0.552106 6.21997 0.877713 10.4036 3.67103 12.8085C6.46436 15.2134 10.6676 14.929 13.0592 12.1733Z" fill="#ED1D2C"/>
<path opacity="0.23" d="M1.92219 8.16251C1.98341 8.96222 2.20226 9.74359 2.5663 10.462C2.93034 11.1805 3.4324 11.8219 4.04384 12.3496C4.65528 12.8774 5.36414 13.2812 6.12989 13.538C6.89564 13.7947 7.70328 13.8995 8.50677 13.8461C9.31026 13.7928 10.0938 13.5825 10.8127 13.2272C11.5316 12.8719 12.1718 12.3786 12.6967 11.7754C13.2215 11.1722 13.6208 10.4709 13.8717 9.71168C14.1226 8.95243 14.2203 8.15006 14.1591 7.35034C14.1174 6.7437 13.9797 6.14649 13.7512 5.58077L13.7956 6.00633C13.8582 6.86964 13.7125 7.73338 13.3708 8.52558C13.0291 9.31777 12.5013 10.0155 11.8313 10.5607C11.1613 11.1058 10.3684 11.4825 9.51884 11.6595C8.66928 11.8365 7.78768 11.8086 6.94728 11.5782C6.10688 11.3478 5.33208 10.9214 4.68749 10.3347C4.04289 9.74798 3.54714 9.0179 3.24151 8.20523C2.93588 7.39256 2.82923 6.52084 2.93044 5.66271C3.03165 4.80457 3.33771 3.9848 3.82329 3.27178C3.15952 3.89175 2.64446 4.65242 2.31558 5.49844C1.98671 6.34445 1.85238 7.25457 1.92219 8.16251Z" fill="white"/>
<path opacity="0.3" d="M8.0046 3.13033C7.92368 3.26524 7.88585 3.4217 7.89604 3.57921C7.90623 3.73673 7.96399 3.88797 8.06173 4.01312C8.15948 4.13827 8.29265 4.23148 8.44383 4.28059C8.59502 4.32969 8.75716 4.33238 8.90902 4.2883C9.06088 4.24422 9.1954 4.15543 9.29493 4.03355C9.39446 3.91167 9.45438 3.76238 9.46685 3.60524C9.47932 3.4481 9.44374 3.29043 9.36479 3.15287C9.28584 3.01531 9.1672 2.90429 9.02439 2.83432C8.93736 2.78651 8.84182 2.75623 8.74331 2.74524C8.6448 2.73425 8.54526 2.74276 8.45044 2.77029C8.35562 2.79781 8.26742 2.8438 8.1909 2.9056C8.11438 2.9674 8.05104 3.04377 8.0046 3.13033Z" fill="#6E0A0D"/>
<path d="M68.5892 14.536C70.3599 12.4957 70.1187 9.39825 68.0506 7.61766C65.9824 5.83708 62.8705 6.0476 61.0998 8.08789C59.329 10.1282 59.5701 13.2257 61.6383 15.0063C63.7064 16.7868 66.8185 16.5762 68.5892 14.536Z" fill="#ED1D2C"/>
<path opacity="0.23" d="M60.3436 11.5664C60.3889 12.1585 60.5509 12.737 60.8205 13.2689C61.09 13.8009 61.4617 14.2757 61.9144 14.6665C62.3671 15.0573 62.892 15.3562 63.4589 15.5463C64.0259 15.7365 64.6238 15.814 65.2187 15.7745C65.8136 15.735 66.3938 15.5793 66.926 15.3162C67.4583 15.0532 67.9323 14.6879 68.3209 14.2413C68.7095 13.7947 69.0051 13.2755 69.1909 12.7134C69.3767 12.1513 69.449 11.5572 69.4037 10.9651C69.3728 10.5159 69.2709 10.0738 69.1017 9.65491L69.1346 9.96998C69.1809 10.6092 69.073 11.2487 68.82 11.8352C68.567 12.4217 68.1763 12.9384 67.6802 13.342C67.1841 13.7456 66.5971 14.0245 65.9681 14.1555C65.3391 14.2866 64.6863 14.266 64.0641 14.0953C63.4419 13.9247 62.8682 13.6091 62.391 13.1747C61.9137 12.7403 61.5467 12.1997 61.3204 11.598C61.0941 10.9963 61.0151 10.3509 61.0901 9.71557C61.165 9.08021 61.3916 8.47327 61.7511 7.94535C61.2597 8.40437 60.8783 8.96757 60.6348 9.59395C60.3913 10.2203 60.2919 10.8942 60.3436 11.5664Z" fill="white"/>
<path opacity="0.3" d="M64.8463 7.84064C64.7864 7.94052 64.7584 8.05637 64.7659 8.17299C64.7734 8.28961 64.8162 8.40159 64.8886 8.49425C64.961 8.58691 65.0595 8.65593 65.1715 8.69228C65.2834 8.72864 65.4035 8.73063 65.5159 8.69799C65.6283 8.66536 65.7279 8.59962 65.8016 8.50938C65.8753 8.41914 65.9197 8.30861 65.9289 8.19226C65.9381 8.07592 65.9118 7.95918 65.8534 7.85733C65.7949 7.75549 65.7071 7.67328 65.6013 7.62148C65.5369 7.58608 65.4661 7.56366 65.3932 7.55553C65.3203 7.54739 65.2466 7.55369 65.1764 7.57407C65.1062 7.59445 65.0409 7.6285 64.9842 7.67426C64.9276 7.72001 64.8807 7.77656 64.8463 7.84064Z" fill="#6E0A0D"/>
<path d="M54.9565 35.7687C58.5304 31.6507 58.0437 25.3991 53.8694 21.8053C49.6952 18.2115 43.4142 18.6364 39.8403 22.7544C36.2664 26.8724 36.753 33.1241 40.9272 36.7179C45.1014 40.3117 51.3826 39.8867 54.9565 35.7687Z" fill="#ED1D2C"/>
<path opacity="0.23" d="M38.3139 29.7752C38.4053 30.9703 38.7324 32.1379 39.2764 33.2115C39.8204 34.2851 40.5707 35.2436 41.4844 36.0323C42.3981 36.8209 43.4573 37.4244 44.6017 37.8081C45.746 38.1918 46.9529 38.3483 48.1536 38.2686C49.3543 38.1889 50.5252 37.8746 51.5995 37.3436C52.6738 36.8127 53.6304 36.0755 54.4148 35.1741C55.1991 34.2727 55.7957 33.2248 56.1707 32.0902C56.5457 30.9556 56.6916 29.7566 56.6001 28.5615C56.5378 27.655 56.3321 26.7626 55.9907 25.9172L56.057 26.5531C56.1505 27.8432 55.9328 29.1339 55.4222 30.3178C54.9116 31.5016 54.1229 32.5443 53.1216 33.3589C52.1204 34.1735 50.9355 34.7365 49.6659 35.001C48.3964 35.2655 47.079 35.2238 45.8231 34.8795C44.5673 34.5351 43.4094 33.898 42.4462 33.0212C41.4829 32.1445 40.7421 31.0535 40.2854 29.8391C39.8287 28.6246 39.6693 27.322 39.8205 26.0396C39.9718 24.7573 40.4292 23.5322 41.1548 22.4667C40.1629 23.3932 39.3932 24.5299 38.9017 25.7941C38.4103 27.0584 38.2095 28.4184 38.3139 29.7752Z" fill="white"/>
<path opacity="0.3" d="M47.4031 22.2553C47.2822 22.4569 47.2257 22.6907 47.2409 22.9261C47.2561 23.1615 47.3424 23.3875 47.4885 23.5745C47.6346 23.7615 47.8336 23.9008 48.0595 23.9742C48.2854 24.0476 48.5277 24.0516 48.7547 23.9858C48.9816 23.9199 49.1826 23.7872 49.3313 23.6051C49.4801 23.4229 49.5696 23.1998 49.5882 22.965C49.6069 22.7302 49.5537 22.4946 49.4357 22.289C49.3178 22.0835 49.1405 21.9175 48.9271 21.813C48.797 21.7415 48.6542 21.6963 48.507 21.6799C48.3598 21.6634 48.2111 21.6762 48.0694 21.7173C47.9277 21.7584 47.7959 21.8272 47.6815 21.9195C47.5672 22.0119 47.4725 22.126 47.4031 22.2553Z" fill="#6E0A0D"/>
<path d="M102.478 11.949C103.141 8.46276 100.822 5.10471 97.2974 4.4485C93.7731 3.7923 90.3782 6.08643 89.7149 9.57264C89.0515 13.0589 91.3707 16.417 94.8951 17.0732C98.4194 17.7294 101.814 15.4352 102.478 11.949Z" fill="#ED1D2C"/>
<path opacity="0.23" d="M91.1535 14.0222C91.596 14.6646 92.162 15.2146 92.8193 15.6406C93.4767 16.0666 94.2124 16.3604 94.9845 16.5052C95.7566 16.65 96.5501 16.6429 97.3194 16.4844C98.0888 16.3258 98.819 16.019 99.4685 15.5813C100.118 15.1436 100.674 14.5837 101.105 13.9335C101.535 13.2832 101.832 12.5555 101.979 11.7917C102.125 11.0279 102.118 10.2431 101.958 9.48212C101.797 8.72109 101.487 7.99874 101.045 7.3563C100.713 6.86665 100.305 6.43184 99.8366 6.06793L100.082 6.40401C100.557 7.09928 100.856 7.8967 100.957 8.72981C101.057 9.56292 100.954 10.4076 100.657 11.1935C100.36 11.9794 99.878 12.6839 99.2502 13.2481C98.6225 13.8122 97.8677 14.2199 97.0484 14.437C96.2292 14.6542 95.3693 14.6745 94.5405 14.4964C93.7117 14.3183 92.9379 13.9469 92.2836 13.413C91.6293 12.8792 91.1134 12.1985 90.7789 11.4275C90.4445 10.6565 90.301 9.81765 90.3606 8.98076C90.1057 9.82654 90.0445 10.7179 90.1817 11.59C90.3188 12.4621 90.6509 13.293 91.1535 14.0222Z" fill="white"/>
<path opacity="0.3" d="M93.8071 6.81738C93.805 6.97037 93.8497 7.12041 93.9353 7.24786C94.0208 7.37531 94.1434 7.47423 94.2867 7.53166C94.4301 7.58909 94.5876 7.60235 94.7388 7.56971C94.8899 7.53708 95.0275 7.46006 95.1336 7.34875C95.2398 7.23744 95.3094 7.09702 95.3335 6.94588C95.3576 6.79475 95.335 6.63994 95.2687 6.50173C95.2023 6.36351 95.0953 6.24834 94.9617 6.17129C94.828 6.09424 94.674 6.0589 94.5197 6.0699C94.4232 6.07225 94.3281 6.09351 94.2399 6.13244C94.1517 6.17136 94.0721 6.22718 94.0059 6.29668C93.9396 6.36619 93.8879 6.44798 93.8538 6.53735C93.8197 6.62672 93.8038 6.7219 93.8071 6.81738Z" fill="#6E0A0D"/>
<path d="M104.567 29.1096C105.355 24.9706 102.601 20.9837 98.4168 20.2046C94.2325 19.4255 90.202 22.1493 89.4144 26.2883C88.6268 30.4273 91.3803 34.4143 95.5646 35.1934C99.7489 35.9724 103.779 33.2486 104.567 29.1096Z" fill="#ED1D2C"/>
<path opacity="0.23" d="M91.1223 31.571C91.6476 32.3338 92.3196 32.9867 93.1 33.4925C93.8805 33.9983 94.754 34.3471 95.6707 34.519C96.5874 34.6909 97.5293 34.6825 98.4428 34.4942C99.3562 34.306 100.223 33.9417 100.994 33.4221C101.765 32.9024 102.425 32.2377 102.937 31.4657C103.448 30.6937 103.801 29.8296 103.974 28.9229C104.148 28.0161 104.14 27.0843 103.949 26.1808C103.759 25.2773 103.391 24.4197 102.866 23.6569C102.472 23.0756 101.988 22.5594 101.431 22.1273L101.723 22.5263C102.286 23.3518 102.642 24.2985 102.761 25.2876C102.88 26.2767 102.758 27.2796 102.406 28.2127C102.053 29.1458 101.48 29.9821 100.735 30.6519C99.9899 31.3218 99.0937 31.8057 98.121 32.0635C97.1484 32.3213 96.1275 32.3455 95.1435 32.1341C94.1595 31.9226 93.2408 31.4816 92.464 30.8478C91.6872 30.214 91.0747 29.4058 90.6776 28.4905C90.2805 27.5751 90.1101 26.5792 90.1809 25.5856C89.8782 26.5897 89.8057 27.648 89.9685 28.6834C90.1313 29.7188 90.5255 30.7053 91.1223 31.571Z" fill="white"/>
<path opacity="0.3" d="M94.273 23.0171C94.2705 23.1987 94.3236 23.3769 94.4252 23.5282C94.5268 23.6795 94.6722 23.7969 94.8424 23.8651C95.0127 23.9333 95.1997 23.9491 95.3791 23.9103C95.5585 23.8716 95.7219 23.7801 95.8479 23.648C95.9739 23.5158 96.0567 23.3491 96.0853 23.1697C96.1139 22.9902 96.087 22.8064 96.0083 22.6423C95.9295 22.4782 95.8024 22.3415 95.6438 22.25C95.4851 22.1585 95.3022 22.1166 95.1191 22.1297C95.0045 22.1324 94.8915 22.1577 94.7868 22.2039C94.6821 22.2501 94.5877 22.3164 94.509 22.3989C94.4303 22.4814 94.369 22.5785 94.3285 22.6846C94.288 22.7907 94.2691 22.9037 94.273 23.0171Z" fill="#6E0A0D"/>
<path d="M25.0692 27.4352C28.3235 23.6854 27.8803 17.9928 24.0794 14.7203C20.2784 11.4478 14.559 11.8348 11.3047 15.5845C8.05034 19.3343 8.4934 25.0271 12.2944 28.2995C16.0954 31.572 21.8149 31.185 25.0692 27.4352Z" fill="#ED1D2C"/>
<path opacity="0.23" d="M9.91512 21.9776C9.99842 23.0658 10.2962 24.1291 10.7916 25.1067C11.2869 26.0842 11.9701 26.957 12.8021 27.6752C13.6341 28.3933 14.5987 28.9428 15.6407 29.2922C16.6827 29.6416 17.7817 29.7841 18.875 29.7115C19.9683 29.639 21.0346 29.3528 22.0128 28.8693C22.991 28.3858 23.8622 27.7145 24.5764 26.8938C25.2906 26.073 25.8338 25.1188 26.1753 24.0856C26.5167 23.0525 26.6496 21.9607 26.5663 20.8725C26.5096 20.047 26.3223 19.2343 26.0113 18.4646L26.0717 19.0436C26.1568 20.2184 25.9586 21.3937 25.4937 22.4717C25.0287 23.5496 24.3106 24.4991 23.3988 25.2409C22.4871 25.9826 21.4082 26.4953 20.2521 26.7361C19.0961 26.977 17.8965 26.9391 16.7529 26.6255C15.6094 26.3119 14.5551 25.7317 13.678 24.9334C12.8008 24.135 12.1262 23.1416 11.7104 22.0357C11.2945 20.9299 11.1494 19.7437 11.2871 18.576C11.4248 17.4083 11.8413 16.2929 12.502 15.3226C11.5988 16.1662 10.8979 17.2013 10.4504 18.3525C10.0029 19.5037 9.82012 20.7422 9.91512 21.9776Z" fill="white"/>
<path opacity="0.3" d="M18.1921 15.1302C18.082 15.3138 18.0306 15.5267 18.0444 15.741C18.0583 15.9554 18.1369 16.1612 18.2699 16.3315C18.4029 16.5018 18.5841 16.6286 18.7898 16.6954C18.9955 16.7622 19.2162 16.7659 19.4228 16.7059C19.6295 16.6459 19.8125 16.5251 19.9479 16.3593C20.0834 16.1934 20.1649 15.9903 20.1819 15.7765C20.1988 15.5626 20.1504 15.3481 20.043 15.1609C19.9356 14.9737 19.7741 14.8226 19.5798 14.7274C19.4614 14.6624 19.3314 14.6212 19.1973 14.6062C19.0633 14.5913 18.9278 14.6028 18.7988 14.6403C18.6698 14.6778 18.5498 14.7403 18.4456 14.8244C18.3415 14.9085 18.2553 15.0124 18.1921 15.1302Z" fill="#6E0A0D"/>
</svg>
