<svg width="112" height="42" viewBox="0 0 112 42" fill="none" xmlns="http://www.w3.org/2000/svg">
<path d="M100.439 14.4707C101.22 10.6707 98.4898 7.01039 94.3407 6.29512C90.1917 5.57985 86.1951 8.08048 85.4141 11.8805C84.6331 15.6805 87.3635 19.3409 91.5126 20.0562C95.6616 20.7715 99.6583 18.2707 100.439 14.4707Z" fill="#753B92"/>
<path opacity="0.06" d="M86.526 17.0764C87.0913 17.8363 87.8144 18.4868 88.6542 18.9908C89.494 19.4947 90.4339 19.8422 91.4203 20.0135C92.4067 20.1847 93.4203 20.1763 94.4032 19.9888C95.386 19.8013 96.3189 19.4384 97.1487 18.9206C97.9784 18.4029 98.6886 17.7406 99.2389 16.9715C99.7891 16.2023 100.169 15.3415 100.356 14.4381C100.543 13.5346 100.533 12.6063 100.329 11.7062C100.124 10.806 99.7276 9.95153 99.1623 9.19162C98.7386 8.61244 98.2177 8.09812 97.6189 7.66766L97.9324 8.0652C98.5388 8.8876 98.9219 9.83083 99.0497 10.8163C99.1775 11.8017 99.0465 12.8009 98.6673 13.7305C98.2882 14.6601 97.6718 15.4934 96.8699 16.1607C96.0679 16.8281 95.1036 17.3102 94.057 17.5671C93.0104 17.824 91.9119 17.848 90.853 17.6374C89.7942 17.4267 88.8057 16.9873 87.9698 16.3559C87.1339 15.7244 86.4748 14.9192 86.0475 14.0073C85.6202 13.0953 85.4369 12.103 85.5131 11.1131C85.1874 12.1136 85.1093 13.1679 85.2845 14.1995C85.4597 15.231 85.8839 16.2138 86.526 17.0764Z" fill="black"/>
<path opacity="0.3" d="M96.9672 13.2141C96.9652 13.3508 97.0083 13.4848 97.0909 13.5986C97.1735 13.7125 97.2917 13.8008 97.43 13.8521C97.5683 13.9034 97.7203 13.9153 97.8661 13.8861C98.0119 13.857 98.1447 13.7882 98.2471 13.6888C98.3495 13.5893 98.4167 13.4639 98.4399 13.3289C98.4632 13.1939 98.4414 13.0556 98.3773 12.9321C98.3133 12.8087 98.2101 12.7058 98.0812 12.6369C97.9522 12.5681 97.8036 12.5365 97.6548 12.5464C97.5616 12.5485 97.4698 12.5675 97.3848 12.6022C97.2997 12.637 97.2229 12.6869 97.159 12.749C97.0951 12.811 97.0452 12.8841 97.0123 12.9639C96.9794 13.0438 96.964 13.1288 96.9672 13.2141Z" fill="white"/>
<path opacity="0.3" d="M95.0496 10.2296C95.046 10.4746 95.1233 10.715 95.2714 10.9192C95.4194 11.1233 95.6314 11.2818 95.8794 11.3738C96.1275 11.4658 96.4 11.487 96.6615 11.4347C96.9229 11.3824 97.161 11.2591 97.3447 11.0808C97.5283 10.9025 97.6488 10.6775 97.6905 10.4354C97.7322 10.1933 97.6931 9.94533 97.5783 9.72394C97.4635 9.50254 97.2783 9.31804 97.0471 9.19462C96.8159 9.07119 96.5495 9.01458 96.2825 9.0322C96.1155 9.03597 95.9509 9.07003 95.7983 9.13238C95.6457 9.19473 95.5082 9.28415 95.3935 9.39549C95.2789 9.50682 95.1895 9.63784 95.1305 9.781C95.0714 9.92417 95.0439 10.0766 95.0496 10.2296Z" fill="white"/>
<path d="M67.4392 35.4707C68.2202 31.6707 65.4898 28.0104 61.3407 27.2951C57.1917 26.5798 53.1951 29.0805 52.4141 32.8805C51.6331 36.6805 54.3635 40.3409 58.5126 41.0562C62.6616 41.7715 66.6583 39.2707 67.4392 35.4707Z" fill="#753B92"/>
<path opacity="0.06" d="M53.526 38.0765C54.0913 38.8364 54.8144 39.4869 55.6542 39.9908C56.494 40.4948 57.4339 40.8423 58.4203 41.0135C59.4067 41.1848 60.4203 41.1764 61.4032 40.9889C62.386 40.8014 63.3189 40.4384 64.1487 39.9207C64.9784 39.403 65.6886 38.7406 66.2389 37.9715C66.7891 37.2024 67.1686 36.3415 67.3556 35.4381C67.5425 34.5347 67.5334 33.6064 67.3286 32.7062C67.1239 31.806 66.7276 30.9516 66.1623 30.1917C65.7386 29.6125 65.2177 29.0982 64.6189 28.6677L64.9324 29.0653C65.5388 29.8877 65.9219 30.8309 66.0497 31.8163C66.1775 32.8018 66.0465 33.8009 65.6673 34.7306C65.2882 35.6602 64.6718 36.4934 63.8699 37.1608C63.0679 37.8281 62.1036 38.3103 61.057 38.5672C60.0104 38.824 58.9119 38.8481 57.853 38.6374C56.7942 38.4267 55.8057 37.9874 54.9698 37.3559C54.1339 36.7245 53.4748 35.9193 53.0475 35.0073C52.6202 34.0954 52.4369 33.1031 52.5131 32.1132C52.1874 33.1136 52.1093 34.168 52.2845 35.1996C52.4597 36.2311 52.8839 37.2139 53.526 38.0765Z" fill="black"/>
<path opacity="0.3" d="M63.9672 34.2142C63.9652 34.3508 64.0083 34.4848 64.0909 34.5987C64.1735 34.7125 64.2917 34.8009 64.43 34.8522C64.5683 34.9035 64.7203 34.9154 64.8661 34.8862C65.0119 34.8571 65.1447 34.7883 65.2471 34.6888C65.3495 34.5894 65.4167 34.464 65.4399 34.3289C65.4632 34.1939 65.4414 34.0556 65.3773 33.9322C65.3133 33.8087 65.2101 33.7058 65.0812 33.637C64.9522 33.5682 64.8036 33.5366 64.6548 33.5464C64.5616 33.5485 64.4698 33.5675 64.3848 33.6023C64.2997 33.6371 64.2229 33.6869 64.159 33.749C64.0951 33.8111 64.0452 33.8842 64.0123 33.964C63.9794 34.0438 63.964 34.1289 63.9672 34.2142Z" fill="white"/>
<path opacity="0.3" d="M62.0496 31.2296C62.046 31.4747 62.1233 31.7151 62.2714 31.9192C62.4194 32.1234 62.6314 32.2818 62.8794 32.3738C63.1275 32.4658 63.4 32.4871 63.6615 32.4348C63.9229 32.3825 64.161 32.2591 64.3447 32.0808C64.5283 31.9025 64.6488 31.6776 64.6905 31.4355C64.7322 31.1934 64.6931 30.9454 64.5783 30.724C64.4635 30.5026 64.2783 30.3181 64.0471 30.1947C63.8159 30.0713 63.5495 30.0146 63.2825 30.0323C63.1155 30.036 62.9509 30.0701 62.7983 30.1324C62.6457 30.1948 62.5082 30.2842 62.3935 30.3955C62.2789 30.5069 62.1895 30.6379 62.1305 30.7811C62.0714 30.9242 62.0439 31.0767 62.0496 31.2296Z" fill="white"/>
<path d="M40.382 32.3734C41.023 29.2546 38.782 26.2504 35.3767 25.6634C31.9714 25.0763 28.6912 27.1287 28.0503 30.2475C27.4093 33.3663 29.6502 36.3706 33.0555 36.9577C36.4608 37.5447 39.741 35.4922 40.382 32.3734Z" fill="#753B92"/>
<path opacity="0.06" d="M28.9619 34.512C29.4259 35.1357 30.0194 35.6696 30.7086 36.0832C31.3978 36.4968 32.1693 36.782 32.9789 36.9226C33.7884 37.0631 34.6203 37.0562 35.427 36.9023C36.2337 36.7484 36.9994 36.4505 37.6804 36.0256C38.3614 35.6007 38.9443 35.0571 39.3959 34.4259C39.8475 33.7946 40.159 33.0881 40.3124 32.3466C40.4659 31.6051 40.4583 30.8432 40.2903 30.1044C40.1223 29.3656 39.797 28.6643 39.3331 28.0406C38.9853 27.5653 38.5578 27.1431 38.0663 26.7899L38.3236 27.1161C38.8214 27.7911 39.1357 28.5653 39.2407 29.3741C39.3456 30.1829 39.238 31.0029 38.9268 31.7659C38.6156 32.5289 38.1098 33.2127 37.4516 33.7605C36.7934 34.3082 36.0019 34.7039 35.1429 34.9147C34.2839 35.1255 33.3823 35.1453 32.5133 34.9724C31.6442 34.7995 30.8329 34.4389 30.1469 33.9206C29.4608 33.4024 28.9199 32.7415 28.5692 31.993C28.2185 31.2445 28.068 30.4302 28.1306 29.6177C27.8633 30.4388 27.7992 31.3042 27.943 32.1508C28.0868 32.9974 28.4349 33.8041 28.9619 34.512Z" fill="black"/>
<path opacity="0.3" d="M37.5326 31.342C37.5309 31.4542 37.5663 31.5642 37.6341 31.6576C37.7018 31.7511 37.7989 31.8236 37.9124 31.8657C38.0259 31.9078 38.1507 31.9175 38.2703 31.8936C38.39 31.8697 38.499 31.8132 38.583 31.7316C38.667 31.65 38.7222 31.547 38.7413 31.4362C38.7604 31.3254 38.7425 31.2119 38.6899 31.1106C38.6374 31.0092 38.5526 30.9248 38.4468 30.8683C38.341 30.8118 38.219 30.7859 38.0969 30.794C38.0204 30.7957 37.9451 30.8113 37.8753 30.8398C37.8054 30.8684 37.7425 30.9093 37.69 30.9603C37.6375 31.0112 37.5966 31.0712 37.5696 31.1367C37.5426 31.2022 37.53 31.272 37.5326 31.342Z" fill="white"/>
<path opacity="0.3" d="M35.9586 28.8925C35.9557 29.0937 36.0191 29.2909 36.1406 29.4585C36.2622 29.6261 36.4361 29.7561 36.6397 29.8316C36.8433 29.9071 37.067 29.9246 37.2816 29.8817C37.4962 29.8387 37.6916 29.7375 37.8423 29.5912C37.993 29.4448 38.0919 29.2602 38.1261 29.0615C38.1603 28.8628 38.1282 28.6593 38.034 28.4775C37.9398 28.2958 37.7879 28.1444 37.5981 28.0431C37.4084 27.9418 37.1896 27.8953 36.9706 27.9098C36.8335 27.9129 36.6984 27.9409 36.5732 27.992C36.4479 28.0432 36.335 28.1166 36.2409 28.208C36.1468 28.2993 36.0735 28.4069 36.025 28.5244C35.9765 28.6419 35.954 28.767 35.9586 28.8925Z" fill="white"/>
<path d="M110.725 21.3188C109.459 17.6659 105.206 15.6766 101.225 16.8755C97.245 18.0744 95.0448 22.0074 96.3109 25.6602C97.5771 29.3131 101.83 31.3025 105.811 30.1036C109.791 28.9048 111.991 24.9716 110.725 21.3188Z" fill="#753B92"/>
<path opacity="0.06" d="M99.939 29.698C100.821 30.1117 101.784 30.3608 102.773 30.431C103.763 30.5012 104.76 30.3911 105.706 30.1072C106.653 29.8232 107.532 29.3708 108.292 28.7759C109.052 28.181 109.679 27.4552 110.136 26.6399C110.594 25.8247 110.873 24.9359 110.958 24.0244C111.044 23.1128 110.933 22.1963 110.634 21.3273C110.334 20.4583 109.85 19.6538 109.211 18.9596C108.571 18.2654 107.788 17.6952 106.907 17.2815C106.241 16.9631 105.524 16.7438 104.782 16.6318L105.259 16.8404C106.208 17.2905 107.025 17.9439 107.641 18.7461C108.257 19.5483 108.655 20.4761 108.801 21.4524C108.947 22.4286 108.836 23.425 108.48 24.3584C108.123 25.2918 107.53 26.1352 106.75 26.8185C105.97 27.5018 105.025 28.0052 103.995 28.2866C102.965 28.5681 101.879 28.6194 100.828 28.4365C99.776 28.2535 98.7895 27.8415 97.9502 27.2348C97.1109 26.6281 96.443 25.8443 96.0023 24.9486C96.231 25.9631 96.703 26.9157 97.384 27.7373C98.065 28.5589 98.9379 29.2287 99.939 29.698Z" fill="black"/>
<path opacity="0.3" d="M107.057 21.749C107.125 21.8689 107.232 21.9667 107.362 22.0296C107.492 22.0925 107.64 22.1176 107.787 22.1015C107.934 22.0855 108.072 22.029 108.184 21.9396C108.296 21.8502 108.377 21.732 108.415 21.6004C108.453 21.4689 108.448 21.3301 108.399 21.2023C108.35 21.0745 108.26 20.9636 108.141 20.8842C108.022 20.8047 107.879 20.7605 107.732 20.7571C107.584 20.7538 107.439 20.7915 107.314 20.8654C107.234 20.9082 107.164 20.965 107.107 21.0327C107.051 21.1003 107.01 21.1775 106.986 21.2596C106.962 21.3417 106.956 21.4273 106.968 21.5113C106.981 21.5953 107.011 21.6761 107.057 21.749Z" fill="white"/>
<path opacity="0.3" d="M103.858 19.9912C103.98 20.2062 104.171 20.3816 104.404 20.4944C104.638 20.6072 104.903 20.6522 105.167 20.6234C105.43 20.5946 105.678 20.4934 105.879 20.3331C106.08 20.1727 106.224 19.9607 106.293 19.7248C106.361 19.4889 106.351 19.24 106.264 19.0108C106.176 18.7816 106.015 18.5828 105.801 18.4404C105.588 18.2979 105.332 18.2185 105.068 18.2125C104.803 18.2066 104.542 18.2743 104.318 18.4068C104.175 18.4834 104.049 18.5854 103.948 18.7067C103.847 18.828 103.773 18.9663 103.73 19.1136C103.687 19.2609 103.677 19.4143 103.698 19.5649C103.72 19.7155 103.774 19.8604 103.858 19.9912Z" fill="white"/>
<path d="M43.4924 17.773C44.1333 14.6542 41.8924 11.65 38.4871 11.063C35.0818 10.4759 31.8016 12.5283 31.1606 15.6471C30.5196 18.7659 32.7606 21.7702 36.1659 22.3573C39.5712 22.9443 42.8514 20.8918 43.4924 17.773Z" fill="#753B92"/>
<path opacity="0.06" d="M32.0723 19.9117C32.5362 20.5353 33.1297 21.0692 33.819 21.4828C34.5082 21.8965 35.2796 22.1817 36.0892 22.3222C36.8988 22.4628 37.7307 22.4559 38.5374 22.302C39.3441 22.1481 40.1097 21.8502 40.7907 21.4253C41.4717 21.0004 42.0546 20.4568 42.5062 19.8255C42.9578 19.1943 43.2693 18.4877 43.4228 17.7463C43.5762 17.0048 43.5687 16.2429 43.4007 15.5041C43.2326 14.7652 42.9074 14.064 42.4434 13.4403C42.0957 12.9649 41.6681 12.5428 41.1767 12.1895L41.434 12.5158C41.9317 13.1908 42.2461 13.9649 42.351 14.7737C42.4559 15.5825 42.3484 16.4025 42.0372 17.1655C41.726 17.9285 41.2201 18.6124 40.5619 19.1601C39.9037 19.7078 39.1123 20.1036 38.2533 20.3144C37.3943 20.5252 36.4927 20.545 35.6236 20.3721C34.7546 20.1991 33.9433 19.8385 33.2572 19.3203C32.5712 18.802 32.0303 18.1412 31.6795 17.3927C31.3288 16.6442 31.1784 15.8298 31.2409 15.0173C30.9736 15.8384 30.9095 16.7038 31.0533 17.5505C31.1971 18.3971 31.5453 19.2037 32.0723 19.9117Z" fill="black"/>
<path opacity="0.3" d="M40.6429 16.7417C40.6413 16.8538 40.6767 16.9638 40.7444 17.0573C40.8122 17.1507 40.9092 17.2232 41.0227 17.2653C41.1363 17.3075 41.261 17.3172 41.3807 17.2932C41.5003 17.2693 41.6093 17.2129 41.6934 17.1312C41.7774 17.0496 41.8326 16.9467 41.8516 16.8359C41.8707 16.7251 41.8528 16.6116 41.8003 16.5102C41.7477 16.4089 41.663 16.3245 41.5572 16.268C41.4514 16.2115 41.3294 16.1856 41.2072 16.1936C41.1308 16.1954 41.0555 16.211 40.9856 16.2395C40.9158 16.268 40.8528 16.309 40.8003 16.3599C40.7479 16.4109 40.707 16.4708 40.6799 16.5364C40.6529 16.6019 40.6403 16.6717 40.6429 16.7417Z" fill="white"/>
<path opacity="0.3" d="M39.069 14.2921C39.066 14.4933 39.1295 14.6905 39.251 14.8581C39.3725 15.0257 39.5465 15.1557 39.7501 15.2312C39.9536 15.3067 40.1773 15.3242 40.3919 15.2813C40.6065 15.2383 40.8019 15.1371 40.9526 14.9907C41.1033 14.8444 41.2023 14.6598 41.2365 14.4611C41.2707 14.2624 41.2386 14.0589 41.1444 13.8771C41.0502 13.6954 40.8982 13.544 40.7085 13.4427C40.5187 13.3414 40.3 13.2949 40.0809 13.3094C39.9438 13.3125 39.8087 13.3405 39.6835 13.3916C39.5583 13.4428 39.4453 13.5162 39.3513 13.6076C39.2572 13.6989 39.1838 13.8065 39.1354 13.924C39.0869 14.0415 39.0643 14.1666 39.069 14.2921Z" fill="white"/>
<path d="M25.2697 31.2031C25.9107 28.0842 23.6697 25.0801 20.2644 24.493C16.8591 23.906 13.5789 25.9583 12.938 29.0772C12.297 32.196 14.5379 35.2003 17.9432 35.7873C21.3485 36.3744 24.6287 34.3219 25.2697 31.2031Z" fill="#753B92"/>
<path opacity="0.06" d="M13.8496 33.3417C14.3136 33.9654 14.9071 34.4993 15.5963 34.9129C16.2855 35.3265 17.057 35.6117 17.8665 35.7523C18.6761 35.8928 19.508 35.8859 20.3147 35.732C21.1214 35.5781 21.8871 35.2803 22.5681 34.8553C23.249 34.4304 23.832 33.8868 24.2836 33.2556C24.7352 32.6243 25.0466 31.9178 25.2001 31.1763C25.3536 30.4348 25.346 29.6729 25.178 28.9341C25.01 28.1953 24.6847 27.494 24.2208 26.8703C23.873 26.395 23.4455 25.9729 22.954 25.6196L23.2113 25.9458C23.7091 26.6208 24.0234 27.395 24.1284 28.2038C24.2333 29.0126 24.1257 29.8326 23.8145 30.5956C23.5033 31.3586 22.9975 32.0424 22.3393 32.5902C21.6811 33.1379 20.8896 33.5336 20.0306 33.7444C19.1716 33.9553 18.27 33.975 17.401 33.8021C16.5319 33.6292 15.7206 33.2686 15.0346 32.7503C14.3485 32.2321 13.8076 31.5712 13.4569 30.8227C13.1062 30.0743 12.9557 29.2599 13.0183 28.4474C12.7509 29.2685 12.6869 30.1339 12.8307 30.9805C12.9745 31.8272 13.3226 32.6338 13.8496 33.3417Z" fill="black"/>
<path opacity="0.3" d="M22.4203 30.1717C22.4186 30.2839 22.454 30.3939 22.5218 30.4873C22.5895 30.5808 22.6865 30.6533 22.8001 30.6954C22.9136 30.7375 23.0383 30.7472 23.158 30.7233C23.2777 30.6994 23.3867 30.6429 23.4707 30.5613C23.5547 30.4797 23.6099 30.3767 23.629 30.2659C23.6481 30.1551 23.6302 30.0416 23.5776 29.9403C23.5251 29.839 23.4403 29.7545 23.3345 29.698C23.2287 29.6415 23.1067 29.6156 22.9846 29.6237C22.9081 29.6254 22.8328 29.641 22.763 29.6695C22.6931 29.6981 22.6302 29.739 22.5777 29.79C22.5252 29.8409 22.4843 29.9009 22.4573 29.9664C22.4303 30.0319 22.4177 30.1017 22.4203 30.1717Z" fill="white"/>
<path opacity="0.3" d="M20.8463 27.7222C20.8434 27.9233 20.9068 28.1206 21.0283 28.2882C21.1499 28.4557 21.3238 28.5858 21.5274 28.6613C21.731 28.7368 21.9547 28.7542 22.1693 28.7113C22.3838 28.6684 22.5793 28.5671 22.73 28.4208C22.8807 28.2745 22.9796 28.0898 23.0138 27.8911C23.048 27.6924 23.0159 27.4889 22.9217 27.3072C22.8275 27.1255 22.6756 26.9741 22.4858 26.8728C22.296 26.7715 22.0773 26.725 21.8583 26.7395C21.7212 26.7426 21.5861 26.7705 21.4608 26.8217C21.3356 26.8729 21.2227 26.9462 21.1286 27.0376C21.0345 27.129 20.9611 27.2365 20.9127 27.354C20.8642 27.4715 20.8416 27.5967 20.8463 27.7222Z" fill="white"/>
<path d="M111.289 7.07986C111.873 4.23914 109.832 1.50285 106.73 0.96814C103.629 0.433434 100.641 2.3028 100.057 5.14352C99.4733 7.98424 101.514 10.7206 104.616 11.2553C107.718 11.79 110.705 9.92058 111.289 7.07986Z" fill="#753B92"/>
<path opacity="0.06" d="M100.889 9.02789C101.311 9.59596 101.852 10.0823 102.48 10.459C103.108 10.8357 103.81 11.0955 104.548 11.2235C105.285 11.3515 106.043 11.3453 106.777 11.2051C107.512 11.0649 108.21 10.7936 108.83 10.4065C109.45 10.0195 109.981 9.5244 110.392 8.94944C110.804 8.37448 111.087 7.73093 111.227 7.05557C111.367 6.38022 111.36 5.68626 111.207 5.01332C111.054 4.34038 110.758 3.70164 110.335 3.13357C110.018 2.70059 109.629 2.31611 109.181 1.99432L109.416 2.2915C109.869 2.9063 110.155 3.61141 110.251 4.34809C110.347 5.08477 110.249 5.83168 109.965 6.52664C109.682 7.22159 109.221 7.84447 108.621 8.34336C108.022 8.84224 107.301 9.20269 106.519 9.3947C105.736 9.58672 104.915 9.60473 104.123 9.44723C103.332 9.28973 102.593 8.96129 101.968 8.48925C101.343 8.01722 100.851 7.41526 100.531 6.73353C100.212 6.05179 100.075 5.31002 100.132 4.56999C99.8881 5.31788 99.8297 6.10608 99.9607 6.87723C100.092 7.64838 100.409 8.38308 100.889 9.02789Z" fill="black"/>
<path opacity="0.3" d="M108.694 6.14055C108.692 6.24271 108.724 6.34291 108.786 6.42802C108.848 6.51313 108.936 6.57918 109.04 6.61753C109.143 6.65588 109.257 6.66474 109.366 6.64294C109.475 6.62115 109.574 6.56972 109.65 6.49539C109.727 6.42106 109.777 6.32729 109.795 6.22636C109.812 6.12543 109.796 6.02205 109.748 5.92976C109.7 5.83746 109.623 5.76055 109.526 5.7091C109.43 5.65764 109.319 5.63404 109.208 5.64139C109.138 5.64296 109.069 5.65716 109.006 5.68315C108.942 5.70914 108.885 5.74642 108.837 5.79283C108.789 5.83924 108.752 5.89387 108.727 5.95355C108.703 6.01323 108.691 6.07679 108.694 6.14055Z" fill="white"/>
<path opacity="0.3" d="M107.26 3.90942C107.258 4.09263 107.315 4.2723 107.426 4.42492C107.537 4.57754 107.695 4.69599 107.881 4.76476C108.066 4.83353 108.27 4.84942 108.465 4.81033C108.661 4.77125 108.839 4.67903 108.976 4.54573C109.113 4.41244 109.203 4.24429 109.235 4.0633C109.266 3.88232 109.236 3.69694 109.151 3.53143C109.065 3.36592 108.926 3.228 108.754 3.13573C108.581 3.04346 108.382 3.00114 108.182 3.01432C108.057 3.01714 107.934 3.04259 107.82 3.0892C107.706 3.13582 107.603 3.20267 107.517 3.28589C107.432 3.36912 107.365 3.46707 107.321 3.57409C107.277 3.68111 107.256 3.79509 107.26 3.90942Z" fill="white"/>
<path d="M14.2893 22.0799C14.8731 19.2391 12.832 16.5028 9.73029 15.9681C6.62862 15.4334 3.64095 17.3028 3.05712 20.1435C2.4733 22.9842 4.5144 25.7206 7.61607 26.2553C10.7177 26.79 13.7054 24.9206 14.2893 22.0799Z" fill="#753B92"/>
<path opacity="0.06" d="M3.88881 24.0279C4.31139 24.596 4.85197 25.0823 5.47974 25.459C6.10752 25.8357 6.81015 26.0955 7.54755 26.2235C8.28495 26.3515 9.04267 26.3453 9.77743 26.2051C10.5122 26.0649 11.2096 25.7936 11.8298 25.4065C12.4501 25.0195 12.981 24.5244 13.3924 23.9494C13.8037 23.3745 14.0874 22.7309 14.2272 22.0556C14.367 21.3802 14.3601 20.6863 14.207 20.0133C14.054 19.3404 13.7577 18.7016 13.3352 18.1336C13.0184 17.7006 12.629 17.3161 12.1814 16.9943L12.4157 17.2915C12.8691 17.9063 13.1554 18.6114 13.251 19.3481C13.3465 20.0848 13.2486 20.8317 12.9651 21.5266C12.6817 22.2216 12.2209 22.8445 11.6214 23.3434C11.0219 23.8422 10.301 24.2027 9.51864 24.3947C8.73624 24.5867 7.91503 24.6047 7.12349 24.4472C6.33195 24.2897 5.59298 23.9613 4.9681 23.4893C4.34322 23.0172 3.85054 22.4153 3.5311 21.7335C3.21166 21.0518 3.07463 20.31 3.13158 19.57C2.8881 20.3179 2.82973 21.1061 2.9607 21.8772C3.09168 22.6484 3.40879 23.3831 3.88881 24.0279Z" fill="black"/>
<path opacity="0.3" d="M11.6937 21.1405C11.6922 21.2427 11.7244 21.3429 11.7861 21.428C11.8479 21.5131 11.9362 21.5792 12.0396 21.6175C12.143 21.6559 12.2566 21.6647 12.3656 21.6429C12.4746 21.6211 12.5739 21.5697 12.6504 21.4954C12.727 21.4211 12.7772 21.3273 12.7946 21.2264C12.812 21.1254 12.7957 21.0221 12.7478 20.9298C12.7 20.8375 12.6228 20.7605 12.5264 20.7091C12.43 20.6576 12.3189 20.634 12.2077 20.6414C12.138 20.643 12.0694 20.6572 12.0058 20.6831C11.9422 20.7091 11.8848 20.7464 11.8371 20.7928C11.7893 20.8392 11.752 20.8939 11.7274 20.9535C11.7028 21.0132 11.6913 21.0768 11.6937 21.1405Z" fill="white"/>
<path opacity="0.3" d="M10.2603 18.9094C10.2576 19.0926 10.3154 19.2723 10.4261 19.4249C10.5368 19.5775 10.6953 19.696 10.8807 19.7648C11.0661 19.8335 11.2699 19.8494 11.4653 19.8103C11.6608 19.7713 11.8388 19.679 11.976 19.5457C12.1133 19.4124 12.2034 19.2443 12.2346 19.0633C12.2657 18.8823 12.2365 18.6969 12.1507 18.5314C12.0648 18.3659 11.9265 18.228 11.7536 18.1357C11.5808 18.0435 11.3816 18.0011 11.182 18.0143C11.0572 18.0171 10.9341 18.0426 10.8201 18.0892C10.706 18.1358 10.6031 18.2027 10.5174 18.2859C10.4317 18.3691 10.3649 18.4671 10.3208 18.5741C10.2767 18.6811 10.2561 18.7951 10.2603 18.9094Z" fill="white"/>
<path d="M21.4455 22.3045C25.5401 23.0728 29.5256 20.5885 30.3475 16.7557C31.1694 12.9229 28.5164 9.19295 24.4218 8.42466C20.3272 7.65636 16.3416 10.1406 15.5197 13.9734C14.6978 17.8062 17.351 21.5362 21.4455 22.3045Z" fill="#753B92"/>
<path opacity="0.06" d="M18.7967 9.39215C17.9692 9.90645 17.2581 10.5682 16.7039 11.3397C16.1496 12.1112 15.7632 12.9772 15.5665 13.8884C15.3698 14.7996 15.3668 15.7381 15.5576 16.6503C15.7484 17.5625 16.1292 18.4306 16.6785 19.2049C17.2277 19.9792 17.9345 20.6447 18.7586 21.1633C19.5827 21.6818 20.5079 22.0434 21.4813 22.2273C22.4547 22.4112 23.4574 22.4137 24.432 22.2349C25.4066 22.0561 26.3341 21.6994 27.1615 21.1851C27.792 20.7997 28.3537 20.3235 28.8257 19.7743L28.3926 20.0598C27.4972 20.6114 26.474 20.9549 25.4082 21.0615C24.3425 21.1681 23.265 21.0348 22.2655 20.6727C21.2661 20.3106 20.3736 19.7301 19.6624 18.9797C18.9512 18.2293 18.442 17.3307 18.1771 16.3587C17.9121 15.3866 17.8992 14.3693 18.1393 13.3915C18.3795 12.4137 18.8657 11.5038 19.5576 10.7374C20.2495 9.97102 21.127 9.37044 22.1169 8.98568C23.1069 8.60093 24.1807 8.44303 25.2489 8.52535C24.1723 8.2119 23.0345 8.12705 21.9184 8.27697C20.8023 8.4269 19.7358 8.80793 18.7967 9.39215Z" fill="black"/>
<path opacity="0.3" d="M22.8444 19.1048C22.6968 19.1013 22.5515 19.1396 22.4276 19.2147C22.3037 19.2898 22.2068 19.3982 22.1498 19.5256C22.0927 19.6531 22.0781 19.7936 22.1079 19.929C22.1376 20.0643 22.2103 20.1881 22.3165 20.2841C22.4227 20.38 22.5573 20.4438 22.7029 20.4669C22.8484 20.49 22.998 20.4715 23.1321 20.4137C23.2662 20.3559 23.3785 20.2615 23.4544 20.143C23.5303 20.0244 23.5661 19.8872 23.5573 19.7493C23.5561 19.663 23.5367 19.5778 23.5002 19.4986C23.4636 19.4194 23.4107 19.3478 23.3444 19.2879C23.2781 19.228 23.1998 19.1809 23.114 19.1495C23.0282 19.1181 22.9365 19.1029 22.8444 19.1048Z" fill="white"/>
<path opacity="0.3" d="M26.0892 17.3653C25.8246 17.3591 25.5641 17.4278 25.3418 17.5625C25.1196 17.6971 24.946 17.8915 24.8437 18.12C24.7413 18.3486 24.7152 18.6007 24.7685 18.8433C24.8219 19.086 24.9522 19.308 25.1426 19.4801C25.333 19.6522 25.5745 19.7665 25.8355 19.8079C26.0964 19.8494 26.3647 19.8161 26.6052 19.7125C26.8456 19.6089 27.0471 19.4397 27.1831 19.2271C27.3192 19.0145 27.3835 18.7685 27.3676 18.5211C27.3656 18.3664 27.3308 18.2137 27.2652 18.0716C27.1997 17.9296 27.1048 17.8012 26.9859 17.6937C26.867 17.5863 26.7266 17.5019 26.5727 17.4456C26.4188 17.3892 26.2545 17.3619 26.0892 17.3653Z" fill="white"/>
<path d="M90.0828 31.1458C91.0843 26.2725 87.5827 21.5782 82.2617 20.6609C76.9406 19.7436 71.8151 22.9506 70.8135 27.824C69.812 32.6974 73.3136 37.3918 78.6346 38.3091C83.9557 39.2264 89.0812 36.0192 90.0828 31.1458Z" fill="#4A1A87"/>
<path opacity="0.06" d="M72.2403 34.4877C72.9653 35.4622 73.8927 36.2965 74.9696 36.9428C76.0466 37.589 77.252 38.0347 78.5171 38.2543C79.7821 38.4739 81.082 38.4632 82.3425 38.2227C83.603 37.9823 84.7994 37.5168 85.8635 36.8528C86.9276 36.1888 87.8385 35.3394 88.5441 34.3531C89.2498 33.3667 89.7365 32.2627 89.9763 31.1041C90.2161 29.9455 90.2043 28.755 89.9417 27.6005C89.6792 26.446 89.1709 25.3502 88.446 24.3757C87.9026 23.6329 87.2345 22.9733 86.4666 22.4213L86.8687 22.9311C87.6464 23.9858 88.1376 25.1955 88.3016 26.4593C88.4655 27.7231 88.2974 29.0044 87.8112 30.1967C87.3249 31.3889 86.5345 32.4575 85.506 33.3133C84.4775 34.1692 83.2408 34.7875 81.8986 35.117C80.5563 35.4464 79.1475 35.4773 77.7896 35.2071C76.4316 34.9369 75.1639 34.3734 74.0919 33.5636C73.0199 32.7538 72.1747 31.7211 71.6267 30.5516C71.0787 29.382 70.8436 28.1095 70.9413 26.8399C70.5236 28.123 70.4234 29.4752 70.6481 30.7981C70.8728 32.1211 71.4168 33.3815 72.2403 34.4877Z" fill="black"/>
<path opacity="0.3" d="M85.6314 29.5342C85.6288 29.7095 85.6841 29.8814 85.79 30.0274C85.8959 30.1734 86.0475 30.2867 86.2249 30.3525C86.4023 30.4183 86.5972 30.4335 86.7842 30.3961C86.9712 30.3587 87.1415 30.2705 87.2728 30.143C87.4041 30.0155 87.4903 29.8546 87.5201 29.6815C87.5499 29.5083 87.5219 29.331 87.4398 29.1726C87.3577 29.0143 87.2253 28.8823 87.06 28.7941C86.8947 28.7058 86.7041 28.6653 86.5132 28.6779C86.3937 28.6806 86.276 28.705 86.1669 28.7496C86.0578 28.7941 85.9594 28.8581 85.8774 28.9377C85.7954 29.0173 85.7315 29.111 85.6892 29.2134C85.647 29.3158 85.6273 29.4249 85.6314 29.5342Z" fill="white"/>
<path opacity="0.3" d="M83.1699 25.7068C83.1653 26.0211 83.2644 26.3293 83.4543 26.5912C83.6442 26.853 83.916 27.0562 84.2341 27.1742C84.5523 27.2922 84.9018 27.3194 85.2371 27.2524C85.5724 27.1853 85.8778 27.0271 86.1133 26.7984C86.3487 26.5698 86.5033 26.2813 86.5568 25.9708C86.6102 25.6603 86.5601 25.3423 86.4129 25.0583C86.2656 24.7744 86.0282 24.5378 85.7317 24.3795C85.4352 24.2212 85.0935 24.1486 84.7511 24.1712C84.5369 24.1761 84.3258 24.2197 84.1302 24.2997C83.9345 24.3797 83.758 24.4943 83.611 24.6371C83.464 24.7799 83.3493 24.9479 83.2736 25.1315C83.1979 25.3151 83.1626 25.5107 83.1699 25.7068Z" fill="white"/>
<path d="M42.1459 32.4096C45.2968 34.0086 49.2551 32.9106 50.9871 29.9572C52.7191 27.0038 51.5689 23.3133 48.4181 21.7142C45.2672 20.1152 41.3088 21.2131 39.5768 24.1666C37.8448 27.12 38.9951 30.8106 42.1459 32.4096Z" fill="#4A1A87"/>
<path opacity="0.06" d="M43.5318 21.1793C42.7105 21.4061 41.944 21.7814 41.276 22.284C40.6081 22.7865 40.0518 23.4064 39.639 24.1083C39.2262 24.8101 38.9649 25.5802 38.87 26.3744C38.7751 27.1687 38.8485 27.9716 39.086 28.7374C39.3236 29.5032 39.7205 30.2168 40.2543 30.8376C40.7881 31.4583 41.4482 31.974 42.1969 32.3551C42.9457 32.7363 43.7684 32.9754 44.6181 33.059C45.4678 33.1425 46.3279 33.0688 47.1493 32.8421C47.7734 32.6746 48.366 32.4164 48.9051 32.0769L48.4707 32.209C47.5832 32.4504 46.6482 32.4905 45.7435 32.3261C44.8388 32.1616 43.9907 31.7975 43.2697 31.2638C42.5487 30.7301 41.9759 30.0423 41.5988 29.2579C41.2216 28.4735 41.0512 27.6151 41.1017 26.7542C41.1522 25.8933 41.4222 25.0547 41.889 24.3085C42.3559 23.5622 43.0062 22.9299 43.7858 22.464C44.5654 21.9982 45.4516 21.7124 46.3708 21.6305C47.2899 21.5486 48.2153 21.6728 49.0699 21.9929C48.2722 21.4809 47.3612 21.1423 46.4032 21.0015C45.4452 20.8608 44.4643 20.9216 43.5318 21.1793Z" fill="black"/>
<path opacity="0.3" d="M44.1778 30.1132C44.0576 30.0755 43.9277 30.0726 43.8052 30.105C43.6827 30.1373 43.5733 30.2035 43.4913 30.2946C43.4093 30.3858 43.3586 30.4978 43.3457 30.616C43.3328 30.7342 43.3584 30.853 43.4191 30.9569C43.4798 31.0609 43.5728 31.145 43.686 31.1984C43.7991 31.2518 43.9271 31.272 44.0532 31.2562C44.1792 31.2405 44.2975 31.1895 44.3925 31.1101C44.4875 31.0307 44.5548 30.9265 44.5856 30.8111C44.6084 30.74 44.616 30.6654 44.6078 30.5917C44.5996 30.5181 44.5759 30.4467 44.538 30.3818C44.5001 30.317 44.4487 30.2598 44.3869 30.2137C44.3251 30.1676 44.254 30.1334 44.1778 30.1132Z" fill="white"/>
<path opacity="0.3" d="M47.3237 29.4509C47.1081 29.3832 46.8752 29.3781 46.6556 29.4361C46.4359 29.4941 46.2397 29.6127 46.0927 29.7762C45.9456 29.9397 45.8546 30.1406 45.8315 30.3525C45.8083 30.5644 45.8542 30.7775 45.9631 30.9639C46.072 31.1502 46.2388 31.3012 46.4417 31.3969C46.6446 31.4927 46.8741 31.5288 47.1002 31.5005C47.3262 31.4723 47.5383 31.3809 47.7087 31.2385C47.8791 31.0961 47.9997 30.9092 48.0549 30.7024C48.0959 30.5748 48.1094 30.4411 48.0948 30.309C48.0801 30.1769 48.0376 30.0489 47.9696 29.9326C47.9016 29.8162 47.8095 29.7138 47.6987 29.6311C47.5878 29.5484 47.4604 29.4872 47.3237 29.4509Z" fill="white"/>
<path d="M44.593 16.0392C47.8806 17.7076 52.0107 16.562 53.8179 13.4804C55.6251 10.3988 54.425 6.54812 51.1374 4.87969C47.8498 3.21127 43.7196 4.35685 41.9124 7.43847C40.1052 10.5201 41.3054 14.3708 44.593 16.0392Z" fill="#4A1A87"/>
<path opacity="0.06" d="M46.0385 4.32167C45.1815 4.55827 44.3817 4.9499 43.6848 5.47427C42.9878 5.99864 42.4075 6.64542 41.9767 7.37772C41.546 8.11002 41.2733 8.9135 41.1743 9.74225C41.0753 10.571 41.1519 11.4088 41.3998 12.2078C41.6476 13.0068 42.0618 13.7514 42.6187 14.3991C43.1756 15.0467 43.8644 15.5848 44.6456 15.9825C45.4269 16.3802 46.2853 16.6297 47.1719 16.7169C48.0585 16.8041 48.9559 16.7272 49.8129 16.4906C50.4642 16.3159 51.0824 16.0464 51.645 15.6922L51.1917 15.83C50.2657 16.0819 49.2901 16.1237 48.3461 15.9522C47.4022 15.7806 46.5172 15.4007 45.765 14.8438C45.0127 14.287 44.415 13.5693 44.0215 12.7509C43.628 11.9324 43.4502 11.0368 43.5029 10.1385C43.5556 9.24019 43.8372 8.36525 44.3244 7.58661C44.8115 6.80797 45.4901 6.14818 46.3035 5.66214C47.1169 5.1761 48.0416 4.87791 49.0006 4.79242C49.9596 4.70693 50.9252 4.83651 51.8169 5.17055C50.9845 4.63639 50.034 4.28301 49.0345 4.13615C48.0349 3.98929 47.0114 4.05273 46.0385 4.32167Z" fill="black"/>
<path opacity="0.3" d="M46.7117 13.6433C46.5863 13.6039 46.4508 13.6009 46.323 13.6347C46.1952 13.6684 46.081 13.7374 45.9954 13.8325C45.9099 13.9277 45.8569 14.0445 45.8435 14.1679C45.83 14.2912 45.8567 14.4151 45.9201 14.5236C45.9834 14.632 46.0805 14.7198 46.1985 14.7756C46.3166 14.8313 46.4501 14.8523 46.5816 14.8358C46.7132 14.8194 46.8366 14.7663 46.9357 14.6834C47.0349 14.6005 47.1051 14.4918 47.1372 14.3714C47.161 14.2972 47.1689 14.2194 47.1604 14.1425C47.1518 14.0657 47.1271 13.9912 47.0875 13.9235C47.048 13.8558 46.9944 13.7962 46.9299 13.7481C46.8654 13.7 46.7912 13.6644 46.7117 13.6433Z" fill="white"/>
<path opacity="0.3" d="M49.9945 12.9522C49.7695 12.8816 49.5265 12.8762 49.2973 12.9368C49.0681 12.9973 48.8634 13.121 48.71 13.2916C48.5566 13.4622 48.4616 13.6718 48.4374 13.8929C48.4133 14.114 48.4612 14.3364 48.5748 14.5308C48.6884 14.7252 48.8625 14.8828 49.0742 14.9827C49.2859 15.0826 49.5253 15.1203 49.7612 15.0908C49.9971 15.0613 50.2184 14.966 50.3962 14.8174C50.5739 14.6688 50.6998 14.4738 50.7574 14.258C50.8001 14.1249 50.8143 13.9854 50.799 13.8475C50.7837 13.7097 50.7393 13.5762 50.6684 13.4548C50.5974 13.3334 50.5013 13.2265 50.3857 13.1402C50.27 13.0539 50.1371 12.99 49.9945 12.9522Z" fill="white"/>
<path d="M4.3188 12.4137C7.46965 14.0127 11.428 12.9147 13.16 9.96129C14.892 7.00785 13.7418 3.31736 10.5909 1.71833C7.44009 0.119306 3.48168 1.21723 1.74967 4.17068C0.0176637 7.12412 1.16795 10.8147 4.3188 12.4137Z" fill="#4A1A87"/>
<path opacity="0.06" d="M5.70469 1.18341C4.88334 1.41017 4.11681 1.78551 3.44887 2.28807C2.78094 2.79063 2.22469 3.41051 1.81186 4.11235C1.39903 4.81419 1.13771 5.58425 1.04284 6.37852C0.947964 7.1728 1.02137 7.97572 1.2589 8.7415C1.49642 9.50729 1.89339 10.2209 2.42716 10.8416C2.96092 11.4624 3.62102 11.9781 4.36976 12.3592C5.1185 12.7404 5.94123 12.9795 6.79096 13.0631C7.64069 13.1466 8.50078 13.0729 9.32214 12.8462C9.94627 12.6787 10.5388 12.4205 11.078 12.081L10.6436 12.2131C9.75607 12.4545 8.82104 12.4946 7.91635 12.3302C7.01167 12.1657 6.16352 11.8016 5.44256 11.2679C4.7216 10.7342 4.14872 10.0464 3.77161 9.262C3.3945 8.47758 3.22408 7.61924 3.27458 6.7583C3.32507 5.89735 3.595 5.0588 4.06188 4.31255C4.52876 3.5663 5.17906 2.93395 5.95864 2.46812C6.73822 2.0023 7.62449 1.71652 8.54362 1.63458C9.46275 1.55265 10.3882 1.67684 11.2427 1.99699C10.445 1.48504 9.53403 1.14636 8.57603 1.00561C7.61804 0.864858 6.63713 0.925659 5.70469 1.18341Z" fill="black"/>
<path opacity="0.3" d="M6.34971 10.1173C6.22948 10.0796 6.09961 10.0767 5.97712 10.1091C5.85462 10.1414 5.74521 10.2075 5.66321 10.2987C5.5812 10.3899 5.53044 10.5019 5.51755 10.6201C5.50466 10.7383 5.53025 10.8571 5.59097 10.961C5.65169 11.0649 5.74471 11.1491 5.85785 11.2025C5.97099 11.2559 6.09897 11.2761 6.22504 11.2603C6.35111 11.2445 6.46939 11.1936 6.56439 11.1142C6.65939 11.0348 6.72669 10.9306 6.75746 10.8152C6.7803 10.7441 6.78785 10.6695 6.77969 10.5958C6.77152 10.5222 6.74779 10.4508 6.70988 10.3859C6.67197 10.321 6.62062 10.2639 6.5588 10.2178C6.49698 10.1717 6.42592 10.1375 6.34971 10.1173Z" fill="white"/>
<path opacity="0.3" d="M9.4956 9.45499C9.27999 9.3873 9.04711 9.38216 8.82745 9.4402C8.60779 9.49824 8.41158 9.61679 8.26453 9.7803C8.11749 9.94382 8.02645 10.1447 8.00334 10.3566C7.98022 10.5685 8.02611 10.7816 8.13499 10.9679C8.24388 11.1543 8.41069 11.3053 8.61357 11.401C8.81645 11.4968 9.04596 11.5329 9.27203 11.5046C9.4981 11.4764 9.71021 11.385 9.88057 11.2426C10.0509 11.1002 10.1716 10.9133 10.2268 10.7064C10.2677 10.5789 10.2813 10.4452 10.2666 10.3131C10.252 10.181 10.2094 10.053 10.1415 9.93667C10.0735 9.82031 9.98139 9.71786 9.87054 9.63519C9.75968 9.55252 9.63225 9.49124 9.4956 9.45499Z" fill="white"/>
<path d="M57.2967 26.9233C61.4334 29.0227 66.6301 27.5811 68.904 23.7036C71.1779 19.8261 69.6679 14.981 65.5312 12.8817C61.3946 10.7823 56.1977 12.2238 53.9237 16.1013C51.6498 19.9788 53.16 24.824 57.2967 26.9233Z" fill="#4A1A87"/>
<path opacity="0.06" d="M59.115 12.1796C58.0366 12.4773 57.0303 12.9701 56.1533 13.6299C55.2764 14.2897 54.5461 15.1035 54.0041 16.0249C53.4621 16.9464 53.1191 17.9574 52.9945 19.0001C52.87 20.0429 52.9663 21.0971 53.2782 22.1024C53.59 23.1078 54.1112 24.0447 54.812 24.8597C55.5127 25.6746 56.3793 26.3516 57.3624 26.852C58.3454 27.3524 59.4255 27.6664 60.5411 27.7761C61.6567 27.8858 62.7859 27.7891 63.8642 27.4913C64.6836 27.2715 65.4616 26.9325 66.1694 26.4868L65.5991 26.6602C64.4339 26.9771 63.2063 27.0298 62.0186 26.8139C60.8308 26.598 59.7173 26.1199 58.7708 25.4193C57.8243 24.7186 57.0721 23.8156 56.577 22.7858C56.082 21.7559 55.8582 20.629 55.9245 19.4987C55.9908 18.3684 56.3452 17.2675 56.9581 16.2878C57.5711 15.308 58.4249 14.4778 59.4484 13.8663C60.4718 13.2547 61.6354 12.8795 62.8421 12.7719C64.0488 12.6644 65.2638 12.8274 66.3857 13.2477C65.3384 12.5756 64.1424 12.131 62.8847 11.9462C61.6269 11.7614 60.3391 11.8412 59.115 12.1796Z" fill="black"/>
<path opacity="0.3" d="M59.9634 23.9087C59.8056 23.8591 59.6351 23.8554 59.4742 23.8979C59.3134 23.9404 59.1698 24.0271 59.0621 24.1469C58.9545 24.2666 58.8878 24.4136 58.8709 24.5688C58.854 24.7239 58.8876 24.8799 58.9673 25.0164C59.047 25.1528 59.1691 25.2633 59.3177 25.3334C59.4662 25.4035 59.6342 25.43 59.7997 25.4093C59.9652 25.3886 60.1205 25.3217 60.2453 25.2175C60.37 25.1132 60.4583 24.9764 60.4987 24.8249C60.5287 24.7315 60.5386 24.6337 60.5279 24.5369C60.5172 24.4402 60.486 24.3465 60.4363 24.2613C60.3865 24.1762 60.3191 24.1011 60.2379 24.0406C60.1568 23.9801 60.0635 23.9352 59.9634 23.9087Z" fill="white"/>
<path opacity="0.3" d="M64.0933 23.0391C63.8102 22.9502 63.5045 22.9435 63.2161 23.0197C62.9277 23.0959 62.6701 23.2515 62.4771 23.4662C62.284 23.6809 62.1645 23.9446 62.1342 24.2228C62.1038 24.501 62.1641 24.7808 62.307 25.0254C62.45 25.2701 62.669 25.4683 62.9353 25.594C63.2017 25.7197 63.503 25.7671 63.7998 25.73C64.0966 25.6929 64.3751 25.573 64.5987 25.386C64.8224 25.1991 64.9808 24.9537 65.0533 24.6821C65.107 24.5147 65.1248 24.3391 65.1056 24.1657C65.0864 23.9922 65.0305 23.8243 64.9412 23.6715C64.852 23.5187 64.7311 23.3842 64.5856 23.2757C64.44 23.1672 64.2727 23.0867 64.0933 23.0391Z" fill="white"/>
<path d="M73.8844 5.82851C70.4416 7.18322 68.86 10.8874 70.3518 14.1021C71.8436 17.3168 75.8439 18.8247 79.2867 17.4699C82.7295 16.1152 84.3112 12.4109 82.8193 9.19625C81.3275 5.98156 77.3272 4.47379 73.8844 5.82851Z" fill="#4A1A87"/>
<path opacity="0.06" d="M82.9091 14.115C83.2382 13.3471 83.4008 12.5249 83.3875 11.6953C83.3742 10.8658 83.1853 10.0452 82.8316 9.28029C82.4779 8.51543 81.9663 7.82129 81.326 7.23756C80.6858 6.65382 79.9294 6.19191 79.1001 5.87817C78.2707 5.56443 77.3847 5.40501 76.4926 5.40903C75.6004 5.41305 74.7196 5.5804 73.9004 5.90157C73.0813 6.22274 72.3398 6.69144 71.7184 7.28086C71.097 7.87029 70.6077 8.5689 70.2786 9.33684C70.0242 9.91724 69.8703 10.5323 69.8226 11.1592L69.986 10.7452C70.3448 9.9178 70.912 9.18409 71.6403 8.60518C72.3686 8.02628 73.2368 7.6189 74.1727 7.41707C75.1086 7.21524 76.0852 7.22484 77.021 7.44492C77.9567 7.66499 78.8245 8.08919 79.5523 8.6823C80.28 9.2754 80.8465 10.0202 81.2046 10.8546C81.5627 11.689 81.702 12.5889 81.6109 13.4793C81.5198 14.3696 81.201 15.2248 80.681 15.9734C80.1609 16.722 79.4548 17.3425 78.6213 17.7831C79.5876 17.5092 80.4738 17.0378 81.2155 16.4033C81.9572 15.7688 82.5357 14.987 82.9091 14.115Z" fill="black"/>
<path opacity="0.3" d="M74.6032 8.84607C74.7141 8.77938 74.8003 8.68291 74.8507 8.56932C74.901 8.45573 74.9132 8.33028 74.8855 8.20944C74.8578 8.08859 74.7916 7.97798 74.6956 7.89205C74.5995 7.80613 74.4781 7.74891 74.3472 7.7279C74.2163 7.70689 74.082 7.72305 73.9619 7.77429C73.8419 7.82552 73.7416 7.90943 73.6743 8.01503C73.6069 8.12063 73.5757 8.243 73.5846 8.3661C73.5935 8.48921 73.6421 8.60731 73.7242 8.70496C73.7722 8.76809 73.8332 8.82186 73.9036 8.86316C73.9739 8.90447 74.0522 8.93249 74.1339 8.94561C74.2156 8.95872 74.2992 8.95667 74.3797 8.93959C74.4603 8.9225 74.5363 8.89073 74.6032 8.84607Z" fill="white"/>
<path opacity="0.3" d="M73.1607 11.6546C73.3594 11.535 73.5141 11.362 73.6044 11.1583C73.6947 10.9546 73.7165 10.7297 73.6669 10.513C73.6172 10.2962 73.4985 10.0979 73.3263 9.94381C73.1541 9.78973 72.9363 9.68713 72.7016 9.64945C72.4668 9.61177 72.226 9.64076 72.0107 9.73263C71.7954 9.8245 71.6156 9.97498 71.4948 10.1643C71.3741 10.3537 71.318 10.5731 71.334 10.7939C71.35 11.0146 71.4372 11.2264 71.5843 11.4015C71.6705 11.5147 71.7799 11.6112 71.906 11.6852C72.0321 11.7593 72.1725 11.8095 72.3191 11.8331C72.4656 11.8566 72.6155 11.8529 72.7599 11.8223C72.9044 11.7916 73.0406 11.7347 73.1607 11.6546Z" fill="white"/>
</svg>
