<svg width="111" height="44" viewBox="0 0 111 44" fill="none" xmlns="http://www.w3.org/2000/svg">
<g clip-path="url(#clip0_2396_4998)">
<path d="M74.8895 10.9427L84.4767 27.2199C84.7076 27.612 85.0371 27.9423 85.4354 28.181L101.788 37.9814C102.995 38.7051 104.583 38.4546 105.499 37.3958L110.226 31.9312C111.018 31.0164 111.108 29.722 110.449 28.726L97.277 8.79701C96.8761 8.19053 96.2399 7.76251 95.5072 7.60631L81.4527 4.6103C80.6708 4.44364 79.8492 4.60128 79.1898 5.04446L75.7498 7.35654C74.5425 8.16795 74.1699 9.72106 74.8895 10.9427Z" fill="#F4E1C9" stroke="white"/>
<path d="M78.9394 10.5566C78.9394 10.5566 85.0255 12.9073 88.3483 13.7983M88.3483 13.7983C92.6666 13.1881 95.3517 10.0844 95.3517 10.0844M88.3483 13.7983L102.481 34.4596" stroke="white" stroke-width="1.07958" stroke-linecap="round" stroke-linejoin="round"/>
<path d="M72.0892 11.2497L66.8803 5.30397C66.3009 4.64268 65.4672 4.25977 64.5888 4.2516L49.2373 4.1088C48.3067 4.10015 47.423 4.51282 46.8332 5.23143L39.9548 13.6123C38.9742 14.8071 39.0342 16.5458 40.0949 17.6741L45.5921 23.5217C46.1238 24.0874 46.8491 24.4319 47.6229 24.4864L61.2829 25.4489C62.2223 25.5151 63.1395 25.1479 63.7725 24.4522L72.0543 15.3497C73.1069 14.1928 73.1219 12.4285 72.0892 11.2497Z" fill="#F4E1C9" stroke="white"/>
<path d="M63.2529 6.88037C63.2529 6.88037 58.0259 12.4028 57.082 15.0682M57.082 15.0682C57.7255 17.9398 60.976 22.7697 60.976 22.7697M57.082 15.0682L43.0446 15.3646" stroke="white" stroke-linecap="round" stroke-linejoin="round"/>
<path d="M5.71728 34.8841L24.4353 41.9217C24.9332 42.1089 25.4735 42.1505 25.9928 42.0415L44.7636 38.1023C46.1113 37.8195 47.0453 36.5944 46.9621 35.2189L46.4045 26.0068C46.3343 24.8469 45.5522 23.8484 44.4414 23.5005L20.6908 16.0628C19.8856 15.8106 19.0113 15.935 18.3121 16.4013L6.07369 24.5626C5.443 24.9832 5.01256 25.6436 4.88187 26.3911L3.93949 31.7813C3.70808 33.1049 4.45574 34.4098 5.71728 34.8841Z" fill="#F4E1C9" stroke="white"/>
<path d="M7.89305 32.3712C7.89305 32.3712 13.9557 29.7603 16.9847 27.9887M16.9847 27.9887C19.6549 24.127 19.3641 19.3233 19.3641 19.3233M16.9847 27.9887L41.9509 35.333" stroke="white" stroke-width="1.07958" stroke-linecap="round" stroke-linejoin="round"/>
<path d="M64.4113 20.9115L49.506 27.0929C48.3244 27.583 47.5796 28.7558 47.6371 30.0361L47.9981 38.0802C48.0647 39.5664 49.1885 40.8038 50.6667 41.0188L71.0753 43.9861C71.6454 44.069 72.2256 43.9915 72.7503 43.7623L87.3576 37.3826C88.3265 36.9594 89.0031 36.0663 89.1483 35.019L90.1311 27.9297C90.3598 26.2796 89.2243 24.7341 87.5726 24.4474L66.1184 20.7234C65.5412 20.6232 64.9491 20.6884 64.4113 20.9115Z" fill="#F4E1C9" stroke="white"/>
<path d="M52.5469 29.3882C52.5469 29.3882 64.1808 31.5421 69.7179 31.5193M69.7179 31.5193C75.6012 30.3775 85.3891 26.9984 85.3891 26.9984M69.7179 31.5193L71.0226 40.891" stroke="white" stroke-linecap="round" stroke-linejoin="round"/>
<path d="M19.461 3.23865L5.67271 6.61545C4.43473 6.91863 3.50853 7.95181 3.34257 9.21472L2.38281 16.5184C2.19145 17.9746 3.05492 19.3596 4.44541 19.8268L21.5744 25.582C22.1456 25.774 22.7613 25.7937 23.345 25.6388L36.9306 22.032C37.9557 21.7598 38.7706 20.9803 39.0879 19.9684L41.0401 13.7425C41.5306 12.1783 40.7115 10.5083 39.1762 9.94262L21.2575 3.33961C20.6827 3.12781 20.0571 3.09265 19.461 3.23865Z" fill="#F4E1C9" stroke="white"/>
<path d="M7.81738 9.27039C7.81738 9.27039 17.6712 13.0339 22.5306 13.8561M22.5306 13.8561C27.8746 13.6963 37.0047 12.0622 37.0047 12.0622M22.5306 13.8561L22.1588 22.7209" stroke="white" stroke-linecap="round" stroke-linejoin="round"/>
</g>
<defs>
<clipPath id="clip0_2396_4998">
<rect width="111" height="43" fill="white" transform="translate(-0.000976562 0.453979)"/>
</clipPath>
</defs>
</svg>
