<svg width="112" height="32" viewBox="0 0 112 32" fill="none" xmlns="http://www.w3.org/2000/svg">
<path fill-rule="evenodd" clip-rule="evenodd" d="M17.1135 6.09207L3.10547 2.40881C2.23806 9.53592 4.34797 24.7464 19.6185 28.979L19.6179 28.9813C19.6756 28.9965 19.7333 29.0115 19.7909 29.0262C19.8483 29.0417 19.9059 29.0571 19.9637 29.0723L19.9643 29.07C35.3417 32.8959 44.6603 20.6904 47.4107 14.0584L33.4027 10.3751C30.8154 12.6054 26.3752 12.301 24.3098 11.8402C22.2848 11.2254 18.2692 9.30652 17.1135 6.09207Z" fill="#FF9784"/>
<path fill-rule="evenodd" clip-rule="evenodd" d="M17.1135 6.09207L3.10547 2.40881C2.43312 8.79406 4.93171 22.5263 20.208 26.737L20.2074 26.7391C20.2652 26.7543 20.3229 26.7693 20.3805 26.784C20.4379 26.7995 20.4955 26.8148 20.5533 26.83L20.5538 26.828C35.9255 30.6758 44.8554 19.9485 47.4107 14.0584L33.4027 10.3751C30.8926 12.3118 26.4753 11.9203 24.4121 11.4512C22.3849 10.8448 18.3464 9.01295 17.1135 6.09207Z" fill="#FFD69E"/>
<path fill-rule="evenodd" clip-rule="evenodd" d="M16.9648 6.05292C16.7555 8.6937 17.8645 12.4734 23.4605 13.8544C29.0207 15.2267 32.1743 12.6654 33.5528 10.4145L33.3346 10.3571C30.8245 12.2939 26.4072 11.9024 24.344 11.4333C22.3168 10.8269 18.2783 8.99499 17.0454 6.07411L16.9648 6.05292Z" fill="#E88F7D"/>
<path d="M38.96 14.9234C36.7365 13.9055 34.4313 16.5304 33.5566 17.9701C32.6244 21.5154 35.3897 21.2951 38.4816 20.3481C41.5734 19.4012 41.7394 16.1958 38.96 14.9234Z" fill="white" fill-opacity="0.2"/>
<path d="M29.6002 24.7889C30.8375 24.6567 31.1644 22.9093 31.1732 22.0521C30.6602 20.2586 29.5074 21.0733 28.4004 22.2908C27.2934 23.5084 28.0535 24.9541 29.6002 24.7889Z" fill="white" fill-opacity="0.2"/>
<path fill-rule="evenodd" clip-rule="evenodd" d="M66.8519 14.8162L55.3594 19.448C58.4065 24.7808 67.627 34.1375 80.2661 29.2378L80.2669 29.2397C80.3164 29.2198 80.3657 29.1997 80.4149 29.1795C80.4602 29.1616 80.5056 29.1435 80.551 29.1252L80.5502 29.1234C93.0547 23.8895 93.2102 10.754 91.7079 4.79865L80.2154 9.43043C79.5803 12.282 76.3801 14.3419 74.7272 15.0818C73.0243 15.6949 69.2878 16.4312 66.8519 14.8162Z" fill="#FF9784"/>
<path fill-rule="evenodd" clip-rule="evenodd" d="M66.8519 14.8162L55.3594 19.448C58.1612 24.1721 66.8929 32.3161 79.5248 27.3984L79.5255 27.4002C79.5753 27.3801 79.6248 27.3599 79.6742 27.3397C79.7193 27.3218 79.7644 27.3038 79.8096 27.2856L79.8089 27.284C92.3206 22.0682 92.9649 10.1454 91.7079 4.79865L80.2154 9.43043C79.4833 12.0411 76.2544 14.0296 74.5988 14.7627C72.8986 15.3826 69.1908 16.1903 66.8519 14.8162Z" fill="#FFD69E"/>
<path fill-rule="evenodd" clip-rule="evenodd" d="M66.7285 14.8662C67.9345 16.7849 70.6269 18.811 75.1717 16.8988C79.6874 14.9988 80.542 11.6301 80.3375 9.38141L80.16 9.45297C79.4277 12.0645 76.197 14.0533 74.5419 14.7858C72.8415 15.4058 69.1342 16.2132 66.7955 14.8392L66.7285 14.8662Z" fill="#E88F7D"/>
<path d="M86.3525 9.71076C84.3069 10.1487 84.0668 13.1276 84.2025 14.5623C85.3747 17.4709 87.1593 15.9066 88.7965 13.6769C90.4338 11.4472 88.9095 9.16329 86.3525 9.71076Z" fill="white" fill-opacity="0.2"/>
<path d="M84.9722 21.2625C85.7536 20.5395 85.0848 19.1737 84.6528 18.5811C83.3843 17.6129 83.0098 18.7609 82.8725 20.1619C82.7353 21.5629 83.9956 22.1663 84.9722 21.2625Z" fill="white" fill-opacity="0.2"/>
<path d="M44.8779 15.0814L55.4253 14.8002L57.5934 31.0118H43.9111L44.8779 15.0814Z" fill="#FF9784"/>
<path d="M46.1817 16.7174L56.8867 16.3313L58.8971 31.0119H45.2148L46.1817 16.7174Z" fill="#FFD69E"/>
<path d="M56.917 16.3535L55.4258 14.8002L44.875 15.0657L46.2162 16.7214L56.917 16.3535Z" fill="#E88F7D"/>
<path d="M49.7159 21.5657C50.3314 21.3315 50.2636 20.3931 50.1527 19.9532C49.6487 19.1042 49.1683 19.6764 48.7656 20.4486C48.3628 21.2207 48.9464 21.8584 49.7159 21.5657Z" fill="white" fill-opacity="0.2"/>
<path d="M94.3863 11.4799L103.031 12.7534L102.49 26.2876L91.3277 24.338L94.3863 11.4799Z" fill="#FF9784"/>
<path d="M95.2171 13.0002L104.005 14.2106L103.553 26.4735L92.3915 24.5238L95.2171 13.0002Z" fill="#FFD69E"/>
<path d="M104.026 14.2332L103.031 12.7535L94.386 11.4667L95.2442 13.0085L104.026 14.2332Z" fill="#E88F7D"/>
<path d="M97.4097 17.4592C97.9452 17.3559 98.0236 16.5807 97.9958 16.206C97.7056 15.4416 97.2322 15.8399 96.7936 16.4124C96.355 16.985 96.7403 17.5884 97.4097 17.4592Z" fill="white" fill-opacity="0.2"/>
<path d="M96.9739 7.07273L105.301 5.75342L108.704 18.3721L97.8641 19.7946L96.9739 7.07273Z" fill="#FF9784"/>
<path d="M98.1772 8.23319L106.618 6.81439L109.738 18.2365L98.8973 19.659L98.1772 8.23319Z" fill="#FFD69E"/>
<path d="M106.646 6.82904L105.303 5.75338L96.971 7.06066L98.2057 8.23296L106.646 6.82904Z" fill="#E88F7D"/>
<path d="M101.482 11.7071C101.945 11.4576 101.794 10.7211 101.661 10.3841C101.173 9.76389 100.852 10.2672 100.613 10.9208C100.374 11.5744 100.903 12.019 101.482 11.7071Z" fill="white" fill-opacity="0.2"/>
<path d="M71.8944 4.25102L70.1393 12.94L56.4573 11.6638L59.0327 0.460832L71.8944 4.25102Z" fill="#FF9784"/>
<path d="M70.3085 5.01137L68.6097 13.8493L56.2109 12.7321L58.7863 1.5291L70.3085 5.01137Z" fill="#FFD69E"/>
<path d="M68.5865 13.8695L70.139 12.9409L71.9076 4.25196L70.2995 5.03851L68.5865 13.8695Z" fill="#E88F7D"/>
<path d="M65.6749 6.99251C65.7508 7.5406 66.5319 7.66167 66.913 7.65369C67.7029 7.40084 67.3249 6.89979 66.7685 6.42469C66.212 5.94958 65.58 6.30739 65.6749 6.99251Z" fill="white" fill-opacity="0.2"/>
<path d="M43.4036 4.09487L50.2236 1.49086L55.3591 11.575L46.4283 14.7149L43.4036 4.09487Z" fill="#FF9784"/>
<path d="M44.6308 4.8635L51.5296 2.15484L56.2109 11.2758L47.2801 14.4157L44.6308 4.8635Z" fill="#FFD69E"/>
<path d="M51.5545 2.16248L50.2247 1.49077L43.3988 4.08537L44.6542 4.85825L51.5545 2.16248Z" fill="#E88F7D"/>
<path d="M48.05 7.21678C48.3981 6.92266 48.1384 6.32572 47.9651 6.06401C47.4413 5.62553 47.259 6.10925 47.1734 6.70568C47.0877 7.3021 47.615 7.58443 48.05 7.21678Z" fill="white" fill-opacity="0.2"/>
</svg>
