<svg width="112" height="24" viewBox="0 0 112 24" fill="none" xmlns="http://www.w3.org/2000/svg">
<path d="M26.2667 4.06068C24.3511 0.303666 21.0305 3.00998 18.6734 6.05177C17.7897 7.1922 18.5641 8.76539 20.0068 8.7687C23.9296 8.7777 28.1908 7.83432 26.2667 4.06068Z" fill="#F8BE3C"/>
<path d="M23.3677 5.55239C22.5509 3.96262 20.9284 5.10733 19.6841 6.48184C19.1616 7.0591 19.5822 7.91481 20.3588 7.85848C22.2467 7.72152 24.189 7.15103 23.3677 5.55239Z" fill="#79322C"/>
<path fill-rule="evenodd" clip-rule="evenodd" d="M19.5554 7.46091C20.6054 7.47798 22.1854 7.15235 23.3536 6.85053C22.8716 7.49111 21.6004 7.77088 20.353 7.86138C19.9884 7.88782 19.7023 7.71328 19.5554 7.46091Z" fill="black" fill-opacity="0.2"/>
<path d="M15.8382 3.03C10.2143 1.14187 9.86488 7.64201 10.6453 12.9035C10.857 14.3307 12.5104 14.9116 13.5724 13.935C17.5595 10.2685 21.4803 4.92428 15.8382 3.03Z" fill="#F8BE3C"/>
<path d="M14.2851 7.21277C12.0318 6.46405 11.6705 9.27229 11.8364 11.7021C11.8894 12.4789 12.7903 12.7961 13.321 12.2264C15.0141 10.4089 16.5482 7.96476 14.2851 7.21277Z" fill="#79322C"/>
<path fill-rule="evenodd" clip-rule="evenodd" d="M12.3277 12.4485C13.3219 11.6145 14.5668 9.77544 15.4073 8.38148C15.5504 9.46806 14.4713 10.9961 13.3185 12.2336C13.0322 12.5409 12.6382 12.5902 12.3277 12.4485Z" fill="black" fill-opacity="0.2"/>
<path d="M46.4949 23.3461C51.9659 21.0526 47.9381 15.9388 43.8791 12.5013C42.7781 11.5689 41.1525 12.2238 40.9993 13.6584C40.4241 19.0444 41.006 25.6471 46.4949 23.3461Z" fill="#F8BE3C"/>
<path d="M44.8057 18.6733C46.3628 18.0149 45.4318 16.4168 44.23 15.1373C43.6969 14.5698 42.8124 14.9254 42.8155 15.704C42.8226 17.4967 43.2395 19.3356 44.8057 18.6733Z" fill="#79322C"/>
<path fill-rule="evenodd" clip-rule="evenodd" d="M43.2484 14.9428C43.1681 15.9462 43.3635 17.4483 43.5653 18.568C42.9984 18.0719 42.8172 16.8753 42.8125 15.6987C42.8111 15.3417 42.9962 15.0737 43.2484 14.9428Z" fill="black" fill-opacity="0.2"/>
<path d="M43.2007 4.30998C39.2506 5.96199 41.7569 9.53676 44.6586 12.1496C45.7308 13.1151 47.3578 12.4616 47.4719 11.0233C47.7868 7.05549 47.168 2.65072 43.2007 4.30998Z" fill="#F8BE3C"/>
<path d="M44.578 6.8141C42.6042 7.64682 43.9595 9.73993 45.5107 11.3121C46.0576 11.8664 46.9434 11.511 46.9597 10.7325C47.0068 8.47967 46.5612 5.97744 44.578 6.8141Z" fill="#79322C"/>
<path fill-rule="evenodd" clip-rule="evenodd" d="M46.4163 11.5365C46.572 10.3438 46.3233 8.38001 46.0654 6.9419C46.8019 7.58777 46.9941 9.22008 46.9623 10.739C46.954 11.1373 46.718 11.4249 46.4163 11.5365Z" fill="black" fill-opacity="0.2"/>
<path d="M52.4284 10.2639C56.1 12.4665 57.4941 8.32927 57.879 4.4435C58.0212 3.00776 56.5306 2.08457 55.3045 2.84498C51.9219 4.94282 48.7407 8.05165 52.4284 10.2639Z" fill="#F8BE3C"/>
<path d="M54.4719 7.04468C55.6167 7.72666 56.2333 6.51743 56.528 5.16788C56.6941 4.40717 55.8827 3.9039 55.2712 4.38588C54.1617 5.26035 53.3186 6.35773 54.4719 7.04468Z" fill="#79322C"/>
<path fill-rule="evenodd" clip-rule="evenodd" d="M56.0582 4.23988C55.3669 4.70936 54.5346 5.50946 53.9262 6.15089C53.9754 5.57901 54.5713 4.93558 55.2742 4.3816C55.5292 4.18058 55.819 4.15094 56.0582 4.23988Z" fill="black" fill-opacity="0.2"/>
<path d="M61.7557 12.086C66.0196 11.6967 64.7027 7.53422 62.7197 4.17044C61.987 2.92756 60.2389 3.06222 59.6981 4.39977C58.206 8.08982 57.4732 12.4771 61.7557 12.086Z" fill="#F8BE3C"/>
<path d="M61.5415 8.41185C62.9446 8.27933 62.689 6.84084 62.0865 5.50785C61.7658 4.79834 60.8143 4.87102 60.5994 5.61943C60.1868 7.05684 60.1287 8.54528 61.5415 8.41185Z" fill="#79322C"/>
<path fill-rule="evenodd" clip-rule="evenodd" d="M61.1692 5.03401C60.8678 5.85407 60.6542 7.06624 60.5348 7.99673C60.2169 7.47323 60.3358 6.53332 60.5997 5.61426C60.6912 5.29559 60.9162 5.09944 61.1692 5.03401Z" fill="black" fill-opacity="0.2"/>
<path d="M81.2251 5.71873C77.2751 7.37075 79.7813 10.9455 82.683 13.5584C83.7552 14.5238 85.3822 13.8703 85.4963 12.4321C85.8112 8.46424 85.1924 4.05947 81.2251 5.71873Z" fill="#F8BE3C"/>
<path d="M82.32 8.27519C80.3655 9.0998 81.7007 11.1699 83.236 12.729C83.7824 13.2837 84.6681 12.9284 84.6837 12.1499C84.7283 9.91791 84.284 7.44664 82.32 8.27519Z" fill="#79322C"/>
<path fill-rule="evenodd" clip-rule="evenodd" d="M84.146 12.9521C84.298 11.7676 84.0519 9.8253 83.7966 8.40192C84.5252 9.04091 84.717 10.6529 84.6869 12.1563C84.679 12.5527 84.4454 12.8394 84.146 12.9521Z" fill="black" fill-opacity="0.2"/>
<path d="M72.9546 1.43687C69.0045 3.08889 71.5108 6.66366 74.4125 9.27652C75.4847 10.2419 77.1117 9.58845 77.2258 8.1502C77.5407 4.18238 76.9219 -0.222393 72.9546 1.43687Z" fill="#F8BE3C"/>
<path d="M74.406 5.18323C73.0249 5.76589 73.7805 7.1575 74.8282 8.30937C75.3521 8.88538 76.2373 8.53047 76.2237 7.75195C76.1959 6.16095 75.7962 4.59675 74.406 5.18323Z" fill="#79322C"/>
<path fill-rule="evenodd" clip-rule="evenodd" d="M75.836 8.49169C75.8893 7.57606 75.7182 6.2665 75.5414 5.28073C76.0356 5.71416 76.2085 6.72996 76.2265 7.75692C76.2324 8.09643 76.0674 8.35537 75.836 8.49169Z" fill="black" fill-opacity="0.2"/>
<path d="M5.84105 13.7268C9.90019 15.0888 10.3726 10.7487 9.91339 6.871C9.74373 5.43824 8.08958 4.85696 7.05554 5.86311C4.20285 8.63889 1.7641 12.3588 5.84105 13.7268Z" fill="#F8BE3C"/>
<path d="M6.61561 11.3701C8.5628 12.0167 8.92325 9.68138 8.80766 7.56532C8.76519 6.78784 7.86525 6.47116 7.34208 7.04785C5.88915 8.64944 4.6588 10.7202 6.61561 11.3701Z" fill="#79322C"/>
<path fill-rule="evenodd" clip-rule="evenodd" d="M8.25841 6.79281C7.39077 7.57002 6.33617 9.13328 5.61547 10.329C5.4936 9.4028 6.36857 8.11637 7.34382 7.04134C7.60586 6.75249 7.96242 6.68776 8.25841 6.79281Z" fill="black" fill-opacity="0.2"/>
<path d="M80.7713 21.3242C86.2423 19.0307 82.2145 13.9169 78.1554 10.4794C77.0544 9.54703 75.4289 10.2019 75.2757 11.6365C74.7005 17.0225 75.2824 23.6252 80.7713 21.3242Z" fill="#F8BE3C"/>
<path d="M79.3721 17.5386C81.9074 16.4665 79.9525 13.6987 77.9426 11.7518C77.3833 11.2101 76.4956 11.5669 76.4639 12.3449C76.3477 15.1954 76.827 18.6148 79.3721 17.5386Z" fill="#79322C"/>
<path fill-rule="evenodd" clip-rule="evenodd" d="M77.1567 11.4998C76.889 12.9207 77.2136 15.515 77.5504 17.3839C76.583 16.5371 76.3801 14.3019 76.4602 12.337C76.4788 11.8823 76.7898 11.5714 77.1567 11.4998Z" fill="black" fill-opacity="0.2"/>
<path d="M59.5453 16.0933C58.3958 21.9132 64.887 21.4241 70.0045 19.9737C71.3926 19.5803 71.7561 17.866 70.6511 16.9383C66.5024 13.4557 60.6985 10.2545 59.5453 16.0933Z" fill="#F8BE3C"/>
<path d="M64.9302 17.5536C64.5347 19.5893 66.9287 19.6429 69.0333 19.2504C69.7988 19.1076 69.9973 18.1744 69.3586 17.729C67.5669 16.4793 65.3276 15.5081 64.9302 17.5536Z" fill="#79322C"/>
<path fill-rule="evenodd" clip-rule="evenodd" d="M69.727 18.6104C68.8394 17.8417 67.1338 16.9864 65.8413 16.419C66.7548 16.1768 68.1606 16.8907 69.3644 17.7303C69.6858 17.9544 69.7951 18.3021 69.727 18.6104Z" fill="black" fill-opacity="0.2"/>
<path d="M69.0905 18.097C75.0205 18.2644 73.4607 11.9445 71.1809 7.1388C70.5625 5.83527 68.8116 5.76135 68.0803 7.00502C65.3346 11.6742 63.1413 17.9291 69.0905 18.097Z" fill="#F8BE3C"/>
<path d="M69.3583 12.5113C71.493 12.5649 71.1226 10.1091 70.3593 8.0437C70.0893 7.31335 69.1358 7.27253 68.8006 7.97535C67.8337 10.0031 67.2134 12.4574 69.3583 12.5113Z" fill="#79322C"/>
<path fill-rule="evenodd" clip-rule="evenodd" d="M69.6249 7.46617C68.9941 8.48702 68.4144 10.3721 68.0585 11.7841C67.6549 10.8954 68.1491 9.33494 68.8008 7.9683C68.972 7.60933 69.3045 7.44435 69.6249 7.46617Z" fill="black" fill-opacity="0.2"/>
<path d="M51.3132 21.0907C55.9988 24.7291 58.4739 18.7085 59.4737 13.4842C59.7449 12.0672 58.3758 10.9731 57.051 11.5445C52.0773 13.6897 46.6124 17.4405 51.3132 21.0907Z" fill="#F8BE3C"/>
<path d="M54.5067 17.1698C56.3244 18.5722 57.5542 16.1501 58.1861 13.8773C58.3947 13.1271 57.6492 12.5304 56.9612 12.8951C54.8352 14.0219 52.6809 15.7612 54.5067 17.1698Z" fill="#79322C"/>
<path fill-rule="evenodd" clip-rule="evenodd" d="M57.9566 12.999C56.7762 13.4557 55.0604 14.7324 53.8504 15.7348C54.0664 14.7007 55.5222 13.6539 56.9651 12.8892C57.3296 12.696 57.7102 12.7726 57.9566 12.999Z" fill="black" fill-opacity="0.2"/>
<path d="M100.662 19.5904C106.133 17.2968 102.105 12.1831 98.0461 8.74555C96.9451 7.81315 95.3195 8.46802 95.1663 9.90263C94.5911 15.2887 95.173 21.8913 100.662 19.5904Z" fill="#F8BE3C"/>
<path d="M98.7949 15.6295C101.128 14.6428 99.3903 12.1188 97.543 10.3052C96.9874 9.75977 96.1007 10.1165 96.0739 10.8946C95.9832 13.5328 96.4522 16.6201 98.7949 15.6295Z" fill="#79322C"/>
<path fill-rule="evenodd" clip-rule="evenodd" d="M96.7127 10.0616C96.4867 11.4034 96.7846 13.7708 97.0935 15.485C96.209 14.7107 96.0087 12.6937 96.0708 10.8873C96.0857 10.4527 96.3689 10.1496 96.7127 10.0616Z" fill="black" fill-opacity="0.2"/>
<path d="M104.316 13.6352C110.19 14.4585 109.34 8.00469 107.607 2.97598C107.137 1.61198 105.405 1.34455 104.54 2.49956C101.294 6.83588 98.4215 12.8093 104.316 13.6352Z" fill="#F8BE3C"/>
<path d="M104.975 9.39051C107.204 9.6958 107.078 7.0493 106.51 4.8059C106.319 4.05108 105.375 3.90466 104.961 4.56409C103.706 6.56336 102.736 9.08382 104.975 9.39051Z" fill="#79322C"/>
<path fill-rule="evenodd" clip-rule="evenodd" d="M105.865 4.15573C105.085 5.12855 104.252 7.04628 103.713 8.48705C103.392 7.50455 104.112 5.91111 104.962 4.55683C105.179 4.21107 105.542 4.08685 105.865 4.15573Z" fill="black" fill-opacity="0.2"/>
<path d="M101.554 2.19001C99.5347 -1.30671 96.5041 1.3894 94.3851 4.41013C93.5566 5.59128 94.4122 7.12213 95.8528 7.0438C99.6092 6.83954 103.583 5.7028 101.554 2.19001Z" fill="#F8BE3C"/>
<path d="M98.8453 3.64622C98.044 2.26851 96.6692 3.29293 95.6061 4.56232C95.1062 5.15927 95.5707 5.99187 96.342 5.88511C98.0175 5.65319 99.6516 5.03246 98.8453 3.64622Z" fill="#79322C"/>
<path fill-rule="evenodd" clip-rule="evenodd" d="M95.5452 5.57303C96.5056 5.51706 97.8754 5.1574 98.8947 4.83645C98.5011 5.42107 97.4277 5.73689 96.3368 5.8879C95.9921 5.93561 95.7087 5.79569 95.5452 5.57303Z" fill="black" fill-opacity="0.2"/>
<path d="M87.452 21.2867C95.1879 23.2329 94.6353 14.0181 92.9337 7.2234C92.5832 5.82386 90.888 5.3724 89.8842 6.40872C84.924 11.5297 79.6968 19.3358 87.452 21.2867Z" fill="#F8BE3C"/>
<path d="M89.5402 14.5769C92.2473 15.2489 92.339 11.8073 91.8906 9.01014C91.7674 8.24132 90.843 7.99428 90.3503 8.5972C88.5228 10.8335 86.8229 13.9022 89.5402 14.5769Z" fill="#79322C"/>
<path fill-rule="evenodd" clip-rule="evenodd" d="M91.4199 8.34042C90.34 9.32247 89.0246 11.625 88.161 13.3455C87.8924 12.0698 89.0923 10.1312 90.3528 8.58869C90.6428 8.23389 91.0822 8.17343 91.4199 8.34042Z" fill="black" fill-opacity="0.2"/>
<path d="M26.6082 20.9951C32.0792 18.7016 28.0514 13.5878 23.9923 10.1503C22.8914 9.21793 21.2658 9.87281 21.1126 11.3074C20.5374 16.6934 21.1193 23.2961 26.6082 20.9951Z" fill="#F8BE3C"/>
<path d="M24.7511 16.2249C26.6078 15.4398 25.3717 13.4866 23.916 11.9958C23.372 11.4387 22.4869 11.7946 22.4757 12.5731C22.4452 14.6992 22.885 17.0141 24.7511 16.2249Z" fill="#79322C"/>
<path fill-rule="evenodd" clip-rule="evenodd" d="M22.9874 11.7797C22.8545 12.9218 23.0895 14.7557 23.3325 16.1045C22.643 15.501 22.4523 13.9916 22.4728 12.567C22.4783 12.1802 22.6995 11.8978 22.9874 11.7797Z" fill="black" fill-opacity="0.2"/>
<path d="M16.4084 20.5248C20.1285 20.4802 19.4118 16.8946 17.9668 13.8096C17.3548 12.503 15.6 12.4993 14.9743 13.7993C13.4674 16.9301 12.6698 20.5696 16.4084 20.5248Z" fill="#F8BE3C"/>
<path d="M16.4255 18.0273C18.0484 18.0028 17.8155 16.2631 17.215 14.6877C16.9377 13.9601 15.9843 13.9575 15.6982 14.6817C15.0653 16.2833 14.7928 18.0519 16.4255 18.0273Z" fill="#79322C"/>
<path fill-rule="evenodd" clip-rule="evenodd" d="M16.3673 14.1397C15.9369 15.0151 15.5719 16.4142 15.3483 17.4805C15.0248 16.8379 15.2843 15.7214 15.6974 14.676C15.8263 14.3499 16.0905 14.1712 16.3673 14.1397Z" fill="black" fill-opacity="0.2"/>
<path d="M32.0861 3.34575C26.2328 2.38022 26.9262 8.85272 28.5371 13.922C28.974 15.297 30.699 15.6064 31.5914 14.4727C34.9416 10.2164 37.9584 4.31441 32.0861 3.34575Z" fill="#F8BE3C"/>
<path d="M31.4877 7.33236C28.9378 6.91987 29.0802 10.0545 29.6961 12.618C29.878 13.3751 30.819 13.5443 31.2563 12.9001C32.7661 10.6758 34.0478 7.74651 31.4877 7.33236Z" fill="#79322C"/>
<path fill-rule="evenodd" clip-rule="evenodd" d="M30.2603 13.2624C31.1825 12.2357 32.2106 10.0257 32.8735 8.37654C33.2176 9.52651 32.2896 11.383 31.2544 12.9081C31.0077 13.2715 30.6009 13.3761 30.2603 13.2624Z" fill="black" fill-opacity="0.2"/>
<path d="M34.8914 20.7728C40.7759 22.1717 40.5127 15.5144 39.2289 10.2523C38.887 8.85068 37.1877 8.42159 36.2168 9.4888C32.5051 13.5686 28.9882 19.3695 34.8914 20.7728Z" fill="#F8BE3C"/>
<path d="M35.9466 16.1742C37.9284 16.6388 38.0787 14.3039 37.7766 12.2226C37.6648 11.4521 36.74 11.2179 36.2715 11.8398C34.9801 13.5539 33.955 15.7072 35.9466 16.1742Z" fill="#79322C"/>
<path fill-rule="evenodd" clip-rule="evenodd" d="M37.1576 11.502C36.3696 12.3509 35.4684 13.9887 34.8637 15.2341C34.6599 14.3306 35.4064 12.983 36.2727 11.8331C36.5066 11.5227 36.8542 11.4256 37.1576 11.502Z" fill="black" fill-opacity="0.2"/>
</svg>
