<svg width="111" height="44" viewBox="0 0 111 44" fill="none" xmlns="http://www.w3.org/2000/svg">
<g clip-path="url(#clip0_2396_4876)">
<path d="M73.8895 11.4047L83.4767 27.6819C83.7076 28.0741 84.0371 28.4043 84.4354 28.6431L100.788 38.4434C101.995 39.1671 103.583 38.9166 104.499 37.8579L109.226 32.3932C110.018 31.4785 110.108 30.1841 109.449 29.188L96.277 9.25905C95.8761 8.65257 95.2399 8.22455 94.5072 8.06835L80.4527 5.07234C79.6708 4.90567 78.8492 5.06331 78.1898 5.5065L74.7498 7.81857C73.5425 8.62998 73.1699 10.1831 73.8895 11.4047Z" fill="#E47339" fill-opacity="0.7" stroke="white"/>
<path d="M76.9394 11.0186C76.9394 11.0186 83.0255 13.3694 86.3483 14.2604M86.3483 14.2604C90.6666 13.6501 93.3517 10.5464 93.3517 10.5464M86.3483 14.2604L100.481 34.9216" stroke="white" stroke-width="1.07958" stroke-linecap="round" stroke-linejoin="round"/>
<path d="M72.0892 11.7116L66.8803 5.76589C66.3009 5.1046 65.4672 4.72168 64.5888 4.71351L49.2373 4.57072C48.3067 4.56206 47.423 4.97473 46.8332 5.69335L39.9548 14.0742C38.9742 15.269 39.0342 17.0077 40.0949 18.136L45.5921 23.9836C46.1238 24.5493 46.8491 24.8938 47.6229 24.9484L61.2829 25.9109C62.2223 25.977 63.1395 25.6098 63.7725 24.9141L72.0543 15.8116C73.1069 14.6547 73.1219 12.8904 72.0892 11.7116Z" fill="#E47339" fill-opacity="0.7" stroke="white"/>
<path d="M63.2529 7.34229C63.2529 7.34229 58.0259 12.8647 57.082 15.5302M57.082 15.5302C57.7255 18.4018 60.976 23.2316 60.976 23.2316M57.082 15.5302L43.0446 15.8265" stroke="white" stroke-linecap="round" stroke-linejoin="round"/>
<path d="M5.71728 35.3462L24.4353 42.3838C24.9332 42.571 25.4735 42.6125 25.9928 42.5036L44.7636 38.5644C46.1113 38.2815 47.0453 37.0565 46.9621 35.6809L46.4045 26.4688C46.3343 25.3089 45.5522 24.3104 44.4414 23.9625L20.6908 16.5248C19.8856 16.2726 19.0113 16.3971 18.3121 16.8634L6.07369 25.0246C5.443 25.4452 5.01256 26.1056 4.88187 26.8532L3.93949 32.2434C3.70808 33.567 4.45574 34.8719 5.71728 35.3462Z" fill="#E47339" fill-opacity="0.7" stroke="white"/>
<path d="M7.89305 32.8332C7.89305 32.8332 13.9557 30.2223 16.9847 28.4507M16.9847 28.4507C19.6549 24.589 19.3641 19.7853 19.3641 19.7853M16.9847 28.4507L41.9509 35.795" stroke="white" stroke-width="1.07958" stroke-linecap="round" stroke-linejoin="round"/>
<path d="M64.4113 21.3736L49.506 27.5551C48.3244 28.0451 47.5796 29.2179 47.6371 30.4983L47.9981 38.5424C48.0647 40.0286 49.1885 41.266 50.6667 41.4809L71.0753 44.4482C71.6454 44.5311 72.2256 44.4536 72.7503 44.2244L87.3576 37.8447C88.3265 37.4216 89.0031 36.5285 89.1483 35.4811L90.1311 28.3919C90.3598 26.7417 89.2243 25.1962 87.5726 24.9095L66.1184 21.1856C65.5412 21.0854 64.9491 21.1506 64.4113 21.3736Z" fill="#E47339" fill-opacity="0.7" stroke="white"/>
<path d="M52.5469 29.8503C52.5469 29.8503 64.1808 32.0042 69.7179 31.9815M69.7179 31.9815C75.6012 30.8397 85.3891 27.4606 85.3891 27.4606M69.7179 31.9815L71.0226 41.3532" stroke="white" stroke-linecap="round" stroke-linejoin="round"/>
<path d="M19.461 3.70057L5.67271 7.07736C4.43473 7.38054 3.50853 8.41372 3.34257 9.67663L2.38281 16.9803C2.19145 18.4365 3.05492 19.8215 4.44541 20.2887L21.5744 26.0439C22.1456 26.2359 22.7613 26.2556 23.345 26.1007L36.9306 22.4939C37.9557 22.2218 38.7706 21.4422 39.0879 20.4303L41.0401 14.2044C41.5306 12.6402 40.7115 10.9703 39.1762 10.4045L21.2575 3.80153C20.6827 3.58972 20.0571 3.55457 19.461 3.70057Z" fill="#E47339" fill-opacity="0.7" stroke="white"/>
<path d="M7.81738 9.7323C7.81738 9.7323 17.6712 13.4958 22.5306 14.318M22.5306 14.318C27.8746 14.1582 37.0047 12.5242 37.0047 12.5242M22.5306 14.318L22.1588 23.1828" stroke="white" stroke-linecap="round" stroke-linejoin="round"/>
</g>
<defs>
<clipPath id="clip0_2396_4876">
<rect width="111" height="43" fill="white" transform="translate(-0.000976562 0.916016)"/>
</clipPath>
</defs>
</svg>
