<svg width="112" height="44" viewBox="0 0 112 44" fill="none" xmlns="http://www.w3.org/2000/svg">
<g clip-path="url(#clip0_2396_5014)">
<path d="M74.9402 11.1107L84.5274 27.388C84.7584 27.7801 85.0879 28.1104 85.4862 28.3491L101.838 38.1495C103.046 38.8732 104.634 38.6227 105.55 37.5639L110.277 32.0992C111.069 31.1845 111.159 29.8901 110.5 28.894L97.3278 8.9651C96.9269 8.35862 96.2907 7.9306 95.558 7.7744L81.5034 4.7784C80.7216 4.61173 79.8999 4.76937 79.2406 5.21255L75.8006 7.52463C74.5933 8.33604 74.2207 9.88915 74.9402 11.1107Z" fill="#FCF2E6" stroke="white"/>
<path d="M78.9902 10.7247C78.9902 10.7247 85.0762 13.0754 88.3991 13.9664M88.3991 13.9664C92.7174 13.3561 95.4025 10.2525 95.4025 10.2525M88.3991 13.9664L102.532 34.6277" stroke="white" stroke-width="1.07958" stroke-linecap="round" stroke-linejoin="round"/>
<path d="M72.14 11.4177L66.9311 5.47194C66.3517 4.81065 65.518 4.42774 64.6396 4.41957L49.2881 4.27677C48.3575 4.26812 47.4738 4.68079 46.884 5.3994L40.0056 13.7803C39.025 14.9751 39.0849 16.7137 40.1457 17.8421L45.6428 23.6897C46.1746 24.2554 46.8999 24.5999 47.6737 24.6544L61.3337 25.6169C62.2731 25.6831 63.1903 25.3159 63.8233 24.6201L72.1051 15.5177C73.1577 14.3607 73.1727 12.5964 72.14 11.4177Z" fill="#FCF2E6" stroke="white"/>
<path d="M63.3037 7.04834C63.3037 7.04834 58.0767 12.5708 57.1328 15.2362M57.1328 15.2362C57.7763 18.1078 61.0268 22.9376 61.0268 22.9376M57.1328 15.2362L43.0954 15.5326" stroke="white" stroke-linecap="round" stroke-linejoin="round"/>
<path d="M5.76806 35.0522L24.4861 42.0898C24.984 42.277 25.5243 42.3186 26.0435 42.2096L44.8144 38.2704C46.1621 37.9876 47.0961 36.7625 47.0129 35.387L46.4553 26.1749C46.3851 25.015 45.6029 24.0164 44.4922 23.6686L20.7416 16.2308C19.9364 15.9787 19.0621 16.1031 18.3628 16.5694L6.12447 24.7307C5.49378 25.1513 5.06335 25.8117 4.93265 26.5592L3.99027 31.9494C3.75886 33.273 4.50652 34.5779 5.76806 35.0522Z" fill="#FCF2E6" stroke="white"/>
<path d="M7.94383 32.5393C7.94383 32.5393 14.0065 29.9284 17.0355 28.1568M17.0355 28.1568C19.7056 24.2951 19.4149 19.4914 19.4149 19.4914M17.0355 28.1568L42.0016 35.5011" stroke="white" stroke-width="1.07958" stroke-linecap="round" stroke-linejoin="round"/>
<path d="M64.4621 21.0797L49.5568 27.2611C48.3751 27.7512 47.6304 28.924 47.6879 30.2043L48.0488 38.2484C48.1155 39.7346 49.2393 40.972 50.7175 41.187L71.126 44.1543C71.6962 44.2372 72.2764 44.1597 72.8011 43.9305L87.4084 37.5508C88.3773 37.1276 89.0539 36.2345 89.1991 35.1872L90.1818 28.0979C90.4106 26.4478 89.2751 24.9023 87.6234 24.6156L66.1692 20.8916C65.592 20.7914 64.9999 20.8567 64.4621 21.0797Z" fill="#FCF2E6" stroke="white"/>
<path d="M52.5977 29.5564C52.5977 29.5564 64.2316 31.7103 69.7687 31.6875M69.7687 31.6875C75.6519 30.5458 85.4399 27.1666 85.4399 27.1666M69.7687 31.6875L71.0734 41.0592" stroke="white" stroke-linecap="round" stroke-linejoin="round"/>
<path d="M19.5118 3.40662L5.72349 6.78341C4.48552 7.0866 3.55931 8.11978 3.39336 9.38268L2.43359 16.6863C2.24223 18.1426 3.1057 19.5276 4.49619 19.9948L21.6251 25.75C22.1964 25.942 22.8121 25.9617 23.3957 25.8067L36.9814 22.2C38.0065 21.9278 38.8214 21.1483 39.1387 20.1364L41.0909 13.9105C41.5814 12.3463 40.7622 10.6763 39.227 10.1106L21.3083 3.50758C20.7335 3.29578 20.1079 3.26062 19.5118 3.40662Z" fill="#FCF2E6" stroke="white"/>
<path d="M7.86816 9.43835C7.86816 9.43835 17.722 13.2019 22.5814 14.0241M22.5814 14.0241C27.9254 13.8643 37.0554 12.2302 37.0554 12.2302M22.5814 14.0241L22.2095 22.8889" stroke="white" stroke-linecap="round" stroke-linejoin="round"/>
</g>
<defs>
<clipPath id="clip0_2396_5014">
<rect width="111" height="43" fill="white" transform="translate(0.0498047 0.62207)"/>
</clipPath>
</defs>
</svg>
