<svg width="112" height="44" viewBox="0 0 112 44" fill="none" xmlns="http://www.w3.org/2000/svg">
<g clip-path="url(#clip0_2336_4558)">
<path d="M75.6932 7.81857C74.4859 8.62998 74.1133 10.1831 74.8328 11.4047L84.42 27.6819C84.651 28.0741 84.9805 28.4043 85.3788 28.6431L101.731 38.4434C102.939 39.1671 104.526 38.9166 105.442 37.8579L110.17 32.3932C110.961 31.4785 111.051 30.1841 110.393 29.188L97.2203 9.25904C96.8195 8.65257 96.1833 8.22455 95.4505 8.06835L81.396 5.07234C80.6142 4.90567 79.7925 5.06331 79.1331 5.5065L75.6932 7.81857Z" fill="#393B36" fill-opacity="0.7" stroke="white"/>
<path d="M77.8828 11.0186C77.8828 11.0186 83.9688 13.3694 87.2917 14.2604M87.2917 14.2604C91.61 13.6501 94.295 10.5464 94.295 10.5464M87.2917 14.2604L101.425 34.9216" stroke="white" stroke-width="1.07958" stroke-linecap="round" stroke-linejoin="round"/>
<path d="M72.9976 15.8116C74.0503 14.6547 74.0653 12.8904 73.0326 11.7116L67.8236 5.76589C67.2443 5.1046 66.4105 4.72168 65.5322 4.71351L50.1806 4.57072C49.2501 4.56206 48.3663 4.97473 47.7766 5.69335L40.8981 14.0742C39.9175 15.269 39.9775 17.0077 41.0383 18.136L46.5354 23.9836C47.0672 24.5493 47.7925 24.8938 48.5663 24.9484L62.2263 25.9109C63.1657 25.977 64.0829 25.6098 64.7159 24.9141L72.9976 15.8116Z" fill="#393B36" fill-opacity="0.7" stroke="white"/>
<path d="M64.1963 7.34229C64.1963 7.34229 58.9693 12.8647 58.0254 15.5302M58.0254 15.5302C58.6689 18.4018 61.9194 23.2316 61.9194 23.2316M58.0254 15.5302L43.988 15.8265" stroke="white" stroke-linecap="round" stroke-linejoin="round"/>
<path d="M4.88285 32.2434C4.65144 33.567 5.39909 34.8719 6.66063 35.3462L25.3787 42.3838C25.8766 42.571 26.4169 42.6125 26.9361 42.5036L45.707 38.5644C47.0547 38.2815 47.9887 37.0565 47.9054 35.6809L47.3479 26.4688C47.2777 25.3089 46.4955 24.3104 45.3848 23.9625L21.6342 16.5248C20.829 16.2726 19.9547 16.3971 19.2554 16.8634L7.01705 25.0246C6.38636 25.4452 5.95592 26.1056 5.82523 26.8532L4.88285 32.2434Z" fill="#393B36" fill-opacity="0.7" stroke="white"/>
<path d="M8.83641 32.8332C8.83641 32.8332 14.8991 30.2223 17.9281 28.4507M17.9281 28.4507C20.5982 24.589 20.3075 19.7853 20.3075 19.7853M17.9281 28.4507L42.8942 35.795" stroke="white" stroke-width="1.07958" stroke-linecap="round" stroke-linejoin="round"/>
<path d="M67.0618 21.1856C66.4846 21.0854 65.8925 21.1506 65.3547 21.3736L50.4494 27.5551C49.2677 28.0451 48.523 29.2179 48.5805 30.4983L48.9414 38.5424C49.0081 40.0286 50.1319 41.266 51.6101 41.4809L72.0186 44.4482C72.5887 44.5311 73.169 44.4536 73.6937 44.2244L88.3009 37.8447C89.2699 37.4216 89.9465 36.5285 90.0917 35.4811L91.0744 28.3919C91.3032 26.7417 90.1677 25.1962 88.5159 24.9095L67.0618 21.1856Z" fill="#393B36" fill-opacity="0.7" stroke="white"/>
<path d="M53.4902 29.8503C53.4902 29.8503 65.1242 32.0042 70.6612 31.9815M70.6612 31.9815C76.5445 30.8397 86.3325 27.4606 86.3325 27.4606M70.6612 31.9815L71.966 41.3532" stroke="white" stroke-linecap="round" stroke-linejoin="round"/>
<path d="M22.2008 3.80153C21.6261 3.58972 21.0005 3.55457 20.4043 3.70057L6.61607 7.07736C5.37809 7.38054 4.45189 8.41372 4.28593 9.67663L3.32617 16.9803C3.13481 18.4365 3.99828 19.8215 5.38877 20.2887L22.5177 26.044C23.089 26.2359 23.7047 26.2556 24.2883 26.1007L37.874 22.4939C38.8991 22.2218 39.714 21.4422 40.0313 20.4303L41.9835 14.2044C42.4739 12.6402 41.6548 10.9703 40.1196 10.4045L22.2008 3.80153Z" fill="#393B36" fill-opacity="0.7" stroke="white"/>
<path d="M8.76074 9.7323C8.76074 9.7323 18.6146 13.4958 23.474 14.318M23.474 14.318C28.8179 14.1582 37.948 12.5242 37.948 12.5242M23.474 14.318L23.1021 23.1828" stroke="white" stroke-linecap="round" stroke-linejoin="round"/>
</g>
<defs>
<clipPath id="clip0_2336_4558">
<rect width="111" height="43" fill="white" transform="translate(0.942383 0.916016)"/>
</clipPath>
</defs>
</svg>
