<svg width="241" height="66" viewBox="0 0 241 66" fill="none" xmlns="http://www.w3.org/2000/svg">
<path d="M219.544 12.47C216.634 4.98 209.104 0 200.684 0H121.284H119.164H39.6441C31.2241 0 23.6941 4.98 20.7841 12.47L0.164062 65.51H119.174H121.294H240.164L219.544 12.47Z" fill="#F7C6F2"/>
<mask id="path-2-outside-1_2404_5825" maskUnits="userSpaceOnUse" x="77.1641" y="16.755" width="90" height="33" fill="black">
<rect fill="white" x="77.1641" y="16.755" width="90" height="33"/>
<path d="M82.3401 44.755V22.195H87.4601L94.8521 38.739H93.7961L101.156 22.195H106.308V44.755H100.964V30.931H102.34L95.9401 44.755H92.6121L86.1801 30.931H87.6521V44.755H82.3401ZM110.525 44.755V22.195H116.445V44.755H110.525ZM120.619 44.755V22.195H126.539V39.859H136.203V44.755H120.619ZM139.119 44.755V22.195H145.039V31.859H145.103L153.743 22.195H160.655L149.711 34.067V31.731L161.263 44.755H154.127L145.103 34.579H145.039V44.755H139.119Z"/>
</mask>
<path d="M82.3401 44.755V22.195H87.4601L94.8521 38.739H93.7961L101.156 22.195H106.308V44.755H100.964V30.931H102.34L95.9401 44.755H92.6121L86.1801 30.931H87.6521V44.755H82.3401ZM110.525 44.755V22.195H116.445V44.755H110.525ZM120.619 44.755V22.195H126.539V39.859H136.203V44.755H120.619ZM139.119 44.755V22.195H145.039V31.859H145.103L153.743 22.195H160.655L149.711 34.067V31.731L161.263 44.755H154.127L145.103 34.579H145.039V44.755H139.119Z" fill="#5082FF"/>
<path d="M82.3401 44.755H77.3401C77.3401 47.5164 79.5786 49.755 82.3401 49.755V44.755ZM82.3401 22.195V17.195C79.5786 17.195 77.3401 19.4336 77.3401 22.195H82.3401ZM87.4601 22.195L92.0251 20.1553C91.2205 18.3545 89.4324 17.195 87.4601 17.195V22.195ZM94.8521 38.739V43.739C96.5463 43.739 98.1254 42.881 99.0472 41.4594C99.969 40.0379 100.108 38.2462 99.4171 36.6993L94.8521 38.739ZM93.7961 38.739L89.2277 36.7067C88.5396 38.2534 88.6809 40.0432 89.6031 41.4628C90.5253 42.8824 92.1032 43.739 93.7961 43.739V38.739ZM101.156 22.195V17.195C99.1808 17.195 97.3906 18.3579 96.5877 20.1627L101.156 22.195ZM106.308 22.195H111.308C111.308 19.4336 109.069 17.195 106.308 17.195V22.195ZM106.308 44.755V49.755C109.069 49.755 111.308 47.5164 111.308 44.755H106.308ZM100.964 44.755H95.9641C95.9641 47.5164 98.2026 49.755 100.964 49.755V44.755ZM100.964 30.931V25.931C98.2026 25.931 95.9641 28.1696 95.9641 30.931H100.964ZM102.34 30.931L106.877 33.0316C107.594 31.4833 107.472 29.6764 106.553 28.2387C105.635 26.801 104.046 25.931 102.34 25.931V30.931ZM95.9401 44.755V49.755C97.8882 49.755 99.6589 48.6235 100.477 46.8556L95.9401 44.755ZM92.6121 44.755L88.0787 46.8643C88.8991 48.6274 90.6674 49.755 92.6121 49.755V44.755ZM86.1801 30.931V25.931C84.4722 25.931 82.8825 26.8027 81.9642 28.2427C81.046 29.6827 80.9263 31.4918 81.6467 33.0403L86.1801 30.931ZM87.6521 30.931H92.6521C92.6521 28.1696 90.4135 25.931 87.6521 25.931V30.931ZM87.6521 44.755V49.755C90.4135 49.755 92.6521 47.5164 92.6521 44.755H87.6521ZM87.3401 44.755V22.195H77.3401V44.755H87.3401ZM82.3401 27.195H87.4601V17.195H82.3401V27.195ZM82.895 24.2347L90.287 40.7787L99.4171 36.6993L92.0251 20.1553L82.895 24.2347ZM94.8521 33.739H93.7961V43.739H94.8521V33.739ZM98.3644 40.7713L105.724 24.2273L96.5877 20.1627L89.2277 36.7067L98.3644 40.7713ZM101.156 27.195H106.308V17.195H101.156V27.195ZM101.308 22.195V44.755H111.308V22.195H101.308ZM106.308 39.755H100.964V49.755H106.308V39.755ZM105.964 44.755V30.931H95.9641V44.755H105.964ZM100.964 35.931H102.34V25.931H100.964V35.931ZM97.8027 28.8304L91.4027 42.6544L100.477 46.8556L106.877 33.0316L97.8027 28.8304ZM95.9401 39.755H92.6121V49.755H95.9401V39.755ZM97.1454 42.6457L90.7134 28.8217L81.6467 33.0403L88.0787 46.8643L97.1454 42.6457ZM86.1801 35.931H87.6521V25.931H86.1801V35.931ZM82.6521 30.931V44.755H92.6521V30.931H82.6521ZM87.6521 39.755H82.3401V49.755H87.6521V39.755ZM110.525 44.755H105.525C105.525 47.5164 107.764 49.755 110.525 49.755V44.755ZM110.525 22.195V17.195C107.764 17.195 105.525 19.4336 105.525 22.195H110.525ZM116.445 22.195H121.445C121.445 19.4336 119.207 17.195 116.445 17.195V22.195ZM116.445 44.755V49.755C119.207 49.755 121.445 47.5164 121.445 44.755H116.445ZM115.525 44.755V22.195H105.525V44.755H115.525ZM110.525 27.195H116.445V17.195H110.525V27.195ZM111.445 22.195V44.755H121.445V22.195H111.445ZM116.445 39.755H110.525V49.755H116.445V39.755ZM120.619 44.755H115.619C115.619 47.5164 117.858 49.755 120.619 49.755V44.755ZM120.619 22.195V17.195C117.858 17.195 115.619 19.4336 115.619 22.195H120.619ZM126.539 22.195H131.539C131.539 19.4336 129.3 17.195 126.539 17.195V22.195ZM126.539 39.859H121.539C121.539 42.6204 123.778 44.859 126.539 44.859V39.859ZM136.203 39.859H141.203C141.203 37.0976 138.964 34.859 136.203 34.859V39.859ZM136.203 44.755V49.755C138.964 49.755 141.203 47.5164 141.203 44.755H136.203ZM125.619 44.755V22.195H115.619V44.755H125.619ZM120.619 27.195H126.539V17.195H120.619V27.195ZM121.539 22.195V39.859H131.539V22.195H121.539ZM126.539 44.859H136.203V34.859H126.539V44.859ZM131.203 39.859V44.755H141.203V39.859H131.203ZM136.203 39.755H120.619V49.755H136.203V39.755ZM139.119 44.755H134.119C134.119 47.5164 136.358 49.755 139.119 49.755V44.755ZM139.119 22.195V17.195C136.358 17.195 134.119 19.4336 134.119 22.195H139.119ZM145.039 22.195H150.039C150.039 19.4336 147.8 17.195 145.039 17.195V22.195ZM145.039 31.859H140.039C140.039 34.6204 142.278 36.859 145.039 36.859V31.859ZM145.103 31.859V36.859C146.526 36.859 147.882 36.2525 148.831 35.1915L145.103 31.859ZM153.743 22.195V17.195C152.32 17.195 150.964 17.8015 150.016 18.8625L153.743 22.195ZM160.655 22.195L164.331 25.5839C165.677 24.1242 166.032 22.0065 165.235 20.1881C164.438 18.3697 162.64 17.195 160.655 17.195V22.195ZM149.711 34.067H144.711C144.711 36.1264 145.974 37.9751 147.892 38.7243C149.81 39.4736 151.992 38.9701 153.387 37.4559L149.711 34.067ZM149.711 31.731L153.452 28.4132C152.074 26.8594 149.878 26.3194 147.937 27.0564C145.995 27.7935 144.711 29.6541 144.711 31.731H149.711ZM161.263 44.755V49.755C163.231 49.755 165.016 48.6006 165.823 46.8057C166.63 45.0109 166.31 42.9095 165.004 41.4372L161.263 44.755ZM154.127 44.755L150.386 48.0724C151.335 49.1425 152.697 49.755 154.127 49.755V44.755ZM145.103 34.579L148.844 31.2616C147.895 30.1915 146.533 29.579 145.103 29.579V34.579ZM145.039 34.579V29.579C142.278 29.579 140.039 31.8176 140.039 34.579H145.039ZM145.039 44.755V49.755C147.8 49.755 150.039 47.5164 150.039 44.755H145.039ZM144.119 44.755V22.195H134.119V44.755H144.119ZM139.119 27.195H145.039V17.195H139.119V27.195ZM140.039 22.195V31.859H150.039V22.195H140.039ZM145.039 36.859H145.103V26.859H145.039V36.859ZM148.831 35.1915L157.471 25.5275L150.016 18.8625L141.376 28.5265L148.831 35.1915ZM153.743 27.195H160.655V17.195H153.743V27.195ZM156.979 18.8061L146.035 30.6781L153.387 37.4559L164.331 25.5839L156.979 18.8061ZM154.711 34.067V31.731H144.711V34.067H154.711ZM145.97 35.0488L157.522 48.0728L165.004 41.4372L153.452 28.4132L145.97 35.0488ZM161.263 39.755H154.127V49.755H161.263V39.755ZM157.868 41.4376L148.844 31.2616L141.362 37.8964L150.386 48.0724L157.868 41.4376ZM145.103 29.579H145.039V39.579H145.103V29.579ZM140.039 34.579V44.755H150.039V34.579H140.039ZM145.039 39.755H139.119V49.755H145.039V39.755Z" fill="white" mask="url(#path-2-outside-1_2404_5825)"/>
</svg>
