<svg width="241" height="66" viewBox="0 0 241 66" fill="none" xmlns="http://www.w3.org/2000/svg">
<path d="M219.448 12.96C216.538 5.46999 209.008 0.48999 200.588 0.48999H121.188H119.068H39.5484C31.1284 0.48999 23.5984 5.46999 20.6884 12.96L0.0683594 66H119.078H121.198H240.068L219.448 12.96Z" fill="white"/>
<mask id="path-2-outside-1_2404_5810" maskUnits="userSpaceOnUse" x="77.0684" y="8.8335" width="90" height="33" fill="black">
<rect fill="white" x="77.0684" y="8.8335" width="90" height="33"/>
<path d="M82.2444 36.8335V14.2735H87.3644L94.7564 30.8175H93.7004L101.06 14.2735H106.212V36.8335H100.868V23.0095H102.244L95.8444 36.8335H92.5164L86.0844 23.0095H87.5564V36.8335H82.2444ZM110.43 36.8335V14.2735H116.35V36.8335H110.43ZM120.523 36.8335V14.2735H126.443V31.9375H136.107V36.8335H120.523ZM139.023 36.8335V14.2735H144.943V23.9375H145.007L153.647 14.2735H160.559L149.615 26.1455V23.8095L161.167 36.8335H154.031L145.007 26.6575H144.943V36.8335H139.023Z"/>
</mask>
<path d="M82.2444 36.8335V14.2735H87.3644L94.7564 30.8175H93.7004L101.06 14.2735H106.212V36.8335H100.868V23.0095H102.244L95.8444 36.8335H92.5164L86.0844 23.0095H87.5564V36.8335H82.2444ZM110.43 36.8335V14.2735H116.35V36.8335H110.43ZM120.523 36.8335V14.2735H126.443V31.9375H136.107V36.8335H120.523ZM139.023 36.8335V14.2735H144.943V23.9375H145.007L153.647 14.2735H160.559L149.615 26.1455V23.8095L161.167 36.8335H154.031L145.007 26.6575H144.943V36.8335H139.023Z" fill="#7AA2FC"/>
<path d="M82.2444 36.8335H77.2444C77.2444 39.5949 79.4829 41.8335 82.2444 41.8335V36.8335ZM82.2444 14.2735V9.27349C79.4829 9.27349 77.2444 11.5121 77.2444 14.2735H82.2444ZM87.3644 14.2735L91.9294 12.2338C91.1248 10.433 89.3367 9.27349 87.3644 9.27349V14.2735ZM94.7564 30.8175V35.8175C96.4506 35.8175 98.0297 34.9595 98.9515 33.5379C99.8733 32.1164 100.013 30.3247 99.3214 28.7778L94.7564 30.8175ZM93.7004 30.8175L89.132 28.7852C88.4439 30.3319 88.5852 32.1217 89.5074 33.5413C90.4296 34.9609 92.0075 35.8175 93.7004 35.8175V30.8175ZM101.06 14.2735V9.27349C99.0851 9.27349 97.2949 10.4364 96.492 12.2412L101.06 14.2735ZM106.212 14.2735H111.212C111.212 11.5121 108.974 9.27349 106.212 9.27349V14.2735ZM106.212 36.8335V41.8335C108.974 41.8335 111.212 39.5949 111.212 36.8335H106.212ZM100.868 36.8335H95.8684C95.8684 39.5949 98.1069 41.8335 100.868 41.8335V36.8335ZM100.868 23.0095V18.0095C98.1069 18.0095 95.8684 20.2481 95.8684 23.0095H100.868ZM102.244 23.0095L106.782 25.1101C107.498 23.5618 107.376 21.7549 106.458 20.3172C105.539 18.8795 103.951 18.0095 102.244 18.0095V23.0095ZM95.8444 36.8335V41.8335C97.7925 41.8335 99.5632 40.702 100.382 38.9341L95.8444 36.8335ZM92.5164 36.8335L87.983 38.9428C88.8034 40.7059 90.5717 41.8335 92.5164 41.8335V36.8335ZM86.0844 23.0095V18.0095C84.3765 18.0095 82.7868 18.8812 81.8685 20.3212C80.9503 21.7612 80.8306 23.5703 81.551 25.1188L86.0844 23.0095ZM87.5564 23.0095H92.5564C92.5564 20.2481 90.3178 18.0095 87.5564 18.0095V23.0095ZM87.5564 36.8335V41.8335C90.3178 41.8335 92.5564 39.5949 92.5564 36.8335H87.5564ZM87.2444 36.8335V14.2735H77.2444V36.8335H87.2444ZM82.2444 19.2735H87.3644V9.27349H82.2444V19.2735ZM82.7993 16.3132L90.1913 32.8572L99.3214 28.7778L91.9294 12.2338L82.7993 16.3132ZM94.7564 25.8175H93.7004V35.8175H94.7564V25.8175ZM98.2687 32.8498L105.629 16.3058L96.492 12.2412L89.132 28.7852L98.2687 32.8498ZM101.06 19.2735H106.212V9.27349H101.06V19.2735ZM101.212 14.2735V36.8335H111.212V14.2735H101.212ZM106.212 31.8335H100.868V41.8335H106.212V31.8335ZM105.868 36.8335V23.0095H95.8684V36.8335H105.868ZM100.868 28.0095H102.244V18.0095H100.868V28.0095ZM97.707 20.9089L91.307 34.7329L100.382 38.9341L106.782 25.1101L97.707 20.9089ZM95.8444 31.8335H92.5164V41.8335H95.8444V31.8335ZM97.0497 34.7242L90.6177 20.9002L81.551 25.1188L87.983 38.9428L97.0497 34.7242ZM86.0844 28.0095H87.5564V18.0095H86.0844V28.0095ZM82.5564 23.0095V36.8335H92.5564V23.0095H82.5564ZM87.5564 31.8335H82.2444V41.8335H87.5564V31.8335ZM110.43 36.8335H105.43C105.43 39.5949 107.668 41.8335 110.43 41.8335V36.8335ZM110.43 14.2735V9.27349C107.668 9.27349 105.43 11.5121 105.43 14.2735H110.43ZM116.35 14.2735H121.35C121.35 11.5121 119.111 9.27349 116.35 9.27349V14.2735ZM116.35 36.8335V41.8335C119.111 41.8335 121.35 39.5949 121.35 36.8335H116.35ZM115.43 36.8335V14.2735H105.43V36.8335H115.43ZM110.43 19.2735H116.35V9.27349H110.43V19.2735ZM111.35 14.2735V36.8335H121.35V14.2735H111.35ZM116.35 31.8335H110.43V41.8335H116.35V31.8335ZM120.523 36.8335H115.523C115.523 39.5949 117.762 41.8335 120.523 41.8335V36.8335ZM120.523 14.2735V9.27349C117.762 9.27349 115.523 11.5121 115.523 14.2735H120.523ZM126.443 14.2735H131.443C131.443 11.5121 129.205 9.27349 126.443 9.27349V14.2735ZM126.443 31.9375H121.443C121.443 34.6989 123.682 36.9375 126.443 36.9375V31.9375ZM136.107 31.9375H141.107C141.107 29.1761 138.869 26.9375 136.107 26.9375V31.9375ZM136.107 36.8335V41.8335C138.869 41.8335 141.107 39.5949 141.107 36.8335H136.107ZM125.523 36.8335V14.2735H115.523V36.8335H125.523ZM120.523 19.2735H126.443V9.27349H120.523V19.2735ZM121.443 14.2735V31.9375H131.443V14.2735H121.443ZM126.443 36.9375H136.107V26.9375H126.443V36.9375ZM131.107 31.9375V36.8335H141.107V31.9375H131.107ZM136.107 31.8335H120.523V41.8335H136.107V31.8335ZM139.023 36.8335H134.023C134.023 39.5949 136.262 41.8335 139.023 41.8335V36.8335ZM139.023 14.2735V9.27349C136.262 9.27349 134.023 11.5121 134.023 14.2735H139.023ZM144.943 14.2735H149.943C149.943 11.5121 147.705 9.27349 144.943 9.27349V14.2735ZM144.943 23.9375H139.943C139.943 26.6989 142.182 28.9375 144.943 28.9375V23.9375ZM145.007 23.9375V28.9375C146.431 28.9375 147.786 28.331 148.735 27.27L145.007 23.9375ZM153.647 14.2735V9.27349C152.224 9.27349 150.868 9.87998 149.92 10.941L153.647 14.2735ZM160.559 14.2735L164.236 17.6624C165.581 16.2027 165.936 14.085 165.139 12.2666C164.342 10.4482 162.545 9.27349 160.559 9.27349V14.2735ZM149.615 26.1455H144.615C144.615 28.2049 145.878 30.0536 147.796 30.8028C149.714 31.5521 151.896 31.0486 153.292 29.5344L149.615 26.1455ZM149.615 23.8095L153.356 20.4917C151.978 18.9379 149.783 18.3979 147.841 19.1349C145.899 19.872 144.615 21.7326 144.615 23.8095H149.615ZM161.167 36.8335V41.8335C163.135 41.8335 164.92 40.6791 165.727 38.8842C166.535 37.0894 166.214 34.988 164.908 33.5157L161.167 36.8335ZM154.031 36.8335L150.29 40.1509C151.239 41.221 152.601 41.8335 154.031 41.8335V36.8335ZM145.007 26.6575L148.748 23.3401C147.799 22.27 146.438 21.6575 145.007 21.6575V26.6575ZM144.943 26.6575V21.6575C142.182 21.6575 139.943 23.8961 139.943 26.6575H144.943ZM144.943 36.8335V41.8335C147.705 41.8335 149.943 39.5949 149.943 36.8335H144.943ZM144.023 36.8335V14.2735H134.023V36.8335H144.023ZM139.023 19.2735H144.943V9.27349H139.023V19.2735ZM139.943 14.2735V23.9375H149.943V14.2735H139.943ZM144.943 28.9375H145.007V18.9375H144.943V28.9375ZM148.735 27.27L157.375 17.606L149.92 10.941L141.28 20.605L148.735 27.27ZM153.647 19.2735H160.559V9.27349H153.647V19.2735ZM156.883 10.8846L145.939 22.7566L153.292 29.5344L164.236 17.6624L156.883 10.8846ZM154.615 26.1455V23.8095H144.615V26.1455H154.615ZM145.875 27.1273L157.427 40.1513L164.908 33.5157L153.356 20.4917L145.875 27.1273ZM161.167 31.8335H154.031V41.8335H161.167V31.8335ZM157.772 33.5161L148.748 23.3401L141.266 29.9749L150.29 40.1509L157.772 33.5161ZM145.007 21.6575H144.943V31.6575H145.007V21.6575ZM139.943 26.6575V36.8335H149.943V26.6575H139.943ZM144.943 31.8335H139.023V41.8335H144.943V31.8335Z" fill="white" mask="url(#path-2-outside-1_2404_5810)"/>
</svg>
