<svg width="241" height="66" viewBox="0 0 241 66" fill="none" xmlns="http://www.w3.org/2000/svg">
<path d="M219.562 12.5244C216.652 5.03438 209.122 0.0543823 200.702 0.0543823H121.302H119.182H39.6616C31.2416 0.0543823 23.7116 5.03438 20.8016 12.5244L0.181641 65.5644H119.192H121.312H240.182L219.562 12.5244Z" fill="#F7C6F2"/>
<mask id="path-2-outside-1_2404_5805" maskUnits="userSpaceOnUse" x="83.1816" y="16.8094" width="75" height="33" fill="black">
<rect fill="white" x="83.1816" y="16.8094" width="75" height="33"/>
<path d="M95.4136 44.8094V27.0174H88.5656V22.2494H108.182V27.0174H101.334V44.8094H95.4136ZM110.668 44.8094V22.2494H126.86V26.7614H116.332V31.0814H126.092V35.6254H116.332V40.2654H126.86V44.8094H110.668ZM126.821 44.8094L137.381 22.2494H142.181L152.805 44.8094H146.885L144.165 38.6014L146.437 40.2334H133.189L135.429 38.6014L132.741 44.8094H126.821ZM139.749 28.3294L136.005 37.2574L135.109 35.7534H144.485L143.685 37.2574L139.909 28.3294H139.749Z"/>
</mask>
<path d="M95.4136 44.8094V27.0174H88.5656V22.2494H108.182V27.0174H101.334V44.8094H95.4136ZM110.668 44.8094V22.2494H126.86V26.7614H116.332V31.0814H126.092V35.6254H116.332V40.2654H126.86V44.8094H110.668ZM126.821 44.8094L137.381 22.2494H142.181L152.805 44.8094H146.885L144.165 38.6014L146.437 40.2334H133.189L135.429 38.6014L132.741 44.8094H126.821ZM139.749 28.3294L136.005 37.2574L135.109 35.7534H144.485L143.685 37.2574L139.909 28.3294H139.749Z" fill="#5082FF"/>
<path d="M95.4136 44.8094H90.4136C90.4136 47.5708 92.6522 49.8094 95.4136 49.8094V44.8094ZM95.4136 27.0174H100.414C100.414 24.256 98.1751 22.0174 95.4136 22.0174V27.0174ZM88.5656 27.0174H83.5656C83.5656 29.7788 85.8042 32.0174 88.5656 32.0174V27.0174ZM88.5656 22.2494V17.2494C85.8042 17.2494 83.5656 19.488 83.5656 22.2494H88.5656ZM108.182 22.2494H113.182C113.182 19.488 110.943 17.2494 108.182 17.2494V22.2494ZM108.182 27.0174V32.0174C110.943 32.0174 113.182 29.7788 113.182 27.0174H108.182ZM101.334 27.0174V22.0174C98.5722 22.0174 96.3336 24.256 96.3336 27.0174H101.334ZM101.334 44.8094V49.8094C104.095 49.8094 106.334 47.5708 106.334 44.8094H101.334ZM100.414 44.8094V27.0174H90.4136V44.8094H100.414ZM95.4136 22.0174H88.5656V32.0174H95.4136V22.0174ZM93.5656 27.0174V22.2494H83.5656V27.0174H93.5656ZM88.5656 27.2494H108.182V17.2494H88.5656V27.2494ZM103.182 22.2494V27.0174H113.182V22.2494H103.182ZM108.182 22.0174H101.334V32.0174H108.182V22.0174ZM96.3336 27.0174V44.8094H106.334V27.0174H96.3336ZM101.334 39.8094H95.4136V49.8094H101.334V39.8094ZM110.668 44.8094H105.668C105.668 47.5708 107.906 49.8094 110.668 49.8094V44.8094ZM110.668 22.2494V17.2494C107.906 17.2494 105.668 19.488 105.668 22.2494H110.668ZM126.86 22.2494H131.86C131.86 19.488 129.621 17.2494 126.86 17.2494V22.2494ZM126.86 26.7614V31.7614C129.621 31.7614 131.86 29.5228 131.86 26.7614H126.86ZM116.332 26.7614V21.7614C113.57 21.7614 111.332 24 111.332 26.7614H116.332ZM116.332 31.0814H111.332C111.332 33.8428 113.57 36.0814 116.332 36.0814V31.0814ZM126.092 31.0814H131.092C131.092 28.32 128.853 26.0814 126.092 26.0814V31.0814ZM126.092 35.6254V40.6254C128.853 40.6254 131.092 38.3868 131.092 35.6254H126.092ZM116.332 35.6254V30.6254C113.57 30.6254 111.332 32.864 111.332 35.6254H116.332ZM116.332 40.2654H111.332C111.332 43.0268 113.57 45.2654 116.332 45.2654V40.2654ZM126.86 40.2654H131.86C131.86 37.504 129.621 35.2654 126.86 35.2654V40.2654ZM126.86 44.8094V49.8094C129.621 49.8094 131.86 47.5708 131.86 44.8094H126.86ZM115.668 44.8094V22.2494H105.668V44.8094H115.668ZM110.668 27.2494H126.86V17.2494H110.668V27.2494ZM121.86 22.2494V26.7614H131.86V22.2494H121.86ZM126.86 21.7614H116.332V31.7614H126.86V21.7614ZM111.332 26.7614V31.0814H121.332V26.7614H111.332ZM116.332 36.0814H126.092V26.0814H116.332V36.0814ZM121.092 31.0814V35.6254H131.092V31.0814H121.092ZM126.092 30.6254H116.332V40.6254H126.092V30.6254ZM111.332 35.6254V40.2654H121.332V35.6254H111.332ZM116.332 45.2654H126.86V35.2654H116.332V45.2654ZM121.86 40.2654V44.8094H131.86V40.2654H121.86ZM126.86 39.8094H110.668V49.8094H126.86V39.8094ZM126.821 44.8094L122.293 42.6897C121.568 44.2383 121.685 46.05 122.602 47.4928C123.52 48.9356 125.111 49.8094 126.821 49.8094V44.8094ZM137.381 22.2494V17.2494C135.441 17.2494 133.676 18.3722 132.853 20.1297L137.381 22.2494ZM142.181 22.2494L146.705 20.1192C145.88 18.3674 144.118 17.2494 142.181 17.2494V22.2494ZM152.805 44.8094V49.8094C154.517 49.8094 156.11 48.9335 157.027 47.4879C157.945 46.0423 158.058 44.228 157.329 42.6792L152.805 44.8094ZM146.885 44.8094L142.306 46.816C143.103 48.6346 144.9 49.8094 146.885 49.8094V44.8094ZM144.165 38.6014L147.082 34.5405C145.253 33.2264 142.771 33.2978 141.02 34.7148C139.269 36.1319 138.682 38.5448 139.586 40.608L144.165 38.6014ZM146.437 40.2334V45.2334C148.609 45.2334 150.532 43.8323 151.197 41.7656C151.862 39.6989 151.118 37.4391 149.354 36.1725L146.437 40.2334ZM133.189 40.2334L130.245 36.1922C128.495 37.467 127.765 39.7231 128.435 41.7816C129.105 43.8401 131.024 45.2334 133.189 45.2334V40.2334ZM135.429 38.6014L140.018 40.5881C140.914 38.519 140.314 36.1063 138.553 34.6975C136.793 33.2887 134.307 33.2325 132.485 34.5602L135.429 38.6014ZM132.741 44.8094V49.8094C134.735 49.8094 136.538 48.6254 137.33 46.7961L132.741 44.8094ZM139.749 28.3294V23.3294C137.735 23.3294 135.917 24.5381 135.138 26.3958L139.749 28.3294ZM136.005 37.2574L131.71 39.8164C132.676 41.438 134.473 42.3773 136.356 42.2451C138.238 42.1129 139.886 40.9317 140.616 39.191L136.005 37.2574ZM135.109 35.7534V30.7534C133.311 30.7534 131.651 31.7194 130.762 33.2831C129.874 34.8468 129.893 36.7673 130.814 38.3124L135.109 35.7534ZM144.485 35.7534L148.9 38.1015C149.724 36.5517 149.675 34.6832 148.771 33.1785C147.867 31.6739 146.241 30.7534 144.485 30.7534V35.7534ZM143.685 37.2574L139.08 39.205C139.832 40.9811 141.537 42.1669 143.464 42.2525C145.39 42.338 147.194 41.308 148.1 39.6055L143.685 37.2574ZM139.909 28.3294L144.514 26.3817C143.732 24.5316 141.918 23.3294 139.909 23.3294V28.3294ZM131.35 46.9291L141.91 24.3691L132.853 20.1297L122.293 42.6897L131.35 46.9291ZM137.381 27.2494H142.181V17.2494H137.381V27.2494ZM137.658 24.3796L148.282 46.9396L157.329 42.6792L146.705 20.1192L137.658 24.3796ZM152.805 39.8094H146.885V49.8094H152.805V39.8094ZM151.465 42.8028L148.745 36.5948L139.586 40.608L142.306 46.816L151.465 42.8028ZM141.248 42.6623L143.52 44.2943L149.354 36.1725L147.082 34.5405L141.248 42.6623ZM146.437 35.2334H133.189V45.2334H146.437V35.2334ZM136.134 44.2746L138.374 42.6426L132.485 34.5602L130.245 36.1922L136.134 44.2746ZM130.841 36.6147L128.153 42.8227L137.33 46.7961L140.018 40.5881L130.841 36.6147ZM132.741 39.8094H126.821V49.8094H132.741V39.8094ZM135.138 26.3958L131.394 35.3238L140.616 39.191L144.36 30.263L135.138 26.3958ZM140.301 34.6984L139.405 33.1944L130.814 38.3124L131.71 39.8164L140.301 34.6984ZM135.109 40.7534H144.485V30.7534H135.109V40.7534ZM140.071 33.4053L139.271 34.9093L148.1 39.6055L148.9 38.1015L140.071 33.4053ZM148.29 35.3097L144.514 26.3817L135.304 30.277L139.08 39.205L148.29 35.3097ZM139.909 23.3294H139.749V33.3294H139.909V23.3294Z" fill="white" mask="url(#path-2-outside-1_2404_5805)"/>
</svg>
