<svg width="241" height="66" viewBox="0 0 241 66" fill="none" xmlns="http://www.w3.org/2000/svg">
<path d="M219.544 12.47C216.634 4.98 209.104 0 200.684 0H121.284H119.164H39.6441C31.2241 0 23.6941 4.98 20.7841 12.47L0.164062 65.51H119.174H121.294H240.164L219.544 12.47Z" fill="#F7C6F2"/>
<mask id="path-2-outside-1_2404_5825" maskUnits="userSpaceOnUse" x="41.1641" y="16.755" width="156" height="34" fill="black">
<rect fill="white" x="41.1641" y="16.755" width="156" height="34"/>
<path d="M53.3961 44.755V26.963H46.5481V22.195H66.1641V26.963H59.3161V44.755H53.3961ZM66.7298 33.459C66.7298 31.1123 67.1885 29.075 68.1058 27.347C69.0231 25.5977 70.3351 24.243 72.0418 23.283C73.7485 22.323 75.7645 21.843 78.0898 21.843C80.4365 21.843 82.4631 22.323 84.1698 23.283C85.8765 24.243 87.1885 25.5977 88.1058 27.347C89.0445 29.075 89.5138 31.1123 89.5138 33.459C89.5138 35.7843 89.0445 37.8217 88.1058 39.571C87.1885 41.3203 85.8765 42.6857 84.1698 43.667C82.4631 44.627 80.4365 45.107 78.0898 45.107C75.7645 45.107 73.7485 44.627 72.0418 43.667C70.3565 42.6857 69.0445 41.3203 68.1058 39.571C67.1885 37.8217 66.7298 35.7843 66.7298 33.459ZM72.9058 33.459C72.9058 35.571 73.3325 37.2243 74.1858 38.419C75.0391 39.5923 76.3405 40.179 78.0898 40.179C79.8391 40.179 81.1511 39.5923 82.0258 38.419C82.9005 37.2243 83.3378 35.571 83.3378 33.459C83.3378 31.347 82.9005 29.7043 82.0258 28.531C81.1511 27.3577 79.8391 26.771 78.0898 26.771C76.3405 26.771 75.0391 27.3577 74.1858 28.531C73.3325 29.683 72.9058 31.3257 72.9058 33.459ZM93.0566 44.755V22.195H104.129C106.731 22.195 108.694 22.835 110.017 24.115C111.339 25.3737 112.001 27.091 112.001 29.267C112.001 31.4217 111.339 33.139 110.017 34.419C108.694 35.699 106.731 36.339 104.129 36.339H98.9766V44.755H93.0566ZM98.9766 31.795H103.361C104.363 31.795 105.11 31.5817 105.601 31.155C106.091 30.707 106.337 30.0777 106.337 29.267C106.337 28.4563 106.091 27.827 105.601 27.379C105.11 26.931 104.363 26.707 103.361 26.707H98.9766V31.795ZM114.932 44.755V22.195H126.004C128.606 22.195 130.569 22.835 131.892 24.115C133.214 25.3737 133.876 27.091 133.876 29.267C133.876 31.4217 133.214 33.139 131.892 34.419C130.569 35.699 128.606 36.339 126.004 36.339H120.852V44.755H114.932ZM120.852 31.795H125.236C126.238 31.795 126.985 31.5817 127.476 31.155C127.966 30.707 128.212 30.0777 128.212 29.267C128.212 28.4563 127.966 27.827 127.476 27.379C126.985 26.931 126.238 26.707 125.236 26.707H120.852V31.795ZM136.807 44.755V22.195H142.727V44.755H136.807ZM146.9 44.755V22.195H151.252L162.676 36.371H161.748V22.195H167.22V44.755H162.868L151.508 30.579H152.436V44.755H146.9ZM182.889 45.107C180.265 45.107 178.046 44.627 176.233 43.667C174.441 42.707 173.076 41.363 172.137 39.635C171.22 37.907 170.761 35.891 170.761 33.587C170.761 31.1977 171.262 29.1283 172.265 27.379C173.289 25.6083 174.75 24.243 176.649 23.283C178.548 22.323 180.83 21.843 183.497 21.843C185.14 21.843 186.59 22.035 187.849 22.419C189.129 22.803 190.228 23.3577 191.145 24.083L189.321 28.595C188.66 28.147 188.03 27.8057 187.433 27.571C186.857 27.315 186.26 27.1337 185.641 27.027C185.044 26.9203 184.35 26.867 183.561 26.867C181.342 26.867 179.678 27.443 178.569 28.595C177.481 29.7257 176.937 31.3897 176.937 33.587C176.937 35.763 177.438 37.4057 178.441 38.515C179.444 39.6243 181.033 40.179 183.209 40.179C183.87 40.179 184.585 40.115 185.353 39.987C186.142 39.859 186.942 39.667 187.753 39.411L186.697 41.523V36.147H182.025V32.051H191.529V43.347C190.313 43.923 188.948 44.3603 187.433 44.659C185.94 44.9577 184.425 45.107 182.889 45.107Z"/>
</mask>
<path d="M53.3961 44.755V26.963H46.5481V22.195H66.1641V26.963H59.3161V44.755H53.3961ZM66.7298 33.459C66.7298 31.1123 67.1885 29.075 68.1058 27.347C69.0231 25.5977 70.3351 24.243 72.0418 23.283C73.7485 22.323 75.7645 21.843 78.0898 21.843C80.4365 21.843 82.4631 22.323 84.1698 23.283C85.8765 24.243 87.1885 25.5977 88.1058 27.347C89.0445 29.075 89.5138 31.1123 89.5138 33.459C89.5138 35.7843 89.0445 37.8217 88.1058 39.571C87.1885 41.3203 85.8765 42.6857 84.1698 43.667C82.4631 44.627 80.4365 45.107 78.0898 45.107C75.7645 45.107 73.7485 44.627 72.0418 43.667C70.3565 42.6857 69.0445 41.3203 68.1058 39.571C67.1885 37.8217 66.7298 35.7843 66.7298 33.459ZM72.9058 33.459C72.9058 35.571 73.3325 37.2243 74.1858 38.419C75.0391 39.5923 76.3405 40.179 78.0898 40.179C79.8391 40.179 81.1511 39.5923 82.0258 38.419C82.9005 37.2243 83.3378 35.571 83.3378 33.459C83.3378 31.347 82.9005 29.7043 82.0258 28.531C81.1511 27.3577 79.8391 26.771 78.0898 26.771C76.3405 26.771 75.0391 27.3577 74.1858 28.531C73.3325 29.683 72.9058 31.3257 72.9058 33.459ZM93.0566 44.755V22.195H104.129C106.731 22.195 108.694 22.835 110.017 24.115C111.339 25.3737 112.001 27.091 112.001 29.267C112.001 31.4217 111.339 33.139 110.017 34.419C108.694 35.699 106.731 36.339 104.129 36.339H98.9766V44.755H93.0566ZM98.9766 31.795H103.361C104.363 31.795 105.11 31.5817 105.601 31.155C106.091 30.707 106.337 30.0777 106.337 29.267C106.337 28.4563 106.091 27.827 105.601 27.379C105.11 26.931 104.363 26.707 103.361 26.707H98.9766V31.795ZM114.932 44.755V22.195H126.004C128.606 22.195 130.569 22.835 131.892 24.115C133.214 25.3737 133.876 27.091 133.876 29.267C133.876 31.4217 133.214 33.139 131.892 34.419C130.569 35.699 128.606 36.339 126.004 36.339H120.852V44.755H114.932ZM120.852 31.795H125.236C126.238 31.795 126.985 31.5817 127.476 31.155C127.966 30.707 128.212 30.0777 128.212 29.267C128.212 28.4563 127.966 27.827 127.476 27.379C126.985 26.931 126.238 26.707 125.236 26.707H120.852V31.795ZM136.807 44.755V22.195H142.727V44.755H136.807ZM146.9 44.755V22.195H151.252L162.676 36.371H161.748V22.195H167.22V44.755H162.868L151.508 30.579H152.436V44.755H146.9ZM182.889 45.107C180.265 45.107 178.046 44.627 176.233 43.667C174.441 42.707 173.076 41.363 172.137 39.635C171.22 37.907 170.761 35.891 170.761 33.587C170.761 31.1977 171.262 29.1283 172.265 27.379C173.289 25.6083 174.75 24.243 176.649 23.283C178.548 22.323 180.83 21.843 183.497 21.843C185.14 21.843 186.59 22.035 187.849 22.419C189.129 22.803 190.228 23.3577 191.145 24.083L189.321 28.595C188.66 28.147 188.03 27.8057 187.433 27.571C186.857 27.315 186.26 27.1337 185.641 27.027C185.044 26.9203 184.35 26.867 183.561 26.867C181.342 26.867 179.678 27.443 178.569 28.595C177.481 29.7257 176.937 31.3897 176.937 33.587C176.937 35.763 177.438 37.4057 178.441 38.515C179.444 39.6243 181.033 40.179 183.209 40.179C183.87 40.179 184.585 40.115 185.353 39.987C186.142 39.859 186.942 39.667 187.753 39.411L186.697 41.523V36.147H182.025V32.051H191.529V43.347C190.313 43.923 188.948 44.3603 187.433 44.659C185.94 44.9577 184.425 45.107 182.889 45.107Z" fill="#5082FF"/>
<path d="M53.3961 44.755H48.3961C48.3961 47.5164 50.6346 49.755 53.3961 49.755V44.755ZM53.3961 26.963H58.3961C58.3961 24.2016 56.1575 21.963 53.3961 21.963V26.963ZM46.5481 26.963H41.5481C41.5481 29.7244 43.7866 31.963 46.5481 31.963V26.963ZM46.5481 22.195V17.195C43.7866 17.195 41.5481 19.4336 41.5481 22.195H46.5481ZM66.1641 22.195H71.1641C71.1641 19.4336 68.9255 17.195 66.1641 17.195V22.195ZM66.1641 26.963V31.963C68.9255 31.963 71.1641 29.7244 71.1641 26.963H66.1641ZM59.3161 26.963V21.963C56.5546 21.963 54.3161 24.2016 54.3161 26.963H59.3161ZM59.3161 44.755V49.755C62.0775 49.755 64.3161 47.5164 64.3161 44.755H59.3161ZM58.3961 44.755V26.963H48.3961V44.755H58.3961ZM53.3961 21.963H46.5481V31.963H53.3961V21.963ZM51.5481 26.963V22.195H41.5481V26.963H51.5481ZM46.5481 27.195H66.1641V17.195H46.5481V27.195ZM61.1641 22.195V26.963H71.1641V22.195H61.1641ZM66.1641 21.963H59.3161V31.963H66.1641V21.963ZM54.3161 26.963V44.755H64.3161V26.963H54.3161ZM59.3161 39.755H53.3961V49.755H59.3161V39.755ZM68.1058 27.347L72.5221 29.6915C72.5261 29.684 72.53 29.6765 72.5339 29.6691L68.1058 27.347ZM72.0418 23.283L74.4931 27.6409L74.4931 27.6409L72.0418 23.283ZM84.1698 23.283L81.7185 27.6409L81.7185 27.6409L84.1698 23.283ZM88.1058 27.347L83.6777 29.6691C83.6891 29.6907 83.7005 29.7122 83.7122 29.7337L88.1058 27.347ZM88.1058 39.571L83.7 37.2069C83.6925 37.2209 83.6851 37.2349 83.6777 37.249L88.1058 39.571ZM84.1698 43.667L86.6211 48.0249C86.6348 48.0172 86.6485 48.0094 86.6622 48.0015L84.1698 43.667ZM72.0418 43.667L69.5259 47.9879C69.5473 48.0004 69.5689 48.0127 69.5905 48.0249L72.0418 43.667ZM68.1058 39.571L63.6777 41.8931C63.6851 41.9071 63.6925 41.9211 63.7 41.9351L68.1058 39.571ZM74.1858 38.419L70.1171 41.3252C70.1254 41.3368 70.1338 41.3483 70.1421 41.3599L74.1858 38.419ZM82.0258 38.419L86.0345 41.4073C86.0431 41.3958 86.0517 41.3843 86.0601 41.3727L82.0258 38.419ZM82.0258 28.531L86.0345 25.5427L86.0345 25.5427L82.0258 28.531ZM74.1858 28.531L78.2036 31.5071C78.2123 31.4954 78.2209 31.4837 78.2295 31.4719L74.1858 28.531ZM71.7298 33.459C71.7298 31.7677 72.0575 30.5667 72.5221 29.6915L63.6895 25.0026C62.3195 27.5834 61.7298 30.457 61.7298 33.459H71.7298ZM72.5339 29.6691C73.0069 28.767 73.636 28.123 74.4931 27.6409L69.5905 18.9251C67.0343 20.363 65.0394 22.4283 63.6777 25.025L72.5339 29.6691ZM74.4931 27.6409C75.3223 27.1745 76.4618 26.843 78.0898 26.843V16.843C75.0671 16.843 72.1746 17.4715 69.5905 18.9251L74.4931 27.6409ZM78.0898 26.843C79.748 26.843 80.8958 27.1781 81.7185 27.6409L86.6211 18.9251C84.0305 17.4679 81.1249 16.843 78.0898 16.843V26.843ZM81.7185 27.6409C82.5757 28.123 83.2047 28.767 83.6777 29.6691L92.5339 25.0249C91.1723 22.4283 89.1773 20.363 86.6211 18.9251L81.7185 27.6409ZM83.7122 29.7337C84.1827 30.5997 84.5138 31.7852 84.5138 33.459H94.5138C94.5138 30.4395 93.9063 27.5503 92.4994 24.9603L83.7122 29.7337ZM84.5138 33.459C84.5138 35.101 84.1867 36.2999 83.7 37.2069L92.5116 41.9351C93.9022 39.3435 94.5138 36.4677 94.5138 33.459H84.5138ZM83.6777 37.249C83.1999 38.1602 82.5579 38.8262 81.6775 39.3325L86.6622 48.0015C89.195 46.5451 91.1771 44.4805 92.5339 41.8931L83.6777 37.249ZM81.7185 39.3091C80.8958 39.7719 79.748 40.107 78.0898 40.107V50.107C81.1249 50.107 84.0305 49.4821 86.6211 48.0249L81.7185 39.3091ZM78.0898 40.107C76.4618 40.107 75.3223 39.7755 74.4931 39.3091L69.5905 48.0249C72.1746 49.4785 75.0671 50.107 78.0898 50.107V40.107ZM74.5578 39.3461C73.6861 38.8386 73.0216 38.1573 72.5116 37.2069L63.7 41.9351C65.0674 44.4834 67.0268 46.5328 69.5259 47.9879L74.5578 39.3461ZM72.5339 37.249C72.0535 36.3329 71.7298 35.1187 71.7298 33.459H61.7298C61.7298 36.45 62.3234 39.3104 63.6777 41.8931L72.5339 37.249ZM67.9058 33.459C67.9058 36.1741 68.445 38.9842 70.1171 41.3252L78.2545 35.5128C78.22 35.4645 77.9058 34.9679 77.9058 33.459H67.9058ZM70.1421 41.3599C72.1354 44.1006 75.1123 45.179 78.0898 45.179V35.179C77.7677 35.179 77.733 35.125 77.8567 35.1808C77.9187 35.2087 77.9955 35.2535 78.0729 35.3167C78.1498 35.3795 78.2013 35.4394 78.2295 35.4781L70.1421 41.3599ZM78.0898 45.179C81.0706 45.179 84.0262 44.1014 86.0345 41.4073L78.0171 35.4307C78.0395 35.4006 78.0841 35.3492 78.1528 35.2939C78.2218 35.2383 78.2904 35.1989 78.3448 35.1745C78.4546 35.1254 78.4105 35.179 78.0898 35.179V45.179ZM86.0601 41.3727C87.7791 39.0249 88.3378 36.1955 88.3378 33.459H78.3378C78.3378 34.9465 78.0219 35.4238 77.9915 35.4653L86.0601 41.3727ZM88.3378 33.459C88.3378 30.7302 87.7821 27.887 86.0345 25.5427L78.0171 31.5193C78.0189 31.5217 78.3378 31.9638 78.3378 33.459H88.3378ZM86.0345 25.5427C84.0262 22.8486 81.0706 21.771 78.0898 21.771V31.771C78.4105 31.771 78.4546 31.8246 78.3448 31.7755C78.2904 31.7511 78.2218 31.7117 78.1528 31.6561C78.0841 31.6008 78.0395 31.5494 78.0171 31.5193L86.0345 25.5427ZM78.0898 21.771C75.1123 21.771 72.1354 22.8494 70.1421 25.5901L78.2295 31.4719C78.2013 31.5106 78.1498 31.5705 78.0729 31.6334C77.9955 31.6965 77.9187 31.7413 77.8567 31.7692C77.733 31.825 77.7677 31.771 78.0898 31.771V21.771ZM70.168 25.5549C68.4333 27.8968 67.9058 30.752 67.9058 33.459H77.9058C77.9058 31.8994 78.2317 31.4693 78.2036 31.5071L70.168 25.5549ZM93.0566 44.755H88.0566C88.0566 47.5164 90.2951 49.755 93.0566 49.755V44.755ZM93.0566 22.195V17.195C90.2951 17.195 88.0566 19.4336 88.0566 22.195H93.0566ZM110.017 24.115L106.539 27.708C106.55 27.7177 106.56 27.7274 106.57 27.7371L110.017 24.115ZM98.9766 36.339V31.339C96.2151 31.339 93.9766 33.5776 93.9766 36.339H98.9766ZM98.9766 44.755V49.755C101.738 49.755 103.977 47.5164 103.977 44.755H98.9766ZM98.9766 31.795H93.9766C93.9766 34.5564 96.2151 36.795 98.9766 36.795V31.795ZM105.601 31.155L108.881 34.928C108.912 34.9015 108.942 34.8747 108.972 34.8474L105.601 31.155ZM105.601 27.379L108.972 23.6866L108.972 23.6866L105.601 27.379ZM98.9766 26.707V21.707C96.2151 21.707 93.9766 23.9456 93.9766 26.707H98.9766ZM98.0566 44.755V22.195H88.0566V44.755H98.0566ZM93.0566 27.195H104.129V17.195H93.0566V27.195ZM104.129 27.195C105.974 27.195 106.476 27.6471 106.539 27.708L113.494 20.522C110.911 18.0229 107.488 17.195 104.129 17.195V27.195ZM106.57 27.7371C106.712 27.8727 107.001 28.1762 107.001 29.267H117.001C117.001 26.0058 115.966 22.8747 113.463 20.4929L106.57 27.7371ZM107.001 29.267C107.001 30.3177 106.722 30.649 106.539 30.826L113.494 38.012C115.956 35.629 117.001 32.5256 117.001 29.267H107.001ZM106.539 30.826C106.476 30.8869 105.974 31.339 104.129 31.339V41.339C107.488 41.339 110.911 40.5111 113.494 38.012L106.539 30.826ZM104.129 31.339H98.9766V41.339H104.129V31.339ZM93.9766 36.339V44.755H103.977V36.339H93.9766ZM98.9766 39.755H93.0566V49.755H98.9766V39.755ZM98.9766 36.795H103.361V26.795H98.9766V36.795ZM103.361 36.795C104.943 36.795 107.099 36.4776 108.881 34.928L102.32 27.382C102.724 27.0307 103.103 26.8833 103.299 26.8274C103.48 26.7756 103.525 26.795 103.361 26.795V36.795ZM108.972 34.8474C110.724 33.2481 111.337 31.1485 111.337 29.267H101.337C101.337 29.1723 101.351 28.8984 101.494 28.531C101.646 28.1419 101.897 27.7656 102.229 27.4626L108.972 34.8474ZM111.337 29.267C111.337 27.3855 110.724 25.2859 108.972 23.6866L102.229 31.0714C101.897 30.7684 101.646 30.3921 101.494 30.003C101.351 29.6357 101.337 29.3617 101.337 29.267H111.337ZM108.972 23.6866C107.188 22.0575 104.993 21.707 103.361 21.707V31.707C103.507 31.707 103.44 31.7253 103.236 31.6641C103.014 31.5976 102.626 31.4341 102.229 31.0714L108.972 23.6866ZM103.361 21.707H98.9766V31.707H103.361V21.707ZM93.9766 26.707V31.795H103.977V26.707H93.9766ZM114.932 44.755H109.932C109.932 47.5164 112.17 49.755 114.932 49.755V44.755ZM114.932 22.195V17.195C112.17 17.195 109.932 19.4336 109.932 22.195H114.932ZM131.892 24.115L128.414 27.708C128.425 27.7177 128.435 27.7274 128.445 27.7371L131.892 24.115ZM120.852 36.339V31.339C118.09 31.339 115.852 33.5776 115.852 36.339H120.852ZM120.852 44.755V49.755C123.613 49.755 125.852 47.5164 125.852 44.755H120.852ZM120.852 31.795H115.852C115.852 34.5564 118.09 36.795 120.852 36.795V31.795ZM127.476 31.155L130.756 34.928C130.787 34.9015 130.817 34.8747 130.847 34.8474L127.476 31.155ZM127.476 27.379L130.847 23.6866L130.847 23.6866L127.476 27.379ZM120.852 26.707V21.707C118.09 21.707 115.852 23.9456 115.852 26.707H120.852ZM119.932 44.755V22.195H109.932V44.755H119.932ZM114.932 27.195H126.004V17.195H114.932V27.195ZM126.004 27.195C127.849 27.195 128.351 27.6471 128.414 27.708L135.369 20.522C132.786 18.0229 129.363 17.195 126.004 17.195V27.195ZM128.445 27.7371C128.587 27.8727 128.876 28.1762 128.876 29.267H138.876C138.876 26.0058 137.841 22.8747 135.338 20.4929L128.445 27.7371ZM128.876 29.267C128.876 30.3177 128.597 30.649 128.414 30.826L135.369 38.012C137.831 35.629 138.876 32.5256 138.876 29.267H128.876ZM128.414 30.826C128.351 30.8869 127.849 31.339 126.004 31.339V41.339C129.363 41.339 132.786 40.5111 135.369 38.012L128.414 30.826ZM126.004 31.339H120.852V41.339H126.004V31.339ZM115.852 36.339V44.755H125.852V36.339H115.852ZM120.852 39.755H114.932V49.755H120.852V39.755ZM120.852 36.795H125.236V26.795H120.852V36.795ZM125.236 36.795C126.818 36.795 128.974 36.4776 130.756 34.928L124.195 27.382C124.599 27.0307 124.978 26.8833 125.174 26.8274C125.355 26.7756 125.4 26.795 125.236 26.795V36.795ZM130.847 34.8474C132.599 33.2481 133.212 31.1485 133.212 29.267H123.212C123.212 29.1723 123.226 28.8984 123.369 28.531C123.521 28.1419 123.772 27.7656 124.104 27.4626L130.847 34.8474ZM133.212 29.267C133.212 27.3855 132.599 25.2859 130.847 23.6866L124.104 31.0714C123.772 30.7684 123.521 30.3921 123.369 30.003C123.226 29.6357 123.212 29.3617 123.212 29.267H133.212ZM130.847 23.6866C129.063 22.0575 126.868 21.707 125.236 21.707V31.707C125.382 31.707 125.315 31.7253 125.111 31.6641C124.889 31.5976 124.501 31.4341 124.104 31.0714L130.847 23.6866ZM125.236 21.707H120.852V31.707H125.236V21.707ZM115.852 26.707V31.795H125.852V26.707H115.852ZM136.807 44.755H131.807C131.807 47.5164 134.045 49.755 136.807 49.755V44.755ZM136.807 22.195V17.195C134.045 17.195 131.807 19.4336 131.807 22.195H136.807ZM142.727 22.195H147.727C147.727 19.4336 145.488 17.195 142.727 17.195V22.195ZM142.727 44.755V49.755C145.488 49.755 147.727 47.5164 147.727 44.755H142.727ZM141.807 44.755V22.195H131.807V44.755H141.807ZM136.807 27.195H142.727V17.195H136.807V27.195ZM137.727 22.195V44.755H147.727V22.195H137.727ZM142.727 39.755H136.807V49.755H142.727V39.755ZM146.9 44.755H141.9C141.9 47.5164 144.139 49.755 146.9 49.755V44.755ZM146.9 22.195V17.195C144.139 17.195 141.9 19.4336 141.9 22.195H146.9ZM151.252 22.195L155.145 19.0576C154.196 17.8798 152.765 17.195 151.252 17.195V22.195ZM162.676 36.371V41.371C164.602 41.371 166.356 40.2656 167.187 38.5289C168.018 36.7922 167.778 34.7327 166.569 33.2336L162.676 36.371ZM161.748 36.371H156.748C156.748 39.1324 158.987 41.371 161.748 41.371V36.371ZM161.748 22.195V17.195C158.987 17.195 156.748 19.4336 156.748 22.195H161.748ZM167.22 22.195H172.22C172.22 19.4336 169.982 17.195 167.22 17.195V22.195ZM167.22 44.755V49.755C169.982 49.755 172.22 47.5164 172.22 44.755H167.22ZM162.868 44.755L158.967 47.8817C159.915 49.0659 161.351 49.755 162.868 49.755V44.755ZM151.508 30.579V25.579C149.586 25.579 147.833 26.6816 147.001 28.4149C146.169 30.1483 146.404 32.2053 147.607 33.7057L151.508 30.579ZM152.436 30.579H157.436C157.436 27.8176 155.198 25.579 152.436 25.579V30.579ZM152.436 44.755V49.755C155.198 49.755 157.436 47.5164 157.436 44.755H152.436ZM151.9 44.755V22.195H141.9V44.755H151.9ZM146.9 27.195H151.252V17.195H146.9V27.195ZM147.359 25.3324L158.783 39.5084L166.569 33.2336L155.145 19.0576L147.359 25.3324ZM162.676 31.371H161.748V41.371H162.676V31.371ZM166.748 36.371V22.195H156.748V36.371H166.748ZM161.748 27.195H167.22V17.195H161.748V27.195ZM162.22 22.195V44.755H172.22V22.195H162.22ZM167.22 39.755H162.868V49.755H167.22V39.755ZM166.77 41.6283L155.41 27.4523L147.607 33.7057L158.967 47.8817L166.77 41.6283ZM151.508 35.579H152.436V25.579H151.508V35.579ZM147.436 30.579V44.755H157.436V30.579H147.436ZM152.436 39.755H146.9V49.755H152.436V39.755ZM176.233 43.667L173.872 48.0744C173.879 48.0783 173.886 48.0821 173.894 48.0859L176.233 43.667ZM172.137 39.635L167.721 41.9795C167.728 41.9936 167.736 42.0076 167.743 42.0217L172.137 39.635ZM172.265 27.379L167.937 24.8759C167.934 24.8815 167.93 24.887 167.927 24.8926L172.265 27.379ZM176.649 23.283L178.905 27.7451L178.905 27.7451L176.649 23.283ZM187.849 22.419L186.39 27.2014C186.397 27.2037 186.405 27.2059 186.412 27.2081L187.849 22.419ZM191.145 24.083L195.781 25.9569C196.613 23.8986 195.988 21.538 194.246 20.1609L191.145 24.083ZM189.321 28.595L186.517 32.7346C187.767 33.5815 189.333 33.8181 190.778 33.3781C192.222 32.9382 193.391 31.869 193.957 30.469L189.321 28.595ZM187.433 27.571L185.402 32.1401C185.469 32.1698 185.537 32.198 185.605 32.2248L187.433 27.571ZM185.641 27.027L184.762 31.9491C184.772 31.9509 184.782 31.9526 184.792 31.9543L185.641 27.027ZM178.569 28.595L174.967 25.1268L174.966 25.1281L178.569 28.595ZM178.441 38.515L182.15 35.1623L182.15 35.1623L178.441 38.515ZM185.353 39.987L184.553 35.0515C184.545 35.0526 184.538 35.0538 184.531 35.055L185.353 39.987ZM187.753 39.411L192.225 41.6471C193.123 39.8512 192.86 37.6923 191.556 36.1651C190.253 34.6378 188.162 34.0385 186.247 34.6431L187.753 39.411ZM186.697 41.523H181.697C181.697 43.8419 183.291 45.8565 185.548 46.3892C187.805 46.922 190.132 45.8331 191.169 43.7591L186.697 41.523ZM186.697 36.147H191.697C191.697 33.3856 189.458 31.147 186.697 31.147V36.147ZM182.025 36.147H177.025C177.025 38.9084 179.264 41.147 182.025 41.147V36.147ZM182.025 32.051V27.051C179.264 27.051 177.025 29.2896 177.025 32.051H182.025ZM191.529 32.051H196.529C196.529 29.2896 194.29 27.051 191.529 27.051V32.051ZM191.529 43.347L193.669 47.8657C195.416 47.0385 196.529 45.2792 196.529 43.347H191.529ZM187.433 44.659L186.466 39.7534L186.452 39.7561L187.433 44.659ZM182.889 40.107C180.859 40.107 179.492 39.7348 178.573 39.2481L173.894 48.0859C176.601 49.5192 179.671 50.107 182.889 50.107V40.107ZM178.594 39.2596C177.632 38.7439 176.987 38.0887 176.531 37.2483L167.743 42.0217C169.164 44.6373 171.251 46.6701 173.872 48.0744L178.594 39.2596ZM176.553 37.2906C176.082 36.4028 175.761 35.2188 175.761 33.587H165.761C165.761 36.5632 166.357 39.4112 167.721 41.9795L176.553 37.2906ZM175.761 33.587C175.761 31.908 176.108 30.7287 176.603 29.8654L167.927 24.8926C166.417 27.528 165.761 30.4874 165.761 33.587H175.761ZM176.593 29.8821C177.111 28.9867 177.836 28.2856 178.905 27.7451L174.393 18.8209C171.665 20.2004 169.467 22.23 167.937 24.8759L176.593 29.8821ZM178.905 27.7451C179.95 27.217 181.42 26.843 183.497 26.843V16.843C180.241 16.843 177.146 17.429 174.393 18.8209L178.905 27.7451ZM183.497 26.843C184.762 26.843 185.705 26.9923 186.39 27.2014L189.308 17.6366C187.476 17.0777 185.517 16.843 183.497 16.843V26.843ZM186.412 27.2081C187.173 27.4364 187.687 27.723 188.044 28.0051L194.246 20.1609C192.768 18.9923 191.085 18.1696 189.286 17.6299L186.412 27.2081ZM186.51 22.2091L184.686 26.7211L193.957 30.469L195.781 25.9569L186.51 22.2091ZM192.125 24.4554C191.229 23.8485 190.273 23.3148 189.261 22.9172L185.605 32.2248C185.787 32.2965 186.09 32.4455 186.517 32.7346L192.125 24.4554ZM189.464 23.0019C188.512 22.5789 187.518 22.2768 186.491 22.0997L184.792 31.9543C185.002 31.9905 185.202 32.0511 185.402 32.1401L189.464 23.0019ZM186.52 22.1049C185.561 21.9337 184.563 21.867 183.561 21.867V31.867C184.138 31.867 184.526 31.907 184.762 31.9491L186.52 22.1049ZM183.561 21.867C180.523 21.867 177.337 22.6659 174.967 25.1268L182.171 32.0632C182.125 32.1109 182.121 32.0804 182.285 32.0239C182.474 31.9584 182.87 31.867 183.561 31.867V21.867ZM174.966 25.1281C172.675 27.5087 171.937 30.6191 171.937 33.587H181.937C181.937 32.1603 182.287 31.9426 182.172 32.0619L174.966 25.1281ZM171.937 33.587C171.937 36.4462 172.589 39.4969 174.732 41.8677L182.15 35.1623C182.288 35.3144 181.937 35.0798 181.937 33.587H171.937ZM174.732 41.8677C177.047 44.4288 180.273 45.179 183.209 45.179V35.179C182.526 35.179 182.168 35.0896 182.033 35.0422C181.928 35.0057 182.022 35.0206 182.15 35.1623L174.732 41.8677ZM183.209 45.179C184.189 45.179 185.182 45.0845 186.175 44.919L184.531 35.055C183.988 35.1455 183.552 35.179 183.209 35.179V45.179ZM186.153 44.9225C187.196 44.7535 188.232 44.5032 189.259 44.1789L186.247 34.6431C185.653 34.8308 185.089 34.9646 184.553 35.0515L186.153 44.9225ZM183.281 37.1749L182.225 39.2869L191.169 43.7591L192.225 41.6471L183.281 37.1749ZM191.697 41.523V36.147H181.697V41.523H191.697ZM186.697 31.147H182.025V41.147H186.697V31.147ZM187.025 36.147V32.051H177.025V36.147H187.025ZM182.025 37.051H191.529V27.051H182.025V37.051ZM186.529 32.051V43.347H196.529V32.051H186.529ZM189.389 38.8283C188.596 39.2036 187.633 39.5233 186.466 39.7535L188.4 49.5645C190.262 49.1974 192.03 48.6424 193.669 47.8657L189.389 38.8283ZM186.452 39.7561C185.285 39.9896 184.099 40.107 182.889 40.107V50.107C184.751 50.107 186.595 49.9257 188.414 49.5619L186.452 39.7561Z" fill="white" mask="url(#path-2-outside-1_2404_5825)"/>
</svg>
