<svg width="241" height="66" viewBox="0 0 241 66" fill="none" xmlns="http://www.w3.org/2000/svg">
<path d="M219.711 12.4781C216.801 4.98812 209.271 0.00811768 200.851 0.00811768H121.451H119.331H39.8111C31.3911 0.00811768 23.8611 4.98812 20.9511 12.4781L0.331055 65.5181H119.341H121.461H240.331L219.711 12.4781Z" fill="white"/>
<mask id="path-2-outside-1_2404_5820" maskUnits="userSpaceOnUse" x="41.3311" y="8.35162" width="156" height="34" fill="black">
<rect fill="white" x="41.3311" y="8.35162" width="156" height="34"/>
<path d="M53.5631 36.3516V18.5596H46.7151V13.7916H66.3311V18.5596H59.4831V36.3516H53.5631ZM66.8968 25.0556C66.8968 22.709 67.3555 20.6716 68.2728 18.9436C69.1901 17.1943 70.5021 15.8396 72.2088 14.8796C73.9155 13.9196 75.9315 13.4396 78.2568 13.4396C80.6035 13.4396 82.6301 13.9196 84.3368 14.8796C86.0435 15.8396 87.3555 17.1943 88.2728 18.9436C89.2115 20.6716 89.6808 22.709 89.6808 25.0556C89.6808 27.381 89.2115 29.4183 88.2728 31.1676C87.3555 32.917 86.0435 34.2823 84.3368 35.2636C82.6301 36.2236 80.6035 36.7036 78.2568 36.7036C75.9315 36.7036 73.9155 36.2236 72.2088 35.2636C70.5235 34.2823 69.2115 32.917 68.2728 31.1676C67.3555 29.4183 66.8968 27.381 66.8968 25.0556ZM73.0728 25.0556C73.0728 27.1676 73.4995 28.821 74.3528 30.0156C75.2061 31.189 76.5075 31.7756 78.2568 31.7756C80.0061 31.7756 81.3181 31.189 82.1928 30.0156C83.0675 28.821 83.5048 27.1676 83.5048 25.0556C83.5048 22.9436 83.0675 21.301 82.1928 20.1276C81.3181 18.9543 80.0061 18.3676 78.2568 18.3676C76.5075 18.3676 75.2061 18.9543 74.3528 20.1276C73.4995 21.2796 73.0728 22.9223 73.0728 25.0556ZM93.2236 36.3516V13.7916H104.296C106.898 13.7916 108.861 14.4316 110.184 15.7116C111.506 16.9703 112.168 18.6876 112.168 20.8636C112.168 23.0183 111.506 24.7356 110.184 26.0156C108.861 27.2956 106.898 27.9356 104.296 27.9356H99.1436V36.3516H93.2236ZM99.1436 23.3916H103.528C104.53 23.3916 105.277 23.1783 105.768 22.7516C106.258 22.3036 106.504 21.6743 106.504 20.8636C106.504 20.053 106.258 19.4236 105.768 18.9756C105.277 18.5276 104.53 18.3036 103.528 18.3036H99.1436V23.3916ZM115.099 36.3516V13.7916H126.171C128.773 13.7916 130.736 14.4316 132.059 15.7116C133.381 16.9703 134.043 18.6876 134.043 20.8636C134.043 23.0183 133.381 24.7356 132.059 26.0156C130.736 27.2956 128.773 27.9356 126.171 27.9356H121.019V36.3516H115.099ZM121.019 23.3916H125.403C126.405 23.3916 127.152 23.1783 127.643 22.7516C128.133 22.3036 128.379 21.6743 128.379 20.8636C128.379 20.053 128.133 19.4236 127.643 18.9756C127.152 18.5276 126.405 18.3036 125.403 18.3036H121.019V23.3916ZM136.974 36.3516V13.7916H142.894V36.3516H136.974ZM147.067 36.3516V13.7916H151.419L162.843 27.9676H161.915V13.7916H167.387V36.3516H163.035L151.675 22.1756H152.603V36.3516H147.067ZM183.056 36.7036C180.432 36.7036 178.213 36.2236 176.4 35.2636C174.608 34.3036 173.243 32.9596 172.304 31.2316C171.387 29.5036 170.928 27.4876 170.928 25.1836C170.928 22.7943 171.429 20.725 172.432 18.9756C173.456 17.205 174.917 15.8396 176.816 14.8796C178.715 13.9196 180.997 13.4396 183.664 13.4396C185.307 13.4396 186.757 13.6316 188.016 14.0156C189.296 14.3996 190.395 14.9543 191.312 15.6796L189.488 20.1916C188.827 19.7436 188.197 19.4023 187.6 19.1676C187.024 18.9116 186.427 18.7303 185.808 18.6236C185.211 18.517 184.517 18.4636 183.728 18.4636C181.509 18.4636 179.845 19.0396 178.736 20.1916C177.648 21.3223 177.104 22.9863 177.104 25.1836C177.104 27.3596 177.605 29.0023 178.608 30.1116C179.611 31.221 181.2 31.7756 183.376 31.7756C184.037 31.7756 184.752 31.7116 185.52 31.5836C186.309 31.4556 187.109 31.2636 187.92 31.0076L186.864 33.1196V27.7436H182.192V23.6476H191.696V34.9436C190.48 35.5196 189.115 35.957 187.6 36.2556C186.107 36.5543 184.592 36.7036 183.056 36.7036Z"/>
</mask>
<path d="M53.5631 36.3516V18.5596H46.7151V13.7916H66.3311V18.5596H59.4831V36.3516H53.5631ZM66.8968 25.0556C66.8968 22.709 67.3555 20.6716 68.2728 18.9436C69.1901 17.1943 70.5021 15.8396 72.2088 14.8796C73.9155 13.9196 75.9315 13.4396 78.2568 13.4396C80.6035 13.4396 82.6301 13.9196 84.3368 14.8796C86.0435 15.8396 87.3555 17.1943 88.2728 18.9436C89.2115 20.6716 89.6808 22.709 89.6808 25.0556C89.6808 27.381 89.2115 29.4183 88.2728 31.1676C87.3555 32.917 86.0435 34.2823 84.3368 35.2636C82.6301 36.2236 80.6035 36.7036 78.2568 36.7036C75.9315 36.7036 73.9155 36.2236 72.2088 35.2636C70.5235 34.2823 69.2115 32.917 68.2728 31.1676C67.3555 29.4183 66.8968 27.381 66.8968 25.0556ZM73.0728 25.0556C73.0728 27.1676 73.4995 28.821 74.3528 30.0156C75.2061 31.189 76.5075 31.7756 78.2568 31.7756C80.0061 31.7756 81.3181 31.189 82.1928 30.0156C83.0675 28.821 83.5048 27.1676 83.5048 25.0556C83.5048 22.9436 83.0675 21.301 82.1928 20.1276C81.3181 18.9543 80.0061 18.3676 78.2568 18.3676C76.5075 18.3676 75.2061 18.9543 74.3528 20.1276C73.4995 21.2796 73.0728 22.9223 73.0728 25.0556ZM93.2236 36.3516V13.7916H104.296C106.898 13.7916 108.861 14.4316 110.184 15.7116C111.506 16.9703 112.168 18.6876 112.168 20.8636C112.168 23.0183 111.506 24.7356 110.184 26.0156C108.861 27.2956 106.898 27.9356 104.296 27.9356H99.1436V36.3516H93.2236ZM99.1436 23.3916H103.528C104.53 23.3916 105.277 23.1783 105.768 22.7516C106.258 22.3036 106.504 21.6743 106.504 20.8636C106.504 20.053 106.258 19.4236 105.768 18.9756C105.277 18.5276 104.53 18.3036 103.528 18.3036H99.1436V23.3916ZM115.099 36.3516V13.7916H126.171C128.773 13.7916 130.736 14.4316 132.059 15.7116C133.381 16.9703 134.043 18.6876 134.043 20.8636C134.043 23.0183 133.381 24.7356 132.059 26.0156C130.736 27.2956 128.773 27.9356 126.171 27.9356H121.019V36.3516H115.099ZM121.019 23.3916H125.403C126.405 23.3916 127.152 23.1783 127.643 22.7516C128.133 22.3036 128.379 21.6743 128.379 20.8636C128.379 20.053 128.133 19.4236 127.643 18.9756C127.152 18.5276 126.405 18.3036 125.403 18.3036H121.019V23.3916ZM136.974 36.3516V13.7916H142.894V36.3516H136.974ZM147.067 36.3516V13.7916H151.419L162.843 27.9676H161.915V13.7916H167.387V36.3516H163.035L151.675 22.1756H152.603V36.3516H147.067ZM183.056 36.7036C180.432 36.7036 178.213 36.2236 176.4 35.2636C174.608 34.3036 173.243 32.9596 172.304 31.2316C171.387 29.5036 170.928 27.4876 170.928 25.1836C170.928 22.7943 171.429 20.725 172.432 18.9756C173.456 17.205 174.917 15.8396 176.816 14.8796C178.715 13.9196 180.997 13.4396 183.664 13.4396C185.307 13.4396 186.757 13.6316 188.016 14.0156C189.296 14.3996 190.395 14.9543 191.312 15.6796L189.488 20.1916C188.827 19.7436 188.197 19.4023 187.6 19.1676C187.024 18.9116 186.427 18.7303 185.808 18.6236C185.211 18.517 184.517 18.4636 183.728 18.4636C181.509 18.4636 179.845 19.0396 178.736 20.1916C177.648 21.3223 177.104 22.9863 177.104 25.1836C177.104 27.3596 177.605 29.0023 178.608 30.1116C179.611 31.221 181.2 31.7756 183.376 31.7756C184.037 31.7756 184.752 31.7116 185.52 31.5836C186.309 31.4556 187.109 31.2636 187.92 31.0076L186.864 33.1196V27.7436H182.192V23.6476H191.696V34.9436C190.48 35.5196 189.115 35.957 187.6 36.2556C186.107 36.5543 184.592 36.7036 183.056 36.7036Z" fill="#7AA2FC"/>
<path d="M53.5631 36.3516H48.5631C48.5631 39.113 50.8016 41.3516 53.5631 41.3516V36.3516ZM53.5631 18.5596H58.5631C58.5631 15.7982 56.3245 13.5596 53.5631 13.5596V18.5596ZM46.7151 18.5596H41.7151C41.7151 21.321 43.9536 23.5596 46.7151 23.5596V18.5596ZM46.7151 13.7916V8.79162C43.9536 8.79162 41.7151 11.0302 41.7151 13.7916H46.7151ZM66.3311 13.7916H71.3311C71.3311 11.0302 69.0925 8.79162 66.3311 8.79162V13.7916ZM66.3311 18.5596V23.5596C69.0925 23.5596 71.3311 21.321 71.3311 18.5596H66.3311ZM59.4831 18.5596V13.5596C56.7216 13.5596 54.4831 15.7982 54.4831 18.5596H59.4831ZM59.4831 36.3516V41.3516C62.2445 41.3516 64.4831 39.113 64.4831 36.3516H59.4831ZM58.5631 36.3516V18.5596H48.5631V36.3516H58.5631ZM53.5631 13.5596H46.7151V23.5596H53.5631V13.5596ZM51.7151 18.5596V13.7916H41.7151V18.5596H51.7151ZM46.7151 18.7916H66.3311V8.79162H46.7151V18.7916ZM61.3311 13.7916V18.5596H71.3311V13.7916H61.3311ZM66.3311 13.5596H59.4831V23.5596H66.3311V13.5596ZM54.4831 18.5596V36.3516H64.4831V18.5596H54.4831ZM59.4831 31.3516H53.5631V41.3516H59.4831V31.3516ZM68.2728 18.9436L72.6891 21.2881C72.693 21.2806 72.697 21.2731 72.7009 21.2657L68.2728 18.9436ZM72.2088 14.8796L74.6601 19.2375L74.6601 19.2375L72.2088 14.8796ZM84.3368 14.8796L81.8855 19.2375L81.8855 19.2375L84.3368 14.8796ZM88.2728 18.9436L83.8447 21.2657C83.856 21.2873 83.8675 21.3088 83.8792 21.3303L88.2728 18.9436ZM88.2728 31.1676L83.867 28.8035C83.8595 28.8175 83.8521 28.8315 83.8447 28.8456L88.2728 31.1676ZM84.3368 35.2636L86.7881 39.6215C86.8018 39.6138 86.8155 39.606 86.8292 39.5982L84.3368 35.2636ZM72.2088 35.2636L69.6929 39.5845C69.7143 39.597 69.7359 39.6093 69.7575 39.6215L72.2088 35.2636ZM68.2728 31.1676L63.8447 33.4897C63.8521 33.5037 63.8595 33.5177 63.867 33.5317L68.2728 31.1676ZM74.3528 30.0156L70.2841 32.9218C70.2924 32.9334 70.3007 32.945 70.3091 32.9565L74.3528 30.0156ZM82.1928 30.0156L86.2015 33.004C86.2101 32.9924 86.2186 32.9809 86.2271 32.9693L82.1928 30.0156ZM82.1928 20.1276L86.2015 17.1393L86.2015 17.1393L82.1928 20.1276ZM74.3528 20.1276L78.3706 23.1038C78.3793 23.092 78.3879 23.0803 78.3965 23.0685L74.3528 20.1276ZM71.8968 25.0556C71.8968 23.3643 72.2245 22.1633 72.6891 21.2881L63.8565 16.5992C62.4865 19.18 61.8968 22.0536 61.8968 25.0556H71.8968ZM72.7009 21.2657C73.1739 20.3637 73.8029 19.7197 74.6601 19.2375L69.7575 10.5217C67.2013 11.9596 65.2064 14.0249 63.8447 16.6216L72.7009 21.2657ZM74.6601 19.2375C75.4893 18.7711 76.6288 18.4396 78.2568 18.4396V8.43962C75.2341 8.43962 72.3416 9.06817 69.7575 10.5217L74.6601 19.2375ZM78.2568 18.4396C79.915 18.4396 81.0628 18.7747 81.8855 19.2375L86.7881 10.5217C84.1975 9.06451 81.2919 8.43962 78.2568 8.43962V18.4396ZM81.8855 19.2375C82.7427 19.7197 83.3717 20.3637 83.8447 21.2657L92.7009 16.6216C91.3392 14.0249 89.3443 11.9596 86.7881 10.5217L81.8855 19.2375ZM83.8792 21.3303C84.3496 22.1964 84.6808 23.3818 84.6808 25.0556H94.6808C94.6808 22.0361 94.0733 19.1469 92.6664 16.557L83.8792 21.3303ZM84.6808 25.0556C84.6808 26.6976 84.3537 27.8965 83.867 28.8035L92.6786 33.5317C94.0692 30.9401 94.6808 28.0643 94.6808 25.0556H84.6808ZM83.8447 28.8456C83.3668 29.7568 82.7249 30.4228 81.8444 30.9291L86.8292 39.5982C89.362 38.1418 91.3441 36.0771 92.7009 33.4897L83.8447 28.8456ZM81.8855 30.9057C81.0628 31.3685 79.915 31.7036 78.2568 31.7036V41.7036C81.2919 41.7036 84.1975 41.0787 86.7881 39.6215L81.8855 30.9057ZM78.2568 31.7036C76.6288 31.7036 75.4893 31.3722 74.6601 30.9057L69.7575 39.6215C72.3416 41.0751 75.2341 41.7036 78.2568 41.7036V31.7036ZM74.7248 30.9427C73.8531 30.4352 73.1886 29.7539 72.6786 28.8035L63.867 33.5317C65.2344 36.08 67.1938 38.1294 69.6929 39.5845L74.7248 30.9427ZM72.7009 28.8456C72.2205 27.9295 71.8968 26.7153 71.8968 25.0556H61.8968C61.8968 28.0466 62.4904 30.9071 63.8447 33.4897L72.7009 28.8456ZM68.0728 25.0556C68.0728 27.7707 68.612 30.5808 70.2841 32.9218L78.4215 27.1094C78.3869 27.0611 78.0728 26.5645 78.0728 25.0556H68.0728ZM70.3091 32.9565C72.3024 35.6972 75.2793 36.7756 78.2568 36.7756V26.7756C77.9347 26.7756 77.8999 26.7216 78.0237 26.7774C78.0856 26.8053 78.1625 26.8501 78.2399 26.9133C78.3168 26.9761 78.3683 27.036 78.3965 27.0748L70.3091 32.9565ZM78.2568 36.7756C81.2375 36.7756 84.1932 35.6981 86.2015 33.004L78.1841 27.0273C78.2065 26.9972 78.2511 26.9459 78.3198 26.8906C78.3888 26.835 78.4574 26.7955 78.5118 26.7712C78.6216 26.7221 78.5775 26.7756 78.2568 26.7756V36.7756ZM86.2271 32.9693C87.946 30.6215 88.5048 27.7921 88.5048 25.0556H78.5048C78.5048 26.5431 78.1889 27.0204 78.1585 27.0619L86.2271 32.9693ZM88.5048 25.0556C88.5048 22.3268 87.9491 19.4836 86.2015 17.1393L78.1841 23.1159C78.1859 23.1183 78.5048 23.5604 78.5048 25.0556H88.5048ZM86.2015 17.1393C84.1932 14.4452 81.2375 13.3676 78.2568 13.3676V23.3676C78.5775 23.3676 78.6216 23.4212 78.5118 23.3721C78.4574 23.3477 78.3888 23.3083 78.3198 23.2527C78.2511 23.1974 78.2065 23.146 78.1841 23.1159L86.2015 17.1393ZM78.2568 13.3676C75.2793 13.3676 72.3024 14.446 70.3091 17.1868L78.3965 23.0685C78.3683 23.1072 78.3168 23.1671 78.2399 23.23C78.1625 23.2931 78.0856 23.3379 78.0237 23.3658C77.8999 23.4216 77.9347 23.3676 78.2568 23.3676V13.3676ZM70.335 17.1515C68.6003 19.4934 68.0728 22.3486 68.0728 25.0556H78.0728C78.0728 23.496 78.3987 23.0659 78.3706 23.1038L70.335 17.1515ZM93.2236 36.3516H88.2236C88.2236 39.113 90.4621 41.3516 93.2236 41.3516V36.3516ZM93.2236 13.7916V8.79162C90.4621 8.79162 88.2236 11.0302 88.2236 13.7916H93.2236ZM110.184 15.7116L106.706 19.3046C106.717 19.3144 106.727 19.3241 106.737 19.3337L110.184 15.7116ZM99.1436 27.9356V22.9356C96.3821 22.9356 94.1436 25.1742 94.1436 27.9356H99.1436ZM99.1436 36.3516V41.3516C101.905 41.3516 104.144 39.113 104.144 36.3516H99.1436ZM99.1436 23.3916H94.1436C94.1436 26.153 96.3821 28.3916 99.1436 28.3916V23.3916ZM105.768 22.7516L109.048 26.5247C109.079 26.4982 109.109 26.4713 109.139 26.4441L105.768 22.7516ZM105.768 18.9756L109.139 15.2832L109.139 15.2832L105.768 18.9756ZM99.1436 18.3036V13.3036C96.3821 13.3036 94.1436 15.5422 94.1436 18.3036H99.1436ZM98.2236 36.3516V13.7916H88.2236V36.3516H98.2236ZM93.2236 18.7916H104.296V8.79162H93.2236V18.7916ZM104.296 18.7916C106.141 18.7916 106.643 19.2437 106.706 19.3046L113.661 12.1186C111.078 9.61956 107.655 8.79162 104.296 8.79162V18.7916ZM106.737 19.3337C106.879 19.4693 107.168 19.7728 107.168 20.8636H117.168C117.168 17.6024 116.133 14.4713 113.63 12.0895L106.737 19.3337ZM107.168 20.8636C107.168 21.9144 106.889 22.2457 106.706 22.4226L113.661 29.6086C116.123 27.2256 117.168 24.1222 117.168 20.8636H107.168ZM106.706 22.4226C106.643 22.4836 106.141 22.9356 104.296 22.9356V32.9356C107.655 32.9356 111.078 32.1077 113.661 29.6086L106.706 22.4226ZM104.296 22.9356H99.1436V32.9356H104.296V22.9356ZM94.1436 27.9356V36.3516H104.144V27.9356H94.1436ZM99.1436 31.3516H93.2236V41.3516H99.1436V31.3516ZM99.1436 28.3916H103.528V18.3916H99.1436V28.3916ZM103.528 28.3916C105.11 28.3916 107.266 28.0743 109.048 26.5247L102.487 18.9786C102.891 18.6273 103.27 18.4799 103.466 18.424C103.647 18.3722 103.692 18.3916 103.528 18.3916V28.3916ZM109.139 26.4441C110.891 24.8447 111.504 22.7452 111.504 20.8636H101.504C101.504 20.769 101.518 20.495 101.661 20.1276C101.813 19.7385 102.064 19.3623 102.396 19.0592L109.139 26.4441ZM111.504 20.8636C111.504 18.9821 110.891 16.8825 109.139 15.2832L102.396 22.668C102.064 22.365 101.813 21.9887 101.661 21.5997C101.518 21.2323 101.504 20.9583 101.504 20.8636H111.504ZM109.139 15.2832C107.355 13.6541 105.16 13.3036 103.528 13.3036V23.3036C103.674 23.3036 103.607 23.3219 103.403 23.2608C103.181 23.1942 102.793 23.0307 102.396 22.6681L109.139 15.2832ZM103.528 13.3036H99.1436V23.3036H103.528V13.3036ZM94.1436 18.3036V23.3916H104.144V18.3036H94.1436ZM115.099 36.3516H110.099C110.099 39.113 112.337 41.3516 115.099 41.3516V36.3516ZM115.099 13.7916V8.79162C112.337 8.79162 110.099 11.0302 110.099 13.7916H115.099ZM132.059 15.7116L128.581 19.3046C128.592 19.3144 128.602 19.3241 128.612 19.3337L132.059 15.7116ZM121.019 27.9356V22.9356C118.257 22.9356 116.019 25.1742 116.019 27.9356H121.019ZM121.019 36.3516V41.3516C123.78 41.3516 126.019 39.113 126.019 36.3516H121.019ZM121.019 23.3916H116.019C116.019 26.153 118.257 28.3916 121.019 28.3916V23.3916ZM127.643 22.7516L130.923 26.5247C130.954 26.4982 130.984 26.4713 131.014 26.4441L127.643 22.7516ZM127.643 18.9756L131.014 15.2832L131.014 15.2832L127.643 18.9756ZM121.019 18.3036V13.3036C118.257 13.3036 116.019 15.5422 116.019 18.3036H121.019ZM120.099 36.3516V13.7916H110.099V36.3516H120.099ZM115.099 18.7916H126.171V8.79162H115.099V18.7916ZM126.171 18.7916C128.016 18.7916 128.518 19.2437 128.581 19.3046L135.536 12.1186C132.953 9.61956 129.53 8.79162 126.171 8.79162V18.7916ZM128.612 19.3337C128.754 19.4693 129.043 19.7728 129.043 20.8636H139.043C139.043 17.6024 138.008 14.4713 135.505 12.0895L128.612 19.3337ZM129.043 20.8636C129.043 21.9144 128.764 22.2457 128.581 22.4226L135.536 29.6086C137.998 27.2256 139.043 24.1222 139.043 20.8636H129.043ZM128.581 22.4226C128.518 22.4836 128.016 22.9356 126.171 22.9356V32.9356C129.53 32.9356 132.953 32.1077 135.536 29.6086L128.581 22.4226ZM126.171 22.9356H121.019V32.9356H126.171V22.9356ZM116.019 27.9356V36.3516H126.019V27.9356H116.019ZM121.019 31.3516H115.099V41.3516H121.019V31.3516ZM121.019 28.3916H125.403V18.3916H121.019V28.3916ZM125.403 28.3916C126.985 28.3916 129.141 28.0743 130.923 26.5247L124.362 18.9786C124.766 18.6273 125.145 18.4799 125.341 18.424C125.522 18.3722 125.567 18.3916 125.403 18.3916V28.3916ZM131.014 26.4441C132.766 24.8447 133.379 22.7452 133.379 20.8636H123.379C123.379 20.769 123.393 20.495 123.536 20.1276C123.688 19.7385 123.939 19.3623 124.271 19.0592L131.014 26.4441ZM133.379 20.8636C133.379 18.9821 132.766 16.8825 131.014 15.2832L124.271 22.668C123.939 22.365 123.688 21.9887 123.536 21.5997C123.393 21.2323 123.379 20.9583 123.379 20.8636H133.379ZM131.014 15.2832C129.23 13.6541 127.035 13.3036 125.403 13.3036V23.3036C125.549 23.3036 125.482 23.3219 125.278 23.2608C125.056 23.1942 124.668 23.0307 124.271 22.6681L131.014 15.2832ZM125.403 13.3036H121.019V23.3036H125.403V13.3036ZM116.019 18.3036V23.3916H126.019V18.3036H116.019ZM136.974 36.3516H131.974C131.974 39.113 134.212 41.3516 136.974 41.3516V36.3516ZM136.974 13.7916V8.79162C134.212 8.79162 131.974 11.0302 131.974 13.7916H136.974ZM142.894 13.7916H147.894C147.894 11.0302 145.655 8.79162 142.894 8.79162V13.7916ZM142.894 36.3516V41.3516C145.655 41.3516 147.894 39.113 147.894 36.3516H142.894ZM141.974 36.3516V13.7916H131.974V36.3516H141.974ZM136.974 18.7916H142.894V8.79162H136.974V18.7916ZM137.894 13.7916V36.3516H147.894V13.7916H137.894ZM142.894 31.3516H136.974V41.3516H142.894V31.3516ZM147.067 36.3516H142.067C142.067 39.113 144.306 41.3516 147.067 41.3516V36.3516ZM147.067 13.7916V8.79162C144.306 8.79162 142.067 11.0302 142.067 13.7916H147.067ZM151.419 13.7916L155.312 10.6542C154.363 9.47642 152.932 8.79162 151.419 8.79162V13.7916ZM162.843 27.9676V32.9676C164.769 32.9676 166.523 31.8622 167.354 30.1255C168.185 28.3888 167.945 26.3293 166.736 24.8302L162.843 27.9676ZM161.915 27.9676H156.915C156.915 30.729 159.154 32.9676 161.915 32.9676V27.9676ZM161.915 13.7916V8.79162C159.154 8.79162 156.915 11.0302 156.915 13.7916H161.915ZM167.387 13.7916H172.387C172.387 11.0302 170.149 8.79162 167.387 8.79162V13.7916ZM167.387 36.3516V41.3516C170.149 41.3516 172.387 39.113 172.387 36.3516H167.387ZM163.035 36.3516L159.134 39.4783C160.082 40.6625 161.518 41.3516 163.035 41.3516V36.3516ZM151.675 22.1756V17.1756C149.753 17.1756 148 18.2782 147.168 20.0115C146.336 21.7449 146.571 23.8019 147.774 25.3023L151.675 22.1756ZM152.603 22.1756H157.603C157.603 19.4142 155.365 17.1756 152.603 17.1756V22.1756ZM152.603 36.3516V41.3516C155.365 41.3516 157.603 39.113 157.603 36.3516H152.603ZM152.067 36.3516V13.7916H142.067V36.3516H152.067ZM147.067 18.7916H151.419V8.79162H147.067V18.7916ZM147.526 16.929L158.95 31.105L166.736 24.8302L155.312 10.6542L147.526 16.929ZM162.843 22.9676H161.915V32.9676H162.843V22.9676ZM166.915 27.9676V13.7916H156.915V27.9676H166.915ZM161.915 18.7916H167.387V8.79162H161.915V18.7916ZM162.387 13.7916V36.3516H172.387V13.7916H162.387ZM167.387 31.3516H163.035V41.3516H167.387V31.3516ZM166.937 33.2249L155.577 19.0489L147.774 25.3023L159.134 39.4783L166.937 33.2249ZM151.675 27.1756H152.603V17.1756H151.675V27.1756ZM147.603 22.1756V36.3516H157.603V22.1756H147.603ZM152.603 31.3516H147.067V41.3516H152.603V31.3516ZM176.4 35.2636L174.039 39.671C174.046 39.6749 174.053 39.6787 174.061 39.6826L176.4 35.2636ZM172.304 31.2316L167.888 33.5761C167.895 33.5902 167.903 33.6042 167.91 33.6183L172.304 31.2316ZM172.432 18.9756L168.104 16.4725C168.101 16.4781 168.097 16.4836 168.094 16.4892L172.432 18.9756ZM176.816 14.8796L179.072 19.3417L179.072 19.3417L176.816 14.8796ZM188.016 14.0156L186.557 18.798C186.564 18.8003 186.572 18.8025 186.579 18.8048L188.016 14.0156ZM191.312 15.6796L195.948 17.5536C196.78 15.4952 196.155 13.1346 194.413 11.7575L191.312 15.6796ZM189.488 20.1916L186.684 24.3312C187.934 25.1781 189.5 25.4147 190.945 24.9747C192.389 24.5348 193.558 23.4656 194.124 22.0656L189.488 20.1916ZM187.6 19.1676L185.569 23.7367C185.636 23.7664 185.704 23.7946 185.772 23.8214L187.6 19.1676ZM185.808 18.6236L184.929 23.5458C184.939 23.5475 184.949 23.5492 184.959 23.5509L185.808 18.6236ZM178.736 20.1916L175.134 16.7234L175.133 16.7247L178.736 20.1916ZM178.608 30.1116L182.317 26.7589L182.317 26.7589L178.608 30.1116ZM185.52 31.5836L184.72 26.6481C184.712 26.6493 184.705 26.6505 184.698 26.6517L185.52 31.5836ZM187.92 31.0076L192.392 33.2437C193.29 31.4478 193.027 29.2889 191.723 27.7617C190.42 26.2344 188.329 25.6351 186.414 26.2397L187.92 31.0076ZM186.864 33.1196H181.864C181.864 35.4385 183.458 37.4531 185.715 37.9859C187.972 38.5186 190.299 37.4298 191.336 35.3557L186.864 33.1196ZM186.864 27.7436H191.864C191.864 24.9822 189.625 22.7436 186.864 22.7436V27.7436ZM182.192 27.7436H177.192C177.192 30.505 179.431 32.7436 182.192 32.7436V27.7436ZM182.192 23.6476V18.6476C179.431 18.6476 177.192 20.8862 177.192 23.6476H182.192ZM191.696 23.6476H196.696C196.696 20.8862 194.457 18.6476 191.696 18.6476V23.6476ZM191.696 34.9436L193.836 39.4623C195.583 38.6351 196.696 36.8759 196.696 34.9436H191.696ZM187.6 36.2556L186.633 31.3501L186.619 31.3527L187.6 36.2556ZM183.056 31.7036C181.026 31.7036 179.659 31.3314 178.739 30.8447L174.061 39.6826C176.768 41.1158 179.838 41.7036 183.056 41.7036V31.7036ZM178.761 30.8562C177.799 30.3406 177.154 29.6853 176.698 28.845L167.91 33.6183C169.331 36.2339 171.418 38.2667 174.039 39.671L178.761 30.8562ZM176.72 28.8872C176.249 27.9994 175.928 26.8154 175.928 25.1836H165.928C165.928 28.1598 166.524 31.0078 167.888 33.5761L176.72 28.8872ZM175.928 25.1836C175.928 23.5046 176.275 22.3253 176.77 21.462L168.094 16.4892C166.584 19.1246 165.928 22.084 165.928 25.1836H175.928ZM176.76 21.4787C177.278 20.5833 178.003 19.8823 179.072 19.3417L174.56 10.4176C171.832 11.797 169.634 13.8266 168.104 16.4725L176.76 21.4787ZM179.072 19.3417C180.117 18.8136 181.587 18.4396 183.664 18.4396V8.43962C180.408 8.43962 177.313 9.02567 174.56 10.4176L179.072 19.3417ZM183.664 18.4396C184.929 18.4396 185.872 18.5889 186.557 18.798L189.475 9.23324C187.643 8.67436 185.684 8.43962 183.664 8.43962V18.4396ZM186.579 18.8048C187.34 19.033 187.854 19.3196 188.211 19.6017L194.413 11.7575C192.935 10.5889 191.252 9.76622 189.453 9.22649L186.579 18.8048ZM186.677 13.8057L184.853 18.3177L194.124 22.0656L195.948 17.5536L186.677 13.8057ZM192.292 16.052C191.396 15.4452 190.44 14.9114 189.428 14.5139L185.772 23.8214C185.954 23.8931 186.257 24.0421 186.684 24.3312L192.292 16.052ZM189.631 14.5986C188.679 14.1755 187.685 13.8734 186.658 13.6963L184.959 23.5509C185.169 23.5871 185.369 23.6477 185.569 23.7367L189.631 14.5986ZM186.687 13.7015C185.728 13.5303 184.73 13.4636 183.728 13.4636V23.4636C184.305 23.4636 184.693 23.5036 184.929 23.5458L186.687 13.7015ZM183.728 13.4636C180.69 13.4636 177.504 14.2625 175.134 16.7234L182.338 23.6598C182.292 23.7075 182.288 23.6771 182.452 23.6206C182.641 23.555 183.037 23.4636 183.728 23.4636V13.4636ZM175.133 16.7247C172.842 19.1053 172.104 22.2157 172.104 25.1836H182.104C182.104 23.7569 182.454 23.5392 182.339 23.6585L175.133 16.7247ZM172.104 25.1836C172.104 28.0428 172.756 31.0935 174.899 33.4643L182.317 26.7589C182.455 26.911 182.104 26.6764 182.104 25.1836H172.104ZM174.899 33.4643C177.214 36.0254 180.44 36.7756 183.376 36.7756V26.7756C182.693 26.7756 182.335 26.6862 182.2 26.6389C182.095 26.6023 182.189 26.6172 182.317 26.7589L174.899 33.4643ZM183.376 36.7756C184.356 36.7756 185.349 36.6812 186.342 36.5156L184.698 26.6517C184.155 26.7421 183.719 26.7756 183.376 26.7756V36.7756ZM186.32 36.5192C187.363 36.3501 188.399 36.0999 189.426 35.7755L186.414 26.2397C185.82 26.4274 185.256 26.5612 184.72 26.6481L186.32 36.5192ZM183.448 28.7716L182.392 30.8836L191.336 35.3557L192.392 33.2437L183.448 28.7716ZM191.864 33.1196V27.7436H181.864V33.1196H191.864ZM186.864 22.7436H182.192V32.7436H186.864V22.7436ZM187.192 27.7436V23.6476H177.192V27.7436H187.192ZM182.192 28.6476H191.696V18.6476H182.192V28.6476ZM186.696 23.6476V34.9436H196.696V23.6476H186.696ZM189.556 30.4249C188.763 30.8003 187.8 31.1199 186.633 31.3501L188.567 41.1612C190.429 40.794 192.197 40.239 193.836 39.4623L189.556 30.4249ZM186.619 31.3527C185.452 31.5863 184.266 31.7036 183.056 31.7036V41.7036C184.918 41.7036 186.762 41.5223 188.581 41.1585L186.619 31.3527Z" fill="white" mask="url(#path-2-outside-1_2404_5820)"/>
</svg>
