<svg width="152" height="228" viewBox="0 0 152 228" fill="none" xmlns="http://www.w3.org/2000/svg">
<path d="M-3.68362e-06 23.3945L20.9731 210.342C20.9731 222.481 49.4995 228 76.0092 228C102.501 228 131.027 222.481 131.027 210.342L152 23.3945C148.535 38.586 110.989 45.5428 76.0092 45.5428C41.0112 45.5428 3.46496 38.586 -3.68362e-06 23.3945Z" fill="#BCBE4E"/>
<path fill-rule="evenodd" clip-rule="evenodd" d="M152 24.3937C152 7.64184 112.602 0 76 0C39.3797 0 0 7.64184 0 24.3937C0 41.1456 39.3979 48.7874 76 48.7874C112.602 48.7874 152 41.1633 152 24.3937Z" fill="#BCBE4E"/>
</svg>
