<?xml version="1.0" encoding="UTF-8"?>
<svg id="_圖層_2" data-name="圖層 2" xmlns="http://www.w3.org/2000/svg" viewBox="0 0 48 48">
  <defs>
    <style>
      .cls-1 {
        fill: #fff;
        stroke: #000;
        stroke-miterlimit: 10;
        stroke-width: 1.67px;
      }
    </style>
  </defs>
  <path d="m9.42,36.23h0c1.07,1.21,2.39,2.31,4,3.19,0,0,.02.01.03.02,1.4.75,3.01,1.34,4.89,1.68.69.13,1.41.19,2.12.2.05,0,.09,0,.14,0h1.77c1.23-.06,2.42-.25,3.55-.54v-9.37c-.19,0-.38,0-.57,0-4.23,0-8.03-1.36-10.62-3.52-1.75-1.35-3.04-3.02-3.67-4.89h-6.31s-.13,7.76,4.68,13.22Z"/>
  <path class="cls-1" d="m27.7,10.21h-12.12l4.01,29.7c.05.34.37.6.75.6h15.4l4.09-30.3h-12.12Z"/>
  <path d="m21.23,31.06s7.41,2.1,12.97-11.06c.27-.64,1.52-.17,1.42.44l-2.89,18.33s-6.29.4-10.65,0"/>
  <rect x="11.69" y="24.57" width="10.02" height="3.74" transform="translate(33.4 52.87) rotate(180)"/>
  <path d="m7.23,14.79v.03c-2.51,3.26-2.49,8.19-2.49,8.19l6.54.6c-.23-.61-.35-1.23-.43-1.84-.19-.83-.15-1.65.11-2.41l.67-.15c-.26.58-.36,1.21-.32,1.85l12.37,1.69,1.09-5.56-17.54-2.39Z"/>
  <path d="m16.28,10.87s5.1,1.53,11.42,1.53,11.51-1.53,11.51-1.53h-22.92Z"/>
  <path d="m14.58,9.42s5.83-2.31,13.07-2.31,13.17,2.31,13.17,2.31H14.58Z"/>
</svg>