<svg width="41" height="41" viewBox="0 0 41 41" fill="none" xmlns="http://www.w3.org/2000/svg">
<circle cx="18.9568" cy="18.9568" r="18.9568" transform="matrix(-0.996594 -0.08247 -0.08247 0.996594 40.9512 3.12646)" fill="black" fill-opacity="0.85"/>
<g filter="url(#filter0_i_2485_5506)">
<path fill-rule="evenodd" clip-rule="evenodd" d="M19.3832 38.0921C9.64252 37.4872 2.23648 29.1004 2.84138 19.3597C3.44629 9.61894 11.8331 2.2129 21.5738 2.81781C31.3145 3.42271 38.7206 11.8095 38.1157 21.5502C37.5108 31.2909 29.124 38.697 19.3832 38.0921ZM26.1291 25.4708C26.6714 25.0685 27.4372 25.1821 27.8394 25.7245C28.2416 26.2669 28.128 27.0326 27.5857 27.4348C26.362 28.3423 24.2583 29.396 21.8001 29.7058C19.3054 30.0201 16.4167 29.5668 13.7827 27.3963C13.2616 26.9669 13.1872 26.1964 13.6166 25.6753C14.046 25.1542 14.8166 25.0798 15.3377 25.5092C17.3637 27.1787 19.5448 27.5254 21.4944 27.2797C23.4804 27.0295 25.1953 26.1633 26.1291 25.4708ZM13.8209 12.3555C13.2567 12.7264 13.0999 13.4844 13.4708 14.0487L15.2406 16.7413L13.2661 18.6306C12.7782 19.0974 12.7612 19.8713 13.228 20.3592C13.6948 20.8471 14.4688 20.8641 14.9566 20.3973L17.2195 18.232C17.9049 17.5762 18.0242 16.5245 17.5032 15.7318L15.5141 12.7056C15.1433 12.1414 14.3852 11.9846 13.8209 12.3555ZM23.7071 13.6181C23.3362 13.0538 23.4929 12.2957 24.0572 11.9249C24.6215 11.554 25.3795 11.7107 25.7504 12.275L27.7395 15.3011C28.2605 16.0939 28.1412 17.1456 27.4558 17.8014L25.1929 19.9667C24.705 20.4335 23.9311 20.4164 23.4643 19.9286C22.9974 19.4407 23.0145 18.6668 23.5024 18.1999L25.4768 16.3107L23.7071 13.6181Z" fill="white"/>
</g>
<defs>
<filter id="filter0_i_2485_5506" x="2.80664" y="2.7832" width="38.6041" height="35.3433" filterUnits="userSpaceOnUse" color-interpolation-filters="sRGB">
<feFlood flood-opacity="0" result="BackgroundImageFix"/>
<feBlend mode="normal" in="SourceGraphic" in2="BackgroundImageFix" result="shape"/>
<feColorMatrix in="SourceAlpha" type="matrix" values="0 0 0 0 0 0 0 0 0 0 0 0 0 0 0 0 0 0 127 0" result="hardAlpha"/>
<feOffset dx="4.89049"/>
<feGaussianBlur stdDeviation="1.63016"/>
<feComposite in2="hardAlpha" operator="arithmetic" k2="-1" k3="1"/>
<feColorMatrix type="matrix" values="0 0 0 0 1 0 0 0 0 1 0 0 0 0 1 0 0 0 0.3 0"/>
<feBlend mode="normal" in2="shape" result="effect1_innerShadow_2485_5506"/>
</filter>
</defs>
</svg>
