<svg width="21" height="24" viewBox="0 0 21 24" fill="none" xmlns="http://www.w3.org/2000/svg">
<mask id="path-1-inside-1_1348_1489" fill="white">
<path fill-rule="evenodd" clip-rule="evenodd" d="M20.5 9.20483C20.5 10.8452 20.0124 12.3831 19.1604 13.7075C17.0396 17.6243 12.9034 21.4023 10.5 23.2048C8.09663 21.4023 3.96042 17.6243 1.83956 13.7075C0.987633 12.3831 0.5 10.8452 0.5 9.20483C0.5 8.81142 0.526458 8.43816 0.576785 8.08404C1.18983 3.6424 5.39887 0.204834 10.5 0.204834C15.6016 0.204834 19.8109 3.643 20.4234 8.08519C20.4736 8.43897 20.5 8.81185 20.5 9.20483ZM10.5 13.2048C12.9546 13.2048 14.9444 11.414 14.9444 9.20483C14.9444 6.9957 12.9546 5.20483 10.5 5.20483C8.0454 5.20483 6.05556 6.9957 6.05556 9.20483C6.05556 11.414 8.0454 13.2048 10.5 13.2048Z"/>
</mask>
<g filter="url(#filter0_i_1348_1489)">
<path fill-rule="evenodd" clip-rule="evenodd" d="M20.5 9.20483C20.5 10.8452 20.0124 12.3831 19.1604 13.7075C17.0396 17.6243 12.9034 21.4023 10.5 23.2048C8.09663 21.4023 3.96042 17.6243 1.83956 13.7075C0.987633 12.3831 0.5 10.8452 0.5 9.20483C0.5 8.81142 0.526458 8.43816 0.576785 8.08404C1.18983 3.6424 5.39887 0.204834 10.5 0.204834C15.6016 0.204834 19.8109 3.643 20.4234 8.08519C20.4736 8.43897 20.5 8.81185 20.5 9.20483ZM10.5 13.2048C12.9546 13.2048 14.9444 11.414 14.9444 9.20483C14.9444 6.9957 12.9546 5.20483 10.5 5.20483C8.0454 5.20483 6.05556 6.9957 6.05556 9.20483C6.05556 11.414 8.0454 13.2048 10.5 13.2048Z" fill="#FAB4F0"/>
</g>
<path d="M19.1604 13.7075L18.3194 13.1665C18.3058 13.1877 18.293 13.2093 18.2811 13.2314L19.1604 13.7075ZM10.5 23.2048L9.9 24.0048C10.2556 24.2715 10.7444 24.2715 11.1 24.0048L10.5 23.2048ZM1.83956 13.7075L2.71892 13.2314C2.70696 13.2093 2.69417 13.1877 2.68058 13.1665L1.83956 13.7075ZM0.576785 8.08404L1.56684 8.22475L1.56739 8.22077L0.576785 8.08404ZM20.4234 8.08519L19.4327 8.22178L19.4333 8.22574L20.4234 8.08519ZM20.0015 14.2485C20.9511 12.7722 21.5 11.048 21.5 9.20483H19.5C19.5 10.6425 19.0736 11.9941 18.3194 13.1665L20.0015 14.2485ZM11.1 24.0048C13.5508 22.1667 17.8189 18.2852 20.0398 14.1837L18.2811 13.2314C16.2603 16.9634 12.2559 20.6379 9.9 22.4048L11.1 24.0048ZM0.960195 14.1837C3.18109 18.2852 7.44917 22.1667 9.9 24.0048L11.1 22.4048C8.7441 20.6379 4.73974 16.9634 2.71892 13.2314L0.960195 14.1837ZM-0.5 9.20483C-0.5 11.048 0.0488572 12.7722 0.998531 14.2485L2.68058 13.1665C1.92641 11.9941 1.5 10.6425 1.5 9.20483H-0.5ZM-0.413266 7.94334C-0.470514 8.34615 -0.5 8.7665 -0.5 9.20483H1.5C1.5 8.85634 1.52343 8.53017 1.56684 8.22475L-0.413266 7.94334ZM10.5 -0.795166C4.97473 -0.795166 0.277328 2.93979 -0.413824 7.94732L1.56739 8.22077C2.10233 4.34502 5.823 1.20483 10.5 1.20483V-0.795166ZM21.414 7.94861C20.7235 2.94043 16.0257 -0.795166 10.5 -0.795166V1.20483C15.1774 1.20483 18.8983 4.34557 19.4327 8.22178L21.414 7.94861ZM21.5 9.20483C21.5 8.76697 21.4706 8.34705 21.4134 7.94465L19.4333 8.22574C19.4766 8.53088 19.5 8.85673 19.5 9.20483H21.5ZM13.9444 9.20483C13.9444 10.7652 12.504 12.2048 10.5 12.2048V14.2048C13.4052 14.2048 15.9444 12.0628 15.9444 9.20483H13.9444ZM10.5 6.20483C12.504 6.20483 13.9444 7.64448 13.9444 9.20483H15.9444C15.9444 6.34691 13.4052 4.20483 10.5 4.20483V6.20483ZM7.05556 9.20483C7.05556 7.64448 8.49597 6.20483 10.5 6.20483V4.20483C7.59483 4.20483 5.05556 6.34691 5.05556 9.20483H7.05556ZM10.5 12.2048C8.49597 12.2048 7.05556 10.7652 7.05556 9.20483H5.05556C5.05556 12.0628 7.59483 14.2048 10.5 14.2048V12.2048Z" fill="black" fill-opacity="0.85" mask="url(#path-1-inside-1_1348_1489)"/>
<defs>
<filter id="filter0_i_1348_1489" x="0.5" y="0.204834" width="22" height="23" filterUnits="userSpaceOnUse" color-interpolation-filters="sRGB">
<feFlood flood-opacity="0" result="BackgroundImageFix"/>
<feBlend mode="normal" in="SourceGraphic" in2="BackgroundImageFix" result="shape"/>
<feColorMatrix in="SourceAlpha" type="matrix" values="0 0 0 0 0 0 0 0 0 0 0 0 0 0 0 0 0 0 127 0" result="hardAlpha"/>
<feOffset dx="3"/>
<feGaussianBlur stdDeviation="1"/>
<feComposite in2="hardAlpha" operator="arithmetic" k2="-1" k3="1"/>
<feColorMatrix type="matrix" values="0 0 0 0 1 0 0 0 0 1 0 0 0 0 1 0 0 0 0.3 0"/>
<feBlend mode="normal" in2="shape" result="effect1_innerShadow_1348_1489"/>
</filter>
</defs>
</svg>
