<svg width="30" height="29" viewBox="0 0 30 29" fill="none" xmlns="http://www.w3.org/2000/svg">
<path fill-rule="evenodd" clip-rule="evenodd" d="M4.8125 6.5C4.8125 5.39543 5.70793 4.5 6.8125 4.5H23.7125C24.8171 4.5 25.7125 5.39543 25.7125 6.5V23.4C25.7125 24.5046 24.8171 25.4 23.7125 25.4H6.8125C5.70793 25.4 4.8125 24.5046 4.8125 23.4V6.5ZM21.0225 14.95C21.0225 18.1311 18.4437 20.71 15.2625 20.71C12.0814 20.71 9.50256 18.1311 9.50256 14.95C9.50256 11.7689 12.0814 9.19004 15.2625 9.19004C18.4437 9.19004 21.0225 11.7689 21.0225 14.95ZM21.5623 9.40771C22.0538 9.40771 22.4522 9.00928 22.4522 8.5178C22.4522 8.02632 22.0538 7.62789 21.5623 7.62789C21.0708 7.62789 20.6724 8.02632 20.6724 8.5178C20.6724 9.00928 21.0708 9.40771 21.5623 9.40771Z" fill="white"/>
<circle cx="15.2623" cy="14.9498" r="3.81499" fill="white"/>
</svg>
