<svg width="122" height="121" viewBox="0 0 122 121" fill="none" xmlns="http://www.w3.org/2000/svg">
<g filter="url(#filter0_d_679_3634)">
<g clip-path="url(#clip0_679_3634)">
<rect x="1" width="120" height="120" rx="60" fill="#F4F4F4" fill-opacity="0.8" shape-rendering="crispEdges"/>
<path fill-rule="evenodd" clip-rule="evenodd" d="M71.5591 45.0824L61.1245 35.9755V26.3324L63.5277 28.4298L82.7883 45.2397C83.6667 46.0062 84.0915 47.113 84.0364 48.2074C84.0915 49.3018 83.6667 50.4086 82.7883 51.1751L63.5277 67.985L61.1245 70.0824V60.4392L71.5591 51.3324L42.2842 51.3324H39.1592V45.0824H42.2842L71.5591 45.0824Z" fill="#FFF55F"/>
<path d="M71.5591 45.0824V45.8324L72.0523 44.5173L71.5591 45.0824ZM61.1245 35.9755H60.3745L60.6314 36.5406L61.1245 35.9755ZM61.1245 26.3324L61.6177 25.7673L60.3745 26.3324H61.1245ZM63.5277 28.4298L64.0208 27.8647L64.0208 27.8647L63.5277 28.4298ZM82.7883 45.2397L82.2952 45.8047L82.2952 45.8048L82.7883 45.2397ZM84.0364 48.2074L83.2874 48.1697V48.2451L84.0364 48.2074ZM82.7883 51.1751L82.2952 50.61L82.2952 50.6101L82.7883 51.1751ZM63.5277 67.985L64.0208 68.5501L63.5277 67.985ZM61.1245 70.0824H60.3745L61.6177 70.6475L61.1245 70.0824ZM61.1245 60.4392L60.6314 59.8742L60.3745 60.4392H61.1245ZM71.5591 51.3324L72.0523 51.8975L71.5591 50.5824V51.3324ZM42.2842 51.3324V50.5824V51.3324ZM39.1592 51.3324H38.4092L39.1592 52.0824V51.3324ZM39.1592 45.0824V44.3324L38.4092 45.0824H39.1592ZM42.2842 45.0824V44.3324V45.0824ZM72.0523 44.5173L61.6177 35.4105L60.6314 36.5406L71.066 45.6475L72.0523 44.5173ZM61.8745 35.9755V26.3324H60.3745V35.9755H61.8745ZM60.6314 26.8975L63.0345 28.9948L64.0208 27.8647L61.6177 25.7673L60.6314 26.8975ZM63.0345 28.9948L82.2952 45.8047L83.2815 44.6746L64.0208 27.8647L63.0345 28.9948ZM82.2952 45.8048C82.9906 46.4116 83.3316 47.2915 83.2874 48.1697L84.7855 48.2451C84.8514 46.9346 84.3429 45.6009 83.2815 44.6746L82.2952 45.8048ZM83.2874 48.2451C83.3316 49.1233 82.9906 50.0032 82.2952 50.61L83.2815 51.7402C84.3429 50.8139 84.8514 49.4802 84.7855 48.1697L83.2874 48.2451ZM82.2952 50.6101L63.0345 67.4199L64.0208 68.5501L83.2815 51.7402L82.2952 50.6101ZM63.0345 67.4199L60.6314 69.5173L61.6177 70.6475L64.0208 68.5501L63.0345 67.4199ZM61.8745 70.0824V60.4392H60.3745V70.0824H61.8745ZM61.6177 61.0043L72.0523 51.8975L71.066 50.7673L60.6314 59.8742L61.6177 61.0043ZM71.5591 50.5824L42.2842 50.5824V52.0824L71.5591 52.0824V50.5824ZM42.2842 50.5824H39.1592V52.0824H42.2842V50.5824ZM39.9092 51.3324V45.0824H38.4092V51.3324H39.9092ZM39.1592 45.8324H42.2842V44.3324H39.1592V45.8324ZM42.2842 45.8324L71.5591 45.8324V44.3324L42.2842 44.3324V45.8324Z" fill="black" fill-opacity="0.85"/>
<path d="M32.816 90.7927L34.256 81.6007C34.336 81.1367 34.392 80.6647 34.424 80.1847C34.472 79.6887 34.504 79.1927 34.52 78.6967H36.872L36.704 81.2407H36.392C36.856 80.3287 37.464 79.6407 38.216 79.1767C38.968 78.7127 39.832 78.4807 40.808 78.4807C41.784 78.4807 42.568 78.7207 43.16 79.2007C43.752 79.6807 44.08 80.4007 44.144 81.3607H43.76C44.208 80.4967 44.848 79.8007 45.68 79.2727C46.512 78.7447 47.424 78.4807 48.416 78.4807C49.776 78.4807 50.744 78.8887 51.32 79.7047C51.912 80.5207 52.072 81.8007 51.8 83.5447L50.648 90.7927H48.224L49.4 83.4247C49.56 82.3847 49.488 81.6247 49.184 81.1447C48.88 80.6647 48.32 80.4247 47.504 80.4247C46.576 80.4247 45.808 80.7447 45.2 81.3847C44.592 82.0247 44.2 82.8887 44.024 83.9767L42.92 90.7927H40.496L41.672 83.4247C41.848 82.3847 41.784 81.6247 41.48 81.1447C41.192 80.6647 40.632 80.4247 39.8 80.4247C38.872 80.4247 38.104 80.7447 37.496 81.3847C36.888 82.0247 36.496 82.8887 36.32 83.9767L35.24 90.7927H32.816ZM59.4967 91.0087C58.2487 91.0087 57.2087 90.7527 56.3767 90.2407C55.5447 89.7287 54.9527 88.9767 54.6007 87.9847C54.2647 86.9927 54.2007 85.8007 54.4087 84.4087C54.6167 83.1287 55.0247 82.0487 55.6327 81.1687C56.2567 80.2727 57.0247 79.6007 57.9367 79.1527C58.8647 78.7047 59.8967 78.4807 61.0327 78.4807C62.3127 78.4807 63.3607 78.7447 64.1767 79.2727C65.0087 79.7847 65.5927 80.5367 65.9287 81.5287C66.2807 82.5047 66.3447 83.6807 66.1207 85.0567C65.9127 86.3527 65.4967 87.4407 64.8727 88.3207C64.2647 89.2007 63.4967 89.8727 62.5687 90.3367C61.6567 90.7847 60.6327 91.0087 59.4967 91.0087ZM59.6647 89.1127C60.6727 89.1127 61.5447 88.7527 62.2807 88.0327C63.0167 87.3127 63.4967 86.2407 63.7207 84.8167C63.9607 83.3287 63.8087 82.2247 63.2647 81.5047C62.7367 80.7687 61.9447 80.4007 60.8887 80.4007C59.8487 80.4007 58.9687 80.7607 58.2487 81.4807C57.5447 82.2007 57.0727 83.2567 56.8327 84.6487C56.6087 86.1527 56.7527 87.2727 57.2647 88.0087C57.7767 88.7447 58.5767 89.1127 59.6647 89.1127ZM68.018 90.7927L69.482 81.6967C69.562 81.2007 69.626 80.7047 69.674 80.2087C69.722 79.6967 69.754 79.1927 69.77 78.6967H72.122L71.954 81.8167H71.498C71.786 81.0647 72.154 80.4407 72.602 79.9447C73.066 79.4487 73.594 79.0807 74.186 78.8407C74.778 78.6007 75.386 78.4807 76.01 78.4807C76.234 78.4807 76.434 78.4967 76.61 78.5287C76.802 78.5447 76.986 78.5687 77.162 78.6007L76.778 80.7607C76.554 80.6647 76.338 80.6087 76.13 80.5927C75.922 80.5607 75.674 80.5447 75.386 80.5447C74.714 80.5447 74.106 80.6967 73.562 81.0007C73.018 81.2887 72.57 81.6887 72.218 82.2007C71.882 82.7127 71.666 83.3047 71.57 83.9767L70.466 90.7927H68.018ZM82.8288 91.0087C81.4528 91.0087 80.3088 90.7367 79.3968 90.1927C78.5008 89.6487 77.8688 88.8727 77.5008 87.8647C77.1328 86.8567 77.0528 85.6807 77.2608 84.3367C77.4688 83.1047 77.8608 82.0567 78.4368 81.1927C79.0128 80.3127 79.7488 79.6407 80.6448 79.1767C81.5408 78.7127 82.5648 78.4807 83.7168 78.4807C84.8528 78.4807 85.7888 78.7287 86.5248 79.2247C87.2608 79.7207 87.7808 80.4087 88.0848 81.2887C88.4048 82.1527 88.4768 83.1607 88.3008 84.3127L88.1808 85.0327H79.0848L79.3008 83.6407H86.7408L86.3088 84.0007C86.4848 82.7687 86.3408 81.8327 85.8768 81.1927C85.4288 80.5367 84.6688 80.2087 83.5968 80.2087C82.8448 80.2087 82.1888 80.3847 81.6288 80.7367C81.0688 81.0727 80.6208 81.5367 80.2848 82.1287C79.9488 82.7207 79.7328 83.3927 79.6368 84.1447L79.5168 84.8167C79.3408 86.1927 79.5488 87.2567 80.1408 88.0087C80.7328 88.7447 81.7168 89.1127 83.0928 89.1127C83.7648 89.1127 84.4208 89.0167 85.0608 88.8247C85.7008 88.6167 86.3008 88.2807 86.8608 87.8167L87.6288 89.4727C86.9888 89.9687 86.2448 90.3527 85.3968 90.6247C84.5648 90.8807 83.7088 91.0087 82.8288 91.0087Z" fill="black"/>
</g>
<rect x="1.87165" y="0.871654" width="118.257" height="118.257" rx="59.1283" stroke="black" stroke-width="1.74331" shape-rendering="crispEdges"/>
</g>
<defs>
<filter id="filter0_d_679_3634" x="0.692325" y="0" width="120.615" height="120.718" filterUnits="userSpaceOnUse" color-interpolation-filters="sRGB">
<feFlood flood-opacity="0" result="BackgroundImageFix"/>
<feColorMatrix in="SourceAlpha" type="matrix" values="0 0 0 0 0 0 0 0 0 0 0 0 0 0 0 0 0 0 127 0" result="hardAlpha"/>
<feOffset dy="0.410233"/>
<feGaussianBlur stdDeviation="0.153838"/>
<feComposite in2="hardAlpha" operator="out"/>
<feColorMatrix type="matrix" values="0 0 0 0 0 0 0 0 0 0 0 0 0 0 0 0 0 0 0.1 0"/>
<feBlend mode="normal" in2="BackgroundImageFix" result="effect1_dropShadow_679_3634"/>
<feBlend mode="normal" in="SourceGraphic" in2="effect1_dropShadow_679_3634" result="shape"/>
</filter>
<clipPath id="clip0_679_3634">
<rect x="1" width="120" height="120" rx="60" fill="white"/>
</clipPath>
</defs>
</svg>
