<svg width="472" height="64" viewBox="0 0 472 64" fill="none" xmlns="http://www.w3.org/2000/svg">
<g filter="url(#filter0_i_223_1313)">
<path d="M47.428 23.488C54.4093 25.3653 59.6307 27.8587 63.092 30.968C66.5533 34.0187 68.284 38.008 68.284 42.936C68.284 46.8667 67.052 50.3867 64.588 53.496C62.124 56.6053 58.4867 59.04 53.676 60.8C48.924 62.56 43.1453 63.44 36.34 63.44C28.3027 63.44 21.204 62.4133 15.044 60.36C8.94267 58.248 4.16133 55.696 0.7 52.704L3.604 48.744C6.65467 51.1493 10.4973 53.2027 15.132 54.904C19.7667 56.6053 24.7533 57.456 30.092 57.456C33.5533 57.456 36.164 56.9573 37.924 55.96C39.7427 54.9627 40.652 53.5547 40.652 51.736C40.652 48.568 37.5133 46.104 31.236 44.344L19.796 41C13.5773 39.1227 8.76667 36.512 5.364 33.168C2.02 29.824 0.348 25.864 0.348 21.288C0.348 17.4747 1.55067 14.0133 3.956 10.904C6.36133 7.79466 9.852 5.36 14.428 3.6C19.0627 1.78133 24.6067 0.871997 31.06 0.871997C37.22 0.871997 42.8813 1.576 48.044 2.984C53.2653 4.392 57.5187 6.09333 60.804 8.088L57.9 12.136C55.1427 10.552 51.828 9.20267 47.956 8.088C44.1427 6.97333 40.124 6.416 35.9 6.416C32.204 6.416 29.3587 7.00267 27.364 8.176C25.428 9.29066 24.46 10.8453 24.46 12.84C24.46 14.3653 25.1933 15.7147 26.66 16.888C28.1267 18.0027 30.9133 19.1173 35.02 20.232L47.428 23.488ZM77.1218 1.4H141.098V6.592H108.098V29.384H124.29V34.664H108.098V57.72H141.098V63H77.1218V1.4ZM172.28 1.4H197.976L225.256 63H191.992L182.752 42.584H163.392L155.472 63H149.048L172.28 1.4ZM180.288 37.216L172.28 19.352L165.328 37.216H180.288ZM233.133 1.4H292.005C294.879 1.4 297.519 2.13333 299.925 3.6C302.389 5.008 304.325 6.944 305.733 9.408C307.199 11.8133 307.933 14.4533 307.933 17.328C307.933 21.1413 306.759 24.6027 304.413 27.712C302.066 30.8213 299.103 32.816 295.525 33.696C298.693 34.576 301.274 36.248 303.269 38.712C305.322 41.176 306.349 43.9627 306.349 47.072V63H276.869V43.904C276.869 42.0267 276.517 40.56 275.813 39.504C274.991 38.272 274.053 37.3627 272.997 36.776C271.823 36.1307 270.503 35.6613 269.037 35.368C267.511 35.0747 266.074 34.8987 264.725 34.84L262.349 34.752V63H233.133V1.4ZM265.429 29.648C267.541 29.648 269.477 29.1493 271.237 28.152C273.055 27.096 274.463 25.688 275.461 23.928C276.517 22.1093 277.045 20.1733 277.045 18.12C277.045 16.008 276.517 14.072 275.461 12.312C274.463 10.4933 273.055 9.056 271.237 8C269.477 6.944 267.541 6.416 265.429 6.416H262.349V29.736L265.429 29.648ZM362.513 57.28C366.913 57.28 370.403 55.4907 372.985 51.912C375.566 48.3333 377.238 43.992 378.001 38.888H383.457C382.635 45.224 380.553 50.6213 377.209 55.08C375.331 57.544 373.19 59.392 370.785 60.624C368.438 61.7973 365.827 62.56 362.953 62.912C360.137 63.264 356.441 63.44 351.865 63.44C345.411 63.44 340.161 62.824 336.113 61.592C332.123 60.3013 328.691 58.2187 325.817 55.344C320.185 49.712 317.369 41.968 317.369 32.112C317.369 21.728 319.891 14.0133 324.937 8.968C328.222 5.68267 331.889 3.512 335.937 2.456C339.985 1.4 345.294 0.871997 351.865 0.871997C357.907 0.871997 362.806 1.312 366.561 2.192C370.374 3.01333 373.483 4.80266 375.889 7.56C377.883 9.848 379.438 12.6053 380.553 15.832C381.667 19.0587 382.313 22.256 382.489 25.424H377.473C377.238 22.784 376.593 20.0853 375.537 17.328C374.539 14.512 372.955 12.1067 370.785 10.112C368.614 8.05866 365.857 7.032 362.513 7.032C359.345 7.032 356.793 8.41066 354.857 11.168C353.155 13.3387 351.865 16.536 350.985 20.76C350.339 23.9867 350.017 27.7707 350.017 32.112C350.017 38.976 350.838 44.52 352.481 48.744C354.593 54.4347 357.937 57.28 362.513 57.28ZM392.152 1.4H422.072V28.944H441.52V1.4H471.44V63H441.52V34.84H422.072V63H392.152V1.4Z" fill="#5082FF"/>
</g>
<defs>
<filter id="filter0_i_223_1313" x="0.348145" y="-0.128052" width="471.091" height="63.568" filterUnits="userSpaceOnUse" color-interpolation-filters="sRGB">
<feFlood flood-opacity="0" result="BackgroundImageFix"/>
<feBlend mode="normal" in="SourceGraphic" in2="BackgroundImageFix" result="shape"/>
<feColorMatrix in="SourceAlpha" type="matrix" values="0 0 0 0 0 0 0 0 0 0 0 0 0 0 0 0 0 0 127 0" result="hardAlpha"/>
<feOffset dy="-2.5"/>
<feGaussianBlur stdDeviation="0.5"/>
<feComposite in2="hardAlpha" operator="arithmetic" k2="-1" k3="1"/>
<feColorMatrix type="matrix" values="0 0 0 0 0 0 0 0 0 0.139617 0 0 0 0 0.465394 0 0 0 0.25 0"/>
<feBlend mode="normal" in2="shape" result="effect1_innerShadow_223_1313"/>
</filter>
</defs>
</svg>
