<svg width="41" height="41" viewBox="0 0 41 41" fill="none" xmlns="http://www.w3.org/2000/svg">
<circle cx="18.9568" cy="18.9568" r="18.9568" transform="matrix(-0.996594 -0.08247 -0.08247 0.996594 40.9551 3.12646)" fill="black" fill-opacity="0.85"/>
<g filter="url(#filter0_i_770_2816)">
<path fill-rule="evenodd" clip-rule="evenodd" d="M19.3871 38.0921C9.64642 37.4872 2.24038 29.1004 2.84529 19.3597C3.4502 9.61894 11.837 2.2129 21.5777 2.81781C31.3184 3.42271 38.7245 11.8095 38.1196 21.5502C37.5147 31.2909 29.1279 38.697 19.3871 38.0921ZM26.133 25.4708C26.6753 25.0685 27.4411 25.1821 27.8433 25.7245C28.2455 26.2669 28.1319 27.0326 27.5896 27.4348C26.3659 28.3423 24.2622 29.396 21.804 29.7058C19.3094 30.0201 16.4206 29.5668 13.7866 27.3963C13.2655 26.9669 13.1912 26.1964 13.6206 25.6753C14.05 25.1542 14.8205 25.0798 15.3416 25.5092C17.3676 27.1787 19.5487 27.5254 21.4983 27.2797C23.4843 27.0295 25.1992 26.1633 26.133 25.4708ZM13.8248 12.3555C13.2606 12.7264 13.1038 13.4844 13.4747 14.0487L15.2445 16.7413L13.27 18.6306C12.7821 19.0974 12.7651 19.8713 13.2319 20.3592C13.6987 20.8471 14.4727 20.8641 14.9605 20.3973L17.2234 18.232C17.9088 17.5762 18.0281 16.5245 17.5071 15.7318L15.5181 12.7056C15.1472 12.1414 14.3891 11.9846 13.8248 12.3555ZM23.711 13.6181C23.3401 13.0538 23.4968 12.2957 24.0611 11.9249C24.6254 11.554 25.3834 11.7107 25.7543 12.275L27.7434 15.3011C28.2644 16.0939 28.1451 17.1456 27.4597 17.8014L25.1968 19.9667C24.7089 20.4335 23.935 20.4164 23.4682 19.9286C23.0014 19.4407 23.0184 18.6668 23.5063 18.1999L25.4807 16.3107L23.711 13.6181Z" fill="white"/>
</g>
<defs>
<filter id="filter0_i_770_2816" x="2.81055" y="2.7832" width="38.6041" height="35.3433" filterUnits="userSpaceOnUse" color-interpolation-filters="sRGB">
<feFlood flood-opacity="0" result="BackgroundImageFix"/>
<feBlend mode="normal" in="SourceGraphic" in2="BackgroundImageFix" result="shape"/>
<feColorMatrix in="SourceAlpha" type="matrix" values="0 0 0 0 0 0 0 0 0 0 0 0 0 0 0 0 0 0 127 0" result="hardAlpha"/>
<feOffset dx="4.89049"/>
<feGaussianBlur stdDeviation="1.63016"/>
<feComposite in2="hardAlpha" operator="arithmetic" k2="-1" k3="1"/>
<feColorMatrix type="matrix" values="0 0 0 0 1 0 0 0 0 1 0 0 0 0 1 0 0 0 0.3 0"/>
<feBlend mode="normal" in2="shape" result="effect1_innerShadow_770_2816"/>
</filter>
</defs>
</svg>
