<svg width="94" height="94" viewBox="0 0 94 94" fill="none" xmlns="http://www.w3.org/2000/svg">
<path d="M38.677 0.829646L46.3102 23.35L52.5031 0.402981L53.1789 24.1721L65.8443 4.08141L59.5028 26.9872L77.5154 11.538L64.7198 31.5454L86.4793 22.1104L68.3665 37.4415L91.9393 34.8588L70.1187 44.1516L93.4106 48.651L69.8212 51.0797L90.7622 62.2612L67.5002 57.6099L84.2296 74.4801L63.3615 63.1619L74.3931 84.222L57.7734 67.2427L62.127 90.621L51.2322 69.4897L48.5206 93.1091L44.3192 69.703L34.7836 91.465L37.6486 67.8638L22.1361 85.8345L31.813 64.1357L11.7021 76.7182L27.3311 58.8495L4.40864 64.9259L24.601 52.475L0.903814 51.5057L23.8654 45.5791L1.49903 37.6499L25.1896 38.7739L6.14141 24.5896L28.4558 32.6645L14.4184 13.4852L33.3742 27.7936L25.5946 5.3235L39.5074 24.5939L38.677 0.829646Z" fill="#5082FF"/>
</svg>
