<svg width="85" height="85" viewBox="0 0 85 85" fill="none" xmlns="http://www.w3.org/2000/svg">
<path d="M34.8573 0.861726L41.8126 21.3816L47.4553 0.472961L48.0711 22.1307L59.6115 3.82464L53.8332 24.6958L70.2458 10.6189L58.5868 28.8491L78.4135 20.2521L61.9096 34.2214L83.3884 31.8681L63.5062 40.3354L84.7291 44.4352L63.2351 46.6482L82.3159 56.8364L61.1202 52.5983L76.3636 67.9699L57.3492 57.6571L67.4009 76.8465L52.2575 61.3755L56.2244 82.6771L46.2973 63.4228L43.8266 84.9442L39.9983 63.6172L31.3098 83.4461L33.9203 61.9413L19.7858 78.3158L28.6031 58.5444L10.2786 70.0093L24.5193 53.7278L3.633 59.2645L22.0317 47.9195L0.439504 47.0363L21.3614 41.6361L0.981847 34.4113L22.568 35.4355L5.21186 22.5111L25.5441 29.8688L12.7536 12.3931L30.0256 25.4305L22.9371 4.95639L35.614 22.5151L34.8573 0.861726Z" fill="#FAB4F0"/>
</svg>
