<svg width="302" height="264" viewBox="0 0 302 264" fill="none" xmlns="http://www.w3.org/2000/svg">
<g filter="url(#filter0_ddi_1951_5003)">
<path fill-rule="evenodd" clip-rule="evenodd" d="M256.034 59.4289C276.109 83.9775 277.174 114.185 276.762 144.2C276.313 176.87 281.015 213.754 253.603 236.351C225.591 259.444 181.958 258.749 143.559 254.01C108.297 249.658 77.7166 233.969 53.3123 211.631C27.7553 188.239 2.51589 160.252 6.21982 128.303C9.86111 96.895 44.1726 77.7177 71.2996 56.48C99.3536 34.5165 125.315 4.77102 163.235 5.37634C202.054 5.99601 233.685 32.1001 256.034 59.4289Z" fill="url(#paint0_radial_1951_5003)" fill-opacity="0.2" shape-rendering="crispEdges"/>
<path fill-rule="evenodd" clip-rule="evenodd" d="M294.139 59.0379C293.794 67.7117 292.893 77.8869 284.486 82.663C276.326 87.2986 266.165 80.8626 256.405 80.4753C245.591 80.0461 231.793 87.6865 225.164 80.3087C218.494 72.8845 230.296 63.1513 232.591 53.969C234.392 46.7626 231.618 38.7778 236.98 33.0347C243.339 26.223 252.869 20.6609 262.97 21.4306C273.108 22.2032 280.397 29.6556 286.314 36.7943C291.745 43.3473 294.46 50.9871 294.139 59.0379Z" fill="url(#paint1_radial_1951_5003)" fill-opacity="0.5" shape-rendering="crispEdges"/>
</g>
<defs>
<filter id="filter0_ddi_1951_5003" x="0.856445" y="0.367249" width="300.309" height="263.304" filterUnits="userSpaceOnUse" color-interpolation-filters="sRGB">
<feFlood flood-opacity="0" result="BackgroundImageFix"/>
<feColorMatrix in="SourceAlpha" type="matrix" values="0 0 0 0 0 0 0 0 0 0 0 0 0 0 0 0 0 0 127 0" result="hardAlpha"/>
<feOffset dy="2"/>
<feGaussianBlur stdDeviation="1"/>
<feComposite in2="hardAlpha" operator="out"/>
<feColorMatrix type="matrix" values="0 0 0 0 0.00866903 0 0 0 0 0.25075 0 0 0 0 0.394022 0 0 0 0.1 0"/>
<feBlend mode="normal" in2="BackgroundImageFix" result="effect1_dropShadow_1951_5003"/>
<feColorMatrix in="SourceAlpha" type="matrix" values="0 0 0 0 0 0 0 0 0 0 0 0 0 0 0 0 0 0 127 0" result="hardAlpha"/>
<feOffset dx="1" dy="1"/>
<feGaussianBlur stdDeviation="3"/>
<feColorMatrix type="matrix" values="0 0 0 0 0.915299 0 0 0 0 0.968979 0 0 0 0 0.998504 0 0 0 0.5 0"/>
<feBlend mode="normal" in2="effect1_dropShadow_1951_5003" result="effect2_dropShadow_1951_5003"/>
<feBlend mode="normal" in="SourceGraphic" in2="effect2_dropShadow_1951_5003" result="shape"/>
<feColorMatrix in="SourceAlpha" type="matrix" values="0 0 0 0 0 0 0 0 0 0 0 0 0 0 0 0 0 0 127 0" result="hardAlpha"/>
<feOffset dy="1"/>
<feGaussianBlur stdDeviation="5.6"/>
<feComposite in2="hardAlpha" operator="arithmetic" k2="-1" k3="1"/>
<feColorMatrix type="matrix" values="0 0 0 0 0.977947 0 0 0 0 0.991654 0 0 0 0 0.99983 0 0 0 1 0"/>
<feBlend mode="normal" in2="shape" result="effect3_innerShadow_1951_5003"/>
</filter>
<radialGradient id="paint0_radial_1951_5003" cx="0" cy="0" r="1" gradientUnits="userSpaceOnUse" gradientTransform="translate(160.229 102.618) rotate(114.758) scale(171.71 182.761)">
<stop stop-color="#8FCFF6" stop-opacity="0.8"/>
<stop offset="0.34522" stop-color="#C1E5FA" stop-opacity="0.6"/>
<stop offset="0.584072" stop-color="#EAF6FD" stop-opacity="0.2"/>
<stop offset="1" stop-color="white" stop-opacity="0"/>
</radialGradient>
<radialGradient id="paint1_radial_1951_5003" cx="0" cy="0" r="1" gradientUnits="userSpaceOnUse" gradientTransform="translate(260.118 53.4878) rotate(142.171) scale(32.8696 34.6309)">
<stop stop-color="#8FCFF6"/>
<stop offset="1" stop-color="white"/>
</radialGradient>
</defs>
</svg>
