<svg width="109" height="98" viewBox="0 0 109 98" fill="none" xmlns="http://www.w3.org/2000/svg">
<circle cx="33.7902" cy="33.7902" r="33.7902" transform="matrix(-0.999984 0.0057414 0.0057414 0.999984 73.1309 6.50537)" fill="black"/>
<path fill-rule="evenodd" clip-rule="evenodd" d="M40.3301 71.9774C22.9399 72.4346 8.47181 58.7077 8.01462 41.3176C7.55744 23.9274 21.2843 9.45932 38.6745 9.00213C56.0646 8.54494 70.5327 22.2718 70.9899 39.662C71.4471 57.0521 57.7202 71.5202 40.3301 71.9774ZM48.8652 49.1616C49.8557 48.3859 51.2875 48.56 52.0632 49.5505C52.8389 50.541 52.6648 51.9728 51.6743 52.7485C49.525 54.4318 45.8103 56.4159 41.4256 57.0859C36.9733 57.7662 31.776 57.0903 26.9558 53.3266C25.9642 52.5523 25.788 51.1208 26.5623 50.1292C27.3366 49.1375 28.7681 48.9613 29.7597 49.7356C33.4229 52.5958 37.297 53.1079 40.7375 52.5822C44.2456 52.0461 47.2452 50.4303 48.8652 49.1616ZM26.3472 27.0777C25.361 27.8588 25.1946 29.2915 25.9756 30.2778L29.4902 34.7159L26.3356 38.319C25.5068 39.2655 25.6023 40.7047 26.5489 41.5335C27.4955 42.3622 28.9346 42.2667 29.7634 41.3202L33.7512 36.7655C34.7166 35.6628 34.757 34.028 33.8471 32.8791L29.5473 27.4494C28.7663 26.4631 27.3335 26.2967 26.3472 27.0777ZM44.0809 27.904C43.2998 26.9177 43.4662 25.485 44.4525 24.704C45.4388 23.9229 46.8715 24.0893 47.6526 25.0756L51.9524 30.5053C52.8622 31.6542 52.8219 33.289 51.8565 34.3917L47.8687 38.9464C47.0399 39.8929 45.6007 39.9884 44.6542 39.1597C43.7076 38.3309 43.6121 36.8918 44.4409 35.9452L47.5955 32.3421L44.0809 27.904Z" fill="#FFF460"/>
<circle cx="33.7902" cy="33.7902" r="33.7902" transform="matrix(-0.984936 -0.17292 -0.17292 0.984936 107.516 30.5156)" fill="black"/>
<path fill-rule="evenodd" clip-rule="evenodd" d="M63.5509 89.0784C46.3586 86.4228 34.5743 70.333 37.2298 53.1407C39.8854 35.9484 55.9752 24.1641 73.1675 26.8196C90.3598 29.4752 102.144 45.565 99.4886 62.7573C96.833 79.9496 80.7432 91.7339 63.5509 89.0784ZM76.0224 68.1533C77.1354 67.5669 78.5131 67.9939 79.0995 69.107C79.6859 70.2201 79.2589 71.5977 78.1458 72.1841C75.7305 73.4565 71.7212 74.7455 67.2873 74.6217C62.7851 74.496 57.7921 72.9029 53.7214 68.3389C52.884 67.4 52.9663 65.96 53.9052 65.1226C54.8441 64.2852 56.2841 64.3675 57.1215 65.3064C60.215 68.7748 63.9354 69.9704 67.4145 70.0675C70.962 70.1665 74.2019 69.1123 76.0224 68.1533ZM57.8112 42.4035C56.7013 42.9958 56.2817 44.3758 56.8741 45.4857L59.5397 50.4801L55.7924 53.4619C54.8079 54.2453 54.6449 55.6784 55.4282 56.6629C56.2116 57.6473 57.6447 57.8103 58.6292 57.027L63.3662 53.2576C64.513 52.3451 64.8446 50.7438 64.1546 49.4508L60.8935 43.3406C60.3011 42.2307 58.9211 41.8111 57.8112 42.4035ZM75.1129 46.3833C74.5205 45.2734 74.9401 43.8934 76.05 43.301C77.1599 42.7086 78.5399 43.1282 79.1322 44.2381L82.3933 50.3484C83.0834 51.6413 82.7518 53.2426 81.6049 54.1552L76.8679 57.9245C75.8835 58.7079 74.4504 58.5449 73.667 57.5604C72.8836 56.5759 73.0467 55.1428 74.0311 54.3595L77.7784 51.3777L75.1129 46.3833Z" fill="#FFF460"/>
</svg>
