<svg width="122" height="121" viewBox="0 0 122 121" fill="none" xmlns="http://www.w3.org/2000/svg">
<g filter="url(#filter0_d_679_3642)">
<g clip-path="url(#clip0_679_3642)">
<rect x="1.17383" y="0.174316" width="120" height="120" rx="60" fill="white" fill-opacity="0.8" shape-rendering="crispEdges"/>
<path fill-rule="evenodd" clip-rule="evenodd" d="M71.732 45.2568L61.2974 36.15V26.5068L63.7005 28.6042L82.9612 45.4141C83.8396 46.1807 84.2644 47.2875 84.2093 48.3818C84.2644 49.4762 83.8396 50.583 82.9612 51.3496L63.7005 68.1594L61.2974 70.2568V60.6137L71.732 51.5068L42.457 51.5068H39.332V45.2568H42.457L71.732 45.2568Z" fill="black"/>
<path d="M32.9898 90.9673L34.4298 81.7753C34.5098 81.3113 34.5658 80.8393 34.5978 80.3593C34.6458 79.8633 34.6778 79.3673 34.6938 78.8713H37.0458L36.8778 81.4153H36.5658C37.0298 80.5033 37.6378 79.8153 38.3898 79.3513C39.1418 78.8873 40.0058 78.6553 40.9818 78.6553C41.9578 78.6553 42.7418 78.8953 43.3338 79.3753C43.9258 79.8553 44.2538 80.5753 44.3178 81.5353H43.9338C44.3818 80.6713 45.0218 79.9753 45.8538 79.4473C46.6858 78.9193 47.5978 78.6553 48.5898 78.6553C49.9498 78.6553 50.9178 79.0633 51.4938 79.8793C52.0858 80.6953 52.2458 81.9753 51.9738 83.7193L50.8218 90.9673H48.3978L49.5738 83.5993C49.7338 82.5593 49.6618 81.7993 49.3578 81.3193C49.0538 80.8393 48.4938 80.5993 47.6778 80.5993C46.7498 80.5993 45.9818 80.9193 45.3738 81.5593C44.7658 82.1993 44.3738 83.0633 44.1978 84.1513L43.0938 90.9673H40.6698L41.8458 83.5993C42.0218 82.5593 41.9578 81.7993 41.6538 81.3193C41.3658 80.8393 40.8058 80.5993 39.9738 80.5993C39.0458 80.5993 38.2778 80.9193 37.6698 81.5593C37.0618 82.1993 36.6698 83.0633 36.4938 84.1513L35.4138 90.9673H32.9898ZM59.6705 91.1833C58.4225 91.1833 57.3825 90.9273 56.5505 90.4153C55.7185 89.9033 55.1265 89.1513 54.7745 88.1593C54.4385 87.1673 54.3745 85.9753 54.5825 84.5833C54.7905 83.3033 55.1985 82.2233 55.8065 81.3433C56.4305 80.4473 57.1985 79.7753 58.1105 79.3273C59.0385 78.8793 60.0705 78.6553 61.2065 78.6553C62.4865 78.6553 63.5345 78.9193 64.3505 79.4473C65.1825 79.9593 65.7665 80.7113 66.1025 81.7033C66.4545 82.6793 66.5185 83.8553 66.2945 85.2313C66.0865 86.5273 65.6705 87.6153 65.0465 88.4953C64.4385 89.3753 63.6705 90.0473 62.7425 90.5113C61.8305 90.9593 60.8065 91.1833 59.6705 91.1833ZM59.8385 89.2873C60.8465 89.2873 61.7185 88.9273 62.4545 88.2073C63.1905 87.4873 63.6705 86.4153 63.8945 84.9913C64.1345 83.5033 63.9825 82.3993 63.4385 81.6793C62.9105 80.9433 62.1185 80.5753 61.0625 80.5753C60.0225 80.5753 59.1425 80.9353 58.4225 81.6553C57.7185 82.3753 57.2465 83.4313 57.0065 84.8233C56.7825 86.3273 56.9265 87.4473 57.4385 88.1833C57.9505 88.9193 58.7505 89.2873 59.8385 89.2873ZM68.1918 90.9673L69.6558 81.8713C69.7358 81.3753 69.7998 80.8793 69.8478 80.3833C69.8958 79.8713 69.9278 79.3673 69.9438 78.8713H72.2958L72.1278 81.9913H71.6718C71.9598 81.2393 72.3278 80.6153 72.7758 80.1193C73.2398 79.6233 73.7678 79.2553 74.3598 79.0153C74.9518 78.7753 75.5598 78.6553 76.1838 78.6553C76.4078 78.6553 76.6078 78.6713 76.7838 78.7033C76.9758 78.7193 77.1598 78.7433 77.3358 78.7753L76.9518 80.9353C76.7278 80.8393 76.5118 80.7833 76.3038 80.7673C76.0958 80.7353 75.8478 80.7193 75.5598 80.7193C74.8878 80.7193 74.2798 80.8713 73.7358 81.1753C73.1918 81.4633 72.7438 81.8633 72.3918 82.3753C72.0558 82.8873 71.8398 83.4793 71.7438 84.1513L70.6398 90.9673H68.1918ZM83.0026 91.1833C81.6266 91.1833 80.4826 90.9113 79.5706 90.3673C78.6746 89.8233 78.0426 89.0473 77.6746 88.0393C77.3066 87.0313 77.2266 85.8553 77.4346 84.5113C77.6426 83.2793 78.0346 82.2313 78.6106 81.3673C79.1866 80.4873 79.9226 79.8153 80.8186 79.3513C81.7146 78.8873 82.7386 78.6553 83.8906 78.6553C85.0266 78.6553 85.9626 78.9033 86.6986 79.3993C87.4346 79.8953 87.9546 80.5833 88.2586 81.4633C88.5786 82.3273 88.6506 83.3353 88.4746 84.4873L88.3546 85.2073H79.2586L79.4746 83.8153H86.9146L86.4826 84.1753C86.6586 82.9433 86.5146 82.0073 86.0506 81.3673C85.6026 80.7113 84.8426 80.3833 83.7706 80.3833C83.0186 80.3833 82.3626 80.5593 81.8026 80.9113C81.2426 81.2473 80.7946 81.7113 80.4586 82.3033C80.1226 82.8953 79.9066 83.5673 79.8106 84.3193L79.6906 84.9913C79.5146 86.3673 79.7226 87.4313 80.3146 88.1833C80.9066 88.9193 81.8906 89.2873 83.2666 89.2873C83.9386 89.2873 84.5946 89.1913 85.2346 88.9993C85.8746 88.7913 86.4746 88.4553 87.0346 87.9913L87.8026 89.6473C87.1626 90.1433 86.4186 90.5273 85.5706 90.7993C84.7386 91.0553 83.8826 91.1833 83.0026 91.1833Z" fill="black"/>
</g>
<rect x="2.04548" y="1.04597" width="118.257" height="118.257" rx="59.1283" stroke="black" stroke-width="1.74331" shape-rendering="crispEdges"/>
</g>
<defs>
<filter id="filter0_d_679_3642" x="0.866153" y="0.174316" width="120.615" height="120.718" filterUnits="userSpaceOnUse" color-interpolation-filters="sRGB">
<feFlood flood-opacity="0" result="BackgroundImageFix"/>
<feColorMatrix in="SourceAlpha" type="matrix" values="0 0 0 0 0 0 0 0 0 0 0 0 0 0 0 0 0 0 127 0" result="hardAlpha"/>
<feOffset dy="0.410233"/>
<feGaussianBlur stdDeviation="0.153838"/>
<feComposite in2="hardAlpha" operator="out"/>
<feColorMatrix type="matrix" values="0 0 0 0 0 0 0 0 0 0 0 0 0 0 0 0 0 0 0.1 0"/>
<feBlend mode="normal" in2="BackgroundImageFix" result="effect1_dropShadow_679_3642"/>
<feBlend mode="normal" in="SourceGraphic" in2="effect1_dropShadow_679_3642" result="shape"/>
</filter>
<clipPath id="clip0_679_3642">
<rect x="1.17383" y="0.174316" width="120" height="120" rx="60" fill="white"/>
</clipPath>
</defs>
</svg>
