<svg width="29" height="29" viewBox="0 0 29 29" fill="none" xmlns="http://www.w3.org/2000/svg">
<path d="M6.01328 4.2998C4.96353 4.2998 4.11328 5.15005 4.11328 6.1998V23.2998C4.11328 24.3496 4.96353 25.1998 6.01328 25.1998H23.1133C24.163 25.1998 25.0133 24.3496 25.0133 23.2998V6.1998C25.0133 5.15005 24.163 4.2998 23.1133 4.2998H6.01328ZM14.567 7.78252C19.0481 7.78252 22.6939 10.7412 22.6939 14.3787C22.6939 15.8351 22.1297 17.1474 20.9517 18.4385C19.2464 20.4012 15.4343 22.7912 14.567 23.1569C13.7006 23.5217 13.8277 22.9242 13.8619 22.719C13.8828 22.5974 13.9788 22.0232 13.9788 22.0232C14.0064 21.8152 14.0336 21.4946 13.951 21.2885C13.8588 21.0633 13.4998 20.9447 13.2348 20.8877C9.32837 20.3709 6.43818 17.6391 6.43818 14.3787C6.43818 10.7421 10.0858 7.78252 14.567 7.78252ZM12.3089 12.7645C12.0704 12.7645 11.8766 12.9521 11.8766 13.1801V16.3195C11.8766 16.5494 12.0704 16.7352 12.3089 16.7352C12.5473 16.7352 12.7412 16.5485 12.7412 16.3195V13.1801C12.7412 12.9521 12.5473 12.7645 12.3089 12.7645ZM14.1477 12.7645C14.1049 12.7645 14.0605 12.7697 14.0178 12.7849C13.8496 12.8419 13.7357 12.9996 13.7357 13.1782V16.3177C13.7357 16.5476 13.9197 16.7352 14.1477 16.7352C14.3757 16.7352 14.5596 16.5457 14.5596 16.3177V14.375L16.159 16.5682C16.2359 16.6727 16.3582 16.7352 16.4874 16.7352C16.5321 16.7352 16.5755 16.7281 16.6173 16.7129C16.7864 16.6559 16.9012 16.4981 16.9012 16.3195H16.8975V13.1801C16.8975 12.9521 16.7135 12.7645 16.4874 12.7645C16.2613 12.7645 16.0755 12.9521 16.0755 13.1801V15.1228L14.4761 12.9314C14.3991 12.8269 14.2769 12.7645 14.1477 12.7645ZM18.2965 12.7645C18.058 12.7645 17.8642 12.9521 17.8642 13.1801V14.7479V14.7498V16.3177C17.8642 16.5476 18.058 16.7352 18.2965 16.7352H19.9349C20.1743 16.7352 20.369 16.5475 20.369 16.3195C20.369 16.0915 20.1733 15.9058 19.9349 15.9058H18.7288V15.1636H19.9349C20.1743 15.1636 20.369 14.9778 20.369 14.7498C20.369 14.5199 20.1733 14.3342 19.9349 14.3342L18.7288 14.336V13.5938H19.9349C20.1743 13.5938 20.369 13.409 20.369 13.1801C20.369 12.9521 20.1733 12.7645 19.9349 12.7645H18.2965ZM9.18984 12.7663C8.95139 12.7663 8.75752 12.9511 8.75752 13.1801V16.3195C8.75752 16.5494 8.95139 16.7352 9.18984 16.7352H10.8282C11.0676 16.7352 11.2596 16.5484 11.2605 16.3214C11.2605 16.0934 11.0667 15.9076 10.8282 15.9076H9.62217V13.1801C9.62217 12.9521 9.42829 12.7663 9.18984 12.7663Z" fill="white"/>
</svg>
