<svg width="25" height="24" viewBox="0 0 25 24" fill="none" xmlns="http://www.w3.org/2000/svg">
<g id="icon-phone">
<g id="Vector" filter="url(#filter0_i_770_6194)">
<path d="M18.6151 10.6439C17.6386 10.6124 17.4483 9.49607 17.3071 8.91853C17.166 8.34098 17.183 7.30125 17.3281 6.67235C17.3306 6.40752 15.9448 5.31205 12.4162 5.31205C8.22003 5.31205 7.0109 6.69742 7.05729 6.96014C7.0944 7.17031 7.18267 8.576 7.18267 9.22244C7.18267 9.8689 6.59877 10.4645 5.9312 10.7347C5.26362 11.0049 5.17466 10.9792 3.3385 10.957C1.50235 10.9349 1.28002 10.8214 0.614037 9.82847C0.0222867 8.94625 0.246371 7.51716 0.298199 7.04179C0.350027 6.56642 1.00973 3.02263 5.8732 1.03256C10.7367 -0.957515 17.1597 0.541531 17.1597 0.541531C17.1597 0.541531 20.6816 1.20893 22.2179 2.80293C23.0181 3.63324 23.463 4.1875 23.855 5.31205C24.3159 6.63465 24.2697 7.97131 24.0652 8.94217C23.8608 9.91303 22.9276 10.4812 22.4865 10.6439C21.4606 10.6726 19.5916 10.6754 18.6151 10.6439Z" fill="#FAB4F0"/>
<path d="M14.292 16.6258C14.292 17.7761 13.4268 18.7087 12.3596 18.7087C11.2923 18.7087 10.4271 17.7761 10.4271 16.6258C10.4271 15.4754 11.2923 14.5428 12.3596 14.5428C13.4268 14.5428 14.292 15.4754 14.292 16.6258Z" fill="#FAB4F0"/>
<path fill-rule="evenodd" clip-rule="evenodd" d="M16.7856 10.6251C17.4094 11.0206 18.8676 12.1136 19.7098 13.3217C20.7626 14.8317 21.2252 16.2979 21.7542 18.6069C22.1665 20.4069 21.8712 23.3528 21.8712 23.3528C21.8712 23.3528 21.5904 24 20.9354 24H2.8102C2.69323 23.9641 2.43589 23.7843 2.34232 23.3528C2.22535 22.8135 1.95307 20.1568 2.51994 18.1406C2.57537 17.9435 2.62673 17.758 2.67543 17.5821C3.07956 16.1225 3.30049 15.3246 4.14116 14.0288C4.98631 12.7261 6.12365 11.6992 6.94569 10.957C7.0762 10.8392 7.19876 10.7285 7.31094 10.6251H9.18247V9.43862C9.41641 9.04312 10.0714 8.48943 10.8201 9.43862V10.6251H13.3934V9.43862C13.5884 8.97122 14.3313 8.29528 15.08 9.33076V10.6251H16.7856ZM15.768 16.7015C15.768 18.6886 14.2736 20.2994 12.4301 20.2994C10.5867 20.2994 9.09224 18.6886 9.09224 16.7015C9.09224 14.7145 10.5867 13.1037 12.4301 13.1037C14.2736 13.1037 15.768 14.7145 15.768 16.7015Z" fill="#FAB4F0"/>
<path fill-rule="evenodd" clip-rule="evenodd" d="M17.1597 0.541531C17.1597 0.541531 10.7367 -0.957515 5.8732 1.03256C1.00973 3.02263 0.350027 6.56642 0.298199 7.04179C0.294394 7.07669 0.289661 7.11672 0.284391 7.16131C0.217868 7.72403 0.0657267 9.01101 0.614037 9.82847C1.28002 10.8214 1.50235 10.9349 3.3385 10.957C3.48675 10.9588 3.6236 10.9607 3.75029 10.9623C4.8581 10.977 5.1887 10.9814 5.56044 10.8701C5.67275 10.8365 5.78881 10.7923 5.9312 10.7347C6.12157 10.6577 6.30514 10.5541 6.47031 10.4305C6.60243 10.3316 6.72277 10.2199 6.8254 10.0986C6.94321 9.95926 7.03767 9.80731 7.0998 9.64764C7.15315 9.51056 7.18267 9.36779 7.18267 9.22244C7.18267 8.576 7.0944 7.17031 7.05729 6.96014C7.0109 6.69742 8.22003 5.31205 12.4162 5.31205C15.9448 5.31205 17.3306 6.40752 17.3281 6.67235C17.183 7.30125 17.166 8.34098 17.3071 8.91853C17.3169 8.95842 17.3269 9.00088 17.3373 9.04538C17.404 9.32915 17.4902 9.69586 17.6588 10.0064C17.8291 10.3202 18.0836 10.5768 18.4872 10.6331C18.5283 10.6388 18.5709 10.6425 18.6151 10.6439C19.5916 10.6754 21.4606 10.6726 22.4865 10.6439C22.9276 10.4812 23.8608 9.91303 24.0652 8.94217C24.2697 7.97131 24.3159 6.63465 23.855 5.31205C23.463 4.1875 23.0181 3.63324 22.2179 2.80293C20.6816 1.20893 17.1597 0.541531 17.1597 0.541531ZM22.2664 9.64913C22.3851 9.58856 22.544 9.48984 22.6942 9.35412C22.9047 9.1639 23.0408 8.95425 23.0867 8.73612C23.2629 7.89928 23.2984 6.75369 22.9107 5.64116C22.5847 4.70582 22.2457 4.27288 21.4978 3.49688C20.9055 2.88224 19.8377 2.37863 18.7896 2.02087C18.2872 1.84937 17.8278 1.72394 17.4942 1.64155C17.328 1.60048 17.1943 1.57043 17.1037 1.55096C17.0585 1.54123 17.0241 1.53415 17.002 1.52968L16.9781 1.52493L16.9735 1.52405C16.96 1.52149 16.9463 1.5186 16.933 1.51549V1.51549L16.9313 1.5151L16.921 1.51277L16.8738 1.50232C16.8307 1.49294 16.7647 1.47894 16.6777 1.46151C16.5037 1.42664 16.2463 1.37816 15.9208 1.32563C15.2689 1.22043 14.349 1.0998 13.2834 1.03915C11.1295 0.916552 8.48189 1.04559 6.25191 1.95807C1.81898 3.77197 1.31632 6.92989 1.29231 7.15018C1.28754 7.19387 1.28209 7.2405 1.27632 7.28981C1.24576 7.55094 1.20641 7.88725 1.21454 8.2608C1.22456 8.72127 1.30785 9.06767 1.44452 9.27142C1.78163 9.77401 1.86087 9.80789 1.92586 9.83529C2.07918 9.89991 2.38187 9.94542 3.35058 9.95712C3.50457 9.95898 3.6445 9.9608 3.77206 9.96246C4.43656 9.97111 4.7656 9.97539 4.99993 9.9582C5.19052 9.94423 5.27137 9.92297 5.556 9.80776C5.75589 9.72686 5.93512 9.59849 6.0531 9.46299C6.17314 9.32513 6.18267 9.23871 6.18267 9.22244C6.18267 8.92973 6.16208 8.44071 6.13559 7.98584C6.12252 7.76151 6.10845 7.5529 6.09562 7.38985C6.08391 7.24108 6.07562 7.1636 6.0732 7.14096C6.07261 7.13545 6.07251 7.13393 6.07251 7.13393C6.002 6.73444 6.17552 6.41756 6.23868 6.30946C6.33319 6.14767 6.45693 6.00151 6.58957 5.87316C6.85856 5.61287 7.23613 5.3562 7.7265 5.12972C8.71136 4.67487 10.2139 4.31205 12.4162 4.31205C14.2809 4.31205 15.6362 4.60114 16.5596 4.96122C17.0183 5.14008 17.3875 5.34319 17.6618 5.55102C17.7968 5.6533 17.9306 5.7731 18.0413 5.91053C18.1131 5.99972 18.3318 6.28116 18.3281 6.68169C18.3274 6.75426 18.3188 6.82655 18.3025 6.89727C18.2511 7.12017 18.2144 7.46121 18.2102 7.82624C18.2059 8.19732 18.2362 8.50779 18.2786 8.68116C18.2924 8.73766 18.3045 8.78932 18.3161 8.83867C18.3413 8.94594 18.3639 9.04235 18.3957 9.15403C18.439 9.30674 18.4841 9.42791 18.5324 9.51956C18.5771 9.60432 18.6094 9.63462 18.6175 9.64129C18.6218 9.64226 18.6312 9.6439 18.6474 9.64442C19.5428 9.67332 21.2285 9.67271 22.2664 9.64913ZM18.033 11.5553C17.6066 11.1962 17.2062 10.9035 16.92 10.7126C16.8718 10.6805 16.8269 10.6513 16.7856 10.6251H15.08V9.33076C14.3313 8.29528 13.5884 8.97122 13.3934 9.43862V10.6251H10.8201V9.43862C10.0714 8.48943 9.41641 9.04312 9.18247 9.43862V10.6251H7.31094C7.19876 10.7285 7.0762 10.8392 6.94569 10.957C6.73777 11.1448 6.50964 11.3507 6.27121 11.5747C6.21173 11.6306 6.1516 11.6876 6.09098 11.7458C5.43393 12.3759 4.7192 13.1378 4.14116 14.0288C3.30049 15.3246 3.07956 16.1225 2.67543 17.5821C2.62673 17.758 2.57537 17.9435 2.51994 18.1406C1.95307 20.1568 2.22535 22.8135 2.34232 23.3528C2.43589 23.7843 2.69323 23.9641 2.8102 24H20.9354C21.5904 24 21.8712 23.3528 21.8712 23.3528C21.8712 23.3528 22.1665 20.4069 21.7542 18.6069C21.2252 16.2979 20.7626 14.8317 19.7098 13.3217C19.2545 12.6686 18.6192 12.0491 18.033 11.5553ZM20.898 23H3.29505C3.2503 22.7029 3.18403 22.0709 3.17461 21.2885C3.1633 20.3483 3.23611 19.288 3.48261 18.4113C3.53856 18.2123 3.59036 18.0252 3.63893 17.8498C4.0382 16.4078 4.22712 15.7337 4.98008 14.5731C5.744 13.3956 6.78496 12.4495 7.61583 11.6993L7.6182 11.6971C7.64493 11.673 7.67154 11.649 7.69796 11.6251H9.18247C9.52106 11.6251 9.82035 11.4568 10.0013 11.1993C10.1822 11.4568 10.4815 11.6251 10.8201 11.6251H13.3934C13.7478 11.6251 14.0591 11.4408 14.2367 11.1628C14.4143 11.4408 14.7256 11.6251 15.08 11.6251H16.4838C17.1329 12.0741 18.244 12.9676 18.8895 13.8935C19.8287 15.2408 20.2576 16.552 20.7794 18.8302C20.9563 19.6021 20.9895 20.6839 20.9676 21.6317C20.9569 22.0935 20.9337 22.502 20.9133 22.7948C20.9079 22.8718 20.9027 22.9406 20.898 23ZM12.3596 17.7087C12.8052 17.7087 13.292 17.2958 13.292 16.6258C13.292 15.9557 12.8052 15.5428 12.3596 15.5428C11.9139 15.5428 11.4271 15.9557 11.4271 16.6258C11.4271 17.2958 11.9139 17.7087 12.3596 17.7087ZM16.768 16.7015C16.768 19.1689 14.8952 21.2994 12.4301 21.2994C9.96507 21.2994 8.09224 19.1689 8.09224 16.7015C8.09224 14.2341 9.96507 12.1037 12.4301 12.1037C14.8952 12.1037 16.768 14.2341 16.768 16.7015ZM14.292 16.6258C14.292 17.7761 13.4268 18.7087 12.3596 18.7087C11.2923 18.7087 10.4271 17.7761 10.4271 16.6258C10.4271 15.4754 11.2923 14.5428 12.3596 14.5428C13.4268 14.5428 14.292 15.4754 14.292 16.6258ZM12.4301 20.2994C14.2736 20.2994 15.768 18.6886 15.768 16.7015C15.768 14.7145 14.2736 13.1037 12.4301 13.1037C10.5867 13.1037 9.09224 14.7145 9.09224 16.7015C9.09224 18.6886 10.5867 20.2994 12.4301 20.2994Z" fill="black" fill-opacity="0.85"/>
</g>
</g>
<defs>
<filter id="filter0_i_770_6194" x="0.213501" y="0" width="25.1295" height="24" filterUnits="userSpaceOnUse" color-interpolation-filters="sRGB">
<feFlood flood-opacity="0" result="BackgroundImageFix"/>
<feBlend mode="normal" in="SourceGraphic" in2="BackgroundImageFix" result="shape"/>
<feColorMatrix in="SourceAlpha" type="matrix" values="0 0 0 0 0 0 0 0 0 0 0 0 0 0 0 0 0 0 127 0" result="hardAlpha"/>
<feOffset dx="1.6942"/>
<feGaussianBlur stdDeviation="0.564732"/>
<feComposite in2="hardAlpha" operator="arithmetic" k2="-1" k3="1"/>
<feColorMatrix type="matrix" values="0 0 0 0 1 0 0 0 0 1 0 0 0 0 1 0 0 0 0.3 0"/>
<feBlend mode="normal" in2="shape" result="effect1_innerShadow_770_6194"/>
</filter>
</defs>
</svg>
