<svg width="40" height="39" viewBox="0 0 40 39" fill="none" xmlns="http://www.w3.org/2000/svg">
<g filter="url(#filter0_i_266_1286)">
<path d="M40.0006 11.5626C40.0006 5.23148 35.5058 0.249817 29.9671 0.249817C25.4947 0.249817 21.7113 3.67104 20.4153 8.29372C19.1183 3.67165 15.3349 0.368874 10.8624 0.368874C5.3226 0.368874 0.832184 5.20851 0.832184 11.5421C0.832184 14.7379 1.97901 16.9958 3.82471 19.4119L20.4246 38.4139L37.0054 19.4119C38.8527 16.9958 40.0006 14.756 40.0006 11.5626Z" fill="#FAB4F0"/>
</g>
<path d="M19.5969 8.52338C19.6999 8.89024 20.0344 9.14377 20.4154 9.14372C20.7965 9.14367 21.1309 8.89006 21.2338 8.52317C22.4514 4.17998 25.9595 1.09982 29.9671 1.09982C34.9473 1.09982 39.1506 5.6066 39.1506 11.5626C39.1506 14.4917 38.1208 16.5492 36.3467 18.874L20.4242 37.1215L4.48336 18.8739C2.71218 16.5507 1.68218 14.475 1.68218 11.5421C1.68218 5.59781 5.86837 1.21887 10.8624 1.21887C14.8836 1.21887 18.3825 4.19575 19.5969 8.52338Z" stroke="black" stroke-opacity="0.85" stroke-width="1.7" stroke-linejoin="round"/>
<defs>
<filter id="filter0_i_266_1286" x="0.832184" y="0.249817" width="42.5684" height="38.1641" filterUnits="userSpaceOnUse" color-interpolation-filters="sRGB">
<feFlood flood-opacity="0" result="BackgroundImageFix"/>
<feBlend mode="normal" in="SourceGraphic" in2="BackgroundImageFix" result="shape"/>
<feColorMatrix in="SourceAlpha" type="matrix" values="0 0 0 0 0 0 0 0 0 0 0 0 0 0 0 0 0 0 127 0" result="hardAlpha"/>
<feOffset dx="5.1"/>
<feGaussianBlur stdDeviation="1.7"/>
<feComposite in2="hardAlpha" operator="arithmetic" k2="-1" k3="1"/>
<feColorMatrix type="matrix" values="0 0 0 0 1 0 0 0 0 1 0 0 0 0 1 0 0 0 0.3 0"/>
<feBlend mode="normal" in2="shape" result="effect1_innerShadow_266_1286"/>
</filter>
</defs>
</svg>
