<svg width="43" height="43" viewBox="0 0 43 43" fill="none" xmlns="http://www.w3.org/2000/svg">
<circle cx="19.7689" cy="19.7689" r="19.7689" transform="matrix(-0.996594 -0.08247 -0.08247 0.996594 42.6641 3.59229)" fill="black" fill-opacity="0.85"/>
<g filter="url(#filter0_i_2571_583)">
<path fill-rule="evenodd" clip-rule="evenodd" d="M20.1725 40.0549C10.0145 39.424 2.29113 30.678 2.92196 20.5199C3.55278 10.3619 12.2989 2.6386 22.4569 3.26942C32.6149 3.90024 40.3382 12.6463 39.7074 22.8043C39.0766 32.9624 30.3305 40.6857 20.1725 40.0549ZM27.2081 26.8927C27.7737 26.4733 28.5722 26.5917 28.9917 27.1573C29.4111 27.7229 29.2926 28.5215 28.727 28.9409C27.451 29.8873 25.2571 30.9862 22.6936 31.3092C20.0921 31.637 17.0796 31.1642 14.3328 28.9008C13.7893 28.453 13.7118 27.6495 14.1596 27.106C14.6074 26.5626 15.4109 26.4851 15.9544 26.9329C18.0671 28.6738 20.3417 29.0353 22.3748 28.7792C24.446 28.5182 26.2343 27.6149 27.2081 26.8927ZM14.3721 13.2155C13.7837 13.6023 13.6202 14.3928 14.007 14.9812L15.8526 17.7892L13.7935 19.7594C13.2847 20.2462 13.267 21.0533 13.7538 21.5621C14.2406 22.0708 15.0477 22.0886 15.5565 21.6018L17.9163 19.3438C18.631 18.6599 18.7555 17.5631 18.2121 16.7364L16.1379 13.5806C15.7511 12.9922 14.9605 12.8287 14.3721 13.2155ZM24.6809 14.5321C24.2941 13.9436 24.4576 13.1531 25.046 12.7663C25.6344 12.3795 26.425 12.543 26.8118 13.1315L28.886 16.2872C29.4294 17.1139 29.3049 18.2107 28.5902 18.8946L26.2304 21.1526C25.7216 21.6395 24.9145 21.6217 24.4277 21.1129C23.9408 20.6041 23.9586 19.797 24.4674 19.3102L26.5265 17.34L24.6809 14.5321Z" fill="#FFF55F"/>
</g>
<defs>
<filter id="filter0_i_2571_583" x="2.88672" y="3.2334" width="40.2574" height="36.8574" filterUnits="userSpaceOnUse" color-interpolation-filters="sRGB">
<feFlood flood-opacity="0" result="BackgroundImageFix"/>
<feBlend mode="normal" in="SourceGraphic" in2="BackgroundImageFix" result="shape"/>
<feColorMatrix in="SourceAlpha" type="matrix" values="0 0 0 0 0 0 0 0 0 0 0 0 0 0 0 0 0 0 127 0" result="hardAlpha"/>
<feOffset dx="5.1"/>
<feGaussianBlur stdDeviation="1.7"/>
<feComposite in2="hardAlpha" operator="arithmetic" k2="-1" k3="1"/>
<feColorMatrix type="matrix" values="0 0 0 0 1 0 0 0 0 1 0 0 0 0 1 0 0 0 0.3 0"/>
<feBlend mode="normal" in2="shape" result="effect1_innerShadow_2571_583"/>
</filter>
</defs>
</svg>
