<svg width="40" height="39" viewBox="0 0 40 39" fill="none" xmlns="http://www.w3.org/2000/svg">
<g filter="url(#filter0_i_266_1277)">
<path d="M39.8322 11.5626C39.8322 5.23148 35.3374 0.249817 29.7987 0.249817C25.3262 0.249817 21.5428 3.67104 20.2469 8.29372C18.9498 3.67165 15.1665 0.368874 10.694 0.368874C5.15418 0.368874 0.663757 5.20851 0.663757 11.5421C0.663757 14.7379 1.81058 16.9958 3.65628 19.4119L20.2561 38.4139L36.8369 19.4119C38.6843 16.9958 39.8322 14.756 39.8322 11.5626Z" fill="#FAB4F0"/>
</g>
<path d="M19.4285 8.52337C19.5314 8.89024 19.866 9.14377 20.247 9.14372C20.628 9.14367 20.9625 8.89006 21.0653 8.52317C22.2829 4.17998 25.791 1.09982 29.7987 1.09982C34.7789 1.09982 38.9822 5.6066 38.9822 11.5626C38.9822 14.4917 37.9524 16.5492 36.1783 18.874L20.2558 37.1215L4.31493 18.8739C2.54375 16.5507 1.51376 14.475 1.51376 11.5421C1.51376 5.59781 5.69994 1.21887 10.694 1.21887C14.7152 1.21887 18.2141 4.19575 19.4285 8.52337Z" stroke="black" stroke-opacity="0.85" stroke-width="1.7" stroke-linejoin="round"/>
<defs>
<filter id="filter0_i_266_1277" x="0.663757" y="0.249817" width="42.5684" height="38.1641" filterUnits="userSpaceOnUse" color-interpolation-filters="sRGB">
<feFlood flood-opacity="0" result="BackgroundImageFix"/>
<feBlend mode="normal" in="SourceGraphic" in2="BackgroundImageFix" result="shape"/>
<feColorMatrix in="SourceAlpha" type="matrix" values="0 0 0 0 0 0 0 0 0 0 0 0 0 0 0 0 0 0 127 0" result="hardAlpha"/>
<feOffset dx="5.1"/>
<feGaussianBlur stdDeviation="1.7"/>
<feComposite in2="hardAlpha" operator="arithmetic" k2="-1" k3="1"/>
<feColorMatrix type="matrix" values="0 0 0 0 1 0 0 0 0 1 0 0 0 0 1 0 0 0 0.3 0"/>
<feBlend mode="normal" in2="shape" result="effect1_innerShadow_266_1277"/>
</filter>
</defs>
</svg>
