<svg width="44" height="258" viewBox="0 0 44 258" fill="none" xmlns="http://www.w3.org/2000/svg">
<path fill-rule="evenodd" clip-rule="evenodd" d="M21 0.187622C9.40202 0.187622 0 9.58964 0 21.1876V236.745C0 248.343 9.40202 257.745 21 257.745H39.5957C40.148 257.745 40.5957 257.298 40.5957 256.745C40.5957 256.193 40.148 255.745 39.5957 255.745H21C10.5066 255.745 2 247.239 2 236.745V193.379C2.12993 193.441 2.27529 193.475 2.42871 193.475H42.4541C43.0064 193.475 43.4541 193.027 43.4541 192.475C43.4541 191.923 43.0064 191.475 42.4541 191.475H2.42871C2.27529 191.475 2.12993 191.51 2 191.571V129.939C2.12993 130.001 2.27529 130.035 2.42871 130.035H42.4541C43.0064 130.035 43.4541 129.588 43.4541 129.035C43.4541 128.483 43.0064 128.035 42.4541 128.035H2.42871C2.27529 128.035 2.12993 128.07 2 128.132V65.8954C2.12993 65.9571 2.27529 65.9917 2.42871 65.9917H42.4541C43.0064 65.9917 43.4541 65.544 43.4541 64.9917C43.4541 64.4394 43.0064 63.9917 42.4541 63.9917H2.42871C2.27529 63.9917 2.12993 64.0262 2 64.088V21.1876C2 10.6942 10.5066 2.18762 21 2.18762H39.5957C40.148 2.18762 40.5957 1.73991 40.5957 1.18762C40.5957 0.635337 40.148 0.187622 39.5957 0.187622H21Z" fill="black" fill-opacity="0.85"/>
</svg>
