<svg width="700" height="700" viewBox="0 0 700 700" fill="none" xmlns="http://www.w3.org/2000/svg">
<path d="M409.29 93.49C406.87 92.92 404.8 92.21 403.07 91.36C401.34 90.51 399.85 89.48 398.59 88.26L401.45 82.72C402.19 83.42 403.03 84.06 403.97 84.64C404.91 85.22 405.91 85.73 406.96 86.16C408.02 86.59 409.04 86.92 410.03 87.15C412.06 87.63 413.68 87.52 414.89 86.84C416.1 86.16 416.89 84.97 417.29 83.29L418.27 79.13L418.75 79.24C417.92 80.49 416.66 81.35 414.97 81.83C413.28 82.3 411.53 82.33 409.72 81.9C407.56 81.39 405.78 80.47 404.4 79.15C403.02 77.83 402.08 76.16 401.59 74.18C401.1 72.19 401.14 69.98 401.71 67.55C402.28 65.12 403.23 63.12 404.55 61.56C405.87 60 407.45 58.93 409.28 58.36C411.11 57.79 413.11 57.75 415.27 58.26C417.15 58.7 418.71 59.5 419.95 60.64C421.19 61.79 421.91 63.09 422.1 64.55L421.74 64.37L423.17 60.66L431.33 62.58C430.95 63.61 430.61 64.66 430.29 65.74C429.97 66.82 429.69 67.88 429.44 68.94L425.82 84.31C424.88 88.3 423 91.08 420.18 92.67C417.36 94.26 413.73 94.53 409.31 93.49H409.29ZM413.77 76.35C415.23 76.69 416.51 76.48 417.59 75.72C418.67 74.96 419.43 73.66 419.87 71.82C420.31 69.95 420.21 68.44 419.58 67.29C418.94 66.14 417.89 65.39 416.43 65.04C414.93 64.69 413.65 64.89 412.56 65.63C411.48 66.38 410.72 67.69 410.28 69.56C409.85 71.4 409.95 72.9 410.58 74.07C411.21 75.24 412.28 76 413.77 76.35Z" fill="#5181FF"/>
<path d="M443.48 92.96C440.87 92.01 438.78 90.71 437.23 89.06C435.67 87.41 434.7 85.5 434.3 83.33C433.9 81.16 434.15 78.84 435.05 76.38C435.95 73.88 437.25 71.94 438.94 70.54C440.63 69.14 442.6 68.31 444.85 68.04C447.1 67.77 449.54 68.1 452.15 69.05C454.73 69.98 456.8 71.28 458.36 72.93C459.92 74.58 460.89 76.49 461.29 78.66C461.69 80.83 461.44 83.15 460.54 85.61C459.66 88.05 458.37 89.98 456.67 91.41C454.97 92.84 453 93.69 450.74 93.96C448.49 94.23 446.07 93.9 443.49 92.97L443.48 92.96ZM445.64 87C446.99 87.49 448.24 87.41 449.38 86.75C450.52 86.09 451.47 84.71 452.24 82.6C453 80.49 453.16 78.82 452.7 77.59C452.24 76.35 451.34 75.49 449.99 75C448.61 74.5 447.34 74.58 446.2 75.24C445.06 75.9 444.1 77.28 443.34 79.39C442.58 81.5 442.42 83.17 442.88 84.41C443.34 85.65 444.26 86.52 445.64 87.02V87Z" fill="#5181FF"/>
<path d="M487.179 113.24C484.089 111.53 482.159 109.53 481.399 107.22C480.639 104.91 481.069 102.29 482.689 99.35L486.869 91.79L482.789 89.54L485.829 84.04L489.909 86.29L492.699 81.25L501.309 83.7L497.549 90.51L502.869 93.45L499.829 98.95L494.509 96.01L490.489 103.28C489.809 104.51 489.639 105.49 489.989 106.21C490.339 106.93 490.909 107.51 491.709 107.96C492.199 108.23 492.639 108.43 493.029 108.55C493.419 108.67 493.859 108.78 494.339 108.86L491.159 114.62C490.389 114.52 489.679 114.35 489.019 114.09C488.359 113.83 487.739 113.55 487.169 113.23L487.179 113.24Z" fill="#5181FF"/>
<path d="M505.179 124.68C502.889 123.1 501.199 121.32 500.119 119.33C499.029 117.34 498.569 115.24 498.739 113.04C498.899 110.84 499.729 108.66 501.219 106.5C502.719 104.31 504.469 102.75 506.459 101.83C508.439 100.91 510.559 100.6 512.809 100.9C515.059 101.2 517.329 102.15 519.619 103.72C521.879 105.28 523.56 107.05 524.64 109.04C525.73 111.03 526.19 113.13 526.03 115.33C525.87 117.53 525.039 119.71 523.549 121.87C522.079 124.01 520.34 125.55 518.34 126.5C516.34 127.45 514.209 127.78 511.959 127.47C509.709 127.16 507.459 126.23 505.189 124.68H505.179ZM508.769 119.46C509.949 120.27 511.18 120.51 512.45 120.16C513.72 119.81 514.99 118.71 516.26 116.87C517.53 115.03 518.099 113.45 517.969 112.13C517.839 110.82 517.179 109.75 515.999 108.94C514.789 108.11 513.55 107.86 512.28 108.21C511.01 108.56 509.739 109.66 508.469 111.5C507.199 113.35 506.63 114.92 506.76 116.24C506.89 117.55 507.559 118.63 508.769 119.46Z" fill="#5181FF"/>
<path d="M540.13 153.27C538.62 151.77 537.63 150.08 537.16 148.19C536.69 146.3 536.79 144.34 537.46 142.31C538.14 140.28 539.4 138.33 541.25 136.47C543.12 134.58 545.05 133.29 547.06 132.59C549.06 131.89 551.02 131.78 552.92 132.25C554.83 132.72 556.53 133.7 558.04 135.19C559.38 136.52 560.3 138.03 560.8 139.72C561.29 141.4 561.23 142.93 560.61 144.3L560.09 143.78L570.7 133.07L576.9 139.21L552.04 164.31L545.95 158.27L549.02 155.17L549.47 155.62C548.11 156.34 546.56 156.48 544.83 156.02C543.1 155.56 541.53 154.65 540.14 153.27H540.13ZM546.57 150.74C547.59 151.75 548.79 152.23 550.16 152.17C551.53 152.11 553 151.28 554.58 149.69C556.16 148.1 556.97 146.62 557.02 145.24C557.07 143.87 556.58 142.68 555.56 141.66C554.52 140.63 553.31 140.14 551.94 140.2C550.57 140.26 549.1 141.09 547.52 142.68C545.94 144.27 545.13 145.75 545.08 147.12C545.03 148.49 545.53 149.7 546.58 150.73L546.57 150.74Z" fill="#5181FF"/>
<path d="M556.6 169.72L570.28 158.47C571.15 157.76 571.99 157.02 572.81 156.26C573.63 155.5 574.43 154.72 575.18 153.93L580.54 160.44L575.35 165.92L574.51 164.9C576.13 163.99 577.62 163.44 578.99 163.25C580.36 163.05 581.61 163.19 582.74 163.65C583.87 164.12 584.9 164.92 585.84 166.06C586.28 166.59 586.59 167 586.77 167.3C586.95 167.59 587.1 167.95 587.23 168.35L581.45 173.11C581.2 172.26 580.96 171.61 580.72 171.17C580.48 170.73 580.12 170.21 579.62 169.6C578.77 168.56 577.89 167.87 577 167.51C576.1 167.15 575.16 167.13 574.18 167.45C573.2 167.77 572.13 168.41 570.97 169.36L562.22 176.55L556.62 169.74L556.6 169.72Z" fill="#5181FF"/>
<path d="M570.85 187.65L590.73 173.53L595.78 180.64L575.9 194.76L570.85 187.65ZM593.43 171.37L599.69 166.92L605 174.39L598.74 178.84L593.43 171.37Z" fill="#5181FF"/>
<path d="M580.081 200.57L595.401 191.59C596.341 191.04 597.281 190.45 598.211 189.83C599.141 189.21 600.051 188.56 600.921 187.9L605.181 195.17L601.781 197.73L601.511 197.27C603.251 197.2 604.851 197.6 606.311 198.49C607.771 199.38 608.991 200.63 609.951 202.27C611.421 204.78 611.801 207.09 611.081 209.19C610.371 211.29 608.481 213.24 605.411 215.04L592.861 222.4L588.451 214.87L600.661 207.71C602.011 206.92 602.821 206.12 603.081 205.33C603.341 204.54 603.201 203.69 602.671 202.79C601.981 201.61 601.031 200.87 599.841 200.58C598.651 200.29 597.441 200.51 596.191 201.24L584.471 208.11L580.061 200.58L580.081 200.57Z" fill="#5181FF"/>
<path d="M595.92 228.42L628.23 214.13L631.76 222.11L612.75 230.52L612.79 230.61L625.16 234.25L629.32 243.66L612.82 238.63L615.5 237.45L607.2 253.93L602.94 244.29L608.84 232.35L608.8 232.26L599.45 236.4L595.92 228.42Z" fill="#5181FF"/>
<path d="M613.17 272.54L645.98 264.27L651.91 287.8L645.35 289.45L641.64 274.72L634.98 276.4L638.42 290.04L631.86 291.69L628.42 278.05L615.39 281.33L613.17 272.54Z" fill="#5181FF"/>
<path d="M621.631 317.02C621.001 311.9 621.771 307.9 623.941 305.03C626.111 302.16 629.651 300.43 634.571 299.83L653.871 297.47L654.971 306.42L635.631 308.79C633.181 309.09 631.401 309.83 630.271 311.03C629.141 312.23 628.711 313.92 628.981 316.13C629.251 318.34 630.081 319.88 631.461 320.76C632.841 321.64 634.751 321.94 637.201 321.64L656.541 319.27L657.621 328.13L638.321 330.49C633.401 331.09 629.541 330.28 626.751 328.05C623.961 325.82 622.261 322.15 621.631 317.02Z" fill="#5181FF"/>
<path d="M624.401 339.64L658.231 340.3L658.101 346.96L636.501 364.04L636.531 362.62L657.791 363.04L657.631 371.42L623.801 370.76L623.931 364.09L645.531 347.11L645.501 348.53L624.241 348.11L624.411 339.63L624.401 339.64Z" fill="#5181FF"/>
<path d="M620.69 394.51L653.83 401.36L651.99 410.24L626.04 404.87L623.04 419.37L615.85 417.88L620.68 394.5L620.69 394.51Z" fill="#5181FF"/>
<path d="M615.939 419.2L642.819 445.37L640.459 452.33L603.189 456.9L606.099 448.31L616.259 447.35L612.819 449.86L619.319 430.64L620.539 434.68L613.039 427.8L615.949 419.21L615.939 419.2ZM633.009 445.88L622.159 436.16L624.739 435.58L620.139 449.18L618.399 447.3L632.939 446.11L633.019 445.88H633.009Z" fill="#5181FF"/>
<path d="M601.471 460.02L631.761 475.12L624.281 490.12C622.561 493.57 620.531 495.87 618.211 497.03C615.881 498.19 613.511 498.17 611.111 496.97C609.331 496.09 608.081 494.79 607.351 493.1C606.621 491.4 606.491 489.52 606.951 487.45L607.641 487.79C606.171 489.8 604.511 491.08 602.641 491.63C600.771 492.18 598.831 491.95 596.791 490.93C594.131 489.6 592.521 487.56 591.981 484.81C591.441 482.06 592.031 478.96 593.751 475.51L601.471 460.02ZM603.401 470.68L600.081 477.35C599.321 478.87 599.031 480.14 599.201 481.16C599.371 482.18 600.031 482.97 601.181 483.54C602.351 484.12 603.391 484.17 604.271 483.68C605.161 483.19 605.981 482.19 606.741 480.67L610.061 474L603.401 470.68ZM615.861 476.89L612.991 482.64C612.221 484.19 611.911 485.45 612.071 486.43C612.231 487.4 612.841 488.15 613.901 488.68C614.961 489.21 615.921 489.24 616.781 488.77C617.641 488.3 618.451 487.3 619.231 485.74L622.091 479.99L615.861 476.88V476.89Z" fill="#5181FF"/>
<path d="M576.5 504.54L583.63 509.58L578.39 516.98L571.26 511.94L576.5 504.54ZM584.72 512.7L604.58 523.44L598.41 532.16L581.69 516.98L584.72 512.7Z" fill="#5181FF"/>
<path d="M409.29 93.49C406.87 92.92 404.8 92.21 403.07 91.36C401.34 90.51 399.85 89.48 398.59 88.26L401.45 82.72C402.19 83.42 403.03 84.06 403.97 84.64C404.91 85.22 405.91 85.73 406.96 86.16C408.02 86.59 409.04 86.92 410.03 87.15C412.06 87.63 413.68 87.52 414.89 86.84C416.1 86.16 416.89 84.97 417.29 83.29L418.27 79.13L418.75 79.24C417.92 80.49 416.66 81.35 414.97 81.83C413.28 82.3 411.53 82.33 409.72 81.9C407.56 81.39 405.78 80.47 404.4 79.15C403.02 77.83 402.08 76.16 401.59 74.18C401.1 72.19 401.14 69.98 401.71 67.55C402.28 65.12 403.23 63.12 404.55 61.56C405.87 60 407.45 58.93 409.28 58.36C411.11 57.79 413.11 57.75 415.27 58.26C417.15 58.7 418.71 59.5 419.95 60.64C421.19 61.79 421.91 63.09 422.1 64.55L421.74 64.37L423.17 60.66L431.33 62.58C430.95 63.61 430.61 64.66 430.29 65.74C429.97 66.82 429.69 67.88 429.44 68.94L425.82 84.31C424.88 88.3 423 91.08 420.18 92.67C417.36 94.26 413.73 94.53 409.31 93.49H409.29ZM413.77 76.35C415.23 76.69 416.51 76.48 417.59 75.72C418.67 74.96 419.43 73.66 419.87 71.82C420.31 69.95 420.21 68.44 419.58 67.29C418.94 66.14 417.89 65.39 416.43 65.04C414.93 64.69 413.65 64.89 412.56 65.63C411.48 66.38 410.72 67.69 410.28 69.56C409.85 71.4 409.95 72.9 410.58 74.07C411.21 75.24 412.28 76 413.77 76.35Z" stroke="white" stroke-width="3"/>
<path d="M443.48 92.96C440.87 92.01 438.78 90.71 437.23 89.06C435.67 87.41 434.7 85.5 434.3 83.33C433.9 81.16 434.15 78.84 435.05 76.38C435.95 73.88 437.25 71.94 438.94 70.54C440.63 69.14 442.6 68.31 444.85 68.04C447.1 67.77 449.54 68.1 452.15 69.05C454.73 69.98 456.8 71.28 458.36 72.93C459.92 74.58 460.89 76.49 461.29 78.66C461.69 80.83 461.44 83.15 460.54 85.61C459.66 88.05 458.37 89.98 456.67 91.41C454.97 92.84 453 93.69 450.74 93.96C448.49 94.23 446.07 93.9 443.49 92.97L443.48 92.96ZM445.64 87C446.99 87.49 448.24 87.41 449.38 86.75C450.52 86.09 451.47 84.71 452.24 82.6C453 80.49 453.16 78.82 452.7 77.59C452.24 76.35 451.34 75.49 449.99 75C448.61 74.5 447.34 74.58 446.2 75.24C445.06 75.9 444.1 77.28 443.34 79.39C442.58 81.5 442.42 83.17 442.88 84.41C443.34 85.65 444.26 86.52 445.64 87.02V87Z" stroke="white" stroke-width="3"/>
<path d="M487.179 113.24C484.089 111.53 482.159 109.53 481.399 107.22C480.639 104.91 481.069 102.29 482.689 99.35L486.869 91.79L482.789 89.54L485.829 84.04L489.909 86.29L492.699 81.25L501.309 83.7L497.549 90.51L502.869 93.45L499.829 98.95L494.509 96.01L490.489 103.28C489.809 104.51 489.639 105.49 489.989 106.21C490.339 106.93 490.909 107.51 491.709 107.96C492.199 108.23 492.639 108.43 493.029 108.55C493.419 108.67 493.859 108.78 494.339 108.86L491.159 114.62C490.389 114.52 489.679 114.35 489.019 114.09C488.359 113.83 487.739 113.55 487.169 113.23L487.179 113.24Z" stroke="white" stroke-width="3"/>
<path d="M505.179 124.68C502.889 123.1 501.199 121.32 500.119 119.33C499.029 117.34 498.569 115.24 498.739 113.04C498.899 110.84 499.729 108.66 501.219 106.5C502.719 104.31 504.469 102.75 506.459 101.83C508.439 100.91 510.559 100.6 512.809 100.9C515.059 101.2 517.329 102.15 519.619 103.72C521.879 105.28 523.56 107.05 524.64 109.04C525.73 111.03 526.19 113.13 526.03 115.33C525.87 117.53 525.039 119.71 523.549 121.87C522.079 124.01 520.34 125.55 518.34 126.5C516.34 127.45 514.209 127.78 511.959 127.47C509.709 127.16 507.459 126.23 505.189 124.68H505.179ZM508.769 119.46C509.949 120.27 511.18 120.51 512.45 120.16C513.72 119.81 514.99 118.71 516.26 116.87C517.53 115.03 518.099 113.45 517.969 112.13C517.839 110.82 517.179 109.75 515.999 108.94C514.789 108.11 513.55 107.86 512.28 108.21C511.01 108.56 509.739 109.66 508.469 111.5C507.199 113.35 506.63 114.92 506.76 116.24C506.89 117.55 507.559 118.63 508.769 119.46Z" stroke="white" stroke-width="3"/>
<path d="M540.13 153.27C538.62 151.77 537.63 150.08 537.16 148.19C536.69 146.3 536.79 144.34 537.46 142.31C538.14 140.28 539.4 138.33 541.25 136.47C543.12 134.58 545.05 133.29 547.06 132.59C549.06 131.89 551.02 131.78 552.92 132.25C554.83 132.72 556.53 133.7 558.04 135.19C559.38 136.52 560.3 138.03 560.8 139.72C561.29 141.4 561.23 142.93 560.61 144.3L560.09 143.78L570.7 133.07L576.9 139.21L552.04 164.31L545.95 158.27L549.02 155.17L549.47 155.62C548.11 156.34 546.56 156.48 544.83 156.02C543.1 155.56 541.53 154.65 540.14 153.27H540.13ZM546.57 150.74C547.59 151.75 548.79 152.23 550.16 152.17C551.53 152.11 553 151.28 554.58 149.69C556.16 148.1 556.97 146.62 557.02 145.24C557.07 143.87 556.58 142.68 555.56 141.66C554.52 140.63 553.31 140.14 551.94 140.2C550.57 140.26 549.1 141.09 547.52 142.68C545.94 144.27 545.13 145.75 545.08 147.12C545.03 148.49 545.53 149.7 546.58 150.73L546.57 150.74Z" stroke="white" stroke-width="3"/>
<path d="M556.6 169.72L570.28 158.47C571.15 157.76 571.99 157.02 572.81 156.26C573.63 155.5 574.43 154.72 575.18 153.93L580.54 160.44L575.35 165.92L574.51 164.9C576.13 163.99 577.62 163.44 578.99 163.25C580.36 163.05 581.61 163.19 582.74 163.65C583.87 164.12 584.9 164.92 585.84 166.06C586.28 166.59 586.59 167 586.77 167.3C586.95 167.59 587.1 167.95 587.23 168.35L581.45 173.11C581.2 172.26 580.96 171.61 580.72 171.17C580.48 170.73 580.12 170.21 579.62 169.6C578.77 168.56 577.89 167.87 577 167.51C576.1 167.15 575.16 167.13 574.18 167.45C573.2 167.77 572.13 168.41 570.97 169.36L562.22 176.55L556.62 169.74L556.6 169.72Z" stroke="white" stroke-width="3"/>
<path d="M570.85 187.65L590.73 173.53L595.78 180.64L575.9 194.76L570.85 187.65ZM593.43 171.37L599.69 166.92L605 174.39L598.74 178.84L593.43 171.37Z" stroke="white" stroke-width="3"/>
<path d="M580.081 200.57L595.401 191.59C596.341 191.04 597.281 190.45 598.211 189.83C599.141 189.21 600.051 188.56 600.921 187.9L605.181 195.17L601.781 197.73L601.511 197.27C603.251 197.2 604.851 197.6 606.311 198.49C607.771 199.38 608.991 200.63 609.951 202.27C611.421 204.78 611.801 207.09 611.081 209.19C610.371 211.29 608.481 213.24 605.411 215.04L592.861 222.4L588.451 214.87L600.661 207.71C602.011 206.92 602.821 206.12 603.081 205.33C603.341 204.54 603.201 203.69 602.671 202.79C601.981 201.61 601.031 200.87 599.841 200.58C598.651 200.29 597.441 200.51 596.191 201.24L584.471 208.11L580.061 200.58L580.081 200.57Z" stroke="white" stroke-width="3"/>
<path d="M595.92 228.42L628.23 214.13L631.76 222.11L612.75 230.52L612.79 230.61L625.16 234.25L629.32 243.66L612.82 238.63L615.5 237.45L607.2 253.93L602.94 244.29L608.84 232.35L608.8 232.26L599.45 236.4L595.92 228.42Z" stroke="white" stroke-width="3"/>
<path d="M613.17 272.54L645.98 264.27L651.91 287.8L645.35 289.45L641.64 274.72L634.98 276.4L638.42 290.04L631.86 291.69L628.42 278.05L615.39 281.33L613.17 272.54Z" stroke="white" stroke-width="3"/>
<path d="M621.631 317.02C621.001 311.9 621.771 307.9 623.941 305.03C626.111 302.16 629.651 300.43 634.571 299.83L653.871 297.47L654.971 306.42L635.631 308.79C633.181 309.09 631.401 309.83 630.271 311.03C629.141 312.23 628.711 313.92 628.981 316.13C629.251 318.34 630.081 319.88 631.461 320.76C632.841 321.64 634.751 321.94 637.201 321.64L656.541 319.27L657.621 328.13L638.321 330.49C633.401 331.09 629.541 330.28 626.751 328.05C623.961 325.82 622.261 322.15 621.631 317.02Z" stroke="white" stroke-width="3"/>
<path d="M624.401 339.64L658.231 340.3L658.101 346.96L636.501 364.04L636.531 362.62L657.791 363.04L657.631 371.42L623.801 370.76L623.931 364.09L645.531 347.11L645.501 348.53L624.241 348.11L624.411 339.63L624.401 339.64Z" stroke="white" stroke-width="3"/>
<path d="M620.69 394.51L653.83 401.36L651.99 410.24L626.04 404.87L623.04 419.37L615.85 417.88L620.68 394.5L620.69 394.51Z" stroke="white" stroke-width="3"/>
<path d="M615.939 419.2L642.819 445.37L640.459 452.33L603.189 456.9L606.099 448.31L616.259 447.35L612.819 449.86L619.319 430.64L620.539 434.68L613.039 427.8L615.949 419.21L615.939 419.2ZM633.009 445.88L622.159 436.16L624.739 435.58L620.139 449.18L618.399 447.3L632.939 446.11L633.019 445.88H633.009Z" stroke="white" stroke-width="3"/>
<path d="M601.471 460.02L631.761 475.12L624.281 490.12C622.561 493.57 620.531 495.87 618.211 497.03C615.881 498.19 613.511 498.17 611.111 496.97C609.331 496.09 608.081 494.79 607.351 493.1C606.621 491.4 606.491 489.52 606.951 487.45L607.641 487.79C606.171 489.8 604.511 491.08 602.641 491.63C600.771 492.18 598.831 491.95 596.791 490.93C594.131 489.6 592.521 487.56 591.981 484.81C591.441 482.06 592.031 478.96 593.751 475.51L601.471 460.02ZM603.401 470.68L600.081 477.35C599.321 478.87 599.031 480.14 599.201 481.16C599.371 482.18 600.031 482.97 601.181 483.54C602.351 484.12 603.391 484.17 604.271 483.68C605.161 483.19 605.981 482.19 606.741 480.67L610.061 474L603.401 470.68ZM615.861 476.89L612.991 482.64C612.221 484.19 611.911 485.45 612.071 486.43C612.231 487.4 612.841 488.15 613.901 488.68C614.961 489.21 615.921 489.24 616.781 488.77C617.641 488.3 618.451 487.3 619.231 485.74L622.091 479.99L615.861 476.88V476.89Z" stroke="white" stroke-width="3"/>
<path d="M576.5 504.54L583.63 509.58L578.39 516.98L571.26 511.94L576.5 504.54ZM584.72 512.7L604.58 523.44L598.41 532.16L581.69 516.98L584.72 512.7Z" stroke="white" stroke-width="3"/>
<path d="M409.29 93.49C406.87 92.92 404.8 92.21 403.07 91.36C401.34 90.51 399.85 89.48 398.59 88.26L401.45 82.72C402.19 83.42 403.03 84.06 403.97 84.64C404.91 85.22 405.91 85.73 406.96 86.16C408.02 86.59 409.04 86.92 410.03 87.15C412.06 87.63 413.68 87.52 414.89 86.84C416.1 86.16 416.89 84.97 417.29 83.29L418.27 79.13L418.75 79.24C417.92 80.49 416.66 81.35 414.97 81.83C413.28 82.3 411.53 82.33 409.72 81.9C407.56 81.39 405.78 80.47 404.4 79.15C403.02 77.83 402.08 76.16 401.59 74.18C401.1 72.19 401.14 69.98 401.71 67.55C402.28 65.12 403.23 63.12 404.55 61.56C405.87 60 407.45 58.93 409.28 58.36C411.11 57.79 413.11 57.75 415.27 58.26C417.15 58.7 418.71 59.5 419.95 60.64C421.19 61.79 421.91 63.09 422.1 64.55L421.74 64.37L423.17 60.66L431.33 62.58C430.95 63.61 430.61 64.66 430.29 65.74C429.97 66.82 429.69 67.88 429.44 68.94L425.82 84.31C424.88 88.3 423 91.08 420.18 92.67C417.36 94.26 413.73 94.53 409.31 93.49H409.29ZM413.77 76.35C415.23 76.69 416.51 76.48 417.59 75.72C418.67 74.96 419.43 73.66 419.87 71.82C420.31 69.95 420.21 68.44 419.58 67.29C418.94 66.14 417.89 65.39 416.43 65.04C414.93 64.69 413.65 64.89 412.56 65.63C411.48 66.38 410.72 67.69 410.28 69.56C409.85 71.4 409.95 72.9 410.58 74.07C411.21 75.24 412.28 76 413.77 76.35Z" fill="#5181FF"/>
<path d="M443.48 92.96C440.87 92.01 438.78 90.71 437.23 89.06C435.67 87.41 434.7 85.5 434.3 83.33C433.9 81.16 434.15 78.84 435.05 76.38C435.95 73.88 437.25 71.94 438.94 70.54C440.63 69.14 442.6 68.31 444.85 68.04C447.1 67.77 449.54 68.1 452.15 69.05C454.73 69.98 456.8 71.28 458.36 72.93C459.92 74.58 460.89 76.49 461.29 78.66C461.69 80.83 461.44 83.15 460.54 85.61C459.66 88.05 458.37 89.98 456.67 91.41C454.97 92.84 453 93.69 450.74 93.96C448.49 94.23 446.07 93.9 443.49 92.97L443.48 92.96ZM445.64 87C446.99 87.49 448.24 87.41 449.38 86.75C450.52 86.09 451.47 84.71 452.24 82.6C453 80.49 453.16 78.82 452.7 77.59C452.24 76.35 451.34 75.49 449.99 75C448.61 74.5 447.34 74.58 446.2 75.24C445.06 75.9 444.1 77.28 443.34 79.39C442.58 81.5 442.42 83.17 442.88 84.41C443.34 85.65 444.26 86.52 445.64 87.02V87Z" fill="#5181FF"/>
<path d="M487.179 113.24C484.089 111.53 482.159 109.53 481.399 107.22C480.639 104.91 481.069 102.29 482.689 99.35L486.869 91.79L482.789 89.54L485.829 84.04L489.909 86.29L492.699 81.25L501.309 83.7L497.549 90.51L502.869 93.45L499.829 98.95L494.509 96.01L490.489 103.28C489.809 104.51 489.639 105.49 489.989 106.21C490.339 106.93 490.909 107.51 491.709 107.96C492.199 108.23 492.639 108.43 493.029 108.55C493.419 108.67 493.859 108.78 494.339 108.86L491.159 114.62C490.389 114.52 489.679 114.35 489.019 114.09C488.359 113.83 487.739 113.55 487.169 113.23L487.179 113.24Z" fill="#5181FF"/>
<path d="M505.179 124.68C502.889 123.1 501.199 121.32 500.119 119.33C499.029 117.34 498.569 115.24 498.739 113.04C498.899 110.84 499.729 108.66 501.219 106.5C502.719 104.31 504.469 102.75 506.459 101.83C508.439 100.91 510.559 100.6 512.809 100.9C515.059 101.2 517.329 102.15 519.619 103.72C521.879 105.28 523.56 107.05 524.64 109.04C525.73 111.03 526.19 113.13 526.03 115.33C525.87 117.53 525.039 119.71 523.549 121.87C522.079 124.01 520.34 125.55 518.34 126.5C516.34 127.45 514.209 127.78 511.959 127.47C509.709 127.16 507.459 126.23 505.189 124.68H505.179ZM508.769 119.46C509.949 120.27 511.18 120.51 512.45 120.16C513.72 119.81 514.99 118.71 516.26 116.87C517.53 115.03 518.099 113.45 517.969 112.13C517.839 110.82 517.179 109.75 515.999 108.94C514.789 108.11 513.55 107.86 512.28 108.21C511.01 108.56 509.739 109.66 508.469 111.5C507.199 113.35 506.63 114.92 506.76 116.24C506.89 117.55 507.559 118.63 508.769 119.46Z" fill="#5181FF"/>
<path d="M540.13 153.27C538.62 151.77 537.63 150.08 537.16 148.19C536.69 146.3 536.79 144.34 537.46 142.31C538.14 140.28 539.4 138.33 541.25 136.47C543.12 134.58 545.05 133.29 547.06 132.59C549.06 131.89 551.02 131.78 552.92 132.25C554.83 132.72 556.53 133.7 558.04 135.19C559.38 136.52 560.3 138.03 560.8 139.72C561.29 141.4 561.23 142.93 560.61 144.3L560.09 143.78L570.7 133.07L576.9 139.21L552.04 164.31L545.95 158.27L549.02 155.17L549.47 155.62C548.11 156.34 546.56 156.48 544.83 156.02C543.1 155.56 541.53 154.65 540.14 153.27H540.13ZM546.57 150.74C547.59 151.75 548.79 152.23 550.16 152.17C551.53 152.11 553 151.28 554.58 149.69C556.16 148.1 556.97 146.62 557.02 145.24C557.07 143.87 556.58 142.68 555.56 141.66C554.52 140.63 553.31 140.14 551.94 140.2C550.57 140.26 549.1 141.09 547.52 142.68C545.94 144.27 545.13 145.75 545.08 147.12C545.03 148.49 545.53 149.7 546.58 150.73L546.57 150.74Z" fill="#5181FF"/>
<path d="M556.6 169.72L570.28 158.47C571.15 157.76 571.99 157.02 572.81 156.26C573.63 155.5 574.43 154.72 575.18 153.93L580.54 160.44L575.35 165.92L574.51 164.9C576.13 163.99 577.62 163.44 578.99 163.25C580.36 163.05 581.61 163.19 582.74 163.65C583.87 164.12 584.9 164.92 585.84 166.06C586.28 166.59 586.59 167 586.77 167.3C586.95 167.59 587.1 167.95 587.23 168.35L581.45 173.11C581.2 172.26 580.96 171.61 580.72 171.17C580.48 170.73 580.12 170.21 579.62 169.6C578.77 168.56 577.89 167.87 577 167.51C576.1 167.15 575.16 167.13 574.18 167.45C573.2 167.77 572.13 168.41 570.97 169.36L562.22 176.55L556.62 169.74L556.6 169.72Z" fill="#5181FF"/>
<path d="M570.85 187.65L590.73 173.53L595.78 180.64L575.9 194.76L570.85 187.65ZM593.43 171.37L599.69 166.92L605 174.39L598.74 178.84L593.43 171.37Z" fill="#5181FF"/>
<path d="M580.081 200.57L595.401 191.59C596.341 191.04 597.281 190.45 598.211 189.83C599.141 189.21 600.051 188.56 600.921 187.9L605.181 195.17L601.781 197.73L601.511 197.27C603.251 197.2 604.851 197.6 606.311 198.49C607.771 199.38 608.991 200.63 609.951 202.27C611.421 204.78 611.801 207.09 611.081 209.19C610.371 211.29 608.481 213.24 605.411 215.04L592.861 222.4L588.451 214.87L600.661 207.71C602.011 206.92 602.821 206.12 603.081 205.33C603.341 204.54 603.201 203.69 602.671 202.79C601.981 201.61 601.031 200.87 599.841 200.58C598.651 200.29 597.441 200.51 596.191 201.24L584.471 208.11L580.061 200.58L580.081 200.57Z" fill="#5181FF"/>
<path d="M595.92 228.42L628.23 214.13L631.76 222.11L612.75 230.52L612.79 230.61L625.16 234.25L629.32 243.66L612.82 238.63L615.5 237.45L607.2 253.93L602.94 244.29L608.84 232.35L608.8 232.26L599.45 236.4L595.92 228.42Z" fill="#5181FF"/>
<path d="M613.17 272.54L645.98 264.27L651.91 287.8L645.35 289.45L641.64 274.72L634.98 276.4L638.42 290.04L631.86 291.69L628.42 278.05L615.39 281.33L613.17 272.54Z" fill="#5181FF"/>
<path d="M621.631 317.02C621.001 311.9 621.771 307.9 623.941 305.03C626.111 302.16 629.651 300.43 634.571 299.83L653.871 297.47L654.971 306.42L635.631 308.79C633.181 309.09 631.401 309.83 630.271 311.03C629.141 312.23 628.711 313.92 628.981 316.13C629.251 318.34 630.081 319.88 631.461 320.76C632.841 321.64 634.751 321.94 637.201 321.64L656.541 319.27L657.621 328.13L638.321 330.49C633.401 331.09 629.541 330.28 626.751 328.05C623.961 325.82 622.261 322.15 621.631 317.02Z" fill="#5181FF"/>
<path d="M624.401 339.64L658.231 340.3L658.101 346.96L636.501 364.04L636.531 362.62L657.791 363.04L657.631 371.42L623.801 370.76L623.931 364.09L645.531 347.11L645.501 348.53L624.241 348.11L624.411 339.63L624.401 339.64Z" fill="#5181FF"/>
<path d="M620.69 394.51L653.83 401.36L651.99 410.24L626.04 404.87L623.04 419.37L615.85 417.88L620.68 394.5L620.69 394.51Z" fill="#5181FF"/>
<path d="M615.939 419.2L642.819 445.37L640.459 452.33L603.189 456.9L606.099 448.31L616.259 447.35L612.819 449.86L619.319 430.64L620.539 434.68L613.039 427.8L615.949 419.21L615.939 419.2ZM633.009 445.88L622.159 436.16L624.739 435.58L620.139 449.18L618.399 447.3L632.939 446.11L633.019 445.88H633.009Z" fill="#5181FF"/>
<path d="M601.471 460.02L631.761 475.12L624.281 490.12C622.561 493.57 620.531 495.87 618.211 497.03C615.881 498.19 613.511 498.17 611.111 496.97C609.331 496.09 608.081 494.79 607.351 493.1C606.621 491.4 606.491 489.52 606.951 487.45L607.641 487.79C606.171 489.8 604.511 491.08 602.641 491.63C600.771 492.18 598.831 491.95 596.791 490.93C594.131 489.6 592.521 487.56 591.981 484.81C591.441 482.06 592.031 478.96 593.751 475.51L601.471 460.02ZM603.401 470.68L600.081 477.35C599.321 478.87 599.031 480.14 599.201 481.16C599.371 482.18 600.031 482.97 601.181 483.54C602.351 484.12 603.391 484.17 604.271 483.68C605.161 483.19 605.981 482.19 606.741 480.67L610.061 474L603.401 470.68ZM615.861 476.89L612.991 482.64C612.221 484.19 611.911 485.45 612.071 486.43C612.231 487.4 612.841 488.15 613.901 488.68C614.961 489.21 615.921 489.24 616.781 488.77C617.641 488.3 618.451 487.3 619.231 485.74L622.091 479.99L615.861 476.88V476.89Z" fill="#5181FF"/>
<path d="M576.5 504.54L583.63 509.58L578.39 516.98L571.26 511.94L576.5 504.54ZM584.72 512.7L604.58 523.44L598.41 532.16L581.69 516.98L584.72 512.7Z" fill="#5181FF"/>
</svg>
