<svg width="1440" height="44" viewBox="0 0 1440 44" fill="none" xmlns="http://www.w3.org/2000/svg">
<g clip-path="url(#clip0_679_3514)">
<path d="M-0.863219 15.3296H8.88278V17.7716H-0.863219V15.3296ZM2.85478 19.9496H6.52878V22.3476H2.85478V19.9496ZM2.61278 11.9856H5.23078V16.4296H2.61278V11.9856ZM5.69278 19.9496H8.17878C8.17878 19.9496 8.17878 20.6756 8.15678 20.9836C8.04678 28.0676 7.93678 30.7076 7.34278 31.5216C6.92478 32.1376 6.50678 32.3576 5.86878 32.4896C5.31878 32.5776 4.41678 32.5996 3.49278 32.5776C3.44878 31.8516 3.18478 30.8396 2.81078 30.1796C3.53678 30.2236 4.15278 30.2456 4.50478 30.2456C4.79078 30.2456 4.96678 30.1796 5.14278 29.9156C5.47278 29.4096 5.58278 27.1216 5.69278 20.4556V19.9496ZM11.0168 15.9896H19.6628V18.4316H11.0168V15.9896ZM11.2368 11.9636L13.9648 12.3596C13.2388 16.7816 11.8968 20.9616 9.91678 23.5576C9.47678 23.0956 8.33278 22.1716 7.71678 21.7756C9.56478 19.5536 10.6868 15.8356 11.2368 11.9636ZM15.5268 17.4636L18.1228 17.7276C17.0668 25.1636 14.7128 29.9156 9.21278 32.7096C8.97078 32.1156 8.22278 30.9276 7.73878 30.3776C12.7108 28.1556 14.7568 23.9536 15.5268 17.4636ZM12.3148 17.9476C13.3048 23.5796 15.4608 28.2216 19.9048 30.2456C19.3108 30.7736 18.4748 31.8296 18.1008 32.5336C13.3268 30.0256 11.2148 24.9656 10.0048 18.3436L12.3148 17.9476ZM1.31478 16.6276H3.80078V22.0836C3.80078 25.6696 3.33878 29.4536 0.566781 32.5336C0.104781 31.9836 -0.753219 31.2576 -1.39122 30.8176C0.984781 28.0676 1.31478 24.8776 1.31478 22.0616V16.6276ZM27.9348 18.2776H30.6848V28.7936C30.6848 29.8716 30.8608 30.0256 31.8948 30.0256C32.3568 30.0256 34.3368 30.0256 34.9088 30.0256C35.9868 30.0256 36.1628 29.2996 36.3388 25.8456C36.9328 26.3296 38.0548 26.8136 38.8028 26.9896C38.4948 31.1256 37.7688 32.4236 35.1288 32.4236C34.5348 32.4236 32.1148 32.4236 31.5428 32.4236C28.7268 32.4236 27.9348 31.5656 27.9348 28.7936V18.2776ZM28.0228 14.0976L29.7388 12.0516C32.3348 12.9756 35.3708 14.6256 37.1308 15.9016L35.3708 18.2336C33.6988 16.8256 30.6188 15.1096 28.0228 14.0976ZM23.9748 19.8396L26.5708 20.3676C26.2408 23.4256 25.6688 26.8136 24.2168 28.9696L21.7528 27.5616C23.0508 25.6696 23.6888 22.7876 23.9748 19.8396ZM36.6468 20.1916L39.0668 18.9816C40.9588 21.4016 42.5428 24.6356 43.0708 26.9456L40.3868 28.2656C39.9468 25.9996 38.4068 22.6116 36.6468 20.1916ZM54.4448 13.0856H63.3768V15.5276H54.4448V13.0856ZM53.6968 20.7416H65.8408V23.2276H53.6968V20.7416ZM58.3388 18.1676H61.0008V29.7176C61.0008 31.0376 60.7368 31.7416 59.8788 32.1596C58.9988 32.5556 57.7888 32.6436 56.1608 32.6216C56.0288 31.8956 55.5888 30.7516 55.2368 30.0476C56.3588 30.0916 57.5028 30.1136 57.8768 30.0916C58.2288 30.0696 58.3388 29.9816 58.3388 29.6736V18.1676ZM62.4308 13.0856H63.0688L63.6188 12.9536L65.3348 14.2516C64.0368 16.1656 62.1668 18.4976 60.4508 19.9496C60.0988 19.4876 59.3728 18.7616 58.9548 18.4096C60.2528 17.1556 61.7708 14.9776 62.4308 13.6576V13.0856ZM45.3148 16.3636H52.4208V18.8056H45.3148V16.3636ZM48.2628 11.9856L50.7488 12.2496C49.9128 16.9356 48.6368 22.8316 47.6028 26.7916L45.4468 25.6476C46.3928 22.1716 47.5808 16.3636 48.2628 11.9856ZM46.5908 25.2736L48.0428 23.4256C50.3308 24.8556 53.2348 26.9896 54.5108 28.6396L52.9268 30.7736C51.6948 29.1016 48.9008 26.7916 46.5908 25.2736ZM51.5188 16.3636H51.9368L52.3988 16.2976L53.9608 16.5616C53.4548 25.1416 51.3208 30.0036 46.9648 32.7096C46.6128 32.0716 45.9088 31.1256 45.3808 30.6196C49.1208 28.6616 51.0788 23.7996 51.5188 16.8476V16.3636ZM79.0848 17.7936V19.0036H85.2008V17.7936H79.0848ZM79.0848 14.8456V16.0336H85.2008V14.8456H79.0848ZM76.7088 12.9756H87.6868V20.8956H76.7088V12.9756ZM78.3588 20.3236L80.9108 20.7416C79.7888 23.3376 78.0508 25.7576 75.1248 27.6496C74.7948 27.0556 74.0028 26.1536 73.4748 25.8016C76.0268 24.3056 77.5888 22.2376 78.3588 20.3236ZM78.9968 22.1276H86.8068V24.2836H77.5008L78.9968 22.1276ZM85.9048 22.1276H88.3688C88.3688 22.1276 88.3688 22.7876 88.3468 23.0956C88.1488 28.8596 87.9068 30.9716 87.3348 31.7196C86.9168 32.2696 86.4328 32.4676 85.8168 32.5556C85.2448 32.6436 84.3648 32.6436 83.3748 32.6216C83.3528 32.0276 83.0888 31.1476 82.8028 30.5756C83.5288 30.6636 84.1888 30.6856 84.5408 30.6856C84.8268 30.6856 85.0028 30.6196 85.2008 30.3776C85.5528 29.9156 85.7508 27.9796 85.9048 22.5456V22.1276ZM76.5988 24.6576H78.7988V28.7276C78.7988 29.2996 78.9088 29.3876 79.6348 29.3876C79.9428 29.3876 81.3728 29.3876 81.7908 29.3876C82.3408 29.3876 82.4508 29.2116 82.5168 28.0676C82.9568 28.4196 83.8808 28.7716 84.5188 28.9036C84.2328 30.9276 83.6168 31.4556 82.0328 31.4556C81.5708 31.4556 79.7668 31.4556 79.3268 31.4556C77.0828 31.4556 76.5988 30.8176 76.5988 28.7716V24.6576ZM82.0988 24.9216L83.8808 26.4396C82.2968 27.2756 80.2068 27.9356 78.4028 28.3756C78.2928 27.9576 77.9628 27.2316 77.6988 26.7916C79.3048 26.3296 81.0868 25.6036 82.0988 24.9216ZM70.4828 14.1856H75.2568V26.7476H70.4828V24.3276H73.0348V16.5616H70.4828V14.1856ZM69.0088 14.1856H71.2968V28.5736H69.0088V14.1856ZM97.4988 16.5836C99.6328 23.3596 104.253 28.2876 112.063 30.1356C111.447 30.7296 110.611 31.9176 110.215 32.6656C101.965 30.4216 97.5208 25.1856 94.8588 17.3316L97.4988 16.5836ZM92.7028 13.8556H107.861V16.4736H92.7028V13.8556ZM106.937 13.8556H107.443L107.905 13.7236L109.841 14.6256C107.311 24.5476 100.931 30.2236 93.0108 32.7316C92.7248 32.0276 91.8668 30.7296 91.2728 30.1796C98.9508 27.9796 104.847 23.1616 106.937 14.4056V13.8556ZM119.631 20.5656V28.6616H117.101V23.0076H114.637V20.5656H119.631ZM119.631 27.6276C120.467 29.0796 122.029 29.7176 124.295 29.8056C126.935 29.9376 132.149 29.8716 135.207 29.6296C134.921 30.2236 134.503 31.4336 134.393 32.2036C131.643 32.3356 126.957 32.3796 124.273 32.2476C121.633 32.1376 119.851 31.4996 118.531 29.8056C117.651 30.6636 116.727 31.4996 115.627 32.4456L114.373 29.8276C115.297 29.2336 116.375 28.4416 117.343 27.6276H119.631ZM114.703 14.0316L116.727 12.5576C117.981 13.5256 119.521 14.9996 120.203 16.0336L118.025 17.7056C117.431 16.6276 115.957 15.1096 114.703 14.0316ZM121.193 19.3996H133.073V21.4016H123.481V29.0136H121.193V19.3996ZM126.451 15.9456H130.983V17.5956H128.299V20.1696H126.451V15.9456ZM122.843 12.6456H132.369V19.9496H129.993V14.5816H125.131V19.9496H122.843V12.6456ZM125.791 22.3036H130.411V27.1656H125.791V25.5156H128.497V23.9976H125.791V22.3036ZM131.599 19.3996H133.975V26.7696C133.975 27.8036 133.821 28.3756 133.139 28.7276C132.479 29.0576 131.577 29.0796 130.389 29.0796C130.301 28.4636 130.015 27.5836 129.751 27.0116C130.389 27.0336 131.093 27.0336 131.291 27.0336C131.511 27.0336 131.599 26.9676 131.599 26.7476V19.3996ZM124.603 22.3036H126.517V27.8476H124.603V22.3036ZM141.807 13.6576H158.087V15.6596H141.807V13.6576ZM147.593 11.9856H150.255V14.7796H147.593V11.9856ZM140.223 13.6576H142.489V20.7196C142.489 24.2616 142.027 29.3876 139.211 32.5116C138.859 32.0276 138.001 31.1476 137.539 30.8396C140.025 28.0236 140.223 23.8876 140.223 20.7196V13.6576ZM137.385 16.6276L139.035 15.8136C139.629 17.1116 140.179 18.8056 140.333 19.8616L138.551 20.8296C138.441 19.7296 137.935 17.9916 137.385 16.6276ZM137.253 23.9316C138.155 23.5136 139.409 22.8096 140.729 22.0616L141.367 23.9536C140.267 24.7236 139.123 25.4936 138.001 26.2196L137.253 23.9316ZM149.529 16.6496L151.267 17.1116C150.805 18.4096 150.013 19.8616 149.287 20.7636C148.935 20.4996 148.187 20.0596 147.747 19.8396C148.495 18.9816 149.133 17.7716 149.529 16.6496ZM148.605 25.1416H156.217V26.3516H148.605V25.1416ZM155.909 25.0976H158.219V26.3736H155.909V25.0976ZM149.617 19.6416H156.459V20.8516H149.617V19.6416ZM148.495 21.4456H157.625V22.6556H148.495V21.4456ZM152.015 20.2576H154.083V22.0396H152.015V20.2576ZM150.013 28.7276H151.883V30.3556C151.883 30.7956 151.949 30.8396 152.433 30.8396C152.653 30.8396 153.665 30.8396 153.929 30.8396C154.325 30.8396 154.413 30.7296 154.479 29.8496C154.831 30.0916 155.557 30.3336 156.063 30.4216C155.865 31.9396 155.381 32.3576 154.193 32.3576C153.819 32.3576 152.521 32.3576 152.191 32.3576C150.409 32.3576 150.013 31.8956 150.013 30.3556V28.7276ZM156.063 15.7916L157.405 17.0016C155.535 17.6836 152.719 18.0796 150.365 18.2336C150.321 17.8596 150.079 17.2876 149.881 16.9356C152.081 16.7156 154.655 16.3196 156.063 15.7916ZM149.001 23.2276H157.053V28.2436H149.001V26.9676H155.007V24.5036H149.001V23.2276ZM155.161 29.3876L156.635 28.7056C157.317 29.4756 158.043 30.5536 158.285 31.2796L156.723 32.0496C156.481 31.3016 155.821 30.2016 155.161 29.3876ZM151.927 18.3876L153.511 17.8816C153.775 18.3436 154.061 19.0036 154.149 19.4436L152.477 20.0376C152.411 19.5976 152.169 18.8936 151.927 18.3876ZM155.029 18.0576L156.459 17.2876C157.097 18.0576 157.845 19.1576 158.175 19.8616L156.679 20.7416C156.371 20.0156 155.667 18.8716 155.029 18.0576ZM151.333 28.3756L152.477 27.4736C153.247 27.9576 154.149 28.7276 154.611 29.2556L153.379 30.2676C152.939 29.6956 152.037 28.8596 151.333 28.3756ZM148.429 28.7496L149.947 29.3436C149.617 30.3776 149.111 31.4996 148.297 32.2256L146.867 31.2576C147.571 30.6636 148.121 29.6296 148.429 28.7496ZM143.325 16.5396H146.977V18.3656H145.217V32.6436H143.325V16.5396ZM146.493 16.5396H146.801L147.109 16.4736L148.561 17.1556C148.209 18.7396 147.747 20.8736 147.329 22.4356C148.187 23.8876 148.385 25.1636 148.385 26.2636C148.385 27.4296 148.165 28.2216 147.659 28.6396C147.373 28.8596 147.065 28.9696 146.691 29.0136C146.427 29.0796 146.031 29.0796 145.679 29.0576C145.657 28.5296 145.503 27.7376 145.195 27.2316C145.481 27.2756 145.657 27.2756 145.833 27.2536C145.987 27.2536 146.141 27.2096 146.229 27.0996C146.383 26.9456 146.471 26.5056 146.449 25.9996C146.449 25.1416 146.361 23.9536 145.569 22.6336C145.965 20.8736 146.339 18.3436 146.493 17.0676V16.5396Z" fill="black" fill-opacity="0.85"/>
<circle cx="19.7689" cy="19.7689" r="19.7689" transform="matrix(-0.996594 -0.08247 -0.08247 0.996594 211.965 3.59229)" fill="black" fill-opacity="0.85"/>
<g filter="url(#filter0_i_679_3514)">
<path fill-rule="evenodd" clip-rule="evenodd" d="M189.473 40.0549C179.315 39.424 171.592 30.678 172.223 20.5199C172.854 10.3619 181.6 2.6386 191.758 3.26942C201.916 3.90024 209.639 12.6463 209.008 22.8043C208.377 32.9624 199.631 40.6857 189.473 40.0549ZM196.509 26.8927C197.074 26.4733 197.873 26.5917 198.292 27.1573C198.712 27.7229 198.593 28.5215 198.028 28.9409C196.752 29.8873 194.558 30.9862 191.994 31.3092C189.393 31.637 186.38 31.1642 183.634 28.9008C183.09 28.453 183.013 27.6495 183.46 27.106C183.908 26.5626 184.712 26.4851 185.255 26.9329C187.368 28.6738 189.643 29.0353 191.676 28.7792C193.747 28.5182 195.535 27.6149 196.509 26.8927ZM183.673 13.2155C183.084 13.6023 182.921 14.3928 183.308 14.9812L185.153 17.7892L183.094 19.7594C182.586 20.2462 182.568 21.0533 183.055 21.5621C183.541 22.0708 184.348 22.0886 184.857 21.6018L187.217 19.3438C187.932 18.6599 188.056 17.5631 187.513 16.7364L185.439 13.5806C185.052 12.9922 184.261 12.8287 183.673 13.2155ZM193.982 14.5321C193.595 13.9436 193.758 13.1531 194.347 12.7663C194.935 12.3795 195.726 12.543 196.113 13.1315L198.187 16.2872C198.73 17.1139 198.606 18.2107 197.891 18.8946L195.531 21.1526C195.022 21.6395 194.215 21.6217 193.728 21.1129C193.242 20.6041 193.259 19.797 193.768 19.3102L195.827 17.34L193.982 14.5321Z" fill="#FFF55F"/>
</g>
<path d="M221.801 15.3296H231.547V17.7716H221.801V15.3296ZM225.519 19.9496H229.193V22.3476H225.519V19.9496ZM225.277 11.9856H227.895V16.4296H225.277V11.9856ZM228.357 19.9496H230.843C230.843 19.9496 230.843 20.6756 230.821 20.9836C230.711 28.0676 230.601 30.7076 230.007 31.5216C229.589 32.1376 229.171 32.3576 228.533 32.4896C227.983 32.5776 227.081 32.5996 226.157 32.5776C226.113 31.8516 225.849 30.8396 225.475 30.1796C226.201 30.2236 226.817 30.2456 227.169 30.2456C227.455 30.2456 227.631 30.1796 227.807 29.9156C228.137 29.4096 228.247 27.1216 228.357 20.4556V19.9496ZM233.681 15.9896H242.327V18.4316H233.681V15.9896ZM233.901 11.9636L236.629 12.3596C235.903 16.7816 234.561 20.9616 232.581 23.5576C232.141 23.0956 230.997 22.1716 230.381 21.7756C232.229 19.5536 233.351 15.8356 233.901 11.9636ZM238.191 17.4636L240.787 17.7276C239.731 25.1636 237.377 29.9156 231.877 32.7096C231.635 32.1156 230.887 30.9276 230.403 30.3776C235.375 28.1556 237.421 23.9536 238.191 17.4636ZM234.979 17.9476C235.969 23.5796 238.125 28.2216 242.569 30.2456C241.975 30.7736 241.139 31.8296 240.765 32.5336C235.991 30.0256 233.879 24.9656 232.669 18.3436L234.979 17.9476ZM223.979 16.6276H226.465V22.0836C226.465 25.6696 226.003 29.4536 223.231 32.5336C222.769 31.9836 221.911 31.2576 221.273 30.8176C223.649 28.0676 223.979 24.8776 223.979 22.0616V16.6276ZM256.385 15.8356H263.425V18.2116H256.385V15.8356ZM256.539 11.9636L259.113 12.3376C258.475 16.2096 257.287 19.7516 255.527 21.9736C255.087 21.5776 253.943 20.8076 253.327 20.4996C255.043 18.5636 256.077 15.3516 256.539 11.9636ZM259.619 16.7816H260.895V20.4336C260.895 22.6116 261.753 27.6496 265.515 30.3336C265.053 30.9276 264.283 32.0276 263.887 32.6876C261.137 30.7296 259.861 26.9456 259.597 25.0096C259.267 26.9016 257.749 30.6416 254.625 32.6656C254.317 32.0716 253.569 30.9716 253.107 30.4656C257.375 27.7376 258.277 22.6996 258.277 20.4336V16.7816H259.619ZM262.787 15.8356H263.183L263.601 15.7256L265.361 16.1436C265.031 18.3216 264.415 20.6976 263.755 22.2596L261.665 21.5776C262.149 20.2356 262.589 17.9916 262.787 16.2536V15.8356ZM249.059 16.1876H251.391V18.7176H249.059V16.1876ZM246.265 17.9036H248.619V30.1576H246.265V17.9036ZM247.717 20.7636H252.799V22.5236H247.717V20.7636ZM244.703 29.4316C246.639 29.0136 249.609 28.2216 252.447 27.4296L252.755 29.5416C250.269 30.3556 247.651 31.2136 245.539 31.8736L244.703 29.4316ZM250.335 26.2636L252.469 25.5156C253.195 26.9456 254.031 28.8376 254.361 30.0256L252.073 30.9496C251.809 29.7396 251.061 27.7376 250.335 26.2636ZM247.717 17.9036H253.899V25.4276H247.717V23.6236H251.589V19.7296H247.717V17.9036ZM248.597 11.9856H250.005V12.4696H250.775V13.1736C249.807 14.8676 248.311 17.0896 245.825 19.0036C245.517 18.4536 244.813 17.5516 244.329 17.1776C246.419 15.6816 247.827 13.6796 248.597 11.9856ZM249.279 11.9856H251.061C252.359 13.1516 254.009 14.8016 254.889 15.9236L253.085 17.6396C252.359 16.5836 250.841 14.7576 249.697 13.7236H249.279V11.9856Z" fill="black" fill-opacity="0.85"/>
<g filter="url(#filter1_i_679_3514)">
<path d="M315.133 13.8944C315.133 7.5632 310.639 2.58154 305.1 2.58154C300.627 2.58154 296.844 6.00277 295.548 10.6254C294.251 6.00337 290.468 2.7006 285.995 2.7006C280.455 2.7006 275.965 7.54024 275.965 13.8738C275.965 17.0696 277.112 19.3275 278.957 21.7437L295.557 40.7457L312.138 21.7437C313.985 19.3275 315.133 17.0878 315.133 13.8944Z" fill="#FAB4F0"/>
</g>
<path d="M294.73 10.8551C294.833 11.222 295.167 11.4755 295.548 11.4754C295.929 11.4754 296.264 11.2218 296.366 10.8549C297.584 6.51171 301.092 3.43154 305.1 3.43154C310.08 3.43154 314.283 7.93833 314.283 13.8944C314.283 16.8234 313.253 18.8809 311.479 21.2057L295.557 39.4532L279.616 21.2057C277.845 18.8825 276.815 16.8067 276.815 13.8738C276.815 7.92953 281.001 3.5506 285.995 3.5506C290.016 3.5506 293.515 6.52747 294.73 10.8551Z" stroke="black" stroke-opacity="0.85" stroke-width="1.7" stroke-linejoin="round"/>
<g filter="url(#filter2_i_679_3514)">
<path d="M363.301 13.8944C363.301 7.5632 358.806 2.58154 353.268 2.58154C348.795 2.58154 345.012 6.00277 343.716 10.6254C342.419 6.00337 338.636 2.7006 334.163 2.7006C328.623 2.7006 324.133 7.54024 324.133 13.8738C324.133 17.0696 325.28 19.3275 327.125 21.7437L343.725 40.7457L360.306 21.7437C362.153 19.3275 363.301 17.0878 363.301 13.8944Z" fill="#FAB4F0"/>
</g>
<path d="M342.898 10.8551C343.001 11.222 343.335 11.4755 343.716 11.4754C344.097 11.4754 344.432 11.2218 344.534 10.8549C345.752 6.51171 349.26 3.43154 353.268 3.43154C358.248 3.43154 362.451 7.93833 362.451 13.8944C362.451 16.8234 361.421 18.8809 359.647 21.2057L343.725 39.4532L327.784 21.2057C326.013 18.8825 324.983 16.8067 324.983 13.8738C324.983 7.92953 329.169 3.5506 334.163 3.5506C338.184 3.5506 341.683 6.52747 342.898 10.8551Z" stroke="black" stroke-opacity="0.85" stroke-width="1.7" stroke-linejoin="round"/>
<path d="M390.137 15.3296H399.883V17.7716H390.137V15.3296ZM393.855 19.9496H397.529V22.3476H393.855V19.9496ZM393.613 11.9856H396.231V16.4296H393.613V11.9856ZM396.693 19.9496H399.179C399.179 19.9496 399.179 20.6756 399.157 20.9836C399.047 28.0676 398.937 30.7076 398.343 31.5216C397.925 32.1376 397.507 32.3576 396.869 32.4896C396.319 32.5776 395.417 32.5996 394.493 32.5776C394.449 31.8516 394.185 30.8396 393.811 30.1796C394.537 30.2236 395.153 30.2456 395.505 30.2456C395.791 30.2456 395.967 30.1796 396.143 29.9156C396.473 29.4096 396.583 27.1216 396.693 20.4556V19.9496ZM402.017 15.9896H410.663V18.4316H402.017V15.9896ZM402.237 11.9636L404.965 12.3596C404.239 16.7816 402.897 20.9616 400.917 23.5576C400.477 23.0956 399.333 22.1716 398.717 21.7756C400.565 19.5536 401.687 15.8356 402.237 11.9636ZM406.527 17.4636L409.123 17.7276C408.067 25.1636 405.713 29.9156 400.213 32.7096C399.971 32.1156 399.223 30.9276 398.739 30.3776C403.711 28.1556 405.757 23.9536 406.527 17.4636ZM403.315 17.9476C404.305 23.5796 406.461 28.2216 410.905 30.2456C410.311 30.7736 409.475 31.8296 409.101 32.5336C404.327 30.0256 402.215 24.9656 401.005 18.3436L403.315 17.9476ZM392.315 16.6276H394.801V22.0836C394.801 25.6696 394.339 29.4536 391.567 32.5336C391.105 31.9836 390.247 31.2576 389.609 30.8176C391.985 28.0676 392.315 24.8776 392.315 22.0616V16.6276ZM418.935 18.2776H421.685V28.7936C421.685 29.8716 421.861 30.0256 422.895 30.0256C423.357 30.0256 425.337 30.0256 425.909 30.0256C426.987 30.0256 427.163 29.2996 427.339 25.8456C427.933 26.3296 429.055 26.8136 429.803 26.9896C429.495 31.1256 428.769 32.4236 426.129 32.4236C425.535 32.4236 423.115 32.4236 422.543 32.4236C419.727 32.4236 418.935 31.5656 418.935 28.7936V18.2776ZM419.023 14.0976L420.739 12.0516C423.335 12.9756 426.371 14.6256 428.131 15.9016L426.371 18.2336C424.699 16.8256 421.619 15.1096 419.023 14.0976ZM414.975 19.8396L417.571 20.3676C417.241 23.4256 416.669 26.8136 415.217 28.9696L412.753 27.5616C414.051 25.6696 414.689 22.7876 414.975 19.8396ZM427.647 20.1916L430.067 18.9816C431.959 21.4016 433.543 24.6356 434.071 26.9456L431.387 28.2656C430.947 25.9996 429.407 22.6116 427.647 20.1916ZM445.445 13.0856H454.377V15.5276H445.445V13.0856ZM444.697 20.7416H456.841V23.2276H444.697V20.7416ZM449.339 18.1676H452.001V29.7176C452.001 31.0376 451.737 31.7416 450.879 32.1596C449.999 32.5556 448.789 32.6436 447.161 32.6216C447.029 31.8956 446.589 30.7516 446.237 30.0476C447.359 30.0916 448.503 30.1136 448.877 30.0916C449.229 30.0696 449.339 29.9816 449.339 29.6736V18.1676ZM453.431 13.0856H454.069L454.619 12.9536L456.335 14.2516C455.037 16.1656 453.167 18.4976 451.451 19.9496C451.099 19.4876 450.373 18.7616 449.955 18.4096C451.253 17.1556 452.771 14.9776 453.431 13.6576V13.0856ZM436.315 16.3636H443.421V18.8056H436.315V16.3636ZM439.263 11.9856L441.749 12.2496C440.913 16.9356 439.637 22.8316 438.603 26.7916L436.447 25.6476C437.393 22.1716 438.581 16.3636 439.263 11.9856ZM437.591 25.2736L439.043 23.4256C441.331 24.8556 444.235 26.9896 445.511 28.6396L443.927 30.7736C442.695 29.1016 439.901 26.7916 437.591 25.2736ZM442.519 16.3636H442.937L443.399 16.2976L444.961 16.5616C444.455 25.1416 442.321 30.0036 437.965 32.7096C437.613 32.0716 436.909 31.1256 436.381 30.6196C440.121 28.6616 442.079 23.7996 442.519 16.8476V16.3636ZM470.085 17.7936V19.0036H476.201V17.7936H470.085ZM470.085 14.8456V16.0336H476.201V14.8456H470.085ZM467.709 12.9756H478.687V20.8956H467.709V12.9756ZM469.359 20.3236L471.911 20.7416C470.789 23.3376 469.051 25.7576 466.125 27.6496C465.795 27.0556 465.003 26.1536 464.475 25.8016C467.027 24.3056 468.589 22.2376 469.359 20.3236ZM469.997 22.1276H477.807V24.2836H468.501L469.997 22.1276ZM476.905 22.1276H479.369C479.369 22.1276 479.369 22.7876 479.347 23.0956C479.149 28.8596 478.907 30.9716 478.335 31.7196C477.917 32.2696 477.433 32.4676 476.817 32.5556C476.245 32.6436 475.365 32.6436 474.375 32.6216C474.353 32.0276 474.089 31.1476 473.803 30.5756C474.529 30.6636 475.189 30.6856 475.541 30.6856C475.827 30.6856 476.003 30.6196 476.201 30.3776C476.553 29.9156 476.751 27.9796 476.905 22.5456V22.1276ZM467.599 24.6576H469.799V28.7276C469.799 29.2996 469.909 29.3876 470.635 29.3876C470.943 29.3876 472.373 29.3876 472.791 29.3876C473.341 29.3876 473.451 29.2116 473.517 28.0676C473.957 28.4196 474.881 28.7716 475.519 28.9036C475.233 30.9276 474.617 31.4556 473.033 31.4556C472.571 31.4556 470.767 31.4556 470.327 31.4556C468.083 31.4556 467.599 30.8176 467.599 28.7716V24.6576ZM473.099 24.9216L474.881 26.4396C473.297 27.2756 471.207 27.9356 469.403 28.3756C469.293 27.9576 468.963 27.2316 468.699 26.7916C470.305 26.3296 472.087 25.6036 473.099 24.9216ZM461.483 14.1856H466.257V26.7476H461.483V24.3276H464.035V16.5616H461.483V14.1856ZM460.009 14.1856H462.297V28.5736H460.009V14.1856ZM488.499 16.5836C490.633 23.3596 495.253 28.2876 503.063 30.1356C502.447 30.7296 501.611 31.9176 501.215 32.6656C492.965 30.4216 488.521 25.1856 485.859 17.3316L488.499 16.5836ZM483.703 13.8556H498.861V16.4736H483.703V13.8556ZM497.937 13.8556H498.443L498.905 13.7236L500.841 14.6256C498.311 24.5476 491.931 30.2236 484.011 32.7316C483.725 32.0276 482.867 30.7296 482.273 30.1796C489.951 27.9796 495.847 23.1616 497.937 14.4056V13.8556ZM510.631 20.5656V28.6616H508.101V23.0076H505.637V20.5656H510.631ZM510.631 27.6276C511.467 29.0796 513.029 29.7176 515.295 29.8056C517.935 29.9376 523.149 29.8716 526.207 29.6296C525.921 30.2236 525.503 31.4336 525.393 32.2036C522.643 32.3356 517.957 32.3796 515.273 32.2476C512.633 32.1376 510.851 31.4996 509.531 29.8056C508.651 30.6636 507.727 31.4996 506.627 32.4456L505.373 29.8276C506.297 29.2336 507.375 28.4416 508.343 27.6276H510.631ZM505.703 14.0316L507.727 12.5576C508.981 13.5256 510.521 14.9996 511.203 16.0336L509.025 17.7056C508.431 16.6276 506.957 15.1096 505.703 14.0316ZM512.193 19.3996H524.073V21.4016H514.481V29.0136H512.193V19.3996ZM517.451 15.9456H521.983V17.5956H519.299V20.1696H517.451V15.9456ZM513.843 12.6456H523.369V19.9496H520.993V14.5816H516.131V19.9496H513.843V12.6456ZM516.791 22.3036H521.411V27.1656H516.791V25.5156H519.497V23.9976H516.791V22.3036ZM522.599 19.3996H524.975V26.7696C524.975 27.8036 524.821 28.3756 524.139 28.7276C523.479 29.0576 522.577 29.0796 521.389 29.0796C521.301 28.4636 521.015 27.5836 520.751 27.0116C521.389 27.0336 522.093 27.0336 522.291 27.0336C522.511 27.0336 522.599 26.9676 522.599 26.7476V19.3996ZM515.603 22.3036H517.517V27.8476H515.603V22.3036ZM532.807 13.6576H549.087V15.6596H532.807V13.6576ZM538.593 11.9856H541.255V14.7796H538.593V11.9856ZM531.223 13.6576H533.489V20.7196C533.489 24.2616 533.027 29.3876 530.211 32.5116C529.859 32.0276 529.001 31.1476 528.539 30.8396C531.025 28.0236 531.223 23.8876 531.223 20.7196V13.6576ZM528.385 16.6276L530.035 15.8136C530.629 17.1116 531.179 18.8056 531.333 19.8616L529.551 20.8296C529.441 19.7296 528.935 17.9916 528.385 16.6276ZM528.253 23.9316C529.155 23.5136 530.409 22.8096 531.729 22.0616L532.367 23.9536C531.267 24.7236 530.123 25.4936 529.001 26.2196L528.253 23.9316ZM540.529 16.6496L542.267 17.1116C541.805 18.4096 541.013 19.8616 540.287 20.7636C539.935 20.4996 539.187 20.0596 538.747 19.8396C539.495 18.9816 540.133 17.7716 540.529 16.6496ZM539.605 25.1416H547.217V26.3516H539.605V25.1416ZM546.909 25.0976H549.219V26.3736H546.909V25.0976ZM540.617 19.6416H547.459V20.8516H540.617V19.6416ZM539.495 21.4456H548.625V22.6556H539.495V21.4456ZM543.015 20.2576H545.083V22.0396H543.015V20.2576ZM541.013 28.7276H542.883V30.3556C542.883 30.7956 542.949 30.8396 543.433 30.8396C543.653 30.8396 544.665 30.8396 544.929 30.8396C545.325 30.8396 545.413 30.7296 545.479 29.8496C545.831 30.0916 546.557 30.3336 547.063 30.4216C546.865 31.9396 546.381 32.3576 545.193 32.3576C544.819 32.3576 543.521 32.3576 543.191 32.3576C541.409 32.3576 541.013 31.8956 541.013 30.3556V28.7276ZM547.063 15.7916L548.405 17.0016C546.535 17.6836 543.719 18.0796 541.365 18.2336C541.321 17.8596 541.079 17.2876 540.881 16.9356C543.081 16.7156 545.655 16.3196 547.063 15.7916ZM540.001 23.2276H548.053V28.2436H540.001V26.9676H546.007V24.5036H540.001V23.2276ZM546.161 29.3876L547.635 28.7056C548.317 29.4756 549.043 30.5536 549.285 31.2796L547.723 32.0496C547.481 31.3016 546.821 30.2016 546.161 29.3876ZM542.927 18.3876L544.511 17.8816C544.775 18.3436 545.061 19.0036 545.149 19.4436L543.477 20.0376C543.411 19.5976 543.169 18.8936 542.927 18.3876ZM546.029 18.0576L547.459 17.2876C548.097 18.0576 548.845 19.1576 549.175 19.8616L547.679 20.7416C547.371 20.0156 546.667 18.8716 546.029 18.0576ZM542.333 28.3756L543.477 27.4736C544.247 27.9576 545.149 28.7276 545.611 29.2556L544.379 30.2676C543.939 29.6956 543.037 28.8596 542.333 28.3756ZM539.429 28.7496L540.947 29.3436C540.617 30.3776 540.111 31.4996 539.297 32.2256L537.867 31.2576C538.571 30.6636 539.121 29.6296 539.429 28.7496ZM534.325 16.5396H537.977V18.3656H536.217V32.6436H534.325V16.5396ZM537.493 16.5396H537.801L538.109 16.4736L539.561 17.1556C539.209 18.7396 538.747 20.8736 538.329 22.4356C539.187 23.8876 539.385 25.1636 539.385 26.2636C539.385 27.4296 539.165 28.2216 538.659 28.6396C538.373 28.8596 538.065 28.9696 537.691 29.0136C537.427 29.0796 537.031 29.0796 536.679 29.0576C536.657 28.5296 536.503 27.7376 536.195 27.2316C536.481 27.2756 536.657 27.2756 536.833 27.2536C536.987 27.2536 537.141 27.2096 537.229 27.0996C537.383 26.9456 537.471 26.5056 537.449 25.9996C537.449 25.1416 537.361 23.9536 536.569 22.6336C536.965 20.8736 537.339 18.3436 537.493 17.0676V16.5396Z" fill="black" fill-opacity="0.85"/>
<circle cx="19.7689" cy="19.7689" r="19.7689" transform="matrix(-0.996594 -0.08247 -0.08247 0.996594 602.965 3.59229)" fill="black" fill-opacity="0.85"/>
<g filter="url(#filter3_i_679_3514)">
<path fill-rule="evenodd" clip-rule="evenodd" d="M580.473 40.0549C570.315 39.424 562.592 30.678 563.223 20.5199C563.854 10.3619 572.6 2.6386 582.758 3.26942C592.916 3.90024 600.639 12.6463 600.008 22.8043C599.377 32.9624 590.631 40.6857 580.473 40.0549ZM587.509 26.8927C588.074 26.4733 588.873 26.5917 589.292 27.1573C589.712 27.7229 589.593 28.5215 589.028 28.9409C587.752 29.8873 585.558 30.9862 582.994 31.3092C580.393 31.637 577.38 31.1642 574.634 28.9008C574.09 28.453 574.013 27.6495 574.46 27.106C574.908 26.5626 575.712 26.4851 576.255 26.9329C578.368 28.6738 580.643 29.0353 582.676 28.7792C584.747 28.5182 586.535 27.6149 587.509 26.8927ZM574.673 13.2155C574.084 13.6023 573.921 14.3928 574.308 14.9812L576.153 17.7892L574.094 19.7594C573.586 20.2462 573.568 21.0533 574.055 21.5621C574.541 22.0708 575.348 22.0886 575.857 21.6018L578.217 19.3438C578.932 18.6599 579.056 17.5631 578.513 16.7364L576.439 13.5806C576.052 12.9922 575.261 12.8287 574.673 13.2155ZM584.982 14.5321C584.595 13.9436 584.758 13.1531 585.347 12.7663C585.935 12.3795 586.726 12.543 587.113 13.1315L589.187 16.2872C589.73 17.1139 589.606 18.2107 588.891 18.8946L586.531 21.1526C586.022 21.6395 585.215 21.6217 584.728 21.1129C584.242 20.6041 584.259 19.797 584.768 19.3102L586.827 17.34L584.982 14.5321Z" fill="#FFF55F"/>
</g>
<path d="M612.801 15.3296H622.547V17.7716H612.801V15.3296ZM616.519 19.9496H620.193V22.3476H616.519V19.9496ZM616.277 11.9856H618.895V16.4296H616.277V11.9856ZM619.357 19.9496H621.843C621.843 19.9496 621.843 20.6756 621.821 20.9836C621.711 28.0676 621.601 30.7076 621.007 31.5216C620.589 32.1376 620.171 32.3576 619.533 32.4896C618.983 32.5776 618.081 32.5996 617.157 32.5776C617.113 31.8516 616.849 30.8396 616.475 30.1796C617.201 30.2236 617.817 30.2456 618.169 30.2456C618.455 30.2456 618.631 30.1796 618.807 29.9156C619.137 29.4096 619.247 27.1216 619.357 20.4556V19.9496ZM624.681 15.9896H633.327V18.4316H624.681V15.9896ZM624.901 11.9636L627.629 12.3596C626.903 16.7816 625.561 20.9616 623.581 23.5576C623.141 23.0956 621.997 22.1716 621.381 21.7756C623.229 19.5536 624.351 15.8356 624.901 11.9636ZM629.191 17.4636L631.787 17.7276C630.731 25.1636 628.377 29.9156 622.877 32.7096C622.635 32.1156 621.887 30.9276 621.403 30.3776C626.375 28.1556 628.421 23.9536 629.191 17.4636ZM625.979 17.9476C626.969 23.5796 629.125 28.2216 633.569 30.2456C632.975 30.7736 632.139 31.8296 631.765 32.5336C626.991 30.0256 624.879 24.9656 623.669 18.3436L625.979 17.9476ZM614.979 16.6276H617.465V22.0836C617.465 25.6696 617.003 29.4536 614.231 32.5336C613.769 31.9836 612.911 31.2576 612.273 30.8176C614.649 28.0676 614.979 24.8776 614.979 22.0616V16.6276ZM647.385 15.8356H654.425V18.2116H647.385V15.8356ZM647.539 11.9636L650.113 12.3376C649.475 16.2096 648.287 19.7516 646.527 21.9736C646.087 21.5776 644.943 20.8076 644.327 20.4996C646.043 18.5636 647.077 15.3516 647.539 11.9636ZM650.619 16.7816H651.895V20.4336C651.895 22.6116 652.753 27.6496 656.515 30.3336C656.053 30.9276 655.283 32.0276 654.887 32.6876C652.137 30.7296 650.861 26.9456 650.597 25.0096C650.267 26.9016 648.749 30.6416 645.625 32.6656C645.317 32.0716 644.569 30.9716 644.107 30.4656C648.375 27.7376 649.277 22.6996 649.277 20.4336V16.7816H650.619ZM653.787 15.8356H654.183L654.601 15.7256L656.361 16.1436C656.031 18.3216 655.415 20.6976 654.755 22.2596L652.665 21.5776C653.149 20.2356 653.589 17.9916 653.787 16.2536V15.8356ZM640.059 16.1876H642.391V18.7176H640.059V16.1876ZM637.265 17.9036H639.619V30.1576H637.265V17.9036ZM638.717 20.7636H643.799V22.5236H638.717V20.7636ZM635.703 29.4316C637.639 29.0136 640.609 28.2216 643.447 27.4296L643.755 29.5416C641.269 30.3556 638.651 31.2136 636.539 31.8736L635.703 29.4316ZM641.335 26.2636L643.469 25.5156C644.195 26.9456 645.031 28.8376 645.361 30.0256L643.073 30.9496C642.809 29.7396 642.061 27.7376 641.335 26.2636ZM638.717 17.9036H644.899V25.4276H638.717V23.6236H642.589V19.7296H638.717V17.9036ZM639.597 11.9856H641.005V12.4696H641.775V13.1736C640.807 14.8676 639.311 17.0896 636.825 19.0036C636.517 18.4536 635.813 17.5516 635.329 17.1776C637.419 15.6816 638.827 13.6796 639.597 11.9856ZM640.279 11.9856H642.061C643.359 13.1516 645.009 14.8016 645.889 15.9236L644.085 17.6396C643.359 16.5836 641.841 14.7576 640.697 13.7236H640.279V11.9856Z" fill="black" fill-opacity="0.85"/>
<g filter="url(#filter4_i_679_3514)">
<path d="M706.133 13.8944C706.133 7.5632 701.639 2.58154 696.1 2.58154C691.627 2.58154 687.844 6.00277 686.548 10.6254C685.251 6.00337 681.468 2.7006 676.995 2.7006C671.455 2.7006 666.965 7.54024 666.965 13.8738C666.965 17.0696 668.112 19.3275 669.957 21.7437L686.557 40.7457L703.138 21.7437C704.985 19.3275 706.133 17.0878 706.133 13.8944Z" fill="#FAB4F0"/>
</g>
<path d="M685.73 10.8551C685.833 11.222 686.167 11.4755 686.548 11.4754C686.929 11.4754 687.264 11.2218 687.366 10.8549C688.584 6.51171 692.092 3.43154 696.1 3.43154C701.08 3.43154 705.283 7.93833 705.283 13.8944C705.283 16.8234 704.253 18.8809 702.479 21.2057L686.557 39.4532L670.616 21.2057C668.845 18.8825 667.815 16.8067 667.815 13.8738C667.815 7.92953 672.001 3.5506 676.995 3.5506C681.016 3.5506 684.515 6.52747 685.73 10.8551Z" stroke="black" stroke-opacity="0.85" stroke-width="1.7" stroke-linejoin="round"/>
<g filter="url(#filter5_i_679_3514)">
<path d="M754.301 13.8944C754.301 7.5632 749.806 2.58154 744.268 2.58154C739.795 2.58154 736.012 6.00277 734.716 10.6254C733.419 6.00337 729.636 2.7006 725.163 2.7006C719.623 2.7006 715.133 7.54024 715.133 13.8738C715.133 17.0696 716.28 19.3275 718.125 21.7437L734.725 40.7457L751.306 21.7437C753.153 19.3275 754.301 17.0878 754.301 13.8944Z" fill="#FAB4F0"/>
</g>
<path d="M733.898 10.8551C734.001 11.222 734.335 11.4755 734.716 11.4754C735.097 11.4754 735.432 11.2218 735.534 10.8549C736.752 6.51171 740.26 3.43154 744.268 3.43154C749.248 3.43154 753.451 7.93833 753.451 13.8944C753.451 16.8234 752.421 18.8809 750.647 21.2057L734.725 39.4532L718.784 21.2057C717.013 18.8825 715.983 16.8067 715.983 13.8738C715.983 7.92953 720.169 3.5506 725.163 3.5506C729.184 3.5506 732.683 6.52747 733.898 10.8551Z" stroke="black" stroke-opacity="0.85" stroke-width="1.7" stroke-linejoin="round"/>
<path d="M781.139 15.3296H790.885V17.7716H781.139V15.3296ZM784.857 19.9496H788.531V22.3476H784.857V19.9496ZM784.615 11.9856H787.233V16.4296H784.615V11.9856ZM787.695 19.9496H790.181C790.181 19.9496 790.181 20.6756 790.159 20.9836C790.049 28.0676 789.939 30.7076 789.345 31.5216C788.927 32.1376 788.509 32.3576 787.871 32.4896C787.321 32.5776 786.419 32.5996 785.495 32.5776C785.451 31.8516 785.187 30.8396 784.813 30.1796C785.539 30.2236 786.155 30.2456 786.507 30.2456C786.793 30.2456 786.969 30.1796 787.145 29.9156C787.475 29.4096 787.585 27.1216 787.695 20.4556V19.9496ZM793.019 15.9896H801.665V18.4316H793.019V15.9896ZM793.239 11.9636L795.967 12.3596C795.241 16.7816 793.899 20.9616 791.919 23.5576C791.479 23.0956 790.335 22.1716 789.719 21.7756C791.567 19.5536 792.689 15.8356 793.239 11.9636ZM797.529 17.4636L800.125 17.7276C799.069 25.1636 796.715 29.9156 791.215 32.7096C790.973 32.1156 790.225 30.9276 789.741 30.3776C794.713 28.1556 796.759 23.9536 797.529 17.4636ZM794.317 17.9476C795.307 23.5796 797.463 28.2216 801.907 30.2456C801.313 30.7736 800.477 31.8296 800.103 32.5336C795.329 30.0256 793.217 24.9656 792.007 18.3436L794.317 17.9476ZM783.317 16.6276H785.803V22.0836C785.803 25.6696 785.341 29.4536 782.569 32.5336C782.107 31.9836 781.249 31.2576 780.611 30.8176C782.987 28.0676 783.317 24.8776 783.317 22.0616V16.6276ZM809.937 18.2776H812.687V28.7936C812.687 29.8716 812.863 30.0256 813.897 30.0256C814.359 30.0256 816.339 30.0256 816.911 30.0256C817.989 30.0256 818.165 29.2996 818.341 25.8456C818.935 26.3296 820.057 26.8136 820.805 26.9896C820.497 31.1256 819.771 32.4236 817.131 32.4236C816.537 32.4236 814.117 32.4236 813.545 32.4236C810.729 32.4236 809.937 31.5656 809.937 28.7936V18.2776ZM810.025 14.0976L811.741 12.0516C814.337 12.9756 817.373 14.6256 819.133 15.9016L817.373 18.2336C815.701 16.8256 812.621 15.1096 810.025 14.0976ZM805.977 19.8396L808.573 20.3676C808.243 23.4256 807.671 26.8136 806.219 28.9696L803.755 27.5616C805.053 25.6696 805.691 22.7876 805.977 19.8396ZM818.649 20.1916L821.069 18.9816C822.961 21.4016 824.545 24.6356 825.073 26.9456L822.389 28.2656C821.949 25.9996 820.409 22.6116 818.649 20.1916ZM836.447 13.0856H845.379V15.5276H836.447V13.0856ZM835.699 20.7416H847.843V23.2276H835.699V20.7416ZM840.341 18.1676H843.003V29.7176C843.003 31.0376 842.739 31.7416 841.881 32.1596C841.001 32.5556 839.791 32.6436 838.163 32.6216C838.031 31.8956 837.591 30.7516 837.239 30.0476C838.361 30.0916 839.505 30.1136 839.879 30.0916C840.231 30.0696 840.341 29.9816 840.341 29.6736V18.1676ZM844.433 13.0856H845.071L845.621 12.9536L847.337 14.2516C846.039 16.1656 844.169 18.4976 842.453 19.9496C842.101 19.4876 841.375 18.7616 840.957 18.4096C842.255 17.1556 843.773 14.9776 844.433 13.6576V13.0856ZM827.317 16.3636H834.423V18.8056H827.317V16.3636ZM830.265 11.9856L832.751 12.2496C831.915 16.9356 830.639 22.8316 829.605 26.7916L827.449 25.6476C828.395 22.1716 829.583 16.3636 830.265 11.9856ZM828.593 25.2736L830.045 23.4256C832.333 24.8556 835.237 26.9896 836.513 28.6396L834.929 30.7736C833.697 29.1016 830.903 26.7916 828.593 25.2736ZM833.521 16.3636H833.939L834.401 16.2976L835.963 16.5616C835.457 25.1416 833.323 30.0036 828.967 32.7096C828.615 32.0716 827.911 31.1256 827.383 30.6196C831.123 28.6616 833.081 23.7996 833.521 16.8476V16.3636ZM861.087 17.7936V19.0036H867.203V17.7936H861.087ZM861.087 14.8456V16.0336H867.203V14.8456H861.087ZM858.711 12.9756H869.689V20.8956H858.711V12.9756ZM860.361 20.3236L862.913 20.7416C861.791 23.3376 860.053 25.7576 857.127 27.6496C856.797 27.0556 856.005 26.1536 855.477 25.8016C858.029 24.3056 859.591 22.2376 860.361 20.3236ZM860.999 22.1276H868.809V24.2836H859.503L860.999 22.1276ZM867.907 22.1276H870.371C870.371 22.1276 870.371 22.7876 870.349 23.0956C870.151 28.8596 869.909 30.9716 869.337 31.7196C868.919 32.2696 868.435 32.4676 867.819 32.5556C867.247 32.6436 866.367 32.6436 865.377 32.6216C865.355 32.0276 865.091 31.1476 864.805 30.5756C865.531 30.6636 866.191 30.6856 866.543 30.6856C866.829 30.6856 867.005 30.6196 867.203 30.3776C867.555 29.9156 867.753 27.9796 867.907 22.5456V22.1276ZM858.601 24.6576H860.801V28.7276C860.801 29.2996 860.911 29.3876 861.637 29.3876C861.945 29.3876 863.375 29.3876 863.793 29.3876C864.343 29.3876 864.453 29.2116 864.519 28.0676C864.959 28.4196 865.883 28.7716 866.521 28.9036C866.235 30.9276 865.619 31.4556 864.035 31.4556C863.573 31.4556 861.769 31.4556 861.329 31.4556C859.085 31.4556 858.601 30.8176 858.601 28.7716V24.6576ZM864.101 24.9216L865.883 26.4396C864.299 27.2756 862.209 27.9356 860.405 28.3756C860.295 27.9576 859.965 27.2316 859.701 26.7916C861.307 26.3296 863.089 25.6036 864.101 24.9216ZM852.485 14.1856H857.259V26.7476H852.485V24.3276H855.037V16.5616H852.485V14.1856ZM851.011 14.1856H853.299V28.5736H851.011V14.1856ZM879.501 16.5836C881.635 23.3596 886.255 28.2876 894.065 30.1356C893.449 30.7296 892.613 31.9176 892.217 32.6656C883.967 30.4216 879.523 25.1856 876.861 17.3316L879.501 16.5836ZM874.705 13.8556H889.863V16.4736H874.705V13.8556ZM888.939 13.8556H889.445L889.907 13.7236L891.843 14.6256C889.313 24.5476 882.933 30.2236 875.013 32.7316C874.727 32.0276 873.869 30.7296 873.275 30.1796C880.953 27.9796 886.849 23.1616 888.939 14.4056V13.8556ZM901.633 20.5656V28.6616H899.103V23.0076H896.639V20.5656H901.633ZM901.633 27.6276C902.469 29.0796 904.031 29.7176 906.297 29.8056C908.937 29.9376 914.151 29.8716 917.209 29.6296C916.923 30.2236 916.505 31.4336 916.395 32.2036C913.645 32.3356 908.959 32.3796 906.275 32.2476C903.635 32.1376 901.853 31.4996 900.533 29.8056C899.653 30.6636 898.729 31.4996 897.629 32.4456L896.375 29.8276C897.299 29.2336 898.377 28.4416 899.345 27.6276H901.633ZM896.705 14.0316L898.729 12.5576C899.983 13.5256 901.523 14.9996 902.205 16.0336L900.027 17.7056C899.433 16.6276 897.959 15.1096 896.705 14.0316ZM903.195 19.3996H915.075V21.4016H905.483V29.0136H903.195V19.3996ZM908.453 15.9456H912.985V17.5956H910.301V20.1696H908.453V15.9456ZM904.845 12.6456H914.371V19.9496H911.995V14.5816H907.133V19.9496H904.845V12.6456ZM907.793 22.3036H912.413V27.1656H907.793V25.5156H910.499V23.9976H907.793V22.3036ZM913.601 19.3996H915.977V26.7696C915.977 27.8036 915.823 28.3756 915.141 28.7276C914.481 29.0576 913.579 29.0796 912.391 29.0796C912.303 28.4636 912.017 27.5836 911.753 27.0116C912.391 27.0336 913.095 27.0336 913.293 27.0336C913.513 27.0336 913.601 26.9676 913.601 26.7476V19.3996ZM906.605 22.3036H908.519V27.8476H906.605V22.3036ZM923.809 13.6576H940.089V15.6596H923.809V13.6576ZM929.595 11.9856H932.257V14.7796H929.595V11.9856ZM922.225 13.6576H924.491V20.7196C924.491 24.2616 924.029 29.3876 921.213 32.5116C920.861 32.0276 920.003 31.1476 919.541 30.8396C922.027 28.0236 922.225 23.8876 922.225 20.7196V13.6576ZM919.387 16.6276L921.037 15.8136C921.631 17.1116 922.181 18.8056 922.335 19.8616L920.553 20.8296C920.443 19.7296 919.937 17.9916 919.387 16.6276ZM919.255 23.9316C920.157 23.5136 921.411 22.8096 922.731 22.0616L923.369 23.9536C922.269 24.7236 921.125 25.4936 920.003 26.2196L919.255 23.9316ZM931.531 16.6496L933.269 17.1116C932.807 18.4096 932.015 19.8616 931.289 20.7636C930.937 20.4996 930.189 20.0596 929.749 19.8396C930.497 18.9816 931.135 17.7716 931.531 16.6496ZM930.607 25.1416H938.219V26.3516H930.607V25.1416ZM937.911 25.0976H940.221V26.3736H937.911V25.0976ZM931.619 19.6416H938.461V20.8516H931.619V19.6416ZM930.497 21.4456H939.627V22.6556H930.497V21.4456ZM934.017 20.2576H936.085V22.0396H934.017V20.2576ZM932.015 28.7276H933.885V30.3556C933.885 30.7956 933.951 30.8396 934.435 30.8396C934.655 30.8396 935.667 30.8396 935.931 30.8396C936.327 30.8396 936.415 30.7296 936.481 29.8496C936.833 30.0916 937.559 30.3336 938.065 30.4216C937.867 31.9396 937.383 32.3576 936.195 32.3576C935.821 32.3576 934.523 32.3576 934.193 32.3576C932.411 32.3576 932.015 31.8956 932.015 30.3556V28.7276ZM938.065 15.7916L939.407 17.0016C937.537 17.6836 934.721 18.0796 932.367 18.2336C932.323 17.8596 932.081 17.2876 931.883 16.9356C934.083 16.7156 936.657 16.3196 938.065 15.7916ZM931.003 23.2276H939.055V28.2436H931.003V26.9676H937.009V24.5036H931.003V23.2276ZM937.163 29.3876L938.637 28.7056C939.319 29.4756 940.045 30.5536 940.287 31.2796L938.725 32.0496C938.483 31.3016 937.823 30.2016 937.163 29.3876ZM933.929 18.3876L935.513 17.8816C935.777 18.3436 936.063 19.0036 936.151 19.4436L934.479 20.0376C934.413 19.5976 934.171 18.8936 933.929 18.3876ZM937.031 18.0576L938.461 17.2876C939.099 18.0576 939.847 19.1576 940.177 19.8616L938.681 20.7416C938.373 20.0156 937.669 18.8716 937.031 18.0576ZM933.335 28.3756L934.479 27.4736C935.249 27.9576 936.151 28.7276 936.613 29.2556L935.381 30.2676C934.941 29.6956 934.039 28.8596 933.335 28.3756ZM930.431 28.7496L931.949 29.3436C931.619 30.3776 931.113 31.4996 930.299 32.2256L928.869 31.2576C929.573 30.6636 930.123 29.6296 930.431 28.7496ZM925.327 16.5396H928.979V18.3656H927.219V32.6436H925.327V16.5396ZM928.495 16.5396H928.803L929.111 16.4736L930.563 17.1556C930.211 18.7396 929.749 20.8736 929.331 22.4356C930.189 23.8876 930.387 25.1636 930.387 26.2636C930.387 27.4296 930.167 28.2216 929.661 28.6396C929.375 28.8596 929.067 28.9696 928.693 29.0136C928.429 29.0796 928.033 29.0796 927.681 29.0576C927.659 28.5296 927.505 27.7376 927.197 27.2316C927.483 27.2756 927.659 27.2756 927.835 27.2536C927.989 27.2536 928.143 27.2096 928.231 27.0996C928.385 26.9456 928.473 26.5056 928.451 25.9996C928.451 25.1416 928.363 23.9536 927.571 22.6336C927.967 20.8736 928.341 18.3436 928.495 17.0676V16.5396Z" fill="black" fill-opacity="0.85"/>
<circle cx="19.7689" cy="19.7689" r="19.7689" transform="matrix(-0.996594 -0.08247 -0.08247 0.996594 993.967 3.59229)" fill="black" fill-opacity="0.85"/>
<g filter="url(#filter6_i_679_3514)">
<path fill-rule="evenodd" clip-rule="evenodd" d="M971.475 40.0549C961.317 39.424 953.594 30.678 954.225 20.5199C954.856 10.3619 963.602 2.6386 973.76 3.26942C983.918 3.90024 991.641 12.6463 991.01 22.8043C990.379 32.9624 981.633 40.6857 971.475 40.0549ZM978.511 26.8927C979.076 26.4733 979.875 26.5917 980.294 27.1573C980.714 27.7229 980.595 28.5215 980.03 28.9409C978.754 29.8873 976.56 30.9862 973.996 31.3092C971.395 31.637 968.382 31.1642 965.635 28.9008C965.092 28.453 965.015 27.6495 965.462 27.106C965.91 26.5626 966.714 26.4851 967.257 26.9329C969.37 28.6738 971.644 29.0353 973.678 28.7792C975.749 28.5182 977.537 27.6149 978.511 26.8927ZM965.675 13.2155C965.086 13.6023 964.923 14.3928 965.31 14.9812L967.155 17.7892L965.096 19.7594C964.587 20.2462 964.57 21.0533 965.057 21.5621C965.543 22.0708 966.35 22.0886 966.859 21.6018L969.219 19.3438C969.934 18.6599 970.058 17.5631 969.515 16.7364L967.441 13.5806C967.054 12.9922 966.263 12.8287 965.675 13.2155ZM975.984 14.5321C975.597 13.9436 975.76 13.1531 976.349 12.7663C976.937 12.3795 977.728 12.543 978.114 13.1315L980.189 16.2872C980.732 17.1139 980.608 18.2107 979.893 18.8946L977.533 21.1526C977.024 21.6395 976.217 21.6217 975.73 21.1129C975.244 20.6041 975.261 19.797 975.77 19.3102L977.829 17.34L975.984 14.5321Z" fill="#FFF55F"/>
</g>
<path d="M1003.8 15.3296H1013.55V17.7716H1003.8V15.3296ZM1007.52 19.9496H1011.19V22.3476H1007.52V19.9496ZM1007.28 11.9856H1009.9V16.4296H1007.28V11.9856ZM1010.36 19.9496H1012.84C1012.84 19.9496 1012.84 20.6756 1012.82 20.9836C1012.71 28.0676 1012.6 30.7076 1012.01 31.5216C1011.59 32.1376 1011.17 32.3576 1010.53 32.4896C1009.98 32.5776 1009.08 32.5996 1008.16 32.5776C1008.11 31.8516 1007.85 30.8396 1007.48 30.1796C1008.2 30.2236 1008.82 30.2456 1009.17 30.2456C1009.46 30.2456 1009.63 30.1796 1009.81 29.9156C1010.14 29.4096 1010.25 27.1216 1010.36 20.4556V19.9496ZM1015.68 15.9896H1024.33V18.4316H1015.68V15.9896ZM1015.9 11.9636L1018.63 12.3596C1017.9 16.7816 1016.56 20.9616 1014.58 23.5576C1014.14 23.0956 1013 22.1716 1012.38 21.7756C1014.23 19.5536 1015.35 15.8356 1015.9 11.9636ZM1020.19 17.4636L1022.79 17.7276C1021.73 25.1636 1019.38 29.9156 1013.88 32.7096C1013.64 32.1156 1012.89 30.9276 1012.4 30.3776C1017.38 28.1556 1019.42 23.9536 1020.19 17.4636ZM1016.98 17.9476C1017.97 23.5796 1020.13 28.2216 1024.57 30.2456C1023.98 30.7736 1023.14 31.8296 1022.77 32.5336C1017.99 30.0256 1015.88 24.9656 1014.67 18.3436L1016.98 17.9476ZM1005.98 16.6276H1008.47V22.0836C1008.47 25.6696 1008 29.4536 1005.23 32.5336C1004.77 31.9836 1003.91 31.2576 1003.27 30.8176C1005.65 28.0676 1005.98 24.8776 1005.98 22.0616V16.6276ZM1038.39 15.8356H1045.43V18.2116H1038.39V15.8356ZM1038.54 11.9636L1041.11 12.3376C1040.48 16.2096 1039.29 19.7516 1037.53 21.9736C1037.09 21.5776 1035.94 20.8076 1035.33 20.4996C1037.04 18.5636 1038.08 15.3516 1038.54 11.9636ZM1041.62 16.7816H1042.9V20.4336C1042.9 22.6116 1043.75 27.6496 1047.52 30.3336C1047.05 30.9276 1046.28 32.0276 1045.89 32.6876C1043.14 30.7296 1041.86 26.9456 1041.6 25.0096C1041.27 26.9016 1039.75 30.6416 1036.63 32.6656C1036.32 32.0716 1035.57 30.9716 1035.11 30.4656C1039.38 27.7376 1040.28 22.6996 1040.28 20.4336V16.7816H1041.62ZM1044.79 15.8356H1045.18L1045.6 15.7256L1047.36 16.1436C1047.03 18.3216 1046.42 20.6976 1045.76 22.2596L1043.67 21.5776C1044.15 20.2356 1044.59 17.9916 1044.79 16.2536V15.8356ZM1031.06 16.1876H1033.39V18.7176H1031.06V16.1876ZM1028.27 17.9036H1030.62V30.1576H1028.27V17.9036ZM1029.72 20.7636H1034.8V22.5236H1029.72V20.7636ZM1026.7 29.4316C1028.64 29.0136 1031.61 28.2216 1034.45 27.4296L1034.76 29.5416C1032.27 30.3556 1029.65 31.2136 1027.54 31.8736L1026.7 29.4316ZM1032.34 26.2636L1034.47 25.5156C1035.2 26.9456 1036.03 28.8376 1036.36 30.0256L1034.07 30.9496C1033.81 29.7396 1033.06 27.7376 1032.34 26.2636ZM1029.72 17.9036H1035.9V25.4276H1029.72V23.6236H1033.59V19.7296H1029.72V17.9036ZM1030.6 11.9856H1032.01V12.4696H1032.78V13.1736C1031.81 14.8676 1030.31 17.0896 1027.83 19.0036C1027.52 18.4536 1026.81 17.5516 1026.33 17.1776C1028.42 15.6816 1029.83 13.6796 1030.6 11.9856ZM1031.28 11.9856H1033.06C1034.36 13.1516 1036.01 14.8016 1036.89 15.9236L1035.09 17.6396C1034.36 16.5836 1032.84 14.7576 1031.7 13.7236H1031.28V11.9856Z" fill="black" fill-opacity="0.85"/>
<g filter="url(#filter7_i_679_3514)">
<path d="M1097.14 13.8944C1097.14 7.5632 1092.64 2.58154 1087.1 2.58154C1082.63 2.58154 1078.85 6.00277 1077.55 10.6254C1076.25 6.00337 1072.47 2.7006 1068 2.7006C1062.46 2.7006 1057.97 7.54024 1057.97 13.8738C1057.97 17.0696 1059.11 19.3275 1060.96 21.7437L1077.56 40.7457L1094.14 21.7437C1095.99 19.3275 1097.14 17.0878 1097.14 13.8944Z" fill="#FAB4F0"/>
</g>
<path d="M1076.73 10.8551C1076.83 11.222 1077.17 11.4755 1077.55 11.4754C1077.93 11.4754 1078.27 11.2218 1078.37 10.8549C1079.59 6.51171 1083.09 3.43154 1087.1 3.43154C1092.08 3.43154 1096.29 7.93833 1096.29 13.8944C1096.29 16.8234 1095.26 18.8809 1093.48 21.2057L1077.56 39.4532L1061.62 21.2057C1059.85 18.8825 1058.82 16.8067 1058.82 13.8738C1058.82 7.92953 1063 3.5506 1068 3.5506C1072.02 3.5506 1075.52 6.52747 1076.73 10.8551Z" stroke="black" stroke-opacity="0.85" stroke-width="1.7" stroke-linejoin="round"/>
<g filter="url(#filter8_i_679_3514)">
<path d="M1145.3 13.8944C1145.3 7.5632 1140.81 2.58154 1135.27 2.58154C1130.8 2.58154 1127.01 6.00277 1125.72 10.6254C1124.42 6.00337 1120.64 2.7006 1116.17 2.7006C1110.63 2.7006 1106.13 7.54024 1106.13 13.8738C1106.13 17.0696 1107.28 19.3275 1109.13 21.7437L1125.73 40.7457L1142.31 21.7437C1144.16 19.3275 1145.3 17.0878 1145.3 13.8944Z" fill="#FAB4F0"/>
</g>
<path d="M1124.9 10.8551C1125 11.222 1125.34 11.4755 1125.72 11.4754C1126.1 11.4754 1126.43 11.2218 1126.54 10.8549C1127.75 6.51171 1131.26 3.43154 1135.27 3.43154C1140.25 3.43154 1144.45 7.93833 1144.45 13.8944C1144.45 16.8234 1143.42 18.8809 1141.65 21.2057L1125.73 39.4532L1109.79 21.2057C1108.01 18.8825 1106.98 16.8067 1106.98 13.8738C1106.98 7.92953 1111.17 3.5506 1116.17 3.5506C1120.19 3.5506 1123.69 6.52747 1124.9 10.8551Z" stroke="black" stroke-opacity="0.85" stroke-width="1.7" stroke-linejoin="round"/>
<path d="M1172.14 15.3296H1181.88V17.7716H1172.14V15.3296ZM1175.86 19.9496H1179.53V22.3476H1175.86V19.9496ZM1175.61 11.9856H1178.23V16.4296H1175.61V11.9856ZM1178.69 19.9496H1181.18C1181.18 19.9496 1181.18 20.6756 1181.16 20.9836C1181.05 28.0676 1180.94 30.7076 1180.34 31.5216C1179.93 32.1376 1179.51 32.3576 1178.87 32.4896C1178.32 32.5776 1177.42 32.5996 1176.49 32.5776C1176.45 31.8516 1176.19 30.8396 1175.81 30.1796C1176.54 30.2236 1177.15 30.2456 1177.51 30.2456C1177.79 30.2456 1177.97 30.1796 1178.14 29.9156C1178.47 29.4096 1178.58 27.1216 1178.69 20.4556V19.9496ZM1184.02 15.9896H1192.66V18.4316H1184.02V15.9896ZM1184.24 11.9636L1186.97 12.3596C1186.24 16.7816 1184.9 20.9616 1182.92 23.5576C1182.48 23.0956 1181.33 22.1716 1180.72 21.7756C1182.57 19.5536 1183.69 15.8356 1184.24 11.9636ZM1188.53 17.4636L1191.12 17.7276C1190.07 25.1636 1187.71 29.9156 1182.21 32.7096C1181.97 32.1156 1181.22 30.9276 1180.74 30.3776C1185.71 28.1556 1187.76 23.9536 1188.53 17.4636ZM1185.32 17.9476C1186.31 23.5796 1188.46 28.2216 1192.91 30.2456C1192.31 30.7736 1191.48 31.8296 1191.1 32.5336C1186.33 30.0256 1184.22 24.9656 1183.01 18.3436L1185.32 17.9476ZM1174.32 16.6276H1176.8V22.0836C1176.8 25.6696 1176.34 29.4536 1173.57 32.5336C1173.11 31.9836 1172.25 31.2576 1171.61 30.8176C1173.99 28.0676 1174.32 24.8776 1174.32 22.0616V16.6276ZM1200.94 18.2776H1203.69V28.7936C1203.69 29.8716 1203.86 30.0256 1204.9 30.0256C1205.36 30.0256 1207.34 30.0256 1207.91 30.0256C1208.99 30.0256 1209.16 29.2996 1209.34 25.8456C1209.93 26.3296 1211.06 26.8136 1211.8 26.9896C1211.5 31.1256 1210.77 32.4236 1208.13 32.4236C1207.54 32.4236 1205.12 32.4236 1204.54 32.4236C1201.73 32.4236 1200.94 31.5656 1200.94 28.7936V18.2776ZM1201.02 14.0976L1202.74 12.0516C1205.34 12.9756 1208.37 14.6256 1210.13 15.9016L1208.37 18.2336C1206.7 16.8256 1203.62 15.1096 1201.02 14.0976ZM1196.98 19.8396L1199.57 20.3676C1199.24 23.4256 1198.67 26.8136 1197.22 28.9696L1194.75 27.5616C1196.05 25.6696 1196.69 22.7876 1196.98 19.8396ZM1209.65 20.1916L1212.07 18.9816C1213.96 21.4016 1215.54 24.6356 1216.07 26.9456L1213.39 28.2656C1212.95 25.9996 1211.41 22.6116 1209.65 20.1916ZM1227.45 13.0856H1236.38V15.5276H1227.45V13.0856ZM1226.7 20.7416H1238.84V23.2276H1226.7V20.7416ZM1231.34 18.1676H1234V29.7176C1234 31.0376 1233.74 31.7416 1232.88 32.1596C1232 32.5556 1230.79 32.6436 1229.16 32.6216C1229.03 31.8956 1228.59 30.7516 1228.24 30.0476C1229.36 30.0916 1230.5 30.1136 1230.88 30.0916C1231.23 30.0696 1231.34 29.9816 1231.34 29.6736V18.1676ZM1235.43 13.0856H1236.07L1236.62 12.9536L1238.34 14.2516C1237.04 16.1656 1235.17 18.4976 1233.45 19.9496C1233.1 19.4876 1232.37 18.7616 1231.96 18.4096C1233.25 17.1556 1234.77 14.9776 1235.43 13.6576V13.0856ZM1218.32 16.3636H1225.42V18.8056H1218.32V16.3636ZM1221.26 11.9856L1223.75 12.2496C1222.91 16.9356 1221.64 22.8316 1220.6 26.7916L1218.45 25.6476C1219.39 22.1716 1220.58 16.3636 1221.26 11.9856ZM1219.59 25.2736L1221.04 23.4256C1223.33 24.8556 1226.24 26.9896 1227.51 28.6396L1225.93 30.7736C1224.7 29.1016 1221.9 26.7916 1219.59 25.2736ZM1224.52 16.3636H1224.94L1225.4 16.2976L1226.96 16.5616C1226.46 25.1416 1224.32 30.0036 1219.97 32.7096C1219.61 32.0716 1218.91 31.1256 1218.38 30.6196C1222.12 28.6616 1224.08 23.7996 1224.52 16.8476V16.3636ZM1252.09 17.7936V19.0036H1258.2V17.7936H1252.09ZM1252.09 14.8456V16.0336H1258.2V14.8456H1252.09ZM1249.71 12.9756H1260.69V20.8956H1249.71V12.9756ZM1251.36 20.3236L1253.91 20.7416C1252.79 23.3376 1251.05 25.7576 1248.13 27.6496C1247.8 27.0556 1247 26.1536 1246.48 25.8016C1249.03 24.3056 1250.59 22.2376 1251.36 20.3236ZM1252 22.1276H1259.81V24.2836H1250.5L1252 22.1276ZM1258.91 22.1276H1261.37C1261.37 22.1276 1261.37 22.7876 1261.35 23.0956C1261.15 28.8596 1260.91 30.9716 1260.34 31.7196C1259.92 32.2696 1259.43 32.4676 1258.82 32.5556C1258.25 32.6436 1257.37 32.6436 1256.38 32.6216C1256.35 32.0276 1256.09 31.1476 1255.8 30.5756C1256.53 30.6636 1257.19 30.6856 1257.54 30.6856C1257.83 30.6856 1258 30.6196 1258.2 30.3776C1258.55 29.9156 1258.75 27.9796 1258.91 22.5456V22.1276ZM1249.6 24.6576H1251.8V28.7276C1251.8 29.2996 1251.91 29.3876 1252.64 29.3876C1252.94 29.3876 1254.37 29.3876 1254.79 29.3876C1255.34 29.3876 1255.45 29.2116 1255.52 28.0676C1255.96 28.4196 1256.88 28.7716 1257.52 28.9036C1257.23 30.9276 1256.62 31.4556 1255.03 31.4556C1254.57 31.4556 1252.77 31.4556 1252.33 31.4556C1250.08 31.4556 1249.6 30.8176 1249.6 28.7716V24.6576ZM1255.1 24.9216L1256.88 26.4396C1255.3 27.2756 1253.21 27.9356 1251.4 28.3756C1251.29 27.9576 1250.96 27.2316 1250.7 26.7916C1252.31 26.3296 1254.09 25.6036 1255.1 24.9216ZM1243.48 14.1856H1248.26V26.7476H1243.48V24.3276H1246.04V16.5616H1243.48V14.1856ZM1242.01 14.1856H1244.3V28.5736H1242.01V14.1856ZM1270.5 16.5836C1272.63 23.3596 1277.25 28.2876 1285.06 30.1356C1284.45 30.7296 1283.61 31.9176 1283.22 32.6656C1274.97 30.4216 1270.52 25.1856 1267.86 17.3316L1270.5 16.5836ZM1265.7 13.8556H1280.86V16.4736H1265.7V13.8556ZM1279.94 13.8556H1280.44L1280.91 13.7236L1282.84 14.6256C1280.31 24.5476 1273.93 30.2236 1266.01 32.7316C1265.73 32.0276 1264.87 30.7296 1264.27 30.1796C1271.95 27.9796 1277.85 23.1616 1279.94 14.4056V13.8556ZM1292.63 20.5656V28.6616H1290.1V23.0076H1287.64V20.5656H1292.63ZM1292.63 27.6276C1293.47 29.0796 1295.03 29.7176 1297.3 29.8056C1299.94 29.9376 1305.15 29.8716 1308.21 29.6296C1307.92 30.2236 1307.5 31.4336 1307.39 32.2036C1304.64 32.3356 1299.96 32.3796 1297.27 32.2476C1294.63 32.1376 1292.85 31.4996 1291.53 29.8056C1290.65 30.6636 1289.73 31.4996 1288.63 32.4456L1287.37 29.8276C1288.3 29.2336 1289.38 28.4416 1290.34 27.6276H1292.63ZM1287.7 14.0316L1289.73 12.5576C1290.98 13.5256 1292.52 14.9996 1293.2 16.0336L1291.03 17.7056C1290.43 16.6276 1288.96 15.1096 1287.7 14.0316ZM1294.19 19.3996H1306.07V21.4016H1296.48V29.0136H1294.19V19.3996ZM1299.45 15.9456H1303.98V17.5956H1301.3V20.1696H1299.45V15.9456ZM1295.84 12.6456H1305.37V19.9496H1302.99V14.5816H1298.13V19.9496H1295.84V12.6456ZM1298.79 22.3036H1303.41V27.1656H1298.79V25.5156H1301.5V23.9976H1298.79V22.3036ZM1304.6 19.3996H1306.98V26.7696C1306.98 27.8036 1306.82 28.3756 1306.14 28.7276C1305.48 29.0576 1304.58 29.0796 1303.39 29.0796C1303.3 28.4636 1303.02 27.5836 1302.75 27.0116C1303.39 27.0336 1304.09 27.0336 1304.29 27.0336C1304.51 27.0336 1304.6 26.9676 1304.6 26.7476V19.3996ZM1297.6 22.3036H1299.52V27.8476H1297.6V22.3036ZM1314.81 13.6576H1331.09V15.6596H1314.81V13.6576ZM1320.59 11.9856H1323.26V14.7796H1320.59V11.9856ZM1313.22 13.6576H1315.49V20.7196C1315.49 24.2616 1315.03 29.3876 1312.21 32.5116C1311.86 32.0276 1311 31.1476 1310.54 30.8396C1313.03 28.0236 1313.22 23.8876 1313.22 20.7196V13.6576ZM1310.39 16.6276L1312.04 15.8136C1312.63 17.1116 1313.18 18.8056 1313.33 19.8616L1311.55 20.8296C1311.44 19.7296 1310.94 17.9916 1310.39 16.6276ZM1310.25 23.9316C1311.16 23.5136 1312.41 22.8096 1313.73 22.0616L1314.37 23.9536C1313.27 24.7236 1312.12 25.4936 1311 26.2196L1310.25 23.9316ZM1322.53 16.6496L1324.27 17.1116C1323.81 18.4096 1323.01 19.8616 1322.29 20.7636C1321.94 20.4996 1321.19 20.0596 1320.75 19.8396C1321.5 18.9816 1322.13 17.7716 1322.53 16.6496ZM1321.61 25.1416H1329.22V26.3516H1321.61V25.1416ZM1328.91 25.0976H1331.22V26.3736H1328.91V25.0976ZM1322.62 19.6416H1329.46V20.8516H1322.62V19.6416ZM1321.5 21.4456H1330.63V22.6556H1321.5V21.4456ZM1325.02 20.2576H1327.08V22.0396H1325.02V20.2576ZM1323.01 28.7276H1324.88V30.3556C1324.88 30.7956 1324.95 30.8396 1325.43 30.8396C1325.65 30.8396 1326.67 30.8396 1326.93 30.8396C1327.33 30.8396 1327.41 30.7296 1327.48 29.8496C1327.83 30.0916 1328.56 30.3336 1329.06 30.4216C1328.87 31.9396 1328.38 32.3576 1327.19 32.3576C1326.82 32.3576 1325.52 32.3576 1325.19 32.3576C1323.41 32.3576 1323.01 31.8956 1323.01 30.3556V28.7276ZM1329.06 15.7916L1330.41 17.0016C1328.54 17.6836 1325.72 18.0796 1323.37 18.2336C1323.32 17.8596 1323.08 17.2876 1322.88 16.9356C1325.08 16.7156 1327.66 16.3196 1329.06 15.7916ZM1322 23.2276H1330.05V28.2436H1322V26.9676H1328.01V24.5036H1322V23.2276ZM1328.16 29.3876L1329.64 28.7056C1330.32 29.4756 1331.04 30.5536 1331.29 31.2796L1329.72 32.0496C1329.48 31.3016 1328.82 30.2016 1328.16 29.3876ZM1324.93 18.3876L1326.51 17.8816C1326.78 18.3436 1327.06 19.0036 1327.15 19.4436L1325.48 20.0376C1325.41 19.5976 1325.17 18.8936 1324.93 18.3876ZM1328.03 18.0576L1329.46 17.2876C1330.1 18.0576 1330.85 19.1576 1331.18 19.8616L1329.68 20.7416C1329.37 20.0156 1328.67 18.8716 1328.03 18.0576ZM1324.33 28.3756L1325.48 27.4736C1326.25 27.9576 1327.15 28.7276 1327.61 29.2556L1326.38 30.2676C1325.94 29.6956 1325.04 28.8596 1324.33 28.3756ZM1321.43 28.7496L1322.95 29.3436C1322.62 30.3776 1322.11 31.4996 1321.3 32.2256L1319.87 31.2576C1320.57 30.6636 1321.12 29.6296 1321.43 28.7496ZM1316.33 16.5396H1319.98V18.3656H1318.22V32.6436H1316.33V16.5396ZM1319.49 16.5396H1319.8L1320.11 16.4736L1321.56 17.1556C1321.21 18.7396 1320.75 20.8736 1320.33 22.4356C1321.19 23.8876 1321.39 25.1636 1321.39 26.2636C1321.39 27.4296 1321.17 28.2216 1320.66 28.6396C1320.37 28.8596 1320.07 28.9696 1319.69 29.0136C1319.43 29.0796 1319.03 29.0796 1318.68 29.0576C1318.66 28.5296 1318.5 27.7376 1318.2 27.2316C1318.48 27.2756 1318.66 27.2756 1318.83 27.2536C1318.99 27.2536 1319.14 27.2096 1319.23 27.0996C1319.38 26.9456 1319.47 26.5056 1319.45 25.9996C1319.45 25.1416 1319.36 23.9536 1318.57 22.6336C1318.97 20.8736 1319.34 18.3436 1319.49 17.0676V16.5396Z" fill="black" fill-opacity="0.85"/>
<circle cx="19.7689" cy="19.7689" r="19.7689" transform="matrix(-0.996594 -0.08247 -0.08247 0.996594 1384.97 3.59229)" fill="black" fill-opacity="0.85"/>
<g filter="url(#filter9_i_679_3514)">
<path fill-rule="evenodd" clip-rule="evenodd" d="M1362.48 40.0549C1352.32 39.424 1344.59 30.678 1345.22 20.5199C1345.86 10.3619 1354.6 2.6386 1364.76 3.26942C1374.92 3.90024 1382.64 12.6463 1382.01 22.8043C1381.38 32.9624 1372.63 40.6857 1362.48 40.0549ZM1369.51 26.8927C1370.08 26.4733 1370.87 26.5917 1371.29 27.1573C1371.71 27.7229 1371.6 28.5215 1371.03 28.9409C1369.75 29.8873 1367.56 30.9862 1365 31.3092C1362.39 31.637 1359.38 31.1642 1356.64 28.9008C1356.09 28.453 1356.01 27.6495 1356.46 27.106C1356.91 26.5626 1357.71 26.4851 1358.26 26.9329C1360.37 28.6738 1362.64 29.0353 1364.68 28.7792C1366.75 28.5182 1368.54 27.6149 1369.51 26.8927ZM1356.67 13.2155C1356.09 13.6023 1355.92 14.3928 1356.31 14.9812L1358.16 17.7892L1356.1 19.7594C1355.59 20.2462 1355.57 21.0533 1356.06 21.5621C1356.54 22.0708 1357.35 22.0886 1357.86 21.6018L1360.22 19.3438C1360.93 18.6599 1361.06 17.5631 1360.51 16.7364L1358.44 13.5806C1358.05 12.9922 1357.26 12.8287 1356.67 13.2155ZM1366.98 14.5321C1366.6 13.9436 1366.76 13.1531 1367.35 12.7663C1367.94 12.3795 1368.73 12.543 1369.11 13.1315L1371.19 16.2872C1371.73 17.1139 1371.61 18.2107 1370.89 18.8946L1368.53 21.1526C1368.02 21.6395 1367.22 21.6217 1366.73 21.1129C1366.24 20.6041 1366.26 19.797 1366.77 19.3102L1368.83 17.34L1366.98 14.5321Z" fill="#FFF55F"/>
</g>
<path d="M1394.8 15.3296H1404.55V17.7716H1394.8V15.3296ZM1398.52 19.9496H1402.19V22.3476H1398.52V19.9496ZM1398.28 11.9856H1400.9V16.4296H1398.28V11.9856ZM1401.36 19.9496H1403.84C1403.84 19.9496 1403.84 20.6756 1403.82 20.9836C1403.71 28.0676 1403.6 30.7076 1403.01 31.5216C1402.59 32.1376 1402.17 32.3576 1401.53 32.4896C1400.98 32.5776 1400.08 32.5996 1399.16 32.5776C1399.11 31.8516 1398.85 30.8396 1398.48 30.1796C1399.2 30.2236 1399.82 30.2456 1400.17 30.2456C1400.46 30.2456 1400.63 30.1796 1400.81 29.9156C1401.14 29.4096 1401.25 27.1216 1401.36 20.4556V19.9496ZM1406.68 15.9896H1415.33V18.4316H1406.68V15.9896ZM1406.9 11.9636L1409.63 12.3596C1408.9 16.7816 1407.56 20.9616 1405.58 23.5576C1405.14 23.0956 1404 22.1716 1403.38 21.7756C1405.23 19.5536 1406.35 15.8356 1406.9 11.9636ZM1411.19 17.4636L1413.79 17.7276C1412.73 25.1636 1410.38 29.9156 1404.88 32.7096C1404.64 32.1156 1403.89 30.9276 1403.4 30.3776C1408.38 28.1556 1410.42 23.9536 1411.19 17.4636ZM1407.98 17.9476C1408.97 23.5796 1411.13 28.2216 1415.57 30.2456C1414.98 30.7736 1414.14 31.8296 1413.77 32.5336C1408.99 30.0256 1406.88 24.9656 1405.67 18.3436L1407.98 17.9476ZM1396.98 16.6276H1399.47V22.0836C1399.47 25.6696 1399 29.4536 1396.23 32.5336C1395.77 31.9836 1394.91 31.2576 1394.27 30.8176C1396.65 28.0676 1396.98 24.8776 1396.98 22.0616V16.6276ZM1429.39 15.8356H1436.43V18.2116H1429.39V15.8356ZM1429.54 11.9636L1432.11 12.3376C1431.48 16.2096 1430.29 19.7516 1428.53 21.9736C1428.09 21.5776 1426.94 20.8076 1426.33 20.4996C1428.04 18.5636 1429.08 15.3516 1429.54 11.9636ZM1432.62 16.7816H1433.9V20.4336C1433.9 22.6116 1434.75 27.6496 1438.52 30.3336C1438.05 30.9276 1437.28 32.0276 1436.89 32.6876C1434.14 30.7296 1432.86 26.9456 1432.6 25.0096C1432.27 26.9016 1430.75 30.6416 1427.63 32.6656C1427.32 32.0716 1426.57 30.9716 1426.11 30.4656C1430.38 27.7376 1431.28 22.6996 1431.28 20.4336V16.7816H1432.62ZM1435.79 15.8356H1436.18L1436.6 15.7256L1438.36 16.1436C1438.03 18.3216 1437.42 20.6976 1436.76 22.2596L1434.67 21.5776C1435.15 20.2356 1435.59 17.9916 1435.79 16.2536V15.8356ZM1422.06 16.1876H1424.39V18.7176H1422.06V16.1876ZM1419.27 17.9036H1421.62V30.1576H1419.27V17.9036ZM1420.72 20.7636H1425.8V22.5236H1420.72V20.7636ZM1417.7 29.4316C1419.64 29.0136 1422.61 28.2216 1425.45 27.4296L1425.76 29.5416C1423.27 30.3556 1420.65 31.2136 1418.54 31.8736L1417.7 29.4316ZM1423.34 26.2636L1425.47 25.5156C1426.2 26.9456 1427.03 28.8376 1427.36 30.0256L1425.07 30.9496C1424.81 29.7396 1424.06 27.7376 1423.34 26.2636ZM1420.72 17.9036H1426.9V25.4276H1420.72V23.6236H1424.59V19.7296H1420.72V17.9036ZM1421.6 11.9856H1423.01V12.4696H1423.78V13.1736C1422.81 14.8676 1421.31 17.0896 1418.83 19.0036C1418.52 18.4536 1417.81 17.5516 1417.33 17.1776C1419.42 15.6816 1420.83 13.6796 1421.6 11.9856ZM1422.28 11.9856H1424.06C1425.36 13.1516 1427.01 14.8016 1427.89 15.9236L1426.09 17.6396C1425.36 16.5836 1423.84 14.7576 1422.7 13.7236H1422.28V11.9856Z" fill="black" fill-opacity="0.85"/>
</g>
<defs>
<filter id="filter0_i_679_3514" x="172.188" y="3.2334" width="40.2574" height="36.8574" filterUnits="userSpaceOnUse" color-interpolation-filters="sRGB">
<feFlood flood-opacity="0" result="BackgroundImageFix"/>
<feBlend mode="normal" in="SourceGraphic" in2="BackgroundImageFix" result="shape"/>
<feColorMatrix in="SourceAlpha" type="matrix" values="0 0 0 0 0 0 0 0 0 0 0 0 0 0 0 0 0 0 127 0" result="hardAlpha"/>
<feOffset dx="5.1"/>
<feGaussianBlur stdDeviation="1.7"/>
<feComposite in2="hardAlpha" operator="arithmetic" k2="-1" k3="1"/>
<feColorMatrix type="matrix" values="0 0 0 0 1 0 0 0 0 1 0 0 0 0 1 0 0 0 0.3 0"/>
<feBlend mode="normal" in2="shape" result="effect1_innerShadow_679_3514"/>
</filter>
<filter id="filter1_i_679_3514" x="275.965" y="2.58154" width="42.568" height="38.1641" filterUnits="userSpaceOnUse" color-interpolation-filters="sRGB">
<feFlood flood-opacity="0" result="BackgroundImageFix"/>
<feBlend mode="normal" in="SourceGraphic" in2="BackgroundImageFix" result="shape"/>
<feColorMatrix in="SourceAlpha" type="matrix" values="0 0 0 0 0 0 0 0 0 0 0 0 0 0 0 0 0 0 127 0" result="hardAlpha"/>
<feOffset dx="5.1"/>
<feGaussianBlur stdDeviation="1.7"/>
<feComposite in2="hardAlpha" operator="arithmetic" k2="-1" k3="1"/>
<feColorMatrix type="matrix" values="0 0 0 0 1 0 0 0 0 1 0 0 0 0 1 0 0 0 0.3 0"/>
<feBlend mode="normal" in2="shape" result="effect1_innerShadow_679_3514"/>
</filter>
<filter id="filter2_i_679_3514" x="324.133" y="2.58154" width="42.568" height="38.1641" filterUnits="userSpaceOnUse" color-interpolation-filters="sRGB">
<feFlood flood-opacity="0" result="BackgroundImageFix"/>
<feBlend mode="normal" in="SourceGraphic" in2="BackgroundImageFix" result="shape"/>
<feColorMatrix in="SourceAlpha" type="matrix" values="0 0 0 0 0 0 0 0 0 0 0 0 0 0 0 0 0 0 127 0" result="hardAlpha"/>
<feOffset dx="5.1"/>
<feGaussianBlur stdDeviation="1.7"/>
<feComposite in2="hardAlpha" operator="arithmetic" k2="-1" k3="1"/>
<feColorMatrix type="matrix" values="0 0 0 0 1 0 0 0 0 1 0 0 0 0 1 0 0 0 0.3 0"/>
<feBlend mode="normal" in2="shape" result="effect1_innerShadow_679_3514"/>
</filter>
<filter id="filter3_i_679_3514" x="563.188" y="3.2334" width="40.2574" height="36.8574" filterUnits="userSpaceOnUse" color-interpolation-filters="sRGB">
<feFlood flood-opacity="0" result="BackgroundImageFix"/>
<feBlend mode="normal" in="SourceGraphic" in2="BackgroundImageFix" result="shape"/>
<feColorMatrix in="SourceAlpha" type="matrix" values="0 0 0 0 0 0 0 0 0 0 0 0 0 0 0 0 0 0 127 0" result="hardAlpha"/>
<feOffset dx="5.1"/>
<feGaussianBlur stdDeviation="1.7"/>
<feComposite in2="hardAlpha" operator="arithmetic" k2="-1" k3="1"/>
<feColorMatrix type="matrix" values="0 0 0 0 1 0 0 0 0 1 0 0 0 0 1 0 0 0 0.3 0"/>
<feBlend mode="normal" in2="shape" result="effect1_innerShadow_679_3514"/>
</filter>
<filter id="filter4_i_679_3514" x="666.965" y="2.58154" width="42.568" height="38.1641" filterUnits="userSpaceOnUse" color-interpolation-filters="sRGB">
<feFlood flood-opacity="0" result="BackgroundImageFix"/>
<feBlend mode="normal" in="SourceGraphic" in2="BackgroundImageFix" result="shape"/>
<feColorMatrix in="SourceAlpha" type="matrix" values="0 0 0 0 0 0 0 0 0 0 0 0 0 0 0 0 0 0 127 0" result="hardAlpha"/>
<feOffset dx="5.1"/>
<feGaussianBlur stdDeviation="1.7"/>
<feComposite in2="hardAlpha" operator="arithmetic" k2="-1" k3="1"/>
<feColorMatrix type="matrix" values="0 0 0 0 1 0 0 0 0 1 0 0 0 0 1 0 0 0 0.3 0"/>
<feBlend mode="normal" in2="shape" result="effect1_innerShadow_679_3514"/>
</filter>
<filter id="filter5_i_679_3514" x="715.133" y="2.58154" width="42.568" height="38.1641" filterUnits="userSpaceOnUse" color-interpolation-filters="sRGB">
<feFlood flood-opacity="0" result="BackgroundImageFix"/>
<feBlend mode="normal" in="SourceGraphic" in2="BackgroundImageFix" result="shape"/>
<feColorMatrix in="SourceAlpha" type="matrix" values="0 0 0 0 0 0 0 0 0 0 0 0 0 0 0 0 0 0 127 0" result="hardAlpha"/>
<feOffset dx="5.1"/>
<feGaussianBlur stdDeviation="1.7"/>
<feComposite in2="hardAlpha" operator="arithmetic" k2="-1" k3="1"/>
<feColorMatrix type="matrix" values="0 0 0 0 1 0 0 0 0 1 0 0 0 0 1 0 0 0 0.3 0"/>
<feBlend mode="normal" in2="shape" result="effect1_innerShadow_679_3514"/>
</filter>
<filter id="filter6_i_679_3514" x="954.189" y="3.2334" width="40.2574" height="36.8574" filterUnits="userSpaceOnUse" color-interpolation-filters="sRGB">
<feFlood flood-opacity="0" result="BackgroundImageFix"/>
<feBlend mode="normal" in="SourceGraphic" in2="BackgroundImageFix" result="shape"/>
<feColorMatrix in="SourceAlpha" type="matrix" values="0 0 0 0 0 0 0 0 0 0 0 0 0 0 0 0 0 0 127 0" result="hardAlpha"/>
<feOffset dx="5.1"/>
<feGaussianBlur stdDeviation="1.7"/>
<feComposite in2="hardAlpha" operator="arithmetic" k2="-1" k3="1"/>
<feColorMatrix type="matrix" values="0 0 0 0 1 0 0 0 0 1 0 0 0 0 1 0 0 0 0.3 0"/>
<feBlend mode="normal" in2="shape" result="effect1_innerShadow_679_3514"/>
</filter>
<filter id="filter7_i_679_3514" x="1057.97" y="2.58154" width="42.568" height="38.1641" filterUnits="userSpaceOnUse" color-interpolation-filters="sRGB">
<feFlood flood-opacity="0" result="BackgroundImageFix"/>
<feBlend mode="normal" in="SourceGraphic" in2="BackgroundImageFix" result="shape"/>
<feColorMatrix in="SourceAlpha" type="matrix" values="0 0 0 0 0 0 0 0 0 0 0 0 0 0 0 0 0 0 127 0" result="hardAlpha"/>
<feOffset dx="5.1"/>
<feGaussianBlur stdDeviation="1.7"/>
<feComposite in2="hardAlpha" operator="arithmetic" k2="-1" k3="1"/>
<feColorMatrix type="matrix" values="0 0 0 0 1 0 0 0 0 1 0 0 0 0 1 0 0 0 0.3 0"/>
<feBlend mode="normal" in2="shape" result="effect1_innerShadow_679_3514"/>
</filter>
<filter id="filter8_i_679_3514" x="1106.13" y="2.58154" width="42.568" height="38.1641" filterUnits="userSpaceOnUse" color-interpolation-filters="sRGB">
<feFlood flood-opacity="0" result="BackgroundImageFix"/>
<feBlend mode="normal" in="SourceGraphic" in2="BackgroundImageFix" result="shape"/>
<feColorMatrix in="SourceAlpha" type="matrix" values="0 0 0 0 0 0 0 0 0 0 0 0 0 0 0 0 0 0 127 0" result="hardAlpha"/>
<feOffset dx="5.1"/>
<feGaussianBlur stdDeviation="1.7"/>
<feComposite in2="hardAlpha" operator="arithmetic" k2="-1" k3="1"/>
<feColorMatrix type="matrix" values="0 0 0 0 1 0 0 0 0 1 0 0 0 0 1 0 0 0 0.3 0"/>
<feBlend mode="normal" in2="shape" result="effect1_innerShadow_679_3514"/>
</filter>
<filter id="filter9_i_679_3514" x="1345.19" y="3.2334" width="40.2574" height="36.8574" filterUnits="userSpaceOnUse" color-interpolation-filters="sRGB">
<feFlood flood-opacity="0" result="BackgroundImageFix"/>
<feBlend mode="normal" in="SourceGraphic" in2="BackgroundImageFix" result="shape"/>
<feColorMatrix in="SourceAlpha" type="matrix" values="0 0 0 0 0 0 0 0 0 0 0 0 0 0 0 0 0 0 127 0" result="hardAlpha"/>
<feOffset dx="5.1"/>
<feGaussianBlur stdDeviation="1.7"/>
<feComposite in2="hardAlpha" operator="arithmetic" k2="-1" k3="1"/>
<feColorMatrix type="matrix" values="0 0 0 0 1 0 0 0 0 1 0 0 0 0 1 0 0 0 0.3 0"/>
<feBlend mode="normal" in2="shape" result="effect1_innerShadow_679_3514"/>
</filter>
<clipPath id="clip0_679_3514">
<rect width="1441" height="42.6638" fill="white" transform="translate(-1.69922 0.667969)"/>
</clipPath>
</defs>
</svg>
