<svg width="73" height="139" viewBox="0 0 73 139" fill="none" xmlns="http://www.w3.org/2000/svg">
<path d="M33.5142 44.629C34.9088 43.2344 37.1737 43.2344 38.5683 44.629L59.9897 66.0504C61.3843 67.445 61.3843 69.7099 59.9897 71.1045C58.5951 72.4991 56.3302 72.4991 54.9356 71.1045L36.0356 52.2046L17.1357 71.0933C15.7411 72.4879 13.4762 72.4879 12.0816 71.0933C10.687 69.6987 10.687 67.4338 12.0816 66.0392L33.503 44.6178L33.5142 44.629Z" fill="#5082FF"/>
<path d="M33.5142 67.6329C34.9088 66.2383 37.1737 66.2383 38.5683 67.6329L59.9897 89.0543C61.3843 90.4489 61.3843 92.7138 59.9897 94.1084C58.5951 95.503 56.3302 95.503 54.9356 94.1084L36.0356 75.2085L17.1357 94.0972C15.7411 95.4919 13.4762 95.4919 12.0816 94.0972C10.687 92.7026 10.687 90.4377 12.0816 89.0431L33.503 67.6217L33.5142 67.6329Z" fill="#5082FF"/>
<path d="M6.81575 30.1836V13.5036H0.395752V9.03361H18.7857V13.5036H12.3657V30.1836H6.81575ZM19.3161 19.5936C19.3161 17.3936 19.7461 15.4836 20.6061 13.8636C21.4661 12.2236 22.6961 10.9536 24.2961 10.0536C25.8961 9.15361 27.7861 8.70361 29.9661 8.70361C32.1661 8.70361 34.0661 9.15361 35.6661 10.0536C37.2661 10.9536 38.4961 12.2236 39.3561 13.8636C40.2361 15.4836 40.6761 17.3936 40.6761 19.5936C40.6761 21.7736 40.2361 23.6836 39.3561 25.3236C38.4961 26.9636 37.2661 28.2436 35.6661 29.1636C34.0661 30.0636 32.1661 30.5136 29.9661 30.5136C27.7861 30.5136 25.8961 30.0636 24.2961 29.1636C22.7161 28.2436 21.4861 26.9636 20.6061 25.3236C19.7461 23.6836 19.3161 21.7736 19.3161 19.5936ZM25.1061 19.5936C25.1061 21.5736 25.5061 23.1236 26.3061 24.2436C27.1061 25.3436 28.3261 25.8936 29.9661 25.8936C31.6061 25.8936 32.8361 25.3436 33.6561 24.2436C34.4761 23.1236 34.8861 21.5736 34.8861 19.5936C34.8861 17.6136 34.4761 16.0736 33.6561 14.9736C32.8361 13.8736 31.6061 13.3236 29.9661 13.3236C28.3261 13.3236 27.1061 13.8736 26.3061 14.9736C25.5061 16.0536 25.1061 17.5936 25.1061 19.5936ZM43.9975 30.1836V9.03361H54.3775C56.8175 9.03361 58.6575 9.63361 59.8975 10.8336C61.1375 12.0136 61.7575 13.6236 61.7575 15.6636C61.7575 17.6836 61.1375 19.2936 59.8975 20.4936C58.6575 21.6936 56.8175 22.2936 54.3775 22.2936H49.5475V30.1836H43.9975ZM49.5475 18.0336H53.6575C54.5975 18.0336 55.2975 17.8336 55.7575 17.4336C56.2175 17.0136 56.4475 16.4236 56.4475 15.6636C56.4475 14.9036 56.2175 14.3136 55.7575 13.8936C55.2975 13.4736 54.5975 13.2636 53.6575 13.2636H49.5475V18.0336ZM65.484 23.0436L63.834 9.03361H70.374L68.694 23.0436H65.484ZM64.314 30.1836V24.7236H69.864V30.1836H64.314Z" fill="#5082FF"/>
<path d="M36.0356 72.3901V135" stroke="#5082FF" stroke-width="7" stroke-linecap="round"/>
</svg>
