<svg width="163" height="53" viewBox="0 0 163 53" fill="none" xmlns="http://www.w3.org/2000/svg">
<path d="M104.076 9.19368V14.4504H87.9386V16.8547H82.5596V4.01843H87.9386V9.19368H104.076Z" fill="black"/>
<path d="M6.84641 5.89305L6.80566 5.85229H6.84641V5.89305Z" fill="#231815"/>
<path d="M70.6195 31.2395C70.6195 31.2395 70.538 30.995 70.4973 30.8727C70.212 29.9762 69.9675 29.1205 69.9268 28.224C70.0898 29.2427 70.3343 30.2615 70.6195 31.2395Z" fill="black"/>
<path d="M37.2865 9.19368V4.01843H31.9482V16.8547H37.2865V14.4504H53.4235V9.19368H37.2865Z" fill="black"/>
<path d="M113.122 22.0301H123.187V24.1899H117.116V25.7384H122.332V27.8166H117.116V31.0766H113.122V21.9894V22.0301Z" fill="black"/>
<path d="M133.374 30.3024C132.519 30.9544 131.296 31.2804 129.707 31.2804C128.118 31.2804 126.895 30.9544 126.039 30.3024C125.184 29.6504 124.735 28.7132 124.735 27.4499V22.0302H127.955V27.4091C127.955 27.9389 128.118 28.3057 128.403 28.6317C128.688 28.9169 129.136 29.0799 129.707 29.0799C130.277 29.0799 130.726 28.9169 131.011 28.6317C131.296 28.3057 131.459 27.9389 131.459 27.4091V22.0302H134.678V27.4499C134.678 28.6724 134.23 29.6504 133.374 30.3024Z" fill="black"/>
<path d="M143.399 31.1174L139.202 26.7164V31.1174H136.268V22.0302H139.079L143.277 26.5127V22.0302H146.211V31.1174H143.399Z" fill="black"/>
<path d="M113.122 34.8257H118.338V45.8282H126.692V49.6179H113.122V34.8257Z" fill="black"/>
<path d="M139.855 49.6586L139.162 47.5803H133.457L132.764 49.6586H127.426L133.375 34.8663H139.447L145.397 49.6586H139.855ZM134.557 44.2388H138.062L136.35 38.9821L134.516 44.2388H134.557Z" fill="black"/>
<path d="M159.251 35.3147C159.943 35.6407 160.473 36.0482 160.881 36.6187C161.288 37.1892 161.492 37.8004 161.492 38.4932C161.492 40.3269 160.595 41.4679 158.762 41.9162V41.9977C160.84 42.4459 161.859 43.6684 161.859 45.7059C161.859 46.4802 161.655 47.1729 161.247 47.7434C160.84 48.3547 160.269 48.8029 159.536 49.1289C158.802 49.4549 158.028 49.6179 157.132 49.6179H146.17V34.8257H157.009C157.824 34.8257 158.599 34.9887 159.251 35.2739V35.3147ZM151.386 40.6122H154.972C155.339 40.6122 155.624 40.4899 155.828 40.2862C156.072 40.0824 156.154 39.7972 156.154 39.4712V39.2674C156.154 38.9414 156.031 38.6969 155.787 38.4524C155.542 38.2487 155.257 38.1264 154.931 38.1264H151.345V40.6529L151.386 40.6122ZM151.386 46.1949H155.339C155.665 46.1949 155.991 46.0727 156.194 45.8689C156.439 45.6652 156.52 45.3799 156.52 45.0539V44.8502C156.52 44.5242 156.398 44.2389 156.194 44.0352C155.95 43.8314 155.665 43.7092 155.339 43.7092H151.386V46.2357V46.1949Z" fill="black"/>
<path d="M13.5291 18.4441V25.6976H23.0646C23.1869 25.2086 23.2276 24.6788 23.2276 24.1491C23.2276 23.7416 23.2276 23.3748 23.1461 22.9673H23.8389C23.8796 23.3341 23.9204 23.7416 23.9204 24.1491C23.9204 25.3308 23.6351 26.4718 23.1461 27.4906C22.4534 29.3243 21.3939 31.1581 20.1306 32.4213C17.5634 35.1923 13.7736 36.9446 9.57636 36.9446C9.37261 36.9446 9.20961 36.9446 9.00586 36.9446V49.0066C10.1469 49.3733 11.3286 49.6178 12.5511 49.6993H14.3034C14.3034 49.6993 14.3849 49.6993 14.4256 49.6993C15.1184 49.6993 15.8519 49.6178 16.5446 49.4548C18.4191 49.0066 20.0084 48.2731 21.3939 47.2951C22.9831 46.1541 24.2871 44.7686 25.3874 43.2201C29.7884 36.7408 30.0329 27.2053 30.0329 25.7791V18.5256H13.4884L13.5291 18.4441Z" fill="black"/>
<path d="M14.9554 6.30064V3.93713H9.57635V7.07489C9.5356 7.68614 9.33185 8.66414 8.67985 9.80514C9.2911 9.56064 9.9431 9.35689 10.5951 9.27539L11.1249 9.92739C9.98385 10.0089 8.8836 10.3756 7.86485 10.9869C7.86485 11.0276 7.78335 11.0684 7.7426 11.1499C7.04985 11.8019 6.39785 12.5354 5.74585 13.3504C2.7711 17.1401 1.67085 21.0114 3.2601 22.0301C4.8901 23.0081 8.59835 20.7669 11.5731 16.9364C11.6954 16.7734 11.8584 16.5696 11.9806 16.4066C12.5104 15.7546 12.9994 15.0619 13.4476 14.4506H29.9514V6.30064H14.8331H14.9554ZM6.88685 17.9551C6.0311 19.2999 4.9716 20.1556 4.52335 19.9111C4.03435 19.6666 4.36035 18.3626 5.17535 17.0586C6.0311 15.7139 7.0906 14.8581 7.53885 15.1026C8.02785 15.3471 7.70185 16.6511 6.88685 17.9551Z" fill="black"/>
<path d="M61.2882 26.0643H64.2629L64.3852 25.7791L65.9744 22.6821L66.1782 22.3153L67.9712 18.8923L68.2564 18.3626L71.6794 11.8426L72.4129 10.2533L77.6697 15.4286L81.0927 12.4946L73.8392 5.24107C73.7577 5.81157 73.6354 6.34132 73.4724 6.87107L72.6167 7.03406C72.9427 6.30056 73.1464 5.48556 73.1872 4.62981C73.1872 4.62981 73.1872 4.54832 73.1872 4.50757V4.46682C72.9427 3.40732 71.9647 0.188063 68.5824 2.26631C67.1969 3.12206 66.1782 4.58906 65.4447 6.01531L62.3884 11.8833L55.0127 25.9828H61.3289L61.2882 26.0643ZM67.0747 6.01531C67.8082 4.71131 68.7454 3.89632 69.1937 4.14082C69.6012 4.38532 69.3567 5.60782 68.6232 6.91182C67.8897 8.21582 66.9524 9.03081 66.5042 8.78631C66.0559 8.54181 66.3412 7.31931 67.0747 6.01531Z" fill="black"/>
<path d="M107.784 41.427C107.621 40.5713 107.417 39.7563 107.132 38.982C105.542 35.4368 102.486 32.5435 98.6149 30.9543C98.6149 30.5468 98.6149 30.0986 98.6149 29.6911V18.3625H91.0761V22.6413C91.0761 28.3055 89.8536 35.1923 85.1266 37.9633C84.2301 38.4523 81.6221 39.6341 78.4436 39.1858C74.2056 38.3708 71.8421 35.1515 70.6604 31.321C70.6196 31.1988 70.5789 31.0765 70.5381 30.9543C70.3751 30.506 70.2529 30.0578 70.1714 29.6095C70.1306 29.4058 70.0899 29.1613 70.0491 28.9576C70.0491 28.7538 70.0084 28.5093 69.9676 28.3056C69.8454 27.4906 69.7639 26.6755 69.6824 25.8605H78.4844V28.3056H70.6196C70.6196 28.5908 70.7011 28.9168 70.7419 29.202C70.8234 29.6095 70.9456 30.017 71.0679 30.4245C71.0679 30.5468 71.1494 30.6283 71.1494 30.7506C71.1494 30.8728 71.2309 30.9543 71.2716 31.0766C71.2716 31.1988 71.3531 31.2803 71.3939 31.4026H80.0736V18.4848H69.0304L68.7451 19.0145L66.7484 22.8043L65.1184 25.9013L64.9554 26.1865L64.5886 26.92H61.9806V30.3838C61.9806 32.6251 62.1436 34.9478 62.5511 37.2298C62.7549 37.515 62.9994 37.7595 63.2846 38.004C63.3661 38.0855 63.4476 38.1671 63.5291 38.2078C63.6106 38.2893 63.6921 38.33 63.7736 38.4115C64.7516 39.145 65.9334 39.5933 67.0744 39.7563L66.5039 40.4083C65.1591 40.123 63.8959 39.5118 62.7956 38.5338C62.7956 38.5338 62.5919 38.3301 62.4696 38.2078C59.4949 37.8818 56.3164 36.7 53.4231 34.7033C51.4671 33.3178 49.7964 31.7285 48.5331 29.9763C48.5331 29.9763 48.5331 29.8948 48.5331 29.854V18.5256H40.9944V22.8043C40.9944 22.8043 40.9944 22.9673 40.9944 23.0488C39.9756 22.2745 38.8346 21.5003 37.4899 20.6853L34.2299 28.1018C34.2299 28.1018 36.2266 28.6723 39.1199 31.6878C39.9756 32.3806 40.6684 33.277 41.1574 34.2143L40.7091 34.9478C40.3831 34.1735 39.9349 33.44 39.3236 32.8288C38.0196 36.0073 35.8191 38.493 32.1924 39.1858L32.5591 49.6993C40.6276 50.6365 44.7841 46.5615 46.8216 41.101C46.9031 40.6528 46.9846 40.1638 46.9846 39.6748C46.9846 39.2673 46.9846 38.8598 46.9031 38.493H47.5959C47.6366 38.8598 47.6774 39.2673 47.6774 39.6748C47.6774 40.286 47.5959 40.8565 47.4736 41.3863C51.8746 45.2575 60.0246 50.0253 73.8796 50.5143C75.7541 50.6773 81.7444 51.0848 87.8569 49.5363C87.4494 49.4956 87.0826 49.414 86.7159 49.2918C86.1454 49.1288 85.6156 48.9658 85.1266 48.762C84.6376 48.5583 84.1486 48.273 83.7004 47.9878L83.7819 47.132C83.7819 47.132 84.0671 47.3358 84.2301 47.458C84.5561 47.6618 84.8821 47.8248 85.2081 48.0286C85.3711 48.1101 85.5749 48.1915 85.7379 48.273C86.4714 48.5583 87.2456 48.762 88.0606 48.8843C88.1829 48.8843 88.3051 48.8843 88.4274 48.925C88.6719 48.925 88.8756 48.925 89.1201 48.9658C89.3646 48.9658 89.5684 48.9658 89.8129 48.9658C93.4804 47.5395 95.7216 44.524 97.0256 40.8566C96.9034 40.286 96.6996 39.7563 96.4551 39.1858C96.3736 39.0228 96.2514 38.819 96.1699 38.656C96.0476 38.493 95.9661 38.33 95.8439 38.1671L96.4551 37.8411C96.6996 38.1671 96.9034 38.4931 97.0664 38.8598C97.1479 38.982 97.1886 39.1043 97.2294 39.2673C97.2701 39.4303 97.3516 39.5118 97.3924 39.6748C97.3924 39.6748 97.3924 39.6748 97.3924 39.7155C97.7999 40.8565 98.0444 42.079 98.1666 43.3423C98.2074 43.7905 98.2074 44.1981 98.2074 44.6463C98.2074 46.4393 97.8814 48.1916 97.2701 49.8216H107.132C107.702 48.2323 108.028 46.5615 108.069 44.8093C108.069 43.709 107.947 42.6495 107.743 41.6308L107.784 41.427Z" fill="black"/>
</svg>
