<svg width="161" height="49" viewBox="0 0 161 49" fill="none" xmlns="http://www.w3.org/2000/svg">
<g clip-path="url(#clip0_1778_1260)">
<path d="M6.55178 41.34C8.04992 43.0379 9.88827 44.5766 12.1448 45.797C12.1573 45.8032 12.1729 45.8126 12.1854 45.8188C14.1392 46.8707 16.4021 47.6884 19.0301 48.1722C20.0007 48.3501 20.9964 48.4375 21.9951 48.4468C22.0607 48.4468 22.1262 48.4468 22.1887 48.4468H24.6575C26.3803 48.3626 28.047 48.1035 29.6263 47.6946V34.5828C29.3641 34.589 29.0926 34.5952 28.8273 34.5952C22.9065 34.5952 17.5943 32.6914 13.9676 29.6763C11.5175 27.7912 9.71348 25.4503 8.8302 22.8411H0.00051966C0.00051966 22.8411 -0.186748 33.7026 6.54866 41.3369L6.55178 41.34Z" fill="black"/>
<path d="M32.1161 4.95691H15.1621L20.7645 46.4961C20.8301 46.9736 21.2827 47.3325 21.8195 47.3325H43.3553L49.0701 4.95691H32.1161Z" fill="white" stroke="black" stroke-width="2.33773" stroke-miterlimit="10"/>
<path d="M23.0684 34.1146C23.0684 34.1146 33.4336 37.0454 41.2084 18.6432C41.5829 17.7536 43.3339 18.4091 43.1934 19.2643L39.1453 44.8981C39.1453 44.8981 30.3437 45.4631 24.2513 44.8981" fill="black"/>
<path d="M9.72244 30.2664H23.7363V25.0385H9.72244V30.2664Z" fill="black"/>
<path d="M3.48631 11.3584L3.48006 11.3959C-0.0187248 15.9496 2.10075e-06 22.8473 2.10075e-06 22.8473L9.15116 23.6931C8.83281 22.8379 8.66115 21.9734 8.54566 21.1151C8.28349 19.9602 8.33967 18.8085 8.70484 17.738L9.64118 17.5258C9.28225 18.3404 9.13556 19.2237 9.19174 20.1194L26.4953 22.479L28.0153 14.7043L3.48631 11.3584Z" fill="black"/>
<path d="M16.1465 6.03699C16.1465 6.03699 23.272 8.17496 32.1142 8.17496C40.9564 8.17496 48.2068 6.03699 48.2068 6.03699H16.1465Z" fill="black"/>
<path d="M13.7617 3.84904C13.7617 3.84904 21.9172 0.612427 32.0391 0.612427C42.1609 0.612427 50.46 3.84904 50.46 3.84904H13.7617Z" fill="black"/>
<path d="M156.552 7.89709V13.0345H140.753V15.3722H135.494V2.80652H140.753V7.89709H156.552Z" fill="black"/>
<path d="M61.3679 4.66157L61.3359 4.61682H61.3583C61.3583 4.61682 61.3647 4.64559 61.3679 4.66157Z" fill="#231815"/>
<path d="M123.772 29.4767C123.725 29.355 123.684 29.2333 123.644 29.1085C123.36 28.2345 123.141 27.3762 123.098 26.5304C123.26 27.5354 123.482 28.5279 123.772 29.4767Z" fill="black"/>
<path d="M91.172 7.89709V2.80652H85.916V15.3722H91.172V13.0345H106.974V7.89709H91.172Z" fill="black"/>
<path d="M67.8867 16.9233V24.0083H77.2314C77.3469 23.5214 77.4093 23.0158 77.4093 22.4946C77.4093 22.1075 77.375 21.7236 77.3094 21.3522H77.9992C78.0585 21.7236 78.0866 22.1044 78.0866 22.4946C78.0866 23.6712 77.8088 24.7824 77.3157 25.7718C76.6259 27.5664 75.6209 29.3673 74.3693 30.6095C71.8443 33.3187 68.152 35.0322 64.0321 35.0322C63.848 35.0322 63.6607 35.029 63.4766 35.0228V46.8113C64.5752 47.1796 65.7331 47.4106 66.9317 47.4855H68.6514C68.6951 47.4855 68.7419 47.4855 68.7856 47.4855C69.4816 47.4761 70.1714 47.3981 70.8487 47.2389C72.6777 46.8051 74.2507 46.0685 75.6084 45.1228C75.6178 45.1165 75.6271 45.1103 75.6365 45.104C77.2064 44.0054 78.4861 42.6227 79.5285 41.0965C83.8576 34.7544 84.076 25.4003 84.0854 24.0083V16.9233H67.8867Z" fill="black"/>
<path d="M69.289 5.06634V2.76294H64.0299V5.83725C63.9831 6.42403 63.7958 7.37597 63.1685 8.5027C63.774 8.24989 64.4013 8.07511 65.0412 7.98459L65.5717 8.64003C64.4669 8.71182 63.3714 9.05826 62.3882 9.68249C62.3507 9.72931 62.3164 9.77612 62.279 9.82294C61.6142 10.4628 60.9556 11.19 60.3314 11.9828C57.4131 15.6969 56.3301 19.4922 57.9156 20.4598C59.5011 21.4273 63.1529 19.2019 66.0711 15.4909C66.2116 15.313 66.3427 15.1382 66.4738 14.9603C66.995 14.3143 67.4819 13.6588 67.922 13.0346H84.0832V5.06634H69.289ZM61.3707 16.4803C60.5498 17.785 59.5074 18.6433 59.0423 18.3967C58.5773 18.1501 58.8644 16.8892 59.6822 15.5846C60.503 14.2799 61.5455 13.4216 62.0105 13.6682C62.4756 13.9147 62.1884 15.1757 61.3707 16.4803Z" fill="black"/>
<path d="M114.67 24.3893H117.563L117.701 24.1209L119.268 21.0965L119.452 20.7376L121.2 17.3699L121.459 16.8674L124.82 10.5003L125.557 8.94284L130.706 13.996L134.049 11.1432L126.955 4.05202C126.889 4.60134 126.771 5.13818 126.593 5.65316L125.769 5.82483C126.084 5.09448 126.271 4.30171 126.315 3.4871C126.309 3.45277 126.303 3.41531 126.29 3.3685L126.259 3.3248H126.281C126.056 2.29483 125.067 -0.882487 121.786 1.16498C120.413 2.02017 119.449 3.44652 118.715 4.85415C118.709 4.86664 115.713 10.6002 115.713 10.6002L108.506 24.3893H114.67ZM120.335 4.77301C121.062 3.51207 121.986 2.68497 122.401 2.92217C122.813 3.15938 122.56 4.37662 121.833 5.63444C121.106 6.89538 120.182 7.72248 119.767 7.48527C119.352 7.24806 119.608 6.03082 120.335 4.77301Z" fill="black"/>
<path d="M160.158 39.4456C160.001 38.6247 159.789 37.8288 159.527 37.0642C157.988 33.5747 154.983 30.7563 151.19 29.2208C151.203 28.8025 151.209 28.3905 151.209 27.9785V16.8704H143.818V21.0465C143.818 26.5896 142.614 33.3126 137.982 36.0373C137.976 36.0373 137.969 36.0435 137.963 36.0467C137.077 36.5148 134.53 37.6665 131.412 37.2265C127.248 36.4181 124.954 33.2969 123.787 29.5235C123.787 29.5173 123.781 29.511 123.781 29.5048C123.781 29.4985 123.774 29.4892 123.771 29.4798C123.725 29.3581 123.684 29.2364 123.643 29.1115C123.5 28.6746 123.375 28.2407 123.278 27.81C123.231 27.5946 123.191 27.3824 123.16 27.167C123.128 26.9548 123.107 26.7426 123.097 26.5303V26.5272C123.097 26.5179 123.094 26.5085 123.091 26.4991C122.966 25.7126 122.876 24.9167 122.816 24.1239H131.443V26.4991H123.74C123.759 26.7925 123.803 27.0859 123.865 27.3824C123.946 27.7788 124.062 28.1814 124.19 28.5903C124.221 28.6933 124.255 28.7963 124.289 28.8993C124.324 29.0054 124.361 29.1084 124.399 29.2145C124.439 29.3175 124.48 29.4205 124.524 29.5204H133.038V16.8704H122.226L121.958 17.3729L119.989 21.0996L118.394 24.1239L118.253 24.3924L117.882 25.0915H115.329V28.4842C115.329 30.669 115.478 32.9692 115.875 35.1977C116.09 35.4661 116.327 35.7189 116.586 35.9562C116.665 36.0279 116.746 36.0997 116.827 36.1653C116.908 36.2339 116.992 36.2995 117.076 36.3619C118.05 37.0985 119.174 37.5354 120.322 37.679L119.758 38.3001C118.447 38.0317 117.189 37.42 116.131 36.4524C116.022 36.3525 115.915 36.2495 115.816 36.1434C112.913 35.8219 109.807 34.6796 106.952 32.6977C105.016 31.3556 103.403 29.7763 102.151 28.0847C102.151 28.0472 102.151 28.0129 102.151 27.9754V16.8673H94.7604V21.0434C94.7604 21.1214 94.7604 21.1994 94.7604 21.2775C93.7679 20.5315 92.6318 19.7606 91.3272 18.9803L88.1405 26.2276C88.1405 26.2276 90.113 26.7707 92.9314 29.7451C93.7741 30.438 94.4389 31.2838 94.9071 32.217L94.4545 32.9255C94.1455 32.1671 93.693 31.4617 93.1187 30.8469C91.839 33.943 89.673 36.39 86.1367 37.0735L86.5081 47.3545C94.3952 48.2659 98.4902 44.2958 100.478 38.9368C100.575 38.4843 100.628 38.0161 100.628 37.5323C100.628 37.1359 100.594 36.7458 100.528 36.3681H101.218C101.277 36.7458 101.305 37.1359 101.305 37.5323C101.305 38.1129 101.237 38.6747 101.115 39.2177C105.407 43.0037 113.403 47.6854 126.964 48.1629H126.974C128.803 48.3314 134.686 48.7091 140.675 47.2141C140.666 47.2141 140.657 47.2141 140.647 47.211C140.267 47.1548 139.895 47.0799 139.533 46.9862C138.99 46.8458 138.466 46.6679 137.969 46.4525C137.473 46.2372 137.002 45.9875 136.562 45.7097L136.649 44.8732C136.793 44.9793 136.943 45.0823 137.095 45.1822C137.401 45.3789 137.726 45.5599 138.063 45.7222C138.232 45.8033 138.406 45.8782 138.581 45.95C139.286 46.2372 140.045 46.4432 140.847 46.5555C140.969 46.5742 141.087 46.5899 141.209 46.6023C141.437 46.6273 141.668 46.6429 141.893 46.6492C142.12 46.6585 142.345 46.6585 142.57 46.6492C146.15 45.2665 148.338 42.2889 149.611 38.7246C149.496 38.1753 149.312 37.6322 149.053 37.1047C148.965 36.9268 148.871 36.7552 148.772 36.5866C148.672 36.4212 148.562 36.2589 148.45 36.1028L149.068 35.8001C149.287 36.1153 149.489 36.4493 149.661 36.8051C149.724 36.9331 149.783 37.061 149.836 37.189C149.889 37.317 149.942 37.4449 149.989 37.576C149.989 37.5729 149.989 37.5698 149.989 37.5667C149.995 37.5791 149.998 37.5947 150.004 37.6072C150.401 38.7308 150.66 39.9169 150.769 41.1404C150.81 41.5617 150.828 41.9924 150.828 42.4263C150.828 44.1991 150.507 45.9063 149.923 47.4919H159.564C160.136 45.95 160.454 44.2958 160.47 42.573C160.463 41.4993 160.354 40.4568 160.161 39.4518L160.158 39.4456Z" fill="black"/>
</g>
<defs>
<clipPath id="clip0_1778_1260">
<rect width="160.467" height="48.0093" fill="white" transform="translate(0 0.490723)"/>
</clipPath>
</defs>
</svg>
