<svg width="76" height="76" viewBox="0 0 76 76" fill="none" xmlns="http://www.w3.org/2000/svg">
<path d="M31.3018 1.2353L37.4449 19.3592L42.4287 0.891932L42.9726 20.0208L53.1655 3.85226L48.062 22.2864L62.5582 9.85321L52.2605 25.9547L69.7722 18.3616L55.1953 30.6998L74.1662 28.6213L56.6054 36.0999L75.3503 39.721L56.366 41.6756L73.2189 50.6742L54.4981 46.9309L67.9616 60.5077L51.1674 51.3991L60.0454 68.3478L46.6702 54.6833L50.1739 73.4977L41.406 56.4916L39.2237 75.5L35.8425 56.6632L28.1684 74.1769L30.4741 55.1831L17.99 69.6456L25.7778 52.1828L9.59292 62.3089L22.1708 47.9286L3.72327 52.8188L19.9737 42.7985L0.902652 42.0184L19.3817 37.2488L1.38167 30.8676L20.4473 31.7721L5.11777 20.3568L23.0759 26.8554L11.7789 11.4202L27.0342 22.9354L20.7733 4.85187L31.97 20.3603L31.3018 1.2353Z" fill="#FAB4F0"/>
</svg>
