<svg width="90" height="124" viewBox="0 0 90 124" fill="none" xmlns="http://www.w3.org/2000/svg">
<path d="M32.9267 46.0304V46.3917L32.5836 46.5051C16.8469 51.7068 5.49179 66.523 5.50001 83.9998V84C5.50001 105.817 23.1834 123.5 45 123.5C66.8166 123.5 84.5 105.817 84.5 84C84.5 66.5231 73.1447 51.7067 57.4079 46.4967L57.065 46.3832V46.0221V19.734H32.9267V46.0304Z" fill="#FFFEFF" stroke="#5181FF"/>
<path d="M45.483 119.132C64.7881 119.132 80.4902 103.43 80.4902 84.1248C80.4902 68.9969 70.8376 55.6414 56.4753 50.89L53.0469 49.7583V24.3516H37.894V49.7583L34.4657 50.89C20.1033 55.6414 10.459 68.9969 10.459 84.1248C10.4757 103.43 26.1778 119.132 45.483 119.132Z" fill="white"/>
<path d="M14.4793 85.7429C15.0942 86.6312 15.9614 87.3193 16.9714 87.7203C17.9815 88.1213 19.0891 88.2171 20.1542 87.9957C21.2192 87.7742 22.1941 87.2455 22.9555 86.4763C23.7169 85.707 24.2308 84.7318 24.4321 83.6737C24.6334 82.6157 24.5131 81.5225 24.0865 80.532C23.6599 79.5416 22.9461 78.6985 22.0353 78.1092C21.1244 77.5199 20.0574 77.2109 18.9691 77.2212C17.8808 77.2315 16.82 77.5607 15.9208 78.1672C14.7166 78.9848 13.8889 80.2409 13.6187 81.6606C13.3486 83.0804 13.658 84.5482 14.4793 85.7429Z" fill="#455A64"/>
<path opacity="0.06" d="M14.4784 85.7429C15.3028 86.9366 16.5728 87.7574 18.0091 88.0248C19.4454 88.2921 20.9302 87.9842 22.1369 87.1687C23.3437 86.3532 24.1735 85.0969 24.4438 83.6761C24.7141 82.2554 24.4028 80.7867 23.5784 79.593C23.263 79.1557 22.889 78.7628 22.4669 78.4249C22.5516 78.5147 22.6273 78.6125 22.6927 78.7169C23.4342 79.7807 23.7181 81.0924 23.482 82.3633C23.2459 83.6342 22.5091 84.7603 21.4336 85.4938C20.3582 86.2273 19.0321 86.5082 17.7473 86.2746C16.4625 86.0411 15.3241 85.3122 14.5826 84.2484C13.9624 83.3391 13.6689 82.2502 13.749 81.1562C13.5261 81.9272 13.4759 82.737 13.6019 83.5292C13.7279 84.3214 14.027 85.0768 14.4784 85.7429Z" fill="black"/>
<path opacity="0.3" d="M16.7717 80.0396C16.7696 80.4721 16.8996 80.8951 17.1446 81.2533C17.3896 81.6114 17.7382 81.8881 18.1448 82.047C18.5514 82.2059 18.997 82.2397 19.4233 82.1439C19.8497 82.0481 20.2369 81.8272 20.5342 81.5101C20.8315 81.193 21.025 80.7945 21.0895 80.3668C21.154 79.9391 21.0865 79.502 20.8957 79.1129C20.7049 78.7238 20.3998 78.4007 20.0203 78.186C19.6408 77.9713 19.2046 77.8749 18.7688 77.9095C18.2191 77.9319 17.7007 78.1684 17.3265 78.5674C16.9524 78.9665 16.7529 79.4957 16.7717 80.0396Z" fill="white"/>
<path opacity="0.1" d="M22.8844 81.6888C21.8424 80.847 20.401 83.1318 18.8554 83.0974C17.3098 83.0631 16.3372 82.187 15.2605 83.0974C14.1838 84.0079 16.1982 87.5466 19.6368 87.1859C23.0753 86.8251 24.3605 82.8741 22.8844 81.6888Z" fill="white"/>
<path d="M24.4442 83.3677C25.059 84.256 25.9262 84.9441 26.9363 85.3451C27.9463 85.7461 29.0539 85.8419 30.119 85.6205C31.1841 85.399 32.159 84.8703 32.9204 84.101C33.6818 83.3318 34.1956 82.3565 34.3969 81.2985C34.5982 80.2405 34.478 79.1472 34.0514 78.1568C33.6248 77.1664 32.911 76.3233 32.0001 75.734C31.0893 75.1447 30.0223 74.8357 28.934 74.846C27.8457 74.8563 26.7849 75.1855 25.8856 75.792C24.6815 76.6095 23.8537 77.8656 23.5836 79.2854C23.3135 80.7052 23.6229 82.173 24.4442 83.3677Z" fill="#455A64"/>
<path opacity="0.06" d="M24.4432 83.3677C25.2677 84.5613 26.5377 85.3822 27.974 85.6495C29.4102 85.9169 30.895 85.609 32.1018 84.7935C33.3085 83.978 34.1384 82.7217 34.4087 81.3009C34.679 79.8802 34.3677 78.4115 33.5432 77.2178C33.2278 76.7805 32.8539 76.3876 32.4317 76.0497C32.5165 76.1394 32.5921 76.2373 32.6575 76.3417C33.3991 77.4055 33.683 78.7172 33.4469 79.9881C33.2107 81.259 32.474 82.3851 31.3985 83.1186C30.323 83.8521 28.997 84.133 27.7121 83.8994C26.4273 83.6658 25.289 82.937 24.5474 81.8731C23.9272 80.9639 23.6337 79.875 23.7139 78.781C23.491 79.552 23.4408 80.3618 23.5667 81.154C23.6927 81.9461 23.9918 82.7016 24.4432 83.3677Z" fill="black"/>
<path opacity="0.3" d="M26.7366 77.6644C26.7345 78.0969 26.8645 78.5199 27.1095 78.8781C27.3545 79.2362 27.703 79.5129 28.1096 79.6718C28.5163 79.8307 28.9618 79.8645 29.3882 79.7687C29.8145 79.6729 30.2017 79.452 30.499 79.1349C30.7963 78.8178 30.9898 78.4193 31.0543 77.9916C31.1188 77.5639 31.0513 77.1268 30.8606 76.7377C30.6698 76.3486 30.3646 76.0255 29.9851 75.8108C29.6056 75.5961 29.1694 75.4997 28.7336 75.5343C28.1839 75.5566 27.6655 75.7932 27.2914 76.1922C26.9172 76.5913 26.7178 77.1205 26.7366 77.6644Z" fill="white"/>
<path opacity="0.1" d="M32.8492 79.3136C31.8072 78.4718 30.3658 80.7566 28.8202 80.7222C27.2746 80.6878 26.3021 79.8117 25.2253 80.7222C24.1486 81.6327 26.1631 85.1714 29.6016 84.8107C33.0402 84.4499 34.3254 80.4989 32.8492 79.3136Z" fill="white"/>
<path d="M48.215 101.351C48.7795 98.3958 46.8152 95.5475 43.8277 94.9891C40.8401 94.4307 37.9606 96.3737 37.3961 99.3289C36.8316 102.284 38.7959 105.132 41.7835 105.691C44.771 106.249 47.6505 104.306 48.215 101.351Z" fill="#455A64"/>
<path opacity="0.06" d="M38.3123 103.44C38.7205 104.031 39.2424 104.537 39.8482 104.928C40.454 105.32 41.1319 105.589 41.8431 105.722C42.5542 105.854 43.2848 105.847 43.9931 105.7C44.7013 105.553 45.3734 105.269 45.9709 104.866C46.5684 104.462 47.0797 103.946 47.4755 103.346C47.8713 102.747 48.1439 102.077 48.2778 101.373C48.4116 100.67 48.4041 99.947 48.2556 99.2464C48.1071 98.5458 47.8205 97.881 47.4123 97.29C47.1033 96.8479 46.7353 96.4492 46.3182 96.1047L46.5266 96.4139C47.2589 97.4754 47.535 98.7813 47.294 100.044C47.053 101.307 46.3147 102.423 45.2415 103.148C44.1683 103.872 42.8482 104.145 41.5715 103.907C40.2948 103.669 39.1662 102.938 38.4339 101.877C37.8008 100.973 37.506 99.8798 37.6002 98.7845C37.3592 99.5638 37.2981 100.387 37.4213 101.192C37.5445 101.998 37.8491 102.766 38.3123 103.44Z" fill="black"/>
<path opacity="0.3" d="M40.6052 97.7366C40.6028 98.1684 40.7321 98.5909 40.9762 98.9489C41.2202 99.3068 41.5677 99.5837 41.9733 99.7434C42.3788 99.903 42.8237 99.938 43.2497 99.8438C43.6757 99.7496 44.063 99.5305 44.3612 99.2152C44.6594 98.8999 44.8546 98.5029 44.9212 98.0762C44.9879 97.6495 44.923 97.2128 44.7349 96.8232C44.5469 96.4335 44.2445 96.109 43.8671 95.8919C43.4898 95.6749 43.055 95.5754 42.6196 95.6065C42.0684 95.6289 41.5481 95.8648 41.1712 96.2633C40.7943 96.6619 40.591 97.1911 40.6052 97.7366Z" fill="white"/>
<path opacity="0.1" d="M46.7177 99.3858C45.6757 98.544 44.2517 100.829 42.7061 100.794C41.1604 100.76 40.188 99.8668 39.0939 100.794C37.9998 101.722 40.0317 105.244 43.4876 104.866C46.9435 104.488 48.1938 100.571 46.7177 99.3858Z" fill="white"/>
<path d="M18.2934 104.012C18.9064 104.902 19.7729 105.593 20.7831 105.997C21.7933 106.4 22.9018 106.498 23.9682 106.278C25.0346 106.058 26.011 105.53 26.7739 104.76C27.5368 103.991 28.0518 103.015 28.2537 101.956C28.4557 100.897 28.3354 99.8031 27.9083 98.8118C27.4811 97.8205 26.7663 96.9768 25.8542 96.3876C24.9421 95.7984 23.8737 95.4901 22.7844 95.5017C21.6951 95.5134 20.6338 95.8445 19.7348 96.4531C19.1373 96.8548 18.6259 97.3693 18.2299 97.967C17.8339 98.5648 17.5611 99.2339 17.4272 99.9362C17.2932 100.638 17.3008 101.36 17.4494 102.059C17.5981 102.759 17.8849 103.422 18.2934 104.012Z" fill="#455A64"/>
<path opacity="0.06" d="M18.2939 104.012C19.1161 105.205 20.3839 106.027 21.8185 106.296C23.2532 106.565 24.7372 106.259 25.9439 105.446C27.1506 104.633 27.9813 103.379 28.2532 101.96C28.5252 100.54 28.2161 99.0725 27.3939 97.8789C27.0833 97.4327 26.7089 97.0334 26.2824 96.6936C26.3672 96.7834 26.4428 96.8812 26.5082 96.9856C26.903 97.5111 27.1863 98.11 27.3413 98.7465C27.4964 99.383 27.5199 100.044 27.4104 100.69C27.3008 101.335 27.0605 101.952 26.704 102.504C26.3475 103.056 25.882 103.53 25.3355 103.899C24.789 104.269 24.1727 104.525 23.5236 104.653C22.8745 104.781 22.2059 104.778 21.5581 104.644C20.9102 104.51 20.2964 104.248 19.7534 103.874C19.2104 103.499 18.7494 103.02 18.3981 102.466C17.7804 101.555 17.4871 100.467 17.5646 99.3734C17.3313 100.152 17.2756 100.972 17.4018 101.774C17.5279 102.576 17.8326 103.34 18.2939 104.012Z" fill="black"/>
<path opacity="0.3" d="M20.5862 98.2912C20.5841 98.7236 20.7141 99.1466 20.9591 99.5048C21.2041 99.863 21.5526 100.14 21.9593 100.299C22.3659 100.457 22.8116 100.491 23.2379 100.395C23.6642 100.3 24.0513 100.079 24.3486 99.7616C24.6459 99.4445 24.8394 99.046 24.9039 98.6183C24.9684 98.1906 24.901 97.7536 24.7102 97.3644C24.5194 96.9753 24.2142 96.6523 23.8348 96.4375C23.4553 96.2228 23.019 96.1264 22.5833 96.161C22.0335 96.1834 21.5151 96.4199 21.141 96.8189C20.7668 97.218 20.5674 97.7472 20.5862 98.2912Z" fill="white"/>
<path opacity="0.1" d="M26.6988 99.9403C25.6569 99.1158 24.2154 101.383 22.6698 101.366C21.1242 101.349 20.1517 100.438 19.075 101.366C17.9982 102.294 20.0127 105.798 23.4512 105.437C26.8898 105.077 28.175 101.126 26.6988 99.9403Z" fill="white"/>
<path d="M23.6306 93.3597C24.2454 94.2481 25.1126 94.9362 26.1227 95.3371C27.1327 95.7381 28.2403 95.834 29.3054 95.6125C30.3705 95.3911 31.3454 94.8623 32.1068 94.0931C32.8682 93.3238 33.382 92.3486 33.5833 91.2906C33.7846 90.2326 33.6644 89.1393 33.2378 88.1489C32.8112 87.1585 32.0974 86.3153 31.1865 85.726C30.2757 85.1368 29.2087 84.8278 28.1204 84.8381C27.0321 84.8484 25.9713 85.1776 25.072 85.784C24.474 86.1874 23.9622 86.7034 23.5659 87.3026C23.1697 87.9019 22.8968 88.5725 22.7629 89.2762C22.629 89.9798 22.6368 90.7027 22.7857 91.4034C22.9346 92.1041 23.2217 92.7689 23.6306 93.3597Z" fill="#455A64"/>
<path opacity="0.06" d="M23.6311 93.3597C24.0769 94.0074 24.6588 94.5522 25.337 94.957C26.0152 95.3618 26.7738 95.6171 27.5609 95.7054C28.348 95.7938 29.1449 95.713 29.8976 95.4687C30.6502 95.2245 31.3407 94.8224 31.9219 94.29C32.5031 93.7576 32.9613 93.1074 33.2652 92.3838C33.5691 91.6603 33.7116 90.8803 33.6829 90.0973C33.6542 89.3143 33.4549 88.5466 33.0989 87.8467C32.7428 87.1467 32.2382 86.5311 31.6196 86.0417L31.8454 86.3337C32.5777 87.3976 32.8529 88.7056 32.6102 89.9701C32.3676 91.2346 31.627 92.3519 30.5516 93.0763C29.4761 93.8007 28.1538 94.0728 26.8755 93.8328C25.5972 93.5928 24.4676 92.8603 23.7353 91.7965C23.11 90.896 22.8159 89.8107 22.9017 88.7215C22.6609 89.4989 22.6013 90.3201 22.7277 91.1235C22.854 91.9269 23.1629 92.6915 23.6311 93.3597Z" fill="black"/>
<path opacity="0.3" d="M25.9228 87.6565C25.9207 88.0889 26.0506 88.5119 26.2956 88.8701C26.5406 89.2283 26.8892 89.5049 27.2958 89.6639C27.7025 89.8228 28.148 89.8565 28.5744 89.7607C29.0007 89.6649 29.3879 89.444 29.6852 89.1269C29.9825 88.8098 30.176 88.4114 30.2405 87.9836C30.305 87.5559 30.2375 87.1189 30.0468 86.7298C29.856 86.3407 29.5508 86.0176 29.1713 85.8028C28.7918 85.5881 28.3556 85.4917 27.9198 85.5263C27.6469 85.5352 27.3784 85.5974 27.13 85.7095C26.8815 85.8216 26.658 85.9813 26.4723 86.1794C26.2865 86.3775 26.1424 86.61 26.0481 86.8636C25.9537 87.1171 25.9111 87.3866 25.9228 87.6565Z" fill="white"/>
<path opacity="0.1" d="M32.019 89.3056C30.9944 88.4639 29.553 90.7486 28.0074 90.7314C26.4618 90.7143 25.4892 89.8038 24.3951 90.7314C23.5789 91.3842 25.3502 95.1635 28.7888 94.8027C32.2273 94.442 33.4952 90.4909 32.019 89.3056Z" fill="white"/>
<path d="M44.1987 94.8714C44.8118 95.7621 45.6781 96.453 46.6883 96.8564C47.6985 97.2598 48.807 97.3576 49.8734 97.1376C50.9398 96.9176 51.9163 96.3895 52.6792 95.6202C53.4421 94.851 53.9571 93.8751 54.159 92.8162C54.361 91.7573 54.2407 90.6629 53.8136 89.6716C53.3865 88.6803 52.6716 87.8366 51.7595 87.2474C50.8474 86.6582 49.7791 86.3499 48.6897 86.3615C47.6004 86.3732 46.539 86.7043 45.64 87.3129C44.437 88.1273 43.6098 89.3804 43.3396 90.7973C43.0694 92.2143 43.3783 93.6795 44.1987 94.8714Z" fill="#455A64"/>
<path opacity="0.06" d="M44.1985 94.8886C44.5979 95.4986 45.1167 96.0235 45.7244 96.4321C46.3321 96.8407 47.0163 97.1249 47.7368 97.2678C48.4572 97.4107 49.1993 97.4096 49.9193 97.2643C50.6393 97.1191 51.3226 96.8328 51.9289 96.4222C52.5353 96.0116 53.0524 95.4852 53.4499 94.8738C53.8473 94.2624 54.1169 93.5786 54.2429 92.8625C54.3689 92.1464 54.3487 91.4126 54.1836 90.7044C54.0184 89.9961 53.7115 89.3278 53.2811 88.7387C52.9812 88.2895 52.6121 87.8895 52.187 87.5534L52.4128 87.8626C52.8495 88.5022 53.1254 89.2358 53.2174 90.0023C53.3095 90.7688 53.2151 91.5459 52.942 92.269C52.669 92.992 52.2251 93.6401 51.6476 94.1591C51.0701 94.6782 50.3756 95.0533 49.6219 95.253C48.8682 95.4528 48.0771 95.4716 47.3146 95.3077C46.5521 95.1438 45.8402 94.8021 45.2382 94.311C44.6362 93.8198 44.1616 93.1935 43.8539 92.4842C43.5462 91.7749 43.4142 91.0032 43.469 90.2332C43.2267 91.0132 43.1665 91.8374 43.2929 92.6438C43.4192 93.4502 43.7289 94.2177 44.1985 94.8886Z" fill="black"/>
<path opacity="0.3" d="M46.4733 89.1853C46.471 89.6171 46.6003 90.0395 46.8443 90.3975C47.0884 90.7555 47.4359 91.0324 47.8414 91.1921C48.247 91.3517 48.6919 91.3867 49.1178 91.2925C49.5438 91.1982 49.9311 90.9792 50.2293 90.6639C50.5275 90.3486 50.7227 89.9516 50.7894 89.5249C50.8561 89.0982 50.7912 88.6615 50.6032 88.2719C50.4151 87.8822 50.1126 87.5577 49.7353 87.3406C49.3579 87.1236 48.9232 87.0241 48.4878 87.0552C47.9366 87.0776 47.4164 87.3135 47.0395 87.712C46.6626 88.1106 46.4592 88.6398 46.4733 89.1853Z" fill="white"/>
<path opacity="0.1" d="M52.5865 90.8345C51.5445 89.9927 50.1204 92.2775 48.5748 92.2431C47.0292 92.2087 46.0568 91.3155 44.9627 92.2431C44.1465 92.9131 45.9004 96.6751 49.3563 96.3144C52.8123 95.9536 54.0452 92.0198 52.5865 90.8345Z" fill="white"/>
<path d="M27.4272 102.488C28.0403 103.379 28.9068 104.07 29.9169 104.473C30.9271 104.877 32.0356 104.974 33.102 104.754C34.1685 104.534 35.1449 104.006 35.9077 103.237C36.6706 102.468 37.1856 101.492 37.3876 100.433C37.5895 99.3741 37.4693 98.2797 37.0421 97.2884C36.615 96.2971 35.9001 95.4535 34.988 94.8642C34.0759 94.275 33.0076 93.9667 31.9183 93.9784C30.8289 93.99 29.7676 94.3211 28.8686 94.9297C27.6656 95.7441 26.8383 96.9972 26.5681 98.4142C26.2979 99.8312 26.6068 101.296 27.4272 102.488Z" fill="#455A64"/>
<path opacity="0.06" d="M27.4272 102.488C28.2493 103.682 29.5171 104.504 30.9518 104.773C32.3864 105.042 33.8704 104.736 35.0771 103.923C36.2839 103.109 37.1145 101.855 37.3865 100.436C37.6584 99.017 37.3493 97.5492 36.5272 96.3555C36.2227 95.9099 35.8541 95.5106 35.4331 95.1702L35.6415 95.4622C36.0052 95.9879 36.2608 96.5792 36.3935 97.2025C36.5262 97.8258 36.5336 98.4689 36.415 99.095C36.2965 99.7211 36.0545 100.318 35.7027 100.852C35.351 101.385 34.8964 101.845 34.3651 102.205C33.8337 102.565 33.2359 102.817 32.6057 102.949C31.9756 103.08 31.3255 103.087 30.6925 102.97C30.0595 102.853 29.4562 102.613 28.9167 102.265C28.3773 101.917 27.9125 101.468 27.5488 100.942C26.9157 100.039 26.6209 98.9453 26.7152 97.85C26.4744 98.6264 26.4133 99.4465 26.5366 100.249C26.6599 101.052 26.9642 101.818 27.4272 102.488Z" fill="black"/>
<path opacity="0.3" d="M29.7197 96.785C29.7882 97.3328 30.0675 97.8335 30.4994 98.1831C30.9313 98.5327 31.4827 98.7042 32.0392 98.6622C32.5956 98.6202 33.1143 98.3679 33.4876 97.9575C33.8609 97.5472 34.0602 97.0104 34.0439 96.4586C33.9753 95.9107 33.6961 95.41 33.2642 95.0605C32.8323 94.7109 32.2808 94.5393 31.7244 94.5813C31.1679 94.6233 30.6492 94.8757 30.2759 95.286C29.9026 95.6964 29.7034 96.2332 29.7197 96.785Z" fill="white"/>
<path opacity="0.1" d="M35.833 98.4513C34.7911 97.6095 33.3496 99.8771 31.8214 99.8599C30.2932 99.8427 29.3032 98.9323 28.2092 99.8599C27.1151 100.788 29.1469 104.292 32.6028 103.931C36.0587 103.57 37.3092 99.6194 35.833 98.4513Z" fill="white"/>
<path d="M22.8718 110.117C23.4866 111.005 24.3539 111.693 25.3639 112.094C26.374 112.495 27.4815 112.591 28.5466 112.37C29.6117 112.148 30.5865 111.619 31.348 110.85C32.1094 110.081 32.6232 109.106 32.8245 108.048C33.0258 106.99 32.9055 105.896 32.4789 104.906C32.0523 103.916 31.3385 103.072 30.4277 102.483C29.5169 101.894 28.4499 101.585 27.3615 101.595C26.2732 101.605 25.2125 101.935 24.3132 102.541C23.7151 102.944 23.2033 103.461 22.8071 104.06C22.4109 104.659 22.1381 105.33 22.0042 106.033C21.8703 106.737 21.878 107.46 22.0269 108.16C22.1757 108.861 22.4628 109.526 22.8718 110.117Z" fill="#455A64"/>
<path opacity="0.06" d="M22.8711 110.117C23.3169 110.764 23.8989 111.309 24.5771 111.714C25.2553 112.119 26.0138 112.374 26.8009 112.463C27.5879 112.551 28.385 112.47 29.1377 112.226C29.8903 111.982 30.5808 111.579 31.162 111.047C31.7432 110.515 32.2013 109.865 32.5052 109.141C32.8091 108.417 32.9516 107.637 32.9229 106.854C32.8942 106.071 32.695 105.304 32.339 104.604C31.9829 103.904 31.4783 103.288 30.8597 102.799L31.0855 103.091C31.5326 103.731 31.8178 104.468 31.9171 105.24C32.0164 106.012 31.927 106.796 31.6562 107.527C31.3855 108.258 30.9414 108.913 30.3613 109.439C29.7812 109.965 29.0819 110.345 28.3223 110.547C27.5628 110.75 26.7653 110.77 25.9966 110.604C25.2279 110.439 24.5106 110.093 23.9049 109.596C23.2993 109.1 22.823 108.467 22.5162 107.75C22.2094 107.033 22.081 106.254 22.1417 105.479C21.8996 106.256 21.8394 107.077 21.9657 107.881C22.0921 108.684 22.4017 109.449 22.8711 110.117Z" fill="black"/>
<path opacity="0.3" d="M25.1462 104.414C25.1438 104.845 25.2731 105.268 25.5172 105.626C25.7612 105.984 26.1087 106.261 26.5143 106.42C26.9199 106.58 27.3647 106.615 27.7907 106.521C28.2167 106.426 28.6041 106.207 28.9023 105.892C29.2005 105.577 29.3957 105.18 29.4624 104.753C29.529 104.326 29.4641 103.89 29.276 103.5C29.088 103.11 28.7856 102.786 28.4082 102.569C28.0309 102.352 27.5961 102.252 27.1608 102.283C26.6095 102.306 26.0892 102.542 25.7123 102.94C25.3354 103.339 25.1321 103.868 25.1462 104.414Z" fill="white"/>
<path opacity="0.1" d="M31.2594 106.063C30.2174 105.238 28.7934 107.506 27.2478 107.489C25.7022 107.471 24.7296 106.561 23.6355 107.489C22.8193 108.141 24.5734 111.921 28.0293 111.56C31.4852 111.199 32.7356 107.196 31.2594 106.063Z" fill="white"/>
<path d="M34.2783 95.6448C34.8931 96.5331 35.7604 97.2212 36.7705 97.6222C37.7805 98.0232 38.888 98.119 39.9531 97.8976C41.0182 97.6762 41.9931 97.1474 42.7545 96.3782C43.5159 95.6089 44.0297 94.6337 44.231 93.5757C44.4323 92.5177 44.3121 91.4244 43.8855 90.4339C43.4589 89.4435 42.7451 88.6004 41.8342 88.0111C40.9234 87.4218 39.8564 87.1128 38.7681 87.1231C37.6798 87.1335 36.619 87.4626 35.7197 88.0691C34.5193 88.8896 33.6946 90.1454 33.4247 91.5639C33.1548 92.9823 33.4616 94.4487 34.2783 95.6448Z" fill="#455A64"/>
<path opacity="0.06" d="M34.278 95.6448C34.6862 96.2358 35.2082 96.7416 35.814 97.1331C36.4198 97.5246 37.0977 97.7943 37.8089 97.9267C38.52 98.0591 39.2505 98.0516 39.9588 97.9047C40.667 97.7578 41.3392 97.4744 41.9367 97.0706C42.5342 96.6668 43.0455 96.1505 43.4413 95.5513C43.8371 94.952 44.1096 94.2815 44.2435 93.5781C44.3773 92.8746 44.3698 92.1519 44.2213 91.4513C44.0728 90.7507 43.7863 90.086 43.3781 89.4949C43.0689 89.0581 42.7008 88.6651 42.284 88.3268L42.4924 88.6188C43.2247 89.6804 43.5007 90.9862 43.2597 92.249C43.0187 93.5119 42.2805 94.6284 41.2073 95.3528C40.1341 96.0772 38.814 96.3502 37.5373 96.1118C36.2606 95.8734 35.1319 95.1431 34.3996 94.0815C33.7664 93.1847 33.4714 92.0965 33.566 91.0066C33.3265 91.7832 33.2661 92.603 33.3893 93.4057C33.5126 94.2084 33.8162 94.9736 34.278 95.6448Z" fill="black"/>
<path opacity="0.3" d="M36.57 89.9415C36.5677 90.3733 36.697 90.7958 36.941 91.1537C37.1851 91.5117 37.5325 91.7886 37.9381 91.9483C38.3437 92.1079 38.7885 92.1429 39.2145 92.0487C39.6405 91.9545 40.0279 91.7354 40.3261 91.4201C40.6243 91.1048 40.8195 90.7078 40.8862 90.2811C40.9529 89.8544 40.8879 89.4177 40.6999 89.0281C40.5118 88.6384 40.2094 88.3139 39.8321 88.0968C39.4547 87.8798 39.02 87.7803 38.5846 87.8114C38.0333 87.8338 37.5131 88.0697 37.1362 88.4682C36.7592 88.8668 36.5559 89.396 36.57 89.9415Z" fill="white"/>
<path opacity="0.1" d="M42.6834 91.5907C41.6414 90.7489 40.2173 93.0337 38.6717 92.9993C37.1261 92.965 36.1536 92.0889 35.0595 92.9993C34.2259 93.6521 35.9973 97.4314 39.4532 97.0706C42.9091 96.7099 44.1595 92.776 42.6834 91.5907Z" fill="white"/>
<path d="M38.6678 116.428C39.2826 117.316 40.1499 118.004 41.16 118.405C42.17 118.806 43.2775 118.902 44.3426 118.68C45.4077 118.459 46.3826 117.93 47.144 117.161C47.9054 116.392 48.4192 115.417 48.6205 114.359C48.8218 113.301 48.7016 112.207 48.275 111.217C47.8484 110.226 47.1346 109.383 46.2237 108.794C45.3129 108.205 44.2459 107.896 43.1576 107.906C42.0693 107.916 41.0085 108.246 40.1092 108.852C38.9051 109.67 38.0774 110.926 37.8072 112.345C37.5371 113.765 37.8465 115.233 38.6678 116.428Z" fill="#455A64"/>
<path opacity="0.06" d="M38.668 116.428C39.1138 117.075 39.6958 117.62 40.374 118.025C41.0522 118.43 41.8107 118.685 42.5978 118.773C43.3848 118.862 44.1819 118.781 44.9346 118.537C45.6872 118.292 46.3777 117.89 46.9589 117.358C47.5401 116.826 47.9982 116.175 48.3021 115.452C48.606 114.728 48.7485 113.948 48.7198 113.165C48.6911 112.382 48.4919 111.615 48.1359 110.915C47.7798 110.215 47.2752 109.599 46.6566 109.11C46.7413 109.199 46.8169 109.297 46.8822 109.402C47.3189 110.041 47.595 110.774 47.6876 111.539C47.7802 112.305 47.6865 113.082 47.4144 113.805C47.1424 114.528 46.6998 115.176 46.1235 115.695C45.5472 116.215 44.8538 116.59 44.101 116.791C43.3482 116.992 42.5578 117.013 41.7955 116.851C41.0332 116.689 40.321 116.349 39.7183 115.859C39.1155 115.37 38.6396 114.746 38.33 114.038C38.0205 113.33 37.8863 112.559 37.9386 111.79C37.7053 112.568 37.6496 113.388 37.7758 114.19C37.9019 114.992 38.2067 115.756 38.668 116.428Z" fill="black"/>
<path opacity="0.3" d="M40.9602 110.724C40.9578 111.156 41.0871 111.579 41.3312 111.937C41.5752 112.295 41.9227 112.572 42.3283 112.731C42.7338 112.891 43.1787 112.926 43.6047 112.832C44.0307 112.737 44.4181 112.518 44.7163 112.203C45.0145 111.888 45.2096 111.491 45.2762 111.064C45.3429 110.637 45.2781 110.201 45.09 109.811C44.902 109.421 44.5995 109.097 44.2221 108.88C43.8448 108.663 43.41 108.563 42.9746 108.594C42.7009 108.603 42.4317 108.665 42.1823 108.777C41.9329 108.889 41.7082 109.049 41.5211 109.246C41.334 109.444 41.1882 109.677 41.0919 109.93C40.9957 110.184 40.9509 110.454 40.9602 110.724Z" fill="white"/>
<path opacity="0.1" d="M47.0738 112.374C46.0318 111.549 44.5904 113.817 43.0448 113.799C41.4992 113.782 40.5267 112.872 39.4499 113.799C38.3732 114.727 40.3878 118.231 43.8263 117.871C47.2649 117.51 48.55 113.559 47.0738 112.374Z" fill="white"/>
<path d="M46.4325 115.224C47.0473 116.112 47.9146 116.8 48.9246 117.201C49.9347 117.602 51.0422 117.698 52.1073 117.477C53.1724 117.255 54.1472 116.726 54.9087 115.957C55.6701 115.188 56.1839 114.213 56.3852 113.155C56.5865 112.097 56.4662 111.003 56.0396 110.013C55.613 109.023 54.8992 108.179 53.9884 107.59C53.0776 107.001 52.0106 106.692 50.9222 106.702C49.8339 106.712 48.7731 107.042 47.8739 107.648C46.6698 108.466 45.842 109.722 45.5719 111.142C45.3017 112.561 45.6112 114.029 46.4325 115.224Z" fill="#455A64"/>
<path opacity="0.06" d="M46.4326 115.224C46.8785 115.871 47.4604 116.416 48.1386 116.821C48.8168 117.226 49.5753 117.481 50.3624 117.569C51.1495 117.658 51.9466 117.577 52.6992 117.333C53.4518 117.089 54.1423 116.686 54.7235 116.154C55.3047 115.622 55.7628 114.971 56.0667 114.248C56.3706 113.524 56.5131 112.744 56.4844 111.961C56.4557 111.178 56.2566 110.411 55.9005 109.711C55.5444 109.011 55.0398 108.395 54.4212 107.906C54.506 107.996 54.5815 108.093 54.6469 108.198C55.0835 108.837 55.3597 109.57 55.4522 110.336C55.5448 111.101 55.4511 111.878 55.1791 112.601C54.9071 113.324 54.4645 113.972 53.8882 114.491C53.3118 115.011 52.6184 115.387 51.8657 115.588C51.1129 115.789 50.3224 115.809 49.5601 115.647C48.7978 115.485 48.0857 115.145 47.4829 114.656C46.8802 114.166 46.4042 113.542 46.0947 112.834C45.7851 112.126 45.6509 111.355 45.7032 110.586C45.4699 111.364 45.4143 112.184 45.5404 112.986C45.6666 113.788 45.9713 114.552 46.4326 115.224Z" fill="black"/>
<path opacity="0.3" d="M48.7248 109.521C48.7225 109.952 48.8518 110.375 49.0958 110.733C49.3399 111.091 49.6874 111.368 50.0929 111.527C50.4985 111.687 50.9433 111.722 51.3693 111.628C51.7953 111.533 52.1827 111.314 52.4809 110.999C52.7791 110.684 52.9742 110.287 53.0409 109.86C53.1076 109.433 53.0427 108.997 52.8547 108.607C52.6666 108.217 52.3641 107.893 51.9868 107.676C51.6094 107.459 51.1747 107.359 50.7393 107.39C50.4656 107.399 50.1964 107.461 49.947 107.573C49.6975 107.685 49.4729 107.845 49.2858 108.042C49.0987 108.24 48.9528 108.473 48.8566 108.726C48.7603 108.98 48.7156 109.25 48.7248 109.521Z" fill="white"/>
<path opacity="0.1" d="M54.8385 111.17C53.7965 110.345 52.3551 112.613 50.8095 112.595C49.2638 112.578 48.2913 111.668 47.2146 112.595C46.1379 113.523 48.1524 117.028 51.591 116.667C55.0295 116.306 56.3146 112.355 54.8385 111.17Z" fill="white"/>
<path d="M12.9613 96.3947C13.5744 97.2855 14.4409 97.9763 15.4511 98.3797C16.4612 98.7831 17.5696 98.881 18.636 98.6609C19.7025 98.4409 20.679 97.9128 21.4419 97.1436C22.2048 96.3743 22.7198 95.3985 22.9217 94.3395C23.1236 93.2806 23.0034 92.1862 22.5762 91.1949C22.1491 90.2036 21.4343 89.36 20.5221 88.7708C19.61 88.1815 18.5417 87.8732 17.4524 87.8849C16.3631 87.8965 15.3018 88.2276 14.4028 88.8362C13.8053 89.238 13.2938 89.7525 12.8978 90.3502C12.5018 90.9479 12.229 91.6171 12.0951 92.3194C11.9612 93.0216 11.9687 93.7431 12.1174 94.4425C12.266 95.1419 12.5529 95.8053 12.9613 96.3947Z" fill="#455A64"/>
<path opacity="0.06" d="M12.9616 96.3947C13.7837 97.5884 15.0515 98.4101 16.4861 98.6791C17.9208 98.9481 19.4047 98.6424 20.6114 97.8291C21.8181 97.0159 22.6489 95.7618 22.9209 94.3426C23.1928 92.9235 22.8837 91.4557 22.0615 90.262C21.751 89.8158 21.3766 89.4166 20.9501 89.0767L21.1758 89.3688C21.5706 89.8942 21.854 90.4932 22.009 91.1297C22.164 91.7662 22.1874 92.427 22.0779 93.0727C21.9683 93.7184 21.7281 94.3355 21.3716 94.8871C21.0151 95.4387 20.5496 95.9133 20.0031 96.2826C19.4566 96.6519 18.8403 96.9081 18.1912 97.0361C17.5421 97.164 16.8736 97.1609 16.2257 97.027C15.5778 96.8931 14.964 96.6311 14.421 96.2568C13.878 95.8825 13.417 95.4035 13.0657 94.8487C12.448 93.9383 12.1547 92.8503 12.2322 91.7566C11.9976 92.5347 11.9414 93.3548 12.0676 94.1571C12.1938 94.9594 12.4991 95.7238 12.9616 96.3947Z" fill="black"/>
<path opacity="0.3" d="M15.2532 90.6915C15.2511 91.1239 15.381 91.5469 15.626 91.9051C15.871 92.2633 16.2196 92.5399 16.6262 92.6988C17.0329 92.8578 17.4784 92.8915 17.9048 92.7957C18.3311 92.6999 18.7183 92.479 19.0156 92.1619C19.3129 91.8449 19.5064 91.4464 19.5709 91.0186C19.6354 90.5909 19.5679 90.1539 19.3772 89.7648C19.1864 89.3756 18.8812 89.0526 18.5017 88.8379C18.1223 88.6231 17.686 88.5268 17.2502 88.5614C16.7005 88.5837 16.182 88.8202 15.8079 89.2193C15.4337 89.6183 15.2344 90.1476 15.2532 90.6915Z" fill="white"/>
<path opacity="0.1" d="M21.3667 92.3578C20.3247 91.5161 18.8834 93.7836 17.3378 93.7664C15.7922 93.7492 14.8196 92.8388 13.7429 93.7664C12.6662 94.6941 14.6806 98.1985 18.1192 97.8377C21.5577 97.477 22.8429 93.5259 21.3667 92.3578Z" fill="white"/>
<path d="M45.1678 70.3015C45.7302 67.3459 43.7639 64.4989 40.776 63.9426C37.788 63.3862 34.9099 65.3312 34.3475 68.2868C33.785 71.2424 35.7513 74.0895 38.7392 74.6458C41.7272 75.2021 44.6053 73.2571 45.1678 70.3015Z" fill="#455A64"/>
<path opacity="0.06" d="M35.1482 72.3283C35.5553 72.9193 36.076 73.4253 36.6808 73.8172C37.2855 74.2092 37.9624 74.4795 38.6728 74.6127C39.3831 74.7459 40.1131 74.7393 40.8209 74.5935C41.5287 74.4477 42.2005 74.1654 42.798 73.7627C43.3956 73.36 43.907 72.8449 44.3033 72.2466C44.6995 71.6484 44.9728 70.9789 45.1075 70.2762C45.2421 69.5735 45.2355 68.8515 45.0881 68.1513C44.9406 67.4512 44.6553 66.7866 44.2482 66.1956C43.943 65.7451 43.5679 65.3451 43.1367 65.0103L43.3625 65.3195C43.7992 65.9591 44.075 66.6927 44.1671 67.4592C44.2591 68.2257 44.1648 69.0028 43.8917 69.7259C43.6187 70.4489 43.1748 71.097 42.5973 71.6161C42.0198 72.1351 41.3253 72.5101 40.5716 72.7099C39.8179 72.9097 39.0268 72.9284 38.2643 72.7646C37.5017 72.6007 36.7899 72.259 36.1879 71.7678C35.5859 71.2767 35.1113 70.6504 34.8036 69.9411C34.4959 69.2318 34.3639 68.46 34.4187 67.6901C34.1842 68.4682 34.1279 69.2883 34.2541 70.0906C34.3803 70.893 34.6858 71.6574 35.1482 72.3283Z" fill="black"/>
<path opacity="0.3" d="M37.4406 66.625C37.4348 67.0575 37.5611 67.4816 37.803 67.8419C38.045 68.2022 38.3913 68.4818 38.7965 68.6441C39.2018 68.8065 39.6472 68.844 40.0743 68.7517C40.5015 68.6595 40.8906 68.4418 41.1906 68.1271C41.4906 67.8125 41.6875 67.4155 41.7556 66.9883C41.8237 66.5611 41.7598 66.1234 41.5723 65.7328C41.3847 65.3421 41.0822 65.0165 40.7045 64.7987C40.3267 64.5809 39.8913 64.481 39.4552 64.5121C39.1823 64.5187 38.9134 64.5788 38.664 64.6889C38.4147 64.7989 38.1899 64.9567 38.0026 65.1531C37.8153 65.3496 37.6693 65.5808 37.5728 65.8335C37.4764 66.0861 37.4314 66.3551 37.4406 66.625Z" fill="white"/>
<path opacity="0.1" d="M43.5533 68.2913C42.5113 67.4496 41.0699 69.7171 39.5243 69.7C37.9787 69.6828 37.0062 68.7723 35.9294 69.7C34.8527 70.6276 36.8673 74.132 40.3058 73.7712C43.7444 73.4105 45.0295 69.4767 43.5533 68.2913Z" fill="white"/>
<path d="M53.3479 78.4285C53.065 76.1287 50.9533 74.5035 48.6312 74.7985C46.3092 75.0934 44.6561 77.1969 44.939 79.4967C45.2218 81.7964 47.3336 83.4217 49.6557 83.1268C51.9777 82.8318 53.6308 80.7283 53.3479 78.4285Z" fill="#455A64"/>
<path opacity="0.06" d="M46.4772 82.2719C46.9148 82.6096 47.4157 82.8581 47.9514 83.0033C48.4871 83.1485 49.0471 83.1874 49.5993 83.118C50.1516 83.0486 50.6854 82.8721 51.1702 82.5986C51.6549 82.3251 52.0812 81.96 52.4246 81.5242C52.7681 81.0883 53.022 80.5902 53.1718 80.0583C53.3217 79.5263 53.3646 78.971 53.298 78.424C53.2315 77.8771 53.0567 77.3491 52.7839 76.8704C52.5111 76.3916 52.1454 75.9714 51.7078 75.6337C51.3781 75.3751 51.0089 75.17 50.6139 75.026L50.8522 75.1996C51.3229 75.5659 51.6978 76.039 51.9457 76.5795C52.1935 77.1199 52.3071 77.712 52.277 78.3065C52.2468 78.901 52.0738 79.4807 51.7724 79.9972C51.471 80.5137 51.0499 80.9521 50.5442 81.2759C50.0385 81.5998 49.4627 81.7996 48.865 81.8588C48.2672 81.918 47.6648 81.8349 47.1078 81.6164C46.5508 81.3978 46.0554 81.0502 45.6629 80.6024C45.2703 80.1546 44.992 79.6197 44.8511 79.0422C44.8621 79.668 45.0138 80.2826 45.2951 80.8413C45.5764 81.4 45.9802 81.8887 46.4772 82.2719Z" fill="black"/>
<path opacity="0.3" d="M46.8157 77.5503C46.9131 77.8688 47.1056 78.1501 47.3677 78.3574C47.6299 78.5647 47.9496 78.6883 48.285 78.712C48.6204 78.7357 48.9558 78.6584 49.2474 78.4903C49.539 78.3221 49.7731 78.0709 49.9191 77.7696C50.065 77.4683 50.1161 77.1309 50.0655 76.8015C50.015 76.4722 49.8651 76.1663 49.6357 75.9239C49.4062 75.6815 49.1078 75.5139 48.7795 75.4431C48.4513 75.3722 48.1085 75.4014 47.796 75.5268C47.5974 75.5959 47.4143 75.7032 47.2574 75.8426C47.1004 75.9819 46.9727 76.1505 46.8815 76.3387C46.7904 76.5268 46.7377 76.7307 46.7264 76.9387C46.7151 77.1467 46.7454 77.3545 46.8157 77.5503Z" fill="white"/>
<path opacity="0.1" d="M51.691 77.3342C50.7289 76.9621 50.2053 78.9641 49.0678 79.3151C47.9303 79.6661 47.0029 79.2272 46.4315 80.1608C45.8601 81.0944 48.1619 83.1904 50.5987 82.1169C53.0355 81.0434 53.0524 77.8562 51.691 77.3342Z" fill="white"/>
<path d="M30.4732 113.152C31.0863 114.043 31.9526 114.733 32.9628 115.137C33.973 115.54 35.0815 115.638 36.1479 115.418C37.2143 115.198 38.1908 114.67 38.9537 113.901C39.7166 113.131 40.2316 112.156 40.4335 111.097C40.6355 110.038 40.5152 108.943 40.0881 107.952C39.661 106.961 38.9461 106.117 38.034 105.528C37.1219 104.939 36.0536 104.63 34.9642 104.642C33.8749 104.654 32.8135 104.985 31.9145 105.593C30.7115 106.408 29.8842 107.661 29.614 109.078C29.3438 110.495 29.6528 111.96 30.4732 113.152Z" fill="#455A64"/>
<path opacity="0.06" d="M30.4731 113.152C30.8802 113.743 31.4009 114.249 32.0057 114.641C32.6105 115.033 33.2873 115.303 33.9977 115.436C34.7081 115.569 35.438 115.563 36.1458 115.417C36.8536 115.271 37.5254 114.989 38.123 114.586C38.7205 114.184 39.232 113.668 39.6282 113.07C40.0245 112.472 40.2978 111.802 40.4324 111.1C40.5671 110.397 40.5604 109.675 40.413 108.975C40.2656 108.275 39.9802 107.61 39.5731 107.019C39.2686 106.573 38.9 106.174 38.479 105.834L38.6874 106.126C39.0511 106.651 39.3066 107.243 39.4393 107.866C39.572 108.489 39.5794 109.133 39.4608 109.759C39.3423 110.385 39.1003 110.982 38.7485 111.515C38.3968 112.049 37.9424 112.509 37.411 112.868C36.8796 113.228 36.2818 113.481 35.6517 113.612C35.0215 113.744 34.3714 113.751 33.7384 113.634C33.1055 113.516 32.5021 113.277 31.9627 112.929C31.4233 112.581 30.9583 112.131 30.5946 111.606C29.9615 110.702 29.6667 109.609 29.761 108.514C29.5202 109.29 29.4593 110.11 29.5825 110.913C29.7058 111.716 30.0102 112.481 30.4731 113.152Z" fill="black"/>
<path opacity="0.3" d="M32.7653 107.449C32.763 107.88 32.8923 108.303 33.1363 108.661C33.3804 109.019 33.728 109.296 34.1335 109.455C34.5391 109.615 34.9839 109.65 35.4098 109.556C35.8358 109.462 36.2232 109.242 36.5214 108.927C36.8196 108.612 37.0148 108.215 37.0815 107.788C37.1482 107.361 37.0832 106.925 36.8952 106.535C36.7071 106.145 36.4047 105.821 36.0274 105.604C35.65 105.387 35.2153 105.287 34.7799 105.318C34.2287 105.341 33.7084 105.577 33.3315 105.975C32.9546 106.374 32.7512 106.903 32.7653 107.449Z" fill="white"/>
<path opacity="0.1" d="M38.8789 109.098C37.8369 108.273 36.4129 110.541 34.8673 110.524C33.3217 110.506 32.3491 109.596 31.255 110.524C30.161 111.451 32.1929 114.956 35.6488 114.595C39.1047 114.234 40.4072 110.283 38.8789 109.098Z" fill="white"/>
<path d="M52.5653 88.7896C53.1801 89.6779 54.0473 90.3661 55.0573 90.7671C56.0674 91.168 57.175 91.2638 58.2401 91.0424C59.3052 90.821 60.2801 90.2923 61.0415 89.523C61.8029 88.7537 62.3167 87.7785 62.518 86.7205C62.7193 85.6625 62.5991 84.5692 62.1724 83.5788C61.7458 82.5883 61.032 81.7452 60.1212 81.156C59.2104 80.5667 58.1434 80.2576 57.0551 80.268C55.9667 80.2783 54.906 80.6075 54.0067 81.2139C52.8026 82.0315 51.9748 83.2876 51.7047 84.7074C51.4345 86.1271 51.744 87.595 52.5653 88.7896Z" fill="#455A64"/>
<path opacity="0.06" d="M52.5654 88.7896C53.0113 89.4373 53.5931 89.9821 54.2713 90.3869C54.9495 90.7917 55.7082 91.047 56.4952 91.1354C57.2823 91.2237 58.0793 91.1429 58.8319 90.8986C59.5846 90.6544 60.2751 90.2523 60.8562 89.7199C61.4374 89.1875 61.8956 88.5373 62.1995 87.8137C62.5034 87.0902 62.6459 86.3102 62.6173 85.5272C62.5886 84.7442 62.3893 83.9765 62.0332 83.2766C61.6771 82.5767 61.1726 81.961 60.5539 81.4716C60.6387 81.5614 60.7143 81.6592 60.7797 81.7636C61.2163 82.4027 61.4925 83.1356 61.5851 83.9014C61.6776 84.6672 61.584 85.4438 61.3119 86.1666C61.0399 86.8895 60.5973 87.5376 60.021 88.0571C59.4447 88.5766 58.7512 88.9524 57.9985 89.1534C57.2457 89.3544 56.4552 89.3747 55.6929 89.2126C54.9306 89.0504 54.2185 88.7106 53.6157 88.2214C53.013 87.7321 52.5371 87.1076 52.2275 86.3997C51.9179 85.6918 51.7837 84.921 51.8361 84.1515C51.6027 84.9297 51.5471 85.7496 51.6732 86.5517C51.7994 87.3538 52.1041 88.1182 52.5654 88.7896Z" fill="black"/>
<path opacity="0.3" d="M54.8577 83.0864C54.8556 83.5188 54.9855 83.9418 55.2305 84.3C55.4755 84.6582 55.8241 84.9348 56.2307 85.0937C56.6373 85.2526 57.0829 85.2864 57.5093 85.1906C57.9356 85.0948 58.3228 84.8739 58.6201 84.5568C58.9174 84.2397 59.1109 83.8413 59.1754 83.4135C59.2399 82.9858 59.1724 82.5488 58.9817 82.1597C58.7909 81.7706 58.4857 81.4475 58.1062 81.2328C57.7267 81.018 57.2905 80.9217 56.8547 80.9562C56.305 80.9786 55.7865 81.2151 55.4123 81.6142C55.0382 82.0132 54.8389 82.5424 54.8577 83.0864Z" fill="white"/>
<path opacity="0.1" d="M60.9702 84.7355C59.9282 83.8938 58.4869 86.1785 56.9413 86.1613C55.3957 86.1441 54.4232 85.2337 53.3464 86.1613C52.2697 87.089 54.2842 90.5934 57.7227 90.2326C61.1613 89.8719 62.429 86.0067 60.9702 84.7355Z" fill="white"/>
<path d="M62.6854 96.0125C63.2478 93.0569 61.2815 90.2099 58.2935 89.6536C55.3056 89.0972 52.4275 91.0422 51.865 93.9978C51.3026 96.9534 53.2689 99.8005 56.2568 100.357C59.2448 100.913 62.1229 98.9681 62.6854 96.0125Z" fill="#455A64"/>
<path opacity="0.06" d="M52.6458 98.1074C53.4703 99.301 54.7403 100.122 56.1766 100.389C57.6128 100.657 59.0977 100.349 60.3044 99.5332C61.5111 98.7177 62.341 97.4614 62.6113 96.0406C62.8816 94.6199 62.5703 93.1512 61.7458 91.9575C61.4356 91.511 61.0612 91.1117 60.6344 90.7722L60.8601 91.0814C61.2968 91.721 61.5728 92.4546 61.6649 93.2211C61.7569 93.9876 61.6624 94.7647 61.3894 95.4878C61.1163 96.2109 60.6726 96.8589 60.095 97.378C59.5175 97.897 58.823 98.2721 58.0693 98.4718C57.3155 98.6716 56.5244 98.6904 55.7619 98.5265C54.9994 98.3626 54.2875 98.0209 53.6856 97.5298C53.0836 97.0386 52.609 96.4123 52.3013 95.703C51.9935 94.9937 51.8616 94.2219 51.9165 93.452C51.6829 94.2331 51.6271 95.0557 51.7533 95.8606C51.8794 96.6655 52.1842 97.4328 52.6458 98.1074Z" fill="black"/>
<path opacity="0.3" d="M54.9729 92.3526C54.9705 92.7843 55.0998 93.2068 55.3439 93.5648C55.5879 93.9228 55.9354 94.1997 56.341 94.3593C56.7465 94.519 57.1913 94.554 57.6173 94.4597C58.0433 94.3655 58.4307 94.1464 58.7289 93.8311C59.0271 93.5158 59.2223 93.1189 59.2889 92.6922C59.3556 92.2655 59.2906 91.8288 59.1026 91.4391C58.9145 91.0495 58.6122 90.7249 58.2348 90.5079C57.8575 90.2908 57.4227 90.1914 56.9873 90.2225C56.7136 90.2313 56.4443 90.2935 56.1949 90.4054C55.9455 90.5172 55.7208 90.6767 55.5337 90.8745C55.3466 91.0723 55.2008 91.3047 55.1045 91.5583C55.0083 91.8119 54.9636 92.0818 54.9729 92.3526Z" fill="white"/>
<path opacity="0.1" d="M61.0859 94.0017C60.0439 93.16 58.6025 95.4447 57.0569 95.4103C55.5113 95.376 54.5387 94.4999 53.462 95.4103C52.3853 96.3208 54.3825 99.8252 57.8558 99.4473C61.3291 99.0694 62.562 95.187 61.0859 94.0017Z" fill="white"/>
<path d="M72.6082 91.6554C73.1706 88.6998 71.2043 85.8528 68.2164 85.2965C65.2284 84.7402 62.3503 86.6851 61.7879 89.6407C61.2255 92.5963 63.1917 95.4434 66.1797 95.9997C69.1676 96.556 72.0458 94.611 72.6082 91.6554Z" fill="#455A64"/>
<path opacity="0.06" d="M62.5687 93.7503C63.3931 94.9439 64.6632 95.7648 66.0994 96.0322C67.5357 96.2995 69.0205 95.9916 70.2272 95.1761C71.434 94.3606 72.2638 93.1043 72.5341 91.6835C72.8045 90.2628 72.4931 88.7941 71.6687 87.6004C71.3585 87.1539 70.984 86.7546 70.5572 86.4151L70.783 86.7243C71.2197 87.364 71.4957 88.0976 71.5877 88.864C71.6798 89.6305 71.5853 90.4076 71.3122 91.1307C71.0392 91.8538 70.5954 92.5018 70.0179 93.0209C69.4404 93.5399 68.7458 93.915 67.9921 94.1148C67.2384 94.3145 66.4473 94.3333 65.6848 94.1694C64.9223 94.0055 64.2104 93.6638 63.6084 93.1727C63.0064 92.6815 62.5318 92.0552 62.2241 91.3459C61.9164 90.6366 61.7845 89.8649 61.8393 89.0949C61.6058 89.876 61.55 90.6986 61.6761 91.5035C61.8022 92.3085 62.1071 93.0758 62.5687 93.7503Z" fill="black"/>
<path opacity="0.3" d="M64.8957 87.9955C64.8934 88.4273 65.0227 88.8497 65.2667 89.2077C65.5108 89.5657 65.8583 89.8426 66.2638 90.0022C66.6694 90.1619 67.1141 90.1969 67.5401 90.1027C67.9661 90.0084 68.3535 89.7893 68.6517 89.474C68.9499 89.1587 69.1451 88.7618 69.2118 88.3351C69.2785 87.9084 69.2135 87.4717 69.0254 87.082C68.8374 86.6924 68.535 86.3678 68.1577 86.1508C67.7803 85.9337 67.3456 85.8343 66.9102 85.8654C66.6365 85.8742 66.3672 85.9364 66.1178 86.0483C65.8683 86.1602 65.6436 86.3196 65.4566 86.5174C65.2695 86.7152 65.1236 86.9476 65.0274 87.2012C64.9311 87.4548 64.8865 87.7247 64.8957 87.9955Z" fill="white"/>
<path opacity="0.1" d="M71.0088 89.6446C69.9668 88.8029 68.5253 91.0876 66.9797 91.0533C65.4341 91.0189 64.4616 90.1428 63.3849 91.0533C62.3081 91.9637 64.3053 95.4681 67.7786 95.0902C71.2519 94.7123 72.4849 90.83 71.0088 89.6446Z" fill="white"/>
<path d="M80.5203 91.3419C81.0827 88.3863 79.1164 85.5394 76.1285 84.983C73.1405 84.4267 70.2624 86.3717 69.7 89.3273C69.1376 92.2829 71.1038 95.1299 74.0918 95.6863C77.0797 96.2426 79.9579 94.2975 80.5203 91.3419Z" fill="#455A64"/>
<path opacity="0.06" d="M70.4808 93.4368C71.3053 94.6305 72.5753 95.4513 74.0115 95.7187C75.4478 95.9861 76.9326 95.6782 78.1394 94.8626C79.3461 94.0471 80.1759 92.7908 80.4463 91.3701C80.7166 89.9494 80.4052 88.4806 79.5808 87.2869C79.2706 86.8404 78.8961 86.4411 78.4693 86.1016L78.6951 86.4108C79.1318 87.0505 79.4078 87.7841 79.4998 88.5506C79.5919 89.317 79.4974 90.0942 79.2243 90.8173C78.9513 91.5403 78.5075 92.1884 77.93 92.7074C77.3525 93.2265 76.6579 93.6015 75.9042 93.8013C75.1505 94.0011 74.3594 94.0198 73.5969 93.856C72.8344 93.6921 72.1225 93.3503 71.5205 92.8592C70.9186 92.3681 70.4439 91.7418 70.1362 91.0325C69.8285 90.3232 69.6966 89.5514 69.7514 88.7815C69.5179 89.5625 69.4621 90.3851 69.5882 91.1901C69.7143 91.995 70.0192 92.7623 70.4808 93.4368Z" fill="black"/>
<path opacity="0.3" d="M72.8078 87.682C72.8055 88.1138 72.9348 88.5362 73.1788 88.8942C73.4229 89.2522 73.7704 89.5291 74.1759 89.6888C74.5815 89.8484 75.0262 89.8834 75.4522 89.7892C75.8782 89.695 76.2656 89.4759 76.5638 89.1606C76.862 88.8453 77.0572 88.4483 77.1239 88.0216C77.1906 87.5949 77.1256 87.1582 76.9376 86.7686C76.7495 86.3789 76.4471 86.0544 76.0698 85.8373C75.6924 85.6203 75.2577 85.5208 74.8223 85.5519C74.5486 85.5608 74.2793 85.6229 74.0299 85.7348C73.7805 85.8467 73.5558 86.0061 73.3687 86.2039C73.1816 86.4018 73.0357 86.6341 72.9395 86.8878C72.8432 87.1414 72.7986 87.4113 72.8078 87.682Z" fill="white"/>
<path opacity="0.1" d="M78.9209 89.3312C77.8789 88.4894 76.4374 90.7742 74.8918 90.7398C73.3462 90.7055 72.3737 89.8294 71.297 90.7398C70.2203 91.6503 72.2174 95.1547 75.6907 94.7768C79.164 94.3988 80.397 90.5165 78.9209 89.3312Z" fill="white"/>
<path d="M79.0369 81.3572C79.5993 78.4016 77.633 75.5546 74.6451 74.9983C71.6571 74.442 68.779 76.3869 68.2166 79.3425C67.6542 82.2981 69.6204 85.1452 72.6084 85.7015C75.5963 86.2578 78.4745 84.3128 79.0369 81.3572Z" fill="#455A64"/>
<path opacity="0.06" d="M68.9974 83.4521C69.8219 84.6457 71.0919 85.4666 72.5281 85.7339C73.9644 86.0013 75.4492 85.6934 76.656 84.8779C77.8627 84.0624 78.6925 82.8061 78.9629 81.3853C79.2332 79.9646 78.9218 78.4959 78.0974 77.3022C77.7872 76.8557 77.4128 76.4564 76.9859 76.1169L77.2117 76.4261C77.6484 77.0657 77.9244 77.7994 78.0164 78.5658C78.1085 79.3323 78.014 80.1094 77.7409 80.8325C77.4679 81.5556 77.0241 82.2036 76.4466 82.7227C75.8691 83.2417 75.1745 83.6168 74.4208 83.8166C73.6671 84.0163 72.876 84.0351 72.1135 83.8712C71.351 83.7073 70.6391 83.3656 70.0371 82.8745C69.4352 82.3833 68.9605 81.757 68.6528 81.0477C68.3451 80.3384 68.2132 79.5667 68.268 78.7967C68.0345 79.5778 67.9787 80.4004 68.1048 81.2053C68.2309 82.0103 68.5358 82.7776 68.9974 83.4521Z" fill="black"/>
<path opacity="0.3" d="M71.3244 77.6973C71.3221 78.129 71.4514 78.5515 71.6954 78.9095C71.9395 79.2675 72.287 79.5444 72.6925 79.704C73.0981 79.8637 73.5428 79.8987 73.9688 79.8044C74.3948 79.7102 74.7822 79.4911 75.0804 79.1758C75.3786 78.8605 75.5738 78.4636 75.6405 78.0369C75.7072 77.6102 75.6422 77.1735 75.4542 76.7838C75.2661 76.3942 74.9637 76.0696 74.5864 75.8526C74.209 75.6355 73.7743 75.5361 73.3389 75.5672C73.0652 75.576 72.7959 75.6382 72.5465 75.7501C72.2971 75.862 72.0724 76.0214 71.8853 76.2192C71.6982 76.417 71.5523 76.6494 71.4561 76.903C71.3598 77.1566 71.3152 77.4265 71.3244 77.6973Z" fill="white"/>
<path opacity="0.1" d="M77.4375 79.3464C76.3955 78.5047 74.9541 80.7894 73.4084 80.7551C71.8628 80.7207 70.8903 79.8446 69.8136 80.7551C68.7369 81.6655 70.734 85.1699 74.2073 84.792C77.6806 84.4141 78.9136 80.5317 77.4375 79.3464Z" fill="white"/>
<path d="M67.3358 78.9099C67.8982 75.9543 65.9319 73.1073 62.9439 72.551C59.956 71.9947 57.0778 73.9396 56.5154 76.8952C55.953 79.8508 57.9193 82.6979 60.9072 83.2542C63.8952 83.8106 66.7733 81.8655 67.3358 78.9099Z" fill="#455A64"/>
<path opacity="0.06" d="M57.2962 81.0048C58.1207 82.1985 59.3907 83.0193 60.827 83.2867C62.2632 83.5541 63.748 83.2461 64.9548 82.4306C66.1615 81.6151 66.9914 80.3588 67.2617 78.9381C67.532 77.5174 67.2207 76.0486 66.3962 74.8549C66.086 74.4084 65.7116 74.0091 65.2847 73.6696L65.5105 73.9788C65.9472 74.6185 66.2232 75.3521 66.3152 76.1186C66.4073 76.885 66.3128 77.6622 66.0398 78.3852C65.7667 79.1083 65.323 79.7563 64.7454 80.2754C64.1679 80.7944 63.4734 81.1695 62.7196 81.3693C61.9659 81.5691 61.1748 81.5878 60.4123 81.4239C59.6498 81.2601 58.9379 80.9183 58.336 80.4272C57.734 79.9361 57.2594 79.3098 56.9516 78.6005C56.6439 77.8912 56.512 77.1194 56.5669 76.3494C56.3333 77.1305 56.2775 77.9531 56.4036 78.758C56.5298 79.563 56.8346 80.3303 57.2962 81.0048Z" fill="black"/>
<path opacity="0.3" d="M59.6233 75.25C59.6209 75.6818 59.7502 76.1042 59.9943 76.4622C60.2383 76.8202 60.5858 77.0971 60.9914 77.2568C61.3969 77.4164 61.8417 77.4514 62.2677 77.3572C62.6936 77.2629 63.081 77.0439 63.3792 76.7285C63.6774 76.4132 63.8727 76.0163 63.9393 75.5896C64.006 75.1629 63.941 74.7262 63.753 74.3366C63.5649 73.9469 63.2625 73.6224 62.8852 73.4053C62.5078 73.1883 62.0731 73.0888 61.6377 73.1199C61.364 73.1288 61.0947 73.1909 60.8453 73.3028C60.5959 73.4147 60.3712 73.5741 60.1841 73.7719C59.997 73.9697 59.8512 74.2021 59.7549 74.4557C59.6587 74.7094 59.614 74.9793 59.6233 75.25Z" fill="white"/>
<path opacity="0.1" d="M65.7363 76.8992C64.6943 76.0574 63.2529 78.3421 61.7073 78.3078C60.1617 78.2734 59.1891 77.3973 58.1124 78.3078C57.0357 79.2182 59.0329 82.7226 62.5062 82.3447C65.9794 81.9668 67.2124 78.0845 65.7363 76.8992Z" fill="white"/>
<path d="M73.6053 102.536C74.1677 99.5808 72.2014 96.7339 69.2135 96.1775C66.2255 95.6212 63.3474 97.5662 62.785 100.522C62.2225 103.477 64.1888 106.324 67.1767 106.881C70.1647 107.437 73.0429 105.492 73.6053 102.536Z" fill="#455A64"/>
<path opacity="0.06" d="M63.5658 104.631C64.3902 105.825 65.6602 106.646 67.0965 106.913C68.5328 107.181 70.0176 106.873 71.2243 106.057C72.4311 105.242 73.2609 103.985 73.5312 102.565C73.8015 101.144 73.4902 99.6751 72.6658 98.4814C72.3556 98.0349 71.9811 97.6356 71.5543 97.2961L71.7801 97.6053C72.2168 98.245 72.4927 98.9786 72.5848 99.7451C72.6768 100.512 72.5823 101.289 72.3093 102.012C72.0362 102.735 71.5925 103.383 71.015 103.902C70.4375 104.421 69.7429 104.796 68.9892 104.996C68.2355 105.196 67.4444 105.214 66.6818 105.05C65.9193 104.887 65.2075 104.545 64.6055 104.054C64.0035 103.563 63.5289 102.936 63.2212 102.227C62.9134 101.518 62.7815 100.746 62.8364 99.9759C62.6028 100.757 62.5471 101.58 62.6732 102.385C62.7993 103.189 63.1041 103.957 63.5658 104.631Z" fill="black"/>
<path opacity="0.3" d="M65.8928 98.8765C65.8904 99.3083 66.0197 99.7307 66.2638 100.089C66.5078 100.447 66.8553 100.724 67.2609 100.883C67.6665 101.043 68.1112 101.078 68.5372 100.984C68.9632 100.889 69.3506 100.67 69.6488 100.355C69.947 100.04 70.1422 99.6428 70.2089 99.2161C70.2755 98.7894 70.2106 98.3527 70.0225 97.9631C69.8345 97.5734 69.5321 97.2489 69.1547 97.0318C68.7774 96.8148 68.3426 96.7153 67.9073 96.7464C67.6335 96.7553 67.3642 96.8174 67.1148 96.9293C66.8654 97.0412 66.6407 97.2006 66.4536 97.3984C66.2665 97.5963 66.1207 97.8286 66.0244 98.0823C65.9282 98.3359 65.8835 98.6058 65.8928 98.8765Z" fill="white"/>
<path opacity="0.1" d="M72.0058 100.526C70.9638 99.6839 69.5224 101.969 67.9768 101.934C66.4312 101.9 65.4587 101.024 64.3819 101.934C63.3052 102.845 65.3024 106.349 68.7757 105.971C72.249 105.593 73.482 101.711 72.0058 100.526Z" fill="white"/>
<path d="M46.3442 106.812C46.9573 107.702 47.8238 108.393 48.8339 108.797C49.8441 109.2 50.9526 109.298 52.019 109.078C53.0854 108.858 54.0618 108.33 54.8247 107.56C55.5876 106.791 56.1026 105.815 56.3045 104.756C56.5065 103.698 56.3863 102.603 55.9592 101.612C55.5321 100.621 54.8172 99.7769 53.9051 99.1877C52.993 98.5984 51.9246 98.2901 50.8352 98.3018C49.7459 98.3134 48.6846 98.6445 47.7856 99.2532C46.5826 100.068 45.7553 101.321 45.4851 102.738C45.2149 104.155 45.5238 105.62 46.3442 106.812Z" fill="#455A64"/>
<path opacity="0.06" d="M46.344 106.829C46.7522 107.42 47.2742 107.926 47.88 108.317C48.4858 108.709 49.1637 108.978 49.8749 109.111C50.586 109.243 51.3165 109.236 52.0248 109.089C52.733 108.942 53.4051 108.658 54.0027 108.255C54.6002 107.851 55.1114 107.335 55.5072 106.735C55.903 106.136 56.1756 105.466 56.3095 104.762C56.4433 104.059 56.4358 103.336 56.2873 102.635C56.1388 101.935 55.8522 101.27 55.444 100.679C55.1389 100.228 54.7638 99.8284 54.3326 99.4936L54.5584 99.8028C54.9951 100.442 55.271 101.176 55.363 101.943C55.4551 102.709 55.3606 103.486 55.0875 104.209C54.8145 104.932 54.3707 105.58 53.7932 106.099C53.2157 106.618 52.5211 106.994 51.7674 107.193C51.0137 107.393 50.2226 107.412 49.4601 107.248C48.6976 107.084 47.9857 106.742 47.3837 106.251C46.7818 105.76 46.3071 105.134 45.9994 104.424C45.6917 103.715 45.5598 102.943 45.6147 102.173C45.3811 102.955 45.3254 103.777 45.4515 104.582C45.5776 105.387 45.8824 106.154 46.344 106.829Z" fill="black"/>
<path opacity="0.3" d="M48.6356 101.126C48.6333 101.557 48.7626 101.98 49.0066 102.338C49.2507 102.696 49.5982 102.973 50.0037 103.132C50.4093 103.292 50.8542 103.327 51.2801 103.233C51.7061 103.139 52.0935 102.919 52.3917 102.604C52.6899 102.289 52.8851 101.892 52.9518 101.465C53.0185 101.038 52.9535 100.602 52.7655 100.212C52.5774 99.8225 52.275 99.4979 51.8977 99.2809C51.5203 99.0638 51.0856 98.9644 50.6502 98.9954C50.3758 99.0021 50.1054 99.0627 49.8549 99.1738C49.6044 99.2849 49.3788 99.4442 49.1913 99.6425C49.0037 99.8409 48.858 100.074 48.7626 100.329C48.6672 100.583 48.624 100.854 48.6356 101.126Z" fill="white"/>
<path opacity="0.1" d="M54.7496 102.758C53.7076 101.916 52.2662 104.201 50.7206 104.166C49.175 104.132 48.2024 103.239 47.1257 104.166C46.049 105.094 48.0635 108.598 51.5021 108.237C54.9407 107.877 56.2258 103.96 54.7496 102.758Z" fill="white"/>
<path d="M57.0161 111.122C57.6291 112.012 58.4956 112.703 59.5058 113.107C60.516 113.51 61.6245 113.608 62.6909 113.388C63.7573 113.168 64.7337 112.64 65.4966 111.871C66.2595 111.101 66.7745 110.125 66.9764 109.067C67.1784 108.008 67.0582 106.913 66.6311 105.922C66.2039 104.931 65.4891 104.087 64.577 103.498C63.6649 102.909 62.5964 102.6 61.5071 102.612C60.4178 102.624 59.3565 102.955 58.4575 103.563C57.2545 104.378 56.4272 105.631 56.157 107.048C55.8867 108.465 56.1957 109.93 57.0161 111.122Z" fill="#455A64"/>
<path opacity="0.06" d="M57.0159 111.139C57.4241 111.73 57.9461 112.236 58.5519 112.627C59.1577 113.019 59.8356 113.288 60.5467 113.421C61.2579 113.553 61.9884 113.546 62.6966 113.399C63.4049 113.252 64.077 112.969 64.6745 112.565C65.2721 112.161 65.7832 111.645 66.1791 111.045C66.5749 110.446 66.8475 109.776 66.9813 109.072C67.1152 108.369 67.1077 107.646 66.9592 106.945C66.8107 106.245 66.5241 105.58 66.1159 104.989C65.8107 104.539 65.4357 104.139 65.0045 103.804L65.2303 104.113C65.667 104.753 65.9428 105.486 66.0349 106.253C66.1269 107.019 66.0325 107.796 65.7594 108.519C65.4864 109.242 65.0426 109.89 64.4651 110.409C63.8876 110.929 63.193 111.304 62.4393 111.503C61.6856 111.703 60.8945 111.722 60.132 111.558C59.3694 111.394 58.6576 111.052 58.0556 110.561C57.4536 110.07 56.979 109.444 56.6713 108.735C56.3636 108.025 56.2317 107.254 56.2865 106.484C56.053 107.265 55.9973 108.087 56.1234 108.892C56.2495 109.697 56.5543 110.464 57.0159 111.139Z" fill="black"/>
<path opacity="0.3" d="M59.3075 105.436C59.3052 105.867 59.4344 106.29 59.6785 106.648C59.9226 107.006 60.27 107.283 60.6756 107.442C61.0812 107.602 61.526 107.637 61.952 107.543C62.378 107.449 62.7654 107.23 63.0636 106.914C63.3618 106.599 63.557 106.202 63.6237 105.775C63.6904 105.349 63.6254 104.912 63.4373 104.522C63.2493 104.133 62.9469 103.808 62.5695 103.591C62.1922 103.374 61.7575 103.274 61.3221 103.306C61.0476 103.312 60.7773 103.373 60.5268 103.484C60.2763 103.595 60.0507 103.754 59.8631 103.953C59.6756 104.151 59.5299 104.384 59.4345 104.639C59.3391 104.893 59.2959 105.164 59.3075 105.436Z" fill="white"/>
<path opacity="0.1" d="M65.4215 107.068C64.3795 106.226 62.9381 108.511 61.3925 108.476C59.8469 108.442 58.8743 107.549 57.7976 108.476C56.7209 109.404 58.7354 112.908 62.174 112.548C65.6125 112.187 66.8976 108.27 65.4215 107.068Z" fill="white"/>
<path opacity="0.46" d="M43.5352 119.082C25.137 118.067 10.4751 102.781 10.4751 84.1332C10.4751 69.0052 20.1277 55.6497 34.4817 50.8983L37.9101 49.7666V24.3516H44.3174V54.6012C44.3174 54.6012 25.3367 61.0086 25.3367 83.9418C25.3284 98.9449 32.2932 111.618 43.5352 119.082Z" fill="#FFFEFF"/>
</svg>
