<svg width="85" height="97" viewBox="0 0 85 97" fill="none" xmlns="http://www.w3.org/2000/svg">
<path d="M71.9359 1.67603H72.0855L72.2237 1.73345L82.2878 5.91593L83.1096 6.25745L82.6338 7.0095L72.6859 22.7328V82.3108C72.6859 89.6467 66.838 95.6143 59.5957 95.6143H14.3402C7.09788 95.6143 1.25005 89.6467 1.25005 82.3108V3.59031C1.24211 2.5443 2.08334 1.67603 3.13506 1.67603H71.9359Z" fill="#FFFEFF" stroke="#5181FF" stroke-width="1.5"/>
<path d="M59.5957 91.1854C64.4014 91.1854 68.3135 87.2057 68.3135 82.3169V21.4345L76.5967 8.34659L71.2235 6.11102H5.61642V82.3107C5.61642 87.1995 9.52857 91.1793 14.3342 91.1793H59.5957V91.1854Z" fill="white"/>
<path d="M68.3135 26.5382C68.1746 38.4838 68.3135 82.3107 68.3135 82.3107C68.3135 87.1995 64.4013 91.1793 59.5956 91.1793H14.3402C9.53455 91.1793 5.62239 87.1995 5.62239 82.3107V26.5382C5.62239 26.5382 18.361 32.3544 29.2281 27.1769C40.2462 21.9197 60.8756 21.3485 68.3135 26.5382Z" fill="#FCDF97"/>
<path opacity="0.46" d="M27.2178 91.1854H14.3403C9.53459 91.1854 5.62243 87.2057 5.62243 82.3169V6.11102H27.2178V91.1854Z" fill="#FFFEFF"/>
<path d="M50.8718 26.5382H68.3135V27.8095H50.8718V26.5382Z" fill="#FFFEFF"/>
<path d="M50.8718 36.0946H68.3135V37.366H50.8718V36.0946Z" fill="#FFFEFF"/>
<path d="M50.8718 45.645H68.3135V46.9163H50.8718V45.645Z" fill="#FFFEFF"/>
<path d="M50.8718 55.2014H68.3135V56.4727H50.8718V55.2014Z" fill="#FFFEFF"/>
<path d="M50.8718 64.7517H68.3135V66.023H50.8718V64.7517Z" fill="#FFFEFF"/>
<path d="M50.8718 74.3081H68.3135V75.5795H50.8718V74.3081Z" fill="#FFFEFF"/>
<path d="M67.8548 85.1359H50.872V83.8646H68.1748C68.0963 84.2945 67.9937 84.7245 67.8548 85.1359Z" fill="#FFFEFF"/>
</svg>
