<svg width="85" height="96" viewBox="0 0 85 96" fill="none" xmlns="http://www.w3.org/2000/svg">
<path d="M71.9359 1.25H72.0855L72.2237 1.30743L82.2878 5.4899L83.1096 5.83143L82.6338 6.58348L72.6859 22.3067V81.8847C72.6859 89.2207 66.838 95.1883 59.5957 95.1883H14.3402C7.09788 95.1883 1.25005 89.2207 1.25005 81.8847V3.16428C1.24211 2.11827 2.08334 1.25 3.13506 1.25H71.9359Z" fill="#FFFEFF" stroke="#5181FF" stroke-width="1.5"/>
<path d="M59.5957 90.7594C64.4014 90.7594 68.3135 86.7796 68.3135 81.8909V21.0085L76.5967 7.92057L71.2235 5.685H5.61642V81.8847C5.61642 86.7735 9.52857 90.7533 14.3342 90.7533H59.5957V90.7594Z" fill="white"/>
<path d="M68.3135 26.1122C68.1746 38.0577 68.3135 81.8847 68.3135 81.8847C68.3135 86.7735 64.4013 90.7533 59.5956 90.7533H14.3402C9.53455 90.7533 5.62239 86.7735 5.62239 81.8847V26.1122C5.62239 26.1122 18.361 31.9283 29.2281 26.7509C40.2462 21.4936 60.8756 20.9224 68.3135 26.1122Z" fill="#DC5F1F"/>
<path opacity="0.46" d="M27.2178 90.7594H14.3403C9.53459 90.7594 5.62243 86.7796 5.62243 81.8909V5.685H27.2178V90.7594Z" fill="#FFFEFF"/>
<path d="M50.8718 26.1122H68.3135V27.3835H50.8718V26.1122Z" fill="#FFFEFF"/>
<path d="M50.8718 35.6686H68.3135V36.94H50.8718V35.6686Z" fill="#FFFEFF"/>
<path d="M50.8718 45.219H68.3135V46.4903H50.8718V45.219Z" fill="#FFFEFF"/>
<path d="M50.8718 54.7754H68.3135V56.0467H50.8718V54.7754Z" fill="#FFFEFF"/>
<path d="M50.8718 64.3257H68.3135V65.597H50.8718V64.3257Z" fill="#FFFEFF"/>
<path d="M50.8718 73.8821H68.3135V75.1534H50.8718V73.8821Z" fill="#FFFEFF"/>
<path d="M67.8548 84.7099H50.872V83.4386H68.1748C68.0963 83.8685 67.9937 84.2984 67.8548 84.7099Z" fill="#FFFEFF"/>
</svg>
