<svg width="90" height="124" viewBox="0 0 90 124" fill="none" xmlns="http://www.w3.org/2000/svg">
<path d="M32.9267 46.0304V46.3917L32.5836 46.5051C16.8469 51.7068 5.49179 66.523 5.50001 83.9998V84C5.50001 105.817 23.1834 123.5 45 123.5C66.8166 123.5 84.5 105.817 84.5 84C84.5 66.5231 73.1447 51.7067 57.4079 46.4967L57.065 46.3832V46.0221V19.734H32.9267V46.0304Z" fill="#FFFEFF" stroke="#5181FF"/>
<path d="M45.483 119.132C64.7881 119.132 80.4902 103.43 80.4902 84.1248C80.4902 68.9969 70.8376 55.6414 56.4753 50.89L53.0469 49.7583V24.3516H37.894V49.7583L34.4657 50.89C20.1033 55.6414 10.459 68.9969 10.459 84.1248C10.4757 103.43 26.1778 119.132 45.483 119.132Z" fill="white"/>
<path d="M14.5779 80.7036C15.6136 82.2 17.0743 83.3591 18.7757 84.0346C20.4771 84.71 22.3428 84.8714 24.1369 84.4984C25.9309 84.1254 27.5731 83.2348 28.8556 81.939C30.1382 80.6432 31.0037 79.0005 31.3427 77.2183C31.6818 75.4362 31.4793 73.5946 30.7607 71.9263C30.0421 70.258 28.8397 68.8378 27.3055 67.8452C25.7712 66.8526 23.9739 66.332 22.1407 66.3494C20.3075 66.3668 18.5207 66.9213 17.006 67.9428C14.9776 69.32 13.5833 71.4358 13.1283 73.8273C12.6733 76.2189 13.1945 78.6913 14.5779 80.7036Z" fill="#455A64"/>
<path opacity="0.06" d="M14.5768 80.7037C15.9655 82.7143 18.1048 84.097 20.5241 84.5474C22.9434 84.9978 25.4445 84.4791 27.4772 83.1054C29.5099 81.7317 30.9077 79.6155 31.363 77.2224C31.8184 74.8293 31.294 72.3552 29.9052 70.3445C29.3739 69.608 28.7441 68.9461 28.033 68.3769C28.1758 68.5281 28.3031 68.6929 28.4133 68.8688C29.6624 70.6608 30.1406 72.8701 29.7429 75.0109C29.3452 77.1517 28.1041 79.0486 26.2925 80.2841C24.481 81.5197 22.2473 81.9928 20.0831 81.5994C17.9189 81.2059 16.0014 79.9782 14.7523 78.1862C13.7076 76.6547 13.2132 74.8205 13.3482 72.9777C12.9728 74.2764 12.8882 75.6405 13.1004 76.9749C13.3126 78.3092 13.8164 79.5817 14.5768 80.7037Z" fill="black"/>
<path opacity="0.3" d="M18.4386 71.0969C18.435 71.8253 18.654 72.5378 19.0667 73.1412C19.4794 73.7445 20.0665 74.2105 20.7514 74.4782C21.4364 74.7458 22.1869 74.8027 22.9051 74.6413C23.6232 74.48 24.2754 74.1079 24.7762 73.5738C25.277 73.0397 25.6029 72.3684 25.7116 71.6479C25.8203 70.9275 25.7066 70.1913 25.3852 69.5359C25.0639 68.8804 24.5499 68.3362 23.9106 67.9745C23.2714 67.6129 22.5366 67.4505 21.8025 67.5088C20.8765 67.5464 20.0033 67.9448 19.3731 68.617C18.7429 69.2892 18.4069 70.1806 18.4386 71.0969Z" fill="white"/>
<path opacity="0.1" d="M28.7351 73.8747C26.98 72.4569 24.552 76.3054 21.9485 76.2475C19.345 76.1897 17.7068 74.7139 15.8931 76.2475C14.0794 77.7811 17.4726 83.742 23.2647 83.1343C29.0568 82.5267 31.2216 75.8713 28.7351 73.8747Z" fill="white"/>
<path d="M22.4806 108.966C23.5133 110.466 24.9729 111.63 26.6745 112.309C28.376 112.989 30.2432 113.154 32.0396 112.783C33.8359 112.413 35.4806 111.523 36.7656 110.227C38.0507 108.931 38.9182 107.288 39.2583 105.504C39.5985 103.72 39.3959 101.877 38.6764 100.207C37.9569 98.5373 36.7528 97.1162 35.2164 96.1237C33.68 95.1312 31.8805 94.6119 30.0456 94.6315C28.2107 94.6511 26.423 95.2088 24.9087 96.234C23.9022 96.9107 23.0407 97.7774 22.3737 98.7842C21.7066 99.791 21.2471 100.918 21.0216 102.101C20.796 103.284 20.8087 104.499 21.0591 105.677C21.3094 106.855 21.7926 107.973 22.4806 108.966Z" fill="#455A64"/>
<path opacity="0.06" d="M22.4809 108.966C23.8657 110.977 26.0013 112.361 28.4178 112.814C30.8344 113.267 33.3341 112.752 35.3668 111.382C37.3995 110.012 38.7987 107.9 39.2568 105.509C39.7148 103.119 39.1942 100.646 37.8093 98.6356C37.2862 97.884 36.6555 97.2115 35.9371 96.6391C36.0799 96.7903 36.2072 96.9551 36.3174 97.131C36.9823 98.0162 37.4597 99.025 37.7208 100.097C37.9819 101.169 38.0215 102.283 37.837 103.37C37.6525 104.458 37.2477 105.497 36.6472 106.426C36.0466 107.355 35.2625 108.155 34.342 108.777C33.4214 109.399 32.3833 109.831 31.2899 110.046C30.1966 110.262 29.0704 110.256 27.9792 110.031C26.8879 109.805 25.8539 109.364 24.9393 108.733C24.0246 108.103 23.2481 107.296 22.6564 106.362C21.6159 104.828 21.1219 102.995 21.2523 101.153C20.8593 102.464 20.7656 103.845 20.9781 105.196C21.1905 106.547 21.7039 107.835 22.4809 108.966Z" fill="black"/>
<path opacity="0.3" d="M26.3429 99.3301C26.3393 100.059 26.5583 100.771 26.971 101.374C27.3837 101.978 27.9708 102.444 28.6557 102.711C29.3406 102.979 30.0914 103.036 30.8095 102.875C31.5277 102.713 32.1797 102.341 32.6805 101.807C33.1813 101.273 33.5072 100.602 33.6159 99.8812C33.7246 99.1607 33.6109 98.4246 33.2895 97.7691C32.9682 97.1137 32.4542 96.5695 31.8149 96.2078C31.1757 95.8461 30.4409 95.6838 29.7068 95.742C28.7808 95.7797 27.9076 96.1781 27.2774 96.8503C26.6472 97.5224 26.3112 98.4139 26.3429 99.3301Z" fill="white"/>
<path opacity="0.1" d="M36.6404 102.108C34.8852 100.719 32.4572 104.539 29.8537 104.51C27.2502 104.481 25.6121 102.947 23.7984 104.51C21.9847 106.072 25.3779 111.975 31.17 111.368C36.962 110.76 39.1269 104.105 36.6404 102.108Z" fill="white"/>
<path d="M29.2524 94.4989C30.288 95.9953 31.7488 97.1544 33.4501 97.8298C35.1515 98.5052 37.0172 98.6667 38.8113 98.2937C40.6054 97.9207 42.2475 97.03 43.5301 95.7343C44.8126 94.4385 45.6781 92.7958 46.0172 91.0136C46.3563 89.2315 46.1537 87.3899 45.4351 85.7216C44.7165 84.0533 43.5142 82.6331 41.9799 81.6404C40.4457 80.6478 38.6484 80.1273 36.8152 80.1447C34.982 80.1621 33.1951 80.7166 31.6804 81.7381C30.673 82.4175 29.8109 83.2867 29.1435 84.2961C28.4761 85.3055 28.0163 86.4352 27.7908 87.6204C27.5653 88.8057 27.5784 90.0233 27.8292 91.2036C28.08 92.3839 28.5636 93.5038 29.2524 94.4989Z" fill="#455A64"/>
<path opacity="0.06" d="M29.2526 94.499C30.0036 95.5899 30.9837 96.5076 32.1261 97.1895C33.2685 97.8714 34.5464 98.3014 35.8721 98.4502C37.1979 98.5989 38.5404 98.463 39.8082 98.0515C41.0759 97.64 42.2391 96.9627 43.218 96.0659C44.197 95.1691 44.9688 94.0739 45.4807 92.8551C45.9926 91.6363 46.2327 90.3225 46.1844 89.0036C46.136 87.6846 45.8004 86.3915 45.2006 85.2125C44.6008 84.0335 43.7508 82.9965 42.7088 82.1721L43.0891 82.6641C44.3227 84.456 44.7862 86.6593 44.3775 88.7893C43.9688 90.9192 42.7214 92.8013 40.9098 94.0215C39.0982 95.2417 36.8709 95.7001 34.7177 95.2958C32.5644 94.8916 30.6617 93.6577 29.4281 91.8658C28.3749 90.3489 27.8794 88.5207 28.024 86.6862C27.6183 87.9956 27.518 89.3789 27.7309 90.7322C27.9437 92.0854 28.464 93.3733 29.2526 94.499Z" fill="black"/>
<path opacity="0.3" d="M33.1135 84.8921C33.11 85.6206 33.3288 86.3331 33.7414 86.9364C34.1541 87.5397 34.7415 88.0058 35.4264 88.2735C36.1113 88.5411 36.8619 88.598 37.58 88.4366C38.2981 88.2753 38.9504 87.9031 39.4511 87.369C39.9519 86.8349 40.2779 86.1637 40.3865 85.4432C40.4952 84.7227 40.3815 83.9866 40.0601 83.3311C39.7388 82.6757 39.2248 82.1315 38.5855 81.7698C37.9463 81.4081 37.2115 81.2458 36.4775 81.304C36.0177 81.3189 35.5655 81.4238 35.147 81.6126C34.7284 81.8014 34.3519 82.0705 34.0391 82.4041C33.7263 82.7378 33.4834 83.1294 33.3245 83.5565C33.1657 83.9836 33.0939 84.4375 33.1135 84.8921Z" fill="white"/>
<path opacity="0.1" d="M43.3817 87.67C41.6557 86.2522 39.2278 90.1007 36.6243 90.0717C34.0208 90.0428 32.3826 88.5092 30.5396 90.0717C29.1648 91.1713 32.1484 97.5372 37.9405 96.9296C43.7325 96.3219 45.8681 89.6666 43.3817 87.67Z" fill="white"/>
<path d="M62.3061 83.0648C63.3388 84.5652 64.7982 85.7289 66.4998 86.4084C68.2013 87.0879 70.0685 87.2528 71.8649 86.8821C73.6612 86.5114 75.3061 85.6219 76.5911 84.3262C77.8762 83.0304 78.7436 81.3866 79.0838 79.6029C79.4239 77.8193 79.2214 75.9758 78.5019 74.306C77.7824 72.6362 76.5783 71.2151 75.0419 70.2226C73.5055 69.2301 71.706 68.7108 69.871 68.7304C68.0361 68.75 66.2483 69.3077 64.734 70.3329C62.7076 71.7047 61.3142 73.8155 60.859 76.2023C60.4038 78.5891 60.9242 81.057 62.3061 83.0648Z" fill="#455A64"/>
<path opacity="0.06" d="M62.3058 83.0937C62.9785 84.1214 63.8525 85.0054 64.8761 85.6937C65.8997 86.382 67.0522 86.8607 68.2658 87.1014C69.4793 87.3422 70.7294 87.3402 71.9422 87.0956C73.155 86.8509 74.3059 86.3686 75.3272 85.6771C76.3486 84.9855 77.2197 84.0987 77.8892 83.0689C78.5586 82.039 79.0128 80.8871 79.225 79.6809C79.4373 78.4747 79.4033 77.2387 79.125 76.0457C78.8468 74.8527 78.3299 73.7269 77.6049 72.7346C77.0998 71.9779 76.4779 71.3042 75.762 70.738L76.1423 71.2588C76.8779 72.3363 77.3426 73.572 77.4976 74.8631C77.6527 76.1542 77.4937 77.4632 77.0338 78.6812C76.5738 79.8991 75.8262 80.9907 74.8534 81.8651C73.8806 82.7394 72.7108 83.3711 71.4412 83.7077C70.1716 84.0442 68.839 84.0758 67.5546 83.7997C66.2702 83.5237 65.0711 82.9481 64.0571 82.1208C63.0431 81.2935 62.2437 80.2386 61.7253 79.0438C61.207 77.849 60.9846 76.549 61.077 75.252C60.6688 76.5659 60.5675 77.9543 60.7803 79.3126C60.9931 80.6709 61.5147 81.9637 62.3058 83.0937Z" fill="black"/>
<path opacity="0.3" d="M66.1389 73.4869C66.1349 74.2142 66.3527 74.9258 66.7638 75.5288C67.1749 76.1318 67.7602 76.5982 68.4433 76.8672C69.1265 77.1361 69.8758 77.195 70.5934 77.0363C71.3109 76.8776 71.9633 76.5086 72.4656 75.9775C72.9679 75.4463 73.2967 74.7777 73.409 74.0589C73.5213 73.3402 73.4121 72.6046 73.0953 71.9482C72.7786 71.2919 72.269 70.7452 71.6334 70.3796C70.9978 70.014 70.2655 69.8465 69.5321 69.8988C68.6036 69.9365 67.7273 70.3339 67.0925 71.0052C66.4576 71.6765 66.115 72.568 66.1389 73.4869Z" fill="white"/>
<path opacity="0.1" d="M76.4352 76.2648C74.68 74.8469 72.2813 78.6955 69.6778 78.6376C67.0743 78.5797 65.4363 77.075 63.5933 78.6376C62.2185 79.7661 65.1729 86.1031 70.9942 85.4954C76.8155 84.8878 78.8924 78.2614 76.4352 76.2648Z" fill="white"/>
<path d="M44.2043 98.35C45.24 99.8464 46.7009 101.005 48.4023 101.681C50.1037 102.356 51.9692 102.518 53.7633 102.145C55.5574 101.772 57.1995 100.881 58.482 99.5854C59.7646 98.2896 60.6301 96.6468 60.9692 94.8647C61.3083 93.0826 61.1057 91.241 60.3871 89.5726C59.6685 87.9043 58.4662 86.4841 56.9319 85.4915C55.3977 84.4989 53.6003 83.9784 51.7671 83.9958C49.9339 84.0132 48.1471 84.5676 46.6324 85.5892C44.6103 86.9712 43.2211 89.0866 42.7665 91.4759C42.3119 93.8652 42.8286 96.3354 44.2043 98.35Z" fill="#455A64"/>
<path opacity="0.06" d="M44.2042 98.35C44.8919 99.3456 45.7711 100.197 46.7915 100.857C47.812 101.516 48.9538 101.971 50.1517 102.194C51.3496 102.417 52.5801 102.404 53.7732 102.157C54.9662 101.909 56.0983 101.432 57.1048 100.752C58.1113 100.072 58.9725 99.2019 59.6392 98.1925C60.306 97.1831 60.765 96.0537 60.9905 94.8687C61.2159 93.6838 61.2033 92.4665 60.9532 91.2864C60.703 90.1063 60.2205 88.9865 59.5328 87.9909C59.0119 87.2551 58.3919 86.5931 57.6899 86.0232L58.0409 86.5152C59.2745 88.3033 59.7394 90.5029 59.3334 92.6301C58.9274 94.7573 57.6839 96.6379 55.8762 97.8581C54.0685 99.0783 51.8448 99.5383 49.6943 99.1367C47.5438 98.7351 45.6426 97.5049 44.409 95.7168C43.3425 94.2061 42.8456 92.3732 43.0049 90.5373C42.6015 91.8454 42.4997 93.2263 42.7073 94.5784C42.9149 95.9305 43.4264 97.2194 44.2042 98.35Z" fill="black"/>
<path opacity="0.3" d="M48.0656 88.7432C48.0616 89.4705 48.2794 90.1821 48.6905 90.7851C49.1016 91.3881 49.6869 91.8545 50.3701 92.1235C51.0533 92.3924 51.8026 92.4513 52.5201 92.2926C53.2377 92.1339 53.8902 91.7649 54.3925 91.2338C54.8948 90.7026 55.2237 90.034 55.336 89.3152C55.4483 88.5965 55.3388 87.8609 55.0221 87.2046C54.7053 86.5482 54.196 86.0015 53.5603 85.6359C52.9247 85.2703 52.1924 85.1028 51.459 85.1551C50.5305 85.1928 49.6541 85.5902 49.0192 86.2615C48.3843 86.9329 48.0418 87.8242 48.0656 88.7432Z" fill="white"/>
<path opacity="0.1" d="M58.3634 91.5211C56.6082 90.1032 54.2095 93.9518 51.606 93.8939C49.0025 93.836 47.3643 92.3603 45.5214 93.8939C44.1172 94.9935 47.1011 101.359 52.9224 100.752C58.7437 100.144 60.8499 93.5177 58.3634 91.5211Z" fill="white"/>
<path d="M52.8572 109.493C53.8929 110.989 55.3538 112.148 57.0552 112.824C58.7565 113.499 60.6221 113.661 62.4162 113.288C64.2102 112.915 65.8523 112.024 67.1349 110.728C68.4175 109.433 69.283 107.79 69.622 106.008C69.9611 104.226 69.7586 102.384 69.04 100.716C68.3214 99.0473 67.119 97.6271 65.5848 96.6345C64.0505 95.6419 62.2532 95.1214 60.42 95.1388C58.5868 95.1561 56.8 95.7106 55.2852 96.7322C53.2569 98.1093 51.8626 100.225 51.4076 102.617C50.9526 105.008 51.4738 107.481 52.8572 109.493Z" fill="#455A64"/>
<path opacity="0.06" d="M52.8569 109.493C53.6079 110.584 54.5881 111.502 55.7305 112.184C56.8729 112.865 58.1506 113.295 59.4764 113.444C60.8022 113.593 62.1448 113.457 63.4126 113.046C64.6804 112.634 65.8435 111.957 66.8225 111.06C67.8014 110.163 68.5731 109.068 69.085 107.849C69.5969 106.63 69.837 105.317 69.7886 103.998C69.7403 102.679 69.4048 101.386 68.805 100.207C68.2052 99.0276 67.3553 97.9906 66.3132 97.1663C66.456 97.3175 66.5832 97.4822 66.6934 97.6582C67.4289 98.7345 67.894 99.969 68.0499 101.259C68.2059 102.549 68.0481 103.857 67.5898 105.075C67.1316 106.292 66.3861 107.384 65.4153 108.259C64.4446 109.134 63.2765 109.767 62.0085 110.106C60.7405 110.444 59.4091 110.479 58.125 110.205C56.8409 109.932 55.6414 109.36 54.6261 108.536C53.6107 107.712 52.8091 106.66 52.2876 105.467C51.7662 104.275 51.5402 102.977 51.6283 101.68C51.2353 102.991 51.1416 104.372 51.354 105.723C51.5665 107.075 52.0798 108.362 52.8569 109.493Z" fill="black"/>
<path opacity="0.3" d="M56.7178 99.8862C56.7139 100.613 56.9316 101.325 57.3427 101.928C57.7538 102.531 58.3391 102.998 59.0223 103.266C59.7055 103.535 60.4548 103.594 61.1723 103.436C61.8899 103.277 62.5424 102.908 63.0447 102.377C63.5471 101.846 63.8757 101.177 63.988 100.458C64.1003 99.7395 63.9911 99.0039 63.6743 98.3476C63.3575 97.6912 62.848 97.1445 62.2124 96.7789C61.5767 96.4133 60.8444 96.2458 60.1111 96.2981C59.65 96.3131 59.1966 96.4178 58.7765 96.6062C58.3563 96.7947 57.9778 97.0632 57.6627 97.3965C57.3475 97.7297 57.1019 98.1211 56.9398 98.5483C56.7776 98.9755 56.7022 99.4301 56.7178 99.8862Z" fill="white"/>
<path opacity="0.1" d="M67.0154 102.664C65.2602 101.275 62.8322 105.095 60.2287 105.066C57.6252 105.037 55.987 103.503 54.1734 105.066C52.3597 106.628 55.7531 112.531 61.5451 111.924C67.3372 111.316 69.5019 104.661 67.0154 102.664Z" fill="white"/>
<path d="M12.2716 92.6285C13.3043 94.1289 14.7639 95.2926 16.4655 95.9721C18.1671 96.6516 20.0341 96.8165 21.8304 96.4458C23.6268 96.0752 25.2716 95.1856 26.5567 93.8899C27.8417 92.5941 28.7092 90.9503 29.0493 89.1666C29.3895 87.383 29.187 85.5395 28.4675 83.8697C27.748 82.1999 26.5438 80.7789 25.0074 79.7863C23.471 78.7938 21.6715 78.2745 19.8366 78.2941C18.0017 78.3138 16.214 78.8715 14.6997 79.8966C13.6932 80.5734 12.8317 81.44 12.1647 82.4468C11.4977 83.4537 11.0382 84.5809 10.8126 85.7638C10.587 86.9467 10.5997 88.1621 10.8501 89.3401C11.1005 90.5181 11.5836 91.6356 12.2716 92.6285Z" fill="#455A64"/>
<path opacity="0.06" d="M12.2717 92.6285C13.6565 94.6392 15.7921 96.0233 18.2086 96.4764C20.6252 96.9296 23.1247 96.4146 25.1574 95.0447C27.1901 93.6748 28.5895 91.5623 29.0476 89.1719C29.5056 86.7815 28.985 84.309 27.6001 82.2983C27.077 81.5467 26.4463 80.8742 25.7279 80.3017L26.1082 80.7936C26.7731 81.6788 27.2504 82.6877 27.5115 83.7598C27.7726 84.8319 27.8121 85.9451 27.6276 87.0327C27.4431 88.1203 27.0385 89.1599 26.4379 90.089C25.8374 91.0181 25.0533 91.8176 24.1328 92.4396C23.2122 93.0616 22.1741 93.4933 21.0807 93.7088C19.9873 93.9243 18.8612 93.919 17.77 93.6935C16.6787 93.4679 15.6447 93.0266 14.73 92.3961C13.8154 91.7656 13.0389 90.9589 12.4472 90.0243C11.4067 88.4908 10.9126 86.6581 11.0431 84.8158C10.648 86.1265 10.5533 87.5078 10.7658 88.8593C10.9783 90.2108 11.4927 91.4984 12.2717 92.6285Z" fill="black"/>
<path opacity="0.3" d="M16.1319 83.0217C16.1284 83.7502 16.3472 84.4627 16.7599 85.066C17.1726 85.6693 17.7599 86.1353 18.4448 86.403C19.1297 86.6707 19.8803 86.7276 20.5984 86.5662C21.3165 86.4048 21.9688 86.0327 22.4696 85.4986C22.9703 84.9645 23.2963 84.2933 23.405 83.5728C23.5136 82.8523 23.3999 82.1161 23.0786 81.4607C22.7572 80.8052 22.2432 80.2611 21.604 79.8994C20.9647 79.5377 20.23 79.3753 19.4959 79.4336C18.5699 79.4713 17.6965 79.8697 17.0663 80.5419C16.436 81.214 16.1003 82.1055 16.1319 83.0217Z" fill="white"/>
<path opacity="0.1" d="M26.4293 85.8285C24.6741 84.4107 22.2463 88.2302 19.6428 88.2013C17.0393 88.1723 15.4011 86.6387 13.5875 88.2013C11.7738 89.7638 15.167 95.6668 20.959 95.0591C26.7511 94.4515 28.9158 87.7962 26.4293 85.8285Z" fill="white"/>
<path d="M46.7528 59.6732C46.2763 55.7994 42.7192 53.0618 38.8078 53.5586C34.8964 54.0555 32.1119 57.5986 32.5884 61.4725C33.0649 65.3463 36.622 68.084 40.5334 67.5872C44.4448 67.0904 47.2293 63.5471 46.7528 59.6732Z" fill="#455A64"/>
<path opacity="0.06" d="M35.1802 66.1473C35.9173 66.7161 36.7611 67.1347 37.6635 67.3792C38.5658 67.6238 39.5091 67.6894 40.4393 67.5724C41.3696 67.4555 42.2687 67.1582 43.0853 66.6975C43.9018 66.2369 44.6198 65.6219 45.1984 64.8877C45.7769 64.1535 46.2046 63.3144 46.457 62.4185C46.7094 61.5225 46.7817 60.5871 46.6695 59.6657C46.5574 58.7444 46.2631 57.8551 45.8036 57.0486C45.344 56.2422 44.7281 55.5343 43.991 54.9656C43.4355 54.53 42.8136 54.1845 42.1483 53.9418L42.5497 54.2343C43.3426 54.8514 43.9741 55.6483 44.3916 56.5586C44.809 57.469 45.0004 58.4663 44.9496 59.4677C44.8989 60.4691 44.6074 61.4455 44.0997 62.3156C43.592 63.1856 42.8828 63.9241 42.0309 64.4695C41.179 65.015 40.2092 65.3517 39.2023 65.4514C38.1955 65.5512 37.1807 65.4111 36.2425 65.043C35.3043 64.6749 34.4698 64.0893 33.8086 63.3351C33.1474 62.5808 32.6784 61.6798 32.4411 60.7069C32.4597 61.7611 32.7152 62.7964 33.189 63.7375C33.6629 64.6786 34.3431 65.5018 35.1802 66.1473Z" fill="black"/>
<path opacity="0.3" d="M35.7512 58.1939C35.9153 58.7305 36.2394 59.2043 36.681 59.5535C37.1227 59.9027 37.6613 60.1108 38.2262 60.1508C38.7912 60.1907 39.3561 60.0605 39.8473 59.7773C40.3384 59.494 40.7327 59.0709 40.9786 58.5634C41.2245 58.0558 41.3105 57.4874 41.2253 56.9327C41.1402 56.378 40.8878 55.8627 40.5013 55.4544C40.1148 55.0461 39.6121 54.7638 39.0592 54.6445C38.5062 54.5251 37.9288 54.5742 37.4024 54.7855C37.0679 54.9019 36.7595 55.0827 36.4951 55.3174C36.2308 55.5521 36.0156 55.8361 35.8621 56.153C35.7086 56.4699 35.6198 56.8134 35.6007 57.1637C35.5817 57.514 35.6328 57.8642 35.7512 58.1939Z" fill="white"/>
<path opacity="0.1" d="M43.9624 57.83C42.3417 57.2031 41.4597 60.5753 39.5436 61.1666C37.6276 61.7579 36.0654 61.0186 35.103 62.5912C34.1405 64.1638 38.0178 67.6944 42.1224 65.8861C46.227 64.0778 46.2556 58.7092 43.9624 57.83Z" fill="white"/>
<path d="M36.652 115.012C37.6847 116.513 39.144 117.676 40.8456 118.356C42.5472 119.035 44.4144 119.2 46.2107 118.829C48.0071 118.459 49.6519 117.569 50.937 116.274C52.222 114.978 53.0895 113.334 53.4296 111.55C53.7698 109.767 53.5673 107.923 52.8478 106.253C52.1283 104.584 50.9241 103.162 49.3877 102.17C47.8514 101.177 46.0518 100.658 44.2169 100.678C42.382 100.697 40.5941 101.255 39.0798 102.28C37.0535 103.652 35.6598 105.763 35.2047 108.15C34.7495 110.536 35.2701 113.004 36.652 115.012Z" fill="#455A64"/>
<path opacity="0.06" d="M36.6524 115.012C37.3382 116.008 38.2153 116.86 39.234 117.52C40.2527 118.18 41.3929 118.636 42.5894 118.86C43.786 119.084 45.0155 119.073 46.2078 118.828C47.4001 118.582 48.5317 118.107 49.5382 117.428C50.5447 116.75 51.4063 115.882 52.0737 114.875C52.7412 113.867 53.2015 112.739 53.4283 111.556C53.6552 110.372 53.644 109.156 53.3957 107.976C53.1473 106.797 52.6666 105.678 51.9809 104.682C51.468 103.931 50.8471 103.259 50.1379 102.685L50.489 103.177C51.1017 104.063 51.532 105.059 51.7556 106.109C51.9791 107.159 51.9915 108.242 51.7918 109.296C51.5921 110.351 51.1844 111.357 50.592 112.255C49.9995 113.154 49.234 113.929 48.3389 114.535C47.4438 115.141 46.4369 115.567 45.3754 115.788C44.314 116.009 43.2189 116.021 42.1527 115.824C41.0865 115.626 40.0702 115.223 39.1615 114.637C38.2529 114.051 37.4698 113.293 36.8571 112.408C35.7907 110.886 35.2942 109.044 35.453 107.199C35.0474 108.507 34.9447 109.889 35.1523 111.241C35.3599 112.593 35.8727 113.882 36.6524 115.012Z" fill="black"/>
<path opacity="0.3" d="M40.5129 105.405C40.5089 106.133 40.7267 106.844 41.1378 107.447C41.5489 108.05 42.1344 108.517 42.8175 108.786C43.5007 109.054 44.2498 109.113 44.9674 108.955C45.685 108.796 46.3375 108.427 46.8398 107.896C47.3421 107.365 47.6709 106.696 47.7832 105.977C47.8955 105.259 47.7861 104.523 47.4693 103.867C47.1526 103.21 46.6432 102.664 46.0076 102.298C45.372 101.932 44.6397 101.765 43.9063 101.817C42.9778 101.855 42.1014 102.252 41.4665 102.924C40.8316 103.595 40.4891 104.486 40.5129 105.405Z" fill="white"/>
<path opacity="0.1" d="M50.8111 108.183C49.0559 106.794 46.6572 110.614 44.0537 110.585C41.4502 110.556 39.812 109.022 37.9691 110.585C36.1262 112.148 39.5488 118.05 45.3701 117.443C51.1914 116.835 53.3854 110.18 50.8111 108.183Z" fill="white"/>
<path d="M42.0408 79.8804C43.0765 81.3768 44.5372 82.5359 46.2386 83.2113C47.94 83.8867 49.8057 84.0481 51.5997 83.6751C53.3938 83.3022 55.0359 82.4115 56.3185 81.1158C57.6011 79.82 58.4666 78.1773 58.8056 76.3951C59.1447 74.613 58.9422 72.7714 58.2236 71.1031C57.505 69.4347 56.3026 68.0146 54.7684 67.0219C53.2341 66.0293 51.4368 65.5088 49.6036 65.5262C47.7704 65.5436 45.9836 66.0981 44.4688 67.1196C42.4405 68.4968 41.0462 70.6126 40.5912 73.0041C40.1362 75.3956 40.6574 77.8681 42.0408 79.8804Z" fill="#455A64"/>
<path opacity="0.06" d="M42.0404 79.8804C42.7915 80.9713 43.7715 81.8891 44.9139 82.571C46.0563 83.2529 47.3342 83.6829 48.66 83.8317C49.9858 83.9804 51.3282 83.8444 52.596 83.4329C53.8638 83.0215 55.0269 82.3442 56.0059 81.4474C56.9848 80.5506 57.7567 79.4555 58.2686 78.2366C58.7805 77.0178 59.0205 75.704 58.9722 74.3851C58.9239 73.0661 58.5882 71.773 57.9884 70.594C57.3886 69.415 56.5387 68.378 55.4967 67.5537C55.6394 67.7049 55.7668 67.8697 55.877 68.0456C56.6125 69.1219 57.0776 70.3565 57.2335 71.6465C57.3895 72.9365 57.2317 74.2446 56.7734 75.4622C56.3152 76.6797 55.5697 77.7714 54.5989 78.6465C53.6282 79.5216 52.4601 80.1547 51.1921 80.4932C49.9241 80.8318 48.5926 80.8659 47.3086 80.5928C46.0245 80.3198 44.825 79.7474 43.8096 78.9232C42.7943 78.0991 41.9927 77.0471 41.4712 75.8547C40.9498 74.6623 40.7238 73.3639 40.8119 72.0677C40.4189 73.3787 40.3252 74.7596 40.5376 76.1108C40.7501 77.4619 41.2634 78.7495 42.0404 79.8804Z" fill="black"/>
<path opacity="0.3" d="M45.9015 70.2736C45.8979 71.0021 46.1167 71.7146 46.5294 72.3179C46.9421 72.9212 47.5294 73.3872 48.2143 73.6549C48.8992 73.9226 49.6498 73.9795 50.3679 73.8181C51.0861 73.6567 51.7383 73.2846 52.2391 72.7505C52.7399 72.2164 53.0658 71.5452 53.1745 70.8247C53.2832 70.1042 53.1695 69.3681 52.8481 68.7127C52.5268 68.0572 52.0127 67.513 51.3735 67.1513C50.7343 66.7896 49.9995 66.6273 49.2654 66.6855C48.3394 66.7232 47.466 67.1216 46.8358 67.7938C46.2056 68.466 45.8698 69.3574 45.9015 70.2736Z" fill="white"/>
<path opacity="0.1" d="M56.1978 73.0515C54.4427 71.6336 52.0149 75.4821 49.4114 75.4532C46.8079 75.4243 45.1697 73.8906 43.356 75.4532C41.5423 77.0157 44.9355 82.9187 50.7276 82.3111C56.5196 81.7034 58.6551 75.1928 56.1978 73.0515Z" fill="white"/>
<path d="M62.6889 97.7728C63.7216 99.2732 65.1812 100.437 66.8828 101.116C68.5843 101.796 70.4515 101.961 72.2478 101.59C74.0442 101.219 75.6889 100.33 76.9739 99.0342C78.259 97.7384 79.1264 96.0946 79.4666 94.311C79.8067 92.5273 79.6044 90.6838 78.8849 89.014C78.1654 87.3442 76.9613 85.9232 75.4249 84.9306C73.8885 83.9381 72.0888 83.4188 70.2539 83.4384C68.419 83.458 66.6313 84.0158 65.1169 85.0409C63.0906 86.4127 61.697 88.5235 61.2418 90.9103C60.7866 93.2971 61.307 95.7651 62.6889 97.7728Z" fill="#455A64"/>
<path opacity="0.06" d="M62.6893 97.8017C63.377 98.7973 64.2562 99.6492 65.2766 100.309C66.2971 100.968 67.4389 101.422 68.6369 101.645C69.8348 101.868 71.0653 101.856 72.2583 101.608C73.4513 101.361 74.5834 100.884 75.5899 100.203C76.5964 99.5232 77.4575 98.6536 78.1242 97.6442C78.7909 96.6348 79.2501 95.5054 79.4756 94.3204C79.7011 93.1355 79.6884 91.9182 79.4383 90.7381C79.1882 89.558 78.7054 88.4382 78.0178 87.4426C77.5038 86.6838 76.8721 86.01 76.1457 85.446L76.526 85.9669C77.2617 87.0443 77.7263 88.2801 77.8814 89.5712C78.0364 90.8622 77.8773 92.1713 77.4173 93.3892C76.9574 94.6072 76.2099 95.6988 75.2371 96.5731C74.2643 97.4474 73.0944 98.0792 71.8248 98.4157C70.5552 98.7522 69.2226 98.7838 67.9382 98.5077C66.6538 98.2317 65.4547 97.6561 64.4407 96.8288C63.4267 96.0015 62.6272 94.9466 62.1089 93.7518C61.5906 92.557 61.3684 91.257 61.4608 89.9601C61.0674 91.2758 60.9736 92.6613 61.186 94.0172C61.3984 95.3731 61.9118 96.6655 62.6893 97.8017Z" fill="black"/>
<path opacity="0.3" d="M66.55 88.1949C66.546 88.9222 66.7638 89.6338 67.1749 90.2368C67.586 90.8398 68.1713 91.3062 68.8545 91.5752C69.5376 91.8441 70.287 91.903 71.0045 91.7443C71.7221 91.5856 72.3746 91.2166 72.8769 90.6855C73.3792 90.1543 73.708 89.4858 73.8203 88.767C73.9326 88.0482 73.8232 87.3126 73.5065 86.6563C73.1897 85.9999 72.6803 85.4532 72.0447 85.0876C71.4091 84.722 70.6768 84.5545 69.9434 84.6068C69.4811 84.618 69.0257 84.7201 68.6038 84.9072C68.1818 85.0944 67.8018 85.3628 67.4859 85.6969C67.17 86.0309 66.9246 86.4238 66.7639 86.8527C66.6032 87.2816 66.5304 87.7379 66.55 88.1949Z" fill="white"/>
<path opacity="0.1" d="M76.8474 90.9439C75.0923 89.526 72.6643 93.3746 70.0608 93.3167C67.4573 93.2588 65.8191 91.7541 64.0054 93.3167C62.1917 94.8792 65.5851 100.782 71.3772 100.175C77.1692 99.5669 79.3339 92.9694 76.8474 90.9439Z" fill="white"/>
<path opacity="0.46" d="M43.5352 119.082C25.137 118.067 10.4751 102.781 10.4751 84.1332C10.4751 69.0052 20.1277 55.6497 34.4817 50.8983L37.9101 49.7666V24.3516H44.3174V54.6012C44.3174 54.6012 25.3367 61.0086 25.3367 83.9418C25.3284 98.9449 32.2932 111.618 43.5352 119.082Z" fill="#FFFEFF"/>
</svg>
