<svg width="85" height="96" viewBox="0 0 85 96" fill="none" xmlns="http://www.w3.org/2000/svg">
<path d="M71.9359 1.10229H72.0855L72.2237 1.15972L82.2878 5.3422L83.1096 5.68372L82.6338 6.43577L72.6859 22.159V81.737C72.6859 89.073 66.838 95.0406 59.5957 95.0406H14.3402C7.09788 95.0406 1.25005 89.073 1.25005 81.737V3.01658C1.24211 1.97057 2.08334 1.10229 3.13506 1.10229H71.9359Z" fill="#FFFEFF" stroke="#5181FF" stroke-width="1.5"/>
<path d="M59.5957 90.6117C64.4014 90.6117 68.3135 86.6319 68.3135 81.7431V20.8608L76.5967 7.77286L71.2235 5.53729H5.61642V81.737C5.61642 86.6258 9.52857 90.6056 14.3342 90.6056H59.5957V90.6117Z" fill="white"/>
<path d="M68.3135 25.9645C68.1746 37.91 68.3135 81.737 68.3135 81.737C68.3135 86.6258 64.4013 90.6056 59.5956 90.6056H14.3402C9.53455 90.6056 5.62239 86.6258 5.62239 81.737V25.9645C5.62239 25.9645 18.361 31.7806 29.2281 26.6032C40.2462 21.3459 60.8756 20.7748 68.3135 25.9645Z" fill="#BCBE4E"/>
<path opacity="0.46" d="M27.2178 90.6117H14.3403C9.53459 90.6117 5.62243 86.6319 5.62243 81.7431V5.53729H27.2178V90.6117Z" fill="#FFFEFF"/>
<path d="M50.8718 25.9645H68.3135V27.2358H50.8718V25.9645Z" fill="#FFFEFF"/>
<path d="M50.8718 35.5209H68.3135V36.7922H50.8718V35.5209Z" fill="#FFFEFF"/>
<path d="M50.8718 45.0713H68.3135V46.3426H50.8718V45.0713Z" fill="#FFFEFF"/>
<path d="M50.8718 54.6277H68.3135V55.899H50.8718V54.6277Z" fill="#FFFEFF"/>
<path d="M50.8718 64.178H68.3135V65.4493H50.8718V64.178Z" fill="#FFFEFF"/>
<path d="M50.8718 73.7344H68.3135V75.0057H50.8718V73.7344Z" fill="#FFFEFF"/>
<path d="M67.8548 84.5622H50.872V83.2909H68.1748C68.0963 83.7208 67.9937 84.1507 67.8548 84.5622Z" fill="#FFFEFF"/>
</svg>
