<svg width="85" height="96" viewBox="0 0 85 96" fill="none" xmlns="http://www.w3.org/2000/svg">
<path d="M71.9036 1.25305H72.0533L72.1915 1.31048L82.2556 5.49296L83.0774 5.83448L82.6016 6.58653L72.6536 22.3098V81.8878C72.6536 89.2238 66.8058 95.1913 59.5634 95.1913H14.308C7.06565 95.1913 1.21783 89.2238 1.21783 81.8878V3.16733C1.20988 2.12132 2.05112 1.25305 3.10283 1.25305H71.9036Z" fill="#FFFEFF" stroke="#5181FF" stroke-width="1.5"/>
<path d="M59.5635 90.7625C64.3692 90.7625 68.2813 86.7827 68.2813 81.8939V21.0115L76.5645 7.92362L71.1913 5.68805H5.58419V81.8878C5.58419 86.7765 9.49635 90.7563 14.302 90.7563H59.5635V90.7625Z" fill="white"/>
<path d="M68.2812 26.1152C68.1424 38.0608 68.2812 81.8877 68.2812 81.8877C68.2812 86.7765 64.3691 90.7563 59.5634 90.7563H14.308C9.50233 90.7563 5.59017 86.7765 5.59017 81.8877V26.1152C5.59017 26.1152 18.3288 31.9314 29.1959 26.7539C40.2139 21.4967 60.8433 20.9255 68.2812 26.1152Z" fill="#B12723"/>
<path opacity="0.46" d="M27.1855 90.7625H14.308C9.50236 90.7625 5.59021 86.7827 5.59021 81.8939V5.68805H27.1855V90.7625Z" fill="#FFFEFF"/>
<path d="M50.8396 26.1152H68.2812V27.3866H50.8396V26.1152Z" fill="#FFFEFF"/>
<path d="M50.8396 35.6717H68.2812V36.943H50.8396V35.6717Z" fill="#FFFEFF"/>
<path d="M50.8396 45.222H68.2812V46.4934H50.8396V45.222Z" fill="#FFFEFF"/>
<path d="M50.8396 54.7784H68.2812V56.0498H50.8396V54.7784Z" fill="#FFFEFF"/>
<path d="M50.8396 64.3287H68.2812V65.6001H50.8396V64.3287Z" fill="#FFFEFF"/>
<path d="M50.8396 73.8851H68.2812V75.1565H50.8396V73.8851Z" fill="#FFFEFF"/>
<path d="M67.8226 84.713H50.8397V83.4417H68.1426C68.0641 83.8716 67.9615 84.3015 67.8226 84.713Z" fill="#FFFEFF"/>
</svg>
