<svg width="103" height="147" viewBox="0 0 103 147" fill="none" xmlns="http://www.w3.org/2000/svg">
<path d="M37.9043 47.6545V22.5575H65.0963V47.6621V47.796L65.1632 47.912L100.333 108.855L100.333 108.855C103.592 114.499 99.5216 121.557 93.0054 121.557H9.99576C3.4789 121.55 -0.591024 114.499 2.66768 108.847C2.66771 108.847 2.66774 108.847 2.66777 108.847L37.8374 47.9044L37.9043 47.7884V47.6545Z" fill="#FFFEFF" stroke="#5181FF"/>
<path d="M92.9985 117.647C95.3701 117.647 96.5482 116.05 96.9434 115.365C97.3387 114.681 98.1292 112.864 96.9434 110.803L61.1885 48.8408V26.4681H41.806V48.8484L6.05106 110.803C4.86531 112.864 5.65581 114.673 6.05106 115.365C6.44631 116.05 7.62446 117.647 9.99597 117.647H92.9985Z" fill="#C5F4FC" fill-opacity="0.2"/>
<path fill-rule="evenodd" clip-rule="evenodd" d="M50.813 84.7633L44.3984 95.3644C50.0359 97.8021 63.0264 99.7548 70.1974 88.2513L70.1993 88.2524C70.2269 88.2067 70.2543 88.1611 70.2815 88.1154C70.307 88.0739 70.3324 88.0322 70.3578 87.9903L70.3561 87.9893C77.219 76.2993 69.4617 65.6979 64.6865 61.8351L58.272 72.4363C59.4749 75.0985 58.1508 78.6666 57.2725 80.2503C56.2781 81.7626 53.7307 84.5935 50.813 84.7633Z" fill="#FF9784"/>
<path fill-rule="evenodd" clip-rule="evenodd" d="M50.813 84.7633L44.3984 95.3644C49.4744 97.4624 61.3463 98.7382 68.5007 87.2247L68.5024 87.2257C68.5301 87.1797 68.5577 87.1339 68.5851 87.088C68.6104 87.0467 68.6357 87.0052 68.6609 86.9635L68.6594 86.9626C75.5389 75.2827 68.9003 65.3582 64.6865 61.8351L58.272 72.4363C59.2528 74.9641 57.8628 78.4922 56.9782 80.0721C55.9901 81.5882 53.5086 84.4591 50.813 84.7633Z" fill="#FFD69E"/>
<path fill-rule="evenodd" clip-rule="evenodd" d="M50.7441 84.8774C52.8601 85.6887 56.2297 85.694 58.7181 81.4373C61.1905 77.2078 59.8529 74.0001 58.3401 72.3239L58.241 72.4876C59.2221 75.0162 57.831 78.5457 56.9464 80.1249C55.9582 81.6411 53.4769 84.5115 50.7815 84.8156L50.7441 84.8774Z" fill="#E88F7D"/>
<path d="M63.3498 68.9782C61.9762 70.556 63.5715 73.0831 64.5409 74.1494C67.2239 75.7729 67.7129 73.4507 67.6848 70.6846C67.6567 67.9185 65.0669 67.006 63.3498 68.9782Z" fill="white" fill-opacity="0.2"/>
<path d="M69.177 79.0475C69.3682 78.0003 68.0137 77.3089 67.3125 77.0941C65.7167 77.0806 66.106 78.2238 66.8368 79.4269C67.5677 80.63 68.938 80.3565 69.177 79.0475Z" fill="white" fill-opacity="0.2"/>
<path d="M12.6143 100.602L23.1616 100.321L25.3297 116.532H11.6475L12.6143 100.602Z" fill="#FF9784"/>
<path d="M13.918 102.238L24.623 101.852L26.6334 116.532H12.9512L13.918 102.238Z" fill="#FFD69E"/>
<path d="M24.6533 101.874L23.1622 100.321L12.6113 100.586L13.9526 102.242L24.6533 101.874Z" fill="#E88F7D"/>
<path d="M17.4522 107.086C18.0678 106.852 17.9999 105.914 17.889 105.474C17.3851 104.625 16.9047 105.197 16.5019 105.969C16.0992 106.741 16.6828 107.379 17.4522 107.086Z" fill="white" fill-opacity="0.2"/>
<path d="M82.4176 101.271L91.0621 102.544L90.5208 116.079L79.3589 114.129L82.4176 101.271Z" fill="#FF9784"/>
<path d="M83.2484 102.791L92.0365 104.002L91.5847 116.264L80.4228 114.315L83.2484 102.791Z" fill="#FFD69E"/>
<path d="M92.0576 104.024L91.0624 102.544L82.4172 101.258L83.2755 102.799L92.0576 104.024Z" fill="#E88F7D"/>
<path d="M85.4409 107.25C85.9765 107.147 86.0548 106.372 86.027 105.997C85.7369 105.233 85.2634 105.631 84.8249 106.203C84.3863 106.776 84.7715 107.379 85.4409 107.25Z" fill="white" fill-opacity="0.2"/>
<path d="M33.6397 70.4259L42.9049 68.9579L46.6914 82.998L34.6301 84.5807L33.6397 70.4259Z" fill="#FF9784"/>
<path d="M34.979 71.717L44.371 70.1384L47.8414 82.8471L35.7802 84.4298L34.979 71.717Z" fill="#FFD69E"/>
<path d="M44.4005 70.1547L42.9063 68.9579L33.6362 70.4124L35.01 71.7168L44.4005 70.1547Z" fill="#E88F7D"/>
<path d="M38.6555 75.5822C39.171 75.3046 39.0026 74.4852 38.854 74.1102C38.3115 73.4202 37.9542 73.9801 37.6885 74.7074C37.4228 75.4346 38.011 75.9293 38.6555 75.5822Z" fill="white" fill-opacity="0.2"/>
<path d="M77.8221 106.207L76.0671 114.896L62.385 113.619L64.9604 102.416L77.8221 106.207Z" fill="#FF9784"/>
<path d="M76.2363 106.967L74.5374 115.805L62.1386 114.688L64.714 103.485L76.2363 106.967Z" fill="#FFD69E"/>
<path d="M74.5142 115.825L76.0668 114.897L77.8353 106.208L76.2272 106.994L74.5142 115.825Z" fill="#E88F7D"/>
<path d="M71.6026 108.948C71.6785 109.496 72.4596 109.617 72.8407 109.609C73.6307 109.356 73.2526 108.855 72.6962 108.38C72.1398 107.905 71.5077 108.263 71.6026 108.948Z" fill="white" fill-opacity="0.2"/>
<path d="M71.0052 91.7181L77.8251 89.1141L82.9606 99.1982L74.0299 102.338L71.0052 91.7181Z" fill="#FF9784"/>
<path d="M72.2324 92.4867L79.1312 89.7781L83.8124 98.8991L74.8817 102.039L72.2324 92.4867Z" fill="#FFD69E"/>
<path d="M79.156 89.7857L77.8262 89.114L71.0004 91.7086L72.2558 92.4815L79.156 89.7857Z" fill="#E88F7D"/>
<path d="M75.6516 94.84C75.9996 94.5459 75.74 93.949 75.5667 93.6872C75.0429 93.2488 74.8606 93.7325 74.7749 94.3289C74.6893 94.9253 75.2165 95.2077 75.6516 94.84Z" fill="white" fill-opacity="0.2"/>
<path fill-rule="evenodd" clip-rule="evenodd" d="M36.2754 89.7214L24.8369 80.8358C21.2418 87.0506 17.2126 101.869 29.5966 111.755L29.5951 111.757C29.6423 111.794 29.6895 111.83 29.7367 111.866C29.7834 111.903 29.8303 111.94 29.8775 111.976L29.8789 111.974C42.5209 121.529 55.8822 113.96 61.0149 108.94L49.5764 100.054C46.3214 101.09 42.357 99.0672 40.6382 97.8327C39.0169 96.4725 36.0767 93.1315 36.2754 89.7214Z" fill="#FF9784"/>
<path fill-rule="evenodd" clip-rule="evenodd" d="M36.2754 89.7214L24.8369 80.8358C21.7124 86.4448 18.6208 100.056 31.0187 109.924L31.0174 109.926C31.0646 109.963 31.1118 109.999 31.1589 110.035C31.2057 110.072 31.2526 110.109 31.2998 110.145L31.3011 110.144C43.9291 119.716 56.3528 113.354 61.0149 108.94L49.5764 100.054C46.5076 100.85 42.5984 98.7564 40.8849 97.5151C39.2584 96.1617 36.2629 92.8918 36.2754 89.7214Z" fill="#FFD69E"/>
<path fill-rule="evenodd" clip-rule="evenodd" d="M36.1533 89.627C34.9243 91.9737 34.4609 95.8853 39.0658 99.3519C43.6412 102.796 47.5471 101.678 49.6984 100.149L49.5202 100.011C46.4514 100.807 42.5422 98.713 40.8286 97.4718C39.2022 96.1184 36.2067 92.8485 36.2191 89.6781L36.1533 89.627Z" fill="#E88F7D"/>
<path d="M52.9027 106.418C51.2571 104.61 48.1067 106.119 46.7371 107.1C44.4882 109.995 47.1181 110.877 50.3335 111.22C53.549 111.563 54.9597 108.68 52.9027 106.418Z" fill="white" fill-opacity="0.2"/>
<path d="M40.422 111.819C41.6119 112.183 42.5984 110.704 42.9429 109.919C43.175 108.068 41.7949 108.365 40.2989 109.05C38.8029 109.736 38.9345 111.364 40.422 111.819Z" fill="white" fill-opacity="0.2"/>
<path opacity="0.46" d="M6.05106 115.365C5.65581 114.681 4.86531 112.864 6.05106 110.803L41.806 48.8408V26.4681H47.8412V54.0575L33.2853 117.647H9.99597C7.62446 117.647 6.44631 116.05 6.05106 115.365Z" fill="#FFFEFF"/>
</svg>
