<svg width="103" height="147" viewBox="0 0 103 147" fill="none" xmlns="http://www.w3.org/2000/svg">
<path d="M37.9043 49.345V24.248H65.0963V49.3526V49.4865L65.1632 49.6025L100.333 110.545L100.333 110.546C103.592 116.19 99.5216 123.248 93.0054 123.248H9.99576C3.4789 123.241 -0.591024 116.19 2.66768 110.538C2.66771 110.538 2.66774 110.538 2.66777 110.538L37.8374 49.5949L37.9043 49.4789V49.345Z" fill="#FFFEFF" stroke="#5181FF"/>
<path d="M92.9985 119.337C95.3701 119.337 96.5482 117.74 96.9434 117.056C97.3387 116.372 98.1292 114.554 96.9434 112.493L61.1885 50.5313V28.1587H41.806V50.5389L6.05106 112.493C4.86531 114.554 5.65581 116.364 6.05106 117.056C6.44631 117.74 7.62446 119.337 9.99597 119.337H92.9985Z" fill="#C5F4FC" fill-opacity="0.2"/>
<path d="M18.2928 114.271C18.8552 111.315 16.8889 108.468 13.901 107.912C10.913 107.356 8.03488 109.301 7.47246 112.256C6.91005 115.212 8.87631 118.059 11.8642 118.615C14.8522 119.172 17.7303 117.226 18.2928 114.271Z" fill="#ED1D2C"/>
<path opacity="0.23" d="M8.69199 116.029C9.06712 116.573 9.54701 117.039 10.1043 117.401C10.6616 117.762 11.2853 118.011 11.9399 118.134C12.5945 118.256 13.2672 118.25 13.9194 118.116C14.5717 117.982 15.1908 117.721 15.7414 117.35C16.292 116.979 16.7633 116.505 17.1285 115.953C17.4936 115.402 17.7455 114.785 17.8696 114.138C17.9936 113.49 17.9876 112.825 17.8517 112.179C17.7158 111.534 17.4528 110.922 17.0777 110.377C16.7965 109.962 16.4508 109.593 16.0535 109.285L16.2615 109.57C16.664 110.159 16.9182 110.835 17.003 111.542C17.0878 112.248 17.0008 112.964 16.7492 113.63C16.4976 114.297 16.0886 114.894 15.5564 115.372C15.0242 115.851 14.3843 116.196 13.6897 116.38C12.9951 116.564 12.2661 116.582 11.5635 116.431C10.8608 116.28 10.2048 115.965 9.6501 115.512C9.09538 115.06 8.65802 114.482 8.37445 113.829C8.09087 113.175 7.96923 112.464 8.01978 111.754C7.80365 112.471 7.75182 113.227 7.86809 113.967C7.98436 114.706 8.26587 115.41 8.69199 116.029Z" fill="white"/>
<path opacity="0.3" d="M10.9418 109.92C10.94 110.05 10.9779 110.177 11.0505 110.285C11.123 110.393 11.2269 110.477 11.3484 110.526C11.47 110.575 11.6035 110.586 11.7316 110.558C11.8598 110.53 11.9765 110.465 12.0664 110.371C12.1564 110.276 12.2155 110.157 12.2359 110.029C12.2563 109.901 12.2372 109.77 12.1809 109.653C12.1247 109.536 12.0339 109.438 11.9206 109.373C11.8073 109.307 11.6768 109.277 11.546 109.287C11.4641 109.289 11.3835 109.307 11.3087 109.34C11.2339 109.373 11.1665 109.42 11.1103 109.479C11.0541 109.538 11.0103 109.607 10.9814 109.683C10.9525 109.759 10.939 109.839 10.9418 109.92Z" fill="#6E0A0D"/>
<path d="M39.3572 114.76C39.9196 111.805 37.9533 108.958 34.9654 108.401C31.9775 107.845 29.0993 109.79 28.5369 112.746C27.9745 115.701 29.9408 118.548 32.9287 119.105C35.9166 119.661 38.7948 117.716 39.3572 114.76Z" fill="#ED1D2C"/>
<path opacity="0.23" d="M29.7564 116.518C30.1316 117.063 30.6115 117.529 31.1687 117.89C31.726 118.251 32.3498 118.5 33.0044 118.623C33.659 118.746 34.3316 118.74 34.9839 118.605C35.6361 118.471 36.2552 118.211 36.8058 117.84C37.3565 117.469 37.8278 116.994 38.1929 116.443C38.5581 115.892 38.8099 115.275 38.934 114.627C39.0581 113.979 39.052 113.314 38.9161 112.669C38.7803 112.024 38.5173 111.411 38.1422 110.867C37.861 110.452 37.5153 110.083 37.1179 109.774L37.326 110.059C37.7284 110.649 37.9826 111.325 38.0674 112.031C38.1523 112.737 38.0653 113.454 37.8137 114.12C37.562 114.786 37.153 115.383 36.6208 115.862C36.0887 116.34 35.4487 116.686 34.7542 116.87C34.0596 117.054 33.3306 117.071 32.6279 116.92C31.9253 116.769 31.2693 116.454 30.7146 116.002C30.1598 115.549 29.7225 114.972 29.4389 114.318C29.1553 113.665 29.0337 112.953 29.0842 112.244C28.8681 112.961 28.8163 113.717 28.9325 114.456C29.0488 115.195 29.3303 115.9 29.7564 116.518Z" fill="white"/>
<path opacity="0.3" d="M32.0062 110.41C32.0045 110.539 32.0423 110.667 32.1149 110.775C32.1875 110.883 32.2913 110.967 32.4129 111.015C32.5344 111.064 32.668 111.075 32.7961 111.048C32.9242 111.02 33.0409 110.955 33.1309 110.86C33.2209 110.766 33.2799 110.647 33.3004 110.519C33.3208 110.391 33.3016 110.259 33.2454 110.142C33.1891 110.025 33.0984 109.927 32.9851 109.862C32.8718 109.797 32.7412 109.767 32.6104 109.776C32.5286 109.778 32.4479 109.796 32.3731 109.829C32.2984 109.862 32.2309 109.909 32.1748 109.968C32.1186 110.027 32.0748 110.097 32.0459 110.172C32.0169 110.248 32.0034 110.329 32.0062 110.41Z" fill="#6E0A0D"/>
<path d="M45.1472 103.263C45.7097 100.307 43.7434 97.4602 40.7554 96.9039C37.7675 96.3476 34.8894 98.2925 34.327 101.248C33.7645 104.204 35.7308 107.051 38.7187 107.607C41.7067 108.163 44.5848 106.218 45.1472 103.263Z" fill="#ED1D2C"/>
<path opacity="0.23" d="M35.5465 105.02C35.9216 105.565 36.4015 106.031 36.9588 106.393C37.5161 106.754 38.1398 107.003 38.7944 107.126C39.449 107.248 40.1217 107.242 40.7739 107.108C41.4262 106.973 42.0453 106.713 42.5959 106.342C43.1465 105.971 43.6178 105.496 43.983 104.945C44.3481 104.394 44.6 103.777 44.7241 103.129C44.8481 102.482 44.842 101.817 44.7062 101.171C44.5703 100.526 44.3073 99.9138 43.9322 99.3691C43.651 98.954 43.3053 98.5854 42.908 98.2769L43.116 98.5618C43.5184 99.1512 43.7726 99.8273 43.8575 100.534C43.9423 101.24 43.8553 101.956 43.6037 102.622C43.3521 103.289 42.9431 103.886 42.4109 104.364C41.8787 104.842 41.2387 105.188 40.5442 105.372C39.8496 105.556 39.1206 105.574 38.418 105.423C37.7153 105.272 37.0593 104.957 36.5046 104.504C35.9499 104.051 35.5125 103.474 35.2289 102.821C34.9454 102.167 34.8237 101.456 34.8743 100.746C34.6581 101.463 34.6063 102.219 34.7226 102.958C34.8389 103.698 35.1204 104.402 35.5465 105.02Z" fill="white"/>
<path opacity="0.3" d="M37.7963 98.9122C37.7945 99.0419 37.8324 99.1691 37.9049 99.2772C37.9775 99.3852 38.0814 99.4691 38.2029 99.5178C38.3245 99.5665 38.458 99.5777 38.5861 99.5501C38.7143 99.5224 38.8309 99.4571 38.9209 99.3627C39.0109 99.2684 39.07 99.1493 39.0904 99.0212C39.1108 98.893 39.0916 98.7618 39.0354 98.6446C38.9791 98.5274 38.8884 98.4298 38.7751 98.3645C38.6618 98.2992 38.5313 98.2692 38.4005 98.2785C38.3186 98.2805 38.2379 98.2985 38.1632 98.3315C38.0884 98.3645 38.021 98.4119 37.9648 98.4708C37.9086 98.5297 37.8648 98.5991 37.8359 98.6748C37.807 98.7506 37.7935 98.8313 37.7963 98.9122Z" fill="#6E0A0D"/>
<path d="M49.3958 97.8213C50.9364 96.3173 50.9486 93.8414 49.4232 92.2911C47.8977 90.7408 45.4122 90.7033 43.8716 92.2073C42.331 93.7113 42.3187 96.1873 43.8441 97.7376C45.3696 99.2879 47.8552 99.3253 49.3958 97.8213Z" fill="#ED1D2C"/>
<path opacity="0.23" d="M43.042 94.9204C43.0391 95.3937 43.1297 95.8638 43.3088 96.304C43.4879 96.7442 43.7519 97.1459 44.0857 97.486C44.4196 97.8261 44.8168 98.0981 45.2546 98.2864C45.6924 98.4747 46.1622 98.5756 46.6373 98.5834C47.1124 98.5912 47.5834 98.5057 48.0234 98.3317C48.4635 98.1578 48.864 97.8989 49.202 97.5697C49.54 97.2406 49.809 96.8477 49.9935 96.4134C50.178 95.9792 50.2746 95.5121 50.2775 95.0388C50.2825 94.6801 50.2307 94.3222 50.1239 93.9784L50.1292 94.2308C50.124 94.7415 49.9962 95.2423 49.7567 95.6915C49.5172 96.1408 49.1729 96.5254 48.7523 96.8133C48.3317 97.1012 47.8471 97.2841 47.3389 97.3468C46.8307 97.4095 46.3136 97.3502 45.8307 97.1738C45.3477 96.9973 44.9129 96.7089 44.5624 96.3325C44.2119 95.956 43.9559 95.5026 43.8158 95.0098C43.6756 94.517 43.6554 93.9992 43.7567 93.4995C43.858 92.9998 44.0779 92.5327 44.3982 92.137C43.9777 92.4693 43.6377 92.8915 43.4031 93.373C43.1685 93.8545 43.0452 94.3831 43.042 94.9204Z" fill="white"/>
<path opacity="0.3" d="M46.864 92.2576C46.8098 92.333 46.78 92.4231 46.7783 92.5163C46.7766 92.6094 46.8032 92.7011 46.8546 92.7795C46.906 92.8578 46.9797 92.9191 47.0663 92.9554C47.1528 92.9916 47.248 93.0011 47.3394 92.9826C47.4309 92.964 47.5143 92.9184 47.5788 92.8516C47.6432 92.7847 47.6858 92.6999 47.7007 92.6081C47.7157 92.5163 47.7025 92.4218 47.6628 92.3371C47.623 92.2523 47.5587 92.1813 47.4781 92.1332C47.4292 92.1008 47.3745 92.0784 47.3171 92.0671C47.2598 92.0558 47.2008 92.056 47.1437 92.0676C47.0866 92.0791 47.0325 92.1019 46.9845 92.1345C46.9365 92.1671 46.8955 92.2089 46.864 92.2576Z" fill="#6E0A0D"/>
<path d="M64.4168 100.572C64.9792 97.6165 63.0129 94.7696 60.025 94.2132C57.037 93.6569 54.1589 95.6019 53.5965 98.5575C53.0341 101.513 55.0003 104.36 57.9883 104.916C60.9762 105.473 63.8544 103.528 64.4168 100.572Z" fill="#ED1D2C"/>
<path opacity="0.23" d="M54.816 102.33C55.1911 102.874 55.671 103.341 56.2283 103.702C56.7856 104.063 57.4093 104.312 58.0639 104.435C58.7186 104.558 59.3912 104.552 60.0435 104.417C60.6957 104.283 61.3148 104.023 61.8654 103.652C62.416 103.281 62.8874 102.806 63.2525 102.255C63.6177 101.703 63.8695 101.086 63.9936 100.439C64.1177 99.7913 64.1116 99.1259 63.9757 98.4807C63.8398 97.8355 63.5769 97.2231 63.2017 96.6785C62.9205 96.2633 62.5749 95.8947 62.1775 95.5862L62.3855 95.8711C62.788 96.4606 63.0422 97.1366 63.127 97.8429C63.2118 98.5492 63.1249 99.2653 62.8732 99.9316C62.6216 100.598 62.2126 101.195 61.6804 101.673C61.1482 102.152 60.5083 102.497 59.8137 102.681C59.1192 102.866 58.3902 102.883 57.6875 102.732C56.9848 102.581 56.3288 102.266 55.7741 101.813C55.2194 101.361 54.782 100.784 54.4985 100.13C54.2149 99.4764 54.0933 98.7652 54.1438 98.0557C53.9277 98.7727 53.8758 99.5284 53.9921 100.268C54.1084 101.007 54.3899 101.712 54.816 102.33Z" fill="white"/>
<path opacity="0.3" d="M57.0658 96.2216C57.064 96.3513 57.1019 96.4785 57.1745 96.5865C57.247 96.6946 57.3509 96.7784 57.4724 96.8271C57.594 96.8758 57.7276 96.8871 57.8557 96.8594C57.9838 96.8317 58.1005 96.7664 58.1905 96.6721C58.2804 96.5777 58.3395 96.4586 58.3599 96.3305C58.3804 96.2024 58.3612 96.0711 58.3049 95.954C58.2487 95.8368 58.158 95.7391 58.0447 95.6738C57.9314 95.6085 57.8008 95.5785 57.67 95.5878C57.5881 95.5898 57.5075 95.6079 57.4327 95.6409C57.3579 95.6739 57.2905 95.7212 57.2343 95.7801C57.1782 95.839 57.1344 95.9084 57.1054 95.9842C57.0765 96.0599 57.063 96.1406 57.0658 96.2216Z" fill="#6E0A0D"/>
<path d="M37.1808 90.0359C37.8442 86.5497 35.5249 83.1917 32.0006 82.5355C28.4762 81.8793 25.0814 84.1734 24.418 87.6596C23.7546 91.1458 26.0739 94.504 29.5982 95.1602C33.1226 95.8164 36.5174 93.5222 37.1808 90.0359Z" fill="#ED1D2C"/>
<path opacity="0.23" d="M25.8566 92.1092C26.2991 92.7516 26.8651 93.3015 27.5225 93.7276C28.1798 94.1536 28.9155 94.4474 29.6876 94.5922C30.4598 94.7369 31.2532 94.7299 32.0225 94.5713C32.7919 94.4128 33.5221 94.106 34.1716 93.6683C34.821 93.2306 35.377 92.6707 35.8077 92.0204C36.2384 91.3702 36.5355 90.6424 36.6818 89.8787C36.8282 89.1149 36.821 88.3301 36.6607 87.5691C36.5005 86.8081 36.1903 86.0857 35.7478 85.4433C35.4161 84.9536 35.0084 84.5188 34.5397 84.1549L34.7851 84.491C35.2598 85.1863 35.5596 85.9837 35.6597 86.8168C35.7597 87.6499 35.6571 88.4946 35.3603 89.2805C35.0635 90.0664 34.5811 90.7708 33.9534 91.335C33.3256 91.8992 32.5708 92.3068 31.7516 92.524C30.9323 92.7411 30.0724 92.7615 29.2436 92.5834C28.4148 92.4053 27.641 92.0338 26.9867 91.5C26.3324 90.9662 25.8165 90.2854 25.4821 89.5145C25.1476 88.7435 25.0041 87.9046 25.0637 87.0677C24.8088 87.9135 24.7477 88.8049 24.8848 89.677C25.022 90.5491 25.354 91.3799 25.8566 92.1092Z" fill="white"/>
<path opacity="0.3" d="M28.5102 84.9044C28.5081 85.0573 28.5528 85.2074 28.6384 85.3348C28.724 85.4623 28.8465 85.5612 28.9898 85.6186C29.1332 85.6761 29.2908 85.6893 29.4419 85.6567C29.593 85.6241 29.7306 85.547 29.8368 85.4357C29.9429 85.3244 30.0126 85.184 30.0367 85.0329C30.0608 84.8817 30.0381 84.7269 29.9718 84.5887C29.9054 84.4505 29.7984 84.3353 29.6648 84.2583C29.5312 84.1812 29.3771 84.1459 29.2229 84.1569C29.1263 84.1592 29.0312 84.1805 28.943 84.2194C28.8548 84.2583 28.7753 84.3142 28.709 84.3837C28.6427 84.4532 28.5911 84.535 28.5569 84.6243C28.5228 84.7137 28.5069 84.8089 28.5102 84.9044Z" fill="#6E0A0D"/>
<path d="M70.3421 116.612C73.1061 114.306 73.4496 110.181 71.1093 107.398C68.769 104.615 64.6311 104.228 61.8671 106.534C59.1031 108.84 58.7595 112.965 61.0998 115.748C63.4401 118.531 67.578 118.918 70.3421 116.612Z" fill="#ED1D2C"/>
<path opacity="0.23" d="M60.1303 110.948C60.0636 111.736 60.1533 112.532 60.3944 113.289C60.6354 114.046 61.023 114.75 61.5351 115.36C62.0472 115.971 62.6737 116.476 63.3788 116.847C64.0839 117.218 64.8538 117.447 65.6447 117.522C66.4355 117.597 67.2317 117.516 67.9879 117.283C68.744 117.051 69.4454 116.672 70.0517 116.167C70.6581 115.663 71.1576 115.043 71.5218 114.343C71.8861 113.644 72.1079 112.878 72.1745 112.089C72.2297 111.492 72.19 110.889 72.0568 110.302L72.0329 110.723C71.9574 111.574 71.6792 112.392 71.2213 113.109C70.7635 113.827 70.1394 114.423 69.4009 114.848C68.6623 115.273 67.8307 115.514 66.9755 115.553C66.1203 115.591 65.2662 115.424 64.4842 115.067C63.7022 114.71 63.0151 114.173 62.4801 113.5C61.945 112.826 61.5776 112.037 61.4083 111.198C61.239 110.358 61.2728 109.492 61.5069 108.673C61.7409 107.853 62.1684 107.103 62.7539 106.485C62.0096 106.984 61.3879 107.644 60.9341 108.416C60.4802 109.187 60.2057 110.053 60.1303 110.948Z" fill="white"/>
<path opacity="0.3" d="M66.848 107.008C66.7479 107.127 66.6864 107.273 66.6714 107.428C66.6565 107.583 66.6888 107.739 66.7642 107.877C66.8397 108.014 66.9546 108.126 67.0941 108.197C67.2335 108.269 67.391 108.297 67.5458 108.278C67.7007 108.259 67.8457 108.194 67.9619 108.091C68.078 107.988 68.16 107.852 68.1969 107.701C68.2339 107.55 68.2241 107.391 68.169 107.245C68.1138 107.098 68.0158 106.971 67.8878 106.881C67.8106 106.82 67.7223 106.776 67.6281 106.75C67.534 106.723 67.4357 106.716 67.339 106.728C67.2423 106.74 67.1492 106.77 67.0649 106.819C66.9806 106.867 66.9069 106.931 66.848 107.008Z" fill="#6E0A0D"/>
<path d="M47.5934 87.1497C49.2402 84.7235 48.5831 81.4159 46.1255 79.7619C43.668 78.108 40.3408 78.734 38.6939 81.1603C37.047 83.5865 37.7041 86.8942 40.1617 88.5481C42.6192 90.2021 45.9465 89.576 47.5934 87.1497Z" fill="#ED1D2C"/>
<path opacity="0.23" d="M38.325 85.0066C38.4498 85.639 38.6986 86.2417 39.0574 86.7805C39.4161 87.3192 39.8777 87.7834 40.4157 88.1465C40.9538 88.5097 41.5578 88.7646 42.1933 88.8968C42.8288 89.029 43.4832 89.0359 44.1194 88.917C44.7555 88.7981 45.3609 88.5559 45.9008 88.2041C46.4408 87.8523 46.9048 87.3978 47.2664 86.8666C47.628 86.3354 47.88 85.7379 48.0082 85.1081C48.1363 84.4784 48.1381 83.8288 48.0133 83.1964C47.9224 82.7163 47.7558 82.2527 47.5197 81.823L47.5956 82.1584C47.7275 82.8414 47.6932 83.5445 47.4958 84.2091C47.2983 84.8738 46.9434 85.4807 46.4605 85.9794C45.9776 86.478 45.3806 86.854 44.7194 87.0759C44.0582 87.2978 43.3521 87.3593 42.6595 87.2552C41.967 87.1511 41.3082 86.8844 40.738 86.4774C40.1679 86.0704 39.703 85.5349 39.3819 84.9154C39.0608 84.2959 38.8929 83.6103 38.8922 82.9159C38.8915 82.2215 39.0579 81.5382 39.3777 80.9231C38.9069 81.4809 38.5681 82.1368 38.3859 82.8432C38.2038 83.5496 38.1831 84.2886 38.325 85.0066Z" fill="white"/>
<path opacity="0.3" d="M42.7007 80.4132C42.649 80.5286 42.6336 80.657 42.6567 80.7818C42.6798 80.9065 42.7403 81.0217 42.8302 81.1123C42.92 81.2029 43.0352 81.2646 43.1605 81.2895C43.2858 81.3143 43.4154 81.301 43.5324 81.2514C43.6494 81.2018 43.7484 81.1182 43.8162 81.0115C43.8841 80.9048 43.9177 80.78 43.9127 80.6534C43.9078 80.5268 43.8644 80.4043 43.7883 80.3021C43.7123 80.1998 43.6071 80.1224 43.4864 80.0802C43.4124 80.0503 43.3333 80.0352 43.2537 80.0358C43.174 80.0364 43.0954 80.0526 43.0223 80.0836C42.9493 80.1145 42.8833 80.1596 42.8281 80.2162C42.7729 80.2728 42.7296 80.3398 42.7007 80.4132Z" fill="#6E0A0D"/>
<path d="M74.8208 99.604C76.244 97.5072 75.6761 94.6487 73.5523 93.2194C71.4285 91.79 68.553 92.3311 67.1298 94.4278C65.7065 96.5246 66.2744 99.3831 68.3982 100.812C70.522 102.242 73.3975 101.701 74.8208 99.604Z" fill="#ED1D2C"/>
<path opacity="0.23" d="M66.8102 97.7519C66.9181 98.2984 67.1331 98.8193 67.4431 99.2849C67.7532 99.7505 68.1521 100.152 68.6171 100.465C69.0821 100.779 69.6041 101 70.1532 101.114C70.7024 101.228 71.268 101.234 71.8178 101.131C72.3675 101.029 72.8907 100.819 73.3573 100.515C73.824 100.211 74.225 99.8184 74.5375 99.3593C74.85 98.9002 75.0678 98.3838 75.1785 97.8396C75.2892 97.2954 75.2907 96.734 75.1829 96.1875C75.1044 95.7725 74.9604 95.372 74.7564 95.0006L74.8219 95.2904C74.9359 95.8807 74.9063 96.4883 74.7357 97.0627C74.5651 97.6371 74.2583 98.1616 73.841 98.5926C73.4236 99.0235 72.9077 99.3484 72.3363 99.5402C71.7649 99.732 71.1546 99.7851 70.5561 99.6951C69.9576 99.6052 69.3883 99.3747 68.8956 99.023C68.4029 98.6713 68.0011 98.2084 67.7236 97.673C67.4461 97.1377 67.301 96.5452 67.3004 95.9451C67.2998 95.345 67.4436 94.7545 67.72 94.2229C67.3131 94.7049 67.0203 95.2718 66.8629 95.8823C66.7055 96.4927 66.6876 97.1314 66.8102 97.7519Z" fill="white"/>
<path opacity="0.3" d="M70.5925 93.7823C70.5477 93.8819 70.5345 93.993 70.5544 94.1008C70.5744 94.2085 70.6266 94.3081 70.7043 94.3864C70.782 94.4647 70.8815 94.5181 70.9898 94.5395C71.0981 94.561 71.2101 94.5495 71.3112 94.5067C71.4124 94.4638 71.4978 94.3915 71.5565 94.2993C71.6151 94.2071 71.6442 94.0992 71.6399 93.9898C71.6356 93.8804 71.5981 93.7746 71.5324 93.6862C71.4667 93.5978 71.3757 93.531 71.2715 93.4944C71.2075 93.4686 71.1392 93.4556 71.0703 93.4561C71.0015 93.4566 70.9335 93.4706 70.8704 93.4974C70.8073 93.5241 70.7502 93.5631 70.7025 93.612C70.6548 93.6609 70.6174 93.7188 70.5925 93.7823Z" fill="#6E0A0D"/>
<path d="M52.5369 85.3142C51.5063 88.2645 53.0902 91.4906 56.0747 92.52C59.0592 93.5493 62.3141 91.9921 63.3448 89.0417C64.3754 86.0914 62.7915 82.8651 59.807 81.8358C56.8225 80.8065 53.5676 82.3638 52.5369 85.3142Z" fill="#ED1D2C"/>
<path opacity="0.23" d="M62.6705 84.9791C62.3685 84.3621 61.9469 83.8096 61.4297 83.3531C60.9125 82.8967 60.3099 82.5452 59.6562 82.3188C59.0024 82.0924 58.3105 81.9955 57.6198 82.0337C56.9291 82.0718 56.2532 82.2442 55.6306 82.5411C55.0081 82.838 54.4511 83.2535 53.9915 83.7639C53.5319 84.2743 53.1786 84.8696 52.952 85.5158C52.7253 86.1621 52.6296 86.8466 52.6703 87.5302C52.7111 88.2139 52.8874 88.8834 53.1894 89.5004C53.4147 89.97 53.7133 90.4017 54.0743 90.7795L53.9042 90.4549C53.5811 89.7877 53.4235 89.0542 53.4446 88.3155C53.4656 87.5769 53.6647 86.8545 54.0253 86.2085C54.3859 85.5625 54.8976 85.0116 55.5176 84.6017C56.1377 84.1919 56.8481 83.9349 57.5899 83.8521C58.3316 83.7694 59.0832 83.8634 59.782 84.1261C60.4808 84.3889 61.1065 84.813 61.607 85.3629C62.1076 85.9129 62.4685 86.5728 62.6597 87.2878C62.8509 88.0028 62.8669 88.7521 62.7063 89.4733C63.0382 88.7697 63.2072 88.0012 63.201 87.2238C63.1949 86.4464 63.0136 85.6796 62.6705 84.9791Z" fill="white"/>
<path opacity="0.3" d="M59.4232 90.9099C59.4448 90.7769 59.4254 90.6404 59.3674 90.5183C59.3094 90.3962 59.2156 90.2941 59.0981 90.2255C58.9807 90.1568 58.8452 90.1248 58.7094 90.1336C58.5735 90.1424 58.4436 90.1916 58.3367 90.2748C58.2298 90.3579 58.1509 90.4712 58.1103 90.5997C58.0697 90.7282 58.0692 90.866 58.1091 90.995C58.1489 91.124 58.2272 91.2382 58.3336 91.3227C58.4399 91.4072 58.5695 91.458 58.7053 91.4684C58.7897 91.4789 58.8753 91.4727 58.9572 91.4503C59.0391 91.4278 59.1156 91.3895 59.1824 91.3376C59.2491 91.2857 59.3047 91.2212 59.3461 91.1477C59.3874 91.0743 59.4136 90.9935 59.4232 90.9099Z" fill="#6E0A0D"/>
<path d="M47.7293 73.5601C46.6987 76.5105 48.2826 79.7366 51.2671 80.766C54.2516 81.7953 57.5065 80.238 58.5372 77.2877C59.5678 74.3374 57.9839 71.1111 54.9994 70.0818C52.0149 69.0524 48.76 70.6098 47.7293 73.5601Z" fill="#ED1D2C"/>
<path opacity="0.23" d="M57.8629 73.2251C57.5609 72.6081 57.1393 72.0556 56.6221 71.5991C56.1049 71.1426 55.5023 70.7912 54.8485 70.5648C54.1948 70.3384 53.5028 70.2415 52.8121 70.2797C52.1214 70.3178 51.4455 70.4902 50.823 70.7871C50.2005 71.084 49.6435 71.4994 49.1839 72.0098C48.7243 72.5203 48.371 73.1156 48.1443 73.7618C47.9177 74.408 47.822 75.0925 47.8627 75.7762C47.9035 76.4599 48.0798 77.1293 48.3818 77.7464C48.6071 78.2159 48.9057 78.6476 49.2667 79.0255L49.0966 78.7009C48.7735 78.0336 48.6159 77.3001 48.6369 76.5615C48.658 75.8229 48.8571 75.1005 49.2177 74.4545C49.5783 73.8085 50.09 73.2576 50.71 72.8477C51.33 72.4378 52.0405 72.1808 52.7822 72.0981C53.524 72.0154 54.2756 72.1093 54.9744 72.3721C55.6731 72.6349 56.2989 73.0589 56.7994 73.6089C57.3 74.1588 57.6609 74.8188 57.8521 75.5338C58.0433 76.2487 58.0593 76.998 57.8987 77.7192C58.2306 77.0157 58.3996 76.2472 58.3934 75.4698C58.3872 74.6924 58.2059 73.9256 57.8629 73.2251Z" fill="white"/>
<path opacity="0.3" d="M54.6155 79.1559C54.6372 79.0229 54.6178 78.8864 54.5598 78.7643C54.5018 78.6422 54.4079 78.5401 54.2905 78.4714C54.1731 78.4028 54.0376 78.3708 53.9017 78.3796C53.7659 78.3884 53.636 78.4376 53.5291 78.5208C53.4222 78.6039 53.3433 78.7172 53.3027 78.8457C53.262 78.9742 53.2616 79.112 53.3015 79.241C53.3413 79.37 53.4196 79.4842 53.5259 79.5687C53.6323 79.6531 53.7619 79.7039 53.8977 79.7144C53.9821 79.7249 54.0677 79.7187 54.1496 79.6963C54.2315 79.6738 54.308 79.6355 54.3747 79.5836C54.4415 79.5317 54.4971 79.4671 54.5384 79.3937C54.5798 79.3203 54.606 79.2395 54.6155 79.1559Z" fill="#6E0A0D"/>
<path d="M57.5394 116.446C60.3964 113.154 60.0074 108.156 56.6704 105.283C53.3335 102.41 48.3124 102.75 45.4554 106.042C42.5984 109.334 42.9873 114.332 46.3243 117.205C49.6612 120.078 54.6824 119.738 57.5394 116.446Z" fill="#ED1D2C"/>
<path opacity="0.23" d="M44.2351 111.655C44.3083 112.61 44.5697 113.543 45.0046 114.402C45.4395 115.26 46.0392 116.026 46.7697 116.657C47.5001 117.287 48.3469 117.77 49.2617 118.076C50.1765 118.383 51.1413 118.508 52.1011 118.444C53.061 118.381 53.997 118.129 54.8558 117.705C55.7146 117.281 56.4794 116.691 57.1064 115.971C57.7334 115.25 58.2104 114.412 58.5101 113.505C58.8099 112.598 58.9266 111.64 58.8534 110.684C58.8036 109.96 58.6392 109.246 58.3662 108.571L58.4192 109.079C58.4939 110.11 58.3199 111.142 57.9117 112.088C57.5036 113.035 56.8731 113.868 56.0726 114.52C55.2722 115.171 54.325 115.621 53.3101 115.832C52.2953 116.044 51.2421 116.01 50.2381 115.735C49.2342 115.46 48.3086 114.95 47.5386 114.25C46.7685 113.549 46.1763 112.677 45.8112 111.706C45.4461 110.735 45.3187 109.694 45.4396 108.668C45.5605 107.643 45.9261 106.664 46.5062 105.812C45.7133 106.553 45.098 107.462 44.7051 108.472C44.3122 109.483 44.1517 110.57 44.2351 111.655Z" fill="white"/>
<path opacity="0.3" d="M51.5015 105.643C51.4049 105.804 51.3597 105.991 51.3719 106.179C51.384 106.368 51.453 106.548 51.5698 106.698C51.6866 106.847 51.8457 106.959 52.0263 107.017C52.2069 107.076 52.4006 107.079 52.582 107.027C52.7634 106.974 52.9241 106.868 53.043 106.722C53.1619 106.577 53.2335 106.398 53.2484 106.211C53.2633 106.023 53.2208 105.834 53.1264 105.67C53.0321 105.506 52.8904 105.373 52.7198 105.29C52.6158 105.233 52.5017 105.196 52.384 105.183C52.2663 105.17 52.1474 105.18 52.0342 105.213C51.9209 105.246 51.8155 105.301 51.7241 105.375C51.6327 105.449 51.557 105.54 51.5015 105.643Z" fill="#6E0A0D"/>
<path d="M90.1645 114.916C93.7384 110.798 93.2517 104.546 89.0774 100.953C84.9032 97.3588 78.6222 97.7837 75.0483 101.902C71.4744 106.02 71.961 112.271 76.1352 115.865C80.3094 119.459 86.5906 119.034 90.1645 114.916Z" fill="#ED1D2C"/>
<path opacity="0.23" d="M73.5219 108.923C73.6134 110.118 73.9404 111.285 74.4844 112.359C75.0284 113.432 75.7787 114.391 76.6924 115.18C77.6061 115.968 78.6654 116.572 79.8097 116.955C80.954 117.339 82.1609 117.496 83.3616 117.416C84.5623 117.336 85.7332 117.022 86.8075 116.491C87.8818 115.96 88.8385 115.223 89.6228 114.321C90.4071 113.42 91.0038 112.372 91.3787 111.238C91.7537 110.103 91.8996 108.904 91.8081 107.709C91.7458 106.802 91.5401 105.91 91.1987 105.065L91.265 105.7C91.3585 106.991 91.1408 108.281 90.6302 109.465C90.1196 110.649 89.3309 111.692 88.3296 112.506C87.3284 113.321 86.1435 113.884 84.874 114.148C83.6044 114.413 82.287 114.371 81.0311 114.027C79.7753 113.682 78.6175 113.045 77.6542 112.169C76.6909 111.292 75.9501 110.201 75.4934 108.986C75.0367 107.772 74.8773 106.469 75.0285 105.187C75.1798 103.905 75.6372 102.68 76.3628 101.614C75.3709 102.541 74.6012 103.677 74.1097 104.941C73.6183 106.206 73.4175 107.566 73.5219 108.923Z" fill="white"/>
<path opacity="0.3" d="M82.6111 101.403C82.4902 101.604 82.4337 101.838 82.4489 102.073C82.4641 102.309 82.5504 102.535 82.6965 102.722C82.8426 102.909 83.0416 103.048 83.2675 103.122C83.4934 103.195 83.7357 103.199 83.9627 103.133C84.1896 103.067 84.3906 102.935 84.5393 102.752C84.6881 102.57 84.7776 102.347 84.7963 102.112C84.8149 101.878 84.7617 101.642 84.6437 101.436C84.5258 101.231 84.3485 101.065 84.1351 100.96C84.005 100.889 83.8622 100.844 83.715 100.827C83.5678 100.811 83.4191 100.824 83.2774 100.865C83.1357 100.906 83.0039 100.974 82.8895 101.067C82.7752 101.159 82.6805 101.273 82.6111 101.403Z" fill="#6E0A0D"/>
<path d="M79.3996 85.7811C80.0629 82.2949 77.7437 78.9369 74.2193 78.2807C70.6949 77.6244 67.3001 79.9186 66.6367 83.4048C65.9733 86.891 68.2926 90.2492 71.817 90.9054C75.3413 91.5616 78.7362 89.2673 79.3996 85.7811Z" fill="#ED1D2C"/>
<path opacity="0.23" d="M68.0754 87.8543C68.5178 88.4968 69.0839 89.0467 69.7412 89.4728C70.3986 89.8988 71.1343 90.1926 71.9064 90.3373C72.6785 90.4821 73.4719 90.475 74.2413 90.3165C75.0106 90.158 75.7409 89.8512 76.3903 89.4135C77.0398 88.9758 77.5958 88.4158 78.0265 87.7656C78.4572 87.1154 78.7542 86.3876 78.9006 85.6239C79.0469 84.8601 79.0397 84.0753 78.8795 83.3143C78.7192 82.5532 78.409 81.8309 77.9665 81.1885C77.6349 80.6988 77.2271 80.264 76.7584 79.9001L77.0038 80.2362C77.4785 80.9314 77.7784 81.7289 77.8784 82.562C77.9785 83.3951 77.8759 84.2398 77.5791 85.0257C77.2823 85.8116 76.7998 86.516 76.1721 87.0802C75.5444 87.6444 74.7896 88.052 73.9703 88.2692C73.1511 88.4863 72.2912 88.5067 71.4624 88.3286C70.6336 88.1505 69.8598 87.779 69.2055 87.2452C68.5512 86.7114 68.0353 86.0306 67.7008 85.2596C67.3663 84.4887 67.2229 83.6498 67.2825 82.8129C67.0275 83.6587 66.9664 84.5501 67.1036 85.4222C67.2407 86.2943 67.5727 87.1251 68.0754 87.8543Z" fill="white"/>
<path opacity="0.3" d="M70.7289 80.6495C70.7269 80.8025 70.7716 80.9526 70.8571 81.08C70.9427 81.2075 71.0652 81.3064 71.2086 81.3638C71.352 81.4212 71.5095 81.4345 71.6606 81.4019C71.8117 81.3692 71.9494 81.2922 72.0555 81.1809C72.1616 81.0696 72.2313 80.9292 72.2554 80.778C72.2795 80.6269 72.2569 80.4721 72.1905 80.3339C72.1242 80.1957 72.0172 80.0805 71.8835 80.0034C71.7499 79.9264 71.5959 79.891 71.4416 79.9021C71.3451 79.9044 71.2499 79.9257 71.1617 79.9646C71.0735 80.0035 70.994 80.0593 70.9277 80.1288C70.8615 80.1983 70.8098 80.2801 70.7757 80.3695C70.7416 80.4589 70.7257 80.5541 70.7289 80.6495Z" fill="#6E0A0D"/>
<path d="M44.7638 73.5323C45.4272 70.0461 43.1079 66.688 39.5836 66.0318C36.0592 65.3756 32.6644 67.6697 32.001 71.156C31.3376 74.6422 33.6569 78.0003 37.1812 78.6565C40.7056 79.3128 44.1004 77.0185 44.7638 73.5323Z" fill="#ED1D2C"/>
<path opacity="0.23" d="M33.4396 75.6055C33.8821 76.2479 34.4481 76.7979 35.1055 77.2239C35.7628 77.6499 36.4985 77.9437 37.2707 78.0885C38.0428 78.2333 38.8362 78.2262 39.6055 78.0677C40.3749 77.9092 41.1051 77.6023 41.7546 77.1646C42.4041 76.7269 42.96 76.167 43.3907 75.5168C43.8214 74.8666 44.1185 74.1388 44.2648 73.375C44.4112 72.6112 44.404 71.8265 44.2437 71.0654C44.0835 70.3044 43.7733 69.5821 43.3308 68.9396C42.9991 68.45 42.5914 68.0152 42.1227 67.6512L42.3681 67.9873C42.8428 68.6826 43.1426 69.48 43.2427 70.3131C43.3427 71.1462 43.2401 71.9909 42.9433 72.7768C42.6465 73.5628 42.1641 74.2672 41.5364 74.8314C40.9086 75.3956 40.1538 75.8032 39.3346 76.0203C38.5153 76.2375 37.6554 76.2579 36.8266 76.0797C35.9978 75.9016 35.224 75.5302 34.5697 74.9964C33.9154 74.4625 33.3996 73.7818 33.0651 73.0108C32.7306 72.2398 32.5871 71.401 32.6467 70.5641C32.3918 71.4099 32.3307 72.3012 32.4678 73.1733C32.605 74.0454 32.937 74.8763 33.4396 75.6055Z" fill="white"/>
<path opacity="0.3" d="M36.0932 68.4007C36.0911 68.5537 36.1358 68.7037 36.2214 68.8312C36.307 68.9586 36.4295 69.0575 36.5729 69.115C36.7162 69.1724 36.8738 69.1857 37.0249 69.153C37.176 69.1204 37.3136 69.0434 37.4198 68.9321C37.5259 68.8208 37.5956 68.6803 37.6197 68.5292C37.6438 68.3781 37.6211 68.2233 37.5548 68.085C37.4884 67.9468 37.3814 67.8317 37.2478 67.7546C37.1142 67.6775 36.9601 67.6422 36.8059 67.6532C36.7093 67.6556 36.6142 67.6768 36.526 67.7157C36.4378 67.7547 36.3583 67.8105 36.292 67.88C36.2257 67.9495 36.1741 68.0313 36.14 68.1207C36.1058 68.21 36.0899 68.3052 36.0932 68.4007Z" fill="#6E0A0D"/>
<path d="M30.5047 110.007C33.7591 106.257 33.3159 100.565 29.5149 97.2921C25.7139 94.0196 19.9945 94.4065 16.7402 98.1563C13.4859 101.906 13.929 107.599 17.7299 110.871C21.5309 114.144 27.2504 113.757 30.5047 110.007Z" fill="#ED1D2C"/>
<path opacity="0.23" d="M15.3507 104.549C15.434 105.638 15.7318 106.701 16.2271 107.678C16.7225 108.656 17.4057 109.529 18.2377 110.247C19.0697 110.965 20.0342 111.515 21.0762 111.864C22.1182 112.213 23.2172 112.356 24.3105 112.283C25.4039 112.211 26.4701 111.925 27.4483 111.441C28.4266 110.958 29.2977 110.286 30.0119 109.466C30.7261 108.645 31.2694 107.691 31.6108 106.657C31.9523 105.624 32.0852 104.532 32.0019 103.444C31.9451 102.619 31.7578 101.806 31.4469 101.036L31.5073 101.615C31.5924 102.79 31.3942 103.965 30.9292 105.043C30.4643 106.121 29.7461 107.071 28.8344 107.813C27.9226 108.554 26.8437 109.067 25.6877 109.308C24.5317 109.549 23.332 109.511 22.1885 109.197C21.0449 108.884 19.9906 108.304 19.1135 107.505C18.2364 106.707 17.5618 105.713 17.1459 104.608C16.73 103.502 16.5849 102.316 16.7226 101.148C16.8603 99.9801 17.2768 98.8646 17.9376 97.8944C17.0343 98.738 16.3335 99.7731 15.886 100.924C15.4385 102.076 15.2557 103.314 15.3507 104.549Z" fill="white"/>
<path opacity="0.3" d="M23.6277 97.702C23.5176 97.8856 23.4661 98.0985 23.48 98.3128C23.4938 98.5271 23.5724 98.7329 23.7054 98.9032C23.8384 99.0735 24.0196 99.2004 24.2254 99.2672C24.4311 99.334 24.6517 99.3377 24.8584 99.2777C25.065 99.2177 25.248 99.0969 25.3835 98.931C25.5189 98.7652 25.6005 98.5621 25.6174 98.3482C25.6344 98.1344 25.586 97.9199 25.4785 97.7327C25.3711 97.5455 25.2097 97.3944 25.0154 97.2992C24.8969 97.2342 24.7669 97.193 24.6329 97.178C24.4988 97.163 24.3634 97.1746 24.2344 97.2121C24.1053 97.2495 23.9853 97.3121 23.8812 97.3962C23.7771 97.4803 23.6909 97.5842 23.6277 97.702Z" fill="#6E0A0D"/>
<path opacity="0.46" d="M6.05106 117.056C5.65581 116.372 4.86531 114.554 6.05106 112.493L41.806 50.5313V28.1587H47.8412V55.748L33.2853 119.337H9.99597C7.62446 119.337 6.44631 117.74 6.05106 117.056Z" fill="#FFFEFF"/>
</svg>
