<svg width="105" height="147" viewBox="0 0 105 147" fill="none" xmlns="http://www.w3.org/2000/svg">
<g clip-path="url(#clip0_2467_4879)">
<path opacity="0.1" d="M52.1669 76.7026C80.7205 76.7026 103.87 81.2566 103.87 86.8728V103.898C103.87 109.514 80.7205 114.068 52.1669 114.068C23.6134 114.068 0.463772 109.514 0.463772 103.898V86.8728C0.463772 81.2566 23.6095 76.7026 52.1669 76.7026Z" fill="url(#paint0_linear_2467_4879)"/>
<path opacity="0.5" d="M52.1664 94.3057C79.8747 94.3057 102.336 98.4699 102.336 103.608C102.336 108.747 79.8747 112.911 52.1664 112.911C24.458 112.911 1.99681 108.747 1.99681 103.608C1.99299 98.4699 24.458 94.3057 52.1664 94.3057Z" fill="url(#paint1_linear_2467_4879)" stroke="#5181FF" stroke-width="0.213382"/>
<path opacity="0.4" d="M100.32 86.5145C100.32 86.5145 101.211 83.4031 80.892 80.1189C60.5725 76.8346 27.965 78.7423 17.1341 81.2189C6.30316 83.6954 2.43278 85.7037 3.73311 87.8314C3.73311 87.8314 15.1607 81.5269 35.5566 80.4866C55.9564 79.4463 73.0021 78.5977 100.32 86.5145Z" fill="url(#paint2_linear_2467_4879)"/>
<path d="M81.3067 39.6574H23.0135L10.3965 100.769H10.488C10.488 105.67 29.054 109.638 51.9542 109.638C74.8544 109.638 93.4203 105.67 93.4203 100.769H93.9303L81.3067 39.6574Z" fill="#393B36"/>
<path d="M52.1672 96.2448C65.5835 96.2448 78.2005 95.2768 87.6928 93.5168C97.2808 91.738 102.559 89.34 102.559 86.7597C102.559 84.1794 97.277 81.7815 87.689 80.0026C78.1966 78.2426 65.5797 77.2746 52.1634 77.2746C38.7471 77.2746 26.1301 78.2426 16.6378 80.0026C7.0498 81.7815 1.7682 84.1794 1.7682 86.7597C1.7682 89.34 7.0498 91.738 16.6378 93.5168C26.134 95.2768 38.7509 96.2448 52.1672 96.2448ZM52.1672 77.6392C65.5529 77.6392 78.1355 78.604 87.5934 80.3609C96.8219 82.0706 102.115 84.4026 102.115 86.7597C102.115 89.1168 96.8219 91.4488 87.5934 93.1585C78.1316 94.9122 65.5529 95.8802 52.1672 95.8802C38.7815 95.8802 26.199 94.9122 16.741 93.1585C7.51257 91.4488 2.21949 89.1137 2.21949 86.7597C2.21949 84.4026 7.51257 82.0706 16.741 80.3609C26.199 78.604 38.7815 77.6392 52.1672 77.6392Z" fill="#C5D5FC"/>
<path opacity="0.4" d="M52.1669 76.7026C80.7205 76.7026 103.87 81.2566 103.87 86.8728V103.898C103.87 109.514 80.7205 114.068 52.1669 114.068C23.6134 114.068 0.463772 109.514 0.463772 103.898V86.8728C0.463772 81.2566 23.6095 76.7026 52.1669 76.7026ZM7.49699 104.039C7.86797 106.424 10.178 107.584 10.178 107.584C16.3545 111.924 48.5872 112.914 48.5872 112.914C77.9172 113.776 98.3131 108.015 100.176 106.424C102.038 104.834 101.663 102.757 101.663 102.757C101.663 102.757 101.365 98.1682 101.663 94.862C101.962 91.5588 99.5026 92.354 99.5026 92.354C79.7759 99.5731 44.713 98.2876 44.713 98.2876C25.4338 97.7377 13.1496 95.3522 10.3233 94.6797C7.49318 94.0071 7.49317 96.7602 7.49317 96.7602C7.49317 96.7602 7.12219 101.654 7.49699 104.039ZM52.1669 96.0625C79.8753 96.0625 102.336 91.8983 102.336 86.7597C102.336 81.6212 79.8753 77.4569 52.1669 77.4569C24.4586 77.4569 1.99738 81.6212 1.99738 86.7597C1.99356 91.8983 24.4586 96.0625 52.1669 96.0625Z" fill="url(#paint3_linear_2467_4879)"/>
<path d="M52.1658 114.25C65.9952 114.25 78.9946 113.191 88.7776 111.264C98.6524 109.325 104.091 106.707 104.091 103.898V86.8728C104.091 84.0631 98.6524 81.4451 88.7776 79.5029C78.9946 77.5794 65.9913 76.5203 52.1658 76.5203C38.3403 76.5203 25.3371 77.5794 15.5541 79.5029C5.67924 81.4451 0.240826 84.0631 0.240826 86.8728V103.898C0.240826 106.707 5.67924 109.325 15.5541 111.268C25.3371 113.191 38.3365 114.25 52.1658 114.25ZM52.1658 76.8849C65.9607 76.8849 78.9257 77.9409 88.6743 79.858C98.1858 81.7311 103.643 84.2863 103.643 86.8728V103.898C103.643 106.484 98.1858 109.039 88.6705 110.909C78.9219 112.826 65.9569 113.882 52.162 113.882C38.3671 113.882 25.4021 112.826 15.6535 110.909C6.13818 109.036 0.680639 106.481 0.680639 103.898V86.8728C0.680639 84.2863 6.13818 81.7311 15.6535 79.8611C25.4059 77.9409 38.3709 76.8849 52.1658 76.8849Z" fill="#99B9FF"/>
<path opacity="0.3" d="M102.642 102.15C102.784 99.7302 102.711 97.3102 102.822 94.8934C102.88 93.6457 103.132 92.134 102.505 90.9554C101.786 89.6071 100.191 90.6725 98.9824 91.0968C100.401 90.0503 102.096 89.2237 102.845 87.712C103.235 86.9231 103.361 86.1406 103.3 85.3643C103.671 85.8577 103.87 86.3606 103.87 86.8728V103.898C103.87 104.774 103.308 105.623 102.249 106.434C102.428 105.01 102.558 103.58 102.642 102.15Z" fill="url(#paint4_linear_2467_4879)"/>
<path opacity="0.3" d="M0.651291 86.0054C0.777499 87.0111 1.38176 88.0074 2.2002 88.8654C3.06453 89.7768 4.08568 90.5437 5.30569 91.122C6.39567 91.6405 7.55448 92.0459 8.68652 92.4922C7.02287 92.3351 4.70142 91.2351 3.48906 92.4671C2.42586 93.5482 2.14284 102.081 2.02811 103.338C1.94014 104.309 1.87895 105.284 1.85983 106.258C0.945777 105.5 0.456239 104.712 0.456239 103.898V86.8728C0.463888 86.5805 0.528907 86.2914 0.651291 86.0054Z" fill="url(#paint5_linear_2467_4879)"/>
<path opacity="0.7" d="M87.4512 95.8991C87.4512 95.8991 71.8817 98.5988 55.0578 98.536C55.0578 98.536 63.7929 98.7842 69.1051 99.1488C69.1051 99.1488 72.3062 98.9571 72.4324 100.796C72.5586 102.634 72.8034 111.503 72.8034 111.503L76.6202 111.198V101.418C76.6202 101.418 76.4902 99.0671 79.8634 98.3317C83.2366 97.5931 87.4512 95.8991 87.4512 95.8991Z" fill="white"/>
<path d="M52.1658 97.2253C65.9952 97.2253 78.9946 96.1662 88.7776 94.2428C98.6524 92.3005 104.091 89.6825 104.091 86.8728C104.091 84.0631 98.6524 81.4451 88.7776 79.5029C78.9946 77.5794 65.9913 76.5203 52.1658 76.5203C38.3403 76.5203 25.3371 77.5794 15.5541 79.5029C5.67924 81.4451 0.240826 84.0631 0.240826 86.8728C0.240826 89.6825 5.67924 92.3005 15.5541 94.2428C25.3371 96.1662 38.3365 97.2253 52.1658 97.2253ZM52.1658 76.8849C65.9607 76.8849 78.9257 77.9409 88.6743 79.858C98.1858 81.7311 103.643 84.2863 103.643 86.8728C103.643 89.4562 98.1858 92.0145 88.6705 93.8845C78.9219 95.8016 65.9569 96.8576 52.162 96.8576C38.3671 96.8576 25.4021 95.8016 15.6535 93.8845C6.13818 92.0145 0.680639 89.4562 0.680639 86.8728C0.680639 84.2863 6.13818 81.7311 15.6535 79.8611C25.4059 77.9409 38.3709 76.8849 52.1658 76.8849Z" fill="#99B9FF"/>
<mask id="mask0_2467_4879" style="mask-type:alpha" maskUnits="userSpaceOnUse" x="10" y="39" width="84" height="54">
<path d="M81.3116 39.65H23.0184L10.4014 85.9553H10.4929C10.4929 89.6685 29.0589 92.6753 51.9591 92.6753C74.8593 92.6753 93.4252 89.6685 93.4252 85.9553H93.9351L81.3116 39.65Z" fill="#393B36"/>
</mask>
<g mask="url(#mask0_2467_4879)">
<path d="M38.319 34.2433L48.0107 36.0827L43.6368 121.969L26.4289 121.118L38.319 34.2433Z" fill="white" fill-opacity="0.6"/>
<path d="M52.0005 51.6883L55.0836 51.6883L50.5497 114.27L48.9175 113.155L52.0005 51.6883Z" fill="white" fill-opacity="0.6"/>
</g>
<path d="M52.1704 47.5417C68.3524 47.5417 81.4706 44.3424 81.4706 40.3959C81.4706 36.4494 68.3524 33.2501 52.1704 33.2501C35.9883 33.2501 22.8701 36.4494 22.8701 40.3959C22.8701 44.3424 35.9883 47.5417 52.1704 47.5417Z" fill="#2C2E29"/>
</g>
<defs>
<linearGradient id="paint0_linear_2467_4879" x1="52.1658" y1="69.5402" x2="52.1658" y2="97.2816" gradientUnits="userSpaceOnUse">
<stop stop-color="#C5D5FC"/>
<stop offset="0.1131" stop-color="#DCE6FD"/>
<stop offset="0.2469" stop-color="#EFF4FE"/>
<stop offset="0.3824" stop-color="#FBFCFF"/>
<stop offset="0.5211" stop-color="white"/>
<stop offset="0.611" stop-color="#FCFDFF"/>
<stop offset="0.6842" stop-color="#F2F5FF"/>
<stop offset="0.7514" stop-color="#E1E9FF"/>
<stop offset="0.8152" stop-color="#C9D8FF"/>
<stop offset="0.8765" stop-color="#AAC1FF"/>
<stop offset="0.9359" stop-color="#83A6FF"/>
<stop offset="0.9928" stop-color="#5785FF"/>
<stop offset="1" stop-color="#5181FF"/>
</linearGradient>
<linearGradient id="paint1_linear_2467_4879" x1="52.165" y1="127.659" x2="52.165" y2="79.6817" gradientUnits="userSpaceOnUse">
<stop stop-color="#C5D5FC"/>
<stop offset="0.1131" stop-color="#DCE6FD"/>
<stop offset="0.2469" stop-color="#EFF4FE"/>
<stop offset="0.3824" stop-color="#FBFCFF"/>
<stop offset="0.5211" stop-color="white"/>
<stop offset="0.5964" stop-color="#F0F4FE"/>
<stop offset="0.7449" stop-color="#D8E3FD"/>
<stop offset="0.8832" stop-color="#CAD9FC"/>
<stop offset="1" stop-color="#C5D5FC"/>
</linearGradient>
<linearGradient id="paint2_linear_2467_4879" x1="51.9105" y1="65.1931" x2="51.9105" y2="89.4429" gradientUnits="userSpaceOnUse">
<stop stop-color="#C5D5FC"/>
<stop offset="0.1131" stop-color="#DCE6FD"/>
<stop offset="0.2469" stop-color="#EFF4FE"/>
<stop offset="0.3824" stop-color="#FBFCFF"/>
<stop offset="0.5211" stop-color="white"/>
<stop offset="0.5964" stop-color="#F0F4FE"/>
<stop offset="0.7449" stop-color="#D8E3FD"/>
<stop offset="0.8832" stop-color="#CAD9FC"/>
<stop offset="1" stop-color="#C5D5FC"/>
</linearGradient>
<linearGradient id="paint3_linear_2467_4879" x1="79.0327" y1="95.3846" x2="-13.1447" y2="95.3846" gradientUnits="userSpaceOnUse">
<stop stop-color="#C5D5FC"/>
<stop offset="0.1131" stop-color="#DCE6FD"/>
<stop offset="0.2469" stop-color="#EFF4FE"/>
<stop offset="0.3824" stop-color="#FBFCFF"/>
<stop offset="0.5211" stop-color="white"/>
<stop offset="0.5959" stop-color="#F0F4FE"/>
<stop offset="0.7435" stop-color="#D8E3FD"/>
<stop offset="0.8808" stop-color="#CAD9FC"/>
<stop offset="0.9969" stop-color="#C5D5FC"/>
</linearGradient>
<linearGradient id="paint4_linear_2467_4879" x1="79.0321" y1="95.8984" x2="-13.1479" y2="95.8984" gradientUnits="userSpaceOnUse">
<stop stop-color="#B4BAC0"/>
<stop offset="0.044" stop-color="#C0C5CA"/>
<stop offset="0.161" stop-color="#DCDFE1"/>
<stop offset="0.2794" stop-color="#EFF1F2"/>
<stop offset="0.3988" stop-color="#FBFBFC"/>
<stop offset="0.5211" stop-color="white"/>
<stop offset="0.5409" stop-color="#F9FAFA"/>
<stop offset="0.6686" stop-color="#D8DBDE"/>
<stop offset="0.7909" stop-color="#C0C6CA"/>
<stop offset="0.9042" stop-color="#B2B9BE"/>
<stop offset="1" stop-color="#ADB4BA"/>
</linearGradient>
<linearGradient id="paint5_linear_2467_4879" x1="79.0317" y1="96.1307" x2="-13.1444" y2="96.1307" gradientUnits="userSpaceOnUse">
<stop stop-color="#B4BAC0"/>
<stop offset="0.044" stop-color="#C0C5CA"/>
<stop offset="0.161" stop-color="#DCDFE1"/>
<stop offset="0.2794" stop-color="#EFF1F2"/>
<stop offset="0.3988" stop-color="#FBFBFC"/>
<stop offset="0.5211" stop-color="white"/>
<stop offset="0.5409" stop-color="#F9FAFA"/>
<stop offset="0.6686" stop-color="#D8DBDE"/>
<stop offset="0.7909" stop-color="#C0C6CA"/>
<stop offset="0.9042" stop-color="#B2B9BE"/>
<stop offset="1" stop-color="#ADB4BA"/>
</linearGradient>
<clipPath id="clip0_2467_4879">
<rect width="104" height="146" fill="white" transform="translate(0.166016 0.750122)"/>
</clipPath>
</defs>
</svg>
