<svg width="48" height="48" viewBox="0 0 48 48" fill="none" xmlns="http://www.w3.org/2000/svg">
<circle cx="24" cy="24" r="21.5" fill="white" stroke="#5082FF" stroke-width="5"/>
<path fill-rule="evenodd" clip-rule="evenodd" d="M24 8.25977C24.6075 8.25977 25.1 8.75225 25.1 9.35977V13.2889L27.7476 11.1638C28.2214 10.7835 28.9137 10.8593 29.294 11.3331C29.6743 11.8069 29.5985 12.4992 29.1247 12.8795L25.1 16.11V22.0949L30.2546 19.1189L31.0691 13.9959C31.1645 13.396 31.7282 12.9869 32.3282 13.0823C32.9282 13.1777 33.3372 13.7414 33.2418 14.3414L32.7074 17.7028L36.129 15.7273C36.6551 15.4235 37.3279 15.6038 37.6316 16.1299C37.9354 16.656 37.7551 17.3288 37.229 17.6325L33.8262 19.5971L36.9905 20.8275C37.5567 21.0477 37.8373 21.6851 37.6171 22.2514C37.3969 22.8176 36.7594 23.0981 36.1932 22.8779L31.3832 21.0076L26.2 24.0001L31.3543 26.9759L36.1981 25.1199C36.7654 24.9026 37.4015 25.1862 37.6189 25.7535C37.8362 26.3208 37.5526 26.9569 36.9853 27.1743L33.8071 28.3921L37.2289 30.3676C37.755 30.6714 37.9353 31.3441 37.6315 31.8702C37.3278 32.3964 36.655 32.5766 36.1289 32.2729L32.7259 30.3081L33.2425 33.6638C33.3349 34.2642 32.9231 34.8259 32.3227 34.9183C31.7223 35.0108 31.1606 34.599 31.0681 33.9985L30.2828 28.8976L25.1 25.9053V31.8899L29.1247 35.1204C29.5985 35.5007 29.6743 36.193 29.294 36.6668C28.9137 37.1406 28.2214 37.2163 27.7476 36.8361L25.1 34.7109V38.6402C25.1 39.2478 24.6075 39.7402 24 39.7402C23.3924 39.7402 22.9 39.2478 22.9 38.6402V34.6891L20.2562 36.8327C19.7843 37.2153 19.0915 37.1429 18.7089 36.671C18.3263 36.1991 18.3987 35.5064 18.8706 35.1238L22.9 31.8568V25.9054L17.7173 28.8976L16.932 33.9986C16.8395 34.5991 16.2778 35.0109 15.6774 34.9184C15.077 34.826 14.6651 34.2643 14.7576 33.6639L15.2742 30.3081L11.8714 32.2728C11.3452 32.5765 10.6725 32.3963 10.3687 31.8701C10.065 31.344 10.2452 30.6713 10.7714 30.3675L14.1929 28.3921L11.0148 27.1744C10.4475 26.957 10.1638 26.3209 10.3812 25.7536C10.5986 25.1863 11.2347 24.9027 11.802 25.12L16.6457 26.976L21.8 24.0001L16.6171 21.0077L11.8069 22.8781C11.2406 23.0983 10.6032 22.8177 10.383 22.2515C10.1628 21.6853 10.4434 21.0478 11.0096 20.8276L14.174 19.5972L10.7713 17.6326C10.2451 17.3289 10.0649 16.6561 10.3686 16.13C10.6724 15.6039 11.3451 15.4236 11.8713 15.7274L15.2927 17.7027L14.7582 14.3416C14.6628 13.7416 15.0719 13.1779 15.6719 13.0825C16.2718 12.9871 16.8356 13.3961 16.931 13.9961L17.7455 19.1189L22.9 22.0948V16.1431L18.8706 12.8761C18.3987 12.4935 18.3263 11.8008 18.7089 11.3289C19.0915 10.857 19.7843 10.7846 20.2562 11.1672L22.9 13.3108V9.35977C22.9 8.75225 23.3924 8.25977 24 8.25977Z" fill="#4294FF"/>
</svg>
