<svg width="299" height="304" viewBox="0 0 299 304" fill="none" xmlns="http://www.w3.org/2000/svg">
<path fill-rule="evenodd" clip-rule="evenodd" d="M0.46875 6.49487V8.76025V17.4645V285.76V294.76V296.73L6.6925 303.169H7.95737L15.1375 295.455C15.533 295.03 16.2059 295.03 16.6014 295.455L23.7815 303.169H25.0465L32.5439 295.413C32.937 295.006 33.5888 295.006 33.9819 295.413L41.4793 303.169H42.9675L50.4649 295.413C50.858 295.006 51.5098 295.006 51.9029 295.413L59.4003 303.169H60.888L68.3854 295.413C68.7785 295.006 69.4303 295.006 69.8234 295.413L77.3208 303.169H78.8095L86.3069 295.413C86.7 295.006 87.3518 295.006 87.7449 295.413L95.2423 303.169H96.5067L103.687 295.455C104.082 295.03 104.755 295.03 105.151 295.455L112.331 303.169H113.596L121.094 295.413C121.487 295.006 122.139 295.006 122.532 295.413L130.029 303.169H131.517L139.014 295.413C139.407 295.006 140.059 295.006 140.452 295.413L147.95 303.169H149.437L156.935 295.413C157.328 295.006 157.98 295.006 158.373 295.413L165.87 303.169H167.359L174.857 295.413C175.25 295.006 175.902 295.006 176.295 295.413L183.792 303.169H185.056L192.236 295.455C192.632 295.03 193.305 295.03 193.7 295.455L200.88 303.169H202.146L209.644 295.413C210.037 295.006 210.688 295.006 211.081 295.413L218.579 303.169H220.067L227.564 295.413C227.957 295.006 228.609 295.006 229.002 295.413L236.499 303.169H237.987L245.485 295.413C245.878 295.006 246.529 295.006 246.923 295.413L254.42 303.169H255.908L263.406 295.413C263.799 295.006 264.45 295.006 264.844 295.413L272.341 303.169H273.829L281.327 295.413C281.72 295.006 282.371 295.006 282.765 295.413L290.262 303.169H291.75L298.469 296.218V294.76V285.76V17.4645V8.76025V7.00708L291.75 0.0560303H290.262L282.765 7.81226C282.372 8.21887 281.72 8.21887 281.327 7.81226L273.829 0.0560303H272.341L264.844 7.81226C264.451 8.21887 263.799 8.21887 263.406 7.81226L255.908 0.0560303H254.42L246.922 7.81226C246.529 8.21887 245.877 8.21887 245.484 7.81226L237.987 0.0560303H236.5L229.002 7.81226C228.609 8.21887 227.957 8.21887 227.564 7.81226L220.066 0.0560303H218.579L211.082 7.81226C210.688 8.21887 210.037 8.21887 209.644 7.81226L202.146 0.0560303H200.88L193.7 7.76965C193.305 8.19458 192.632 8.19458 192.236 7.76965L185.056 0.0560303H183.792L176.295 7.81226C175.902 8.21887 175.25 8.21887 174.857 7.81226L167.359 0.0560303H165.87L158.373 7.81226C157.979 8.21887 157.328 8.21887 156.935 7.81226L149.438 0.0560303H147.95L140.452 7.81226C140.059 8.21887 139.407 8.21887 139.014 7.81226L131.517 0.0560303H130.029L122.532 7.81226C122.139 8.21887 121.487 8.21887 121.094 7.81226L113.596 0.0560303H112.331L105.151 7.76965C104.755 8.19458 104.083 8.19458 103.687 7.76965L96.5068 0.0560303H95.2422L87.7451 7.81226C87.3521 8.21887 86.7002 8.21887 86.3071 7.81226L78.8096 0.0560303H77.3208L69.8232 7.81226C69.4302 8.21887 68.7783 8.21887 68.3853 7.81226L60.8882 0.0560303H59.4004L51.9028 7.81226C51.5098 8.21887 50.8579 8.21887 50.4648 7.81226L42.9673 0.0560303H41.4795L33.9819 7.81226C33.5889 8.21887 32.937 8.21887 32.5439 7.81226L25.0464 0.0560303H23.7812L16.6016 7.76965C16.2061 8.19458 15.5332 8.19458 15.1377 7.76965L7.95752 0.0560303H6.69238L0.46875 6.49487Z" fill="white"/>
</svg>
