<svg width="164" height="248" viewBox="0 0 164 248" fill="none" xmlns="http://www.w3.org/2000/svg">
<path d="M140.117 228.327L161.988 33.2295C160.385 35.9823 157.7 38.4169 154.215 40.5526C149.318 43.5534 142.773 46.0074 135.21 47.9476C120.08 51.8291 100.774 53.6801 82.1672 53.6801C63.551 53.6801 44.24 51.8291 29.1077 47.9476C21.5433 46.0074 14.9975 43.5534 10.1004 40.5526C6.61507 38.4169 3.93025 35.9823 2.32661 33.2295L24.1976 228.327L24.2007 228.355V228.382C24.2007 231.386 25.9571 234.04 29.1682 236.355C32.3808 238.67 36.9847 240.594 42.5069 242.127C53.5449 245.191 68.1128 246.655 82.1672 246.655C96.2119 246.655 110.775 245.191 121.81 242.127C127.331 240.594 131.935 238.67 135.147 236.355C138.358 234.04 140.114 231.386 140.114 228.382V228.355L140.117 228.327Z" fill="#EBEDEE" fill-opacity="0.2" stroke="#5181FF"/>
<path d="M82.167 1.125C121.177 1.125 163.167 9.2757 163.167 27.1431C163.167 45.0294 121.177 53.1612 82.167 53.1612C43.1569 53.1612 1.16699 45.0105 1.16699 27.1431C1.16699 9.2757 43.1374 1.125 82.167 1.125ZM13.7679 35.973C25.8429 43.0105 51.921 47.8783 82.1475 47.8783C112.374 47.8783 138.472 43.0105 150.547 35.973C155.143 33.2939 157.694 30.3128 157.694 27.162C157.694 15.6906 123.865 6.42673 82.1475 6.42673C40.4303 6.42673 6.60075 15.7095 6.60075 27.162C6.62022 30.3128 9.17157 33.2939 13.7679 35.973Z" fill="white" fill-opacity="0.7" stroke="#5181FF"/>
<path d="M23.1384 53.1611L38.8165 228.665C43.1596 231.495 48.1259 232.76 53.9492 233.533L43.3154 58.0666C38.0569 57.3119 32.8958 56.2931 28.2801 54.9347C26.4883 54.4064 24.7355 53.8215 23.1384 53.1611Z" fill="white" fill-opacity="0.5"/>
</svg>
