<svg width="241" height="66" viewBox="0 0 241 66" fill="none" xmlns="http://www.w3.org/2000/svg">
<path d="M219.544 12.47C216.634 4.98 209.104 0 200.684 0H121.284H119.164H39.6441C31.2241 0 23.6941 4.98 20.7841 12.47L0.164062 65.51H119.174H121.294H240.164L219.544 12.47Z" fill="#F7C6F2"/>
<mask id="path-2-outside-1_2404_5825" maskUnits="userSpaceOnUse" x="69.1641" y="16.755" width="104" height="34" fill="black">
<rect fill="white" x="69.1641" y="16.755" width="104" height="34"/>
<path d="M74.2441 44.755V22.195H90.0841V26.707H80.1641V31.283H89.3481V35.795H80.1641V44.755H74.2441ZM92.9003 44.755V22.195H103.556C106.159 22.195 108.164 22.8137 109.572 24.051C111.002 25.2883 111.716 27.0057 111.716 29.203C111.716 30.675 111.396 31.9337 110.756 32.979C110.116 34.003 109.188 34.803 107.972 35.379C106.756 35.9337 105.306 36.211 103.62 36.211L103.908 35.411H105.508C106.447 35.411 107.279 35.667 108.004 36.179C108.73 36.691 109.327 37.4057 109.796 38.323L113.22 44.755H106.756L103.076 37.555C102.842 37.0857 102.49 36.7657 102.02 36.595C101.572 36.4243 101.06 36.339 100.484 36.339H98.8203V44.755H92.9003ZM98.8203 32.147H102.532C103.684 32.147 104.559 31.923 105.156 31.475C105.754 31.0057 106.052 30.3123 106.052 29.395C106.052 28.499 105.754 27.827 105.156 27.379C104.559 26.931 103.684 26.707 102.532 26.707H98.8203V32.147ZM125.729 45.107C122.358 45.107 119.83 44.275 118.145 42.611C116.459 40.947 115.617 38.4617 115.617 35.155V22.195H121.505V35.187C121.505 36.8297 121.846 38.0777 122.529 38.931C123.211 39.763 124.278 40.179 125.729 40.179C127.179 40.179 128.246 39.763 128.929 38.931C129.611 38.0777 129.953 36.8297 129.953 35.187V22.195H135.777V35.155C135.777 38.4617 134.945 40.947 133.281 42.611C131.617 44.275 129.099 45.107 125.729 45.107ZM139.744 44.755V22.195H145.664V44.755H139.744ZM154.99 44.755V26.963H148.142V22.195H167.758V26.963H160.91V44.755H154.99Z"/>
</mask>
<path d="M74.2441 44.755V22.195H90.0841V26.707H80.1641V31.283H89.3481V35.795H80.1641V44.755H74.2441ZM92.9003 44.755V22.195H103.556C106.159 22.195 108.164 22.8137 109.572 24.051C111.002 25.2883 111.716 27.0057 111.716 29.203C111.716 30.675 111.396 31.9337 110.756 32.979C110.116 34.003 109.188 34.803 107.972 35.379C106.756 35.9337 105.306 36.211 103.62 36.211L103.908 35.411H105.508C106.447 35.411 107.279 35.667 108.004 36.179C108.73 36.691 109.327 37.4057 109.796 38.323L113.22 44.755H106.756L103.076 37.555C102.842 37.0857 102.49 36.7657 102.02 36.595C101.572 36.4243 101.06 36.339 100.484 36.339H98.8203V44.755H92.9003ZM98.8203 32.147H102.532C103.684 32.147 104.559 31.923 105.156 31.475C105.754 31.0057 106.052 30.3123 106.052 29.395C106.052 28.499 105.754 27.827 105.156 27.379C104.559 26.931 103.684 26.707 102.532 26.707H98.8203V32.147ZM125.729 45.107C122.358 45.107 119.83 44.275 118.145 42.611C116.459 40.947 115.617 38.4617 115.617 35.155V22.195H121.505V35.187C121.505 36.8297 121.846 38.0777 122.529 38.931C123.211 39.763 124.278 40.179 125.729 40.179C127.179 40.179 128.246 39.763 128.929 38.931C129.611 38.0777 129.953 36.8297 129.953 35.187V22.195H135.777V35.155C135.777 38.4617 134.945 40.947 133.281 42.611C131.617 44.275 129.099 45.107 125.729 45.107ZM139.744 44.755V22.195H145.664V44.755H139.744ZM154.99 44.755V26.963H148.142V22.195H167.758V26.963H160.91V44.755H154.99Z" fill="#5082FF"/>
<path d="M74.2441 44.755H69.2441C69.2441 47.5164 71.4826 49.755 74.2441 49.755V44.755ZM74.2441 22.195V17.195C71.4826 17.195 69.2441 19.4336 69.2441 22.195H74.2441ZM90.0841 22.195H95.0841C95.0841 19.4336 92.8455 17.195 90.0841 17.195V22.195ZM90.0841 26.707V31.707C92.8455 31.707 95.0841 29.4684 95.0841 26.707H90.0841ZM80.1641 26.707V21.707C77.4026 21.707 75.1641 23.9456 75.1641 26.707H80.1641ZM80.1641 31.283H75.1641C75.1641 34.0444 77.4026 36.283 80.1641 36.283V31.283ZM89.3481 31.283H94.3481C94.3481 28.5216 92.1095 26.283 89.3481 26.283V31.283ZM89.3481 35.795V40.795C92.1095 40.795 94.3481 38.5564 94.3481 35.795H89.3481ZM80.1641 35.795V30.795C77.4026 30.795 75.1641 33.0336 75.1641 35.795H80.1641ZM80.1641 44.755V49.755C82.9255 49.755 85.1641 47.5164 85.1641 44.755H80.1641ZM79.2441 44.755V22.195H69.2441V44.755H79.2441ZM74.2441 27.195H90.0841V17.195H74.2441V27.195ZM85.0841 22.195V26.707H95.0841V22.195H85.0841ZM90.0841 21.707H80.1641V31.707H90.0841V21.707ZM75.1641 26.707V31.283H85.1641V26.707H75.1641ZM80.1641 36.283H89.3481V26.283H80.1641V36.283ZM84.3481 31.283V35.795H94.3481V31.283H84.3481ZM89.3481 30.795H80.1641V40.795H89.3481V30.795ZM75.1641 35.795V44.755H85.1641V35.795H75.1641ZM80.1641 39.755H74.2441V49.755H80.1641V39.755ZM92.9003 44.755H87.9003C87.9003 47.5164 90.1389 49.755 92.9003 49.755V44.755ZM92.9003 22.195V17.195C90.1389 17.195 87.9003 19.4336 87.9003 22.195H92.9003ZM109.572 24.051L106.272 27.8068C106.281 27.815 106.29 27.8232 106.3 27.8313L109.572 24.051ZM110.756 32.979L114.996 35.629C115.004 35.616 115.013 35.6029 115.021 35.5898L110.756 32.979ZM107.972 35.379L110.047 39.9281C110.069 39.9181 110.091 39.908 110.113 39.8977L107.972 35.379ZM103.62 36.211L98.9159 34.5174C98.3644 36.0494 98.5933 37.7539 99.5296 39.0861C100.466 40.4182 101.992 41.211 103.62 41.211V36.211ZM103.908 35.411V30.411C101.8 30.411 99.918 31.7336 99.2039 33.7174L103.908 35.411ZM108.004 36.179L105.121 40.2638L105.121 40.2638L108.004 36.179ZM109.796 38.323L105.345 40.6004C105.357 40.6245 105.37 40.6486 105.383 40.6725L109.796 38.323ZM113.22 44.755V49.755C114.976 49.755 116.603 48.8342 117.507 47.3291C118.411 45.8241 118.459 43.9552 117.634 42.4055L113.22 44.755ZM106.756 44.755L102.304 47.0306C103.159 48.7027 104.878 49.755 106.756 49.755V44.755ZM103.076 37.555L98.6042 39.7911C98.6108 39.8043 98.6174 39.8174 98.6241 39.8306L103.076 37.555ZM102.02 36.595L100.24 41.2674C100.264 41.2765 100.288 41.2853 100.312 41.294L102.02 36.595ZM98.8203 36.339V31.339C96.0589 31.339 93.8203 33.5776 93.8203 36.339H98.8203ZM98.8203 44.755V49.755C101.582 49.755 103.82 47.5164 103.82 44.755H98.8203ZM98.8203 32.147H93.8203C93.8203 34.9084 96.0589 37.147 98.8203 37.147V32.147ZM105.156 31.475L108.156 35.475C108.186 35.4525 108.216 35.4297 108.245 35.4066L105.156 31.475ZM105.156 27.379L108.156 23.379L108.156 23.379L105.156 27.379ZM98.8203 26.707V21.707C96.0589 21.707 93.8203 23.9456 93.8203 26.707H98.8203ZM97.9003 44.755V22.195H87.9003V44.755H97.9003ZM92.9003 27.195H103.556V17.195H92.9003V27.195ZM103.556 27.195C105.416 27.195 106.077 27.6358 106.272 27.8068L112.873 20.2952C110.251 17.9915 106.902 17.195 103.556 17.195V27.195ZM106.3 27.8313C106.449 27.9606 106.716 28.1961 106.716 29.203H116.716C116.716 25.8153 115.554 22.616 112.845 20.2707L106.3 27.8313ZM106.716 29.203C106.716 29.9399 106.562 30.2537 106.492 30.3682L115.021 35.5898C116.23 33.6136 116.716 31.4101 116.716 29.203H106.716ZM106.516 30.329C106.44 30.4515 106.286 30.6453 105.832 30.8603L110.113 39.8977C112.091 38.9607 113.793 37.5545 114.996 35.629L106.516 30.329ZM105.897 30.8299C105.479 31.0205 104.771 31.211 103.62 31.211V41.211C105.841 41.211 108.033 40.8468 110.047 39.9281L105.897 30.8299ZM108.325 37.9046L108.613 37.1046L99.2039 33.7174L98.9159 34.5174L108.325 37.9046ZM103.908 40.411H105.508V30.411H103.908V40.411ZM105.508 40.411C105.518 40.411 105.462 40.4115 105.366 40.3819C105.267 40.3515 105.181 40.3062 105.121 40.2638L110.888 32.0942C109.269 30.9516 107.417 30.411 105.508 30.411V40.411ZM105.121 40.2638C105.112 40.2577 105.126 40.2647 105.16 40.3056C105.196 40.3487 105.262 40.4387 105.345 40.6004L114.248 36.0456C113.469 34.5239 112.373 33.1427 110.888 32.0942L105.121 40.2638ZM105.383 40.6725L108.807 47.1045L117.634 42.4055L114.21 35.9735L105.383 40.6725ZM113.22 39.755H106.756V49.755H113.22V39.755ZM111.208 42.4794L107.528 35.2794L98.6241 39.8306L102.304 47.0306L111.208 42.4794ZM107.548 35.3189C106.774 33.7694 105.466 32.5278 103.729 31.896L100.312 41.294C99.9659 41.1683 99.602 40.9619 99.2729 40.6627C98.9474 40.3667 98.7345 40.0517 98.6042 39.7911L107.548 35.3189ZM103.8 31.9226C102.682 31.4966 101.549 31.339 100.484 31.339V41.339C100.571 41.339 100.463 41.3521 100.24 41.2674L103.8 31.9226ZM100.484 31.339H98.8203V41.339H100.484V31.339ZM93.8203 36.339V44.755H103.82V36.339H93.8203ZM98.8203 39.755H92.9003V49.755H98.8203V39.755ZM98.8203 37.147H102.532V27.147H98.8203V37.147ZM102.532 37.147C104.214 37.147 106.337 36.8395 108.156 35.475L102.156 27.475C102.481 27.2317 102.743 27.153 102.812 27.1353C102.873 27.1196 102.799 27.147 102.532 27.147V37.147ZM108.245 35.4066C110.303 33.7901 111.052 31.4924 111.052 29.395H101.052C101.052 29.3163 101.065 29.0221 101.236 28.6249C101.419 28.2002 101.714 27.8209 102.067 27.5434L108.245 35.4066ZM111.052 29.395C111.052 27.279 110.271 24.9651 108.156 23.379L102.156 31.379C101.783 31.0994 101.462 30.7057 101.259 30.2497C101.069 29.8227 101.052 29.4972 101.052 29.395H111.052ZM108.156 23.379C106.337 22.0145 104.214 21.707 102.532 21.707V31.707C102.799 31.707 102.873 31.7344 102.812 31.7187C102.743 31.701 102.481 31.6223 102.156 31.379L108.156 23.379ZM102.532 21.707H98.8203V31.707H102.532V21.707ZM93.8203 26.707V32.147H103.82V26.707H93.8203ZM118.145 42.611L114.632 46.169L114.632 46.169L118.145 42.611ZM115.617 22.195V17.195C112.855 17.195 110.617 19.4336 110.617 22.195H115.617ZM121.505 22.195H126.505C126.505 19.4336 124.266 17.195 121.505 17.195V22.195ZM122.529 38.931L118.624 42.0545C118.637 42.0706 118.65 42.0866 118.663 42.1026L122.529 38.931ZM128.929 38.931L132.794 42.1026C132.807 42.0866 132.82 42.0706 132.833 42.0545L128.929 38.931ZM129.953 22.195V17.195C127.191 17.195 124.953 19.4336 124.953 22.195H129.953ZM135.777 22.195H140.777C140.777 19.4336 138.538 17.195 135.777 17.195V22.195ZM133.281 42.611L136.816 46.1465L136.816 46.1465L133.281 42.611ZM125.729 40.107C123.113 40.107 122.073 39.4626 121.658 39.053L114.632 46.169C117.588 49.0874 121.603 50.107 125.729 50.107V40.107ZM121.658 39.053C121.249 38.6495 120.617 37.6638 120.617 35.155H110.617C110.617 39.2596 111.67 43.2445 114.632 46.169L121.658 39.053ZM120.617 35.155V22.195H110.617V35.155H120.617ZM115.617 27.195H121.505V17.195H115.617V27.195ZM116.505 22.195V35.187H126.505V22.195H116.505ZM116.505 35.187C116.505 37.4182 116.953 39.9655 118.624 42.0545L126.433 35.8075C126.589 36.0021 126.607 36.1213 126.584 36.0359C126.557 35.9391 126.505 35.6764 126.505 35.187H116.505ZM118.663 42.1026C120.599 44.4612 123.335 45.179 125.729 45.179V35.179C125.466 35.179 125.48 35.1395 125.658 35.2087C125.751 35.2452 125.877 35.3073 126.017 35.4067C126.157 35.507 126.286 35.6273 126.394 35.7594L118.663 42.1026ZM125.729 45.179C128.123 45.179 130.859 44.4612 132.794 42.1026L125.063 35.7594C125.172 35.6273 125.3 35.507 125.441 35.4067C125.58 35.3073 125.707 35.2452 125.8 35.2087C125.978 35.1395 125.992 35.179 125.729 35.179V45.179ZM132.833 42.0545C134.504 39.9655 134.953 37.4182 134.953 35.187H124.953C124.953 35.6764 124.9 35.9391 124.874 36.0359C124.851 36.1213 124.869 36.0021 125.024 35.8075L132.833 42.0545ZM134.953 35.187V22.195H124.953V35.187H134.953ZM129.953 27.195H135.777V17.195H129.953V27.195ZM130.777 22.195V35.155H140.777V22.195H130.777ZM130.777 35.155C130.777 37.6801 130.146 38.6744 129.745 39.0755L136.816 46.1465C139.743 43.2196 140.777 39.2432 140.777 35.155H130.777ZM129.745 39.0755C129.36 39.4604 128.35 40.107 125.729 40.107V50.107C129.849 50.107 133.873 49.0896 136.816 46.1465L129.745 39.0755ZM139.744 44.755H134.744C134.744 47.5164 136.983 49.755 139.744 49.755V44.755ZM139.744 22.195V17.195C136.983 17.195 134.744 19.4336 134.744 22.195H139.744ZM145.664 22.195H150.664C150.664 19.4336 148.425 17.195 145.664 17.195V22.195ZM145.664 44.755V49.755C148.425 49.755 150.664 47.5164 150.664 44.755H145.664ZM144.744 44.755V22.195H134.744V44.755H144.744ZM139.744 27.195H145.664V17.195H139.744V27.195ZM140.664 22.195V44.755H150.664V22.195H140.664ZM145.664 39.755H139.744V49.755H145.664V39.755ZM154.99 44.755H149.99C149.99 47.5164 152.228 49.755 154.99 49.755V44.755ZM154.99 26.963H159.99C159.99 24.2016 157.751 21.963 154.99 21.963V26.963ZM148.142 26.963H143.142C143.142 29.7244 145.38 31.963 148.142 31.963V26.963ZM148.142 22.195V17.195C145.38 17.195 143.142 19.4336 143.142 22.195H148.142ZM167.758 22.195H172.758C172.758 19.4336 170.519 17.195 167.758 17.195V22.195ZM167.758 26.963V31.963C170.519 31.963 172.758 29.7244 172.758 26.963H167.758ZM160.91 26.963V21.963C158.148 21.963 155.91 24.2016 155.91 26.963H160.91ZM160.91 44.755V49.755C163.671 49.755 165.91 47.5164 165.91 44.755H160.91ZM159.99 44.755V26.963H149.99V44.755H159.99ZM154.99 21.963H148.142V31.963H154.99V21.963ZM153.142 26.963V22.195H143.142V26.963H153.142ZM148.142 27.195H167.758V17.195H148.142V27.195ZM162.758 22.195V26.963H172.758V22.195H162.758ZM167.758 21.963H160.91V31.963H167.758V21.963ZM155.91 26.963V44.755H165.91V26.963H155.91ZM160.91 39.755H154.99V49.755H160.91V39.755Z" fill="white" mask="url(#path-2-outside-1_2404_5825)"/>
</svg>
