<svg width="58" height="280" viewBox="0 0 58 280" fill="none" xmlns="http://www.w3.org/2000/svg">
<path d="M1.20996 202.885C1.20996 202.885 9.93504 202.885 15.5257 202.885" stroke="black" stroke-width="1.90879" stroke-linecap="round"/>
<path d="M1.20996 72.7772C1.20996 72.7772 10.5168 72.7772 16.4803 72.7772" stroke="black" stroke-width="1.90879" stroke-linecap="round"/>
<path d="M15.5259 5.63555C10.7539 5.37027 1.20996 8.10268 1.20996 21.1546C1.20996 34.2065 1.20996 179.783 1.20996 253.399C1.20996 264.962 8.36792 268.266 15.5259 268.266" stroke="black" stroke-width="1.90879" stroke-linecap="round"/>
<path d="M15.9106 137.726C16.4629 137.726 16.9106 137.279 16.9106 136.726C16.9106 136.174 16.4629 135.726 15.9106 135.726V137.726ZM1.38477 136.726C1.38477 137.726 1.3848 137.726 1.38486 137.726C1.38492 137.726 1.38502 137.726 1.38514 137.726C1.38527 137.726 1.38543 137.726 1.38562 137.726C1.3858 137.726 1.38602 137.726 1.38628 137.726C1.38653 137.726 1.38681 137.726 1.38712 137.726C1.38744 137.726 1.38778 137.726 1.38816 137.726C1.38854 137.726 1.38894 137.726 1.38938 137.726C1.38982 137.726 1.39029 137.726 1.39079 137.726C1.39129 137.726 1.39182 137.726 1.39238 137.726C1.39294 137.726 1.39354 137.726 1.39416 137.726C1.39479 137.726 1.39544 137.726 1.39613 137.726C1.39681 137.726 1.39753 137.726 1.39827 137.726C1.39902 137.726 1.3998 137.726 1.40061 137.726C1.40141 137.726 1.40225 137.726 1.40312 137.726C1.40399 137.726 1.40489 137.726 1.40582 137.726C1.40675 137.726 1.40771 137.726 1.4087 137.726C1.40969 137.726 1.41071 137.726 1.41176 137.726C1.41282 137.726 1.4139 137.726 1.41501 137.726C1.41612 137.726 1.41726 137.726 1.41844 137.726C1.41961 137.726 1.42081 137.726 1.42204 137.726C1.42327 137.726 1.42454 137.726 1.42583 137.726C1.42712 137.726 1.42844 137.726 1.4298 137.726C1.43115 137.726 1.43253 137.726 1.43394 137.726C1.43535 137.726 1.4368 137.726 1.43827 137.726C1.43974 137.726 1.44124 137.726 1.44277 137.726C1.4443 137.726 1.44586 137.726 1.44745 137.726C1.44904 137.726 1.45066 137.726 1.45231 137.726C1.45396 137.726 1.45564 137.726 1.45735 137.726C1.45905 137.726 1.46079 137.726 1.46256 137.726C1.46433 137.726 1.46612 137.726 1.46795 137.726C1.46977 137.726 1.47163 137.726 1.47351 137.726C1.4754 137.726 1.47731 137.726 1.47925 137.726C1.48119 137.726 1.48316 137.726 1.48517 137.726C1.48717 137.726 1.48919 137.726 1.49125 137.726C1.49331 137.726 1.4954 137.726 1.49752 137.726C1.49963 137.726 1.50178 137.726 1.50395 137.726C1.50612 137.726 1.50833 137.726 1.51056 137.726C1.51279 137.726 1.51505 137.726 1.51734 137.726C1.51963 137.726 1.52195 137.726 1.52429 137.726C1.52664 137.726 1.52901 137.726 1.53142 137.726C1.53382 137.726 1.53625 137.726 1.53871 137.726C1.54117 137.726 1.54366 137.726 1.54618 137.726C1.54869 137.726 1.55124 137.726 1.55381 137.726C1.55639 137.726 1.55899 137.726 1.56162 137.726C1.56425 137.726 1.56691 137.726 1.56959 137.726C1.57228 137.726 1.57499 137.726 1.57774 137.726C1.58048 137.726 1.58325 137.726 1.58605 137.726C1.58885 137.726 1.59167 137.726 1.59453 137.726C1.59738 137.726 1.60026 137.726 1.60317 137.726C1.60608 137.726 1.60902 137.726 1.61199 137.726C1.61495 137.726 1.61795 137.726 1.62097 137.726C1.62399 137.726 1.62704 137.726 1.63011 137.726C1.63319 137.726 1.63629 137.726 1.63942 137.726C1.64256 137.726 1.64572 137.726 1.6489 137.726C1.65209 137.726 1.6553 137.726 1.65854 137.726C1.66178 137.726 1.66505 137.726 1.66835 137.726C1.67164 137.726 1.67497 137.726 1.67832 137.726C1.68167 137.726 1.68504 137.726 1.68845 137.726C1.69185 137.726 1.69528 137.726 1.69874 137.726C1.7022 137.726 1.70569 137.726 1.7092 137.726C1.71271 137.726 1.71625 137.726 1.71982 137.726C1.72339 137.726 1.72698 137.726 1.7306 137.726C1.73422 137.726 1.73787 137.726 1.74154 137.726C1.74521 137.726 1.74892 137.726 1.75264 137.726C1.75637 137.726 1.76012 137.726 1.7639 137.726C1.76768 137.726 1.77149 137.726 1.77532 137.726C1.77916 137.726 1.78302 137.726 1.78691 137.726C1.79079 137.726 1.7947 137.726 1.79864 137.726C1.80258 137.726 1.80655 137.726 1.81054 137.726C1.81453 137.726 1.81855 137.726 1.8226 137.726C1.82664 137.726 1.83071 137.726 1.83481 137.726C1.8389 137.726 1.84303 137.726 1.84718 137.726C1.85132 137.726 1.8555 137.726 1.8597 137.726C1.8639 137.726 1.86813 137.726 1.87238 137.726C1.87663 137.726 1.88091 137.726 1.88522 137.726C1.88952 137.726 1.89385 137.726 1.89821 137.726C1.90256 137.726 1.90694 137.726 1.91135 137.726C1.91576 137.726 1.92019 137.726 1.92465 137.726C1.92911 137.726 1.93359 137.726 1.9381 137.726C1.94261 137.726 1.94715 137.726 1.95171 137.726C1.95627 137.726 1.96086 137.726 1.96547 137.726C1.97008 137.726 1.97472 137.726 1.97938 137.726C1.98404 137.726 1.98873 137.726 1.99344 137.726C1.99815 137.726 2.00289 137.726 2.00765 137.726C2.01242 137.726 2.01721 137.726 2.02202 137.726C2.02683 137.726 2.03167 137.726 2.03653 137.726C2.0414 137.726 2.04628 137.726 2.0512 137.726C2.05611 137.726 2.06105 137.726 2.06601 137.726C2.07097 137.726 2.07596 137.726 2.08097 137.726C2.08599 137.726 2.09102 137.726 2.09608 137.726C2.10115 137.726 2.10623 137.726 2.11134 137.726C2.11645 137.726 2.12159 137.726 2.12675 137.726C2.13191 137.726 2.13709 137.726 2.1423 137.726C2.14751 137.726 2.15275 137.726 2.158 137.726C2.16326 137.726 2.16854 137.726 2.17385 137.726C2.17916 137.726 2.18449 137.726 2.18984 137.726C2.1952 137.726 2.20058 137.726 2.20598 137.726C2.21138 137.726 2.21681 137.726 2.22226 137.726C2.22771 137.726 2.23319 137.726 2.23869 137.726C2.24419 137.726 2.24971 137.726 2.25526 137.726C2.26081 137.726 2.26638 137.726 2.27197 137.726C2.27757 137.726 2.28319 137.726 2.28883 137.726C2.29447 137.726 2.30014 137.726 2.30583 137.726C2.31152 137.726 2.31723 137.726 2.32297 137.726C2.32871 137.726 2.33447 137.726 2.34025 137.726C2.34603 137.726 2.35184 137.726 2.35767 137.726C2.36351 137.726 2.36936 137.726 2.37524 137.726C2.38112 137.726 2.38702 137.726 2.39294 137.726C2.39887 137.726 2.40482 137.726 2.41079 137.726C2.41676 137.726 2.42275 137.726 2.42877 137.726C2.43479 137.726 2.44083 137.726 2.44689 137.726C2.45296 137.726 2.45904 137.726 2.46515 137.726C2.47126 137.726 2.47739 137.726 2.48355 137.726C2.48971 137.726 2.49588 137.726 2.50209 137.726C2.50829 137.726 2.51451 137.726 2.52076 137.726C2.52701 137.726 2.53328 137.726 2.53957 137.726C2.54586 137.726 2.55217 137.726 2.55851 137.726C2.56485 137.726 2.57121 137.726 2.57759 137.726C2.58398 137.726 2.59038 137.726 2.59681 137.726C2.60324 137.726 2.60969 137.726 2.61616 137.726C2.62263 137.726 2.62913 137.726 2.63564 137.726C2.64216 137.726 2.6487 137.726 2.65526 137.726C2.66182 137.726 2.66841 137.726 2.67501 137.726C2.68162 137.726 2.68825 137.726 2.6949 137.726C2.70155 137.726 2.70822 137.726 2.71491 137.726C2.72161 137.726 2.72832 137.726 2.73506 137.726C2.7418 137.726 2.74856 137.726 2.75534 137.726C2.76212 137.726 2.76893 137.726 2.77575 137.726C2.78258 137.726 2.78943 137.726 2.79629 137.726C2.80316 137.726 2.81005 137.726 2.81697 137.726C2.82388 137.726 2.83081 137.726 2.83777 137.726C2.84472 137.726 2.8517 137.726 2.8587 137.726C2.86569 137.726 2.87271 137.726 2.87975 137.726C2.8868 137.726 2.89386 137.726 2.90094 137.726C2.90802 137.726 2.91513 137.726 2.92226 137.726C2.92938 137.726 2.93653 137.726 2.9437 137.726C2.95087 137.726 2.95806 137.726 2.96527 137.726C2.97248 137.726 2.97971 137.726 2.98696 137.726C2.99421 137.726 3.00149 137.726 3.00878 137.726C3.01608 137.726 3.02339 137.726 3.03073 137.726C3.03806 137.726 3.04542 137.726 3.0528 137.726C3.06018 137.726 3.06757 137.726 3.07499 137.726C3.08241 137.726 3.08985 137.726 3.09731 137.726C3.10477 137.726 3.11226 137.726 3.11976 137.726C3.12726 137.726 3.13478 137.726 3.14232 137.726C3.14987 137.726 3.15743 137.726 3.16501 137.726C3.1726 137.726 3.1802 137.726 3.18782 137.726C3.19545 137.726 3.20309 137.726 3.21076 137.726C3.21842 137.726 3.2261 137.726 3.23381 137.726C3.24151 137.726 3.24924 137.726 3.25698 137.726C3.26473 137.726 3.27249 137.726 3.28028 137.726C3.28807 137.726 3.29587 137.726 3.3037 137.726C3.31152 137.726 3.31936 137.726 3.32723 137.726C3.33509 137.726 3.34298 137.726 3.35088 137.726C3.35879 137.726 3.36671 137.726 3.37466 137.726C3.3826 137.726 3.39056 137.726 3.39855 137.726C3.40653 137.726 3.41453 137.726 3.42255 137.726C3.43057 137.726 3.43862 137.726 3.44668 137.726C3.45474 137.726 3.46282 137.726 3.47092 137.726C3.47902 137.726 3.48714 137.726 3.49528 137.726C3.50342 137.726 3.51157 137.726 3.51975 137.726C3.52793 137.726 3.53612 137.726 3.54434 137.726C3.55255 137.726 3.56079 137.726 3.56904 137.726C3.5773 137.726 3.58557 137.726 3.59386 137.726C3.60215 137.726 3.61046 137.726 3.61879 137.726C3.62712 137.726 3.63547 137.726 3.64384 137.726C3.6522 137.726 3.66059 137.726 3.66899 137.726C3.6774 137.726 3.68582 137.726 3.69427 137.726C3.70271 137.726 3.71117 137.726 3.71965 137.726C3.72813 137.726 3.73663 137.726 3.74514 137.726C3.75366 137.726 3.76219 137.726 3.77075 137.726C3.7793 137.726 3.78787 137.726 3.79646 137.726C3.80505 137.726 3.81366 137.726 3.82229 137.726C3.83092 137.726 3.83956 137.726 3.84823 137.726C3.85689 137.726 3.86557 137.726 3.87427 137.726C3.88297 137.726 3.89169 137.726 3.90043 137.726C3.90916 137.726 3.91792 137.726 3.92669 137.726C3.93546 137.726 3.94425 137.726 3.95306 137.726C3.96187 137.726 3.97069 137.726 3.97954 137.726C3.98838 137.726 3.99724 137.726 4.00612 137.726C4.015 137.726 4.0239 137.726 4.03281 137.726C4.04173 137.726 4.05066 137.726 4.05961 137.726C4.06856 137.726 4.07753 137.726 4.08651 137.726C4.0955 137.726 4.1045 137.726 4.11352 137.726C4.12254 137.726 4.13158 137.726 4.14063 137.726C4.14969 137.726 4.15876 137.726 4.16785 137.726C4.17694 137.726 4.18605 137.726 4.19517 137.726C4.2043 137.726 4.21344 137.726 4.2226 137.726C4.23175 137.726 4.24093 137.726 4.25012 137.726C4.25932 137.726 4.26853 137.726 4.27775 137.726C4.28698 137.726 4.29622 137.726 4.30548 137.726C4.31474 137.726 4.32402 137.726 4.33332 137.726C4.34261 137.726 4.35192 137.726 4.36125 137.726C4.37058 137.726 4.37992 137.726 4.38928 137.726C4.39865 137.726 4.40802 137.726 4.41742 137.726C4.42681 137.726 4.43622 137.726 4.44565 137.726C4.45508 137.726 4.46452 137.726 4.47399 137.726C4.48345 137.726 4.49292 137.726 4.50242 137.726C4.51191 137.726 4.52142 137.726 4.53095 137.726C4.54047 137.726 4.55002 137.726 4.55958 137.726C4.56913 137.726 4.57871 137.726 4.5883 137.726C4.59789 137.726 4.6075 137.726 4.61712 137.726C4.62675 137.726 4.63639 137.726 4.64604 137.726C4.6557 137.726 4.66537 137.726 4.67505 137.726C4.68474 137.726 4.69445 137.726 4.70416 137.726C4.71388 137.726 4.72362 137.726 4.73337 137.726C4.74312 137.726 4.75289 137.726 4.76267 137.726C4.77245 137.726 4.78225 137.726 4.79206 137.726C4.80188 137.726 4.8117 137.726 4.82155 137.726C4.83139 137.726 4.84125 137.726 4.85113 137.726C4.861 137.726 4.8709 137.726 4.8808 137.726C4.89071 137.726 4.90063 137.726 4.91057 137.726C4.9205 137.726 4.93046 137.726 4.94042 137.726C4.95039 137.726 4.96037 137.726 4.97037 137.726C4.98037 137.726 4.99038 137.726 5.00041 137.726C5.01044 137.726 5.02048 137.726 5.03054 137.726C5.0406 137.726 5.05067 137.726 5.06076 137.726C5.07085 137.726 5.08095 137.726 5.09107 137.726C5.10119 137.726 5.11132 137.726 5.12147 137.726C5.13161 137.726 5.14178 137.726 5.15195 137.726C5.16213 137.726 5.17232 137.726 5.18253 137.726C5.19273 137.726 5.20295 137.726 5.21319 137.726C5.22342 137.726 5.23367 137.726 5.24394 137.726C5.2542 137.726 5.26448 137.726 5.27477 137.726C5.28507 137.726 5.29538 137.726 5.3057 137.726C5.31602 137.726 5.32635 137.726 5.3367 137.726C5.34706 137.726 5.35742 137.726 5.3678 137.726C5.37818 137.726 5.38857 137.726 5.39898 137.726C5.40938 137.726 5.4198 137.726 5.43024 137.726C5.44067 137.726 5.45112 137.726 5.46159 137.726C5.47205 137.726 5.48253 137.726 5.49302 137.726C5.50351 137.726 5.51401 137.726 5.52453 137.726C5.53505 137.726 5.54558 137.726 5.55612 137.726C5.56667 137.726 5.57723 137.726 5.5878 137.726C5.59838 137.726 5.60896 137.726 5.61956 137.726C5.63016 137.726 5.64078 137.726 5.6514 137.726C5.66203 137.726 5.67267 137.726 5.68332 137.726C5.69398 137.726 5.70465 137.726 5.71533 137.726C5.72601 137.726 5.7367 137.726 5.74741 137.726C5.75811 137.726 5.76883 137.726 5.77957 137.726C5.7903 137.726 5.80105 137.726 5.81181 137.726C5.82257 137.726 5.83334 137.726 5.84413 137.726C5.85491 137.726 5.86571 137.726 5.87652 137.726C5.88733 137.726 5.89816 137.726 5.90899 137.726C5.91983 137.726 5.93068 137.726 5.94155 137.726C5.95241 137.726 5.96328 137.726 5.97417 137.726C5.98506 137.726 5.99596 137.726 6.00688 137.726C6.01779 137.726 6.02872 137.726 6.03965 137.726C6.05059 137.726 6.06154 137.726 6.07251 137.726C6.08347 137.726 6.09445 137.726 6.10544 137.726C6.11643 137.726 6.12743 137.726 6.13844 137.726C6.14945 137.726 6.16048 137.726 6.17152 137.726C6.18256 137.726 6.1936 137.726 6.20467 137.726C6.21573 137.726 6.2268 137.726 6.23789 137.726C6.24898 137.726 6.26008 137.726 6.27119 137.726C6.2823 137.726 6.29342 137.726 6.30455 137.726C6.31569 137.726 6.32683 137.726 6.33799 137.726C6.34915 137.726 6.36032 137.726 6.3715 137.726C6.38268 137.726 6.39388 137.726 6.40508 137.726C6.41629 137.726 6.42751 137.726 6.43873 137.726C6.44996 137.726 6.4612 137.726 6.47245 137.726C6.48371 137.726 6.49497 137.726 6.50624 137.726C6.51752 137.726 6.5288 137.726 6.5401 137.726C6.5514 137.726 6.56271 137.726 6.57403 137.726C6.58535 137.726 6.59668 137.726 6.60802 137.726C6.61937 137.726 6.63072 137.726 6.64209 137.726C6.65345 137.726 6.66483 137.726 6.67621 137.726C6.6876 137.726 6.699 137.726 6.71041 137.726C6.72182 137.726 6.73324 137.726 6.74467 137.726C6.7561 137.726 6.76754 137.726 6.779 137.726C6.79045 137.726 6.80191 137.726 6.81339 137.726C6.82486 137.726 6.83635 137.726 6.84785 137.726C6.85934 137.726 6.87085 137.726 6.88237 137.726C6.89388 137.726 6.90541 137.726 6.91695 137.726C6.92849 137.726 6.94004 137.726 6.9516 137.726C6.96316 137.726 6.97473 137.726 6.98631 137.726C6.99789 137.726 7.00948 137.726 7.02108 137.726C7.03268 137.726 7.04429 137.726 7.05591 137.726C7.06754 137.726 7.07917 137.726 7.09081 137.726C7.10245 137.726 7.1141 137.726 7.12577 137.726C7.13743 137.726 7.1491 137.726 7.16078 137.726C7.17247 137.726 7.18416 137.726 7.19586 137.726C7.20756 137.726 7.21927 137.726 7.231 137.726C7.24272 137.726 7.25445 137.726 7.26619 137.726C7.27793 137.726 7.28969 137.726 7.30145 137.726C7.31321 137.726 7.32498 137.726 7.33676 137.726C7.34854 137.726 7.36033 137.726 7.37213 137.726C7.38393 137.726 7.39574 137.726 7.40756 137.726C7.41937 137.726 7.4312 137.726 7.44304 137.726C7.45488 137.726 7.46672 137.726 7.47858 137.726C7.49044 137.726 7.5023 137.726 7.51418 137.726C7.52605 137.726 7.53793 137.726 7.54983 137.726C7.56172 137.726 7.57362 137.726 7.58553 137.726C7.59745 137.726 7.60937 137.726 7.62129 137.726C7.63322 137.726 7.64516 137.726 7.65711 137.726C7.66906 137.726 7.68101 137.726 7.69298 137.726C7.70494 137.726 7.71692 137.726 7.7289 137.726C7.74088 137.726 7.75287 137.726 7.76487 137.726C7.77687 137.726 7.78888 137.726 7.8009 137.726C7.81292 137.726 7.82494 137.726 7.83698 137.726C7.84901 137.726 7.86106 137.726 7.87311 137.726C7.88516 137.726 7.89722 137.726 7.90929 137.726C7.92136 137.726 7.93343 137.726 7.94552 137.726C7.9576 137.726 7.9697 137.726 7.9818 137.726C7.9939 137.726 8.00601 137.726 8.01813 137.726C8.03025 137.726 8.04237 137.726 8.05451 137.726C8.06664 137.726 8.07878 137.726 8.09093 137.726C8.10308 137.726 8.11524 137.726 8.12741 137.726C8.13957 137.726 8.15175 137.726 8.16393 137.726C8.17611 137.726 8.1883 137.726 8.2005 137.726C8.2127 137.726 8.2249 137.726 8.23712 137.726C8.24933 137.726 8.26155 137.726 8.27378 137.726C8.28601 137.726 8.29824 137.726 8.31049 137.726C8.32273 137.726 8.33498 137.726 8.34724 137.726C8.3595 137.726 8.37176 137.726 8.38404 137.726C8.39631 137.726 8.40859 137.726 8.42088 137.726C8.43317 137.726 8.44546 137.726 8.45777 137.726C8.47007 137.726 8.48238 137.726 8.4947 137.726C8.50701 137.726 8.51934 137.726 8.53167 137.726C8.544 137.726 8.55634 137.726 8.56868 137.726C8.58103 137.726 8.59338 137.726 8.60574 137.726C8.6181 137.726 8.63047 137.726 8.64284 137.726C8.65521 137.726 8.66759 137.726 8.67998 137.726C8.69237 137.726 8.70476 137.726 8.71716 137.726C8.72956 137.726 8.74197 137.726 8.75438 137.726C8.76679 137.726 8.77921 137.726 8.79164 137.726C8.80407 137.726 8.8165 137.726 8.82894 137.726C8.84138 137.726 8.85383 137.726 8.86628 137.726C8.87873 137.726 8.89119 137.726 8.90366 137.726C8.91612 137.726 8.92859 137.726 8.94107 137.726C8.95355 137.726 8.96603 137.726 8.97852 137.726C8.99101 137.726 9.00351 137.726 9.01601 137.726C9.02851 137.726 9.04102 137.726 9.05354 137.726C9.06605 137.726 9.07857 137.726 9.0911 137.726C9.10362 137.726 9.11616 137.726 9.1287 137.726C9.14123 137.726 9.15378 137.726 9.16633 137.726C9.17888 137.726 9.19143 137.726 9.20399 137.726C9.21656 137.726 9.22912 137.726 9.24169 137.726C9.25427 137.726 9.26685 137.726 9.27943 137.726C9.29201 137.726 9.3046 137.726 9.3172 137.726C9.32979 137.726 9.34239 137.726 9.355 137.726C9.3676 137.726 9.38022 137.726 9.39283 137.726C9.40545 137.726 9.41807 137.726 9.4307 137.726C9.44332 137.726 9.45596 137.726 9.46859 137.726C9.48123 137.726 9.49387 137.726 9.50652 137.726C9.51917 137.726 9.53182 137.726 9.54448 137.726C9.55714 137.726 9.5698 137.726 9.58247 137.726C9.59513 137.726 9.60781 137.726 9.62048 137.726C9.63316 137.726 9.64584 137.726 9.65853 137.726C9.67122 137.726 9.68391 137.726 9.69661 137.726C9.7093 137.726 9.722 137.726 9.73471 137.726C9.74741 137.726 9.76013 137.726 9.77284 137.726C9.78555 137.726 9.79827 137.726 9.811 137.726C9.82372 137.726 9.83645 137.726 9.84918 137.726C9.86192 137.726 9.87465 137.726 9.8874 137.726C9.90014 137.726 9.91288 137.726 9.92563 137.726C9.93838 137.726 9.95114 137.726 9.9639 137.726C9.97666 137.726 9.98942 137.726 10.0022 137.726C10.015 137.726 10.0277 137.726 10.0405 137.726C10.0533 137.726 10.0661 137.726 10.0788 137.726C10.0916 137.726 10.1044 137.726 10.1172 137.726C10.13 137.726 10.1428 137.726 10.1556 137.726C10.1684 137.726 10.1812 137.726 10.194 137.726C10.2068 137.726 10.2196 137.726 10.2324 137.726C10.2452 137.726 10.258 137.726 10.2709 137.726C10.2837 137.726 10.2965 137.726 10.3093 137.726C10.3222 137.726 10.335 137.726 10.3478 137.726C10.3607 137.726 10.3735 137.726 10.3863 137.726C10.3992 137.726 10.412 137.726 10.4249 137.726C10.4377 137.726 10.4506 137.726 10.4634 137.726C10.4763 137.726 10.4891 137.726 10.502 137.726C10.5149 137.726 10.5277 137.726 10.5406 137.726C10.5534 137.726 10.5663 137.726 10.5792 137.726C10.5921 137.726 10.6049 137.726 10.6178 137.726C10.6307 137.726 10.6436 137.726 10.6565 137.726C10.6693 137.726 10.6822 137.726 10.6951 137.726C10.708 137.726 10.7209 137.726 10.7338 137.726C10.7467 137.726 10.7596 137.726 10.7725 137.726C10.7854 137.726 10.7983 137.726 10.8112 137.726C10.8241 137.726 10.837 137.726 10.8499 137.726C10.8628 137.726 10.8757 137.726 10.8886 137.726C10.9016 137.726 10.9145 137.726 10.9274 137.726C10.9403 137.726 10.9532 137.726 10.9662 137.726C10.9791 137.726 10.992 137.726 11.0049 137.726C11.0179 137.726 11.0308 137.726 11.0437 137.726C11.0566 137.726 11.0696 137.726 11.0825 137.726C11.0955 137.726 11.1084 137.726 11.1213 137.726C11.1343 137.726 11.1472 137.726 11.1602 137.726C11.1731 137.726 11.186 137.726 11.199 137.726C11.2119 137.726 11.2249 137.726 11.2378 137.726C11.2508 137.726 11.2637 137.726 11.2767 137.726C11.2896 137.726 11.3026 137.726 11.3155 137.726C11.3285 137.726 11.3415 137.726 11.3544 137.726C11.3674 137.726 11.3803 137.726 11.3933 137.726C11.4063 137.726 11.4192 137.726 11.4322 137.726C11.4451 137.726 11.4581 137.726 11.4711 137.726C11.484 137.726 11.497 137.726 11.51 137.726C11.523 137.726 11.5359 137.726 11.5489 137.726C11.5619 137.726 11.5748 137.726 11.5878 137.726C11.6008 137.726 11.6138 137.726 11.6267 137.726C11.6397 137.726 11.6527 137.726 11.6657 137.726C11.6786 137.726 11.6916 137.726 11.7046 137.726C11.7176 137.726 11.7305 137.726 11.7435 137.726C11.7565 137.726 11.7695 137.726 11.7825 137.726C11.7954 137.726 11.8084 137.726 11.8214 137.726C11.8344 137.726 11.8474 137.726 11.8603 137.726C11.8733 137.726 11.8863 137.726 11.8993 137.726C11.9123 137.726 11.9253 137.726 11.9382 137.726C11.9512 137.726 11.9642 137.726 11.9772 137.726C11.9902 137.726 12.0032 137.726 12.0161 137.726C12.0291 137.726 12.0421 137.726 12.0551 137.726C12.0681 137.726 12.0811 137.726 12.094 137.726C12.107 137.726 12.12 137.726 12.133 137.726C12.146 137.726 12.159 137.726 12.1719 137.726C12.1849 137.726 12.1979 137.726 12.2109 137.726C12.2239 137.726 12.2369 137.726 12.2498 137.726C12.2628 137.726 12.2758 137.726 12.2888 137.726C12.3018 137.726 12.3148 137.726 12.3277 137.726C12.3407 137.726 12.3537 137.726 12.3667 137.726C12.3797 137.726 12.3926 137.726 12.4056 137.726C12.4186 137.726 12.4316 137.726 12.4445 137.726C12.4575 137.726 12.4705 137.726 12.4835 137.726C12.4964 137.726 12.5094 137.726 12.5224 137.726C12.5354 137.726 12.5483 137.726 12.5613 137.726C12.5743 137.726 12.5873 137.726 12.6002 137.726C12.6132 137.726 12.6262 137.726 12.6391 137.726C12.6521 137.726 12.6651 137.726 12.678 137.726C12.691 137.726 12.704 137.726 12.7169 137.726C12.7299 137.726 12.7428 137.726 12.7558 137.726C12.7688 137.726 12.7817 137.726 12.7947 137.726C12.8076 137.726 12.8206 137.726 12.8335 137.726C12.8465 137.726 12.8595 137.726 12.8724 137.726C12.8854 137.726 12.8983 137.726 12.9113 137.726C12.9242 137.726 12.9371 137.726 12.9501 137.726C12.963 137.726 12.976 137.726 12.9889 137.726C13.0019 137.726 13.0148 137.726 13.0277 137.726C13.0407 137.726 13.0536 137.726 13.0665 137.726C13.0795 137.726 13.0924 137.726 13.1053 137.726C13.1183 137.726 13.1312 137.726 13.1441 137.726C13.157 137.726 13.17 137.726 13.1829 137.726C13.1958 137.726 13.2087 137.726 13.2216 137.726C13.2345 137.726 13.2475 137.726 13.2604 137.726C13.2733 137.726 13.2862 137.726 13.2991 137.726C13.312 137.726 13.3249 137.726 13.3378 137.726C13.3507 137.726 13.3636 137.726 13.3765 137.726C13.3894 137.726 13.4023 137.726 13.4152 137.726C13.4281 137.726 13.441 137.726 13.4539 137.726C13.4667 137.726 13.4796 137.726 13.4925 137.726C13.5054 137.726 13.5183 137.726 13.5311 137.726C13.544 137.726 13.5569 137.726 13.5697 137.726C13.5826 137.726 13.5955 137.726 13.6083 137.726C13.6212 137.726 13.6341 137.726 13.6469 137.726C13.6598 137.726 13.6726 137.726 13.6855 137.726C13.6983 137.726 13.7112 137.726 13.724 137.726C13.7369 137.726 13.7497 137.726 13.7625 137.726C13.7754 137.726 13.7882 137.726 13.801 137.726C13.8139 137.726 13.8267 137.726 13.8395 137.726C13.8523 137.726 13.8652 137.726 13.878 137.726C13.8908 137.726 13.9036 137.726 13.9164 137.726C13.9292 137.726 13.942 137.726 13.9548 137.726C13.9676 137.726 13.9804 137.726 13.9932 137.726C14.006 137.726 14.0188 137.726 14.0316 137.726C14.0444 137.726 14.0572 137.726 14.0699 137.726C14.0827 137.726 14.0955 137.726 14.1083 137.726C14.121 137.726 14.1338 137.726 14.1466 137.726C14.1593 137.726 14.1721 137.726 14.1848 137.726C14.1976 137.726 14.2103 137.726 14.2231 137.726C14.2358 137.726 14.2486 137.726 14.2613 137.726C14.274 137.726 14.2868 137.726 14.2995 137.726C14.3122 137.726 14.325 137.726 14.3377 137.726C14.3504 137.726 14.3631 137.726 14.3758 137.726C14.3885 137.726 14.4012 137.726 14.4139 137.726C14.4266 137.726 14.4393 137.726 14.452 137.726C14.4647 137.726 14.4774 137.726 14.4901 137.726C14.5028 137.726 14.5154 137.726 14.5281 137.726C14.5408 137.726 14.5534 137.726 14.5661 137.726C14.5788 137.726 14.5914 137.726 14.6041 137.726C14.6167 137.726 14.6294 137.726 14.642 137.726C14.6547 137.726 14.6673 137.726 14.6799 137.726C14.6926 137.726 14.7052 137.726 14.7178 137.726C14.7304 137.726 14.743 137.726 14.7556 137.726C14.7683 137.726 14.7809 137.726 14.7935 137.726C14.8061 137.726 14.8187 137.726 14.8312 137.726C14.8438 137.726 14.8564 137.726 14.869 137.726C14.8816 137.726 14.8941 137.726 14.9067 137.726C14.9193 137.726 14.9318 137.726 14.9444 137.726C14.9569 137.726 14.9695 137.726 14.982 137.726C14.9946 137.726 15.0071 137.726 15.0196 137.726C15.0322 137.726 15.0447 137.726 15.0572 137.726C15.0697 137.726 15.0822 137.726 15.0948 137.726C15.1073 137.726 15.1198 137.726 15.1323 137.726C15.1448 137.726 15.1572 137.726 15.1697 137.726C15.1822 137.726 15.1947 137.726 15.2072 137.726C15.2196 137.726 15.2321 137.726 15.2445 137.726C15.257 137.726 15.2695 137.726 15.2819 137.726C15.2943 137.726 15.3068 137.726 15.3192 137.726C15.3316 137.726 15.3441 137.726 15.3565 137.726C15.3689 137.726 15.3813 137.726 15.3937 137.726C15.4061 137.726 15.4185 137.726 15.4309 137.726C15.4433 137.726 15.4557 137.726 15.4681 137.726C15.4805 137.726 15.4928 137.726 15.5052 137.726C15.5176 137.726 15.5299 137.726 15.5423 137.726C15.5546 137.726 15.567 137.726 15.5793 137.726C15.5916 137.726 15.604 137.726 15.6163 137.726C15.6286 137.726 15.6409 137.726 15.6532 137.726C15.6655 137.726 15.6778 137.726 15.6901 137.726C15.7024 137.726 15.7147 137.726 15.727 137.726C15.7393 137.726 15.7516 137.726 15.7638 137.726C15.7761 137.726 15.7883 137.726 15.8006 137.726C15.8128 137.726 15.8251 137.726 15.8373 137.726C15.8496 137.726 15.8618 137.726 15.874 137.726C15.8862 137.726 15.8984 137.726 15.9106 137.726V135.726C15.8984 135.726 15.8862 135.726 15.874 135.726C15.8618 135.726 15.8496 135.726 15.8373 135.726C15.8251 135.726 15.8128 135.726 15.8006 135.726C15.7883 135.726 15.7761 135.726 15.7638 135.726C15.7516 135.726 15.7393 135.726 15.727 135.726C15.7147 135.726 15.7024 135.726 15.6901 135.726C15.6778 135.726 15.6655 135.726 15.6532 135.726C15.6409 135.726 15.6286 135.726 15.6163 135.726C15.604 135.726 15.5916 135.726 15.5793 135.726C15.567 135.726 15.5546 135.726 15.5423 135.726C15.5299 135.726 15.5176 135.726 15.5052 135.726C15.4928 135.726 15.4805 135.726 15.4681 135.726C15.4557 135.726 15.4433 135.726 15.4309 135.726C15.4185 135.726 15.4061 135.726 15.3937 135.726C15.3813 135.726 15.3689 135.726 15.3565 135.726C15.3441 135.726 15.3316 135.726 15.3192 135.726C15.3068 135.726 15.2943 135.726 15.2819 135.726C15.2695 135.726 15.257 135.726 15.2445 135.726C15.2321 135.726 15.2196 135.726 15.2072 135.726C15.1947 135.726 15.1822 135.726 15.1697 135.726C15.1572 135.726 15.1448 135.726 15.1323 135.726C15.1198 135.726 15.1073 135.726 15.0948 135.726C15.0822 135.726 15.0697 135.726 15.0572 135.726C15.0447 135.726 15.0322 135.726 15.0196 135.726C15.0071 135.726 14.9946 135.726 14.982 135.726C14.9695 135.726 14.9569 135.726 14.9444 135.726C14.9318 135.726 14.9193 135.726 14.9067 135.726C14.8941 135.726 14.8816 135.726 14.869 135.726C14.8564 135.726 14.8438 135.726 14.8312 135.726C14.8187 135.726 14.8061 135.726 14.7935 135.726C14.7809 135.726 14.7683 135.726 14.7556 135.726C14.743 135.726 14.7304 135.726 14.7178 135.726C14.7052 135.726 14.6926 135.726 14.6799 135.726C14.6673 135.726 14.6547 135.726 14.642 135.726C14.6294 135.726 14.6167 135.726 14.6041 135.726C14.5914 135.726 14.5788 135.726 14.5661 135.726C14.5534 135.726 14.5408 135.726 14.5281 135.726C14.5154 135.726 14.5028 135.726 14.4901 135.726C14.4774 135.726 14.4647 135.726 14.452 135.726C14.4393 135.726 14.4266 135.726 14.4139 135.726C14.4012 135.726 14.3885 135.726 14.3758 135.726C14.3631 135.726 14.3504 135.726 14.3377 135.726C14.325 135.726 14.3122 135.726 14.2995 135.726C14.2868 135.726 14.274 135.726 14.2613 135.726C14.2486 135.726 14.2358 135.726 14.2231 135.726C14.2103 135.726 14.1976 135.726 14.1848 135.726C14.1721 135.726 14.1593 135.726 14.1466 135.726C14.1338 135.726 14.121 135.726 14.1083 135.726C14.0955 135.726 14.0827 135.726 14.0699 135.726C14.0572 135.726 14.0444 135.726 14.0316 135.726C14.0188 135.726 14.006 135.726 13.9932 135.726C13.9804 135.726 13.9676 135.726 13.9548 135.726C13.942 135.726 13.9292 135.726 13.9164 135.726C13.9036 135.726 13.8908 135.726 13.878 135.726C13.8652 135.726 13.8523 135.726 13.8395 135.726C13.8267 135.726 13.8139 135.726 13.801 135.726C13.7882 135.726 13.7754 135.726 13.7625 135.726C13.7497 135.726 13.7369 135.726 13.724 135.726C13.7112 135.726 13.6983 135.726 13.6855 135.726C13.6726 135.726 13.6598 135.726 13.6469 135.726C13.6341 135.726 13.6212 135.726 13.6083 135.726C13.5955 135.726 13.5826 135.726 13.5697 135.726C13.5569 135.726 13.544 135.726 13.5311 135.726C13.5183 135.726 13.5054 135.726 13.4925 135.726C13.4796 135.726 13.4667 135.726 13.4539 135.726C13.441 135.726 13.4281 135.726 13.4152 135.726C13.4023 135.726 13.3894 135.726 13.3765 135.726C13.3636 135.726 13.3507 135.726 13.3378 135.726C13.3249 135.726 13.312 135.726 13.2991 135.726C13.2862 135.726 13.2733 135.726 13.2604 135.726C13.2475 135.726 13.2345 135.726 13.2216 135.726C13.2087 135.726 13.1958 135.726 13.1829 135.726C13.17 135.726 13.157 135.726 13.1441 135.726C13.1312 135.726 13.1183 135.726 13.1053 135.726C13.0924 135.726 13.0795 135.726 13.0665 135.726C13.0536 135.726 13.0407 135.726 13.0277 135.726C13.0148 135.726 13.0019 135.726 12.9889 135.726C12.976 135.726 12.963 135.726 12.9501 135.726C12.9371 135.726 12.9242 135.726 12.9113 135.726C12.8983 135.726 12.8854 135.726 12.8724 135.726C12.8595 135.726 12.8465 135.726 12.8335 135.726C12.8206 135.726 12.8076 135.726 12.7947 135.726C12.7817 135.726 12.7688 135.726 12.7558 135.726C12.7428 135.726 12.7299 135.726 12.7169 135.726C12.704 135.726 12.691 135.726 12.678 135.726C12.6651 135.726 12.6521 135.726 12.6391 135.726C12.6262 135.726 12.6132 135.726 12.6002 135.726C12.5873 135.726 12.5743 135.726 12.5613 135.726C12.5483 135.726 12.5354 135.726 12.5224 135.726C12.5094 135.726 12.4964 135.726 12.4835 135.726C12.4705 135.726 12.4575 135.726 12.4445 135.726C12.4316 135.726 12.4186 135.726 12.4056 135.726C12.3926 135.726 12.3797 135.726 12.3667 135.726C12.3537 135.726 12.3407 135.726 12.3277 135.726C12.3148 135.726 12.3018 135.726 12.2888 135.726C12.2758 135.726 12.2628 135.726 12.2498 135.726C12.2369 135.726 12.2239 135.726 12.2109 135.726C12.1979 135.726 12.1849 135.726 12.1719 135.726C12.159 135.726 12.146 135.726 12.133 135.726C12.12 135.726 12.107 135.726 12.094 135.726C12.0811 135.726 12.0681 135.726 12.0551 135.726C12.0421 135.726 12.0291 135.726 12.0161 135.726C12.0032 135.726 11.9902 135.726 11.9772 135.726C11.9642 135.726 11.9512 135.726 11.9382 135.726C11.9253 135.726 11.9123 135.726 11.8993 135.726C11.8863 135.726 11.8733 135.726 11.8603 135.726C11.8474 135.726 11.8344 135.726 11.8214 135.726C11.8084 135.726 11.7954 135.726 11.7825 135.726C11.7695 135.726 11.7565 135.726 11.7435 135.726C11.7305 135.726 11.7176 135.726 11.7046 135.726C11.6916 135.726 11.6786 135.726 11.6657 135.726C11.6527 135.726 11.6397 135.726 11.6267 135.726C11.6138 135.726 11.6008 135.726 11.5878 135.726C11.5748 135.726 11.5619 135.726 11.5489 135.726C11.5359 135.726 11.523 135.726 11.51 135.726C11.497 135.726 11.484 135.726 11.4711 135.726C11.4581 135.726 11.4451 135.726 11.4322 135.726C11.4192 135.726 11.4063 135.726 11.3933 135.726C11.3803 135.726 11.3674 135.726 11.3544 135.726C11.3415 135.726 11.3285 135.726 11.3155 135.726C11.3026 135.726 11.2896 135.726 11.2767 135.726C11.2637 135.726 11.2508 135.726 11.2378 135.726C11.2249 135.726 11.2119 135.726 11.199 135.726C11.186 135.726 11.1731 135.726 11.1602 135.726C11.1472 135.726 11.1343 135.726 11.1213 135.726C11.1084 135.726 11.0955 135.726 11.0825 135.726C11.0696 135.726 11.0566 135.726 11.0437 135.726C11.0308 135.726 11.0179 135.726 11.0049 135.726C10.992 135.726 10.9791 135.726 10.9662 135.726C10.9532 135.726 10.9403 135.726 10.9274 135.726C10.9145 135.726 10.9016 135.726 10.8886 135.726C10.8757 135.726 10.8628 135.726 10.8499 135.726C10.837 135.726 10.8241 135.726 10.8112 135.726C10.7983 135.726 10.7854 135.726 10.7725 135.726C10.7596 135.726 10.7467 135.726 10.7338 135.726C10.7209 135.726 10.708 135.726 10.6951 135.726C10.6822 135.726 10.6693 135.726 10.6565 135.726C10.6436 135.726 10.6307 135.726 10.6178 135.726C10.6049 135.726 10.5921 135.726 10.5792 135.726C10.5663 135.726 10.5534 135.726 10.5406 135.726C10.5277 135.726 10.5149 135.726 10.502 135.726C10.4891 135.726 10.4763 135.726 10.4634 135.726C10.4506 135.726 10.4377 135.726 10.4249 135.726C10.412 135.726 10.3992 135.726 10.3863 135.726C10.3735 135.726 10.3607 135.726 10.3478 135.726C10.335 135.726 10.3222 135.726 10.3093 135.726C10.2965 135.726 10.2837 135.726 10.2709 135.726C10.258 135.726 10.2452 135.726 10.2324 135.726C10.2196 135.726 10.2068 135.726 10.194 135.726C10.1812 135.726 10.1684 135.726 10.1556 135.726C10.1428 135.726 10.13 135.726 10.1172 135.726C10.1044 135.726 10.0916 135.726 10.0788 135.726C10.0661 135.726 10.0533 135.726 10.0405 135.726C10.0277 135.726 10.015 135.726 10.0022 135.726C9.98942 135.726 9.97666 135.726 9.9639 135.726C9.95114 135.726 9.93838 135.726 9.92563 135.726C9.91288 135.726 9.90014 135.726 9.8874 135.726C9.87465 135.726 9.86192 135.726 9.84918 135.726C9.83645 135.726 9.82372 135.726 9.811 135.726C9.79827 135.726 9.78555 135.726 9.77284 135.726C9.76013 135.726 9.74741 135.726 9.73471 135.726C9.722 135.726 9.7093 135.726 9.69661 135.726C9.68391 135.726 9.67122 135.726 9.65853 135.726C9.64584 135.726 9.63316 135.726 9.62048 135.726C9.60781 135.726 9.59513 135.726 9.58247 135.726C9.5698 135.726 9.55714 135.726 9.54448 135.726C9.53182 135.726 9.51917 135.726 9.50652 135.726C9.49387 135.726 9.48123 135.726 9.46859 135.726C9.45596 135.726 9.44332 135.726 9.4307 135.726C9.41807 135.726 9.40545 135.726 9.39283 135.726C9.38022 135.726 9.3676 135.726 9.355 135.726C9.34239 135.726 9.32979 135.726 9.3172 135.726C9.3046 135.726 9.29201 135.726 9.27943 135.726C9.26685 135.726 9.25427 135.726 9.24169 135.726C9.22912 135.726 9.21656 135.726 9.20399 135.726C9.19143 135.726 9.17888 135.726 9.16633 135.726C9.15378 135.726 9.14123 135.726 9.1287 135.726C9.11616 135.726 9.10362 135.726 9.0911 135.726C9.07857 135.726 9.06605 135.726 9.05354 135.726C9.04102 135.726 9.02851 135.726 9.01601 135.726C9.00351 135.726 8.99101 135.726 8.97852 135.726C8.96603 135.726 8.95355 135.726 8.94107 135.726C8.92859 135.726 8.91612 135.726 8.90366 135.726C8.89119 135.726 8.87873 135.726 8.86628 135.726C8.85383 135.726 8.84138 135.726 8.82894 135.726C8.8165 135.726 8.80407 135.726 8.79164 135.726C8.77921 135.726 8.76679 135.726 8.75438 135.726C8.74197 135.726 8.72956 135.726 8.71716 135.726C8.70476 135.726 8.69237 135.726 8.67998 135.726C8.66759 135.726 8.65521 135.726 8.64284 135.726C8.63047 135.726 8.6181 135.726 8.60574 135.726C8.59338 135.726 8.58103 135.726 8.56868 135.726C8.55634 135.726 8.544 135.726 8.53167 135.726C8.51934 135.726 8.50701 135.726 8.4947 135.726C8.48238 135.726 8.47007 135.726 8.45777 135.726C8.44546 135.726 8.43317 135.726 8.42088 135.726C8.40859 135.726 8.39631 135.726 8.38404 135.726C8.37176 135.726 8.3595 135.726 8.34724 135.726C8.33498 135.726 8.32273 135.726 8.31049 135.726C8.29824 135.726 8.28601 135.726 8.27378 135.726C8.26155 135.726 8.24933 135.726 8.23712 135.726C8.2249 135.726 8.2127 135.726 8.2005 135.726C8.1883 135.726 8.17611 135.726 8.16393 135.726C8.15175 135.726 8.13957 135.726 8.12741 135.726C8.11524 135.726 8.10308 135.726 8.09093 135.726C8.07878 135.726 8.06664 135.726 8.05451 135.726C8.04237 135.726 8.03025 135.726 8.01813 135.726C8.00601 135.726 7.9939 135.726 7.9818 135.726C7.9697 135.726 7.9576 135.726 7.94552 135.726C7.93343 135.726 7.92136 135.726 7.90929 135.726C7.89722 135.726 7.88516 135.726 7.87311 135.726C7.86106 135.726 7.84901 135.726 7.83698 135.726C7.82494 135.726 7.81292 135.726 7.8009 135.726C7.78888 135.726 7.77687 135.726 7.76487 135.726C7.75287 135.726 7.74088 135.726 7.7289 135.726C7.71692 135.726 7.70494 135.726 7.69298 135.726C7.68101 135.726 7.66906 135.726 7.65711 135.726C7.64516 135.726 7.63322 135.726 7.62129 135.726C7.60937 135.726 7.59745 135.726 7.58553 135.726C7.57362 135.726 7.56172 135.726 7.54983 135.726C7.53793 135.726 7.52605 135.726 7.51418 135.726C7.5023 135.726 7.49044 135.726 7.47858 135.726C7.46672 135.726 7.45488 135.726 7.44304 135.726C7.4312 135.726 7.41937 135.726 7.40756 135.726C7.39574 135.726 7.38393 135.726 7.37213 135.726C7.36033 135.726 7.34854 135.726 7.33676 135.726C7.32498 135.726 7.31321 135.726 7.30145 135.726C7.28969 135.726 7.27793 135.726 7.26619 135.726C7.25445 135.726 7.24272 135.726 7.231 135.726C7.21927 135.726 7.20756 135.726 7.19586 135.726C7.18416 135.726 7.17247 135.726 7.16078 135.726C7.1491 135.726 7.13743 135.726 7.12577 135.726C7.1141 135.726 7.10245 135.726 7.09081 135.726C7.07917 135.726 7.06754 135.726 7.05591 135.726C7.04429 135.726 7.03268 135.726 7.02108 135.726C7.00948 135.726 6.99789 135.726 6.98631 135.726C6.97473 135.726 6.96316 135.726 6.9516 135.726C6.94004 135.726 6.92849 135.726 6.91695 135.726C6.90541 135.726 6.89388 135.726 6.88237 135.726C6.87085 135.726 6.85934 135.726 6.84785 135.726C6.83635 135.726 6.82486 135.726 6.81339 135.726C6.80191 135.726 6.79045 135.726 6.779 135.726C6.76754 135.726 6.7561 135.726 6.74467 135.726C6.73324 135.726 6.72182 135.726 6.71041 135.726C6.699 135.726 6.6876 135.726 6.67621 135.726C6.66483 135.726 6.65345 135.726 6.64209 135.726C6.63072 135.726 6.61937 135.726 6.60802 135.726C6.59668 135.726 6.58535 135.726 6.57403 135.726C6.56271 135.726 6.5514 135.726 6.5401 135.726C6.5288 135.726 6.51752 135.726 6.50624 135.726C6.49497 135.726 6.48371 135.726 6.47245 135.726C6.4612 135.726 6.44996 135.726 6.43873 135.726C6.42751 135.726 6.41629 135.726 6.40508 135.726C6.39388 135.726 6.38268 135.726 6.3715 135.726C6.36032 135.726 6.34915 135.726 6.33799 135.726C6.32683 135.726 6.31569 135.726 6.30455 135.726C6.29342 135.726 6.2823 135.726 6.27119 135.726C6.26008 135.726 6.24898 135.726 6.23789 135.726C6.2268 135.726 6.21573 135.726 6.20467 135.726C6.1936 135.726 6.18256 135.726 6.17152 135.726C6.16048 135.726 6.14945 135.726 6.13844 135.726C6.12743 135.726 6.11643 135.726 6.10544 135.726C6.09445 135.726 6.08347 135.726 6.07251 135.726C6.06154 135.726 6.05059 135.726 6.03965 135.726C6.02872 135.726 6.01779 135.726 6.00688 135.726C5.99596 135.726 5.98506 135.726 5.97417 135.726C5.96328 135.726 5.95241 135.726 5.94155 135.726C5.93068 135.726 5.91983 135.726 5.90899 135.726C5.89816 135.726 5.88733 135.726 5.87652 135.726C5.86571 135.726 5.85491 135.726 5.84413 135.726C5.83334 135.726 5.82257 135.726 5.81181 135.726C5.80105 135.726 5.7903 135.726 5.77957 135.726C5.76883 135.726 5.75811 135.726 5.74741 135.726C5.7367 135.726 5.72601 135.726 5.71533 135.726C5.70465 135.726 5.69398 135.726 5.68332 135.726C5.67267 135.726 5.66203 135.726 5.6514 135.726C5.64078 135.726 5.63016 135.726 5.61956 135.726C5.60896 135.726 5.59838 135.726 5.5878 135.726C5.57723 135.726 5.56667 135.726 5.55612 135.726C5.54558 135.726 5.53505 135.726 5.52453 135.726C5.51401 135.726 5.50351 135.726 5.49302 135.726C5.48253 135.726 5.47205 135.726 5.46159 135.726C5.45112 135.726 5.44067 135.726 5.43024 135.726C5.4198 135.726 5.40938 135.726 5.39898 135.726C5.38857 135.726 5.37818 135.726 5.3678 135.726C5.35742 135.726 5.34706 135.726 5.3367 135.726C5.32635 135.726 5.31602 135.726 5.3057 135.726C5.29538 135.726 5.28507 135.726 5.27477 135.726C5.26448 135.726 5.2542 135.726 5.24394 135.726C5.23367 135.726 5.22342 135.726 5.21319 135.726C5.20295 135.726 5.19273 135.726 5.18253 135.726C5.17232 135.726 5.16213 135.726 5.15195 135.726C5.14178 135.726 5.13161 135.726 5.12147 135.726C5.11132 135.726 5.10119 135.726 5.09107 135.726C5.08095 135.726 5.07085 135.726 5.06076 135.726C5.05067 135.726 5.0406 135.726 5.03054 135.726C5.02048 135.726 5.01044 135.726 5.00041 135.726C4.99038 135.726 4.98037 135.726 4.97037 135.726C4.96037 135.726 4.95039 135.726 4.94042 135.726C4.93046 135.726 4.9205 135.726 4.91057 135.726C4.90063 135.726 4.89071 135.726 4.8808 135.726C4.8709 135.726 4.861 135.726 4.85113 135.726C4.84125 135.726 4.83139 135.726 4.82155 135.726C4.8117 135.726 4.80188 135.726 4.79206 135.726C4.78225 135.726 4.77245 135.726 4.76267 135.726C4.75289 135.726 4.74312 135.726 4.73337 135.726C4.72362 135.726 4.71388 135.726 4.70416 135.726C4.69445 135.726 4.68474 135.726 4.67505 135.726C4.66537 135.726 4.6557 135.726 4.64604 135.726C4.63639 135.726 4.62675 135.726 4.61712 135.726C4.6075 135.726 4.59789 135.726 4.5883 135.726C4.57871 135.726 4.56913 135.726 4.55958 135.726C4.55002 135.726 4.54047 135.726 4.53095 135.726C4.52142 135.726 4.51191 135.726 4.50242 135.726C4.49292 135.726 4.48345 135.726 4.47399 135.726C4.46452 135.726 4.45508 135.726 4.44565 135.726C4.43622 135.726 4.42681 135.726 4.41742 135.726C4.40802 135.726 4.39865 135.726 4.38928 135.726C4.37992 135.726 4.37058 135.726 4.36125 135.726C4.35192 135.726 4.34261 135.726 4.33332 135.726C4.32402 135.726 4.31474 135.726 4.30548 135.726C4.29622 135.726 4.28698 135.726 4.27775 135.726C4.26853 135.726 4.25932 135.726 4.25012 135.726C4.24093 135.726 4.23175 135.726 4.2226 135.726C4.21344 135.726 4.2043 135.726 4.19517 135.726C4.18605 135.726 4.17694 135.726 4.16785 135.726C4.15876 135.726 4.14969 135.726 4.14063 135.726C4.13158 135.726 4.12254 135.726 4.11352 135.726C4.1045 135.726 4.0955 135.726 4.08651 135.726C4.07753 135.726 4.06856 135.726 4.05961 135.726C4.05066 135.726 4.04173 135.726 4.03281 135.726C4.0239 135.726 4.015 135.726 4.00612 135.726C3.99724 135.726 3.98838 135.726 3.97954 135.726C3.97069 135.726 3.96187 135.726 3.95306 135.726C3.94425 135.726 3.93546 135.726 3.92669 135.726C3.91792 135.726 3.90916 135.726 3.90043 135.726C3.89169 135.726 3.88297 135.726 3.87427 135.726C3.86557 135.726 3.85689 135.726 3.84823 135.726C3.83956 135.726 3.83092 135.726 3.82229 135.726C3.81366 135.726 3.80505 135.726 3.79646 135.726C3.78787 135.726 3.7793 135.726 3.77075 135.726C3.76219 135.726 3.75366 135.726 3.74514 135.726C3.73663 135.726 3.72813 135.726 3.71965 135.726C3.71117 135.726 3.70271 135.726 3.69427 135.726C3.68582 135.726 3.6774 135.726 3.66899 135.726C3.66059 135.726 3.6522 135.726 3.64384 135.726C3.63547 135.726 3.62712 135.726 3.61879 135.726C3.61046 135.726 3.60215 135.726 3.59386 135.726C3.58557 135.726 3.5773 135.726 3.56904 135.726C3.56079 135.726 3.55255 135.726 3.54434 135.726C3.53612 135.726 3.52793 135.726 3.51975 135.726C3.51157 135.726 3.50342 135.726 3.49528 135.726C3.48714 135.726 3.47902 135.726 3.47092 135.726C3.46282 135.726 3.45474 135.726 3.44668 135.726C3.43862 135.726 3.43057 135.726 3.42255 135.726C3.41453 135.726 3.40653 135.726 3.39855 135.726C3.39056 135.726 3.3826 135.726 3.37466 135.726C3.36671 135.726 3.35879 135.726 3.35088 135.726C3.34298 135.726 3.33509 135.726 3.32723 135.726C3.31936 135.726 3.31152 135.726 3.3037 135.726C3.29587 135.726 3.28807 135.726 3.28028 135.726C3.27249 135.726 3.26473 135.726 3.25698 135.726C3.24924 135.726 3.24151 135.726 3.23381 135.726C3.2261 135.726 3.21842 135.726 3.21076 135.726C3.20309 135.726 3.19545 135.726 3.18782 135.726C3.1802 135.726 3.1726 135.726 3.16501 135.726C3.15743 135.726 3.14987 135.726 3.14232 135.726C3.13478 135.726 3.12726 135.726 3.11976 135.726C3.11226 135.726 3.10477 135.726 3.09731 135.726C3.08985 135.726 3.08241 135.726 3.07499 135.726C3.06757 135.726 3.06018 135.726 3.0528 135.726C3.04542 135.726 3.03806 135.726 3.03073 135.726C3.02339 135.726 3.01608 135.726 3.00878 135.726C3.00149 135.726 2.99421 135.726 2.98696 135.726C2.97971 135.726 2.97248 135.726 2.96527 135.726C2.95806 135.726 2.95087 135.726 2.9437 135.726C2.93653 135.726 2.92938 135.726 2.92226 135.726C2.91513 135.726 2.90802 135.726 2.90094 135.726C2.89386 135.726 2.8868 135.726 2.87975 135.726C2.87271 135.726 2.86569 135.726 2.8587 135.726C2.8517 135.726 2.84472 135.726 2.83777 135.726C2.83081 135.726 2.82388 135.726 2.81697 135.726C2.81005 135.726 2.80316 135.726 2.79629 135.726C2.78943 135.726 2.78258 135.726 2.77575 135.726C2.76893 135.726 2.76212 135.726 2.75534 135.726C2.74856 135.726 2.7418 135.726 2.73506 135.726C2.72832 135.726 2.72161 135.726 2.71491 135.726C2.70822 135.726 2.70155 135.726 2.6949 135.726C2.68825 135.726 2.68162 135.726 2.67501 135.726C2.66841 135.726 2.66182 135.726 2.65526 135.726C2.6487 135.726 2.64216 135.726 2.63564 135.726C2.62913 135.726 2.62263 135.726 2.61616 135.726C2.60969 135.726 2.60324 135.726 2.59681 135.726C2.59038 135.726 2.58398 135.726 2.57759 135.726C2.57121 135.726 2.56485 135.726 2.55851 135.726C2.55217 135.726 2.54586 135.726 2.53957 135.726C2.53328 135.726 2.52701 135.726 2.52076 135.726C2.51451 135.726 2.50829 135.726 2.50209 135.726C2.49588 135.726 2.48971 135.726 2.48355 135.726C2.47739 135.726 2.47126 135.726 2.46515 135.726C2.45904 135.726 2.45296 135.726 2.44689 135.726C2.44083 135.726 2.43479 135.726 2.42877 135.726C2.42275 135.726 2.41676 135.726 2.41079 135.726C2.40482 135.726 2.39887 135.726 2.39294 135.726C2.38702 135.726 2.38112 135.726 2.37524 135.726C2.36936 135.726 2.36351 135.726 2.35767 135.726C2.35184 135.726 2.34603 135.726 2.34025 135.726C2.33447 135.726 2.32871 135.726 2.32297 135.726C2.31723 135.726 2.31152 135.726 2.30583 135.726C2.30014 135.726 2.29447 135.726 2.28883 135.726C2.28319 135.726 2.27757 135.726 2.27197 135.726C2.26638 135.726 2.26081 135.726 2.25526 135.726C2.24971 135.726 2.24419 135.726 2.23869 135.726C2.23319 135.726 2.22771 135.726 2.22226 135.726C2.21681 135.726 2.21138 135.726 2.20598 135.726C2.20058 135.726 2.1952 135.726 2.18984 135.726C2.18449 135.726 2.17916 135.726 2.17385 135.726C2.16854 135.726 2.16326 135.726 2.158 135.726C2.15275 135.726 2.14751 135.726 2.1423 135.726C2.13709 135.726 2.13191 135.726 2.12675 135.726C2.12159 135.726 2.11645 135.726 2.11134 135.726C2.10623 135.726 2.10115 135.726 2.09608 135.726C2.09102 135.726 2.08599 135.726 2.08097 135.726C2.07596 135.726 2.07097 135.726 2.06601 135.726C2.06105 135.726 2.05611 135.726 2.0512 135.726C2.04628 135.726 2.0414 135.726 2.03653 135.726C2.03167 135.726 2.02683 135.726 2.02202 135.726C2.01721 135.726 2.01242 135.726 2.00765 135.726C2.00289 135.726 1.99815 135.726 1.99344 135.726C1.98873 135.726 1.98404 135.726 1.97938 135.726C1.97472 135.726 1.97008 135.726 1.96547 135.726C1.96086 135.726 1.95627 135.726 1.95171 135.726C1.94715 135.726 1.94261 135.726 1.9381 135.726C1.93359 135.726 1.92911 135.726 1.92465 135.726C1.92019 135.726 1.91576 135.726 1.91135 135.726C1.90694 135.726 1.90256 135.726 1.89821 135.726C1.89385 135.726 1.88952 135.726 1.88522 135.726C1.88091 135.726 1.87663 135.726 1.87238 135.726C1.86813 135.726 1.8639 135.726 1.8597 135.726C1.8555 135.726 1.85132 135.726 1.84718 135.726C1.84303 135.726 1.8389 135.726 1.83481 135.726C1.83071 135.726 1.82664 135.726 1.8226 135.726C1.81855 135.726 1.81453 135.726 1.81054 135.726C1.80655 135.726 1.80258 135.726 1.79864 135.726C1.7947 135.726 1.79079 135.726 1.78691 135.726C1.78302 135.726 1.77916 135.726 1.77532 135.726C1.77149 135.726 1.76768 135.726 1.7639 135.726C1.76012 135.726 1.75637 135.726 1.75264 135.726C1.74892 135.726 1.74521 135.726 1.74154 135.726C1.73787 135.726 1.73422 135.726 1.7306 135.726C1.72698 135.726 1.72339 135.726 1.71982 135.726C1.71625 135.726 1.71271 135.726 1.7092 135.726C1.70569 135.726 1.7022 135.726 1.69874 135.726C1.69528 135.726 1.69185 135.726 1.68845 135.726C1.68504 135.726 1.68167 135.726 1.67832 135.726C1.67497 135.726 1.67164 135.726 1.66835 135.726C1.66505 135.726 1.66178 135.726 1.65854 135.726C1.6553 135.726 1.65209 135.726 1.6489 135.726C1.64572 135.726 1.64256 135.726 1.63942 135.726C1.63629 135.726 1.63319 135.726 1.63011 135.726C1.62704 135.726 1.62399 135.726 1.62097 135.726C1.61795 135.726 1.61495 135.726 1.61199 135.726C1.60902 135.726 1.60608 135.726 1.60317 135.726C1.60026 135.726 1.59738 135.726 1.59453 135.726C1.59167 135.726 1.58885 135.726 1.58605 135.726C1.58325 135.726 1.58048 135.726 1.57774 135.726C1.57499 135.726 1.57228 135.726 1.56959 135.726C1.56691 135.726 1.56425 135.726 1.56162 135.726C1.55899 135.726 1.55639 135.726 1.55381 135.726C1.55124 135.726 1.54869 135.726 1.54618 135.726C1.54366 135.726 1.54117 135.726 1.53871 135.726C1.53625 135.726 1.53382 135.726 1.53142 135.726C1.52901 135.726 1.52664 135.726 1.52429 135.726C1.52195 135.726 1.51963 135.726 1.51734 135.726C1.51505 135.726 1.51279 135.726 1.51056 135.726C1.50833 135.726 1.50612 135.726 1.50395 135.726C1.50178 135.726 1.49963 135.726 1.49752 135.726C1.4954 135.726 1.49331 135.726 1.49125 135.726C1.48919 135.726 1.48717 135.726 1.48517 135.726C1.48316 135.726 1.48119 135.726 1.47925 135.726C1.47731 135.726 1.4754 135.726 1.47351 135.726C1.47163 135.726 1.46977 135.726 1.46795 135.726C1.46612 135.726 1.46433 135.726 1.46256 135.726C1.46079 135.726 1.45905 135.726 1.45735 135.726C1.45564 135.726 1.45396 135.726 1.45231 135.726C1.45066 135.726 1.44904 135.726 1.44745 135.726C1.44586 135.726 1.4443 135.726 1.44277 135.726C1.44124 135.726 1.43974 135.726 1.43827 135.726C1.4368 135.726 1.43535 135.726 1.43394 135.726C1.43253 135.726 1.43115 135.726 1.4298 135.726C1.42844 135.726 1.42712 135.726 1.42583 135.726C1.42454 135.726 1.42327 135.726 1.42204 135.726C1.42081 135.726 1.41961 135.726 1.41844 135.726C1.41726 135.726 1.41612 135.726 1.41501 135.726C1.4139 135.726 1.41282 135.726 1.41176 135.726C1.41071 135.726 1.40969 135.726 1.4087 135.726C1.40771 135.726 1.40675 135.726 1.40582 135.726C1.40489 135.726 1.40399 135.726 1.40312 135.726C1.40225 135.726 1.40141 135.726 1.40061 135.726C1.3998 135.726 1.39902 135.726 1.39827 135.726C1.39753 135.726 1.39681 135.726 1.39613 135.726C1.39544 135.726 1.39479 135.726 1.39416 135.726C1.39354 135.726 1.39294 135.726 1.39238 135.726C1.39182 135.726 1.39129 135.726 1.39079 135.726C1.39029 135.726 1.38982 135.726 1.38938 135.726C1.38894 135.726 1.38854 135.726 1.38816 135.726C1.38778 135.726 1.38744 135.726 1.38712 135.726C1.38681 135.726 1.38653 135.726 1.38628 135.726C1.38602 135.726 1.3858 135.726 1.38562 135.726C1.38543 135.726 1.38527 135.726 1.38514 135.726C1.38502 135.726 1.38492 135.726 1.38486 135.726C1.3848 135.726 1.38477 135.726 1.38477 136.726Z" fill="black"/>
<path d="M29.8563 3.45649L30.6198 2.7846C31.7651 3.31906 33.1699 4.1742 33.8571 4.81555L33.0478 5.56379C32.3912 4.92244 31.0016 4.02149 29.8563 3.45649ZM36.9112 1.37973H37.1402L37.3387 1.31865L38.087 1.77676C36.1018 5.33474 31.5818 7.47258 27.5505 8.35826C27.4436 8.06813 27.2145 7.59475 27.0007 7.35042C30.8489 6.63272 35.2467 4.57123 36.9112 1.56297V1.37973ZM31.8109 1.37973H37.2013V2.34176H31.8109V1.37973ZM32.9409 0.0664845L34.2236 0.34135C32.8187 1.96 30.742 3.47176 27.9017 4.60177C27.7337 4.3269 27.3825 3.94514 27.1229 3.74663C29.8716 2.7846 31.8872 1.34919 32.9409 0.0664845ZM31.8109 9.0607L32.6508 8.40407C33.8571 9.03016 35.3231 9.99218 36.056 10.7252L35.1551 11.4581C34.4679 10.7404 33.0172 9.71732 31.8109 9.0607ZM39.1406 6.72434H39.3697L39.5835 6.66326L40.3317 7.07556C38.4077 11.5345 33.6433 13.4433 28.6499 14.1762C28.5736 13.8556 28.3445 13.3822 28.1613 13.1226C32.8798 12.5576 37.4914 10.7404 39.1406 6.89231V6.72434ZM34.1778 6.72434H39.446V7.70164H34.1778V6.72434ZM35.4147 5.28893L36.6821 5.57907C35.1398 7.38096 32.7271 9.04543 29.3829 10.2212C29.2455 9.96164 28.9095 9.54935 28.6652 9.33556C31.9025 8.32772 34.2236 6.73961 35.4147 5.28893Z" fill="black"/>
<path d="M27.3825 66.2507H40.0263V67.3654H27.3825V66.2507ZM33.9945 71.4426H39.4155V72.5726H33.9945V71.4426ZM26.8022 77.3828H40.5302V78.4975H26.8022V77.3828ZM33.4448 66.663H34.6359V77.9325H33.4448V66.663ZM28.8943 70.1752H30.0701V77.9783H28.8943V70.1752ZM48.5319 72.5573H49.6924V79.1846H48.5319V72.5573ZM46.0734 70.4653V71.9465H51.8455V70.4653H46.0734ZM44.9586 69.5949H53.0213V72.8322H44.9586V69.5949ZM43.5996 74.0996H53.8307V75.138H44.7448V78.4822H43.5996V74.0996ZM53.2657 74.0996H54.4262V77.2911C54.4262 77.8867 54.304 78.2073 53.8307 78.3753C53.342 78.5586 52.5632 78.5586 51.3721 78.5586C51.3111 78.2532 51.1431 77.8256 50.9751 77.5202C51.8913 77.5507 52.7159 77.5507 52.9603 77.5355C53.1893 77.5202 53.2657 77.4591 53.2657 77.2911V74.0996ZM48.425 65.1207H49.6008V67.8999H48.425V65.1207ZM42.5917 67.4876H55.3577V70.786H54.2124V68.5107H43.7065V70.786H42.5917V67.4876ZM43.8592 65.6857L44.8823 65.2734C45.3862 65.8231 45.9206 66.5561 46.1802 67.06L45.0808 67.5639C44.8517 67.0448 44.3325 66.2507 43.8592 65.6857ZM52.9297 65.2429L54.1208 65.6552C53.6169 66.327 53.0366 67.0295 52.5785 67.5029L51.647 67.1211C52.0746 66.6172 52.6396 65.7926 52.9297 65.2429Z" fill="black"/>
<path d="M33.063 130.19H34.2236V137.932C34.2236 138.65 34.0709 138.986 33.5517 139.184C33.0478 139.368 32.1926 139.398 30.9099 139.398C30.8641 139.062 30.6809 138.558 30.4976 138.222C31.5055 138.253 32.437 138.238 32.7118 138.238C32.9714 138.222 33.063 138.161 33.063 137.917V130.19ZM36.3767 132.481L37.3998 131.962C38.7283 133.489 40.179 135.581 40.7593 137.001L39.614 137.612C39.0796 136.222 37.69 134.069 36.3767 132.481ZM37.3845 136.65L38.5756 137.016C37.125 141.322 34.0098 143.368 28.3445 144.254C28.2376 143.903 27.978 143.414 27.7337 143.124C33.1394 142.422 36.0713 140.574 37.3845 136.65ZM29.673 132.099L30.9252 132.404C30.1922 134.267 28.9859 136.42 27.6115 137.81C27.352 137.596 26.9091 137.276 26.6037 137.123C27.9322 135.825 29.108 133.779 29.673 132.099Z" fill="black"/>
<path d="M36.7432 198.176H40.6829V199.169H36.3462L36.7432 198.176ZM36.8348 195.199L37.9037 195.367C37.4914 198.054 36.7585 200.604 35.5979 202.284C35.4452 202.055 35.0635 201.612 34.8344 201.414C35.9033 199.932 36.4989 197.627 36.8348 195.199ZM32.4217 195.199H33.3074V200.009H32.4217V195.199ZM30.4824 196.527H31.2917V199.474H34.4985V196.527H35.3383V200.436H30.4824V196.527ZM30.1922 201.994H35.5216V202.971H30.1922V201.994ZM32.9562 206.56C33.7502 206.346 34.8497 205.964 35.9949 205.582L36.1477 206.438C35.1398 206.819 34.1472 207.216 33.2768 207.552L32.9562 206.56ZM33.5517 202.437H34.5137V206.56L33.5517 206.85V202.437ZM36.957 199.062C37.4609 203.17 38.5604 206.911 40.9731 208.346C40.7287 208.56 40.3928 208.957 40.2248 209.247C37.7358 207.552 36.6668 203.658 36.1477 199.184L36.957 199.062ZM39.0337 198.711L40.0416 198.802C39.5529 203.78 38.4382 207.14 35.4147 209.247C35.3078 209.049 34.9718 208.606 34.7733 208.392C37.6441 206.544 38.6367 203.307 39.0337 198.711ZM31.2612 202.574H32.2079V203.78C32.2079 205.201 32.0399 207.262 30.4518 208.835C30.2991 208.591 29.9937 208.239 29.7647 208.071C31.1543 206.682 31.2612 205.017 31.2612 203.75V202.574ZM29.047 195.199L30.0853 195.596C29.3371 196.817 28.146 198.192 27.0618 199.108C26.9244 198.879 26.619 198.451 26.4357 198.253C27.413 197.459 28.4972 196.206 29.047 195.199ZM29.3676 198.268L30.3755 198.619C29.5051 200.421 28.1766 202.345 26.9397 203.597C26.8175 203.368 26.4663 202.834 26.2678 202.605C27.413 201.505 28.6041 199.871 29.3676 198.268ZM28.2682 201.047L29.3066 199.993V200.024V209.232H28.2682V201.047Z" fill="black"/>
<path d="M29.9174 260.238L31.0321 260.558C30.1922 262.284 28.879 263.933 27.5963 265.002C27.3825 264.788 26.9244 264.422 26.6495 264.238C27.9475 263.276 29.1997 261.78 29.9174 260.238ZM29.3829 261.994H39.9041V263.032H29.0011L29.3829 261.994ZM26.8328 265.613H40.4844V266.651H26.8328V265.613ZM27.0771 269.262H40.2706V270.301H27.0771V269.262ZM31.704 262.345H32.6966V269.766H31.704V262.345ZM28.9706 262.345H30.009V269.812H28.9706V262.345ZM34.4679 262.345H35.4452V269.812H34.4679V262.345ZM37.2624 262.345H38.316V269.812H37.2624V262.345ZM31.2917 271.339L32.3453 271.232C32.5439 272.133 32.7118 273.294 32.7271 273.996L31.5971 274.164C31.5971 273.446 31.4749 272.255 31.2917 271.339ZM34.4068 271.339L35.4758 271.156C35.8881 272.026 36.3004 273.217 36.4531 273.935L35.3231 274.179C35.1856 273.446 34.8039 272.255 34.4068 271.339ZM37.522 271.247L38.5909 270.881C39.3544 271.797 40.2554 273.08 40.6677 273.905L39.5224 274.317C39.1559 273.507 38.2855 272.194 37.522 271.247ZM28.6194 270.942L29.7189 271.217C29.3218 272.362 28.6194 273.584 27.8101 274.317L26.7259 273.859C27.5199 273.217 28.2376 272.057 28.6194 270.942Z" fill="black"/>
</svg>
