<svg width="516" height="211" viewBox="0 0 516 211" fill="none" xmlns="http://www.w3.org/2000/svg">
<circle cx="229.121" cy="204.5" r="6" fill="#D9D9D9"/>
<circle cx="249.121" cy="204.5" r="6" fill="#D9D9D9"/>
<circle cx="269.121" cy="204.5" r="6" fill="#FAB4F0"/>
<circle cx="289.121" cy="204.5" r="6" fill="#D9D9D9"/>
<g filter="url(#filter0_d_36_12214)">
<path fill-rule="evenodd" clip-rule="evenodd" d="M173.381 4.15704V10.3865H173.382V162.755H173.381V168.985L176.916 172.642H177.634L181.711 168.261C181.936 168.02 182.318 168.02 182.543 168.261L186.62 172.642H187.34L191.597 168.237C191.821 168.006 192.191 168.006 192.414 168.237L196.672 172.642H197.517L201.775 168.237C201.998 168.006 202.369 168.006 202.592 168.237L206.85 172.642H207.695L211.953 168.237C212.176 168.006 212.547 168.006 212.77 168.237L217.027 172.642H217.873L222.131 168.237C222.354 168.006 222.724 168.006 222.948 168.237L227.205 172.642H227.923L232.001 168.261C232.226 168.02 232.608 168.02 232.832 168.261L236.91 172.642H237.629L241.887 168.237C242.11 168.006 242.48 168.006 242.703 168.237L246.961 172.642H247.807L252.065 168.237C252.288 168.006 252.658 168.006 252.881 168.237L257.139 172.642H257.983L262.241 168.237C262.464 168.006 262.834 168.006 263.058 168.237L267.315 172.642H268.161L272.419 168.237C272.642 168.006 273.012 168.006 273.235 168.237L277.493 172.642H278.211L282.289 168.261C282.513 168.02 282.895 168.02 283.12 168.261L287.198 172.642H287.917L292.175 168.237C292.398 168.006 292.768 168.006 292.991 168.237L297.249 172.642H298.095L302.352 168.237C302.576 168.006 302.946 168.006 303.169 168.237L307.427 172.642H308.273L312.53 168.237C312.754 168.006 313.124 168.006 313.347 168.237L317.605 172.642H318.449L322.706 168.237C322.93 168.006 323.3 168.006 323.523 168.237L327.781 172.642H328.627L332.884 168.237C333.108 168.006 333.478 168.006 333.701 168.237L337.959 172.642H338.805L342.619 168.696V167.867H342.621V5.44328H342.619V4.44633L338.805 0.5H337.959L333.701 4.90472C333.478 5.13567 333.108 5.13567 332.884 4.90472L328.627 0.5H327.781L323.523 4.90472C323.3 5.13567 322.93 5.13567 322.706 4.90472L318.449 0.5H317.605L313.347 4.90472C313.124 5.13567 312.754 5.13567 312.53 4.90472L308.273 0.5H307.427L303.169 4.90472C302.946 5.13567 302.576 5.13567 302.352 4.90472L298.095 0.5H297.249L292.991 4.90472C292.768 5.13567 292.398 5.13567 292.175 4.90472L287.917 0.5H287.198L283.12 4.88056C282.895 5.12186 282.513 5.12186 282.289 4.88056L278.211 0.5H277.493L273.235 4.90472C273.012 5.13567 272.642 5.13567 272.419 4.90472L268.161 0.5H267.315L263.058 4.90472C262.834 5.13567 262.464 5.13567 262.241 4.90472L257.983 0.5H257.139L252.881 4.90472C252.658 5.13567 252.288 5.13567 252.065 4.90472L247.807 0.5H246.961L242.703 4.90472C242.48 5.13567 242.11 5.13567 241.887 4.90472L237.629 0.5H236.91L232.832 4.88057C232.608 5.12186 232.226 5.12186 232.001 4.88057L227.923 0.5H227.205L222.948 4.90472C222.724 5.13567 222.354 5.13567 222.131 4.90472L217.873 0.5H217.027L212.77 4.90472C212.547 5.13567 212.176 5.13567 211.953 4.90472L207.695 0.5H206.85L202.592 4.90472C202.369 5.13567 201.998 5.13567 201.775 4.90472L197.517 0.5H196.672L192.414 4.90472C192.191 5.13567 191.821 5.13567 191.597 4.90472L187.34 0.5H186.62L182.543 4.88056C182.318 5.12186 181.936 5.12186 181.711 4.88056L177.634 0.5H176.916L173.381 4.15704Z" fill="white"/>
<rect x="187.529" y="137.806" width="135.696" height="18.7412" rx="3.12353" fill="white" stroke="#D9D9D9" stroke-width="0.567914"/>
<path d="M200.274 147.993H205.092V151.125H204.472V148.47H200.871V151.133H200.274V147.993ZM200.632 149.185H204.679V149.631H200.632V149.185ZM200.632 150.378H204.743V150.855H200.632V150.378ZM199.106 145.655H206.158V146.196H199.106V145.655ZM202.31 144.558H202.922V147.778H202.31V144.558ZM202.016 145.782L202.493 145.981C201.769 147.015 200.497 147.969 199.344 148.43C199.257 148.287 199.082 148.072 198.947 147.953C200.091 147.548 201.364 146.681 202.016 145.782ZM203.208 145.798C203.884 146.633 205.196 147.476 206.325 147.858C206.19 147.977 206.015 148.192 205.927 148.343C204.798 147.889 203.494 146.959 202.739 146.005L203.208 145.798ZM204.838 143.882L205.291 144.359C203.9 144.709 201.729 144.916 199.901 144.987C199.885 144.844 199.813 144.622 199.75 144.479C201.546 144.391 203.677 144.192 204.838 143.882ZM211.875 143.827H212.431V145.464H211.875V143.827ZM210.698 145.099H211.223V146.57H210.698V145.099ZM213.075 145.099H213.6V146.57H213.075V145.099ZM210.046 144.415H214.3V144.852H210.046V144.415ZM209.696 145.663H214.641V146.101H209.696V145.663ZM210.753 148.033V148.581H213.536V148.033H210.753ZM210.753 148.955V149.511H213.536V148.955H210.753ZM210.753 147.118V147.659H213.536V147.118H210.753ZM210.213 146.729H214.101V149.893H210.213V146.729ZM211.103 149.901L211.652 150.116C211.143 150.537 210.316 150.919 209.64 151.157C209.545 151.038 209.33 150.831 209.203 150.728C209.895 150.537 210.658 150.235 211.103 149.901ZM212.566 150.187L212.948 149.869C213.576 150.147 214.276 150.529 214.681 150.823L214.172 151.141C213.815 150.855 213.17 150.473 212.566 150.187ZM207.915 144.661H209.577V148.915H207.915V148.374H209.052V145.202H207.915V144.661ZM207.589 144.661H208.098V149.575H207.589V144.661ZM220.223 143.827H220.779V145.464H220.223V143.827ZM219.046 145.099H219.571V146.57H219.046V145.099ZM221.423 145.099H221.948V146.57H221.423V145.099ZM218.394 144.415H222.648V144.852H218.394V144.415ZM218.044 145.663H222.99V146.101H218.044V145.663ZM219.102 148.033V148.581H221.885V148.033H219.102ZM219.102 148.955V149.511H221.885V148.955H219.102ZM219.102 147.118V147.659H221.885V147.118H219.102ZM218.561 146.729H222.449V149.893H218.561V146.729ZM219.452 149.901L220 150.116C219.491 150.537 218.664 150.919 217.989 151.157C217.893 151.038 217.679 150.831 217.551 150.728C218.243 150.537 219.006 150.235 219.452 149.901ZM220.915 150.187L221.296 149.869C221.924 150.147 222.624 150.529 223.029 150.823L222.521 151.141C222.163 150.855 221.519 150.473 220.915 150.187ZM216.263 144.661H217.925V148.915H216.263V148.374H217.4V145.202H216.263V144.661ZM215.937 144.661H216.446V149.575H215.937V144.661ZM227.347 144.669H231.203V145.242H227.347V144.669ZM227.021 150.275H231.33V150.847H227.021V150.275ZM228.937 144.852H229.549V150.577H228.937V144.852ZM225.542 147.532H226.122V151.133H225.542V147.532ZM225.462 143.811L226.027 144.041C225.677 144.614 225.232 145.297 224.874 145.727L224.445 145.528C224.787 145.075 225.224 144.335 225.462 143.811ZM226.488 144.693L227.037 144.956C226.432 145.846 225.59 146.959 224.922 147.635L224.524 147.397C225.176 146.697 226.011 145.536 226.488 144.693ZM224.015 145.409L224.318 145.019C224.818 145.409 225.415 145.949 225.677 146.331L225.359 146.792C225.089 146.395 224.516 145.814 224.015 145.409ZM226.353 146.522L226.79 146.299C227.196 146.8 227.633 147.476 227.808 147.921L227.347 148.184C227.172 147.738 226.75 147.039 226.353 146.522ZM223.984 147.309C224.787 147.277 225.995 147.222 227.18 147.158V147.667C226.051 147.746 224.89 147.826 224.055 147.874L223.984 147.309ZM226.528 148.47L227.013 148.311C227.283 148.82 227.538 149.48 227.641 149.909L227.124 150.108C227.029 149.662 226.774 148.987 226.528 148.47ZM224.548 148.359L225.105 148.462C224.977 149.217 224.747 149.996 224.469 150.505C224.357 150.426 224.103 150.306 223.968 150.251C224.246 149.774 224.437 149.05 224.548 148.359ZM233.477 148.017H238.557V148.581H233.477V148.017ZM235.679 147.071H236.283V151.141H235.679V147.071ZM234.169 149.003L234.781 149.185C234.383 149.869 233.715 150.513 233.103 150.935C232.992 150.815 232.745 150.617 232.602 150.529C233.214 150.163 233.827 149.599 234.169 149.003ZM237.142 149.297L237.611 148.971C238.223 149.432 238.971 150.084 239.329 150.537L238.82 150.895C238.486 150.45 237.754 149.766 237.142 149.297ZM235.997 146.005C235.329 146.84 233.978 147.738 232.626 148.271C232.562 148.12 232.427 147.897 232.316 147.762C233.699 147.277 235.011 146.363 235.663 145.488H236.268C237.126 146.482 238.51 147.285 239.766 147.667C239.639 147.818 239.504 148.041 239.424 148.2C238.208 147.762 236.76 146.904 235.997 146.005ZM232.531 144.51H239.527V145.067H232.531V144.51ZM234.264 143.827H234.852V145.91H234.264V143.827ZM237.126 143.827H237.715V145.91H237.126V143.827Z" fill="black" fill-opacity="0.85"/>
<path d="M196.816 33.7573H199.161V34.3479H196.58L196.816 33.7573ZM196.871 31.9854L197.507 32.0854C197.262 33.6846 196.825 35.2021 196.135 36.2016C196.044 36.0653 195.817 35.8018 195.68 35.6837C196.317 34.8023 196.671 33.4302 196.871 31.9854ZM194.245 31.9854H194.772V34.8477H194.245V31.9854ZM193.091 32.7759H193.572V34.5297H195.481V32.7759H195.98V35.1021H193.091V32.7759ZM192.918 36.0289H196.089V36.6105H192.918V36.0289ZM194.563 38.7458C195.035 38.6186 195.69 38.3915 196.371 38.1643L196.462 38.6732C195.862 38.9003 195.272 39.1366 194.754 39.3365L194.563 38.7458ZM194.917 36.2925H195.49V38.7458L194.917 38.9185V36.2925ZM196.944 34.2843C197.243 36.7286 197.898 38.9548 199.333 39.809C199.188 39.9362 198.988 40.1724 198.888 40.3451C197.407 39.3365 196.771 37.0194 196.462 34.357L196.944 34.2843ZM198.179 34.0753L198.779 34.1298C198.488 37.0921 197.825 39.0911 196.026 40.3451C195.962 40.227 195.762 39.9635 195.644 39.8362C197.352 38.7368 197.943 36.8104 198.179 34.0753ZM193.554 36.3742H194.118V37.0921C194.118 37.9371 194.018 39.1638 193.073 40.0998C192.982 39.9544 192.8 39.7454 192.664 39.6454C193.491 38.8185 193.554 37.8281 193.554 37.0739V36.3742ZM192.237 31.9854L192.855 32.2217C192.409 32.9486 191.701 33.7664 191.055 34.3116C190.974 34.1753 190.792 33.9209 190.683 33.8027C191.264 33.3302 191.91 32.5851 192.237 31.9854ZM192.427 33.8118L193.027 34.0208C192.509 35.093 191.719 36.2379 190.983 36.983C190.91 36.8467 190.701 36.5287 190.583 36.3924C191.264 35.7382 191.973 34.7659 192.427 33.8118ZM191.773 35.4656L192.391 34.8386V34.8568V40.336H191.773V35.4656ZM205.912 33.621H206.512V36.8558H205.912V33.621ZM205.785 31.9854H206.466V33.2484H205.785V31.9854ZM204.213 35.4292H208.693V35.9472H204.213V35.4292ZM204.967 39.4637H207.884V40.0089H204.967V39.4637ZM204.04 32.9395H208.611V33.512H204.04V32.9395ZM203.704 32.9395H204.304V35.7473C204.304 37.1193 204.167 39.0457 203.241 40.3269C203.141 40.2179 202.886 40.018 202.75 39.9453C203.622 38.7368 203.704 37.0376 203.704 35.7473V32.9395ZM204.676 34.2752H208.202V37.1375H204.64V36.6196H207.611V34.7841H204.676V34.2752ZM204.676 37.7281H208.202V40.3178H207.566V38.2733H205.294V40.3451H204.676V37.7281ZM201.641 31.9945H202.259V40.3451H201.641V31.9945ZM200.369 35.1203H203.431V35.7564H200.369V35.1203ZM201.65 35.3565L202.087 35.5019C201.805 36.7468 201.232 38.3006 200.615 39.0911C200.542 38.9003 200.378 38.6186 200.269 38.446C200.814 37.7554 201.396 36.4288 201.65 35.3565ZM202.186 36.0926C202.432 36.3288 203.304 37.3919 203.486 37.6464L203.077 38.1916C202.841 37.7554 202.132 36.7468 201.85 36.4106L202.186 36.0926ZM200.415 32.7396L200.896 32.6215C201.132 33.2484 201.296 34.0662 201.323 34.5933L200.805 34.7114C200.796 34.1753 200.633 33.3666 200.415 32.7396ZM202.986 32.5488L203.568 32.7032C203.35 33.3575 203.086 34.1844 202.868 34.675L202.423 34.5387C202.632 34.0208 202.877 33.1394 202.986 32.5488ZM218.713 33.7573H221.057V34.3479H218.477L218.713 33.7573ZM218.767 31.9854L219.404 32.0854C219.158 33.6846 218.722 35.2021 218.031 36.2016C217.941 36.0653 217.713 35.8018 217.577 35.6837C218.213 34.8023 218.568 33.4302 218.767 31.9854ZM216.141 31.9854H216.668V34.8477H216.141V31.9854ZM214.987 32.7759H215.469V34.5297H217.377V32.7759H217.877V35.1021H214.987V32.7759ZM214.815 36.0289H217.986V36.6105H214.815V36.0289ZM216.459 38.7458C216.932 38.6186 217.586 38.3915 218.268 38.1643L218.359 38.6732C217.759 38.9003 217.168 39.1366 216.65 39.3365L216.459 38.7458ZM216.814 36.2925H217.386V38.7458L216.814 38.9185V36.2925ZM218.84 34.2843C219.14 36.7286 219.794 38.9548 221.23 39.809C221.085 39.9362 220.885 40.1724 220.785 40.3451C219.304 39.3365 218.667 37.0194 218.359 34.357L218.84 34.2843ZM220.076 34.0753L220.676 34.1298C220.385 37.0921 219.722 39.0911 217.922 40.3451C217.859 40.227 217.659 39.9635 217.541 39.8362C219.249 38.7368 219.84 36.8104 220.076 34.0753ZM215.451 36.3742H216.014V37.0921C216.014 37.9371 215.914 39.1638 214.969 40.0998C214.878 39.9544 214.697 39.7454 214.56 39.6454C215.387 38.8185 215.451 37.8281 215.451 37.0739V36.3742ZM214.133 31.9854L214.751 32.2217C214.306 32.9486 213.597 33.7664 212.952 34.3116C212.87 34.1753 212.689 33.9209 212.579 33.8027C213.161 33.3302 213.806 32.5851 214.133 31.9854ZM214.324 33.8118L214.924 34.0208C214.406 35.093 213.615 36.2379 212.879 36.983C212.807 36.8467 212.598 36.5287 212.48 36.3924C213.161 35.7382 213.87 34.7659 214.324 33.8118ZM213.67 35.4656L214.288 34.8386V34.8568V40.336H213.67V35.4656ZM224.41 34.3388H226.309V35.0112H224.41V34.3388ZM227.082 32.0036H227.781V39.4273C227.781 39.8544 227.672 40.0725 227.4 40.1815C227.145 40.3087 226.7 40.336 226.028 40.336C225.982 40.1452 225.855 39.809 225.746 39.6273C226.273 39.6363 226.736 39.6363 226.882 39.6273C227.027 39.6273 227.082 39.5818 227.082 39.4273V32.0036ZM226.137 34.3388H226.255L226.373 34.3207L226.782 34.4388C226.446 36.7195 225.573 38.4187 224.41 39.3274C224.328 39.1638 224.129 38.9003 223.974 38.7731C225.01 38.0371 225.855 36.3833 226.137 34.4751V34.3388ZM227.745 33.4665C228.199 35.7836 229.126 37.8099 230.744 38.7004C230.589 38.8367 230.362 39.1002 230.253 39.291C228.636 38.237 227.772 36.0744 227.309 33.5483L227.745 33.4665ZM229.835 33.7936L230.416 34.1571C229.844 34.8659 229.044 35.6564 228.436 36.1834L227.927 35.829C228.536 35.302 229.362 34.457 229.835 33.7936ZM222.239 33.1394L222.638 32.6396C223.202 32.9668 223.929 33.4756 224.274 33.8118L223.856 34.3752C223.511 34.0208 222.802 33.4847 222.239 33.1394ZM222.229 38.8185C222.684 38.1552 223.338 37.0194 223.811 36.0471L224.338 36.456C223.892 37.3738 223.32 38.446 222.829 39.2456L222.229 38.8185ZM192.291 48.7559H197.798V52.336H197.089V49.3011H192.973V52.3451H192.291V48.7559ZM192.7 50.1189H197.325V50.6277H192.7V50.1189ZM192.7 51.4819H197.398V52.0271H192.7V51.4819ZM190.955 46.0844H199.015V46.7023H190.955V46.0844ZM194.617 44.8305H195.317V48.5105H194.617V44.8305ZM194.281 46.2298L194.826 46.457C193.999 47.6382 192.546 48.7286 191.228 49.2556C191.128 49.0921 190.928 48.8467 190.774 48.7104C192.082 48.247 193.536 47.2566 194.281 46.2298ZM195.644 46.248C196.416 47.2021 197.916 48.1652 199.206 48.6014C199.052 48.7377 198.852 48.983 198.752 49.1557C197.461 48.6378 195.971 47.5746 195.108 46.4842L195.644 46.248ZM197.507 44.0581L198.025 44.6033C196.435 45.0031 193.954 45.2394 191.864 45.3211C191.846 45.1576 191.764 44.9032 191.691 44.7396C193.745 44.6396 196.18 44.4125 197.507 44.0581ZM205.549 43.9945H206.185V45.8663H205.549V43.9945ZM204.204 45.4483H204.803V47.1294H204.204V45.4483ZM206.921 45.4483H207.52V47.1294H206.921V45.4483ZM203.459 44.6669H208.32V45.1667H203.459V44.6669ZM203.059 46.0935H208.711V46.5933H203.059V46.0935ZM204.267 48.8013V49.4283H207.448V48.8013H204.267ZM204.267 49.8554V50.4914H207.448V49.8554H204.267ZM204.267 47.7564V48.3742H207.448V47.7564H204.267ZM203.649 47.3111H208.093V50.9276H203.649V47.3111ZM204.667 50.9367L205.294 51.182C204.713 51.6636 203.768 52.0998 202.995 52.3724C202.886 52.2361 202.641 51.9998 202.495 51.8817C203.286 51.6636 204.158 51.3183 204.667 50.9367ZM206.339 51.2638L206.775 50.9003C207.493 51.2184 208.293 51.6545 208.756 51.9907L208.175 52.3542C207.766 52.0271 207.03 51.5909 206.339 51.2638ZM201.023 44.9486H202.923V49.8099H201.023V49.192H202.323V45.5665H201.023V44.9486ZM200.651 44.9486H201.232V50.5641H200.651V44.9486ZM215.089 43.9945H215.726V45.8663H215.089V43.9945ZM213.745 45.4483H214.344V47.1294H213.745V45.4483ZM216.462 45.4483H217.061V47.1294H216.462V45.4483ZM213 44.6669H217.861V45.1667H213V44.6669ZM212.6 46.0935H218.252V46.5933H212.6V46.0935ZM213.808 48.8013V49.4283H216.989V48.8013H213.808ZM213.808 49.8554V50.4914H216.989V49.8554H213.808ZM213.808 47.7564V48.3742H216.989V47.7564H213.808ZM213.19 47.3111H217.634V50.9276H213.19V47.3111ZM214.208 50.9367L214.835 51.182C214.254 51.6636 213.309 52.0998 212.536 52.3724C212.427 52.2361 212.182 51.9998 212.036 51.8817C212.827 51.6636 213.699 51.3183 214.208 50.9367ZM215.88 51.2638L216.316 50.9003C217.034 51.2184 217.834 51.6545 218.297 51.9907L217.716 52.3542C217.307 52.0271 216.571 51.5909 215.88 51.2638ZM210.564 44.9486H212.463V49.8099H210.564V49.192H211.864V45.5665H210.564V44.9486ZM210.192 44.9486H210.773V50.5641H210.192V44.9486ZM223.231 44.9577H227.638V45.6119H223.231V44.9577ZM222.859 51.3637H227.784V52.018H222.859V51.3637ZM225.048 45.1667H225.748V51.709H225.048V45.1667ZM221.168 48.2289H221.832V52.3451H221.168V48.2289ZM221.078 43.9763L221.723 44.2398C221.323 44.8941 220.814 45.6755 220.405 46.1662L219.914 45.939C220.305 45.4211 220.805 44.576 221.078 43.9763ZM222.25 44.9849L222.877 45.2848C222.186 46.3025 221.223 47.5746 220.46 48.347L220.005 48.0744C220.75 47.2748 221.705 45.9481 222.25 44.9849ZM219.424 45.8027L219.769 45.3575C220.342 45.8027 221.023 46.4206 221.323 46.8568L220.959 47.3838C220.651 46.9295 219.996 46.2661 219.424 45.8027ZM222.095 47.0749L222.595 46.8204C223.058 47.3929 223.558 48.1652 223.758 48.6741L223.231 48.974C223.031 48.4651 222.55 47.6655 222.095 47.0749ZM219.387 47.9744C220.305 47.9381 221.686 47.8745 223.04 47.8018V48.3833C221.75 48.4742 220.423 48.5651 219.469 48.6196L219.387 47.9744ZM222.295 49.3011L222.849 49.1193C223.158 49.7009 223.449 50.4551 223.567 50.9458L222.977 51.1729C222.868 50.6641 222.577 49.8917 222.295 49.3011ZM220.033 49.1739L220.669 49.292C220.523 50.1552 220.26 51.0457 219.942 51.6273C219.815 51.5364 219.524 51.4001 219.369 51.3365C219.687 50.7913 219.905 49.9644 220.033 49.1739ZM230.237 48.7831H236.043V49.4283H230.237V48.7831ZM232.754 47.7018H233.444V52.3542H232.754V47.7018ZM231.027 49.9099L231.727 50.1189C231.273 50.9003 230.509 51.6363 229.81 52.1179C229.683 51.9816 229.401 51.7545 229.237 51.6545C229.937 51.2365 230.637 50.5914 231.027 49.9099ZM234.426 50.2461L234.962 49.8735C235.662 50.4006 236.516 51.1457 236.925 51.6636L236.343 52.0725C235.961 51.5636 235.125 50.7822 234.426 50.2461ZM233.117 46.4842C232.354 47.4383 230.809 48.4651 229.265 49.0739C229.192 48.9013 229.037 48.6468 228.91 48.4924C230.491 47.9381 231.991 46.8931 232.736 45.8936H233.426C234.408 47.0294 235.989 47.9472 237.424 48.3833C237.279 48.556 237.125 48.8104 237.034 48.9921C235.643 48.4924 233.99 47.511 233.117 46.4842ZM229.156 44.7759H237.152V45.412H229.156V44.7759ZM231.136 43.9945H231.809V46.3752H231.136V43.9945ZM234.408 43.9945H235.08V46.3752H234.408V43.9945ZM194.972 58.7664H198.97V59.3661H194.972V58.7664ZM195.163 60.5474H198.806V61.1471H195.163V60.5474ZM194.863 62.4101H199.179V63.0189H194.863V62.4101ZM196.607 59.0117H197.271V65.336H196.607V59.0117ZM195.217 57.2035L195.78 57.0036C196.071 57.5033 196.344 58.1667 196.453 58.6028L195.862 58.8391C195.762 58.3938 195.499 57.7123 195.217 57.2035ZM198.034 56.9854L198.715 57.1671C198.452 57.7305 198.152 58.3847 197.898 58.7936L197.334 58.6301C197.58 58.1848 197.879 57.4761 198.034 56.9854ZM192.1 57.8123H193.745V58.3484H192.1V57.8123ZM192.764 59.5842H193.273V62.6009H192.764V59.5842ZM193.536 57.8123H193.681L193.8 57.7759L194.199 58.0395C193.936 58.6392 193.545 59.3207 193.218 59.7568C193.127 59.6387 192.945 59.4661 192.836 59.3843C193.1 58.9935 193.391 58.3757 193.536 57.9213V57.8123ZM194.018 63.2097L194.463 63.0371C194.772 63.5641 195.081 64.2547 195.208 64.6909L194.735 64.8817C194.617 64.4273 194.308 63.7277 194.018 63.2097ZM193.127 63.2915L193.572 63.1916C193.781 63.6913 193.963 64.3547 194.009 64.7908L193.527 64.8998C193.491 64.4637 193.327 63.8004 193.127 63.2915ZM192.273 63.2824L192.736 63.2188C192.855 63.764 192.9 64.4546 192.882 64.9089L192.382 64.9725C192.4 64.5182 192.364 63.8276 192.273 63.2824ZM191.928 61.3015V62.2375H194.127V61.3015H191.928ZM191.928 59.8477V60.7654H194.127V59.8477H191.928ZM191.355 59.2843H194.726V62.8099H191.355V59.2843ZM191.437 63.2188L191.937 63.337C191.846 64.1002 191.682 64.8908 191.219 65.3542L190.765 65.0816C191.183 64.6636 191.364 63.9367 191.437 63.2188ZM192.128 56.9854L192.764 57.0672C192.482 58.0758 192.009 59.2661 191.246 60.2202C191.128 60.0839 190.91 59.8931 190.765 59.8113C191.473 58.9663 191.91 57.8486 192.128 56.9854ZM200.369 58.8663H203.386V59.5024H200.369V58.8663ZM201.769 56.9945L202.414 57.0672C202.05 58.8845 201.478 61.3379 201.051 62.8463L200.487 62.5464C200.887 61.1562 201.441 58.7209 201.769 56.9945ZM200.833 62.2738L201.214 61.7922C202.168 62.3283 203.286 63.1552 203.804 63.7822L203.386 64.3274C202.886 63.6913 201.787 62.8281 200.833 62.2738ZM203.15 58.8663H203.268L203.395 58.8391L203.804 58.9209C203.549 62.4465 202.55 64.3728 200.851 65.3633C200.751 65.1997 200.569 64.9544 200.424 64.8181C201.959 64.0184 202.932 62.1012 203.15 59.0026V58.8663ZM203.831 57.5124H206.975V58.1394H203.831V57.5124ZM206.921 60.0203H208.211V60.6473H206.839L206.921 60.0203ZM207.975 60.0203H208.62C208.62 60.0203 208.62 60.2475 208.611 60.3384C208.456 63.4823 208.32 64.6363 208.011 64.9907C207.829 65.2179 207.638 65.2815 207.357 65.3087C207.093 65.3269 206.639 65.3269 206.166 65.2906C206.148 65.1088 206.076 64.8272 205.967 64.6545C206.448 64.6909 206.902 64.6999 207.084 64.6999C207.248 64.6999 207.348 64.6818 207.439 64.5818C207.684 64.3092 207.847 63.1734 207.975 60.1566V60.0203ZM204.858 57.7396H205.53C205.494 60.5655 205.403 63.6368 203.877 65.3542C203.768 65.2088 203.531 65.018 203.368 64.9271C204.803 63.3551 204.84 60.3838 204.858 57.7396ZM206.793 57.5124H207.429C207.357 58.6573 207.22 60.1748 207.093 61.0744L206.466 61.0289C206.603 60.1294 206.739 58.621 206.793 57.5124ZM192.073 73.7831H197.879V74.4283H192.073V73.7831ZM194.59 72.7018H195.281V77.3542H194.59V72.7018ZM192.864 74.9099L193.563 75.1189C193.109 75.9003 192.346 76.6363 191.646 77.1179C191.519 76.9816 191.237 76.7545 191.074 76.6545C191.773 76.2365 192.473 75.5914 192.864 74.9099ZM196.262 75.2461L196.798 74.8735C197.498 75.4006 198.352 76.1457 198.761 76.6636L198.179 77.0725C197.798 76.5636 196.962 75.7822 196.262 75.2461ZM194.954 71.4842C194.19 72.4383 192.646 73.4651 191.101 74.0739C191.028 73.9013 190.874 73.6468 190.746 73.4924C192.328 72.9381 193.827 71.8931 194.572 70.8936H195.262C196.244 72.0294 197.825 72.9472 199.261 73.3833C199.115 73.556 198.961 73.8104 198.87 73.9921C197.48 73.4924 195.826 72.511 194.954 71.4842ZM190.992 69.7759H198.988V70.412H190.992V69.7759ZM192.973 68.9945H193.645V71.3752H192.973V68.9945ZM196.244 68.9945H196.916V71.3752H196.244V68.9945ZM202.541 69.8759H208.565V70.4938H202.541V69.8759ZM205.212 68.9854H205.885V77.336H205.212V68.9854ZM206.112 74.1284C206.684 75.1007 207.766 76.0639 208.756 76.5364C208.611 76.6636 208.384 76.9089 208.275 77.0907C207.284 76.5273 206.203 75.4278 205.603 74.3192L206.112 74.1284ZM204.894 74.1284L205.467 74.3465C204.803 75.5096 203.595 76.5727 202.441 77.1088C202.332 76.9453 202.123 76.6999 201.987 76.5727C203.104 76.1093 204.295 75.137 204.894 74.1284ZM203.64 73.1016V73.9194H207.511V73.1016H203.64ZM203.64 71.7841V72.6019H207.511V71.7841H203.64ZM203.013 71.2571H208.156V74.4555H203.013V71.2571ZM200.415 70.0304L200.887 69.5942C201.414 70.0031 202.041 70.5937 202.332 71.0117L201.832 71.5024C201.56 71.0753 200.951 70.4574 200.415 70.0304ZM200.315 75.8821C200.769 75.2097 201.432 74.0557 201.923 73.0653L202.432 73.5015C201.987 74.4192 201.405 75.5187 200.905 76.3274L200.315 75.8821ZM194.009 83.303H198.597V83.939H194.009V83.303ZM194.027 85.5474H198.043V86.1652H194.027V85.5474ZM195.862 81.9854H196.526V85.8745H195.862V81.9854ZM193.654 83.303H194.308V85.611C194.308 87.0194 194.154 89.0094 193.127 90.3451C193.009 90.227 192.718 90.0634 192.555 89.9998C193.545 88.7277 193.654 86.9194 193.654 85.6019V83.303ZM198.406 83.303H198.525L198.643 83.2757L199.133 83.412C198.897 84.0662 198.615 84.7932 198.352 85.2566L197.77 85.0658C197.988 84.6478 198.234 83.9754 198.406 83.412V83.303ZM195.081 85.9017C195.735 87.7827 197.162 89.2274 199.224 89.7635C199.061 89.9089 198.87 90.1724 198.77 90.3451C196.653 89.6999 195.235 88.1734 194.499 86.0744L195.081 85.9017ZM191.273 82.5669L191.664 82.0763C192.191 82.3398 192.9 82.7669 193.236 83.0576L192.836 83.6119C192.5 83.303 191.81 82.8486 191.273 82.5669ZM190.774 85.0203L191.164 84.5206C191.701 84.7568 192.418 85.1566 192.773 85.4383L192.382 86.0017C192.037 85.7109 191.328 85.2929 190.774 85.0203ZM191.001 89.809C191.428 89.1093 192.037 87.919 192.491 86.8831L193.018 87.292C192.609 88.2552 192.064 89.3819 191.601 90.227L191.001 89.809ZM197.789 85.5474H197.925L198.061 85.5201L198.479 85.7109C197.807 88.2279 196.171 89.6636 194.218 90.3633C194.127 90.1997 193.918 89.9271 193.781 89.7999C195.68 89.182 197.225 87.8826 197.789 85.6746V85.5474ZM201.196 82.3489H207.838V82.8486H201.196V82.3489ZM200.505 85.8926H204.758V86.3379H200.505V85.8926ZM205.512 85.7745H207.893V86.3106H205.512V85.7745ZM205.512 87.0194H207.893V87.501H205.512V87.0194ZM205.34 88.237H207.893V88.7277H205.34V88.237ZM200.451 89.1093H204.64V89.5727H200.451V89.1093ZM201.723 84.1571H203.695V84.5387H201.723V84.1571ZM201.532 84.9295H203.704V85.3202H201.532V84.9295ZM205.276 84.9295H207.529V85.3202H205.276V84.9295ZM205.276 84.1571H207.302V84.5387H205.276V84.1571ZM204.158 82.5579H204.822V85.5474H204.158V82.5579ZM202.296 86.8467H202.886V90.3451H202.296V86.8467ZM200.669 83.303H208.384V84.7568H207.738V83.7391H201.287V84.7568H200.669V83.303ZM201.351 87.8463V88.3642H203.858V87.8463H201.351ZM200.833 87.4555H204.404V88.7458H200.833V87.4555ZM201.351 85.5201H201.896V86.7377H203.34V85.5201H203.913V87.1193H201.351V85.5201ZM205.149 85.7745H205.748V87.4737C205.748 88.3733 205.63 89.5636 204.931 90.3633C204.813 90.2724 204.54 90.1088 204.395 90.0543C205.067 89.3001 205.149 88.2733 205.149 87.4646V85.7745ZM207.557 85.7745H208.184V89.6182C208.184 89.9453 208.12 90.1088 207.884 90.2088C207.648 90.2997 207.266 90.3087 206.657 90.3087C206.63 90.1543 206.548 89.918 206.475 89.7545C206.902 89.7635 207.284 89.7635 207.402 89.7545C207.52 89.7545 207.557 89.7181 207.557 89.6091V85.7745ZM195.59 94.2035L196.235 94.3034C195.935 95.8936 195.362 97.1839 194.317 98.0108C194.281 97.8563 194.136 97.5019 194.018 97.3475C194.881 96.6569 195.362 95.5574 195.59 94.2035ZM194.617 97.6019H198.043V98.2379H194.617V97.6019ZM197.752 97.6019H198.416C198.416 97.6019 198.416 97.82 198.406 97.9199C198.279 100.655 198.152 101.627 197.879 101.954C197.725 102.154 197.561 102.218 197.307 102.245C197.08 102.272 196.68 102.263 196.28 102.245C196.271 102.054 196.208 101.782 196.108 101.609C196.489 101.645 196.844 101.655 196.998 101.655C197.143 101.655 197.225 101.636 197.307 101.536C197.507 101.309 197.643 100.355 197.752 97.7382V97.6019ZM195.744 97.9199L196.398 97.9563C196.208 100.064 195.635 101.446 194.308 102.327C194.227 102.209 193.99 101.945 193.845 101.836C195.099 101.1 195.59 99.8008 195.744 97.9199ZM197.57 94.1399C197.879 95.6573 198.343 96.5751 199.233 97.3747C199.052 97.511 198.843 97.7291 198.752 97.929C197.77 96.984 197.289 95.9299 196.953 94.258L197.57 94.1399ZM192.228 93.9945H192.864V102.345H192.228V93.9945ZM190.846 97.1203H194.063V97.7654H190.846V97.1203ZM192.2 97.3838L192.646 97.5564C192.328 98.765 191.71 100.301 191.083 101.1C191.001 100.9 190.837 100.61 190.719 100.437C191.292 99.7463 191.919 98.4288 192.2 97.3838ZM192.8 98.1107C193.054 98.347 193.963 99.401 194.154 99.6464L193.736 100.192C193.5 99.7645 192.755 98.765 192.464 98.4197L192.8 98.1107ZM190.91 94.7487L191.419 94.6306C191.619 95.2484 191.819 96.0481 191.9 96.5751L191.364 96.7114C191.292 96.1753 191.092 95.3666 190.91 94.7487ZM193.654 94.5579L194.263 94.7214C194.036 95.3938 193.745 96.2207 193.509 96.7296L193.036 96.5842C193.254 96.0481 193.518 95.1667 193.654 94.5579ZM205.785 94.6124H206.43V102.327H205.785V94.6124ZM206.666 98.9649C207.111 99.919 208.002 100.928 208.792 101.427C208.638 101.545 208.429 101.773 208.32 101.927C207.511 101.346 206.63 100.219 206.13 99.1648L206.666 98.9649ZM204.594 96.5206V97.4656H207.711V96.5206H204.594ZM204.594 95.0485V95.9754H207.711V95.0485H204.594ZM203.977 94.4761H208.356V98.038H203.977V94.4761ZM203.631 98.6832H208.593V99.292H203.631V98.6832ZM205.567 98.9467L206.103 99.1557C205.549 100.255 204.531 101.355 203.586 101.918C203.477 101.764 203.268 101.518 203.122 101.409C204.049 100.918 205.049 99.9281 205.567 98.9467ZM201.769 93.9945H202.405V102.345H201.769V93.9945ZM200.387 97.1203H203.659V97.7654H200.387V97.1203ZM201.741 97.3838L202.186 97.5564C201.868 98.765 201.251 100.301 200.624 101.1C200.542 100.9 200.378 100.61 200.26 100.437C200.833 99.7463 201.46 98.4288 201.741 97.3838ZM202.341 98.1107C202.595 98.347 203.504 99.401 203.695 99.6464L203.277 100.192C203.041 99.7645 202.296 98.765 202.005 98.4197L202.341 98.1107ZM200.451 94.7487L200.951 94.6215C201.214 95.2394 201.405 96.0481 201.45 96.5751L200.905 96.7205C200.887 96.1844 200.687 95.3757 200.451 94.7487ZM203.195 94.5579L203.804 94.7214C203.577 95.3938 203.286 96.2207 203.05 96.7296L202.577 96.5842C202.795 96.0481 203.059 95.1667 203.195 94.5579Z" fill="black"/>
<path d="M307.956 53.1573V52.0033L308.12 52.1577C307.683 52.1517 307.271 52.0881 306.884 51.9669C306.496 51.8397 306.157 51.6489 305.866 51.3945L306.139 50.7947C306.429 51.031 306.735 51.2067 307.056 51.3218C307.377 51.4369 307.753 51.4944 308.183 51.4944C308.704 51.4944 309.092 51.3945 309.346 51.1946C309.601 50.9886 309.728 50.7251 309.728 50.404C309.728 50.1435 309.634 49.9376 309.446 49.7861C309.264 49.6286 308.962 49.5044 308.538 49.4136L307.629 49.2228C307.078 49.1016 306.669 48.9047 306.402 48.6321C306.136 48.3535 306.002 47.987 306.002 47.5326C306.002 47.1813 306.087 46.8693 306.257 46.5967C306.432 46.3181 306.675 46.1 306.984 45.9425C307.293 45.7789 307.653 45.6881 308.065 45.6699L307.956 45.7971V44.6613H308.574V45.7971L308.456 45.6699C308.777 45.682 309.104 45.7517 309.437 45.8789C309.77 46.0061 310.052 46.1969 310.282 46.4513L310.028 47.0329C309.785 46.7845 309.516 46.6058 309.219 46.4968C308.922 46.3817 308.592 46.3241 308.229 46.3241C307.768 46.3241 307.402 46.4332 307.129 46.6512C306.856 46.8693 306.72 47.1571 306.72 47.5145C306.72 47.7931 306.805 48.0173 306.975 48.1869C307.15 48.3565 307.432 48.4807 307.82 48.5594L308.728 48.7593C309.316 48.8805 309.752 49.0713 310.037 49.3318C310.322 49.5862 310.464 49.9315 310.464 50.3677C310.464 50.713 310.376 51.0159 310.2 51.2763C310.025 51.5308 309.785 51.7337 309.483 51.8851C309.18 52.0305 308.828 52.1184 308.428 52.1487L308.574 51.9942V53.1573H307.956ZM315.955 52.1941C315.525 52.1941 315.113 52.1274 314.72 51.9942C314.326 51.8609 313.996 51.6701 313.729 51.4217L314.011 50.8402C314.308 51.0825 314.614 51.2582 314.929 51.3672C315.244 51.4762 315.583 51.5308 315.946 51.5308C316.425 51.5308 316.788 51.4308 317.037 51.2309C317.285 51.0249 317.409 50.7251 317.409 50.3313C317.409 49.9557 317.282 49.671 317.028 49.4772C316.773 49.2773 316.401 49.1773 315.91 49.1773H314.947V48.5503H315.846C316.27 48.5503 316.607 48.4413 316.855 48.2232C317.103 48.0052 317.228 47.7083 317.228 47.3327C317.228 46.9935 317.112 46.7361 316.882 46.5604C316.658 46.3786 316.334 46.2878 315.91 46.2878C315.219 46.2878 314.623 46.5331 314.12 47.0238L313.838 46.4332C314.087 46.1787 314.399 45.9819 314.774 45.8425C315.15 45.6972 315.543 45.6245 315.955 45.6245C316.585 45.6245 317.079 45.7698 317.436 46.0606C317.794 46.3514 317.973 46.7542 317.973 47.2691C317.973 47.6629 317.861 48.0021 317.636 48.2868C317.412 48.5655 317.109 48.7563 316.728 48.8593V48.7593C317.182 48.832 317.533 49.0138 317.782 49.3045C318.03 49.5893 318.154 49.9497 318.154 50.3858C318.154 50.9432 317.957 51.3854 317.564 51.7125C317.176 52.0336 316.64 52.1941 315.955 52.1941ZM321.44 52.1941C320.713 52.1941 320.156 51.9124 319.768 51.349C319.381 50.7857 319.187 49.9709 319.187 48.9047C319.187 47.8325 319.381 47.0177 319.768 46.4604C320.156 45.9031 320.713 45.6245 321.44 45.6245C322.173 45.6245 322.73 45.9031 323.112 46.4604C323.5 47.0177 323.694 47.8295 323.694 48.8956C323.694 49.9679 323.5 50.7857 323.112 51.349C322.724 51.9124 322.167 52.1941 321.44 52.1941ZM321.44 51.5398C321.949 51.5398 322.328 51.3248 322.576 50.8947C322.824 50.4646 322.949 49.7982 322.949 48.8956C322.949 47.987 322.824 47.3237 322.576 46.9057C322.328 46.4816 321.949 46.2696 321.44 46.2696C320.937 46.2696 320.559 46.4816 320.304 46.9057C320.056 47.3297 319.932 47.993 319.932 48.8956C319.932 49.7982 320.056 50.4646 320.304 50.8947C320.559 51.3248 320.937 51.5398 321.44 51.5398ZM307.956 65.1573V64.0033L308.12 64.1577C307.683 64.1517 307.271 64.0881 306.884 63.9669C306.496 63.8397 306.157 63.6489 305.866 63.3945L306.139 62.7947C306.429 63.031 306.735 63.2067 307.056 63.3218C307.377 63.4369 307.753 63.4944 308.183 63.4944C308.704 63.4944 309.092 63.3945 309.346 63.1946C309.601 62.9886 309.728 62.7251 309.728 62.404C309.728 62.1435 309.634 61.9376 309.446 61.7861C309.264 61.6286 308.962 61.5044 308.538 61.4136L307.629 61.2228C307.078 61.1016 306.669 60.9047 306.402 60.6321C306.136 60.3535 306.002 59.987 306.002 59.5326C306.002 59.1813 306.087 58.8693 306.257 58.5967C306.432 58.3181 306.675 58.1 306.984 57.9425C307.293 57.7789 307.653 57.6881 308.065 57.6699L307.956 57.7971V56.6613H308.574V57.7971L308.456 57.6699C308.777 57.682 309.104 57.7517 309.437 57.8789C309.77 58.0061 310.052 58.1969 310.282 58.4513L310.028 59.0329C309.785 58.7845 309.516 58.6058 309.219 58.4968C308.922 58.3817 308.592 58.3241 308.229 58.3241C307.768 58.3241 307.402 58.4332 307.129 58.6512C306.856 58.8693 306.72 59.1571 306.72 59.5145C306.72 59.7931 306.805 60.0173 306.975 60.1869C307.15 60.3565 307.432 60.4807 307.82 60.5594L308.728 60.7593C309.316 60.8805 309.752 61.0713 310.037 61.3318C310.322 61.5862 310.464 61.9315 310.464 62.3677C310.464 62.713 310.376 63.0159 310.2 63.2763C310.025 63.5308 309.785 63.7337 309.483 63.8851C309.18 64.0305 308.828 64.1184 308.428 64.1487L308.574 63.9942V65.1573H307.956ZM314.047 64.1123V63.5489L316.319 61.1773C316.616 60.8684 316.837 60.5746 316.982 60.2959C317.134 60.0112 317.209 59.7174 317.209 59.4145C317.209 59.045 317.094 58.7663 316.864 58.5786C316.634 58.3847 316.301 58.2878 315.865 58.2878C315.525 58.2878 315.21 58.3484 314.92 58.4695C314.635 58.5846 314.359 58.7694 314.093 59.0238L313.82 58.4332C314.062 58.1909 314.371 57.997 314.747 57.8516C315.122 57.7002 315.519 57.6245 315.937 57.6245C316.585 57.6245 317.085 57.7759 317.436 58.0788C317.788 58.3756 317.964 58.7997 317.964 59.3509C317.964 59.7568 317.864 60.1445 317.664 60.514C317.47 60.8775 317.185 61.253 316.81 61.6407L314.801 63.6761V63.4672H318.236V64.1123H314.047ZM321.44 64.1941C320.713 64.1941 320.156 63.9124 319.768 63.349C319.381 62.7857 319.187 61.9709 319.187 60.9047C319.187 59.8325 319.381 59.0177 319.768 58.4604C320.156 57.9031 320.713 57.6245 321.44 57.6245C322.173 57.6245 322.73 57.9031 323.112 58.4604C323.5 59.0177 323.694 59.8295 323.694 60.8956C323.694 61.9679 323.5 62.7857 323.112 63.349C322.724 63.9124 322.167 64.1941 321.44 64.1941ZM321.44 63.5398C321.949 63.5398 322.328 63.3248 322.576 62.8947C322.824 62.4646 322.949 61.7982 322.949 60.8956C322.949 59.987 322.824 59.3237 322.576 58.9057C322.328 58.4816 321.949 58.2696 321.44 58.2696C320.937 58.2696 320.559 58.4816 320.304 58.9057C320.056 59.3297 319.932 59.993 319.932 60.8956C319.932 61.7982 320.056 62.4646 320.304 62.8947C320.559 63.3248 320.937 63.5398 321.44 63.5398ZM307.956 78.1573V77.0033L308.12 77.1577C307.683 77.1517 307.271 77.0881 306.884 76.9669C306.496 76.8397 306.157 76.6489 305.866 76.3945L306.139 75.7947C306.429 76.031 306.735 76.2067 307.056 76.3218C307.377 76.4369 307.753 76.4944 308.183 76.4944C308.704 76.4944 309.092 76.3945 309.346 76.1946C309.601 75.9886 309.728 75.7251 309.728 75.404C309.728 75.1435 309.634 74.9376 309.446 74.7861C309.264 74.6286 308.962 74.5044 308.538 74.4136L307.629 74.2228C307.078 74.1016 306.669 73.9047 306.402 73.6321C306.136 73.3535 306.002 72.987 306.002 72.5326C306.002 72.1813 306.087 71.8693 306.257 71.5967C306.432 71.3181 306.675 71.1 306.984 70.9425C307.293 70.7789 307.653 70.6881 308.065 70.6699L307.956 70.7971V69.6613H308.574V70.7971L308.456 70.6699C308.777 70.682 309.104 70.7517 309.437 70.8789C309.77 71.0061 310.052 71.1969 310.282 71.4513L310.028 72.0329C309.785 71.7845 309.516 71.6058 309.219 71.4968C308.922 71.3817 308.592 71.3241 308.229 71.3241C307.768 71.3241 307.402 71.4332 307.129 71.6512C306.856 71.8693 306.72 72.1571 306.72 72.5145C306.72 72.7931 306.805 73.0173 306.975 73.1869C307.15 73.3565 307.432 73.4807 307.82 73.5594L308.728 73.7593C309.316 73.8805 309.752 74.0713 310.037 74.3318C310.322 74.5862 310.464 74.9315 310.464 75.3677C310.464 75.713 310.376 76.0159 310.2 76.2763C310.025 76.5308 309.785 76.7337 309.483 76.8851C309.18 77.0305 308.828 77.1184 308.428 77.1487L308.574 76.9942V78.1573H307.956ZM314.42 77.1123V76.4672H315.928V71.3514H316.328L314.565 72.4509V71.6967L316.137 70.7062H316.682V76.4672H318.1V77.1123H314.42ZM321.44 77.1941C320.713 77.1941 320.156 76.9124 319.768 76.349C319.381 75.7857 319.187 74.9709 319.187 73.9047C319.187 72.8325 319.381 72.0177 319.768 71.4604C320.156 70.9031 320.713 70.6245 321.44 70.6245C322.173 70.6245 322.73 70.9031 323.112 71.4604C323.5 72.0177 323.694 72.8295 323.694 73.8956C323.694 74.9679 323.5 75.7857 323.112 76.349C322.724 76.9124 322.167 77.1941 321.44 77.1941ZM321.44 76.5398C321.949 76.5398 322.328 76.3248 322.576 75.8947C322.824 75.4646 322.949 74.7982 322.949 73.8956C322.949 72.987 322.824 72.3237 322.576 71.9057C322.328 71.4816 321.949 71.2696 321.44 71.2696C320.937 71.2696 320.559 71.4816 320.304 71.9057C320.056 72.3297 319.932 72.993 319.932 73.8956C319.932 74.7982 320.056 75.4646 320.304 75.8947C320.559 76.3248 320.937 76.5398 321.44 76.5398ZM307.956 90.1573V89.0033L308.12 89.1577C307.683 89.1517 307.271 89.0881 306.884 88.9669C306.496 88.8397 306.157 88.6489 305.866 88.3945L306.139 87.7947C306.429 88.031 306.735 88.2067 307.056 88.3218C307.377 88.4369 307.753 88.4944 308.183 88.4944C308.704 88.4944 309.092 88.3945 309.346 88.1946C309.601 87.9886 309.728 87.7251 309.728 87.404C309.728 87.1435 309.634 86.9376 309.446 86.7861C309.264 86.6286 308.962 86.5044 308.538 86.4136L307.629 86.2228C307.078 86.1016 306.669 85.9047 306.402 85.6321C306.136 85.3535 306.002 84.987 306.002 84.5326C306.002 84.1813 306.087 83.8693 306.257 83.5967C306.432 83.3181 306.675 83.1 306.984 82.9425C307.293 82.7789 307.653 82.6881 308.065 82.6699L307.956 82.7971V81.6613H308.574V82.7971L308.456 82.6699C308.777 82.682 309.104 82.7517 309.437 82.8789C309.77 83.0061 310.052 83.1969 310.282 83.4513L310.028 84.0329C309.785 83.7845 309.516 83.6058 309.219 83.4968C308.922 83.3817 308.592 83.3241 308.229 83.3241C307.768 83.3241 307.402 83.4332 307.129 83.6512C306.856 83.8693 306.72 84.1571 306.72 84.5145C306.72 84.7931 306.805 85.0173 306.975 85.1869C307.15 85.3565 307.432 85.4807 307.82 85.5594L308.728 85.7593C309.316 85.8805 309.752 86.0713 310.037 86.3318C310.322 86.5862 310.464 86.9315 310.464 87.3677C310.464 87.713 310.376 88.0159 310.2 88.2763C310.025 88.5308 309.785 88.7337 309.483 88.8851C309.18 89.0305 308.828 89.1184 308.428 89.1487L308.574 88.9942V90.1573H307.956ZM314.42 89.1123V88.4672H315.928V83.3514H316.328L314.565 84.4509V83.6967L316.137 82.7062H316.682V88.4672H318.1V89.1123H314.42ZM321.44 89.1941C320.713 89.1941 320.156 88.9124 319.768 88.349C319.381 87.7857 319.187 86.9709 319.187 85.9047C319.187 84.8325 319.381 84.0177 319.768 83.4604C320.156 82.9031 320.713 82.6245 321.44 82.6245C322.173 82.6245 322.73 82.9031 323.112 83.4604C323.5 84.0177 323.694 84.8295 323.694 85.8956C323.694 86.9679 323.5 87.7857 323.112 88.349C322.724 88.9124 322.167 89.1941 321.44 89.1941ZM321.44 88.5398C321.949 88.5398 322.328 88.3248 322.576 87.8947C322.824 87.4646 322.949 86.7982 322.949 85.8956C322.949 84.987 322.824 84.3237 322.576 83.9057C322.328 83.4816 321.949 83.2696 321.44 83.2696C320.937 83.2696 320.559 83.4816 320.304 83.9057C320.056 84.3297 319.932 84.993 319.932 85.8956C319.932 86.7982 320.056 87.4646 320.304 87.8947C320.559 88.3248 320.937 88.5398 321.44 88.5398ZM307.956 103.157V102.003L308.12 102.158C307.683 102.152 307.271 102.088 306.884 101.967C306.496 101.84 306.157 101.649 305.866 101.394L306.139 100.795C306.429 101.031 306.735 101.207 307.056 101.322C307.377 101.437 307.753 101.494 308.183 101.494C308.704 101.494 309.092 101.394 309.346 101.195C309.601 100.989 309.728 100.725 309.728 100.404C309.728 100.144 309.634 99.9376 309.446 99.7861C309.264 99.6286 308.962 99.5044 308.538 99.4136L307.629 99.2228C307.078 99.1016 306.669 98.9047 306.402 98.6321C306.136 98.3535 306.002 97.987 306.002 97.5326C306.002 97.1813 306.087 96.8693 306.257 96.5967C306.432 96.3181 306.675 96.1 306.984 95.9425C307.293 95.7789 307.653 95.6881 308.065 95.6699L307.956 95.7971V94.6613H308.574V95.7971L308.456 95.6699C308.777 95.682 309.104 95.7517 309.437 95.8789C309.77 96.0061 310.052 96.1969 310.282 96.4513L310.028 97.0329C309.785 96.7845 309.516 96.6058 309.219 96.4968C308.922 96.3817 308.592 96.3241 308.229 96.3241C307.768 96.3241 307.402 96.4332 307.129 96.6512C306.856 96.8693 306.72 97.1571 306.72 97.5145C306.72 97.7931 306.805 98.0173 306.975 98.1869C307.15 98.3565 307.432 98.4807 307.82 98.5594L308.728 98.7593C309.316 98.8805 309.752 99.0713 310.037 99.3318C310.322 99.5862 310.464 99.9315 310.464 100.368C310.464 100.713 310.376 101.016 310.2 101.276C310.025 101.531 309.785 101.734 309.483 101.885C309.18 102.031 308.828 102.118 308.428 102.149L308.574 101.994V103.157H307.956ZM314.42 102.112V101.467H315.928V96.3514H316.328L314.565 97.4509V96.6967L316.137 95.7062H316.682V101.467H318.1V102.112H314.42ZM321.44 102.194C320.713 102.194 320.156 101.912 319.768 101.349C319.381 100.786 319.187 99.9709 319.187 98.9047C319.187 97.8325 319.381 97.0177 319.768 96.4604C320.156 95.9031 320.713 95.6245 321.44 95.6245C322.173 95.6245 322.73 95.9031 323.112 96.4604C323.5 97.0177 323.694 97.8295 323.694 98.8956C323.694 99.9679 323.5 100.786 323.112 101.349C322.724 101.912 322.167 102.194 321.44 102.194ZM321.44 101.54C321.949 101.54 322.328 101.325 322.576 100.895C322.824 100.465 322.949 99.7982 322.949 98.8956C322.949 97.987 322.824 97.3237 322.576 96.9057C322.328 96.4816 321.949 96.2696 321.44 96.2696C320.937 96.2696 320.559 96.4816 320.304 96.9057C320.056 97.3297 319.932 97.993 319.932 98.8956C319.932 99.7982 320.056 100.465 320.304 100.895C320.559 101.325 320.937 101.54 321.44 101.54Z" fill="black"/>
<path d="M298.672 129.865V127.903L298.95 128.166C298.208 128.155 297.508 128.047 296.849 127.841C296.19 127.625 295.613 127.301 295.119 126.868L295.582 125.849C296.076 126.25 296.596 126.549 297.142 126.744C297.688 126.94 298.327 127.038 299.058 127.038C299.943 127.038 300.602 126.868 301.035 126.528C301.467 126.178 301.684 125.73 301.684 125.184C301.684 124.741 301.524 124.391 301.205 124.134C300.896 123.866 300.381 123.655 299.66 123.501L298.115 123.176C297.178 122.97 296.483 122.635 296.03 122.172C295.577 121.698 295.35 121.075 295.35 120.303C295.35 119.706 295.495 119.175 295.783 118.712C296.082 118.238 296.493 117.867 297.019 117.6C297.544 117.322 298.157 117.167 298.857 117.136L298.672 117.353V115.422H299.722V117.353L299.521 117.136C300.067 117.157 300.623 117.275 301.189 117.492C301.756 117.708 302.235 118.032 302.626 118.465L302.193 119.453C301.782 119.031 301.323 118.727 300.819 118.542C300.314 118.346 299.753 118.248 299.135 118.248C298.352 118.248 297.729 118.434 297.266 118.805C296.802 119.175 296.571 119.664 296.571 120.272C296.571 120.746 296.715 121.127 297.003 121.415C297.302 121.704 297.781 121.915 298.44 122.049L299.985 122.388C300.983 122.594 301.725 122.919 302.209 123.362C302.693 123.794 302.935 124.381 302.935 125.123C302.935 125.71 302.786 126.224 302.487 126.667C302.188 127.1 301.782 127.445 301.267 127.702C300.752 127.949 300.154 128.099 299.475 128.15L299.722 127.888V129.865H298.672ZM312.332 128.227C311.086 128.227 310.123 127.965 309.444 127.44C308.764 126.904 308.424 126.157 308.424 125.2C308.424 124.448 308.656 123.825 309.119 123.331C309.583 122.826 310.195 122.522 310.958 122.419V122.651C310.268 122.507 309.717 122.193 309.305 121.709C308.893 121.214 308.687 120.633 308.687 119.963C308.687 119.047 309.011 118.336 309.66 117.831C310.309 117.316 311.2 117.059 312.332 117.059C313.475 117.059 314.371 117.316 315.02 117.831C315.669 118.336 315.993 119.047 315.993 119.963C315.993 120.633 315.798 121.214 315.406 121.709C315.025 122.203 314.49 122.512 313.8 122.635V122.419C314.552 122.522 315.149 122.826 315.592 123.331C316.035 123.825 316.256 124.448 316.256 125.2C316.256 126.157 315.916 126.904 315.236 127.44C314.557 127.965 313.589 128.227 312.332 128.227ZM312.332 127.177C313.239 127.177 313.913 127.007 314.356 126.667C314.809 126.327 315.036 125.812 315.036 125.123C315.036 124.443 314.809 123.938 314.356 123.609C313.913 123.269 313.239 123.099 312.332 123.099C311.426 123.099 310.746 123.269 310.293 123.609C309.85 123.938 309.629 124.443 309.629 125.123C309.629 125.812 309.856 126.327 310.309 126.667C310.762 127.007 311.436 127.177 312.332 127.177ZM312.332 122.049C313.115 122.049 313.712 121.873 314.124 121.523C314.546 121.173 314.758 120.689 314.758 120.071C314.758 119.453 314.546 118.974 314.124 118.635C313.712 118.285 313.115 118.109 312.332 118.109C311.55 118.109 310.947 118.285 310.525 118.635C310.113 118.974 309.907 119.453 309.907 120.071C309.907 120.689 310.113 121.173 310.525 121.523C310.947 121.873 311.55 122.049 312.332 122.049ZM321.595 128.227C320.359 128.227 319.411 127.749 318.752 126.791C318.093 125.833 317.764 124.448 317.764 122.635C317.764 120.813 318.093 119.428 318.752 118.48C319.411 117.533 320.359 117.059 321.595 117.059C322.841 117.059 323.788 117.533 324.437 118.48C325.096 119.428 325.426 120.808 325.426 122.62C325.426 124.443 325.096 125.833 324.437 126.791C323.778 127.749 322.83 128.227 321.595 128.227ZM321.595 127.115C322.46 127.115 323.103 126.75 323.526 126.018C323.948 125.287 324.159 124.154 324.159 122.62C324.159 121.075 323.948 119.948 323.526 119.237C323.103 118.516 322.46 118.156 321.595 118.156C320.74 118.156 320.096 118.516 319.664 119.237C319.242 119.958 319.03 121.086 319.03 122.62C319.03 124.154 319.242 125.287 319.664 126.018C320.096 126.75 320.74 127.115 321.595 127.115Z" fill="black"/>
<line x1="330.156" y1="109.088" x2="185.845" y2="109.088" stroke="black" stroke-width="0.567914"/>
<path d="M195.109 16.2774H200.353V17.453H195.109V16.2774ZM197.338 16.7579H198.585V23.6171C198.585 24.3122 198.452 24.6496 198.012 24.8438C197.583 25.038 196.929 25.0687 196.019 25.0687C195.978 24.7211 195.774 24.1691 195.61 23.8113C196.223 23.842 196.878 23.842 197.082 23.842C197.276 23.842 197.338 23.7807 197.338 23.6069V16.7579ZM191.235 18.6081H194.537V19.5281H191.235V18.6081ZM191.296 15.7867H194.557V16.717H191.296V15.7867ZM191.235 19.9984H194.537V20.9286H191.235V19.9984ZM190.734 17.1667H194.946V18.1379H190.734V17.1667ZM191.797 21.4193H194.506V24.5269H191.797V23.5558H193.433V22.3904H191.797V21.4193ZM191.204 21.4193H192.267V24.9358H191.204V21.4193ZM205.597 18.8841H206.875V25.0687H205.597V18.8841ZM203.88 20.6935V21.2455H208.715V20.6935H203.88ZM203.88 19.2726V19.8144H208.715V19.2726H203.88ZM202.674 18.3321H209.973V22.186H202.674V18.3321ZM201.713 22.7175H210.872V23.7705H201.713V22.7175ZM203.4 16.6045V17.1974H204.841V16.6045H203.4ZM202.306 15.8685H205.986V17.9232H202.306V15.8685ZM207.683 16.6045V17.1974H209.155V16.6045H207.683ZM206.599 15.8685H210.3V17.9232H206.599V15.8685ZM213.254 16.0321H216.188V22.3086H213.254V21.1842H215.053V17.1361H213.254V16.0321ZM213.264 18.5877H215.503V19.6815H213.264V18.5877ZM217.629 15.8787H220.768V17.0134H217.629V15.8787ZM217.629 18.3219H220.768V19.4259H217.629V18.3219ZM217.609 20.7446H220.757V21.8384H217.609V20.7446ZM212.6 16.0321H213.734V23.198H212.6V16.0321ZM220.307 15.8787H221.524V23.6682C221.524 24.302 221.391 24.6394 220.992 24.8336C220.583 25.0278 220.001 25.0585 219.132 25.0585C219.081 24.7211 218.887 24.1896 218.713 23.8727C219.265 23.9033 219.888 23.8931 220.062 23.8931C220.246 23.8931 220.307 23.8318 220.307 23.6478V15.8787ZM216.893 15.8787H218.099V19.5895C218.099 21.358 217.823 23.7602 215.932 25.1505C215.748 24.9051 215.278 24.486 215.012 24.3225C216.74 23.0651 216.893 21.1433 216.893 19.5792V15.8787ZM229.14 16.717H230.213V23.9442H229.14V16.717ZM227.208 16.2365H232.237V24.8336H231.092V17.3712H228.301V24.9154H227.208V16.2365ZM227.811 19.7428H231.542V20.8468H227.811V19.7428ZM227.811 23.2491H231.532V24.3634H227.811V23.2491ZM224.519 20.489H225.603V25.0585H224.519V20.489ZM224.488 15.4596L225.572 15.8685C225.153 16.6658 224.662 17.5654 224.274 18.1481L223.436 17.7801C223.814 17.1667 224.253 16.1752 224.488 15.4596ZM225.725 16.6965L226.727 17.177C225.971 18.3321 224.979 19.7428 224.182 20.6117L223.466 20.2028C224.243 19.2828 225.184 17.8005 225.725 16.6965ZM222.904 17.8721L223.476 17.0236C224.008 17.4836 224.652 18.1277 224.918 18.5774L224.294 19.5384C224.049 19.0579 223.425 18.3526 222.904 17.8721ZM225.49 19.1295L226.38 18.741C226.799 19.4259 227.218 20.3153 227.351 20.8979L226.4 21.3477C226.277 20.7651 225.889 19.8348 225.49 19.1295ZM222.873 19.937C223.824 19.8859 225.224 19.7837 226.594 19.6815L226.615 20.6424C225.357 20.7753 224.059 20.9082 223.047 21.0206L222.873 19.937ZM225.633 21.726L226.553 21.4193C226.819 22.0429 227.095 22.8607 227.228 23.3922L226.247 23.7398C226.155 23.198 225.879 22.3598 225.633 21.726ZM223.344 21.4602L224.356 21.6442C224.253 22.6153 224.028 23.6376 223.742 24.2918C223.528 24.1589 223.068 23.9442 222.812 23.8522C223.098 23.2491 223.262 22.3291 223.344 21.4602Z" fill="black"/>
</g>
<defs>
<filter id="filter0_d_36_12214" x="169.84" y="0.5" width="176.322" height="179.223" filterUnits="userSpaceOnUse" color-interpolation-filters="sRGB">
<feFlood flood-opacity="0" result="BackgroundImageFix"/>
<feColorMatrix in="SourceAlpha" type="matrix" values="0 0 0 0 0 0 0 0 0 0 0 0 0 0 0 0 0 0 127 0" result="hardAlpha"/>
<feOffset dy="3.54073"/>
<feGaussianBlur stdDeviation="1.77037"/>
<feComposite in2="hardAlpha" operator="out"/>
<feColorMatrix type="matrix" values="0 0 0 0 0 0 0 0 0 0 0 0 0 0 0 0 0 0 0.25 0"/>
<feBlend mode="normal" in2="BackgroundImageFix" result="effect1_dropShadow_36_12214"/>
<feBlend mode="normal" in="SourceGraphic" in2="effect1_dropShadow_36_12214" result="shape"/>
</filter>
</defs>
</svg>
