<svg width="112" height="45" viewBox="0 0 112 45" fill="none" xmlns="http://www.w3.org/2000/svg">
<circle cx="44.7209" cy="22.6638" r="21.1516" fill="#FFD800"/>
<circle cx="44.9119" cy="22.6638" r="19.8054" fill="white"/>
<path d="M41.8631 7.26561L44.7202 18.9994C44.9353 19.8828 46.1221 20.044 46.5651 19.2501L52.3206 8.93457C52.5283 8.56227 52.482 8.09266 52.1624 7.81052C49.5516 5.50575 45.1983 5.6171 42.5874 6.10019C42.0515 6.19935 41.7342 6.73605 41.8631 7.26561Z" fill="#FFD800"/>
<path d="M45.7182 11.7769C46.0712 11.8651 46.1693 12.818 46.1693 13.1302" stroke="#FFD800" stroke-width="3" stroke-linecap="round"/>
<ellipse cx="46.132" cy="13.9982" rx="0.368652" ry="0.807922" transform="rotate(-12.3061 46.132 13.9982)" fill="white"/>
<path d="M53.5881 9.75404L47.3113 20.0714C46.8388 20.8481 47.564 21.8013 48.4386 21.5532L59.8025 18.3287C60.2127 18.2124 60.512 17.8476 60.4855 17.422C60.2691 13.9462 57.1121 10.9467 54.9243 9.44212C54.4752 9.13328 53.8714 9.28841 53.5881 9.75404Z" fill="#FFD800"/>
<path d="M53.1245 15.6699C53.3117 15.9819 52.7072 16.7251 52.4865 16.9458" stroke="#FFD800" stroke-width="3" stroke-linecap="round"/>
<ellipse cx="51.8465" cy="17.5334" rx="0.368652" ry="0.807922" transform="rotate(32.6939 51.8465 17.5334)" fill="white"/>
<path d="M60.1191 19.8048L48.3853 22.6619C47.5019 22.877 47.3407 24.0639 48.1346 24.5068L58.4501 30.2623C58.8224 30.47 59.292 30.4237 59.5742 30.1041C61.879 27.4933 61.7676 23.14 61.2845 20.5291C61.1854 19.9932 60.6487 19.6759 60.1191 19.8048Z" fill="#FFD800"/>
<path d="M55.6078 23.6597C55.5196 24.0128 54.5667 24.1109 54.2545 24.1109" stroke="#FFD800" stroke-width="3" stroke-linecap="round"/>
<ellipse cx="53.3869" cy="24.0739" rx="0.368652" ry="0.807922" transform="rotate(77.6939 53.3869 24.0739)" fill="white"/>
<path d="M57.6308 31.5305L47.3134 25.2538C46.5367 24.7812 45.5835 25.5064 45.8317 26.3811L49.0561 37.745C49.1725 38.1551 49.5373 38.4544 49.9628 38.4279C53.4386 38.2115 56.4381 35.0545 57.9427 32.8668C58.2515 32.4177 58.0964 31.8138 57.6308 31.5305Z" fill="#FFD800"/>
<path d="M51.7152 31.0664C51.4031 31.2537 50.6599 30.6492 50.4392 30.4284" stroke="#FFD800" stroke-width="3" stroke-linecap="round"/>
<ellipse cx="49.8514" cy="29.7886" rx="0.368652" ry="0.807922" transform="rotate(122.694 49.8514 29.7886)" fill="white"/>
<path d="M47.5812 38.062L44.7241 26.3282C44.509 25.4449 43.3222 25.2836 42.8792 26.0776L37.1237 36.3931C36.916 36.7654 36.9623 37.235 37.2819 37.5171C39.8928 39.8219 44.2461 39.7105 46.8569 39.2275C47.3929 39.1283 47.7102 38.5916 47.5812 38.062Z" fill="#FFD800"/>
<path d="M43.7262 33.5508C43.3731 33.4625 43.2751 32.5096 43.2751 32.1974" stroke="#FFD800" stroke-width="3" stroke-linecap="round"/>
<ellipse cx="43.3123" cy="31.3294" rx="0.368652" ry="0.807922" transform="rotate(167.694 43.3123 31.3294)" fill="white"/>
<path d="M35.8543 35.574L42.1311 25.2567C42.6036 24.4799 41.8784 23.5267 41.0038 23.7749L29.6399 26.9993C29.2297 27.1157 28.9304 27.4805 28.9569 27.906C29.1733 31.3819 32.3303 34.3814 34.5181 35.8859C34.9671 36.1948 35.571 36.0397 35.8543 35.574Z" fill="#FFD800"/>
<path d="M36.3179 29.6582C36.1307 29.3461 36.7351 28.603 36.9559 28.3822" stroke="#FFD800" stroke-width="3" stroke-linecap="round"/>
<ellipse cx="37.5959" cy="27.7947" rx="0.368652" ry="0.807922" transform="rotate(-147.306 37.5959 27.7947)" fill="white"/>
<path d="M29.3233 25.5231L41.0571 22.6659C41.9405 22.4508 42.1017 21.264 41.3078 20.8211L30.9923 15.0656C30.6199 14.8579 30.1503 14.9042 29.8682 15.2238C27.5634 17.8346 27.6748 22.1879 28.1579 24.7988C28.257 25.3347 28.7937 25.652 29.3233 25.5231Z" fill="#FFD800"/>
<path d="M33.8345 21.6681C33.9228 21.315 34.8757 21.217 35.1879 21.217" stroke="#FFD800" stroke-width="3" stroke-linecap="round"/>
<ellipse cx="36.0555" cy="21.2539" rx="0.368652" ry="0.807922" transform="rotate(-102.306 36.0555 21.2539)" fill="white"/>
<path d="M31.8116 13.7974L42.129 20.0742C42.9057 20.5467 43.8589 19.8215 43.6107 18.9469L40.3863 7.58299C40.2699 7.17285 39.9051 6.87353 39.4796 6.90002C36.0038 7.11643 33.0042 10.2734 31.4997 12.4612C31.1908 12.9103 31.346 13.5141 31.8116 13.7974Z" fill="#FFD800"/>
<path d="M37.7272 14.2615C38.0393 14.0743 38.7825 14.6787 39.0032 14.8995" stroke="#FFD800" stroke-width="3" stroke-linecap="round"/>
<ellipse cx="39.591" cy="15.5393" rx="0.368652" ry="0.807922" transform="rotate(-57.3061 39.591 15.5393)" fill="white"/>
<circle cx="17.3394" cy="19.8061" r="15.8482" fill="#FFD800"/>
<circle cx="17.4822" cy="19.8061" r="14.8396" fill="white"/>
<path d="M15.2567 8.50789L17.1881 16.4396C17.4032 17.323 18.59 17.4842 19.0329 16.6903L22.9469 9.67524C23.1547 9.30294 23.1095 8.8311 22.7793 8.56146C20.892 7.0204 17.9111 7.03752 15.9838 7.35326C15.446 7.44138 15.1278 7.97834 15.2567 8.50789Z" fill="#FFD800"/>
<path d="M18.0865 11.6489C18.351 11.7151 18.4245 12.429 18.4245 12.663" stroke="#FFD800" stroke-width="3" stroke-linecap="round"/>
<ellipse cx="18.3969" cy="13.3133" rx="0.27622" ry="0.605351" transform="rotate(-12.3061 18.3969 13.3133)" fill="white"/>
<path d="M23.8558 10.3437L19.6129 17.3179C19.1404 18.0946 19.8656 19.0478 20.7402 18.7997L28.4682 16.6069C28.8783 16.4905 29.18 16.125 29.1372 15.7008C28.8924 13.2766 26.7725 11.1809 25.1864 10.0414C24.7438 9.72334 24.1391 9.87803 23.8558 10.3437Z" fill="#FFD800"/>
<path d="M23.6356 14.5659C23.7759 14.7998 23.323 15.3566 23.1576 15.522" stroke="#FFD800" stroke-width="3" stroke-linecap="round"/>
<ellipse cx="22.6789" cy="15.9622" rx="0.276219" ry="0.605351" transform="rotate(32.6939 22.6789 15.9622)" fill="white"/>
<path d="M28.639 17.7226L20.7072 19.6539C19.8239 19.869 19.6626 21.0558 20.4566 21.4988L27.4716 25.4128C27.8439 25.6205 28.3158 25.5754 28.5854 25.2452C30.1264 23.3578 30.1093 20.377 29.7936 18.4497C29.7055 17.9119 29.1685 17.5937 28.639 17.7226Z" fill="#FFD800"/>
<path d="M25.4979 20.5528C25.4317 20.8173 24.7177 20.8908 24.4838 20.8908" stroke="#FFD800" stroke-width="3" stroke-linecap="round"/>
<ellipse cx="23.8327" cy="20.8631" rx="0.27622" ry="0.605351" transform="rotate(77.6939 23.8327 20.8631)" fill="white"/>
<path d="M26.8026 26.3224L19.8284 22.0795C19.0517 21.607 18.0985 22.3322 18.3466 23.2068L20.5394 30.9348C20.6558 31.3449 21.0214 31.6467 21.4455 31.6038C23.8697 31.359 25.9654 29.2391 27.1049 27.653C27.423 27.2104 27.2683 26.6057 26.8026 26.3224Z" fill="#FFD800"/>
<path d="M22.5806 26.1026C22.3467 26.2429 21.7899 25.79 21.6245 25.6245" stroke="#FFD800" stroke-width="3" stroke-linecap="round"/>
<ellipse cx="21.1841" cy="25.1452" rx="0.276219" ry="0.605351" transform="rotate(122.694 21.1841 25.1452)" fill="white"/>
<path d="M19.4249 31.1052L17.4936 23.1735C17.2785 22.2901 16.0917 22.1289 15.6487 22.9228L11.7347 29.9379C11.527 30.3102 11.5721 30.782 11.9024 31.0516C13.7897 32.5927 16.7705 32.5756 18.6978 32.2598C19.2357 32.1717 19.5539 31.6348 19.4249 31.1052Z" fill="#FFD800"/>
<path d="M16.5952 27.9642C16.3306 27.898 16.2572 27.1841 16.2572 26.9501" stroke="#FFD800" stroke-width="3" stroke-linecap="round"/>
<ellipse cx="16.2847" cy="26.2998" rx="0.27622" ry="0.605351" transform="rotate(167.694 16.2847 26.2998)" fill="white"/>
<path d="M10.8239 29.2698L15.0668 22.2956C15.5393 21.5188 14.8141 20.5656 13.9395 20.8138L6.21149 23.0066C5.80135 23.1229 5.49965 23.4885 5.54249 23.9127C5.78733 26.3369 7.90719 28.4326 9.49326 29.5721C9.9359 29.8901 10.5406 29.7354 10.8239 29.2698Z" fill="#FFD800"/>
<path d="M11.0441 25.0475C10.9038 24.8137 11.3567 24.2569 11.5221 24.0915" stroke="#FFD800" stroke-width="3" stroke-linecap="round"/>
<ellipse cx="12.0008" cy="23.6512" rx="0.276219" ry="0.605351" transform="rotate(-147.306 12.0008 23.6512)" fill="white"/>
<path d="M6.04073 21.8907L13.9725 19.9594C14.8558 19.7443 15.0171 18.5575 14.2231 18.1145L7.20808 14.2005C6.83578 13.9928 6.36394 14.038 6.09429 14.3682C4.55324 16.2555 4.57035 19.2363 4.8861 21.1636C4.97422 21.7015 5.51117 22.0197 6.04073 21.8907Z" fill="#FFD800"/>
<path d="M9.18182 19.0606C9.24796 18.796 9.96194 18.7225 10.1959 18.7225" stroke="#FFD800" stroke-width="3" stroke-linecap="round"/>
<ellipse cx="10.847" cy="18.7502" rx="0.27622" ry="0.605351" transform="rotate(-102.306 10.847 18.7502)" fill="white"/>
<path d="M7.87704 13.2907L14.8513 17.5336C15.628 18.0062 16.5812 17.281 16.3331 16.4064L14.1403 8.67835C14.0239 8.26821 13.6583 7.9665 13.2342 8.00935C10.8099 8.25419 8.71428 10.374 7.57475 11.9601C7.25673 12.4028 7.41141 13.0074 7.87704 13.2907Z" fill="#FFD800"/>
<path d="M12.0991 13.5106C12.333 13.3703 12.8898 13.8232 13.0552 13.9886" stroke="#FFD800" stroke-width="3" stroke-linecap="round"/>
<ellipse cx="13.4956" cy="14.468" rx="0.276219" ry="0.605351" transform="rotate(-57.3061 13.4956 14.468)" fill="white"/>
<circle cx="94.9732" cy="16.6197" r="15.8482" fill="#FFD800"/>
<circle cx="95.1159" cy="16.6197" r="14.8396" fill="white"/>
<path d="M92.8905 5.32143L94.8219 13.2532C95.0369 14.1365 96.2238 14.2978 96.6667 13.5038L100.581 6.48878C100.788 6.11648 100.743 5.64464 100.413 5.37499C98.5258 3.83394 95.5449 3.85105 93.6176 4.1668C93.0798 4.25492 92.7616 4.79187 92.8905 5.32143Z" fill="#FFD800"/>
<path d="M95.7203 8.46246C95.9848 8.5286 96.0583 9.24258 96.0583 9.4765" stroke="#FFD800" stroke-width="3" stroke-linecap="round"/>
<ellipse cx="96.0307" cy="10.1268" rx="0.27622" ry="0.605351" transform="rotate(-12.3061 96.0307 10.1268)" fill="white"/>
<path d="M101.49 7.1572L97.2467 14.1314C96.7742 14.9082 97.4993 15.8614 98.374 15.6132L106.102 13.4204C106.512 13.3041 106.814 12.9385 106.771 12.5143C106.526 10.0901 104.406 7.99444 102.82 6.8549C102.378 6.53688 101.773 6.69156 101.49 7.1572Z" fill="#FFD800"/>
<path d="M101.269 11.3795C101.41 11.6133 100.957 12.1701 100.791 12.3355" stroke="#FFD800" stroke-width="3" stroke-linecap="round"/>
<ellipse cx="100.313" cy="12.7758" rx="0.276219" ry="0.605351" transform="rotate(32.6939 100.313 12.7758)" fill="white"/>
<path d="M106.273 14.5361L98.341 16.4675C97.4577 16.6826 97.2964 17.8694 98.0904 18.3124L105.105 22.2264C105.478 22.4341 105.95 22.3889 106.219 22.0587C107.76 20.1714 107.743 17.1906 107.427 15.2633C107.339 14.7254 106.802 14.4072 106.273 14.5361Z" fill="#FFD800"/>
<path d="M103.132 17.3663C103.066 17.6309 102.352 17.7043 102.118 17.7043" stroke="#FFD800" stroke-width="3" stroke-linecap="round"/>
<ellipse cx="101.466" cy="17.6767" rx="0.27622" ry="0.605351" transform="rotate(77.6939 101.466 17.6767)" fill="white"/>
<path d="M104.436 23.136L97.4622 18.8931C96.6855 18.4205 95.7322 19.1457 95.9804 20.0203L98.1732 27.7483C98.2896 28.1585 98.6551 28.4602 99.0793 28.4174C101.504 28.1725 103.599 26.0526 104.739 24.4666C105.057 24.0239 104.902 23.4193 104.436 23.136Z" fill="#FFD800"/>
<path d="M100.214 22.9161C99.9805 23.0564 99.4237 22.6035 99.2583 22.4381" stroke="#FFD800" stroke-width="3" stroke-linecap="round"/>
<ellipse cx="98.8179" cy="21.9587" rx="0.276219" ry="0.605351" transform="rotate(122.694 98.8179 21.9587)" fill="white"/>
<path d="M97.0587 27.9188L95.1274 19.9871C94.9123 19.1037 93.7255 18.9425 93.2825 19.7364L89.3685 26.7515C89.1608 27.1238 89.2059 27.5956 89.5362 27.8652C91.4235 29.4063 94.4043 29.3892 96.3316 29.0734C96.8694 28.9853 97.1877 28.4484 97.0587 27.9188Z" fill="#FFD800"/>
<path d="M94.229 24.7778C93.9644 24.7116 93.8909 23.9977 93.8909 23.7637" stroke="#FFD800" stroke-width="3" stroke-linecap="round"/>
<ellipse cx="93.9185" cy="23.1134" rx="0.27622" ry="0.605351" transform="rotate(167.694 93.9185 23.1134)" fill="white"/>
<path d="M88.4576 26.0833L92.7006 19.1091C93.1731 18.3324 92.4479 17.3792 91.5733 17.6273L83.8453 19.8201C83.4351 19.9365 83.1334 20.3021 83.1763 20.7262C83.4211 23.1504 85.541 25.2461 87.1271 26.3856C87.5697 26.7037 88.1744 26.549 88.4576 26.0833Z" fill="#FFD800"/>
<path d="M88.6779 21.8611C88.5376 21.6272 88.9905 21.0704 89.1559 20.905" stroke="#FFD800" stroke-width="3" stroke-linecap="round"/>
<ellipse cx="89.6346" cy="20.4648" rx="0.276219" ry="0.605351" transform="rotate(-147.306 89.6346 20.4648)" fill="white"/>
<path d="M83.6745 18.7043L91.6063 16.7729C92.4896 16.5578 92.6509 15.371 91.8569 14.9281L84.8419 11.0141C84.4696 10.8063 83.9977 10.8515 83.7281 11.1817C82.187 13.069 82.2041 16.0499 82.5199 17.9772C82.608 18.515 83.145 18.8332 83.6745 18.7043Z" fill="#FFD800"/>
<path d="M86.8156 15.8741C86.8817 15.6095 87.5957 15.5361 87.8296 15.5361" stroke="#FFD800" stroke-width="3" stroke-linecap="round"/>
<ellipse cx="88.4808" cy="15.5638" rx="0.27622" ry="0.605351" transform="rotate(-102.306 88.4808 15.5638)" fill="white"/>
<path d="M85.5108 10.1043L92.4851 14.3472C93.2618 14.8197 94.215 14.0945 93.9668 13.2199L91.7741 5.49189C91.6577 5.08175 91.2921 4.78004 90.868 4.82288C88.4437 5.06772 86.3481 7.18759 85.2085 8.77366C84.8905 9.21629 85.0452 9.82098 85.5108 10.1043Z" fill="#FFD800"/>
<path d="M89.7329 10.3241C89.9668 10.1838 90.5236 10.6367 90.689 10.8021" stroke="#FFD800" stroke-width="3" stroke-linecap="round"/>
<ellipse cx="91.1293" cy="11.2815" rx="0.276219" ry="0.605351" transform="rotate(-57.3061 91.1293 11.2815)" fill="white"/>
<circle cx="76.3593" cy="28.6982" r="15.8482" transform="rotate(22.4593 76.3593 28.6982)" fill="#FFD800"/>
<circle cx="76.4912" cy="28.7528" r="14.8396" transform="rotate(22.4593 76.4912 28.7528)" fill="white"/>
<path d="M78.7502 17.4613L77.5049 25.5292C77.3662 26.4277 78.4014 27.0302 79.1141 26.4657L85.4111 21.478C85.7453 21.2132 85.8838 20.7599 85.6817 20.3846C84.5262 18.2394 81.765 17.1165 79.8632 16.672C79.3325 16.548 78.8333 16.9226 78.7502 17.4613Z" fill="#FFD800"/>
<path d="M80.1661 21.4452C80.3854 21.6074 80.1805 22.2953 80.0911 22.5115" stroke="#FFD800" stroke-width="3" stroke-linecap="round"/>
<ellipse cx="79.8166" cy="23.102" rx="0.27622" ry="0.605351" transform="rotate(10.1532 79.8166 23.102)" fill="white"/>
<path d="M85.9962 22.443L79.4108 27.2674C78.6773 27.8047 78.9834 28.9626 79.8865 29.0674L87.866 29.9933C88.2895 30.0424 88.708 29.8198 88.8304 29.4115C89.5303 27.0776 88.3718 24.331 87.3414 22.672C87.0538 22.209 86.4359 22.1209 85.9962 22.443Z" fill="#FFD800"/>
<path d="M84.1804 26.2611C84.2207 26.5308 83.5895 26.8723 83.3734 26.962" stroke="#FFD800" stroke-width="3" stroke-linecap="round"/>
<ellipse cx="82.7616" cy="27.1857" rx="0.276219" ry="0.605351" transform="rotate(55.1532 82.7616 27.1857)" fill="white"/>
<path d="M87.5976 31.0894L79.5297 29.8441C78.6312 29.7054 78.0287 30.7406 78.5932 31.4533L83.5809 37.7504C83.8456 38.0845 84.299 38.2231 84.6743 38.0209C86.8195 36.8655 87.9424 34.1042 88.3869 32.2025C88.5109 31.6717 88.1363 31.1725 87.5976 31.0894Z" fill="#FFD800"/>
<path d="M83.6134 32.5049C83.4512 32.7242 82.7633 32.5193 82.5471 32.4299" stroke="#FFD800" stroke-width="3" stroke-linecap="round"/>
<ellipse cx="81.957" cy="32.1559" rx="0.27622" ry="0.605351" transform="rotate(100.153 81.957 32.1559)" fill="white"/>
<path d="M82.6155 38.3356L77.7911 31.7501C77.2539 31.0167 76.0959 31.3227 75.9911 32.2258L75.0653 40.2054C75.0161 40.6288 75.2387 41.0473 75.6471 41.1698C77.981 41.8696 80.7275 40.7112 82.3865 39.6807C82.8495 39.3931 82.9376 38.7752 82.6155 38.3356Z" fill="#FFD800"/>
<path d="M78.7978 36.5194C78.5281 36.5597 78.1866 35.9284 78.0969 35.7124" stroke="#FFD800" stroke-width="3" stroke-linecap="round"/>
<ellipse cx="77.8727" cy="35.1012" rx="0.276219" ry="0.605351" transform="rotate(145.153 77.8727 35.1012)" fill="white"/>
<path d="M73.9706 39.937L75.2158 31.8691C75.3545 30.9706 74.3193 30.3682 73.6066 30.9327L67.3096 35.9204C66.9754 36.1851 66.8369 36.6384 67.039 37.0137C68.1945 39.1589 70.9557 40.2818 72.8575 40.7263C73.3882 40.8504 73.8874 40.4757 73.9706 39.937Z" fill="#FFD800"/>
<path d="M72.5546 35.9531C72.3353 35.7909 72.5402 35.103 72.6296 34.8868" stroke="#FFD800" stroke-width="3" stroke-linecap="round"/>
<ellipse cx="72.9042" cy="34.2964" rx="0.27622" ry="0.605351" transform="rotate(-169.847 72.9042 34.2964)" fill="white"/>
<path d="M66.7225 34.955L73.308 30.1306C74.0414 29.5933 73.7354 28.4354 72.8323 28.3306L64.8528 27.4047C64.4293 27.3556 64.0108 27.5782 63.8883 27.9866C63.1885 30.3204 64.347 33.067 65.3774 34.726C65.665 35.189 66.2829 35.2771 66.7225 34.955Z" fill="#FFD800"/>
<path d="M68.5383 31.1369C68.498 30.8672 69.1293 30.5257 69.3453 30.436" stroke="#FFD800" stroke-width="3" stroke-linecap="round"/>
<ellipse cx="69.9571" cy="30.2123" rx="0.276219" ry="0.605351" transform="rotate(-124.847 69.9571 30.2123)" fill="white"/>
<path d="M65.1221 26.3085L73.1901 27.5538C74.0886 27.6925 74.691 26.6573 74.1265 25.9446L69.1388 19.6475C68.8741 19.3133 68.4208 19.1748 68.0454 19.377C65.9003 20.5324 64.7773 23.2937 64.3328 25.1954C64.2088 25.7262 64.5835 26.2254 65.1221 26.3085Z" fill="#FFD800"/>
<path d="M69.1064 24.8929C69.2686 24.6737 69.9564 24.8786 70.1726 24.968" stroke="#FFD800" stroke-width="3" stroke-linecap="round"/>
<ellipse cx="70.7627" cy="25.242" rx="0.27622" ry="0.605351" transform="rotate(-79.8468 70.7627 25.242)" fill="white"/>
<path d="M70.1042 19.0621L74.9286 25.6476C75.4659 26.381 76.6238 26.075 76.7286 25.1719L77.6545 17.1924C77.7036 16.7689 77.481 16.3504 77.0726 16.2279C74.7388 15.5281 71.9922 16.6866 70.3332 17.717C69.8702 18.0046 69.7821 18.6225 70.1042 19.0621Z" fill="#FFD800"/>
<path d="M73.9219 20.8783C74.1916 20.838 74.5332 21.4693 74.6228 21.6853" stroke="#FFD800" stroke-width="3" stroke-linecap="round"/>
<ellipse cx="74.847" cy="22.2966" rx="0.276219" ry="0.605351" transform="rotate(-34.8468 74.847 22.2966)" fill="white"/>
</svg>
