<svg width="107" height="44" viewBox="0 0 107 44" fill="none" xmlns="http://www.w3.org/2000/svg">
<g clip-path="url(#clip0_2396_5040)">
<path d="M47.9592 8.99356L16.2491 1.41166L1.62023 28.0764L1.67002 28.0883C1.0473 30.3582 10.6425 34.611 23.0997 37.5895C35.5568 40.568 46.1605 41.1448 46.7833 38.8749L47.0606 38.9412L47.9592 8.99356Z" fill="#FBC759"/>
<path d="M10.0801 14.0954C10.2234 15.359 10.4929 16.6751 11.0798 17.8161C11.4968 18.621 12.1749 19.4848 13.2107 19.4448C13.7858 19.4237 14.3542 19.15 14.8118 18.8239C14.8543 18.7934 14.7954 18.8421 14.8716 18.7717C14.917 18.7309 14.9587 18.6892 15.0015 18.6441C15.1069 18.5364 15.2107 18.421 15.3108 18.3046C16.7736 16.6095 18.0509 14.774 19.6628 13.1995C20.7471 12.1374 22.9713 10.1705 24.4331 11.7202C25.4158 12.7603 25.473 14.3245 25.1676 15.6469C24.7461 17.4621 23.6419 19.3169 23.9727 21.2125C24.0661 21.7443 24.2823 22.2575 24.5663 22.7168C24.7537 23.0164 25.005 23.3461 25.3707 23.4521C26.0399 23.6418 26.7405 22.9826 27.1743 22.5769C28.3306 21.4877 29.2187 20.1719 30.3168 19.0319C31.1267 18.1957 32.3628 17.1478 33.6031 17.7327C34.2889 18.0556 34.7687 18.798 35.0765 19.4477C35.4413 20.2217 35.6148 21.0569 35.7569 21.8958C36.0337 23.5311 36.1992 25.4203 37.5645 26.5741C38.4333 27.31 39.3835 27.028 40.2027 26.338C42.1228 24.7192 43.171 21.9465 45.7692 21.1914C46.3673 21.017 46.9771 21.008 47.5717 21.1097L47.932 9.04613L16.1663 1.44211L9.97113 12.7476C9.99161 13.1992 10.0282 13.6473 10.0801 14.0954Z" fill="#7E3D1F"/>
<path d="M30.9609 9.05405C39.8016 11.1828 47.3766 11.4098 47.8803 9.56094C48.3839 7.7121 41.6254 4.48758 32.7848 2.35879C23.9441 0.23 16.3691 0.00305674 15.8654 1.8519C15.3618 3.70074 22.1203 6.92526 30.9609 9.05405Z" fill="#582B16"/>
<path d="M90.3524 1.53833L51.191 8.82297L49.2797 40.913L49.3412 40.9016C49.8676 43.3485 62.7666 43.0097 78.1509 40.148C93.5353 37.2862 105.582 32.9848 105.055 30.5379L105.398 30.4742L90.3524 1.53833Z" fill="#FBC759"/>
<path d="M51.2504 23.7157C52.0848 24.8537 53.0868 25.9837 54.3464 26.8017C55.2384 27.3774 56.4507 27.8896 57.5754 27.3771C58.2005 27.0936 58.6831 26.5726 59.015 26.0524C59.0458 26.0039 59.0066 26.0773 59.0533 25.9753C59.0817 25.9157 59.1056 25.8568 59.1288 25.7943C59.1878 25.6434 59.2409 25.4859 59.2896 25.3293C60.0016 23.0447 60.4333 20.7114 61.3749 18.4735C62.0068 16.9652 63.4161 14.073 65.8623 14.8797C67.506 15.4202 68.4058 16.884 68.7751 18.2834C69.2794 20.2054 69.0496 22.4778 70.4293 24.1318C70.8171 24.5956 71.3307 24.9854 71.8907 25.2928C72.2583 25.4924 72.7126 25.6913 73.174 25.6247C74.0159 25.499 74.4386 24.5501 74.7017 23.9651C75.3987 22.3981 75.6777 20.738 76.2831 19.1492C76.7321 17.9819 77.5394 16.4176 79.2247 16.4066C80.1562 16.4001 81.0842 16.8876 81.7722 17.3653C82.5899 17.9355 83.2285 18.6516 83.8343 19.3855C85.0152 20.8163 86.2087 22.54 88.3365 23.0136C89.6913 23.3167 90.592 22.6129 91.1294 21.5805C92.3883 19.1592 92.0655 16.0381 94.5366 14.1289C95.1052 13.689 95.7751 13.401 96.4875 13.2256L90.4346 1.57015L51.2182 8.87606L50.4091 22.4818C50.6733 22.9026 50.9534 23.3126 51.2504 23.7157Z" fill="#7E3D1F"/>
<path d="M71.7624 9.32485C82.6698 7.27893 91.1671 4.00424 90.7417 2.01063C90.3163 0.0170187 81.1294 0.0594243 70.2221 2.10535C59.3148 4.15127 50.8175 7.42596 51.2428 9.41957C51.6682 11.4132 60.8551 11.3708 71.7624 9.32485Z" fill="#582B16"/>
</g>
<defs>
<clipPath id="clip0_2396_5040">
<rect width="106" height="43" fill="white" transform="translate(0.110352 0.286133)"/>
</clipPath>
</defs>
</svg>
