<svg width="67" height="29" viewBox="0 0 67 29" fill="none" xmlns="http://www.w3.org/2000/svg">
<g clip-path="url(#clip0_2396_5041)">
<path d="M53.1677 0.311652C63.3799 -0.466417 65.9707 9.20161 66.5926 14.3709C67.0765 18.3924 63.5924 27.2374 53.0421 28.521C36.6376 30.517 34.197 17.2532 34.219 10.1609C34.241 3.06859 40.4025 1.28424 53.1677 0.311652Z" fill="#B86840"/>
<path fill-rule="evenodd" clip-rule="evenodd" d="M34.8889 16.5032C41.521 25.5452 52.0477 27.2597 60.5585 25.7675C58.605 27.125 56.1254 28.1458 53.0424 28.5209C40.8632 30.0027 36.3809 23.0735 34.8889 16.5032Z" fill="black" fill-opacity="0.3"/>
<path d="M40.7414 18.6117C40.2211 16.3955 41.3593 15.6132 44.512 19.2571C51.5505 25.8166 56.1196 18.8978 55.8773 22.0167C55.3579 28.7037 41.3918 21.3818 40.7414 18.6117Z" fill="black" fill-opacity="0.2"/>
<path d="M58.9188 21.0816C57.9604 22.8292 59.044 22.7454 59.7056 22.485C61.9382 21.6145 64.0531 18.5662 63.9503 15.9947C63.8732 14.0663 61.2967 12.0717 62.0849 14.7647C62.873 17.4577 60.1169 18.897 58.9188 21.0816Z" fill="black" fill-opacity="0.2"/>
<path d="M47.5615 16.846C49.1371 18.0739 52.2551 17.2077 53.6172 16.6211C55.861 15.4243 58.2851 11.5041 58.3042 15.1054C58.3233 18.7067 50.3341 19.3488 48.0552 19.4089C45.7763 19.469 45.5921 15.3112 47.5615 16.846Z" fill="black" fill-opacity="0.2"/>
<path d="M12.7559 2.04263C3.37334 1.32776 0.992986 10.2104 0.421543 14.9597C-0.0230268 18.6546 3.17804 26.781 12.8713 27.9604C27.9432 29.7942 30.1855 17.6079 30.1653 11.0918C30.1451 4.5756 24.4841 2.9362 12.7559 2.04263Z" fill="#B86840"/>
<path fill-rule="evenodd" clip-rule="evenodd" d="M29.5502 16.9185C23.457 25.2261 13.7854 26.8014 5.96591 25.4305C7.76072 26.6776 10.0389 27.6155 12.8714 27.9601C24.0613 29.3216 28.1795 22.9551 29.5502 16.9185Z" fill="black" fill-opacity="0.3"/>
<path d="M24.1732 18.8561C24.6512 16.82 23.6054 16.1012 20.7088 19.4491C14.2421 25.4757 10.0442 19.1189 10.2668 21.9845C10.744 28.1282 23.5756 21.4012 24.1732 18.8561Z" fill="black" fill-opacity="0.2"/>
<path d="M7.47252 21.1252C8.35311 22.7309 7.35752 22.6539 6.74966 22.4147C4.69838 21.6149 2.75536 18.8142 2.84981 16.4516C2.92064 14.6798 5.28779 12.8473 4.56367 15.3215C3.83956 17.7958 6.37179 19.1182 7.47252 21.1252Z" fill="black" fill-opacity="0.2"/>
<path d="M17.9066 17.2338C16.459 18.3619 13.5943 17.5661 12.3428 17.0272C10.2813 15.9276 8.05419 12.3259 8.03664 15.6346C8.01909 18.9434 15.3592 19.5333 17.453 19.5885C19.5468 19.6438 19.7161 15.8237 17.9066 17.2338Z" fill="black" fill-opacity="0.2"/>
</g>
<defs>
<clipPath id="clip0_2396_5041">
<rect width="67" height="29" fill="white"/>
</clipPath>
</defs>
</svg>
