<svg width="112" height="44" viewBox="0 0 112 44" fill="none" xmlns="http://www.w3.org/2000/svg">
<g clip-path="url(#clip0_2156_5082)">
<path d="M87.0874 18.6469C86.3261 19.3386 86.0072 20.3931 86.2577 21.3907L86.7427 21.2689L86.2577 21.3907L89.2923 33.4776C89.4952 34.286 90.0491 34.9613 90.8022 35.3185L99.9469 39.6561C101.1 40.2031 102.477 39.8976 103.291 38.9144L109.25 31.7145C109.864 30.9736 110.052 29.9691 109.749 29.0564L105.129 15.1541C104.723 13.9326 103.534 13.1475 102.251 13.2539L93.0401 14.0181C92.428 14.0688 91.8497 14.3203 91.395 14.7333L87.0874 18.6469Z" fill="#F4E9D7" stroke="white"/>
<path d="M88.8631 20.5081C88.8631 20.5081 93.0574 21.1198 95.4541 21.0873M95.4541 21.0873C99.0494 19.3945 102.026 15.7988 102.026 15.7988M95.4541 21.0873L101.061 36.6997" stroke="white" stroke-width="1.07958" stroke-linecap="round" stroke-linejoin="round"/>
<path d="M70.3426 3.09214C69.6856 2.23864 68.6303 1.79056 67.5599 1.9106L60.6644 2.68394C59.583 2.80522 58.6459 3.48839 58.1997 4.48088L54.8674 11.892C54.3822 12.9712 54.5584 14.2329 55.3207 15.1378L61.3461 22.2909C62.0301 23.1029 63.0841 23.5051 64.1351 23.3553L71.0454 22.3703C71.9866 22.2361 72.8131 21.6746 73.2845 20.8489L76.836 14.628C77.4515 13.5499 77.3592 12.2075 76.602 11.2238L70.3426 3.09214Z" fill="#FAF3E9" stroke="white"/>
<path d="M60.5986 5.59302C60.5986 5.59302 64.4064 10.7232 66.6401 12.2831M66.6401 12.2831C69.4627 13.0002 74.7537 12.9484 74.7537 12.9484M66.6401 12.2831L63.3959 20.5406" stroke="white" stroke-linecap="round" stroke-linejoin="round"/>
<path d="M83.3596 21.8595C84.0894 22.6517 85.1801 23.0049 86.2357 22.7909L93.036 21.412C94.1025 21.1957 94.9756 20.4325 95.3325 19.4045L97.9977 11.7282C98.3858 10.6105 98.0989 9.36919 97.2597 8.53506L90.6265 1.94169C89.8735 1.19327 88.7881 0.885597 87.7544 1.12758L80.9581 2.71861C80.0323 2.93533 79.2587 3.56764 78.862 4.43172L75.8734 10.9418C75.3554 12.07 75.5658 13.399 76.4069 14.3121L83.3596 21.8595Z" fill="#FAF3E9" stroke="white"/>
<path d="M92.8447 18.5084C92.8447 18.5084 88.599 13.7344 86.2364 12.3776M86.2364 12.3776C83.3615 11.9124 78.0957 12.431 78.0957 12.431M86.2364 12.3776L88.7392 3.86603" stroke="white" stroke-linecap="round" stroke-linejoin="round"/>
<path d="M60.0457 19.8701C59.3408 19.121 58.2808 18.8207 57.2878 19.0887L57.418 19.5714L57.2878 19.0887L45.2561 22.335C44.4513 22.5521 43.7858 23.1178 43.4419 23.8771L39.2655 33.0964C38.7389 34.259 39.0685 35.6307 40.0658 36.4271L47.3693 42.259C48.1208 42.8591 49.1285 43.0297 50.0357 42.7105L63.8547 37.8476C65.0689 37.4204 65.8331 36.2178 65.7041 34.9371L64.7784 25.7406C64.7168 25.1294 64.4553 24.5556 64.0343 24.1083L60.0457 19.8701Z" fill="#F4E9D7" stroke="white"/>
<path d="M58.2161 21.6785C58.2161 21.6785 57.6782 25.8829 57.7527 28.2787M57.7527 28.2787C59.5084 31.8438 63.1558 34.7563 63.1558 34.7563M57.7527 28.2787L42.2412 34.1593" stroke="white" stroke-width="1.07958" stroke-linecap="round" stroke-linejoin="round"/>
<path d="M55.862 6.2914C55.6059 5.29523 54.8224 4.52084 53.8233 4.27646L53.7045 4.76215L53.8233 4.27646L41.7181 1.31565C40.9085 1.11761 40.0527 1.29205 39.3851 1.7912L31.2792 7.85203C30.2571 8.6163 29.884 9.97685 30.3735 11.1556L33.9574 19.7873C34.3262 20.6755 35.1265 21.3111 36.0752 21.4691L50.5257 23.8762C51.7954 24.0877 53.0449 23.4029 53.5498 22.2189L57.1755 13.7168C57.4165 13.1517 57.4642 12.523 57.3112 11.9281L55.862 6.2914Z" fill="#F4E9D7" stroke="white"/>
<path d="M53.3865 6.99283C53.3865 6.99283 50.887 10.4161 49.7965 12.5506M49.7965 12.5506C49.6145 16.5204 51.4043 20.8312 51.4043 20.8312M49.7965 12.5506L33.3725 10.2185" stroke="white" stroke-width="1.07958" stroke-linecap="round" stroke-linejoin="round"/>
<path d="M2.33679 16.8252C1.57364 17.5148 1.25191 18.5684 1.49968 19.5667L1.98496 19.4463L1.49968 19.5667L4.50157 31.6617C4.70236 32.4707 5.25442 33.1475 6.00657 33.5068L15.1394 37.869C16.2911 38.4191 17.6692 38.1174 18.4856 37.1364L24.4643 29.9526C25.0795 29.2134 25.2705 28.2094 24.9697 27.2959L20.3878 13.3812C19.9853 12.1586 18.7984 11.3702 17.5153 11.4732L8.30199 12.2124C7.68969 12.2616 7.11074 12.5114 6.65499 12.9233L2.33679 16.8252Z" fill="#F4E9D7" stroke="white"/>
<path d="M4.10817 18.6912C4.10817 18.6912 8.30082 19.3141 10.6976 19.2882M10.6976 19.2882C14.2975 17.6051 17.2833 14.0174 17.2833 14.0174M10.6976 19.2882L16.2627 34.9156" stroke="white" stroke-width="1.07958" stroke-linecap="round" stroke-linejoin="round"/>
<path d="M70.9001 20.6194C69.8247 20.5602 68.7965 21.0673 68.1889 21.9567L64.2746 27.686C63.6607 28.5845 63.5668 29.7404 64.0276 30.7262L67.4681 38.0876C67.9691 39.1596 69.0401 39.8495 70.2232 39.8625L79.5753 39.9655C80.6369 39.9772 81.6296 39.4411 82.202 38.547L85.9655 32.6684C86.4781 31.8677 86.592 30.875 86.274 29.9789L83.8784 23.2281C83.4632 22.0581 82.386 21.252 81.1464 21.1837L70.9001 20.6194Z" fill="#FAF3E9" stroke="white"/>
<path d="M66.4365 29.6345C66.4365 29.6345 72.8086 30.0974 75.4483 29.4231M75.4483 29.4231C77.8338 27.7525 81.2475 23.7098 81.2475 23.7098M75.4483 29.4231L79.5876 37.2703" stroke="white" stroke-linecap="round" stroke-linejoin="round"/>
<path d="M18.2809 -0.239048C17.3802 -0.829788 16.2364 -0.906887 15.2646 -0.442348L9.00437 2.5503C8.02259 3.01963 7.36152 3.97239 7.26556 5.05634L6.54898 13.1505C6.44464 14.3291 7.02501 15.4632 8.04198 16.068L16.0805 20.8485C16.993 21.3912 18.1207 21.4254 19.0644 20.9391L25.2691 17.7417C26.1142 17.3062 26.7107 16.5046 26.8852 15.5699L28.1994 8.52819C28.4271 7.30781 27.8996 6.07004 26.8615 5.38915L18.2809 -0.239048Z" fill="#FAF3E9" stroke="white"/>
<path d="M9.89648 5.32001C9.89648 5.32001 15.1765 8.91708 17.7983 9.65794M17.7983 9.65794C20.7 9.40941 25.6812 7.6247 25.6812 7.6247M17.7983 9.65794L17.4425 18.5227" stroke="white" stroke-linecap="round" stroke-linejoin="round"/>
<path d="M32.8668 20.9176C31.9432 20.3634 30.7971 20.3323 29.8448 20.8354L23.7096 24.0767C22.7474 24.585 22.1251 25.5635 22.0727 26.6504L21.6812 34.7668C21.6242 35.9486 22.2496 37.0586 23.29 37.6221L31.5138 42.0764C32.4473 42.5821 33.5754 42.5711 34.4988 42.0473L40.5703 38.6037C41.3974 38.1346 41.9612 37.3097 42.0981 36.3688L43.1288 29.2801C43.3075 28.0515 42.7307 26.8359 41.6662 26.1972L32.8668 20.9176Z" fill="#FAF3E9" stroke="white"/>
<path d="M24.7119 26.8083C24.7119 26.8083 30.1319 30.1908 32.7813 30.8259M32.7813 30.8259C35.6707 30.4613 40.5763 28.4782 40.5763 28.4782M32.7813 30.8259L32.7813 39.6979" stroke="white" stroke-linecap="round" stroke-linejoin="round"/>
</g>
<defs>
<clipPath id="clip0_2156_5082">
<rect width="111" height="43" fill="white" transform="translate(0.110352 0.317627)"/>
</clipPath>
</defs>
</svg>
