<svg width="112" height="44" viewBox="0 0 112 44" fill="none" xmlns="http://www.w3.org/2000/svg">
<g clip-path="url(#clip0_2151_5936)">
<path d="M9.24558 6.15192L9.2458 6.15186C11.676 5.55875 14.0506 5.46982 15.9838 5.82566C17.8999 6.17834 19.462 6.98531 20.1391 8.26161C20.2563 8.48253 20.347 8.72568 20.4074 8.95819L20.4074 8.95818L20.4086 8.96314L24.0279 23.7857L24.0279 23.7857C24.4032 25.3236 23.5036 26.9285 21.9568 28.2625C20.3935 29.6108 18.0874 30.7627 15.4143 31.416L15.4142 31.416C12.984 32.0092 10.6095 32.0981 8.6762 31.7422C6.76014 31.3896 5.19805 30.5826 4.52088 29.3063C4.40367 29.0854 4.31301 28.8422 4.25263 28.6097L4.25259 28.6097L4.25134 28.6046L0.687728 13.9781L0.679611 13.9756L0.632207 13.7828C0.262701 12.2796 1.08961 10.6706 2.72388 9.27006L2.72429 9.26971C4.34916 7.88154 6.67164 6.78191 9.24558 6.15192Z" fill="#C3A0D1" stroke="#FFFEFF" stroke-width="0.7"/>
<path d="M2.03125 14.0317C3.59597 16.2128 15.3137 17.0256 19.1997 10.1187" stroke="#B07EAB" stroke-miterlimit="10" stroke-linecap="round"/>
<path d="M18.3119 31.2094L18.312 31.2097C19.2017 33.5476 20.4752 35.5538 21.8646 36.9443C23.2418 38.3224 24.7923 39.1513 26.2275 38.9852C26.476 38.9565 26.7277 38.8933 26.9534 38.8111L26.9534 38.8112L26.9582 38.8093L41.2191 33.3841L41.2191 33.384C42.6986 32.8209 43.5102 31.1698 43.7318 29.1393C43.9557 27.087 43.5966 24.5344 42.6187 21.9622L42.6186 21.9621C41.7289 19.6242 40.4555 17.618 39.066 16.2275C37.6889 14.8494 36.1383 14.0205 34.7031 14.1866C34.4546 14.2153 34.203 14.2785 33.9772 14.3607L33.9772 14.3606L33.9723 14.3625L19.9044 19.7225L19.8978 19.7172L19.712 19.7875C18.2644 20.3357 17.4082 21.9293 17.1815 24.0696L17.1814 24.0701C16.9596 26.1957 17.3711 28.7322 18.3119 31.2094Z" fill="#E5C3DF" stroke="white" stroke-width="0.7"/>
<path d="M20.71 20.7989C23.3937 20.8507 30.7086 30.0408 27.2237 37.1586" stroke="#A888A3" stroke-miterlimit="10" stroke-linecap="round"/>
<path d="M81.2754 7.49427L81.2753 7.49407C80.0518 5.31217 78.4975 3.51481 76.9188 2.34352C75.3542 1.18265 73.6987 0.590481 72.3035 0.965591C72.0619 1.03052 71.8223 1.13003 71.611 1.24444L71.611 1.24441L71.6066 1.2469L58.2973 8.70818L58.2973 8.70821C56.9166 9.48256 56.3563 11.2349 56.4354 13.276C56.5154 15.3389 57.2456 17.8111 58.5907 20.2117L58.5908 20.2118C59.8143 22.3937 61.3686 24.191 62.9473 25.3623C64.5119 26.5232 66.1674 27.1154 67.5627 26.7403C67.8042 26.6753 68.0438 26.5758 68.2551 26.4614L68.2551 26.4614L68.2597 26.4589L81.3876 19.0905L81.395 19.0948L81.5683 18.9979C82.9197 18.2431 83.5326 16.541 83.4424 14.3906L83.4424 14.3901C83.3496 12.255 82.57 9.80645 81.2754 7.49427Z" fill="#E5C3DF" stroke="white" stroke-width="0.7"/>
<path d="M80.4326 18.1442C77.7704 18.4871 69.1848 10.4713 71.5864 2.91879" stroke="#A888A3" stroke-miterlimit="10" stroke-linecap="round"/>
<path d="M110.65 15.3243L110.65 15.3241C110.698 12.823 110.266 10.4864 109.496 8.67756C108.733 6.88483 107.605 5.53675 106.211 5.15474C105.97 5.08862 105.713 5.05327 105.473 5.04514L105.473 5.0451L105.468 5.04501L90.2127 4.75113L90.2127 4.75113C88.6299 4.72091 87.2604 5.94935 86.2964 7.7502C85.3222 9.57026 84.7019 12.0723 84.6483 14.8236L84.6483 14.8237C84.6004 17.3248 85.0324 19.6614 85.8019 21.4702C86.5647 23.2629 87.6934 24.611 89.0868 24.993C89.328 25.0592 89.5851 25.0945 89.8251 25.1026L89.8251 25.1027L89.8304 25.1028L104.882 25.3851L104.886 25.3925L105.085 25.3966C106.632 25.4288 108.022 24.2704 109.032 22.3697L109.032 22.3692C110.032 20.4803 110.597 17.9737 110.65 15.3243Z" fill="#E5C3DF" stroke="white" stroke-width="0.7"/>
<path d="M104.536 24.0856C102.066 23.0351 98.713 11.778 104.604 6.47695" stroke="#A888A3" stroke-miterlimit="10" stroke-linecap="round"/>
<path d="M83.7209 17.1463L83.7208 17.1465C82.4123 19.2785 81.6008 21.5118 81.3478 23.4612C81.097 25.3932 81.3871 27.1274 82.3949 28.1627C82.5693 28.3419 82.7731 28.5026 82.9759 28.6313L82.9759 28.6313L82.9803 28.634L95.9835 36.6166L95.9836 36.6167C97.3328 37.4446 99.136 37.0794 100.879 36.0152C102.642 34.9397 104.444 33.0968 105.884 30.752L105.884 30.7519C107.193 28.6199 108.004 26.3866 108.257 24.4372C108.508 22.5051 108.218 20.771 107.21 19.7357C107.036 19.5565 106.832 19.3957 106.629 19.2671L106.629 19.2671L106.625 19.2643L93.7909 11.3947L93.791 11.3862L93.622 11.282C92.304 10.4702 90.5192 10.7649 88.6856 11.892L88.6851 11.8923C86.8662 13.0143 85.1085 14.8887 83.7209 17.1463Z" fill="#C3A0D1" stroke="white" stroke-width="0.7"/>
<path d="M93.4307 12.6902C95.028 14.8474 92.2152 26.2515 84.4503 27.8368" stroke="#B07EAB" stroke-miterlimit="10" stroke-linecap="round"/>
<path d="M25.5881 9.64122L25.588 9.64144C24.7239 11.989 24.3671 14.3383 24.5021 16.2994C24.6359 18.243 25.261 19.8863 26.4526 20.7034C26.6588 20.8449 26.8902 20.9625 27.1144 21.0487L27.1144 21.0488L27.1192 21.0505L41.4374 26.3225L41.4375 26.3226C42.9231 26.8693 44.6193 26.1569 46.1197 24.7709C47.6362 23.3701 49.0414 21.209 49.9927 18.6269L49.9928 18.6268C50.8568 16.2792 51.2137 13.9299 51.0787 11.9689C50.9449 10.0252 50.3198 8.3819 49.1282 7.56477C48.922 7.42333 48.6906 7.30576 48.4664 7.21948L48.4664 7.21944L48.4615 7.21762L34.3317 2.02311L34.3301 2.01477L34.1439 1.94586C32.6921 1.40877 31 2.04846 29.4236 3.5139L29.4232 3.51427C27.8602 4.97177 26.5051 7.15502 25.5881 9.64122Z" fill="#C3A0D1" stroke="#FFFEFF" stroke-width="0.7"/>
<path d="M34.2324 3.3642C36.2225 5.16548 35.7053 16.8999 28.4033 19.9801" stroke="#B07EAB" stroke-miterlimit="10" stroke-linecap="round"/>
<path d="M78.1292 15.186L78.1289 15.186C75.6814 14.6688 73.3053 14.6539 71.384 15.0698C69.4799 15.482 67.9437 16.3372 67.3066 17.634C67.1963 17.8584 67.1133 18.1043 67.0602 18.3386L67.0601 18.3385L67.0591 18.3435L63.9031 33.2716L63.9031 33.2716C63.576 34.8205 64.5251 36.3965 66.1127 37.6818C67.7172 38.9808 70.0581 40.0603 72.7502 40.63L72.7503 40.63C75.1978 41.1471 77.574 41.1621 79.4952 40.7462C81.3994 40.334 82.9356 39.4788 83.5727 38.182C83.6829 37.9576 83.766 37.7117 83.8191 37.4774L83.8191 37.4774L83.8202 37.4723L86.9266 22.7419L86.9346 22.7392L86.976 22.5449C87.2985 21.0309 86.4219 19.4485 84.7448 18.0996L84.7444 18.0992C83.0771 16.7623 80.7215 15.7356 78.1292 15.186Z" fill="#E5C3DF" stroke="white" stroke-width="0.7"/>
<path d="M85.585 22.8371C84.0889 25.0658 72.4022 26.2432 68.303 19.4606" stroke="#A888A3" stroke-miterlimit="10" stroke-linecap="round"/>
<path d="M37.8913 29.0709L37.8912 29.0712C37.4072 31.5254 37.4244 33.9016 37.8662 35.817C38.3041 37.7154 39.1801 39.2399 40.4853 39.8594C40.7112 39.9666 40.9582 40.0463 41.1932 40.0963L41.1932 40.0963L41.1982 40.0973L56.1675 43.0511L56.1676 43.0511C57.7207 43.3573 59.2838 42.387 60.5475 40.7822C61.8246 39.1602 62.8724 36.805 63.4056 34.1054L63.4057 34.1053C63.8897 31.651 63.8725 29.2748 63.4307 27.3594C62.9928 25.461 62.1169 23.9365 60.8116 23.317C60.5857 23.2098 60.3387 23.1301 60.1037 23.0801L60.1037 23.0801L60.0986 23.0791L45.3275 20.1721L45.3247 20.1641L45.1299 20.1254C43.6117 19.8234 42.0413 20.7213 40.7151 22.4165L40.7148 22.4169C39.4005 24.1022 38.4057 26.4714 37.8913 29.0709Z" fill="#C3A0D1" stroke="white" stroke-width="0.7"/>
<path d="M45.4404 21.5121C47.6891 22.9779 49.0244 34.6476 42.2979 38.8381" stroke="#B07EAB" stroke-miterlimit="10" stroke-linecap="round"/>
</g>
<defs>
<clipPath id="clip0_2151_5936">
<rect width="111" height="43" fill="white" transform="translate(0.110352 0.485229)"/>
</clipPath>
</defs>
</svg>
