<svg width="111" height="43" viewBox="0 0 111 43" fill="none" xmlns="http://www.w3.org/2000/svg">
<g clip-path="url(#clip0_2155_4812)">
<path d="M18.4442 28.8469C19.3323 24.1795 16.2272 19.6837 11.5088 18.8052C6.79036 17.9267 2.24533 20.9981 1.35718 25.6654C0.469032 30.3328 3.57407 34.8288 8.29252 35.7073C13.011 36.5858 17.556 33.5143 18.4442 28.8469Z" fill="#455A64"/>
<path opacity="0.06" d="M2.62197 32.0476C3.26483 32.9809 4.08719 33.7799 5.0422 34.3989C5.99721 35.0179 7.06609 35.4447 8.18787 35.655C9.30964 35.8653 10.4623 35.8551 11.5801 35.6248C12.6979 35.3944 13.7588 34.9486 14.7023 34.3127C15.6459 33.6769 16.4536 32.8634 17.0794 31.9187C17.7051 30.974 18.1367 29.9167 18.3493 28.807C18.562 27.6974 18.5515 26.5572 18.3187 25.4516C18.0859 24.3459 17.6352 23.2964 16.9923 22.3631C16.5105 21.6517 15.9181 21.02 15.2371 20.4913L15.5937 20.9795C16.2833 21.9897 16.7189 23.1482 16.8643 24.3586C17.0096 25.5689 16.8606 26.7961 16.4294 27.938C15.9982 29.0798 15.2973 30.1032 14.3853 30.9229C13.4733 31.7426 12.3766 32.3348 11.1864 32.6503C9.99616 32.9658 8.7469 32.9953 7.54276 32.7366C6.33862 32.4778 5.21446 31.9382 4.26385 31.1626C3.31325 30.387 2.56375 29.398 2.0778 28.2779C1.59185 27.1578 1.38339 25.939 1.47003 24.7232C1.09964 25.952 1.01083 27.247 1.21008 28.514C1.40933 29.781 1.89174 30.9881 2.62197 32.0476Z" fill="black"/>
<path opacity="0.3" d="M6.24211 23.0412C6.23285 23.7242 6.43237 24.3939 6.8144 24.9629C7.19643 25.5318 7.74331 25.9734 8.3833 26.2297C9.02329 26.4861 9.72655 26.5453 10.4011 26.3996C11.0757 26.2539 11.6901 25.9101 12.1639 25.4132C12.6376 24.9164 12.9486 24.2895 13.0562 23.6149C13.1637 22.9402 13.0628 22.2491 12.7666 21.6322C12.4704 21.0152 11.9928 20.5011 11.3962 20.1571C10.7997 19.8132 10.1121 19.6554 9.42343 19.7045C8.99244 19.715 8.56778 19.8099 8.17407 19.9837C7.78036 20.1574 7.42538 20.4066 7.12959 20.7169C6.83379 21.0271 6.60315 21.3922 6.45084 21.7912C6.29852 22.1901 6.22749 22.615 6.24211 23.0412Z" fill="white"/>
<path opacity="0.1" d="M15.895 25.6726C14.2495 24.3434 11.9733 27.9242 9.53252 27.897C7.09175 27.8699 5.55596 26.4322 3.85565 27.897C2.15534 29.3619 5.33662 34.8959 10.7667 34.3263C16.1967 33.7566 18.2261 27.5444 15.895 25.6726Z" fill="white"/>
<path d="M34.4285 35.3296C35.3167 30.6623 32.2116 26.1665 27.4932 25.2879C22.7747 24.4094 18.2297 27.4808 17.3416 32.1482C16.4534 36.8155 19.5584 41.3115 24.2769 42.19C28.9953 43.0686 33.5404 39.997 34.4285 35.3296Z" fill="#455A64"/>
<path opacity="0.06" d="M18.6063 38.5303C19.2492 39.4637 20.0716 40.2627 21.0266 40.8816C21.9816 41.5006 23.0505 41.9274 24.1722 42.1377C25.294 42.3481 26.4467 42.3378 27.5645 42.1075C28.6822 41.8772 29.7431 41.4314 30.6867 40.7955C31.6303 40.1596 32.438 39.3461 33.0637 38.4014C33.6895 37.4567 34.1211 36.3994 34.3337 35.2898C34.5463 34.1801 34.5359 33.0399 34.3031 31.9343C34.0702 30.8286 33.6196 29.7792 32.9767 28.8458C32.4948 28.1344 31.9025 27.5027 31.2215 26.974L31.578 27.4623C32.2677 28.4724 32.7033 29.6309 32.8487 30.8413C32.994 32.0517 32.845 33.2789 32.4138 34.4207C31.9826 35.5625 31.2817 36.5859 30.3697 37.4056C29.4577 38.2253 28.361 38.8175 27.1708 39.133C25.9805 39.4485 24.7313 39.4781 23.5271 39.2193C22.323 38.9605 21.1988 38.4209 20.2482 37.6453C19.2976 36.8698 18.5481 35.8807 18.0622 34.7606C17.5762 33.6405 17.3678 32.4218 17.4544 31.2059C17.084 32.4347 16.9952 33.7297 17.1945 34.9967C17.3937 36.2637 17.8761 37.4709 18.6063 38.5303Z" fill="black"/>
<path opacity="0.3" d="M22.2265 29.524C22.2172 30.2069 22.4167 30.8767 22.7988 31.4456C23.1808 32.0145 23.7277 32.4561 24.3677 32.7124C25.0077 32.9688 25.7109 33.028 26.3855 32.8823C27.0601 32.7366 27.6745 32.3928 28.1482 31.896C28.622 31.3991 28.933 30.7723 29.0406 30.0976C29.1481 29.4229 29.0472 28.7319 28.751 28.1149C28.4548 27.4979 27.9771 26.9838 27.3806 26.6398C26.7841 26.2959 26.0965 26.1381 25.4078 26.1872C24.9768 26.1978 24.5522 26.2926 24.1584 26.4664C23.7647 26.6402 23.4098 26.8894 23.114 27.1996C22.8182 27.5098 22.5875 27.875 22.4352 28.2739C22.2829 28.6729 22.2119 29.0978 22.2265 29.524Z" fill="white"/>
<path opacity="0.1" d="M31.8794 32.1553C30.2339 30.8261 27.9577 34.4069 25.5169 34.3798C23.0761 34.3526 21.5403 32.9149 19.84 34.3798C18.1397 35.8447 21.321 41.3787 26.751 40.809C32.1811 40.2393 34.2104 34.0271 31.8794 32.1553Z" fill="white"/>
<path d="M49.0672 35.3296C49.9554 30.6623 46.8503 26.1665 42.1318 25.2879C37.4134 24.4094 32.8684 27.4808 31.9802 32.1482C31.0921 36.8155 34.1971 41.3115 38.9156 42.19C43.634 43.0686 48.1791 39.997 49.0672 35.3296Z" fill="#455A64"/>
<path opacity="0.06" d="M33.245 38.5303C33.8879 39.4637 34.7102 40.2627 35.6652 40.8816C36.6203 41.5006 37.6891 41.9274 38.8109 42.1377C39.9327 42.3481 41.0854 42.3378 42.2031 42.1075C43.3209 41.8772 44.3818 41.4314 45.3254 40.7955C46.2689 40.1596 47.0767 39.3461 47.7024 38.4014C48.3282 37.4567 48.7597 36.3994 48.9724 35.2898C49.185 34.1801 49.1746 33.0399 48.9417 31.9343C48.7089 30.8286 48.2582 29.7792 47.6154 28.8458C47.1335 28.1344 46.5411 27.5027 45.8602 26.974L46.2167 27.4623C46.9063 28.4724 47.342 29.6309 47.4873 30.8413C47.6327 32.0517 47.4837 33.2789 47.0525 34.4207C46.6213 35.5625 45.9203 36.5859 45.0083 37.4056C44.0964 38.2253 42.9997 38.8175 41.8095 39.133C40.6192 39.4485 39.37 39.4781 38.1658 39.2193C36.9617 38.9605 35.8375 38.4209 34.8869 37.6453C33.9363 36.8698 33.1868 35.8807 32.7009 34.7606C32.2149 33.6405 32.0064 32.4218 32.0931 31.2059C31.7227 32.4347 31.6339 33.7297 31.8331 34.9967C32.0324 36.2637 32.5148 37.4709 33.245 38.5303Z" fill="black"/>
<path opacity="0.3" d="M36.8652 29.524C36.8559 30.2069 37.0554 30.8767 37.4374 31.4456C37.8195 32.0145 38.3664 32.4561 39.0063 32.7124C39.6463 32.9688 40.3496 33.028 41.0242 32.8823C41.6988 32.7366 42.3132 32.3928 42.7869 31.896C43.2606 31.3991 43.5717 30.7723 43.6792 30.0976C43.7868 29.4229 43.6858 28.7319 43.3897 28.1149C43.0935 27.4979 42.6158 26.9838 42.0193 26.6398C41.4228 26.2959 40.7352 26.1381 40.0465 26.1872C39.6155 26.1978 39.1908 26.2926 38.7971 26.4664C38.4034 26.6402 38.0484 26.8894 37.7526 27.1996C37.4568 27.5098 37.2262 27.875 37.0739 28.2739C36.9216 28.6729 36.8505 29.0978 36.8652 29.524Z" fill="white"/>
<path opacity="0.1" d="M46.518 32.1553C44.8726 30.8261 42.5963 34.4069 40.1556 34.3798C37.7148 34.3526 36.179 32.9149 34.4787 34.3798C32.7784 35.8447 35.9597 41.3787 41.3897 40.809C46.8197 40.2393 48.8491 34.0271 46.518 32.1553Z" fill="white"/>
<path d="M86.4139 35.597C87.302 30.9296 84.197 26.4338 79.4785 25.5553C74.7601 24.6767 70.2151 27.7481 69.3269 32.4155C68.4388 37.0829 71.5438 41.5788 76.2622 42.4574C80.9807 43.3359 85.5257 40.2643 86.4139 35.597Z" fill="#455A64"/>
<path opacity="0.06" d="M70.5917 38.7976C71.2346 39.731 72.0569 40.53 73.0119 41.1489C73.9669 41.7679 75.0358 42.1947 76.1576 42.4051C77.2794 42.6154 78.4321 42.6051 79.5498 42.3748C80.6676 42.1445 81.7285 41.6987 82.6721 41.0628C83.6156 40.4269 84.4234 39.6134 85.0491 38.6687C85.6748 37.7241 86.1064 36.6667 86.319 35.5571C86.5317 34.4475 86.5212 33.3073 86.2884 32.2016C86.0556 31.096 85.6049 30.0465 84.9621 29.1131C84.4802 28.4018 83.8878 27.77 83.2069 27.2413L83.5634 27.7296C84.253 28.7397 84.6886 29.8982 84.834 31.1086C84.9794 32.319 84.8303 33.5462 84.3991 34.688C83.9679 35.8299 83.267 36.8533 82.355 37.6729C81.443 38.4926 80.3464 39.0848 79.1561 39.4003C77.9659 39.7158 76.7166 39.7454 75.5125 39.4866C74.3083 39.2279 73.1842 38.6882 72.2336 37.9127C71.283 37.1371 70.5335 36.1481 70.0475 35.028C69.5616 33.9078 69.3531 32.6891 69.4398 31.4732C69.0694 32.702 68.9806 33.997 69.1798 35.2641C69.3791 36.5311 69.8615 37.7382 70.5917 38.7976Z" fill="black"/>
<path opacity="0.3" d="M74.2118 29.7913C74.2026 30.4742 74.4021 31.144 74.7841 31.7129C75.1662 32.2819 75.713 32.7234 76.353 32.9798C76.993 33.2361 77.6963 33.2953 78.3709 33.1497C79.0454 33.004 79.6599 32.6602 80.1336 32.1633C80.6073 31.6664 80.9184 31.0396 81.0259 30.3649C81.1335 29.6903 81.0325 28.9992 80.7363 28.3822C80.4402 27.7653 79.9625 27.2511 79.366 26.9072C78.7694 26.5632 78.0818 26.4055 77.3932 26.4546C76.9622 26.4651 76.5375 26.56 76.1438 26.7337C75.7501 26.9075 75.3951 27.1567 75.0993 27.4669C74.8035 27.7772 74.5729 28.1423 74.4206 28.5413C74.2683 28.9402 74.1972 29.3651 74.2118 29.7913Z" fill="white"/>
<path opacity="0.1" d="M83.8647 32.4227C82.2193 31.0934 79.943 34.6742 77.5022 34.6471C75.0615 34.62 73.5257 33.1822 71.8254 34.6471C70.1251 36.112 73.3063 41.646 78.7364 41.0763C84.1664 40.5066 86.1958 34.2945 83.8647 32.4227Z" fill="white"/>
<path d="M109.239 31.5165C110.127 26.8491 107.022 22.3533 102.304 21.4748C97.5853 20.5963 93.0403 23.6677 92.1521 28.3351C91.264 33.0024 94.369 37.4984 99.0874 38.3769C103.806 39.2555 108.351 36.1839 109.239 31.5165Z" fill="#455A64"/>
<path opacity="0.06" d="M93.4169 34.7172C94.0597 35.6506 94.8821 36.4495 95.8371 37.0685C96.7921 37.6875 97.861 38.1143 98.9828 38.3246C100.105 38.535 101.257 38.5247 102.375 38.2944C103.493 38.0641 104.554 37.6183 105.497 36.9824C106.441 36.3465 107.249 35.533 107.874 34.5883C108.5 33.6436 108.932 32.5863 109.144 31.4766C109.357 30.367 109.346 29.2268 109.114 28.1212C108.881 27.0155 108.43 25.9661 107.787 25.0327C107.305 24.3213 106.713 23.6896 106.032 23.1609L106.389 23.6492C107.078 24.6593 107.514 25.8178 107.659 27.0282C107.805 28.2386 107.656 29.4658 107.224 30.6076C106.793 31.7494 106.092 32.7728 105.18 33.5925C104.268 34.4122 103.172 35.0044 101.981 35.3199C100.791 35.6354 99.5418 35.665 98.3377 35.4062C97.1335 35.1474 96.0094 34.6078 95.0588 33.8322C94.1082 33.0566 93.3587 32.0676 92.8727 30.9475C92.3868 29.8274 92.1783 28.6087 92.265 27.3928C91.8946 28.6216 91.8058 29.9166 92.005 31.1836C92.2042 32.4506 92.6867 33.6578 93.4169 34.7172Z" fill="black"/>
<path opacity="0.3" d="M97.037 25.7109C97.0278 26.3938 97.2273 27.0636 97.6093 27.6325C97.9914 28.2014 98.5382 28.643 99.1782 28.8993C99.8182 29.1557 100.521 29.2149 101.196 29.0692C101.871 28.9235 102.485 28.5797 102.959 28.0829C103.433 27.586 103.744 26.9591 103.851 26.2845C103.959 25.6098 103.858 24.9188 103.562 24.3018C103.265 23.6848 102.788 23.1707 102.191 22.8267C101.595 22.4828 100.907 22.325 100.218 22.3741C99.7874 22.3846 99.3627 22.4795 98.969 22.6533C98.5753 22.8271 98.2203 23.0762 97.9245 23.3865C97.6287 23.6967 97.3981 24.0619 97.2458 24.4608C97.0934 24.8598 97.0224 25.2846 97.037 25.7109Z" fill="white"/>
<path opacity="0.1" d="M106.69 28.3422C105.044 27.013 102.768 30.5938 100.327 30.5667C97.8867 30.5395 96.3509 29.1018 94.6506 30.5667C92.9503 32.0315 96.1315 37.5655 101.562 36.9959C106.992 36.4262 109.021 30.214 106.69 28.3422Z" fill="white"/>
<path d="M96.3338 24.4514C97.222 19.7841 94.1169 15.2883 89.3984 14.4097C84.68 13.5312 80.135 16.6026 79.2468 21.27C78.3587 25.9374 81.4637 30.4333 86.1822 31.3119C90.9006 32.1904 95.4457 29.1188 96.3338 24.4514Z" fill="#455A64"/>
<path opacity="0.06" d="M80.5116 27.6521C81.1545 28.5855 81.9768 29.3845 82.9318 30.0034C83.8869 30.6224 84.9557 31.0492 86.0775 31.2596C87.1993 31.4699 88.352 31.4596 89.4697 31.2293C90.5875 30.999 91.6484 30.5532 92.592 29.9173C93.5356 29.2814 94.3433 28.4679 94.969 27.5232C95.5948 26.5786 96.0263 25.5212 96.239 24.4116C96.4516 23.3019 96.4412 22.1618 96.2083 21.0561C95.9755 19.9505 95.5248 18.901 94.882 17.9676C94.4001 17.2562 93.8077 16.6245 93.1268 16.0958L93.4833 16.5841C94.1729 17.5942 94.6086 18.7527 94.7539 19.9631C94.8993 21.1735 94.7503 22.4007 94.3191 23.5425C93.8879 24.6844 93.1869 25.7078 92.275 26.5274C91.363 27.3471 90.2663 27.9393 89.0761 28.2548C87.8858 28.5703 86.6366 28.5999 85.4324 28.3411C84.2283 28.0824 83.1041 27.5427 82.1535 26.7671C81.2029 25.9916 80.4534 25.0026 79.9675 23.8824C79.4815 22.7623 79.273 21.5436 79.3597 20.3277C78.9893 21.5565 78.9005 22.8515 79.0997 24.1186C79.299 25.3856 79.7814 26.5927 80.5116 27.6521Z" fill="black"/>
<path opacity="0.3" d="M84.1318 18.6458C84.1225 19.3287 84.322 19.9985 84.704 20.5674C85.0861 21.1364 85.633 21.5779 86.2729 21.8343C86.9129 22.0906 87.6162 22.1498 88.2908 22.0042C88.9654 21.8585 89.5798 21.5147 90.0535 21.0178C90.5272 20.5209 90.8383 19.8941 90.9458 19.2194C91.0534 18.5448 90.9524 17.8537 90.6563 17.2367C90.3601 16.6197 89.8824 16.1056 89.2859 15.7617C88.6894 15.4177 88.0018 15.26 87.3131 15.3091C86.8821 15.3196 86.4574 15.4145 86.0637 15.5882C85.67 15.762 85.315 16.0112 85.0192 16.3214C84.7234 16.6317 84.4928 16.9968 84.3405 17.3958C84.1882 17.7947 84.1171 18.2196 84.1318 18.6458Z" fill="white"/>
<path opacity="0.1" d="M93.7846 21.2772C92.1392 19.9479 89.8629 23.5287 87.4222 23.5016C84.9814 23.4745 83.4456 22.0367 81.7453 23.5016C80.045 24.9665 83.2263 30.5005 88.6563 29.9308C94.0863 29.3611 96.1157 23.149 93.7846 21.2772Z" fill="white"/>
<path d="M71.368 10.3212C72.2561 5.65383 69.1511 1.15803 64.4326 0.279501C59.7142 -0.599033 55.1692 2.47238 54.281 7.13975C53.3929 11.8071 56.4979 16.3031 61.2163 17.1816C65.9348 18.0601 70.4798 14.9886 71.368 10.3212Z" fill="#455A64"/>
<path opacity="0.06" d="M55.5458 13.5219C56.1887 14.4552 57.011 15.2542 57.966 15.8732C58.921 16.4922 59.9899 16.919 61.1117 17.1293C62.2335 17.3397 63.3862 17.3294 64.5039 17.0991C65.6217 16.8687 66.6826 16.4229 67.6262 15.7871C68.5697 15.1512 69.3775 14.3377 70.0032 13.393C70.6289 12.4483 71.0605 11.391 71.2731 10.2813C71.4858 9.1717 71.4753 8.03152 71.2425 6.92586C71.0097 5.8202 70.559 4.77074 69.9162 3.83738C69.4343 3.126 68.8419 2.49428 68.161 1.96558L68.5175 2.45385C69.2071 3.46397 69.6427 4.62249 69.7881 5.83287C69.9335 7.04325 69.7844 8.27045 69.3532 9.41227C68.922 10.5541 68.2211 11.5775 67.3091 12.3972C66.3971 13.2169 65.3005 13.8091 64.1102 14.1246C62.92 14.4401 61.6707 14.4697 60.4666 14.2109C59.2625 13.9521 58.1383 13.4125 57.1877 12.6369C56.2371 11.8613 55.4876 10.8723 55.0016 9.7522C54.5157 8.63209 54.3072 7.41334 54.3939 6.19746C54.0235 7.42626 53.9347 8.72129 54.1339 9.9883C54.3332 11.2553 54.8156 12.4624 55.5458 13.5219Z" fill="black"/>
<path opacity="0.3" d="M59.1659 4.51554C59.1567 5.19848 59.3562 5.86825 59.7382 6.43718C60.1203 7.00611 60.6671 7.44767 61.3071 7.70402C61.9471 7.96038 62.6504 8.01959 63.325 7.8739C63.9995 7.72822 64.614 7.38443 65.0877 6.88754C65.5614 6.39066 65.8725 5.76383 65.98 5.08917C66.0876 4.4145 65.9866 3.72344 65.6904 3.10647C65.3943 2.4895 64.9166 1.97537 64.3201 1.63142C63.7235 1.28747 63.0359 1.12971 62.3473 1.17882C61.9163 1.18933 61.4916 1.28422 61.0979 1.45798C60.7042 1.63174 60.3492 1.88093 60.0534 2.19118C59.7576 2.50143 59.527 2.86655 59.3747 3.2655C59.2224 3.66445 59.1513 4.08933 59.1659 4.51554Z" fill="white"/>
<path opacity="0.1" d="M68.8188 7.14691C67.1734 5.81766 64.8971 9.39847 62.4563 9.37134C60.0156 9.34422 58.4798 7.90646 56.7795 9.37134C55.0792 10.8362 58.2605 16.3702 63.6905 15.8006C69.1205 15.2309 71.1499 9.01871 68.8188 7.14691Z" fill="white"/>
<path d="M78.0164 21.3096C78.9046 16.6422 75.7995 12.1464 71.0811 11.2679C66.3626 10.3894 61.8176 13.4608 60.9294 18.1282C60.0413 22.7955 63.1463 27.2915 67.8648 28.17C72.5832 29.0485 77.1283 25.977 78.0164 21.3096Z" fill="#455A64"/>
<path opacity="0.06" d="M62.1942 24.5103C62.8371 25.4436 63.6595 26.2426 64.6145 26.8616C65.5695 27.4806 66.6384 27.9074 67.7601 28.1177C68.8819 28.3281 70.0346 28.3178 71.1524 28.0875C72.2701 27.8571 73.331 27.4114 74.2746 26.7755C75.2182 26.1396 76.0259 25.3261 76.6516 24.3814C77.2774 23.4367 77.7089 22.3794 77.9216 21.2697C78.1342 20.1601 78.1238 19.0199 77.891 17.9143C77.6581 16.8086 77.2074 15.7591 76.5646 14.8258C76.0827 14.1144 75.4904 13.4827 74.8094 12.954L75.1659 13.4423C75.8556 14.4524 76.2912 15.6109 76.4365 16.8213C76.5819 18.0317 76.4329 19.2589 76.0017 20.4007C75.5705 21.5425 74.8696 22.5659 73.9576 23.3856C73.0456 24.2053 71.9489 24.7975 70.7587 25.113C69.5684 25.4285 68.3192 25.4581 67.115 25.1993C65.9109 24.9405 64.7867 24.4009 63.8361 23.6253C62.8855 22.8497 62.136 21.8607 61.6501 20.7406C61.1641 19.6205 60.9557 18.4017 61.0423 17.1859C60.6719 18.4147 60.5831 19.7097 60.7823 20.9767C60.9816 22.2437 61.464 23.4508 62.1942 24.5103Z" fill="black"/>
<path opacity="0.3" d="M65.8144 15.5039C65.8051 16.1869 66.0046 16.8567 66.3867 17.4256C66.7687 17.9945 67.3156 18.4361 67.9556 18.6924C68.5956 18.9488 69.2988 19.008 69.9734 18.8623C70.648 18.7166 71.2624 18.3728 71.7361 17.8759C72.2099 17.3791 72.5209 16.7522 72.6285 16.0776C72.736 15.4029 72.6351 14.7118 72.3389 14.0949C72.0427 13.4779 71.565 12.9638 70.9685 12.6198C70.372 12.2759 69.6844 12.1181 68.9957 12.1672C68.5647 12.1777 68.14 12.2726 67.7463 12.4464C67.3526 12.6201 66.9976 12.8693 66.7019 13.1796C66.4061 13.4898 66.1754 13.855 66.0231 14.2539C65.8708 14.6529 65.7998 15.0777 65.8144 15.5039Z" fill="white"/>
<path opacity="0.1" d="M75.4673 18.1353C73.8218 16.8061 71.5456 20.3869 69.1048 20.3597C66.664 20.3326 65.1282 18.8949 63.4279 20.3597C61.7276 21.8246 64.9089 27.3586 70.3389 26.789C75.7689 26.2193 77.7983 20.0071 75.4673 18.1353Z" fill="white"/>
<path d="M92.5828 10.5426C93.471 5.8752 90.3659 1.37941 85.6475 0.500875C80.929 -0.377658 76.384 2.69375 75.4959 7.36112C74.6077 12.0285 77.7127 16.5244 82.4312 17.403C87.1496 18.2815 91.6947 15.2099 92.5828 10.5426Z" fill="#455A64"/>
<path opacity="0.06" d="M76.7606 13.7433C77.4035 14.6766 78.2259 15.4756 79.1809 16.0946C80.1359 16.7135 81.2048 17.1403 82.3265 17.3507C83.4483 17.561 84.601 17.5507 85.7188 17.3204C86.8365 17.0901 87.8974 16.6443 88.841 16.0084C89.7846 15.3725 90.5923 14.559 91.218 13.6144C91.8438 12.6697 92.2754 11.6123 92.488 10.5027C92.7006 9.39307 92.6902 8.25289 92.4574 7.14724C92.2245 6.04158 91.7739 4.99212 91.131 4.05876C90.6491 3.34737 90.0568 2.71566 89.3758 2.18695L89.7323 2.67523C90.422 3.68534 90.8576 4.84386 91.0029 6.05425C91.1483 7.26463 90.9993 8.49182 90.5681 9.63365C90.1369 10.7755 89.436 11.7989 88.524 12.6186C87.612 13.4382 86.5153 14.0305 85.3251 14.3459C84.1348 14.6614 82.8856 14.691 81.6814 14.4323C80.4773 14.1735 79.3531 13.6338 78.4025 12.8583C77.4519 12.0827 76.7024 11.0937 76.2165 9.97357C75.7305 8.85347 75.5221 7.63471 75.6087 6.41884C75.2383 7.64763 75.1495 8.94266 75.3488 10.2097C75.548 11.4767 76.0304 12.6838 76.7606 13.7433Z" fill="black"/>
<path opacity="0.3" d="M80.3808 4.73691C80.3715 5.41985 80.571 6.08963 80.9531 6.65856C81.3351 7.22749 81.882 7.66904 82.522 7.9254C83.162 8.18176 83.8652 8.24096 84.5398 8.09528C85.2144 7.94959 85.8288 7.6058 86.3025 7.10892C86.7763 6.61203 87.0873 5.9852 87.1949 5.31054C87.3024 4.63588 87.2015 3.94482 86.9053 3.32784C86.6091 2.71087 86.1314 2.19674 85.5349 1.85279C84.9384 1.50884 84.2508 1.35108 83.5621 1.4002C83.1311 1.4107 82.7065 1.5056 82.3127 1.67936C81.919 1.85311 81.564 2.10231 81.2683 2.41255C80.9725 2.7228 80.7418 3.08793 80.5895 3.48688C80.4372 3.88583 80.3662 4.31071 80.3808 4.73691Z" fill="white"/>
<path opacity="0.1" d="M90.0337 7.36828C88.3882 6.03903 86.112 9.61985 83.6712 9.59272C81.2304 9.56559 79.6946 8.12783 77.9943 9.59272C76.294 11.0576 79.4753 16.5916 84.9053 16.0219C90.3354 15.4523 92.3647 9.24008 90.0337 7.36828Z" fill="white"/>
<path d="M109.937 13.0489C110.825 8.38149 107.72 3.8857 103.002 3.00716C98.2835 2.12863 93.7385 5.20004 92.8503 9.86741C91.9622 14.5348 95.0672 19.0307 99.7857 19.9093C104.504 20.7878 109.049 17.7162 109.937 13.0489Z" fill="#455A64"/>
<path opacity="0.06" d="M94.1151 16.2495C94.758 17.1829 95.5804 17.9819 96.5354 18.6009C97.4904 19.2198 98.5593 19.6466 99.681 19.857C100.803 20.0673 101.956 20.057 103.073 19.8267C104.191 19.5964 105.252 19.1506 106.195 18.5147C107.139 17.8788 107.947 17.0653 108.573 16.1206C109.198 15.176 109.63 14.1186 109.842 13.009C110.055 11.8994 110.045 10.7592 109.812 9.65352C109.579 8.54787 109.128 7.4984 108.485 6.56504C108.004 5.85366 107.411 5.22195 106.73 4.69324L107.087 5.18151C107.776 6.19163 108.212 7.35015 108.357 8.56053C108.503 9.77091 108.354 10.9981 107.923 12.1399C107.491 13.2818 106.79 14.3052 105.878 15.1248C104.966 15.9445 103.87 16.5367 102.68 16.8522C101.489 17.1677 100.24 17.1973 99.0359 16.9385C97.8318 16.6798 96.7076 16.1401 95.757 15.3646C94.8064 14.589 94.0569 13.6 93.571 12.4799C93.085 11.3598 92.8766 10.141 92.9632 8.92512C92.5928 10.1539 92.504 11.4489 92.7032 12.716C92.9025 13.983 93.3849 15.1901 94.1151 16.2495Z" fill="black"/>
<path opacity="0.3" d="M97.7353 7.2432C97.726 7.92614 97.9255 8.59591 98.3076 9.16484C98.6896 9.73377 99.2365 10.1753 99.8765 10.4317C100.516 10.688 101.22 10.7473 101.894 10.6016C102.569 10.4559 103.183 10.1121 103.657 9.6152C104.131 9.11832 104.442 8.49149 104.549 7.81683C104.657 7.14217 104.556 6.4511 104.26 5.83413C103.964 5.21716 103.486 4.70303 102.889 4.35908C102.293 4.01513 101.605 3.85737 100.917 3.90649C100.486 3.91699 100.061 4.01188 99.6672 4.18564C99.2735 4.3594 98.9185 4.6086 98.6227 4.91884C98.327 5.22909 98.0963 5.59421 97.944 5.99316C97.7917 6.39211 97.7207 6.81699 97.7353 7.2432Z" fill="white"/>
<path opacity="0.1" d="M107.388 9.87457C105.743 8.54532 103.466 12.1261 101.026 12.099C98.5849 12.0719 97.0491 10.6341 95.3488 12.099C93.6485 13.5639 96.8298 19.0979 102.26 18.5282C107.69 17.9585 109.719 11.7464 107.388 9.87457Z" fill="white"/>
<path d="M36.9237 27.8911C39.4125 23.8439 38.1077 18.5382 34.0094 16.0403C29.9111 13.5423 24.5713 14.7982 22.0825 18.8453C19.5938 22.8925 20.8985 28.1984 24.9968 30.6963C29.0951 33.1942 34.435 31.9382 36.9237 27.8911Z" fill="#455A64"/>
<path opacity="0.06" d="M20.9966 25.2606C21.2658 26.3615 21.7505 27.4005 22.4233 28.3185C23.096 29.2364 23.9434 30.0152 24.9173 30.6104C25.8911 31.2057 26.9722 31.6057 28.0988 31.7876C29.2255 31.9695 30.3756 31.9298 31.4835 31.6707C32.5915 31.4116 33.6356 30.9382 34.5561 30.2776C35.4767 29.6169 36.2559 28.782 36.8489 27.8203C37.442 26.8587 37.8374 25.7892 38.0127 24.673C38.188 23.5567 38.1396 22.4156 37.8704 21.3147C37.6728 20.4785 37.3436 19.6776 36.8949 18.9414L37.0547 19.5245C37.3404 20.7137 37.3358 21.9514 37.0416 23.1345C36.7474 24.3175 36.172 25.4117 35.3632 26.3257C34.5544 27.2398 33.5355 27.9473 32.3918 28.3894C31.248 28.8315 30.0125 28.9954 28.7878 28.8673C27.5632 28.7393 26.3849 28.323 25.3513 27.6532C24.3177 26.9834 23.4587 26.0796 22.8458 25.0168C22.2328 23.9541 21.8837 22.7632 21.8275 21.5436C21.7713 20.3239 22.0095 19.1106 22.5226 18.0049C21.7397 19.0218 21.1965 20.2008 20.9325 21.4559C20.6685 22.711 20.6905 24.0108 20.9966 25.2606Z" fill="black"/>
<path opacity="0.3" d="M27.5805 18.1282C27.3292 18.7633 27.2776 19.4603 27.4326 20.1278C27.5875 20.7954 27.9418 21.4024 28.4489 21.8695C28.956 22.3365 29.5923 22.6418 30.2747 22.7453C30.957 22.8489 31.6535 22.7459 32.2728 22.4497C32.8922 22.1536 33.4057 21.6782 33.746 21.0858C34.0863 20.4934 34.2375 19.8116 34.1799 19.1296C34.1223 18.4477 33.8585 17.7974 33.4231 17.2639C32.9877 16.7304 32.4011 16.3386 31.7399 16.1398C31.3333 15.9965 30.9026 15.9343 30.4729 15.9568C30.0431 15.9793 29.6228 16.0861 29.236 16.271C28.8493 16.4558 28.5039 16.7152 28.2198 17.034C27.9357 17.3527 27.7183 17.7246 27.5805 18.1282Z" fill="white"/>
<path opacity="0.1" d="M35.6684 24.018C34.6027 22.1908 31.2026 24.729 28.9307 23.8363C26.6589 22.9436 25.7343 21.054 23.6244 21.819C21.5145 22.5841 22.5216 28.8874 27.7997 30.2845C33.0777 31.6816 37.1822 26.596 35.6684 24.018Z" fill="white"/>
<path d="M57.8056 27.8117C60.2943 23.7645 58.9895 18.4588 54.8912 15.9608C50.7929 13.4629 45.4531 14.7188 42.9643 18.7659C40.4756 22.813 41.7803 28.1189 45.8786 30.6169C49.9769 33.1148 55.3168 31.8588 57.8056 27.8117Z" fill="#455A64"/>
<path opacity="0.06" d="M41.8784 25.1812C42.1476 26.2821 42.6324 27.3211 43.3051 28.2391C43.9778 29.157 44.8253 29.9358 45.7991 30.531C46.7729 31.1263 47.854 31.5263 48.9807 31.7082C50.1073 31.8901 51.2574 31.8504 52.3653 31.5913C53.4733 31.3322 54.5174 30.8588 55.438 30.1982C56.3586 29.5375 57.1377 28.7025 57.7308 27.7409C58.3239 26.7793 58.7193 25.7098 58.8945 24.5936C59.0698 23.4773 59.0215 22.3362 58.7522 21.2353C58.5546 20.3991 58.2254 19.5982 57.7768 18.862L57.9365 19.4451C58.2222 20.6343 58.2177 21.872 57.9234 23.0551C57.6292 24.2381 57.0538 25.3322 56.245 26.2463C55.4362 27.1604 54.4174 27.8679 53.2736 28.31C52.1299 28.7521 50.8943 28.916 49.6697 28.7879C48.445 28.6599 47.2668 28.2436 46.2332 27.5738C45.1996 26.904 44.3406 26.0001 43.7276 24.9374C43.1146 23.8746 42.7655 22.6838 42.7093 21.4642C42.6531 20.2445 42.8913 19.0312 43.4044 17.9255C42.6215 18.9424 42.0783 20.1214 41.8143 21.3765C41.5503 22.6316 41.5723 23.9314 41.8784 25.1812Z" fill="black"/>
<path opacity="0.3" d="M48.4623 18.0488C48.211 18.6839 48.1595 19.3809 48.3144 20.0484C48.4693 20.716 48.8236 21.323 49.3307 21.7901C49.8379 22.2571 50.4742 22.5624 51.1565 22.6659C51.8388 22.7695 52.5353 22.6664 53.1547 22.3703C53.7741 22.0742 54.2876 21.5988 54.6278 21.0064C54.9681 20.414 55.1193 19.7322 55.0617 19.0502C55.0041 18.3683 54.7403 17.718 54.3049 17.1845C53.8696 16.651 53.2829 16.2592 52.6217 16.0604C52.2151 15.9171 51.7845 15.8549 51.3547 15.8774C50.925 15.8999 50.5046 16.0067 50.1179 16.1915C49.7311 16.3764 49.3858 16.6358 49.1016 16.9546C48.8175 17.2733 48.6001 17.6452 48.4623 18.0488Z" fill="white"/>
<path opacity="0.1" d="M56.5502 23.9386C55.4845 22.1114 52.0844 24.6496 49.8126 23.7569C47.5407 22.8642 46.6161 20.9746 44.5062 21.7396C42.3963 22.5047 43.4034 28.808 48.6815 30.2051C53.9596 31.6022 58.064 26.5166 56.5502 23.9386Z" fill="white"/>
<path d="M34.7709 7.50241C34.0382 2.80812 29.6024 -0.382079 24.8632 0.376836C20.1241 1.13575 16.8762 5.5564 17.6089 10.2507C18.3416 14.945 22.7774 18.1353 27.5165 17.3764C32.2557 16.6175 35.5036 12.1967 34.7709 7.50241Z" fill="#455A64"/>
<path opacity="0.06" d="M20.9463 15.8359C21.8655 16.4988 22.9086 16.9748 24.0161 17.2367C25.1236 17.4986 26.2738 17.5412 27.401 17.3622C28.5282 17.1831 29.6103 16.7859 30.5856 16.1932C31.5608 15.6005 32.4101 14.824 33.085 13.9079C33.7599 12.9918 34.2471 11.9541 34.5188 10.854C34.7905 9.75399 34.8415 8.61309 34.6687 7.49656C34.4959 6.38003 34.1028 5.30973 33.5118 4.3467C32.9208 3.38368 32.1435 2.54682 31.2243 1.88391C30.5313 1.37593 29.761 0.980142 28.942 0.711145L29.4419 1.05114C30.431 1.7706 31.2307 2.71524 31.7746 3.8063C32.3184 4.89735 32.5906 6.10322 32.5684 7.32355C32.5462 8.54388 32.2301 9.74337 31.6468 10.8219C31.0634 11.9005 30.2297 12.827 29.2148 13.5242C28.1999 14.2215 27.0333 14.6694 25.8123 14.8305C24.5912 14.9916 23.3511 14.8613 22.195 14.4505C21.039 14.0396 20.0007 13.3601 19.1664 12.4686C18.3322 11.5771 17.7261 10.4993 17.3989 9.32512C17.4632 10.6069 17.815 11.8564 18.4286 12.9827C19.0422 14.109 19.9024 15.0837 20.9463 15.8359Z" fill="black"/>
<path opacity="0.3" d="M21.3267 6.13701C21.5476 6.78331 21.9607 7.34702 22.5117 7.7544C23.0628 8.16178 23.7263 8.39377 24.4152 8.42005C25.1041 8.44632 25.7864 8.26565 26.3727 7.90166C26.959 7.53766 27.4221 7.00732 27.7012 6.38009C27.9803 5.75286 28.0625 5.05795 27.937 4.3864C27.8115 3.71485 27.4841 3.09795 26.9977 2.61646C26.5114 2.13497 25.8886 1.81136 25.2112 1.68798C24.5337 1.5646 23.8331 1.64719 23.2011 1.92498C22.7987 2.07976 22.4306 2.3119 22.1183 2.60791C21.8059 2.90392 21.5554 3.25795 21.3811 3.64958C21.2068 4.04121 21.1123 4.46263 21.103 4.88956C21.0937 5.3165 21.1696 5.74053 21.3267 6.13701Z" fill="white"/>
<path opacity="0.1" d="M31.3022 5.36996C29.3056 4.67128 28.3657 8.80892 26.0579 9.60394C23.75 10.399 21.8203 9.56122 20.7114 11.5125C19.6026 13.4637 24.4592 17.6061 29.3816 15.244C34.3041 12.882 34.1268 6.34911 31.3022 5.36996Z" fill="white"/>
<path d="M51.6226 17.5757C53.3535 13.1511 51.1276 8.16122 46.6511 6.43038C42.1745 4.69954 37.1424 6.88323 35.4115 11.3078C33.6806 15.7324 35.9063 20.7225 40.3829 22.4534C44.8595 24.1842 49.8917 22.0004 51.6226 17.5757Z" fill="#455A64"/>
<path opacity="0.06" d="M35.4818 17.8138C35.9422 18.8494 36.6037 19.7859 37.4286 20.5699C38.2536 21.3538 39.2258 21.9698 40.2898 22.3828C41.3538 22.7957 42.4888 22.9975 43.6298 22.9765C44.7709 22.9556 45.8956 22.7124 46.94 22.2608C47.9844 21.8091 48.9279 21.158 49.7166 20.3444C50.5053 19.5308 51.1239 18.5708 51.5368 17.5192C51.9498 16.4675 52.1491 15.3449 52.1235 14.2152C52.0978 13.0856 51.8477 11.9712 51.3874 10.9356C51.0445 10.1478 50.5783 9.41793 50.0061 8.77307L50.2669 9.31855C50.7591 10.4382 50.9743 11.6571 50.8947 12.8736C50.8152 14.09 50.4431 15.2689 49.8094 16.312C49.1757 17.3552 48.2986 18.2323 47.2515 18.8704C46.2043 19.5085 45.0175 19.889 43.7896 19.9804C42.5616 20.0717 41.3282 19.8712 40.1921 19.3955C39.0561 18.9198 38.0502 18.1827 37.2584 17.2456C36.4665 16.3086 35.9116 15.1986 35.6398 14.0083C35.368 12.8179 35.3871 11.5816 35.6958 10.4024C35.1058 11.5422 34.7805 12.7988 34.7435 14.0809C34.7064 15.3629 34.9588 16.6382 35.4818 17.8138Z" fill="black"/>
<path opacity="0.3" d="M40.6955 9.62618C40.5609 10.2958 40.6339 10.9908 40.9049 11.6203C41.1758 12.2497 41.6322 12.7843 42.2142 13.1539C42.7961 13.5235 43.4765 13.711 44.1664 13.6918C44.8563 13.6726 45.5234 13.4476 46.0804 13.0462C46.6374 12.6449 47.0584 12.0859 47.2881 11.4425C47.5178 10.7991 47.5456 10.1013 47.3679 9.44035C47.1901 8.77945 46.8151 8.18629 46.2919 7.73855C45.7688 7.29082 45.1219 7.00936 44.4359 6.93106C44.0104 6.86217 43.5755 6.87739 43.1566 6.97582C42.7376 7.07425 42.3429 7.25395 41.9951 7.50455C41.6473 7.75514 41.3535 8.07165 41.1305 8.43581C40.9074 8.79997 40.7595 9.20455 40.6955 9.62618Z" fill="white"/>
<path opacity="0.1" d="M49.6999 13.9869C48.3268 12.3779 45.4312 15.4793 43.037 15.004C40.6428 14.5287 39.3974 12.8332 37.4568 13.9606C35.5162 15.088 37.6261 21.1124 43.0684 21.5505C48.5106 21.9886 51.6472 16.2553 49.6999 13.9869Z" fill="white"/>
<path d="M15.9402 13.4119C18.4825 9.39817 17.2482 4.07556 13.1834 1.52348C9.11862 -1.02859 3.7626 0.156296 1.22037 4.17005C-1.32186 8.1838 -0.0876588 13.5065 3.97712 16.0586C8.04191 18.6107 13.398 17.4257 15.9402 13.4119Z" fill="#455A64"/>
<path opacity="0.06" d="M0.0504098 10.5703C0.305001 11.6746 0.775935 12.72 1.43642 13.6468C2.09691 14.5736 2.93395 15.3636 3.89978 15.9717C4.86561 16.5798 5.94132 16.9941 7.06545 17.1909C8.18959 17.3878 9.34009 17.3633 10.4514 17.119C11.5627 16.8746 12.613 16.4151 13.5422 15.7668C14.4715 15.1184 15.2617 14.2938 15.8674 13.3401C16.4732 12.3864 16.8828 11.3223 17.0729 10.2085C17.2629 9.09468 17.2297 7.95302 16.9751 6.84867C16.7886 6.00993 16.4701 5.20465 16.0312 4.46258L16.1832 5.04775C16.4531 6.24069 16.4322 7.47822 16.1223 8.65725C15.8124 9.83628 15.2225 10.9227 14.4016 11.826C13.5808 12.7292 12.5526 13.4232 11.4031 13.8501C10.2536 14.2769 9.016 14.4244 7.79314 14.2801C6.57029 14.1358 5.39767 13.7039 4.37306 13.0205C3.34845 12.337 2.50149 11.4218 1.90268 10.351C1.30388 9.28026 0.97059 8.08492 0.930581 6.8646C0.890572 5.64428 1.14488 4.43426 1.67256 3.33543C0.876261 4.34193 0.317458 5.51357 0.0368314 6.76508C-0.243796 8.01659 -0.239073 9.31653 0.0504098 10.5703Z" fill="black"/>
<path opacity="0.3" d="M6.72855 3.52596C6.4688 4.15765 6.40805 4.85386 6.5541 5.52341C6.70016 6.19296 7.04635 6.80468 7.54723 7.27842C8.04811 7.75216 8.68032 8.06582 9.36121 8.1784C10.0421 8.29098 10.7399 8.19722 11.3631 7.90935C11.9864 7.62149 12.5062 7.15296 12.8543 6.56512C13.2024 5.97727 13.3626 5.29751 13.3141 4.61485C13.2655 3.9322 13.0104 3.27844 12.5821 2.73923C12.1539 2.20002 11.5725 1.80047 10.914 1.59289C10.5093 1.44418 10.0795 1.37626 9.64949 1.39307C9.21947 1.40987 8.79772 1.51107 8.40857 1.69081C8.01942 1.87055 7.67067 2.12528 7.38232 2.44027C7.09398 2.75526 6.87168 3.12424 6.72855 3.52596Z" fill="white"/>
<path opacity="0.1" d="M14.7376 9.52256C13.6962 7.68136 10.2627 10.1742 8.00293 9.25149C5.74315 8.32872 4.84367 6.42695 2.72381 7.16395C0.60396 7.90095 1.52735 14.2171 6.7864 15.6841C12.0455 17.1511 16.217 12.1204 14.7376 9.52256Z" fill="white"/>
<path d="M67.4773 38.1374C69.5556 33.8649 67.7347 28.7134 63.4104 26.6311C59.0861 24.5488 53.8959 26.3243 51.8177 30.5968C49.7395 34.8693 51.5602 40.021 55.8845 42.1033C60.2088 44.1855 65.3991 42.4099 67.4773 38.1374Z" fill="#455A64"/>
<path opacity="0.06" d="M51.3693 37.0877C51.7456 38.1567 52.3303 39.143 53.0902 39.9902C53.85 40.8375 54.77 41.5291 55.7977 42.0255C56.8254 42.522 57.9406 42.8136 59.0797 42.8837C60.2188 42.9539 61.3594 42.8011 62.4364 42.4342C63.5135 42.0673 64.5059 41.4934 65.357 40.7453C66.208 39.9973 66.9012 39.0896 67.3967 38.0743C67.8922 37.0589 68.1804 35.9557 68.2449 34.8276C68.3094 33.6996 68.149 32.5687 67.7727 31.4997C67.4937 30.6871 67.0872 29.9224 66.5683 29.2339L66.7847 29.7985C67.186 30.9538 67.3034 32.186 67.1271 33.3922C66.9508 34.5985 66.4859 35.744 65.771 36.7332C65.0561 37.7225 64.1119 38.5269 63.0172 39.0794C61.9226 39.632 60.7092 39.9167 59.4778 39.9098C58.2465 39.903 57.033 39.6047 55.9385 39.04C54.844 38.4752 53.9001 37.6603 53.1855 36.663C52.4709 35.6658 52.0062 34.5151 51.8302 33.3069C51.6542 32.0987 51.7719 30.8679 52.1735 29.717C51.4946 30.8061 51.0701 32.0328 50.931 33.3078C50.7918 34.5828 50.9417 35.8741 51.3693 37.0877Z" fill="black"/>
<path opacity="0.3" d="M57.2194 29.3418C57.0318 29.9986 57.0492 30.6972 57.2691 31.3463C57.489 31.9953 57.9013 32.5646 58.4519 32.9794C59.0026 33.3943 59.6658 33.6354 60.355 33.6713C61.0442 33.7071 61.7272 33.536 62.3144 33.1804C62.9016 32.8247 63.3658 32.3011 63.6461 31.6781C63.9264 31.055 64.0098 30.3616 63.8853 29.6887C63.7609 29.0157 63.4343 28.3945 62.9485 27.9065C62.4627 27.4185 61.8404 27.0863 61.1628 26.9536C60.7441 26.851 60.3094 26.8315 59.8839 26.8962C59.4585 26.9609 59.0507 27.1085 58.684 27.3306C58.3174 27.5527 57.9992 27.8447 57.7479 28.1899C57.4965 28.5352 57.3168 28.9267 57.2194 29.3418Z" fill="white"/>
<path opacity="0.1" d="M65.8472 34.4068C64.6067 32.6933 61.473 35.554 59.1244 34.8893C56.7757 34.2246 55.6695 32.4352 53.6452 33.4042C51.6209 34.3733 53.2437 40.5468 58.6336 41.4175C64.0236 42.2881 67.6074 36.8232 65.8472 34.4068Z" fill="white"/>
</g>
<defs>
<clipPath id="clip0_2155_4812">
<rect width="111" height="43" fill="white"/>
</clipPath>
</defs>
</svg>
