<svg width="112" height="44" viewBox="0 0 112 44" fill="none" xmlns="http://www.w3.org/2000/svg">
<g clip-path="url(#clip0_2396_4982)">
<path d="M74.8328 10.9427L84.42 27.2199C84.651 27.612 84.9805 27.9423 85.3788 28.181L101.731 37.9814C102.939 38.7051 104.526 38.4546 105.442 37.3958L110.17 31.9312C110.961 31.0164 111.051 29.722 110.393 28.726L97.2203 8.79701C96.8195 8.19053 96.1833 7.76251 95.4505 7.60631L81.396 4.6103C80.6142 4.44364 79.7925 4.60128 79.1331 5.04446L75.6932 7.35654C74.4859 8.16795 74.1133 9.72106 74.8328 10.9427Z" fill="#F0CF11" fill-opacity="0.7" stroke="white"/>
<path d="M77.8828 10.5566C77.8828 10.5566 83.9688 12.9073 87.2917 13.7983M87.2917 13.7983C91.61 13.1881 94.295 10.0844 94.295 10.0844M87.2917 13.7983L101.425 34.4596" stroke="white" stroke-width="1.07958" stroke-linecap="round" stroke-linejoin="round"/>
<path d="M73.0326 11.2497L67.8236 5.30397C67.2443 4.64268 66.4105 4.25977 65.5322 4.2516L50.1806 4.1088C49.2501 4.10015 48.3663 4.51282 47.7766 5.23143L40.8981 13.6123C39.9175 14.8071 39.9775 16.5458 41.0383 17.6741L46.5354 23.5217C47.0672 24.0874 47.7925 24.4319 48.5663 24.4864L62.2263 25.4489C63.1657 25.5151 64.0829 25.1479 64.7159 24.4522L72.9976 15.3497C74.0503 14.1928 74.0653 12.4285 73.0326 11.2497Z" fill="#F0CF11" fill-opacity="0.7" stroke="white"/>
<path d="M64.1963 6.88037C64.1963 6.88037 58.9693 12.4028 58.0254 15.0682M58.0254 15.0682C58.6689 17.9398 61.9194 22.7697 61.9194 22.7697M58.0254 15.0682L43.988 15.3646" stroke="white" stroke-linecap="round" stroke-linejoin="round"/>
<path d="M6.66063 34.8841L25.3787 41.9217C25.8766 42.1089 26.4169 42.1505 26.9361 42.0415L45.707 38.1023C47.0547 37.8195 47.9887 36.5944 47.9054 35.2189L47.3479 26.0068C47.2777 24.8469 46.4955 23.8484 45.3848 23.5005L21.6342 16.0628C20.8289 15.8106 19.9547 15.935 19.2554 16.4013L7.01705 24.5626C6.38636 24.9832 5.95592 25.6436 5.82523 26.3911L4.88285 31.7813C4.65144 33.1049 5.39909 34.4098 6.66063 34.8841Z" fill="#F0CF11" fill-opacity="0.7" stroke="white"/>
<path d="M8.83641 32.3712C8.83641 32.3712 14.8991 29.7603 17.9281 27.9887M17.9281 27.9887C20.5982 24.127 20.3075 19.3233 20.3075 19.3233M17.9281 27.9887L42.8942 35.333" stroke="white" stroke-width="1.07958" stroke-linecap="round" stroke-linejoin="round"/>
<path d="M65.3547 20.9115L50.4494 27.0929C49.2677 27.583 48.523 28.7558 48.5805 30.0361L48.9414 38.0802C49.0081 39.5664 50.1319 40.8038 51.6101 41.0188L72.0186 43.9861C72.5887 44.069 73.169 43.9915 73.6937 43.7623L88.3009 37.3826C89.2699 36.9594 89.9465 36.0663 90.0917 35.019L91.0744 27.9297C91.3032 26.2796 90.1677 24.7341 88.5159 24.4474L67.0618 20.7234C66.4846 20.6232 65.8925 20.6884 65.3547 20.9115Z" fill="#F0CF11" fill-opacity="0.7" stroke="white"/>
<path d="M53.4902 29.3882C53.4902 29.3882 65.1242 31.5421 70.6612 31.5193M70.6612 31.5193C76.5445 30.3775 86.3325 26.9984 86.3325 26.9984M70.6612 31.5193L71.966 40.891" stroke="white" stroke-linecap="round" stroke-linejoin="round"/>
<path d="M20.4043 3.23865L6.61607 6.61545C5.37809 6.91863 4.45189 7.95181 4.28593 9.21472L3.32617 16.5184C3.13481 17.9746 3.99828 19.3596 5.38877 19.8268L22.5177 25.582C23.089 25.774 23.7047 25.7937 24.2883 25.6388L37.874 22.032C38.8991 21.7598 39.714 20.9803 40.0313 19.9684L41.9835 13.7425C42.4739 12.1783 41.6548 10.5083 40.1196 9.94262L22.2008 3.33961C21.6261 3.12781 21.0005 3.09265 20.4043 3.23865Z" fill="#F0CF11" fill-opacity="0.7" stroke="white"/>
<path d="M8.76074 9.27039C8.76074 9.27039 18.6146 13.0339 23.474 13.8561M23.474 13.8561C28.8179 13.6963 37.948 12.0622 37.948 12.0622M23.474 13.8561L23.1021 22.7209" stroke="white" stroke-linecap="round" stroke-linejoin="round"/>
</g>
<defs>
<clipPath id="clip0_2396_4982">
<rect width="111" height="43" fill="white" transform="translate(0.942383 0.453979)"/>
</clipPath>
</defs>
</svg>
