<svg width="111" height="43" viewBox="0 0 111 43" fill="none" xmlns="http://www.w3.org/2000/svg">
<g clip-path="url(#clip0_2156_4913)">
<path d="M14.5004 35.988C16.0731 32.7287 14.6738 28.8093 11.375 27.2337C8.07626 25.658 4.12723 27.0229 2.55459 30.2822C0.981947 33.5415 2.3812 37.461 5.67996 39.0366C8.97872 40.6123 12.9278 39.2473 14.5004 35.988Z" fill="#455A64"/>
<path opacity="0.06" d="M2.22798 35.2271C2.51717 36.0404 2.96491 36.7903 3.5457 37.4338C4.12649 38.0773 4.82891 38.6018 5.61287 38.9775C6.39684 39.3532 7.247 39.5726 8.11479 39.6233C8.98257 39.6739 9.85097 39.5548 10.6705 39.2728C11.49 38.9907 12.2445 38.5512 12.8909 37.9794C13.5374 37.4075 14.0631 36.7145 14.4381 35.9399C14.8131 35.1654 15.03 34.3244 15.0764 33.465C15.1228 32.6056 14.9979 31.7447 14.7087 30.9313C14.4942 30.313 14.1828 29.7316 13.7858 29.2084L13.952 29.6379C14.2605 30.517 14.3529 31.4552 14.2215 32.3744C14.0901 33.2936 13.7388 34.1672 13.1966 34.9224C12.6545 35.6776 11.9372 36.2926 11.1048 36.7161C10.2723 37.1396 9.34878 37.3594 8.41089 37.3572C7.47299 37.3549 6.54798 37.1306 5.71295 36.7031C4.87792 36.2756 4.15705 35.6571 3.61033 34.8993C3.06362 34.1414 2.70693 33.2661 2.56995 32.3462C2.43298 31.4264 2.51961 30.4886 2.8228 29.611C2.30828 30.4422 1.98791 31.3776 1.885 32.3491C1.78209 33.3206 1.89932 34.3038 2.22798 35.2271Z" fill="black"/>
<path opacity="0.3" d="M6.66481 29.3133C6.52351 29.814 6.53841 30.3461 6.70746 30.8399C6.87652 31.3338 7.19195 31.7664 7.61236 32.081C8.03277 32.3957 8.53856 32.5778 9.0636 32.6034C9.58864 32.6291 10.1084 32.4971 10.5548 32.2248C11.0013 31.9525 11.3536 31.5525 11.5656 31.0773C11.7776 30.6021 11.8394 30.0737 11.7429 29.5614C11.6465 29.0491 11.3963 28.5768 11.0251 28.2062C10.6539 27.8357 10.1791 27.5842 9.66269 27.4847C9.34351 27.4076 9.01236 27.3938 8.68845 27.4441C8.36455 27.4944 8.05428 27.6078 7.77554 27.7779C7.49681 27.9479 7.2552 28.1711 7.06456 28.4347C6.87393 28.6982 6.73799 28.9968 6.66481 29.3133Z" fill="white"/>
<path opacity="0.1" d="M13.2493 33.1504C12.3003 31.8483 9.92035 34.0348 8.1298 33.5342C6.33925 33.0335 5.49238 31.6732 3.95283 32.4162C2.41328 33.1592 3.66421 37.8576 7.77174 38.5077C11.8793 39.1579 14.5958 34.9867 13.2493 33.1504Z" fill="white"/>
<path d="M26.1754 25.6759C26.8519 22.1209 24.4868 18.6965 20.8928 18.0273C17.2988 17.3581 13.8369 19.6976 13.1605 23.2527C12.484 26.8077 14.849 30.2322 18.443 30.9014C22.037 31.5706 25.4989 29.231 26.1754 25.6759Z" fill="#455A64"/>
<path opacity="0.06" d="M14.1231 28.1139C14.6128 28.8248 15.2391 29.4334 15.9666 29.9048C16.694 30.3763 17.5081 30.7014 18.3626 30.8616C19.217 31.0218 20.095 31.014 20.9464 30.8385C21.7978 30.6631 22.6058 30.3236 23.3245 29.8392C24.0432 29.3548 24.6585 28.7352 25.1351 28.0157C25.6117 27.2961 25.9404 26.4908 26.1024 25.6456C26.2644 24.8004 26.2564 23.9319 26.0791 23.0898C25.9017 22.2476 25.5584 21.4482 25.0688 20.7373C24.7018 20.1955 24.2506 19.7143 23.7319 19.3116L24.0034 19.6835C24.5287 20.4529 24.8605 21.3353 24.9713 22.2572C25.082 23.1792 24.9685 24.1139 24.64 24.9836C24.3116 25.8533 23.7777 26.6329 23.0831 27.2572C22.3884 27.8815 21.5531 28.3326 20.6465 28.5729C19.7399 28.8132 18.7884 28.8358 17.8712 28.6387C16.954 28.4415 16.0978 28.0305 15.3737 27.4398C14.6496 26.849 14.0788 26.0957 13.7086 25.2425C13.3385 24.3894 13.1797 23.4611 13.2457 22.535C12.9636 23.4709 12.8959 24.4573 13.0477 25.4224C13.1995 26.3874 13.5669 27.3069 14.1231 28.1139Z" fill="black"/>
<path opacity="0.3" d="M16.8813 21.2539C16.8743 21.7741 17.0262 22.2842 17.3172 22.7176C17.6082 23.1509 18.0248 23.4873 18.5122 23.6825C18.9997 23.8778 19.5354 23.9229 20.0492 23.8119C20.563 23.701 21.031 23.4391 21.3918 23.0606C21.7527 22.6822 21.9896 22.2047 22.0715 21.6908C22.1534 21.1769 22.0765 20.6506 21.8509 20.1806C21.6253 19.7107 21.2615 19.3191 20.8071 19.0571C20.3528 18.7951 19.829 18.675 19.3045 18.7124C18.9762 18.7204 18.6527 18.7927 18.3529 18.925C18.053 19.0574 17.7826 19.2472 17.5573 19.4835C17.332 19.7198 17.1563 19.9979 17.0403 20.3018C16.9243 20.6056 16.8702 20.9293 16.8813 21.2539Z" fill="white"/>
<path opacity="0.1" d="M24.2338 23.2582C22.9805 22.2457 21.2467 24.9732 19.3876 24.9525C17.5285 24.9319 16.3587 23.8367 15.0636 24.9525C13.7685 26.0683 16.1916 30.2835 20.3276 29.8496C24.4636 29.4156 26.0093 24.6839 24.2338 23.2582Z" fill="white"/>
<path d="M13.3394 21.4154C14.0159 17.8603 11.6508 14.4359 8.05686 13.7667C4.46289 13.0976 1.00101 15.437 0.324519 18.9921C-0.351971 22.5472 2.01309 25.9717 5.60706 26.6408C9.20103 27.31 12.6629 24.9704 13.3394 21.4154Z" fill="#455A64"/>
<path opacity="0.06" d="M1.28717 23.8533C1.77682 24.5642 2.4032 25.1728 3.13062 25.6443C3.85803 26.1157 4.67219 26.4408 5.52663 26.601C6.38106 26.7612 7.25906 26.7534 8.11044 26.578C8.96182 26.4026 9.76989 26.063 10.4886 25.5786C11.2073 25.0943 11.8225 24.4747 12.2992 23.7551C12.7758 23.0356 13.1045 22.2302 13.2665 21.385C13.4284 20.5398 13.4205 19.6714 13.2431 18.8292C13.0658 17.987 12.7225 17.1877 12.2329 16.4768C11.8658 15.9349 11.4146 15.4537 10.8959 15.051L11.1675 15.4229C11.6928 16.1923 12.0246 17.0748 12.1353 17.9967C12.246 18.9186 12.1325 19.8534 11.8041 20.7231C11.4757 21.5928 10.9418 22.3723 10.2471 22.9966C9.55247 23.621 8.71716 24.0721 7.81057 24.3124C6.90398 24.5527 5.95244 24.5752 5.03526 24.3781C4.11809 24.181 3.26183 23.77 2.53777 23.1792C1.8137 22.5885 1.24282 21.8351 0.872682 20.982C0.502542 20.1288 0.343759 19.2005 0.409748 18.2744C0.127629 19.2103 0.0599845 20.1968 0.211749 21.1618C0.363513 22.1269 0.730961 23.0463 1.28717 23.8533Z" fill="black"/>
<path opacity="0.3" d="M4.04537 16.9933C4.03832 17.5135 4.19029 18.0237 4.48128 18.457C4.77227 18.8904 5.18882 19.2267 5.67629 19.422C6.16376 19.6172 6.69942 19.6623 7.21324 19.5514C7.72706 19.4404 8.19505 19.1785 8.55589 18.8001C8.91672 18.4216 9.15364 17.9441 9.23556 17.4303C9.31748 16.9164 9.24059 16.39 9.015 15.9201C8.7894 15.4501 8.42556 15.0585 7.9712 14.7966C7.51683 14.5346 6.9931 14.4144 6.46854 14.4518C6.14026 14.4598 5.8168 14.5321 5.51692 14.6644C5.21704 14.7968 4.94665 14.9866 4.72135 15.2229C4.49605 15.4592 4.32038 15.7373 4.20436 16.0412C4.08834 16.3451 4.03424 16.6687 4.04537 16.9933Z" fill="white"/>
<path opacity="0.1" d="M11.3979 18.9976C10.1445 17.9852 8.41076 20.7126 6.55166 20.692C4.69256 20.6713 3.52277 19.5762 2.22767 20.692C0.932568 21.8077 3.3557 26.0229 7.49168 25.589C11.6277 25.1551 13.1734 20.4234 11.3979 18.9976Z" fill="white"/>
<path d="M27.2252 12.887C27.9017 9.33197 25.5366 5.90759 21.9426 5.23843C18.3486 4.56926 14.8868 6.90871 14.2103 10.4638C13.5338 14.0188 15.8988 17.4433 19.4928 18.1125C23.0868 18.7817 26.5487 16.4421 27.2252 12.887Z" fill="#455A64"/>
<path opacity="0.06" d="M15.1729 15.325C15.6626 16.0359 16.2889 16.6445 17.0164 17.1159C17.7438 17.5874 18.5579 17.9125 19.4124 18.0727C20.2668 18.2329 21.1448 18.2251 21.9962 18.0497C22.8476 17.8742 23.6556 17.5347 24.3743 17.0503C25.093 16.566 25.7083 15.9463 26.1849 15.2268C26.6615 14.5073 26.9902 13.7019 27.1522 12.8567C27.3142 12.0115 27.3062 11.143 27.1289 10.3009C26.9515 9.45872 26.6083 8.65936 26.1186 7.94843C25.7516 7.40658 25.3004 6.92541 24.7817 6.52271L25.0533 6.89462C25.5785 7.66401 25.9103 8.54644 26.0211 9.46837C26.1318 10.3903 26.0183 11.325 25.6898 12.1947C25.3614 13.0645 24.8275 13.844 24.1329 14.4683C23.4382 15.0927 22.6029 15.5437 21.6963 15.784C20.7897 16.0243 19.8382 16.0469 18.921 15.8498C18.0038 15.6527 17.1476 15.2416 16.4235 14.6509C15.6994 14.0602 15.1286 13.3068 14.7584 12.4537C14.3883 11.6005 14.2295 10.6722 14.2955 9.74607C14.0134 10.682 13.9457 11.6684 14.0975 12.6335C14.2493 13.5986 14.6167 14.518 15.1729 15.325Z" fill="black"/>
<path opacity="0.3" d="M17.9311 8.46502C17.9241 8.98521 18.076 9.49537 18.367 9.92871C18.658 10.3621 19.0746 10.6984 19.562 10.8936C20.0495 11.0889 20.5852 11.134 21.099 11.023C21.6128 10.9121 22.0808 10.6502 22.4416 10.2717C22.8025 9.89327 23.0394 9.41583 23.1213 8.90195C23.2032 8.38807 23.1263 7.8617 22.9007 7.39176C22.6751 6.92182 22.3113 6.53021 21.8569 6.26823C21.4026 6.00625 20.8788 5.88609 20.3543 5.9235C20.026 5.9315 19.7025 6.00378 19.4027 6.13613C19.1028 6.26847 18.8324 6.45828 18.6071 6.69459C18.3818 6.9309 18.2061 7.20901 18.0901 7.51289C17.9741 7.81676 17.92 8.14039 17.9311 8.46502Z" fill="white"/>
<path opacity="0.1" d="M25.2836 10.4693C24.0303 9.45685 22.2965 12.1843 20.4374 12.1636C18.5783 12.143 17.4085 11.0479 16.1134 12.1636C14.8183 13.2794 17.2414 17.4946 21.3774 17.0607C25.5134 16.6268 27.0592 11.895 25.2836 10.4693Z" fill="white"/>
<path d="M36.816 21.2031C37.4925 17.648 35.1274 14.2236 31.5334 13.5545C27.9395 12.8853 24.4776 15.2247 23.8011 18.7798C23.1246 22.3349 25.4897 25.7594 29.0836 26.4286C32.6776 27.0977 36.1395 24.7581 36.816 21.2031Z" fill="#455A64"/>
<path opacity="0.06" d="M24.7637 23.641C25.2534 24.3519 25.8798 24.9605 26.6072 25.432C27.3346 25.9034 28.1488 26.2285 29.0032 26.3887C29.8576 26.549 30.7356 26.5411 31.587 26.3657C32.4384 26.1903 33.2465 25.8507 33.9652 25.3664C34.6839 24.882 35.2991 24.2624 35.7757 23.5428C36.2523 22.8233 36.5811 22.0179 36.743 21.1727C36.905 20.3275 36.897 19.4591 36.7197 18.6169C36.5423 17.7748 36.1991 16.9754 35.7094 16.2645C35.3424 15.7226 34.8912 15.2415 34.3725 14.8387L34.6441 15.2107C35.1694 15.98 35.5012 16.8625 35.6119 17.7844C35.7226 18.7063 35.6091 19.6411 35.2807 20.5108C34.9522 21.3805 34.4183 22.16 33.7237 22.7844C33.029 23.4087 32.1937 23.8598 31.2871 24.1001C30.3805 24.3404 29.429 24.3629 28.5118 24.1658C27.5946 23.9687 26.7384 23.5577 26.0143 22.9669C25.2903 22.3762 24.7194 21.6229 24.3492 20.7697C23.9791 19.9165 23.8203 18.9882 23.8863 18.0621C23.6042 18.9981 23.5365 19.9845 23.6883 20.9495C23.8401 21.9146 24.2075 22.8341 24.7637 23.641Z" fill="black"/>
<path opacity="0.3" d="M27.5219 16.7811C27.5149 17.3012 27.6669 17.8114 27.9578 18.2448C28.2488 18.6781 28.6654 19.0144 29.1528 19.2097C29.6403 19.405 30.176 19.45 30.6898 19.3391C31.2036 19.2281 31.6716 18.9663 32.0324 18.5878C32.3933 18.2093 32.6302 17.7319 32.7121 17.218C32.794 16.7041 32.7172 16.1777 32.4916 15.7078C32.266 15.2379 31.9021 14.8463 31.4478 14.5843C30.9934 14.3223 30.4697 14.2021 29.9451 14.2395C29.6168 14.2475 29.2934 14.3198 28.9935 14.4522C28.6936 14.5845 28.4232 14.7743 28.1979 15.0106C27.9726 15.2469 27.7969 15.5251 27.6809 15.8289C27.5649 16.1328 27.5108 16.4564 27.5219 16.7811Z" fill="white"/>
<path opacity="0.1" d="M34.8744 18.7854C33.6211 17.7729 31.8873 20.5003 30.0282 20.4797C28.1691 20.459 26.9993 19.3639 25.7042 20.4797C24.4091 21.5955 26.8323 25.8106 30.9682 25.3767C35.1042 24.9428 36.65 20.2111 34.8744 18.7854Z" fill="white"/>
<path d="M29.6607 33.6261C30.3372 30.071 27.9721 26.6466 24.3781 25.9774C20.7842 25.3083 17.3223 27.6477 16.6458 31.2028C15.9693 34.7579 18.3344 38.1824 21.9284 38.8515C25.5223 39.5207 28.9842 37.1811 29.6607 33.6261Z" fill="#455A64"/>
<path opacity="0.06" d="M17.6085 36.064C18.0981 36.7749 18.7245 37.3835 19.4519 37.8549C20.1793 38.3264 20.9935 38.6515 21.8479 38.8117C22.7024 38.9719 23.5803 38.9641 24.4317 38.7887C25.2831 38.6132 26.0912 38.2737 26.8099 37.7893C27.5286 37.305 28.1438 36.6854 28.6204 35.9658C29.0971 35.2463 29.4258 34.4409 29.5877 33.5957C29.7497 32.7505 29.7418 31.8821 29.5644 31.0399C29.3871 30.1977 29.0438 29.3984 28.5541 28.6874C28.1871 28.1456 27.7359 27.6644 27.2172 27.2617L27.4888 27.6336C28.0141 28.403 28.3459 29.2855 28.4566 30.2074C28.5673 31.1293 28.4538 32.064 28.1254 32.9338C27.7969 33.8035 27.2631 34.583 26.5684 35.2073C25.8738 35.8317 25.0384 36.2827 24.1319 36.523C23.2253 36.7634 22.2737 36.7859 21.3566 36.5888C20.4394 36.3917 19.5831 35.9806 18.8591 35.3899C18.135 34.7992 17.5641 34.0458 17.194 33.1927C16.8238 32.3395 16.665 31.4112 16.731 30.4851C16.4489 31.421 16.3813 32.4074 16.533 33.3725C16.6848 34.3376 17.0523 35.257 17.6085 36.064Z" fill="black"/>
<path opacity="0.3" d="M20.3667 29.204C20.3596 29.7242 20.5116 30.2344 20.8026 30.6677C21.0936 31.1011 21.5101 31.4374 21.9976 31.6327C22.485 31.8279 23.0207 31.873 23.5345 31.7621C24.0483 31.6511 24.5163 31.3892 24.8772 31.0108C25.238 30.6323 25.4749 30.1548 25.5569 29.641C25.6388 29.1271 25.5619 28.6007 25.3363 28.1308C25.1107 27.6608 24.7469 27.2692 24.2925 27.0072C23.8381 26.7453 23.3144 26.6251 22.7898 26.6625C22.4616 26.6705 22.1381 26.7428 21.8382 26.8751C21.5383 27.0075 21.2679 27.1973 21.0426 27.4336C20.8173 27.6699 20.6417 27.948 20.5256 28.2519C20.4096 28.5558 20.3555 28.8794 20.3667 29.204Z" fill="white"/>
<path opacity="0.1" d="M27.7192 31.2083C26.4658 30.1959 24.732 32.9233 22.8729 32.9027C21.0138 32.882 19.8441 31.7869 18.549 32.9027C17.2539 34.0184 19.677 38.2336 23.813 37.7997C27.9489 37.3658 29.4947 32.6341 27.7192 31.2083Z" fill="white"/>
<path d="M42.69 37.3057C43.3665 33.7506 41.0014 30.3262 37.4074 29.6571C33.8135 28.9879 30.3516 31.3273 29.6751 34.8824C28.9986 38.4375 31.3637 41.862 34.9577 42.5312C38.5516 43.2003 42.0135 40.8607 42.69 37.3057Z" fill="#455A64"/>
<path opacity="0.06" d="M30.6378 39.7436C31.1274 40.4545 31.7538 41.0631 32.4812 41.5346C33.2086 42.006 34.0228 42.3311 34.8772 42.4913C35.7317 42.6516 36.6096 42.6437 37.461 42.4683C38.3124 42.2929 39.1205 41.9533 39.8392 41.469C40.5579 40.9846 41.1731 40.365 41.6497 39.6454C42.1264 38.9259 42.4551 38.1205 42.617 37.2753C42.779 36.4301 42.7711 35.5617 42.5937 34.7195C42.4164 33.8774 42.0731 33.078 41.5834 32.3671C41.2164 31.8252 40.7652 31.3441 40.2465 30.9413L40.5181 31.3133C41.0434 32.0826 41.3752 32.9651 41.4859 33.887C41.5966 34.8089 41.4831 35.7437 41.1547 36.6134C40.8262 37.4831 40.2924 38.2626 39.5977 38.887C38.9031 39.5113 38.0677 39.9624 37.1612 40.2027C36.2546 40.443 35.303 40.4655 34.3858 40.2684C33.4687 40.0713 32.6124 39.6603 31.8884 39.0695C31.1643 38.4788 30.5934 37.7255 30.2233 36.8723C29.8531 36.0191 29.6943 35.0908 29.7603 34.1647C29.4782 35.1007 29.4106 36.0871 29.5623 37.0521C29.7141 38.0172 30.0815 38.9367 30.6378 39.7436Z" fill="black"/>
<path opacity="0.3" d="M33.396 32.8837C33.3889 33.4038 33.5409 33.914 33.8319 34.3474C34.1229 34.7807 34.5394 35.117 35.0269 35.3123C35.5143 35.5076 36.05 35.5526 36.5638 35.4417C37.0776 35.3307 37.5456 35.0689 37.9065 34.6904C38.2673 34.3119 38.5042 33.8345 38.5861 33.3206C38.6681 32.8067 38.5912 32.2803 38.3656 31.8104C38.14 31.3405 37.7761 30.9489 37.3218 30.6869C36.8674 30.4249 36.3437 30.3047 35.8191 30.3421C35.4908 30.3501 35.1674 30.4224 34.8675 30.5548C34.5676 30.6871 34.2972 30.8769 34.0719 31.1132C33.8466 31.3495 33.671 31.6277 33.5549 31.9315C33.4389 32.2354 33.3848 32.559 33.396 32.8837Z" fill="white"/>
<path opacity="0.1" d="M40.7485 34.888C39.4951 33.8755 37.7613 36.6029 35.9022 36.5823C34.0431 36.5616 32.8734 35.4665 31.5783 36.5823C30.2832 37.6981 32.7063 41.9132 36.8423 41.4793C40.9782 41.0454 42.524 36.3137 40.7485 34.888Z" fill="white"/>
<path d="M56.5601 37.3057C57.2366 33.7506 54.8715 30.3262 51.2776 29.6571C47.6836 28.9879 44.2217 31.3273 43.5452 34.8824C42.8687 38.4375 45.2338 41.862 48.8278 42.5312C52.4217 43.2003 55.8836 40.8607 56.5601 37.3057Z" fill="#455A64"/>
<path opacity="0.06" d="M44.5079 39.7436C44.9975 40.4545 45.6239 41.0631 46.3513 41.5346C47.0787 42.006 47.8929 42.3311 48.7473 42.4913C49.6018 42.6516 50.4798 42.6437 51.3311 42.4683C52.1825 42.2929 52.9906 41.9533 53.7093 41.469C54.428 40.9846 55.0432 40.365 55.5199 39.6454C55.9965 38.9259 56.3252 38.1205 56.4872 37.2753C56.6491 36.4301 56.6412 35.5617 56.4638 34.7195C56.2865 33.8774 55.9432 33.078 55.4536 32.3671C55.0865 31.8252 54.6353 31.3441 54.1166 30.9413L54.3882 31.3133C54.9135 32.0826 55.2453 32.9651 55.356 33.887C55.4667 34.8089 55.3532 35.7437 55.0248 36.6134C54.6964 37.4831 54.1625 38.2626 53.4678 38.887C52.7732 39.5113 51.9379 39.9624 51.0313 40.2027C50.1247 40.443 49.1731 40.4655 48.256 40.2684C47.3388 40.0713 46.4825 39.6603 45.7585 39.0695C45.0344 38.4788 44.4635 37.7255 44.0934 36.8723C43.7232 36.0191 43.5645 35.0908 43.6305 34.1647C43.3483 35.1007 43.2807 36.0871 43.4325 37.0521C43.5842 38.0172 43.9517 38.9367 44.5079 39.7436Z" fill="black"/>
<path opacity="0.3" d="M47.2661 32.8837C47.259 33.4038 47.411 33.914 47.702 34.3474C47.993 34.7807 48.4095 35.117 48.897 35.3123C49.3845 35.5076 49.9201 35.5526 50.4339 35.4417C50.9478 35.3307 51.4158 35.0689 51.7766 34.6904C52.1374 34.3119 52.3743 33.8345 52.4563 33.3206C52.5382 32.8067 52.4613 32.2803 52.2357 31.8104C52.0101 31.3405 51.6463 30.9489 51.1919 30.6869C50.7375 30.4249 50.2138 30.3047 49.6892 30.3421C49.361 30.3501 49.0375 30.4224 48.7376 30.5548C48.4377 30.6871 48.1674 30.8769 47.9421 31.1132C47.7168 31.3495 47.5411 31.6277 47.4251 31.9315C47.309 32.2354 47.2549 32.559 47.2661 32.8837Z" fill="white"/>
<path opacity="0.1" d="M54.6186 34.888C53.3652 33.8755 51.6315 36.6029 49.7724 36.5823C47.9133 36.5616 46.7435 35.4665 45.4484 36.5823C44.1533 37.6981 46.5764 41.9132 50.7124 41.4793C54.8484 41.0454 56.3941 36.3137 54.6186 34.888Z" fill="white"/>
<path d="M73.2017 33.3246C73.8782 29.7695 71.5131 26.3452 67.9192 25.676C64.3252 25.0068 60.8633 27.3463 60.1868 30.9013C59.5103 34.4564 61.8754 37.8809 65.4694 38.5501C69.0633 39.2192 72.5252 36.8797 73.2017 33.3246Z" fill="#455A64"/>
<path opacity="0.06" d="M61.1495 35.7625C61.6391 36.4735 62.2655 37.082 62.9929 37.5535C63.7203 38.025 64.5345 38.3501 65.3889 38.5103C66.2434 38.6705 67.1214 38.6626 67.9727 38.4872C68.8241 38.3118 69.6322 37.9722 70.3509 37.4879C71.0696 37.0035 71.6848 36.3839 72.1615 35.6644C72.6381 34.9448 72.9668 34.1394 73.1288 33.2943C73.2907 32.4491 73.2828 31.5806 73.1054 30.7384C72.9281 29.8963 72.5848 29.0969 72.0952 28.386C71.7281 27.8441 71.2769 27.363 70.7583 26.9603L71.0298 27.3322C71.5551 28.1016 71.8869 28.984 71.9976 29.9059C72.1083 30.8279 71.9948 31.7626 71.6664 32.6323C71.338 33.502 70.8041 34.2815 70.1094 34.9059C69.4148 35.5302 68.5795 35.9813 67.6729 36.2216C66.7663 36.4619 65.8147 36.4844 64.8976 36.2873C63.9804 36.0902 63.1241 35.6792 62.4001 35.0885C61.676 34.4977 61.1051 33.7444 60.735 32.8912C60.3648 32.0381 60.2061 31.1097 60.2721 30.1836C59.9899 31.1196 59.9223 32.106 60.0741 33.0711C60.2258 34.0361 60.5933 34.9556 61.1495 35.7625Z" fill="black"/>
<path opacity="0.3" d="M63.9077 28.9026C63.9006 29.4228 64.0526 29.9329 64.3436 30.3663C64.6346 30.7996 65.0511 31.1359 65.5386 31.3312C66.0261 31.5265 66.5617 31.5716 67.0755 31.4606C67.5894 31.3496 68.0574 31.0878 68.4182 30.7093C68.779 30.3308 69.0159 29.8534 69.0979 29.3395C69.1798 28.8256 69.1029 28.2993 68.8773 27.8293C68.6517 27.3594 68.2879 26.9678 67.8335 26.7058C67.3791 26.4438 66.8554 26.3236 66.3308 26.3611C66.0026 26.3691 65.6791 26.4413 65.3792 26.5737C65.0793 26.706 64.809 26.8958 64.5837 27.1322C64.3584 27.3685 64.1827 27.6466 64.0667 27.9505C63.9506 28.2543 63.8965 28.5779 63.9077 28.9026Z" fill="white"/>
<path opacity="0.1" d="M71.2602 30.9069C70.0068 29.8944 68.2731 32.6219 66.414 32.6012C64.5549 32.5805 63.3851 31.4854 62.09 32.6012C60.7949 33.717 63.218 37.9322 67.354 37.4982C71.49 37.0643 73.0357 32.3326 71.2602 30.9069Z" fill="white"/>
<path d="M84.7066 36.3151C85.3831 32.76 83.018 29.3356 79.424 28.6665C75.8301 27.9973 72.3682 30.3367 71.6917 33.8918C71.0152 37.4469 73.3803 40.8714 76.9743 41.5406C80.5682 42.2097 84.0301 39.8701 84.7066 36.3151Z" fill="#455A64"/>
<path opacity="0.06" d="M72.6544 38.753C73.144 39.4639 73.7704 40.0725 74.4978 40.544C75.2252 41.0154 76.0394 41.3405 76.8938 41.5007C77.7483 41.661 78.6262 41.6531 79.4776 41.4777C80.329 41.3023 81.1371 40.9627 81.8558 40.4784C82.5745 39.994 83.1897 39.3744 83.6663 38.6548C84.143 37.9353 84.4717 37.1299 84.6336 36.2847C84.7956 35.4395 84.7877 34.5711 84.6103 33.7289C84.433 32.8868 84.0897 32.0874 83.6 31.3765C83.233 30.8346 82.7818 30.3535 82.2631 29.9507L82.5347 30.3227C83.06 31.092 83.3918 31.9745 83.5025 32.8964C83.6132 33.8183 83.4997 34.7531 83.1713 35.6228C82.8428 36.4925 82.309 37.272 81.6143 37.8964C80.9197 38.5207 80.0843 38.9718 79.1778 39.2121C78.2712 39.4524 77.3196 39.4749 76.4024 39.2778C75.4853 39.0807 74.629 38.6697 73.905 38.0789C73.1809 37.4882 72.61 36.7349 72.2399 35.8817C71.8697 35.0285 71.7109 34.1002 71.7769 33.1741C71.4948 34.1101 71.4272 35.0965 71.5789 36.0615C71.7307 37.0266 72.0981 37.9461 72.6544 38.753Z" fill="black"/>
<path opacity="0.3" d="M75.4126 31.8931C75.4055 32.4132 75.5575 32.9234 75.8485 33.3568C76.1395 33.7901 76.556 34.1264 77.0435 34.3217C77.5309 34.517 78.0666 34.562 78.5804 34.4511C79.0942 34.3401 79.5622 34.0783 79.9231 33.6998C80.2839 33.3213 80.5208 32.8439 80.6027 32.33C80.6847 31.8161 80.6078 31.2897 80.3822 30.8198C80.1566 30.3499 79.7928 29.9583 79.3384 29.6963C78.884 29.4343 78.3603 29.3141 77.8357 29.3515C77.5075 29.3595 77.184 29.4318 76.8841 29.5642C76.5842 29.6965 76.3138 29.8863 76.0885 30.1226C75.8632 30.3589 75.6876 30.6371 75.5715 30.9409C75.4555 31.2448 75.4014 31.5684 75.4126 31.8931Z" fill="white"/>
<path opacity="0.1" d="M82.7651 33.8974C81.5117 32.8849 79.7779 35.6123 77.9188 35.5917C76.0597 35.571 74.89 34.4759 73.5949 35.5917C72.2998 36.7075 74.7229 40.9226 78.8589 40.4887C82.9948 40.0548 84.5406 35.3231 82.7651 33.8974Z" fill="white"/>
<path d="M97.4439 38.0989C98.1204 34.5438 95.7553 31.1194 92.1614 30.4503C88.5674 29.7811 85.1055 32.1206 84.429 35.6756C83.7525 39.2307 86.1176 42.6552 89.7116 43.3244C93.3055 43.9935 96.7674 41.654 97.4439 38.0989Z" fill="#455A64"/>
<path opacity="0.06" d="M85.3917 40.5368C85.8813 41.2478 86.5077 41.8563 87.2351 42.3278C87.9625 42.7992 88.7767 43.1243 89.6311 43.2846C90.4856 43.4448 91.3636 43.4369 92.2149 43.2615C93.0663 43.0861 93.8744 42.7465 94.5931 42.2622C95.3118 41.7778 95.927 41.1582 96.4036 40.4387C96.8803 39.7191 97.209 38.9137 97.3709 38.0685C97.5329 37.2234 97.525 36.3549 97.3476 35.5127C97.1703 34.6706 96.827 33.8712 96.3373 33.1603C95.9703 32.6184 95.5191 32.1373 95.0004 31.7346L95.272 32.1065C95.7973 32.8759 96.1291 33.7583 96.2398 34.6802C96.3505 35.6021 96.237 36.5369 95.9086 37.4066C95.5801 38.2763 95.0463 39.0558 94.3516 39.6802C93.657 40.3045 92.8217 40.7556 91.9151 40.9959C91.0085 41.2362 90.0569 41.2587 89.1398 41.0616C88.2226 40.8645 87.3663 40.4535 86.6423 39.8627C85.9182 39.272 85.3473 38.5187 84.9772 37.6655C84.607 36.8123 84.4483 35.884 84.5142 34.9579C84.2321 35.8939 84.1645 36.8803 84.3162 37.8454C84.468 38.8104 84.8355 39.7299 85.3917 40.5368Z" fill="black"/>
<path opacity="0.3" d="M88.1499 33.6769C88.1428 34.1971 88.2948 34.7072 88.5858 35.1406C88.8768 35.5739 89.2933 35.9102 89.7808 36.1055C90.2683 36.3008 90.8039 36.3459 91.3177 36.2349C91.8315 36.1239 92.2995 35.8621 92.6604 35.4836C93.0212 35.1051 93.2581 34.6277 93.3401 34.1138C93.422 33.5999 93.3451 33.0735 93.1195 32.6036C92.8939 32.1337 92.5301 31.7421 92.0757 31.4801C91.6213 31.2181 91.0976 31.0979 90.573 31.1353C90.2448 31.1434 89.9213 31.2156 89.6214 31.348C89.3215 31.4803 89.0511 31.6701 88.8258 31.9064C88.6005 32.1428 88.4249 32.4209 88.3089 32.7247C88.1928 33.0286 88.1387 33.3522 88.1499 33.6769Z" fill="white"/>
<path opacity="0.1" d="M95.5024 35.6812C94.249 34.6687 92.5153 37.3962 90.6562 37.3755C88.7971 37.3548 87.6273 36.2597 86.3322 37.3755C85.0371 38.4913 87.4602 42.7064 91.5962 42.2725C95.7321 41.8386 97.2779 37.1069 95.5024 35.6812Z" fill="white"/>
<path d="M110.774 37.3923C111.45 33.8372 109.085 30.4128 105.491 29.7437C101.897 29.0745 98.4356 31.414 97.7591 34.969C97.0826 38.5241 99.4477 41.9486 103.042 42.6178C106.636 43.2869 110.098 40.9474 110.774 37.3923Z" fill="#455A64"/>
<path opacity="0.06" d="M98.7217 39.8302C99.2114 40.5412 99.8378 41.1497 100.565 41.6212C101.293 42.0926 102.107 42.4177 102.961 42.578C103.816 42.7382 104.694 42.7303 105.545 42.5549C106.396 42.3795 107.204 42.0399 107.923 41.5556C108.642 41.0712 109.257 40.4516 109.734 39.732C110.21 39.0125 110.539 38.2071 110.701 37.3619C110.863 36.5168 110.855 35.6483 110.678 34.8061C110.5 33.964 110.157 33.1646 109.667 32.4537C109.3 31.9118 108.849 31.4307 108.331 31.028L108.602 31.3999C109.127 32.1693 109.459 33.0517 109.57 33.9736C109.681 34.8955 109.567 35.8303 109.239 36.7C108.91 37.5697 108.376 38.3492 107.682 38.9736C106.987 39.5979 106.152 40.049 105.245 40.2893C104.339 40.5296 103.387 40.5521 102.47 40.355C101.553 40.1579 100.696 39.7469 99.9723 39.1561C99.2483 38.5654 98.6774 37.8121 98.3073 36.9589C97.9371 36.1057 97.7783 35.1774 97.8443 34.2513C97.5622 35.1873 97.4946 36.1737 97.6463 37.1387C97.7981 38.1038 98.1655 39.0233 98.7217 39.8302Z" fill="black"/>
<path opacity="0.3" d="M101.48 32.9703C101.473 33.4905 101.625 34.0006 101.916 34.434C102.207 34.8673 102.623 35.2036 103.111 35.3989C103.598 35.5942 104.134 35.6393 104.648 35.5283C105.162 35.4173 105.63 35.1555 105.99 34.777C106.351 34.3985 106.588 33.9211 106.67 33.4072C106.752 32.8933 106.675 32.3669 106.45 31.897C106.224 31.4271 105.86 31.0355 105.406 30.7735C104.951 30.5115 104.428 30.3913 103.903 30.4287C103.575 30.4367 103.251 30.509 102.951 30.6414C102.652 30.7737 102.381 30.9635 102.156 31.1998C101.931 31.4362 101.755 31.7143 101.639 32.0181C101.523 32.322 101.469 32.6456 101.48 32.9703Z" fill="white"/>
<path opacity="0.1" d="M108.832 34.9746C107.579 33.9621 105.845 36.6896 103.986 36.6689C102.127 36.6482 100.957 35.5531 99.6622 36.6689C98.3671 37.7847 100.79 41.9998 104.926 41.5659C109.062 41.132 110.608 36.4003 108.832 34.9746Z" fill="white"/>
<path d="M107.695 23.9849C108.371 20.4299 106.006 17.0055 102.412 16.3363C98.8184 15.6672 95.3565 18.0066 94.68 21.5617C94.0035 25.1167 96.3686 28.5412 99.9625 29.2104C103.557 29.8796 107.018 27.54 107.695 23.9849Z" fill="#455A64"/>
<path opacity="0.06" d="M95.6426 26.4229C96.1323 27.1338 96.7587 27.7424 97.4861 28.2138C98.2135 28.6853 99.0277 29.0104 99.8821 29.1706C100.737 29.3308 101.615 29.323 102.466 29.1476C103.317 28.9721 104.125 28.6326 104.844 28.1482C105.563 27.6639 106.178 27.0442 106.655 26.3247C107.131 25.6052 107.46 24.7998 107.622 23.9546C107.784 23.1094 107.776 22.2409 107.599 21.3988C107.421 20.5566 107.078 19.7573 106.588 19.0463C106.221 18.5045 105.77 18.0233 105.251 17.6206L105.523 17.9925C106.048 18.7619 106.38 19.6443 106.491 20.5663C106.602 21.4882 106.488 22.4229 106.16 23.2926C105.831 24.1624 105.297 24.9419 104.603 25.5662C103.908 26.1906 103.073 26.6416 102.166 26.8819C101.259 27.1222 100.308 27.1448 99.3907 26.9477C98.4736 26.7506 97.6173 26.3395 96.8932 25.7488C96.1692 25.1581 95.5983 24.4047 95.2282 23.5516C94.858 22.6984 94.6992 21.7701 94.7652 20.844C94.4831 21.7799 94.4155 22.7663 94.5672 23.7314C94.719 24.6965 95.0864 25.6159 95.6426 26.4229Z" fill="black"/>
<path opacity="0.3" d="M98.4008 19.5629C98.3938 20.0831 98.5458 20.5933 98.8367 21.0266C99.1277 21.46 99.5443 21.7963 100.032 21.9915C100.519 22.1868 101.055 22.2319 101.569 22.1209C102.083 22.01 102.551 21.7481 102.911 21.3696C103.272 20.9912 103.509 20.5137 103.591 19.9998C103.673 19.486 103.596 18.9596 103.37 18.4897C103.145 18.0197 102.781 17.6281 102.327 17.3661C101.872 17.1041 101.349 16.984 100.824 17.0214C100.496 17.0294 100.172 17.1017 99.8724 17.234C99.5725 17.3664 99.3021 17.5562 99.0768 17.7925C98.8515 18.0288 98.6758 18.3069 98.5598 18.6108C98.4438 18.9147 98.3897 19.2383 98.4008 19.5629Z" fill="white"/>
<path opacity="0.1" d="M105.753 21.5672C104.5 20.5548 102.766 23.2822 100.907 23.2615C99.048 23.2409 97.8782 22.1458 96.5831 23.2615C95.288 24.3773 97.7112 28.5925 101.847 28.1586C105.983 27.7247 107.529 22.9929 105.753 21.5672Z" fill="white"/>
<path d="M93.6207 25.6759C94.2972 22.1209 91.9321 18.6965 88.3381 18.0273C84.7441 17.3581 81.2823 19.6976 80.6058 23.2527C79.9293 26.8077 82.2943 30.2322 85.8883 30.9014C89.4823 31.5706 92.9442 29.231 93.6207 25.6759Z" fill="#455A64"/>
<path opacity="0.06" d="M81.5684 28.1139C82.0581 28.8248 82.6844 29.4334 83.4119 29.9048C84.1393 30.3763 84.9534 30.7014 85.8079 30.8616C86.6623 31.0218 87.5403 31.014 88.3917 30.8385C89.2431 30.6631 90.0511 30.3236 90.7698 29.8392C91.4886 29.3548 92.1038 28.7352 92.5804 28.0157C93.057 27.2961 93.3857 26.4908 93.5477 25.6456C93.7097 24.8004 93.7017 23.9319 93.5244 23.0898C93.347 22.2476 93.0038 21.4482 92.5141 20.7373C92.1471 20.1955 91.6959 19.7143 91.1772 19.3116L91.4488 19.6835C91.974 20.4529 92.3059 21.3353 92.4166 22.2572C92.5273 23.1792 92.4138 24.1139 92.0853 24.9836C91.7569 25.8533 91.223 26.6329 90.5284 27.2572C89.8337 27.8815 88.9984 28.3326 88.0918 28.5729C87.1852 28.8132 86.2337 28.8358 85.3165 28.6387C84.3993 28.4415 83.5431 28.0305 82.819 27.4398C82.095 26.849 81.5241 26.0957 81.1539 25.2425C80.7838 24.3894 80.625 23.4611 80.691 22.535C80.4089 23.4709 80.3412 24.4573 80.493 25.4224C80.6448 26.3874 81.0122 27.3069 81.5684 28.1139Z" fill="black"/>
<path opacity="0.3" d="M84.3266 21.2539C84.3196 21.7741 84.4715 22.2842 84.7625 22.7176C85.0535 23.1509 85.4701 23.4873 85.9575 23.6825C86.445 23.8778 86.9807 23.9229 87.4945 23.8119C88.0083 23.701 88.4763 23.4391 88.8371 23.0606C89.198 22.6822 89.4349 22.2047 89.5168 21.6908C89.5987 21.1769 89.5218 20.6506 89.2962 20.1806C89.0707 19.7107 88.7068 19.3191 88.2524 19.0571C87.7981 18.7951 87.2744 18.675 86.7498 18.7124C86.4215 18.7204 86.0981 18.7927 85.7982 18.925C85.4983 19.0574 85.2279 19.2472 85.0026 19.4835C84.7773 19.7198 84.6016 19.9979 84.4856 20.3018C84.3696 20.6056 84.3155 20.9293 84.3266 21.2539Z" fill="white"/>
<path opacity="0.1" d="M91.6791 23.2582C90.4258 22.2457 88.692 24.9732 86.8329 24.9525C84.9738 24.9319 83.804 23.8367 82.5089 24.9525C81.2138 26.0683 83.637 30.2835 87.7729 29.8496C91.9089 29.4156 93.4547 24.6839 91.6791 23.2582Z" fill="white"/>
<path d="M78.1558 19.7715C78.8323 16.2164 76.4672 12.7921 72.8733 12.1229C69.2793 11.4537 65.8174 13.7932 65.1409 17.3482C64.4644 20.9033 66.8295 24.3278 70.4235 24.997C74.0174 25.6661 77.4793 23.3266 78.1558 19.7715Z" fill="#455A64"/>
<path opacity="0.06" d="M66.1036 22.2094C66.5932 22.9204 67.2196 23.5289 67.947 24.0004C68.6744 24.4719 69.4886 24.797 70.343 24.9572C71.1975 25.1174 72.0755 25.1095 72.9268 24.9341C73.7782 24.7587 74.5863 24.4191 75.305 23.9348C76.0237 23.4504 76.6389 22.8308 77.1156 22.1113C77.5922 21.3917 77.9209 20.5863 78.0829 19.7412C78.2448 18.896 78.2369 18.0275 78.0595 17.1853C77.8822 16.3432 77.5389 15.5438 77.0493 14.8329C76.6822 14.291 76.231 13.8099 75.7124 13.4072L75.9839 13.7791C76.5092 14.5485 76.841 15.4309 76.9517 16.3528C77.0625 17.2748 76.9489 18.2095 76.6205 19.0792C76.2921 19.9489 75.7582 20.7284 75.0635 21.3528C74.3689 21.9771 73.5336 22.4282 72.627 22.6685C71.7204 22.9088 70.7688 22.9313 69.8517 22.7342C68.9345 22.5371 68.0782 22.1261 67.3542 21.5354C66.6301 20.9446 66.0592 20.1913 65.6891 19.3381C65.3189 18.485 65.1602 17.5566 65.2262 16.6305C64.944 17.5665 64.8764 18.5529 65.0282 19.518C65.1799 20.483 65.5474 21.4025 66.1036 22.2094Z" fill="black"/>
<path opacity="0.3" d="M68.8618 15.3495C68.8547 15.8697 69.0067 16.3798 69.2977 16.8132C69.5887 17.2465 70.0052 17.5828 70.4927 17.7781C70.9802 17.9734 71.5158 18.0185 72.0296 17.9075C72.5435 17.7965 73.0115 17.5347 73.3723 17.1562C73.7331 16.7777 73.9701 16.3003 74.052 15.7864C74.1339 15.2725 74.057 14.7462 73.8314 14.2762C73.6058 13.8063 73.242 13.4147 72.7876 13.1527C72.3332 12.8907 71.8095 12.7705 71.2849 12.808C70.9567 12.816 70.6332 12.8882 70.3333 13.0206C70.0334 13.1529 69.7631 13.3427 69.5378 13.5791C69.3125 13.8154 69.1368 14.0935 69.0208 14.3973C68.9047 14.7012 68.8506 15.0248 68.8618 15.3495Z" fill="white"/>
<path opacity="0.1" d="M76.2143 17.3538C74.9609 16.3413 73.2272 19.0688 71.3681 19.0481C69.509 19.0274 68.3392 17.9323 67.0441 19.0481C65.749 20.1639 68.1721 24.3791 72.3081 23.9451C76.4441 23.5112 77.9898 18.7795 76.2143 17.3538Z" fill="white"/>
<path d="M64.8736 23.1955C65.5501 19.6404 63.185 16.2161 59.591 15.5469C55.9971 14.8777 52.5352 17.2172 51.8587 20.7722C51.1822 24.3273 53.5473 27.7518 57.1412 28.421C60.7352 29.0901 64.1971 26.7506 64.8736 23.1955Z" fill="#455A64"/>
<path opacity="0.06" d="M52.8213 25.6334C53.311 26.3444 53.9374 26.9529 54.6648 27.4244C55.3922 27.8959 56.2064 28.221 57.0608 28.3812C57.9152 28.5414 58.7932 28.5336 59.6446 28.3581C60.496 28.1827 61.3041 27.8431 62.0228 27.3588C62.7415 26.8744 63.3567 26.2548 63.8333 25.5353C64.3099 24.8157 64.6387 24.0104 64.8006 23.1652C64.9626 22.32 64.9546 21.4515 64.7773 20.6094C64.6 19.7672 64.2567 18.9678 63.767 18.2569C63.4 17.7151 62.9488 17.2339 62.4301 16.8312L62.7017 17.2031C63.227 17.9725 63.5588 18.8549 63.6695 19.7768C63.7802 20.6988 63.6667 21.6335 63.3383 22.5032C63.0098 23.3729 62.476 24.1524 61.7813 24.7768C61.0867 25.4011 60.2513 25.8522 59.3447 26.0925C58.4382 26.3328 57.4866 26.3554 56.5694 26.1582C55.6523 25.9611 54.796 25.5501 54.0719 24.9594C53.3479 24.3686 52.777 23.6153 52.4069 22.7621C52.0367 21.909 51.8779 20.9807 51.9439 20.0545C51.6618 20.9905 51.5942 21.9769 51.7459 22.942C51.8977 23.907 52.2651 24.8265 52.8213 25.6334Z" fill="black"/>
<path opacity="0.3" d="M55.5796 18.7735C55.5725 19.2937 55.7245 19.8038 56.0155 20.2372C56.3064 20.6705 56.723 21.0069 57.2105 21.2021C57.6979 21.3974 58.2336 21.4425 58.7474 21.3315C59.2612 21.2205 59.7292 20.9587 60.0901 20.5802C60.4509 20.2017 60.6878 19.7243 60.7697 19.2104C60.8517 18.6965 60.7748 18.1702 60.5492 17.7002C60.3236 17.2303 59.9597 16.8387 59.5054 16.5767C59.051 16.3147 58.5273 16.1946 58.0027 16.232C57.6744 16.24 57.351 16.3122 57.0511 16.4446C56.7512 16.5769 56.4808 16.7668 56.2555 17.0031C56.0302 17.2394 55.8546 17.5175 55.7385 17.8214C55.6225 18.1252 55.5684 18.4489 55.5796 18.7735Z" fill="white"/>
<path opacity="0.1" d="M62.932 20.7778C61.6787 19.7653 59.9449 22.4928 58.0858 22.4721C56.2267 22.4515 55.057 21.3563 53.7619 22.4721C52.4667 23.5879 54.8899 27.8031 59.0259 27.3691C63.1618 26.9352 64.7076 22.2035 62.932 20.7778Z" fill="white"/>
<path d="M49.8404 24.4555C50.5169 20.9004 48.1518 17.476 44.5578 16.8068C40.9639 16.1377 37.502 18.4771 36.8255 22.0322C36.149 25.5873 38.5141 29.0118 42.108 29.6809C45.702 30.3501 49.1639 28.0105 49.8404 24.4555Z" fill="#455A64"/>
<path opacity="0.06" d="M37.7881 26.8934C38.2778 27.6043 38.9042 28.2129 39.6316 28.6844C40.359 29.1558 41.1732 29.4809 42.0276 29.6411C42.882 29.8013 43.76 29.7935 44.6114 29.6181C45.4628 29.4427 46.2709 29.1031 46.9896 28.6187C47.7083 28.1344 48.3235 27.5148 48.8001 26.7952C49.2767 26.0757 49.6055 25.2703 49.7674 24.4251C49.9294 23.5799 49.9214 22.7115 49.7441 21.8693C49.5668 21.0271 49.2235 20.2278 48.7338 19.5169C48.3668 18.975 47.9156 18.4938 47.3969 18.0911L47.6685 18.463C48.1938 19.2324 48.5256 20.1149 48.6363 21.0368C48.747 21.9587 48.6335 22.8935 48.3051 23.7632C47.9766 24.6329 47.4428 25.4124 46.7481 26.0367C46.0534 26.6611 45.2181 27.1122 44.3115 27.3525C43.405 27.5928 42.4534 27.6153 41.5362 27.4182C40.6191 27.2211 39.7628 26.8101 39.0387 26.2193C38.3147 25.6286 37.7438 24.8752 37.3737 24.0221C37.0035 23.1689 36.8447 22.2406 36.9107 21.3145C36.6286 22.2504 36.561 23.2369 36.7127 24.2019C36.8645 25.167 37.2319 26.0864 37.7881 26.8934Z" fill="black"/>
<path opacity="0.3" d="M40.5463 20.0334C40.5393 20.5536 40.6913 21.0638 40.9823 21.4971C41.2732 21.9305 41.6898 22.2668 42.1773 22.4621C42.6647 22.6573 43.2004 22.7024 43.7142 22.5915C44.228 22.4805 44.696 22.2186 45.0569 21.8402C45.4177 21.4617 45.6546 20.9842 45.7365 20.4704C45.8185 19.9565 45.7416 19.4301 45.516 18.9602C45.2904 18.4902 44.9265 18.0986 44.4722 17.8367C44.0178 17.5747 43.4941 17.4545 42.9695 17.4919C42.6412 17.4999 42.3178 17.5722 42.0179 17.7045C41.718 17.8369 41.4476 18.0267 41.2223 18.263C40.997 18.4993 40.8214 18.7774 40.7053 19.0813C40.5893 19.3852 40.5352 19.7088 40.5463 20.0334Z" fill="white"/>
<path opacity="0.1" d="M47.8988 22.0377C46.6455 21.0253 44.9117 23.7527 43.0526 23.7321C41.1935 23.7114 40.0238 22.6163 38.7286 23.7321C37.4335 24.8478 39.8567 29.063 43.9927 28.6291C48.1286 28.1952 49.6744 23.4635 47.8988 22.0377Z" fill="white"/>
<path d="M56.3912 11.0481C57.0677 7.49304 54.7026 4.06866 51.1086 3.3995C47.5146 2.73033 44.0528 5.06978 43.3763 8.62485C42.6998 12.1799 45.0649 15.6044 48.6588 16.2736C52.2528 16.9427 55.7147 14.6032 56.3912 11.0481Z" fill="#455A64"/>
<path opacity="0.06" d="M44.3389 13.486C44.8286 14.197 45.455 14.8055 46.1824 15.277C46.9098 15.7485 47.7239 16.0736 48.5784 16.2338C49.4328 16.394 50.3108 16.3862 51.1622 16.2107C52.0136 16.0353 52.8217 15.6957 53.5404 15.2114C54.2591 14.727 54.8743 14.1074 55.3509 13.3879C55.8275 12.6683 56.1562 11.863 56.3182 11.0178C56.4802 10.1726 56.4722 9.30412 56.2949 8.46195C56.1175 7.61979 55.7743 6.82043 55.2846 6.1095C54.9176 5.56765 54.4664 5.08649 53.9477 4.68378L54.2193 5.05569C54.7446 5.82508 55.0764 6.70751 55.1871 7.62944C55.2978 8.55137 55.1843 9.48611 54.8558 10.3558C54.5274 11.2255 53.9935 12.005 53.2989 12.6294C52.6042 13.2537 51.7689 13.7048 50.8623 13.9451C49.9557 14.1854 49.0042 14.208 48.087 14.0108C47.1698 13.8137 46.3136 13.4027 45.5895 12.812C44.8655 12.2212 44.2946 11.4679 43.9244 10.6147C43.5543 9.76156 43.3955 8.83326 43.4615 7.90714C43.1794 8.8431 43.1117 9.8295 43.2635 10.7946C43.4153 11.7596 43.7827 12.6791 44.3389 13.486Z" fill="black"/>
<path opacity="0.3" d="M47.0971 6.6261C47.0901 7.14628 47.242 7.65644 47.533 8.08978C47.824 8.52313 48.2406 8.85946 48.728 9.05472C49.2155 9.24998 49.7512 9.29508 50.265 9.18411C50.7788 9.07314 51.2468 8.81129 51.6076 8.43282C51.9685 8.05435 52.2054 7.5769 52.2873 7.06302C52.3692 6.54914 52.2923 6.02277 52.0668 5.55283C51.8412 5.08289 51.4773 4.69129 51.023 4.4293C50.5686 4.16732 50.0449 4.04716 49.5203 4.08457C49.192 4.09257 48.8686 4.16485 48.5687 4.2972C48.2688 4.42955 47.9984 4.61936 47.7731 4.85567C47.5478 5.09198 47.3721 5.37009 47.2561 5.67396C47.1401 5.97784 47.086 6.30146 47.0971 6.6261Z" fill="white"/>
<path opacity="0.1" d="M54.4496 8.63039C53.1963 7.61793 51.4625 10.3454 49.6034 10.3247C47.7443 10.3041 46.5745 9.20893 45.2794 10.3247C43.9843 11.4405 46.4075 15.6557 50.5434 15.2217C54.6794 14.7878 56.2252 10.0561 54.4496 8.63039Z" fill="white"/>
<path d="M71.856 8.57436C72.5325 5.01929 70.1674 1.59491 66.5735 0.925743C62.9795 0.256576 59.5176 2.59603 58.8411 6.15109C58.1646 9.70616 60.5297 13.1307 64.1237 13.7998C67.7176 14.469 71.1795 12.1294 71.856 8.57436Z" fill="#455A64"/>
<path opacity="0.06" d="M59.8038 11.0123C60.2934 11.7232 60.9198 12.3318 61.6472 12.8033C62.3746 13.2747 63.1888 13.5998 64.0432 13.76C64.8977 13.9202 65.7757 13.9124 66.627 13.737C67.4784 13.5615 68.2865 13.222 69.0052 12.7376C69.7239 12.2533 70.3391 11.6337 70.8158 10.9141C71.2924 10.1946 71.6211 9.3892 71.7831 8.54401C71.945 7.69882 71.9371 6.83036 71.7597 5.9882C71.5824 5.14604 71.2391 4.34667 70.7495 3.63575C70.3824 3.0939 69.9312 2.61273 69.4125 2.21002L69.6841 2.58193C70.2094 3.35132 70.5412 4.23375 70.6519 5.15568C70.7626 6.07761 70.6491 7.01235 70.3207 7.88206C69.9923 8.75178 69.4584 9.53129 68.7637 10.1556C68.0691 10.78 67.2338 11.2311 66.3272 11.4714C65.4206 11.7117 64.469 11.7342 63.5519 11.5371C62.6347 11.34 61.7784 10.9289 61.0544 10.3382C60.3303 9.74747 59.7594 8.99415 59.3893 8.14098C59.0191 7.28781 58.8604 6.3595 58.9264 5.43339C58.6442 6.36934 58.5766 7.35575 58.7284 8.32082C58.8801 9.28588 59.2476 10.2053 59.8038 11.0123Z" fill="black"/>
<path opacity="0.3" d="M62.562 4.15234C62.5549 4.67252 62.7069 5.18268 62.9979 5.61603C63.2889 6.04937 63.7054 6.3857 64.1929 6.58096C64.6804 6.77623 65.216 6.82133 65.7298 6.71036C66.2437 6.59939 66.7117 6.33753 67.0725 5.95906C67.4333 5.58059 67.6702 5.10315 67.7522 4.58927C67.8341 4.07538 67.7572 3.54901 67.5316 3.07907C67.306 2.60913 66.9422 2.21753 66.4878 1.95555C66.0334 1.69357 65.5097 1.5734 64.9851 1.61081C64.6569 1.61882 64.3334 1.69109 64.0335 1.82344C63.7336 1.95579 63.4633 2.1456 63.238 2.38191C63.0127 2.61822 62.837 2.89633 62.721 3.20021C62.6049 3.50408 62.5508 3.82771 62.562 4.15234Z" fill="white"/>
<path opacity="0.1" d="M69.9145 6.15664C68.6611 5.14417 66.9274 7.87162 65.0683 7.85096C63.2092 7.8303 62.0394 6.73518 60.7443 7.85096C59.4492 8.96674 61.8723 13.1819 66.0083 12.748C70.1443 12.3141 71.69 7.58236 69.9145 6.15664Z" fill="white"/>
<path d="M89.273 11.7502C89.9495 8.19513 87.5844 4.77075 83.9905 4.10158C80.3965 3.43242 76.9346 5.77187 76.2581 9.32693C75.5816 12.882 77.9467 16.3065 81.5407 16.9757C85.1346 17.6448 88.5965 15.3053 89.273 11.7502Z" fill="#455A64"/>
<path opacity="0.06" d="M77.2208 14.1881C77.7104 14.8991 78.3368 15.5076 79.0642 15.9791C79.7916 16.4505 80.6058 16.7757 81.4602 16.9359C82.3147 17.0961 83.1927 17.0882 84.044 16.9128C84.8954 16.7374 85.7035 16.3978 86.4222 15.9135C87.1409 15.4291 87.7561 14.8095 88.2327 14.09C88.7094 13.3704 89.0381 12.565 89.2001 11.7199C89.362 10.8747 89.3541 10.0062 89.1767 9.16404C88.9994 8.32188 88.6561 7.52252 88.1665 6.81159C87.7994 6.26974 87.3482 5.78857 86.8295 5.38586L87.1011 5.75778C87.6264 6.52717 87.9582 7.4096 88.0689 8.33153C88.1796 9.25346 88.0661 10.1882 87.7377 11.0579C87.4092 11.9276 86.8754 12.7071 86.1807 13.3315C85.4861 13.9558 84.6508 14.4069 83.7442 14.6472C82.8376 14.8875 81.886 14.91 80.9689 14.7129C80.0517 14.5158 79.1954 14.1048 78.4714 13.5141C77.7473 12.9233 77.1764 12.17 76.8063 11.3168C76.4361 10.4637 76.2774 9.53535 76.3433 8.60923C76.0612 9.54519 75.9936 10.5316 76.1453 11.4967C76.2971 12.4617 76.6646 13.3812 77.2208 14.1881Z" fill="black"/>
<path opacity="0.3" d="M79.979 7.32818C79.9719 7.84837 80.1239 8.35853 80.4149 8.79187C80.7059 9.22522 81.1224 9.56154 81.6099 9.75681C82.0974 9.95207 82.633 9.99717 83.1468 9.8862C83.6607 9.77523 84.1286 9.51337 84.4895 9.1349C84.8503 8.75643 85.0872 8.27899 85.1692 7.76511C85.2511 7.25123 85.1742 6.72486 84.9486 6.25492C84.723 5.78498 84.3592 5.39337 83.9048 5.13139C83.4504 4.86941 82.9267 4.74925 82.4021 4.78666C82.0739 4.79466 81.7504 4.86694 81.4505 4.99929C81.1506 5.13163 80.8802 5.32144 80.6549 5.55775C80.4296 5.79406 80.254 6.07217 80.138 6.37605C80.0219 6.67992 79.9678 7.00355 79.979 7.32818Z" fill="white"/>
<path opacity="0.1" d="M87.3315 9.33248C86.0781 8.32001 84.3444 11.0475 82.4853 11.0268C80.6262 11.0061 79.4564 9.91102 78.1613 11.0268C76.8662 12.1426 79.2893 16.3578 83.4253 15.9238C87.5612 15.4899 89.107 10.7582 87.3315 9.33248Z" fill="white"/>
<path d="M102.398 12.887C103.075 9.33197 100.709 5.90759 97.1155 5.23843C93.5215 4.56926 90.0596 6.90871 89.3831 10.4638C88.7066 14.0188 91.0717 17.4433 94.6657 18.1125C98.2596 18.7817 101.722 16.4421 102.398 12.887Z" fill="#455A64"/>
<path opacity="0.06" d="M90.3458 15.325C90.8354 16.0359 91.4618 16.6445 92.1892 17.1159C92.9166 17.5874 93.7308 17.9125 94.5852 18.0727C95.4397 18.2329 96.3177 18.2251 97.169 18.0497C98.0204 17.8742 98.8285 17.5347 99.5472 17.0503C100.266 16.566 100.881 15.9463 101.358 15.2268C101.834 14.5073 102.163 13.7019 102.325 12.8567C102.487 12.0115 102.479 11.143 102.302 10.3009C102.124 9.45872 101.781 8.65936 101.291 7.94843C100.924 7.40658 100.473 6.92541 99.9545 6.52271L100.226 6.89462C100.751 7.66401 101.083 8.54644 101.194 9.46837C101.305 10.3903 101.191 11.325 100.863 12.1947C100.534 13.0645 100 13.844 99.3057 14.4683C98.6111 15.0927 97.7758 15.5437 96.8692 15.784C95.9626 16.0243 95.011 16.0469 94.0939 15.8498C93.1767 15.6527 92.3204 15.2416 91.5964 14.6509C90.8723 14.0602 90.3014 13.3068 89.9313 12.4537C89.5611 11.6005 89.4024 10.6722 89.4683 9.74607C89.1862 10.682 89.1186 11.6684 89.2703 12.6335C89.4221 13.5986 89.7896 14.518 90.3458 15.325Z" fill="black"/>
<path opacity="0.3" d="M93.104 8.46502C93.0969 8.98521 93.2489 9.49537 93.5399 9.92871C93.8309 10.3621 94.2474 10.6984 94.7349 10.8936C95.2224 11.0889 95.758 11.134 96.2718 11.023C96.7857 10.9121 97.2536 10.6502 97.6145 10.2717C97.9753 9.89327 98.2122 9.41583 98.2942 8.90195C98.3761 8.38807 98.2992 7.8617 98.0736 7.39176C97.848 6.92182 97.4842 6.53021 97.0298 6.26823C96.5754 6.00625 96.0517 5.88609 95.5271 5.9235C95.1989 5.9315 94.8754 6.00378 94.5755 6.13613C94.2756 6.26847 94.0052 6.45828 93.7799 6.69459C93.5546 6.9309 93.379 7.20901 93.263 7.51289C93.1469 7.81676 93.0928 8.14039 93.104 8.46502Z" fill="white"/>
<path opacity="0.1" d="M100.456 10.4693C99.2031 9.45685 97.4694 12.1843 95.6103 12.1636C93.7512 12.143 92.5814 11.0479 91.2863 12.1636C89.9912 13.2794 92.4143 17.4946 96.5503 17.0607C100.686 16.6268 102.232 11.895 100.456 10.4693Z" fill="white"/>
<path d="M110.592 8.12837C111.269 4.57331 108.904 1.14893 105.31 0.479759C101.716 -0.189408 98.2539 2.15004 97.5774 5.70511C96.901 9.26017 99.266 12.6847 102.86 13.3538C106.454 14.023 109.916 11.6834 110.592 8.12837Z" fill="#455A64"/>
<path opacity="0.06" d="M98.5401 10.5663C99.0298 11.2772 99.6561 11.8858 100.384 12.3573C101.111 12.8287 101.925 13.1538 102.78 13.314C103.634 13.4742 104.512 13.4664 105.363 13.291C106.215 13.1156 107.023 12.776 107.742 12.2917C108.46 11.8073 109.075 11.1877 109.552 10.4681C110.029 9.74859 110.357 8.94321 110.519 8.09803C110.681 7.25284 110.673 6.38438 110.496 5.54222C110.319 4.70005 109.975 3.90069 109.486 3.18977C109.119 2.64791 108.668 2.16675 108.149 1.76404L108.42 2.13595C108.946 2.90534 109.278 3.78777 109.388 4.7097C109.499 5.63163 109.385 6.56637 109.057 7.43608C108.729 8.30579 108.195 9.08531 107.5 9.70965C106.805 10.334 105.97 10.7851 105.063 11.0254C104.157 11.2657 103.205 11.2882 102.288 11.0911C101.371 10.894 100.515 10.483 99.7907 9.89223C99.0666 9.30149 98.4958 8.54816 98.1256 7.69499C97.7555 6.84183 97.5967 5.91352 97.6627 4.9874C97.3806 5.92336 97.3129 6.90977 97.4647 7.87483C97.6164 8.8399 97.9839 9.75935 98.5401 10.5663Z" fill="black"/>
<path opacity="0.3" d="M101.298 3.70636C101.291 4.22654 101.443 4.7367 101.734 5.17004C102.025 5.60339 102.442 5.93972 102.929 6.13498C103.417 6.33024 103.952 6.37534 104.466 6.26437C104.98 6.15341 105.448 5.89155 105.809 5.51308C106.17 5.13461 106.407 4.65716 106.488 4.14328C106.57 3.6294 106.494 3.10303 106.268 2.63309C106.042 2.16315 105.678 1.77155 105.224 1.50956C104.77 1.24758 104.246 1.12742 103.721 1.16483C103.393 1.17283 103.07 1.24511 102.77 1.37746C102.47 1.50981 102.2 1.69962 101.974 1.93593C101.749 2.17224 101.573 2.45035 101.457 2.75422C101.341 3.0581 101.287 3.38172 101.298 3.70636Z" fill="white"/>
<path opacity="0.1" d="M108.651 5.71066C107.397 4.69819 105.664 7.42564 103.805 7.40498C101.945 7.38431 100.776 6.28919 99.4806 7.40498C98.1855 8.52076 100.609 12.7359 104.745 12.302C108.881 11.8681 110.426 7.13638 108.651 5.71066Z" fill="white"/>
<path d="M40.2496 9.7112C40.9261 6.15613 38.561 2.73175 34.967 2.06258C31.373 1.39342 27.9112 3.73287 27.2347 7.28793C26.5582 10.843 28.9233 14.2675 32.5172 14.9367C36.1112 15.6058 39.5731 13.2663 40.2496 9.7112Z" fill="#455A64"/>
<path opacity="0.06" d="M28.1973 12.1491C28.687 12.8601 29.3134 13.4686 30.0408 13.9401C30.7682 14.4115 31.5823 14.7366 32.4368 14.8969C33.2912 15.0571 34.1692 15.0492 35.0206 14.8738C35.872 14.6984 36.68 14.3588 37.3988 13.8745C38.1175 13.3901 38.7327 12.7705 39.2093 12.051C39.6859 11.3314 40.0146 10.526 40.1766 9.68085C40.3386 8.83566 40.3306 7.9672 40.1533 7.12504C39.9759 6.28288 39.6327 5.48352 39.143 4.77259C38.776 4.23074 38.3248 3.74957 37.8061 3.34686L38.0777 3.71878C38.603 4.48817 38.9348 5.3706 39.0455 6.29252C39.1562 7.21445 39.0427 8.14919 38.7142 9.0189C38.3858 9.88862 37.8519 10.6681 37.1573 11.2925C36.4626 11.9168 35.6273 12.3679 34.7207 12.6082C33.8141 12.8485 32.8626 12.871 31.9454 12.6739C31.0282 12.4768 30.172 12.0658 29.4479 11.4751C28.7239 10.8843 28.153 10.131 27.7828 9.27782C27.4127 8.42465 27.2539 7.49634 27.3199 6.57023C27.0378 7.50619 26.9701 8.49259 27.1219 9.45766C27.2737 10.4227 27.6411 11.3422 28.1973 12.1491Z" fill="black"/>
<path opacity="0.3" d="M30.9555 5.28918C30.9485 5.80937 31.1004 6.31952 31.3914 6.75287C31.6824 7.18621 32.099 7.52254 32.5864 7.7178C33.0739 7.91307 33.6096 7.95817 34.1234 7.8472C34.6372 7.73623 35.1052 7.47437 35.466 7.0959C35.8269 6.71743 36.0638 6.23999 36.1457 5.72611C36.2276 5.21223 36.1507 4.68585 35.9252 4.21591C35.6996 3.74597 35.3357 3.35437 34.8814 3.09239C34.427 2.83041 33.9033 2.71024 33.3787 2.74765C33.0504 2.75566 32.727 2.82794 32.4271 2.96028C32.1272 3.09263 31.8568 3.28244 31.6315 3.51875C31.4062 3.75506 31.2305 4.03317 31.1145 4.33705C30.9985 4.64092 30.9444 4.96455 30.9555 5.28918Z" fill="white"/>
<path opacity="0.1" d="M38.308 7.29348C37.0547 6.28101 35.3209 9.00846 33.4618 8.9878C31.6027 8.96714 30.4329 7.87202 29.1378 8.9878C27.8427 10.1036 30.2659 14.3188 34.4018 13.8848C38.5378 13.4509 40.0836 8.7192 38.308 7.29348Z" fill="white"/>
<path d="M13.5162 8.86024C14.1927 5.30518 11.8276 1.8808 8.23362 1.21163C4.63965 0.542465 1.17777 2.88191 0.501277 6.43698C-0.175213 9.99205 2.18985 13.4166 5.78382 14.0857C9.37779 14.7549 12.8397 12.4153 13.5162 8.86024Z" fill="#455A64"/>
<path opacity="0.06" d="M1.46393 11.2982C1.95358 12.0091 2.57996 12.6177 3.30737 13.0891C4.03479 13.5606 4.84895 13.8857 5.70338 14.0459C6.55782 14.2061 7.43582 14.1983 8.2872 14.0229C9.13857 13.8474 9.94665 13.5079 10.6654 13.0235C11.3841 12.5392 11.9993 11.9195 12.4759 11.2C12.9525 10.4805 13.2812 9.67509 13.4432 8.8299C13.6052 7.98471 13.5972 7.11625 13.4199 6.27409C13.2425 5.43192 12.8993 4.63256 12.4096 3.92164C12.0426 3.37979 11.5914 2.89862 11.0727 2.49591L11.3443 2.86782C11.8696 3.63721 12.2014 4.51964 12.3121 5.44157C12.4228 6.3635 12.3093 7.29824 11.9808 8.16795C11.6524 9.03767 11.1185 9.81718 10.4239 10.4415C9.72923 11.0659 8.89392 11.5169 7.98733 11.7572C7.08074 11.9975 6.1292 12.0201 5.21202 11.823C4.29484 11.6259 3.43859 11.2148 2.71452 10.6241C1.99046 10.0334 1.41958 9.28003 1.04944 8.42687C0.6793 7.5737 0.520517 6.64539 0.586506 5.71928C0.304387 6.65523 0.236742 7.64164 0.388507 8.60671C0.540271 9.57177 0.907719 10.4912 1.46393 11.2982Z" fill="black"/>
<path opacity="0.3" d="M4.22213 4.43823C4.21508 4.95841 4.36705 5.46857 4.65804 5.90192C4.94902 6.33526 5.36557 6.67159 5.85305 6.86685C6.34052 7.06212 6.87618 7.10721 7.39 6.99625C7.90382 6.88528 8.37181 6.62342 8.73264 6.24495C9.09348 5.86648 9.3304 5.38903 9.41232 4.87515C9.49424 4.36127 9.41735 3.8349 9.19175 3.36496C8.96616 2.89502 8.60232 2.50342 8.14795 2.24144C7.69359 1.97945 7.16986 1.85929 6.6453 1.8967C6.31702 1.9047 5.99356 1.97698 5.69368 2.10933C5.39379 2.24168 5.12341 2.43149 4.89811 2.6678C4.67281 2.90411 4.49713 3.18222 4.38112 3.48609C4.2651 3.78997 4.21099 4.11359 4.22213 4.43823Z" fill="white"/>
<path opacity="0.1" d="M11.5746 6.44253C10.3213 5.43006 8.58752 8.15751 6.72842 8.13685C4.86932 8.11619 3.69953 7.02107 2.40443 8.13685C1.10933 9.25263 3.53246 13.4678 7.66844 13.0339C11.8044 12.6 13.3502 7.86825 11.5746 6.44253Z" fill="white"/>
</g>
<defs>
<clipPath id="clip0_2156_4913">
<rect width="111" height="43" fill="white"/>
</clipPath>
</defs>
</svg>
