<svg width="39" height="39" viewBox="0 0 39 39" fill="none" xmlns="http://www.w3.org/2000/svg">
<path fill-rule="evenodd" clip-rule="evenodd" d="M7.94385 0.179932C4.07785 0.179932 0.943848 3.31394 0.943848 7.17993V31.1799C0.943848 35.0459 4.07786 38.1799 7.94385 38.1799H31.9438C35.8098 38.1799 38.9438 35.0459 38.9438 31.1799V7.17993C38.9438 3.31394 35.8098 0.179932 31.9438 0.179932H7.94385ZM20.4073 22.4238C22.4547 22.4238 24.1146 20.764 24.1146 18.7165C24.1146 16.669 22.4547 15.0092 20.4073 15.0092C18.3598 15.0092 16.6999 16.669 16.6999 18.7165C16.6999 20.764 18.3598 22.4238 20.4073 22.4238ZM32.456 10.3751C32.456 12.4226 30.7962 14.0824 28.7487 14.0824C26.7012 14.0824 25.0414 12.4226 25.0414 10.3751C25.0414 8.32758 26.7012 6.66775 28.7487 6.66775C30.7962 6.66775 32.456 8.32758 32.456 10.3751ZM12.0658 14.0824C14.1133 14.0824 15.7731 12.4226 15.7731 10.3751C15.7731 8.32756 14.1133 6.66774 12.0658 6.66774C10.0183 6.66774 8.35847 8.32756 8.35847 10.3751C8.35847 12.4226 10.0183 14.0824 12.0658 14.0824ZM32.456 27.058C32.456 29.1055 30.7962 30.7653 28.7487 30.7653C26.7012 30.7653 25.0414 29.1055 25.0414 27.058C25.0414 25.0105 26.7012 23.3507 28.7487 23.3507C30.7962 23.3507 32.456 25.0105 32.456 27.058ZM12.0658 30.7653C14.1133 30.7653 15.7731 29.1055 15.7731 27.058C15.7731 25.0105 14.1133 23.3507 12.0658 23.3507C10.0183 23.3507 8.35847 25.0105 8.35847 27.058C8.35847 29.1055 10.0183 30.7653 12.0658 30.7653Z" fill="#5082FF"/>
</svg>
