<svg width="46" height="46" viewBox="0 0 46 46" fill="none" xmlns="http://www.w3.org/2000/svg">
<path d="M34.3147 14.5625H29.8938C28.3381 14.5625 27.0813 15.8193 27.0813 17.375C27.0813 18.9307 28.3381 20.1875 29.8938 20.1875H41.1438C42.6995 20.1875 43.9563 18.9307 43.9563 17.375V6.125C43.9563 4.56934 42.6995 3.3125 41.1438 3.3125C39.5881 3.3125 38.3313 4.56934 38.3313 6.125V10.625L36.7844 9.07812C29.094 1.3877 16.6311 1.3877 8.94067 9.07812C1.25024 16.7686 1.25024 29.2314 8.94067 36.9219C16.6311 44.6123 29.094 44.6123 36.7844 36.9219C37.8831 35.8232 37.8831 34.0391 36.7844 32.9404C35.6858 31.8418 33.9016 31.8418 32.803 32.9404C27.3098 38.4336 18.4065 38.4336 12.9133 32.9404C7.42017 27.4473 7.42017 18.5439 12.9133 13.0508C18.4065 7.55762 27.3098 7.55762 32.803 13.0508L34.3147 14.5625Z" fill="#5082FF"/>
</svg>
