<svg width="241" height="67" viewBox="0 0 241 67" fill="none" xmlns="http://www.w3.org/2000/svg">
<path d="M220.34 13.1597C217.43 5.6697 209.9 0.689697 201.48 0.689697H122.08H119.96H40.44C32.02 0.689697 24.49 5.6697 21.58 13.1597L0.959961 66.1997H119.97H122.09H240.96L220.34 13.1597Z" fill="white"/>
<mask id="path-2-outside-1_2404_5796" maskUnits="userSpaceOnUse" x="83.96" y="9.0332" width="75" height="33" fill="black">
<rect fill="white" x="83.96" y="9.0332" width="75" height="33"/>
<path d="M96.192 37.0332V19.2412H89.344V14.4732H108.96V19.2412H102.112V37.0332H96.192ZM111.446 37.0332V14.4732H127.638V18.9852H117.11V23.3052H126.87V27.8492H117.11V32.4892H127.638V37.0332H111.446ZM127.6 37.0332L138.16 14.4732H142.96L153.584 37.0332H147.664L144.944 30.8252L147.216 32.4572H133.968L136.208 30.8252L133.52 37.0332H127.6ZM140.528 20.5532L136.784 29.4812L135.888 27.9772H145.264L144.464 29.4812L140.688 20.5532H140.528Z"/>
</mask>
<path d="M96.192 37.0332V19.2412H89.344V14.4732H108.96V19.2412H102.112V37.0332H96.192ZM111.446 37.0332V14.4732H127.638V18.9852H117.11V23.3052H126.87V27.8492H117.11V32.4892H127.638V37.0332H111.446ZM127.6 37.0332L138.16 14.4732H142.96L153.584 37.0332H147.664L144.944 30.8252L147.216 32.4572H133.968L136.208 30.8252L133.52 37.0332H127.6ZM140.528 20.5532L136.784 29.4812L135.888 27.9772H145.264L144.464 29.4812L140.688 20.5532H140.528Z" fill="#7AA2FC"/>
<path d="M96.192 37.0332H91.192C91.192 39.7946 93.4305 42.0332 96.192 42.0332V37.0332ZM96.192 19.2412H101.192C101.192 16.4798 98.9534 14.2412 96.192 14.2412V19.2412ZM89.344 19.2412H84.344C84.344 22.0026 86.5825 24.2412 89.344 24.2412V19.2412ZM89.344 14.4732V9.4732C86.5825 9.4732 84.344 11.7118 84.344 14.4732H89.344ZM108.96 14.4732H113.96C113.96 11.7118 111.721 9.4732 108.96 9.4732V14.4732ZM108.96 19.2412V24.2412C111.721 24.2412 113.96 22.0026 113.96 19.2412H108.96ZM102.112 19.2412V14.2412C99.3505 14.2412 97.112 16.4798 97.112 19.2412H102.112ZM102.112 37.0332V42.0332C104.873 42.0332 107.112 39.7946 107.112 37.0332H102.112ZM101.192 37.0332V19.2412H91.192V37.0332H101.192ZM96.192 14.2412H89.344V24.2412H96.192V14.2412ZM94.344 19.2412V14.4732H84.344V19.2412H94.344ZM89.344 19.4732H108.96V9.4732H89.344V19.4732ZM103.96 14.4732V19.2412H113.96V14.4732H103.96ZM108.96 14.2412H102.112V24.2412H108.96V14.2412ZM97.112 19.2412V37.0332H107.112V19.2412H97.112ZM102.112 32.0332H96.192V42.0332H102.112V32.0332ZM111.446 37.0332H106.446C106.446 39.7946 108.685 42.0332 111.446 42.0332V37.0332ZM111.446 14.4732V9.4732C108.685 9.4732 106.446 11.7118 106.446 14.4732H111.446ZM127.638 14.4732H132.638C132.638 11.7118 130.4 9.4732 127.638 9.4732V14.4732ZM127.638 18.9852V23.9852C130.4 23.9852 132.638 21.7466 132.638 18.9852H127.638ZM117.11 18.9852V13.9852C114.349 13.9852 112.11 16.2238 112.11 18.9852H117.11ZM117.11 23.3052H112.11C112.11 26.0666 114.349 28.3052 117.11 28.3052V23.3052ZM126.87 23.3052H131.87C131.87 20.5438 129.632 18.3052 126.87 18.3052V23.3052ZM126.87 27.8492V32.8492C129.632 32.8492 131.87 30.6106 131.87 27.8492H126.87ZM117.11 27.8492V22.8492C114.349 22.8492 112.11 25.0878 112.11 27.8492H117.11ZM117.11 32.4892H112.11C112.11 35.2506 114.349 37.4892 117.11 37.4892V32.4892ZM127.638 32.4892H132.638C132.638 29.7278 130.4 27.4892 127.638 27.4892V32.4892ZM127.638 37.0332V42.0332C130.4 42.0332 132.638 39.7946 132.638 37.0332H127.638ZM116.446 37.0332V14.4732H106.446V37.0332H116.446ZM111.446 19.4732H127.638V9.4732H111.446V19.4732ZM122.638 14.4732V18.9852H132.638V14.4732H122.638ZM127.638 13.9852H117.11V23.9852H127.638V13.9852ZM112.11 18.9852V23.3052H122.11V18.9852H112.11ZM117.11 28.3052H126.87V18.3052H117.11V28.3052ZM121.87 23.3052V27.8492H131.87V23.3052H121.87ZM126.87 22.8492H117.11V32.8492H126.87V22.8492ZM112.11 27.8492V32.4892H122.11V27.8492H112.11ZM117.11 37.4892H127.638V27.4892H117.11V37.4892ZM122.638 32.4892V37.0332H132.638V32.4892H122.638ZM127.638 32.0332H111.446V42.0332H127.638V32.0332ZM127.6 37.0332L123.071 34.9135C122.346 36.4621 122.463 38.2738 123.381 39.7166C124.298 41.1594 125.89 42.0332 127.6 42.0332V37.0332ZM138.16 14.4732V9.4732C136.219 9.4732 134.454 10.596 133.631 12.3535L138.16 14.4732ZM142.96 14.4732L147.483 12.343C146.658 10.5912 144.896 9.4732 142.96 9.4732V14.4732ZM153.584 37.0332V42.0332C155.296 42.0332 156.889 41.1573 157.806 39.7117C158.723 38.2661 158.837 36.4518 158.107 34.903L153.584 37.0332ZM147.664 37.0332L143.084 39.0398C143.881 40.8584 145.678 42.0332 147.664 42.0332V37.0332ZM144.944 30.8252L147.861 26.7643C146.031 25.4502 143.549 25.5216 141.798 26.9387C140.047 28.3557 139.46 30.7686 140.364 32.8318L144.944 30.8252ZM147.216 32.4572V37.4572C149.387 37.4572 151.31 36.0561 151.975 33.9894C152.64 31.9228 151.896 29.6629 150.133 28.3963L147.216 32.4572ZM133.968 32.4572L131.023 28.416C129.274 29.6908 128.543 31.9469 129.213 34.0054C129.884 36.0639 131.803 37.4572 133.968 37.4572V32.4572ZM136.208 30.8252L140.796 32.8119C141.692 30.7428 141.092 28.3301 139.332 26.9213C137.571 25.5125 135.086 25.4563 133.263 26.784L136.208 30.8252ZM133.52 37.0332V42.0332C135.513 42.0332 137.316 40.8492 138.108 39.0199L133.52 37.0332ZM140.528 20.5532V15.5532C138.513 15.5532 136.696 16.762 135.917 18.6196L140.528 20.5532ZM136.784 29.4812L132.488 32.0402C133.454 33.6618 135.251 34.6011 137.134 34.4689C139.017 34.3367 140.665 33.1555 141.395 31.4148L136.784 29.4812ZM135.888 27.9772V22.9772C134.089 22.9772 132.429 23.9432 131.541 25.5069C130.652 27.0706 130.672 28.9911 131.592 30.5362L135.888 27.9772ZM145.264 27.9772L149.678 30.3253C150.502 28.7755 150.454 26.907 149.55 25.4024C148.646 23.8977 147.019 22.9772 145.264 22.9772V27.9772ZM144.464 29.4812L139.859 31.4289C140.61 33.205 142.315 34.3908 144.242 34.4763C146.168 34.5618 147.972 33.5318 148.878 31.8293L144.464 29.4812ZM140.688 20.5532L145.293 18.6055C144.51 16.7554 142.697 15.5532 140.688 15.5532V20.5532ZM132.128 39.1529L142.688 16.5929L133.631 12.3535L123.071 34.9135L132.128 39.1529ZM138.16 19.4732H142.96V9.4732H138.16V19.4732ZM138.436 16.6034L149.06 39.1634L158.107 34.903L147.483 12.343L138.436 16.6034ZM153.584 32.0332H147.664V42.0332H153.584V32.0332ZM152.243 35.0266L149.523 28.8186L140.364 32.8318L143.084 39.0398L152.243 35.0266ZM142.027 34.8861L144.299 36.5181L150.133 28.3963L147.861 26.7643L142.027 34.8861ZM147.216 27.4572H133.968V37.4572H147.216V27.4572ZM136.912 36.4984L139.152 34.8664L133.263 26.784L131.023 28.416L136.912 36.4984ZM131.619 28.8385L128.931 35.0465L138.108 39.0199L140.796 32.8119L131.619 28.8385ZM133.52 32.0332H127.6V42.0332H133.52V32.0332ZM135.917 18.6196L132.173 27.5476L141.395 31.4148L145.139 22.4868L135.917 18.6196ZM141.079 26.9222L140.183 25.4182L131.592 30.5362L132.488 32.0402L141.079 26.9222ZM135.888 32.9772H145.264V22.9772H135.888V32.9772ZM140.849 25.6291L140.049 27.1331L148.878 31.8293L149.678 30.3253L140.849 25.6291ZM149.069 27.5335L145.293 18.6055L136.083 22.5009L139.859 31.4289L149.069 27.5335ZM140.688 15.5532H140.528V25.5532H140.688V15.5532Z" fill="white" mask="url(#path-2-outside-1_2404_5796)"/>
</svg>
