<svg width="85" height="96" viewBox="0 0 85 96" fill="none" xmlns="http://www.w3.org/2000/svg">
<path d="M71.9359 1.03082H72.0855L72.2237 1.08825L82.2878 5.27073L83.1096 5.61225L82.6338 6.3643L72.6859 22.0876V81.6656C72.6859 89.0015 66.838 94.9691 59.5957 94.9691H14.3402C7.09788 94.9691 1.25005 89.0015 1.25005 81.6656V2.9451C1.24211 1.8991 2.08334 1.03082 3.13506 1.03082H71.9359Z" fill="#FFFEFF" stroke="#5181FF" stroke-width="1.5"/>
<path d="M59.5957 90.5402C64.4014 90.5402 68.3135 86.5604 68.3135 81.6717V20.7893L76.5967 7.70139L71.2235 5.46582H5.61642V81.6655C5.61642 86.5543 9.52857 90.5341 14.3342 90.5341H59.5957V90.5402Z" fill="white"/>
<path d="M68.3135 25.893C68.1746 37.8386 68.3135 81.6655 68.3135 81.6655C68.3135 86.5543 64.4013 90.5341 59.5956 90.5341H14.3402C9.53455 90.5341 5.62239 86.5543 5.62239 81.6655V25.893C5.62239 25.893 18.361 31.7092 29.2281 26.5317C40.2462 21.2745 60.8756 20.7033 68.3135 25.893Z" fill="#B12723"/>
<path opacity="0.46" d="M27.2178 90.5402H14.3403C9.53459 90.5402 5.62243 86.5604 5.62243 81.6717V5.46582H27.2178V90.5402Z" fill="#FFFEFF"/>
<path d="M50.8718 25.893H68.3135V27.1643H50.8718V25.893Z" fill="#FFFEFF"/>
<path d="M50.8718 35.4494H68.3135V36.7208H50.8718V35.4494Z" fill="#FFFEFF"/>
<path d="M50.8718 44.9998H68.3135V46.2711H50.8718V44.9998Z" fill="#FFFEFF"/>
<path d="M50.8718 54.5562H68.3135V55.8275H50.8718V54.5562Z" fill="#FFFEFF"/>
<path d="M50.8718 64.1065H68.3135V65.3778H50.8718V64.1065Z" fill="#FFFEFF"/>
<path d="M50.8718 73.6629H68.3135V74.9343H50.8718V73.6629Z" fill="#FFFEFF"/>
<path d="M67.8548 84.4907H50.872V83.2194H68.1748C68.0963 83.6493 67.9937 84.0793 67.8548 84.4907Z" fill="#FFFEFF"/>
</svg>
