<svg width="49" height="296" viewBox="0 0 49 296" fill="none" xmlns="http://www.w3.org/2000/svg">
<rect x="11.7857" y="2.23008" width="25.2111" height="291.7" rx="12.6056" fill="white" stroke="#5082FF" stroke-width="3.7"/>
<rect x="13.6357" y="208.458" width="21.5111" height="83.6216" rx="10.7556" fill="#FAB4F0"/>
<path fill-rule="evenodd" clip-rule="evenodd" d="M24.3916 292.069C24.5537 292.076 24.7166 292.08 24.8805 292.08C30.8206 292.08 35.636 287.265 35.636 281.325V14.8356C35.636 8.8955 30.8206 4.08008 24.8805 4.08008C24.7166 4.08008 24.5537 4.08374 24.3916 4.09099V292.069Z" fill="black" fill-opacity="0.05"/>
<circle cx="24.6357" cy="212.24" r="21.5" fill="white" stroke="#5082FF" stroke-width="5"/>
<g clip-path="url(#clip0_892_2968)">
<path d="M42.7502 208.733L42.4563 208.919C39.2142 210.968 34.913 209.998 32.864 206.756C30.815 203.513 31.785 199.212 35.0272 197.163L35.3211 196.977L35.5068 197.271C35.9109 197.911 35.5501 198.563 35.2594 199.092C34.9769 199.603 34.8199 199.933 34.9923 200.206C35.1646 200.478 35.5305 200.474 36.1123 200.442C36.7112 200.406 37.4592 200.361 37.8633 201C38.2675 201.64 37.9066 202.292 37.6144 202.819C37.3319 203.33 37.175 203.659 37.3458 203.93C37.5167 204.2 37.884 204.198 38.4643 204.164C39.0632 204.127 39.8098 204.08 40.2139 204.72C40.6181 205.359 40.2572 206.012 39.965 206.538C39.6825 207.049 39.5255 207.379 39.6964 207.649C39.8673 207.92 40.2346 207.918 40.8149 207.883C41.4138 207.847 42.1604 207.8 42.5645 208.439L42.7502 208.733Z" fill="#F7C6F2"/>
<path d="M13.7639 226.641C13.3598 226.001 13.7206 225.349 14.0128 224.822C14.2954 224.311 14.4523 223.981 14.2814 223.711C14.1091 223.438 13.7432 223.442 13.1629 223.477C12.5602 223.512 11.816 223.558 11.4119 222.919C11.0077 222.279 11.3709 221.625 11.6607 221.1C11.9433 220.589 12.1002 220.26 11.9294 219.989C11.757 219.716 11.3912 219.721 10.8108 219.755C10.2096 219.793 9.46394 219.836 9.0598 219.197C8.65565 218.557 9.01649 217.905 9.30718 217.376C9.58972 216.865 9.74668 216.535 9.57433 216.263C9.40197 215.99 9.03464 215.992 8.45432 216.026C7.85457 216.066 7.11038 216.112 6.70624 215.473L6.52051 215.179L6.8144 214.993C10.0566 212.944 14.3578 213.914 16.4067 217.156C18.4557 220.399 17.4857 224.7 14.2436 226.749L13.9497 226.934L13.7639 226.641Z" fill="#F7C6F2"/>
<path d="M19.0637 203.139C14.1946 206.216 12.7418 212.659 15.8189 217.528C18.8961 222.397 25.3383 223.85 30.2075 220.773C35.0766 217.695 36.5294 211.253 33.4522 206.384C30.3751 201.515 23.9328 200.062 19.0637 203.139Z" fill="#F7C6F2"/>
</g>
<defs>
<clipPath id="clip0_892_2968">
<rect width="34.0704" height="20.8594" fill="white" transform="translate(4.66309 212.24) rotate(-32.2918)"/>
</clipPath>
</defs>
</svg>
