<svg width="73" height="45" viewBox="0 0 73 45" fill="none" xmlns="http://www.w3.org/2000/svg">
<rect x="0.491211" y="5" width="72" height="40" fill="#E69642"/>
<rect x="0.991211" y="0.5" width="71" height="40" fill="#FFC250" stroke="#E69642"/>
<path d="M27.5872 18.632H30.2512V31.112H27.5872V18.632ZM23.5312 20.168H34.4272V22.184H23.5312V20.168ZM22.9072 26.24H35.3872V28.352H22.9072V26.24ZM23.9872 23.216H33.9952V25.184H23.9872V23.216ZM26.4592 10.568H32.3152V12.704H26.4592V10.568ZM31.4512 10.568H31.9552L32.4112 10.472L34.0912 11.24C32.1952 16.184 27.8752 18.872 22.9072 20.24C22.6192 19.616 22.0192 18.68 21.5392 18.176C26.0032 17.168 30.0112 14.696 31.4512 10.976V10.568ZM26.6272 8.6L29.1232 9.272C27.9232 11.96 25.8352 14.408 23.7712 15.944C23.3152 15.512 22.2832 14.696 21.6832 14.336C23.7952 13.016 25.6432 10.904 26.6272 8.6ZM26.8432 12.296C28.4992 15.008 31.9312 16.976 36.2032 17.744C35.6512 18.272 34.9072 19.328 34.5472 20C30.0352 18.944 26.6272 16.52 24.6112 13.016L26.8432 12.296ZM16.7632 8.912H19.1152V14.552H16.7632V8.912ZM15.2032 13.04H22.1152V22.304H15.2032V19.976H20.0992V15.368H15.2032V13.04ZM13.8352 13.04H15.8272V23.168H13.8352V13.04ZM17.0032 14H18.8512V20.936H19.0912V27.2H16.7632V20.936H17.0032V14ZM13.1632 27.32C15.2512 26.984 18.3232 26.384 21.2992 25.784L21.5872 28.184C18.8512 28.808 15.9712 29.432 13.7152 29.936L13.1632 27.32ZM19.7872 23.816L21.8272 23.264C22.3552 25.208 22.8832 27.704 23.0992 29.36L20.9392 29.984C20.7712 28.304 20.2672 25.736 19.7872 23.816ZM43.1872 22.784V24.32H53.9632V22.784H43.1872ZM40.3552 20.672H56.9632V26.408H40.3552V20.672ZM46.9792 19.712H49.8352V29.12H46.9792V19.712ZM46.9552 8.624H49.9072V11.624H46.9552V8.624ZM38.3872 28.184C43.0432 28.136 50.2912 28.016 56.8672 27.872L56.7472 30.272C50.1712 30.464 43.1392 30.632 38.5312 30.728L38.3872 28.184ZM52.2352 26.96L54.4432 25.712C56.2192 26.936 58.3312 28.76 59.4592 29.936L57.1792 31.4C56.0752 30.152 53.9392 28.208 52.2352 26.96ZM38.1232 10.16H58.8832V14.648H55.9312V12.464H40.9552V14.648H38.1232V10.16ZM51.8272 12.392L54.1552 13.448C50.6992 17.552 44.8672 20.24 39.2272 21.824C38.8912 21.272 38.0752 20.192 37.5712 19.688C43.3072 18.416 48.8752 15.944 51.8272 12.392ZM43.7152 14.096H46.2112V16.64C46.2112 17.24 46.4272 17.312 47.6272 17.312C48.1552 17.312 50.6992 17.312 51.4192 17.312C52.3072 17.312 52.4752 17.12 52.5712 15.848C53.0992 16.184 54.0592 16.472 54.7312 16.616C54.4672 18.752 53.7472 19.28 51.6832 19.28C51.0592 19.28 47.9872 19.28 47.3872 19.28C44.4352 19.28 43.7152 18.704 43.7152 16.64V14.096ZM40.9792 13.592L43.1872 14.312C42.6112 16.16 41.6992 17.768 39.7792 18.776L37.8832 17.192C39.4912 16.448 40.5232 15.104 40.9792 13.592ZM44.9632 13.208L46.5952 11.744C47.6752 12.176 49.0192 12.944 49.7872 13.52L48.1072 15.152C47.3872 14.528 46.0432 13.664 44.9632 13.208ZM53.2672 15.416L55.2832 14.072C56.8912 15.176 58.5952 16.784 59.4352 17.984L57.3232 19.592C56.5552 18.368 54.8512 16.592 53.2672 15.416Z" fill="white"/>
</svg>
