<svg width="71" height="75" viewBox="0 0 71 75" fill="none" xmlns="http://www.w3.org/2000/svg">
<circle cx="35.2344" cy="40" r="35" fill="#5082FF"/>
<circle cx="35.2344" cy="35" r="34.5" fill="white" stroke="#5181FF"/>
<path fill-rule="evenodd" clip-rule="evenodd" d="M23.2344 16C19.3684 16 16.2344 19.134 16.2344 23V47C16.2344 50.866 19.3684 54 23.2344 54H47.2344C51.1004 54 54.2344 50.866 54.2344 47V23C54.2344 19.134 51.1004 16 47.2344 16H23.2344ZM35.6978 38.2439C37.7453 38.2439 39.4051 36.5841 39.4051 34.5366C39.4051 32.4891 37.7453 30.8293 35.6978 30.8293C33.6503 30.8293 31.9905 32.4891 31.9905 34.5366C31.9905 36.5841 33.6503 38.2439 35.6978 38.2439ZM47.7466 26.1951C47.7466 28.2426 46.0867 29.9025 44.0392 29.9025C41.9917 29.9025 40.3319 28.2426 40.3319 26.1951C40.3319 24.1476 41.9917 22.4878 44.0392 22.4878C46.0867 22.4878 47.7466 24.1476 47.7466 26.1951ZM27.3563 29.9024C29.4038 29.9024 31.0636 28.2426 31.0636 26.1951C31.0636 24.1476 29.4038 22.4878 27.3563 22.4878C25.3088 22.4878 23.649 24.1476 23.649 26.1951C23.649 28.2426 25.3088 29.9024 27.3563 29.9024ZM47.7466 42.8781C47.7466 44.9256 46.0867 46.5854 44.0392 46.5854C41.9917 46.5854 40.3319 44.9256 40.3319 42.8781C40.3319 40.8306 41.9917 39.1707 44.0392 39.1707C46.0867 39.1707 47.7466 40.8306 47.7466 42.8781ZM27.3563 46.5854C29.4038 46.5854 31.0636 44.9256 31.0636 42.8781C31.0636 40.8306 29.4038 39.1707 27.3563 39.1707C25.3088 39.1707 23.649 40.8306 23.649 42.8781C23.649 44.9256 25.3088 46.5854 27.3563 46.5854Z" fill="#5082FF"/>
</svg>
