<svg width="73" height="45" viewBox="0 0 73 45" fill="none" xmlns="http://www.w3.org/2000/svg">
<rect x="0.491211" y="5" width="72" height="40" fill="#EE6060"/>
<rect x="0.991211" y="0.5" width="71" height="40" fill="#FF816A" stroke="#EE6060"/>
<path d="M14.6032 9.944H23.5552V11.888H14.6032V9.944ZM24.7792 11.72H32.0992V14.24H24.7792V11.72ZM13.7872 13.04H24.2512V15.032H13.7872V13.04ZM17.7952 8.672H20.3632V14.072H17.7952V8.672ZM17.7952 17.96H20.3632V23.792H17.7952V17.96ZM14.2912 19.28H23.6272V21.32H14.2912V19.28ZM13.5712 23.072C16.2592 22.904 20.3392 22.568 24.2032 22.208L24.2272 24.368C20.4832 24.752 16.5952 25.136 13.7632 25.4L13.5712 23.072ZM19.5712 14.312H21.6112V16.04C21.6112 16.472 21.6352 16.496 21.8992 16.496C21.9952 16.496 22.3312 16.496 22.4512 16.496C22.7152 16.496 22.7872 16.376 22.8592 15.392C23.2192 15.704 24.0352 15.968 24.5872 16.088C24.3952 17.792 23.8672 18.248 22.7392 18.248C22.4272 18.248 21.8512 18.248 21.5392 18.248C19.9072 18.248 19.5712 17.744 19.5712 16.04V14.312ZM26.9392 8.624H29.5072C29.4352 16.568 29.2192 22.232 25.2352 25.568C24.8752 24.968 24.1072 24.08 23.5072 23.696C26.9152 20.768 26.8672 15.848 26.9392 8.624ZM24.2992 17.744L25.4512 15.608C27.2992 16.688 29.8192 18.344 30.9952 19.496L29.7712 21.944C28.6432 20.696 26.1712 18.92 24.2992 17.744ZM30.7312 11.72H33.3232V21.728C33.3232 22.28 33.3232 22.592 33.3712 22.688C33.4192 22.784 33.4912 22.808 33.5872 22.808C33.6592 22.808 33.7792 22.808 33.8512 22.808C33.9712 22.808 34.0672 22.784 34.1152 22.688C34.2112 22.592 34.2352 22.376 34.2592 21.944C34.3072 21.488 34.3312 20.504 34.3312 19.256C34.7872 19.664 35.5312 20.024 36.1312 20.216C36.1072 21.44 35.9872 22.928 35.8672 23.504C35.7472 24.08 35.5072 24.464 35.1712 24.704C34.8352 24.968 34.3552 25.088 33.8752 25.088C33.5392 25.088 33.1072 25.088 32.7952 25.088C32.2672 25.088 31.6672 24.896 31.2592 24.488C30.8752 24.08 30.7312 23.576 30.7312 21.8V11.72ZM20.3392 26.672L23.0272 26.408C23.3392 27.776 23.5792 29.528 23.6032 30.608L20.7232 30.968C20.7232 29.864 20.5792 28.064 20.3392 26.672ZM25.1392 26.648L27.8512 26.216C28.4272 27.536 28.9792 29.288 29.1712 30.392L26.2912 30.92C26.1472 29.816 25.6672 28.016 25.1392 26.648ZM29.9392 26.6L32.7232 25.76C33.7552 27.128 35.0752 29 35.6752 30.248L32.7232 31.208C32.1952 29.984 30.9952 28.016 29.9392 26.6ZM16.1392 25.856L18.9472 26.576C18.3232 28.232 17.2192 30.032 16.0912 31.16L13.3312 30.056C14.4112 29.12 15.5152 27.464 16.1392 25.856ZM16.2592 14.432H18.4432C18.2512 16.76 17.5072 18.152 14.4352 18.872C14.2432 18.368 13.6912 17.576 13.2592 17.192C15.6352 16.736 16.1392 15.968 16.2592 14.432ZM49.9312 12.824H57.6112V15.416H49.9312V12.824ZM50.0992 8.6L52.9072 9.008C52.2112 13.232 50.9152 17.096 48.9952 19.52C48.5152 19.088 47.2672 18.248 46.5952 17.912C48.4672 15.8 49.5952 12.296 50.0992 8.6ZM53.4592 13.856H54.8512V17.84C54.8512 20.216 55.7872 25.712 59.8912 28.64C59.3872 29.288 58.5472 30.488 58.1152 31.208C55.1152 29.072 53.7232 24.944 53.4352 22.832C53.0752 24.896 51.4192 28.976 48.0112 31.184C47.6752 30.536 46.8592 29.336 46.3552 28.784C51.0112 25.808 51.9952 20.312 51.9952 17.84V13.856H53.4592ZM56.9152 12.824H57.3472L57.8032 12.704L59.7232 13.16C59.3632 15.536 58.6912 18.128 57.9712 19.832L55.6912 19.088C56.2192 17.624 56.6992 15.176 56.9152 13.28V12.824ZM41.9392 13.208H44.4832V15.968H41.9392V13.208ZM38.8912 15.08H41.4592V28.448H38.8912V15.08ZM40.4752 18.2H46.0192V20.12H40.4752V18.2ZM37.1872 27.656C39.2992 27.2 42.5392 26.336 45.6352 25.472L45.9712 27.776C43.2592 28.664 40.4032 29.6 38.0992 30.32L37.1872 27.656ZM43.3312 24.2L45.6592 23.384C46.4512 24.944 47.3632 27.008 47.7232 28.304L45.2272 29.312C44.9392 27.992 44.1232 25.808 43.3312 24.2ZM40.4752 15.08H47.2192V23.288H40.4752V21.32H44.6992V17.072H40.4752V15.08ZM41.4352 8.624H42.9712V9.152H43.8112V9.92C42.7552 11.768 41.1232 14.192 38.4112 16.28C38.0752 15.68 37.3072 14.696 36.7792 14.288C39.0592 12.656 40.5952 10.472 41.4352 8.624ZM42.1792 8.624H44.1232C45.5392 9.896 47.3392 11.696 48.2992 12.92L46.3312 14.792C45.5392 13.64 43.8832 11.648 42.6352 10.52H42.1792V8.624Z" fill="white"/>
</svg>
