<svg xmlns="http://www.w3.org/2000/svg" width="700" height="700" fill="none"><path fill="#5181FF" d="M409.29 93.49c-2.42-.57-4.49-1.28-6.22-2.13s-3.22-1.88-4.48-3.1l2.86-5.54q1.11 1.05 2.52 1.92c.94.58 1.94 1.09 2.99 1.52 1.06.43 2.08.76 3.07.99 2.03.48 3.65.37 4.86-.31s2-1.87 2.4-3.55l.98-4.16.48.11c-.83 1.25-2.09 2.11-3.78 2.59-1.69.47-3.44.5-5.25.07-2.16-.51-3.94-1.43-5.32-2.75s-2.32-2.99-2.81-4.97q-.735-2.985.12-6.63c.57-2.43 1.52-4.43 2.84-5.99s2.9-2.63 4.73-3.2 3.83-.61 5.99-.1c1.88.44 3.44 1.24 4.68 2.38 1.24 1.15 1.96 2.45 2.15 3.91l-.36-.18 1.43-3.71 8.16 1.92c-.38 1.03-.72 2.08-1.04 3.16s-.6 2.14-.85 3.2l-3.62 15.37c-.94 3.99-2.82 6.77-5.64 8.36s-6.45 1.86-10.87.82zm4.48-17.14c1.46.34 2.74.13 3.82-.63q1.62-1.14 2.28-3.9c.44-1.87.34-3.38-.29-4.53q-.96-1.725-3.15-2.25c-1.5-.35-2.78-.15-3.87.59q-1.62 1.125-2.28 3.93c-.43 1.84-.33 3.34.3 4.51s1.7 1.93 3.19 2.28M443.48 92.96c-2.61-.95-4.7-2.25-6.25-3.9-1.56-1.65-2.53-3.56-2.93-5.73s-.15-4.49.75-6.95c.9-2.5 2.2-4.44 3.89-5.84s3.66-2.23 5.91-2.5 4.69.06 7.3 1.01c2.58.93 4.65 2.23 6.21 3.88s2.53 3.56 2.93 5.73.15 4.49-.75 6.95c-.88 2.44-2.17 4.37-3.87 5.8s-3.67 2.28-5.93 2.55c-2.25.27-4.67-.06-7.25-.99zm2.16-5.96c1.35.49 2.6.41 3.74-.25s2.09-2.04 2.86-4.15c.76-2.11.92-3.78.46-5.01-.46-1.24-1.36-2.1-2.71-2.59-1.38-.5-2.65-.42-3.79.24s-2.1 2.04-2.86 4.15-.92 3.78-.46 5.02q.69 1.86 2.76 2.61zM487.179 113.24c-3.09-1.71-5.02-3.71-5.78-6.02s-.33-4.93 1.29-7.87l4.18-7.56-4.08-2.25 3.04-5.5 4.08 2.25 2.79-5.04 8.61 2.45-3.76 6.81 5.32 2.94-3.04 5.5-5.32-2.94-4.02 7.27c-.68 1.23-.85 2.21-.5 2.93s.92 1.3 1.72 1.75c.49.27.93.47 1.32.59s.83.23 1.31.31l-3.18 5.76c-.77-.1-1.48-.27-2.14-.53s-1.28-.54-1.85-.86zM505.179 124.68c-2.29-1.58-3.98-3.36-5.06-5.35-1.09-1.99-1.55-4.09-1.38-6.29.16-2.2.99-4.38 2.48-6.54 1.5-2.19 3.25-3.75 5.24-4.67 1.98-.92 4.1-1.23 6.35-.93s4.52 1.25 6.81 2.82c2.26 1.56 3.941 3.33 5.021 5.32 1.09 1.99 1.55 4.09 1.39 6.29s-.991 4.38-2.481 6.54c-1.47 2.14-3.209 3.68-5.209 4.63s-4.131 1.28-6.381.97-4.5-1.24-6.77-2.79zm3.59-5.22c1.18.81 2.411 1.05 3.681.7s2.54-1.45 3.81-3.29q1.904-2.76 1.709-4.74c-.13-1.31-.79-2.38-1.97-3.19-1.21-.83-2.449-1.08-3.719-.73s-2.541 1.45-3.811 3.29c-1.27 1.85-1.839 3.42-1.709 4.74.13 1.31.799 2.39 2.009 3.22M540.13 153.27c-1.51-1.5-2.5-3.19-2.97-5.08q-.705-2.835.3-5.88c.68-2.03 1.94-3.98 3.79-5.84 1.87-1.89 3.8-3.18 5.81-3.88 2-.7 3.96-.81 5.86-.34 1.91.47 3.61 1.45 5.12 2.94q2.01 1.995 2.76 4.53c.49 1.68.43 3.21-.19 4.58l-.52-.52 10.61-10.71 6.2 6.14-24.86 25.1-6.09-6.04 3.07-3.1.45.45c-1.36.72-2.91.86-4.64.4s-3.3-1.37-4.69-2.75zm6.44-2.53c1.02 1.01 2.22 1.49 3.59 1.43s2.84-.89 4.42-2.48 2.39-3.07 2.44-4.45c.05-1.37-.44-2.56-1.46-3.58-1.04-1.03-2.25-1.52-3.62-1.46s-2.84.89-4.42 2.48-2.39 3.07-2.44 4.44.45 2.58 1.5 3.61zM556.6 169.72l13.68-11.25c.87-.71 1.71-1.45 2.53-2.21s1.62-1.54 2.37-2.33l5.36 6.51-5.19 5.48-.84-1.02c1.62-.91 3.11-1.46 4.48-1.65 1.37-.2 2.62-.06 3.75.4 1.13.47 2.16 1.27 3.1 2.41.44.53.75.94.93 1.24.18.29.33.65.46 1.05l-5.78 4.76c-.25-.85-.49-1.5-.73-1.94s-.6-.96-1.1-1.57c-.85-1.04-1.73-1.73-2.62-2.09q-1.35-.54-2.82-.06c-.98.32-2.05.96-3.21 1.91l-8.75 7.19-5.6-6.81zM570.85 187.65l19.88-14.12 5.05 7.11-19.88 14.12zm22.58-16.28 6.26-4.45 5.31 7.47-6.26 4.45zM580.081 200.57l15.32-8.98a57 57 0 0 0 5.52-3.69l4.26 7.27-3.4 2.56-.27-.46c1.74-.07 3.34.33 4.8 1.22s2.68 2.14 3.64 3.78c1.47 2.51 1.85 4.82 1.13 6.92q-1.065 3.15-5.67 5.85l-12.55 7.36-4.41-7.53 12.21-7.16c1.35-.79 2.16-1.59 2.42-2.38s.12-1.64-.41-2.54c-.69-1.18-1.64-1.92-2.83-2.21s-2.4-.07-3.65.66l-11.72 6.87-4.41-7.53zM595.92 228.42l32.31-14.29 3.53 7.98-19.01 8.41.04.09 12.37 3.64 4.16 9.41-16.5-5.03 2.68-1.18-8.3 16.48-4.26-9.64 5.9-11.94-.04-.09-9.35 4.14zM613.17 272.54l32.81-8.27 5.93 23.53-6.56 1.65-3.71-14.73-6.66 1.68 3.44 13.64-6.56 1.65-3.44-13.64-13.03 3.28zM621.631 317.02c-.63-5.12.14-9.12 2.31-11.99s5.71-4.6 10.63-5.2l19.3-2.36 1.1 8.95-19.34 2.37c-2.45.3-4.23 1.04-5.36 2.24s-1.56 2.89-1.29 5.1 1.1 3.75 2.48 4.63 3.29 1.18 5.74.88l19.34-2.37 1.08 8.86-19.3 2.36c-4.92.6-8.78-.21-11.57-2.44s-4.49-5.9-5.12-11.03M624.401 339.64l33.83.66-.13 6.66-21.6 17.08.03-1.42 21.26.42-.16 8.38-33.83-.66.13-6.67 21.6-16.98-.03 1.42-21.26-.42.17-8.48zM620.69 394.51l33.14 6.85-1.84 8.88-25.95-5.37-3 14.5-7.19-1.49 4.83-23.38zM615.939 419.2l26.88 26.17-2.36 6.96-37.27 4.57 2.91-8.59 10.16-.96-3.44 2.51 6.5-19.22 1.22 4.04-7.5-6.88 2.91-8.59zm17.07 26.68-10.85-9.72 2.58-.58-4.6 13.6-1.74-1.88 14.54-1.19.08-.23zM601.471 460.02l30.29 15.1-7.48 15c-1.72 3.45-3.75 5.75-6.07 6.91-2.33 1.16-4.7 1.14-7.1-.06-1.78-.88-3.03-2.18-3.76-3.87-.73-1.7-.86-3.58-.4-5.65l.69.34c-1.47 2.01-3.13 3.29-5 3.84s-3.81.32-5.85-.7c-2.66-1.33-4.27-3.37-4.81-6.12q-.81-4.125 1.77-9.3zm1.93 10.66-3.32 6.67c-.76 1.52-1.05 2.79-.88 3.81s.83 1.81 1.98 2.38c1.17.58 2.21.63 3.09.14.89-.49 1.71-1.49 2.47-3.01l3.32-6.67zm12.46 6.21-2.87 5.75c-.77 1.55-1.08 2.81-.92 3.79q.24 1.455 1.83 2.25t2.88.09c.86-.47 1.67-1.47 2.45-3.03l2.86-5.75-6.23-3.11zM576.5 504.54l7.13 5.04-5.24 7.4-7.13-5.04zm8.22 8.16 19.86 10.74-6.17 8.72-16.72-15.18z"/><path stroke="#fff" stroke-width="3" d="M409.29 93.49c-2.42-.57-4.49-1.28-6.22-2.13s-3.22-1.88-4.48-3.1l2.86-5.54q1.11 1.05 2.52 1.92c.94.58 1.94 1.09 2.99 1.52 1.06.43 2.08.76 3.07.99 2.03.48 3.65.37 4.86-.31s2-1.87 2.4-3.55l.98-4.16.48.11c-.83 1.25-2.09 2.11-3.78 2.59-1.69.47-3.44.5-5.25.07-2.16-.51-3.94-1.43-5.32-2.75s-2.32-2.99-2.81-4.97q-.735-2.985.12-6.63c.57-2.43 1.52-4.43 2.84-5.99s2.9-2.63 4.73-3.2 3.83-.61 5.99-.1c1.88.44 3.44 1.24 4.68 2.38 1.24 1.15 1.96 2.45 2.15 3.91l-.36-.18 1.43-3.71 8.16 1.92c-.38 1.03-.72 2.08-1.04 3.16s-.6 2.14-.85 3.2l-3.62 15.37c-.94 3.99-2.82 6.77-5.64 8.36s-6.45 1.86-10.87.82zm4.48-17.14c1.46.34 2.74.13 3.82-.63q1.62-1.14 2.28-3.9c.44-1.87.34-3.38-.29-4.53q-.96-1.725-3.15-2.25c-1.5-.35-2.78-.15-3.87.59q-1.62 1.125-2.28 3.93c-.43 1.84-.33 3.34.3 4.51s1.7 1.93 3.19 2.28ZM443.48 92.96c-2.61-.95-4.7-2.25-6.25-3.9-1.56-1.65-2.53-3.56-2.93-5.73s-.15-4.49.75-6.95c.9-2.5 2.2-4.44 3.89-5.84s3.66-2.23 5.91-2.5 4.69.06 7.3 1.01c2.58.93 4.65 2.23 6.21 3.88s2.53 3.56 2.93 5.73.15 4.49-.75 6.95c-.88 2.44-2.17 4.37-3.87 5.8s-3.67 2.28-5.93 2.55c-2.25.27-4.67-.06-7.25-.99zm2.16-5.96c1.35.49 2.6.41 3.74-.25s2.09-2.04 2.86-4.15c.76-2.11.92-3.78.46-5.01-.46-1.24-1.36-2.1-2.71-2.59-1.38-.5-2.65-.42-3.79.24s-2.1 2.04-2.86 4.15-.92 3.78-.46 5.02q.69 1.86 2.76 2.61zM487.179 113.24c-3.09-1.71-5.02-3.71-5.78-6.02s-.33-4.93 1.29-7.87l4.18-7.56-4.08-2.25 3.04-5.5 4.08 2.25 2.79-5.04 8.61 2.45-3.76 6.81 5.32 2.94-3.04 5.5-5.32-2.94-4.02 7.27c-.68 1.23-.85 2.21-.5 2.93s.92 1.3 1.72 1.75c.49.27.93.47 1.32.59s.83.23 1.31.31l-3.18 5.76c-.77-.1-1.48-.27-2.14-.53s-1.28-.54-1.85-.86zM505.179 124.68c-2.29-1.58-3.98-3.36-5.06-5.35-1.09-1.99-1.55-4.09-1.38-6.29.16-2.2.99-4.38 2.48-6.54 1.5-2.19 3.25-3.75 5.24-4.67 1.98-.92 4.1-1.23 6.35-.93s4.52 1.25 6.81 2.82c2.26 1.56 3.941 3.33 5.021 5.32 1.09 1.99 1.55 4.09 1.39 6.29s-.991 4.38-2.481 6.54c-1.47 2.14-3.209 3.68-5.209 4.63s-4.131 1.28-6.381.97-4.5-1.24-6.77-2.79zm3.59-5.22c1.18.81 2.411 1.05 3.681.7s2.54-1.45 3.81-3.29q1.904-2.76 1.709-4.74c-.13-1.31-.79-2.38-1.97-3.19-1.21-.83-2.449-1.08-3.719-.73s-2.541 1.45-3.811 3.29c-1.27 1.85-1.839 3.42-1.709 4.74.13 1.31.799 2.39 2.009 3.22ZM540.13 153.27c-1.51-1.5-2.5-3.19-2.97-5.08q-.705-2.835.3-5.88c.68-2.03 1.94-3.98 3.79-5.84 1.87-1.89 3.8-3.18 5.81-3.88 2-.7 3.96-.81 5.86-.34 1.91.47 3.61 1.45 5.12 2.94q2.01 1.995 2.76 4.53c.49 1.68.43 3.21-.19 4.58l-.52-.52 10.61-10.71 6.2 6.14-24.86 25.1-6.09-6.04 3.07-3.1.45.45c-1.36.72-2.91.86-4.64.4s-3.3-1.37-4.69-2.75zm6.44-2.53c1.02 1.01 2.22 1.49 3.59 1.43s2.84-.89 4.42-2.48 2.39-3.07 2.44-4.45c.05-1.37-.44-2.56-1.46-3.58-1.04-1.03-2.25-1.52-3.62-1.46s-2.84.89-4.42 2.48-2.39 3.07-2.44 4.44.45 2.58 1.5 3.61zM556.6 169.72l13.68-11.25c.87-.71 1.71-1.45 2.53-2.21s1.62-1.54 2.37-2.33l5.36 6.51-5.19 5.48-.84-1.02c1.62-.91 3.11-1.46 4.48-1.65 1.37-.2 2.62-.06 3.75.4 1.13.47 2.16 1.27 3.1 2.41.44.53.75.94.93 1.24.18.29.33.65.46 1.05l-5.78 4.76c-.25-.85-.49-1.5-.73-1.94s-.6-.96-1.1-1.57c-.85-1.04-1.73-1.73-2.62-2.09q-1.35-.54-2.82-.06c-.98.32-2.05.96-3.21 1.91l-8.75 7.19-5.6-6.81zM570.85 187.65l19.88-14.12 5.05 7.11-19.88 14.12zm22.58-16.28 6.26-4.45 5.31 7.47-6.26 4.45zM580.081 200.57l15.32-8.98a57 57 0 0 0 5.52-3.69l4.26 7.27-3.4 2.56-.27-.46c1.74-.07 3.34.33 4.8 1.22s2.68 2.14 3.64 3.78c1.47 2.51 1.85 4.82 1.13 6.92q-1.065 3.15-5.67 5.85l-12.55 7.36-4.41-7.53 12.21-7.16c1.35-.79 2.16-1.59 2.42-2.38s.12-1.64-.41-2.54c-.69-1.18-1.64-1.92-2.83-2.21s-2.4-.07-3.65.66l-11.72 6.87-4.41-7.53zM595.92 228.42l32.31-14.29 3.53 7.98-19.01 8.41.04.09 12.37 3.64 4.16 9.41-16.5-5.03 2.68-1.18-8.3 16.48-4.26-9.64 5.9-11.94-.04-.09-9.35 4.14zM613.17 272.54l32.81-8.27 5.93 23.53-6.56 1.65-3.71-14.73-6.66 1.68 3.44 13.64-6.56 1.65-3.44-13.64-13.03 3.28zM621.631 317.02c-.63-5.12.14-9.12 2.31-11.99s5.71-4.6 10.63-5.2l19.3-2.36 1.1 8.95-19.34 2.37c-2.45.3-4.23 1.04-5.36 2.24s-1.56 2.89-1.29 5.1 1.1 3.75 2.48 4.63 3.29 1.18 5.74.88l19.34-2.37 1.08 8.86-19.3 2.36c-4.92.6-8.78-.21-11.57-2.44s-4.49-5.9-5.12-11.03ZM624.401 339.64l33.83.66-.13 6.66-21.6 17.08.03-1.42 21.26.42-.16 8.38-33.83-.66.13-6.67 21.6-16.98-.03 1.42-21.26-.42.17-8.48zM620.69 394.51l33.14 6.85-1.84 8.88-25.95-5.37-3 14.5-7.19-1.49 4.83-23.38zM615.939 419.2l26.88 26.17-2.36 6.96-37.27 4.57 2.91-8.59 10.16-.96-3.44 2.51 6.5-19.22 1.22 4.04-7.5-6.88 2.91-8.59zm17.07 26.68-10.85-9.72 2.58-.58-4.6 13.6-1.74-1.88 14.54-1.19.08-.23zM601.471 460.02l30.29 15.1-7.48 15c-1.72 3.45-3.75 5.75-6.07 6.91-2.33 1.16-4.7 1.14-7.1-.06-1.78-.88-3.03-2.18-3.76-3.87-.73-1.7-.86-3.58-.4-5.65l.69.34c-1.47 2.01-3.13 3.29-5 3.84s-3.81.32-5.85-.7c-2.66-1.33-4.27-3.37-4.81-6.12q-.81-4.125 1.77-9.3zm1.93 10.66-3.32 6.67c-.76 1.52-1.05 2.79-.88 3.81s.83 1.81 1.98 2.38c1.17.58 2.21.63 3.09.14.89-.49 1.71-1.49 2.47-3.01l3.32-6.67zm12.46 6.21-2.87 5.75c-.77 1.55-1.08 2.81-.92 3.79q.24 1.455 1.83 2.25t2.88.09c.86-.47 1.67-1.47 2.45-3.03l2.86-5.75-6.23-3.11zM576.5 504.54l7.13 5.04-5.24 7.4-7.13-5.04zm8.22 8.16 19.86 10.74-6.17 8.72-16.72-15.18z"/><path fill="#5181FF" d="M409.29 93.49c-2.42-.57-4.49-1.28-6.22-2.13s-3.22-1.88-4.48-3.1l2.86-5.54q1.11 1.05 2.52 1.92c.94.58 1.94 1.09 2.99 1.52 1.06.43 2.08.76 3.07.99 2.03.48 3.65.37 4.86-.31s2-1.87 2.4-3.55l.98-4.16.48.11c-.83 1.25-2.09 2.11-3.78 2.59-1.69.47-3.44.5-5.25.07-2.16-.51-3.94-1.43-5.32-2.75s-2.32-2.99-2.81-4.97q-.735-2.985.12-6.63c.57-2.43 1.52-4.43 2.84-5.99s2.9-2.63 4.73-3.2 3.83-.61 5.99-.1c1.88.44 3.44 1.24 4.68 2.38 1.24 1.15 1.96 2.45 2.15 3.91l-.36-.18 1.43-3.71 8.16 1.92c-.38 1.03-.72 2.08-1.04 3.16s-.6 2.14-.85 3.2l-3.62 15.37c-.94 3.99-2.82 6.77-5.64 8.36s-6.45 1.86-10.87.82zm4.48-17.14c1.46.34 2.74.13 3.82-.63q1.62-1.14 2.28-3.9c.44-1.87.34-3.38-.29-4.53q-.96-1.725-3.15-2.25c-1.5-.35-2.78-.15-3.87.59q-1.62 1.125-2.28 3.93c-.43 1.84-.33 3.34.3 4.51s1.7 1.93 3.19 2.28M443.48 92.96c-2.61-.95-4.7-2.25-6.25-3.9-1.56-1.65-2.53-3.56-2.93-5.73s-.15-4.49.75-6.95c.9-2.5 2.2-4.44 3.89-5.84s3.66-2.23 5.91-2.5 4.69.06 7.3 1.01c2.58.93 4.65 2.23 6.21 3.88s2.53 3.56 2.93 5.73.15 4.49-.75 6.95c-.88 2.44-2.17 4.37-3.87 5.8s-3.67 2.28-5.93 2.55c-2.25.27-4.67-.06-7.25-.99zm2.16-5.96c1.35.49 2.6.41 3.74-.25s2.09-2.04 2.86-4.15c.76-2.11.92-3.78.46-5.01-.46-1.24-1.36-2.1-2.71-2.59-1.38-.5-2.65-.42-3.79.24s-2.1 2.04-2.86 4.15-.92 3.78-.46 5.02q.69 1.86 2.76 2.61zM487.179 113.24c-3.09-1.71-5.02-3.71-5.78-6.02s-.33-4.93 1.29-7.87l4.18-7.56-4.08-2.25 3.04-5.5 4.08 2.25 2.79-5.04 8.61 2.45-3.76 6.81 5.32 2.94-3.04 5.5-5.32-2.94-4.02 7.27c-.68 1.23-.85 2.21-.5 2.93s.92 1.3 1.72 1.75c.49.27.93.47 1.32.59s.83.23 1.31.31l-3.18 5.76c-.77-.1-1.48-.27-2.14-.53s-1.28-.54-1.85-.86zM505.179 124.68c-2.29-1.58-3.98-3.36-5.06-5.35-1.09-1.99-1.55-4.09-1.38-6.29.16-2.2.99-4.38 2.48-6.54 1.5-2.19 3.25-3.75 5.24-4.67 1.98-.92 4.1-1.23 6.35-.93s4.52 1.25 6.81 2.82c2.26 1.56 3.941 3.33 5.021 5.32 1.09 1.99 1.55 4.09 1.39 6.29s-.991 4.38-2.481 6.54c-1.47 2.14-3.209 3.68-5.209 4.63s-4.131 1.28-6.381.97-4.5-1.24-6.77-2.79zm3.59-5.22c1.18.81 2.411 1.05 3.681.7s2.54-1.45 3.81-3.29q1.904-2.76 1.709-4.74c-.13-1.31-.79-2.38-1.97-3.19-1.21-.83-2.449-1.08-3.719-.73s-2.541 1.45-3.811 3.29c-1.27 1.85-1.839 3.42-1.709 4.74.13 1.31.799 2.39 2.009 3.22M540.13 153.27c-1.51-1.5-2.5-3.19-2.97-5.08q-.705-2.835.3-5.88c.68-2.03 1.94-3.98 3.79-5.84 1.87-1.89 3.8-3.18 5.81-3.88 2-.7 3.96-.81 5.86-.34 1.91.47 3.61 1.45 5.12 2.94q2.01 1.995 2.76 4.53c.49 1.68.43 3.21-.19 4.58l-.52-.52 10.61-10.71 6.2 6.14-24.86 25.1-6.09-6.04 3.07-3.1.45.45c-1.36.72-2.91.86-4.64.4s-3.3-1.37-4.69-2.75zm6.44-2.53c1.02 1.01 2.22 1.49 3.59 1.43s2.84-.89 4.42-2.48 2.39-3.07 2.44-4.45c.05-1.37-.44-2.56-1.46-3.58-1.04-1.03-2.25-1.52-3.62-1.46s-2.84.89-4.42 2.48-2.39 3.07-2.44 4.44.45 2.58 1.5 3.61zM556.6 169.72l13.68-11.25c.87-.71 1.71-1.45 2.53-2.21s1.62-1.54 2.37-2.33l5.36 6.51-5.19 5.48-.84-1.02c1.62-.91 3.11-1.46 4.48-1.65 1.37-.2 2.62-.06 3.75.4 1.13.47 2.16 1.27 3.1 2.41.44.53.75.94.93 1.24.18.29.33.65.46 1.05l-5.78 4.76c-.25-.85-.49-1.5-.73-1.94s-.6-.96-1.1-1.57c-.85-1.04-1.73-1.73-2.62-2.09q-1.35-.54-2.82-.06c-.98.32-2.05.96-3.21 1.91l-8.75 7.19-5.6-6.81zM570.85 187.65l19.88-14.12 5.05 7.11-19.88 14.12zm22.58-16.28 6.26-4.45 5.31 7.47-6.26 4.45zM580.081 200.57l15.32-8.98a57 57 0 0 0 5.52-3.69l4.26 7.27-3.4 2.56-.27-.46c1.74-.07 3.34.33 4.8 1.22s2.68 2.14 3.64 3.78c1.47 2.51 1.85 4.82 1.13 6.92q-1.065 3.15-5.67 5.85l-12.55 7.36-4.41-7.53 12.21-7.16c1.35-.79 2.16-1.59 2.42-2.38s.12-1.64-.41-2.54c-.69-1.18-1.64-1.92-2.83-2.21s-2.4-.07-3.65.66l-11.72 6.87-4.41-7.53zM595.92 228.42l32.31-14.29 3.53 7.98-19.01 8.41.04.09 12.37 3.64 4.16 9.41-16.5-5.03 2.68-1.18-8.3 16.48-4.26-9.64 5.9-11.94-.04-.09-9.35 4.14zM613.17 272.54l32.81-8.27 5.93 23.53-6.56 1.65-3.71-14.73-6.66 1.68 3.44 13.64-6.56 1.65-3.44-13.64-13.03 3.28zM621.631 317.02c-.63-5.12.14-9.12 2.31-11.99s5.71-4.6 10.63-5.2l19.3-2.36 1.1 8.95-19.34 2.37c-2.45.3-4.23 1.04-5.36 2.24s-1.56 2.89-1.29 5.1 1.1 3.75 2.48 4.63 3.29 1.18 5.74.88l19.34-2.37 1.08 8.86-19.3 2.36c-4.92.6-8.78-.21-11.57-2.44s-4.49-5.9-5.12-11.03M624.401 339.64l33.83.66-.13 6.66-21.6 17.08.03-1.42 21.26.42-.16 8.38-33.83-.66.13-6.67 21.6-16.98-.03 1.42-21.26-.42.17-8.48zM620.69 394.51l33.14 6.85-1.84 8.88-25.95-5.37-3 14.5-7.19-1.49 4.83-23.38zM615.939 419.2l26.88 26.17-2.36 6.96-37.27 4.57 2.91-8.59 10.16-.96-3.44 2.51 6.5-19.22 1.22 4.04-7.5-6.88 2.91-8.59zm17.07 26.68-10.85-9.72 2.58-.58-4.6 13.6-1.74-1.88 14.54-1.19.08-.23zM601.471 460.02l30.29 15.1-7.48 15c-1.72 3.45-3.75 5.75-6.07 6.91-2.33 1.16-4.7 1.14-7.1-.06-1.78-.88-3.03-2.18-3.76-3.87-.73-1.7-.86-3.58-.4-5.65l.69.34c-1.47 2.01-3.13 3.29-5 3.84s-3.81.32-5.85-.7c-2.66-1.33-4.27-3.37-4.81-6.12q-.81-4.125 1.77-9.3zm1.93 10.66-3.32 6.67c-.76 1.52-1.05 2.79-.88 3.81s.83 1.81 1.98 2.38c1.17.58 2.21.63 3.09.14.89-.49 1.71-1.49 2.47-3.01l3.32-6.67zm12.46 6.21-2.87 5.75c-.77 1.55-1.08 2.81-.92 3.79q.24 1.455 1.83 2.25t2.88.09c.86-.47 1.67-1.47 2.45-3.03l2.86-5.75-6.23-3.11zM576.5 504.54l7.13 5.04-5.24 7.4-7.13-5.04zm8.22 8.16 19.86 10.74-6.17 8.72-16.72-15.18z"/></svg>